G04 (created by PCBNEW (2013-mar-13)-testing) date Wed 23 Jul 2014 10:48:42 AM PDT*
%MOIN*%
G04 Gerber Fmt 3.4, Leading zero omitted, Abs format*
%FSLAX34Y34*%
G01*
G70*
G90*
G04 APERTURE LIST*
%ADD10C,0.005906*%
%ADD11R,0.060000X0.060000*%
%ADD12C,0.060000*%
%ADD13R,0.070000X0.070000*%
%ADD14C,0.070000*%
%ADD15C,0.200000*%
%ADD16C,0.181100*%
%ADD17R,0.062000X0.090000*%
%ADD18O,0.062000X0.090000*%
G04 APERTURE END LIST*
G54D10*
G54D11*
X21744Y-24500D03*
G54D12*
X22744Y-24500D03*
X21744Y-25500D03*
X22744Y-25500D03*
G54D11*
X21744Y-30799D03*
G54D12*
X22744Y-30799D03*
X21744Y-31799D03*
X22744Y-31799D03*
G54D11*
X32374Y-24500D03*
G54D12*
X33374Y-24500D03*
X32374Y-25500D03*
X33374Y-25500D03*
G54D11*
X32374Y-30799D03*
G54D12*
X33374Y-30799D03*
X32374Y-31799D03*
X33374Y-31799D03*
G54D13*
X23212Y-48531D03*
G54D14*
X23212Y-47531D03*
X24212Y-48531D03*
X24212Y-47531D03*
X25212Y-48531D03*
X25212Y-47531D03*
G54D15*
X32874Y-45669D03*
G54D16*
X32874Y-48031D03*
G54D17*
X23637Y-39444D03*
G54D18*
X22637Y-39444D03*
X21637Y-39444D03*
X21637Y-42444D03*
X22637Y-42444D03*
X23637Y-42444D03*
G54D17*
X33814Y-39444D03*
G54D18*
X32814Y-39444D03*
X31814Y-39444D03*
X30814Y-39444D03*
X29814Y-39444D03*
X28814Y-39444D03*
X27814Y-39444D03*
X26814Y-39444D03*
X26814Y-42444D03*
X27814Y-42444D03*
X28814Y-42444D03*
X29814Y-42444D03*
X30814Y-42444D03*
X31814Y-42444D03*
X32814Y-42444D03*
X33814Y-42444D03*
M02*
