M48
; DRILL file {KiCad 7.0.2-6a45011f42~172~ubuntu22.04.1} date Mon 29 May 2023 10:59:42 PM PDT
; FORMAT={-:-/ absolute / metric / decimal}
; #@! TF.CreationDate,2023-05-29T22:59:42-07:00
; #@! TF.GenerationSoftware,Kicad,Pcbnew,7.0.2-6a45011f42~172~ubuntu22.04.1
; #@! TF.FileFunction,Plated,1,4,PTH
FMAT,2
METRIC
; #@! TA.AperFunction,Plated,PTH,ViaDrill
T1C0.300
; #@! TA.AperFunction,Plated,PTH,ViaDrill
T2C0.600
; #@! TA.AperFunction,Plated,PTH,ComponentDrill
T3C1.000
%
G90
G05
T1
X62.822Y-63.101
X63.627Y-63.017
X64.643Y-74.397
X64.872Y-72.238
X65.239Y-73.835
X65.693Y-63.276
X65.693Y-72.25
X66.548Y-63.043
X69.748Y-72.669
X70.542Y-72.325
X71.196Y-70.383
X71.367Y-67.4
X71.984Y-75.057
X72.161Y-74.27
X72.339Y-67.666
X72.415Y-69.647
X72.669Y-66.853
X72.923Y-74.905
X73.0Y-69.063
X73.0Y-76.149
X73.812Y-75.971
X75.514Y-65.303
X76.252Y-65.746
X77.241Y-78.969
X77.722Y-70.027
X77.791Y-78.277
X78.588Y-70.18
X78.613Y-67.869
X78.892Y-76.75
X79.047Y-74.37
X79.359Y-68.351
X79.527Y-76.022
X79.556Y-73.157
X79.807Y-74.803
X79.919Y-69.122
X80.112Y-72.415
X81.61Y-67.208
X82.144Y-67.894
T2
X54.051Y-69.317
X54.051Y-73.914
X67.97Y-65.024
X68.25Y-78.232
T3
X52.22Y-58.75
X52.22Y-84.7
X54.76Y-58.75
X54.76Y-84.7
X55.23Y-62.23
X55.23Y-64.77
X55.23Y-78.23
X55.23Y-80.77
X57.3Y-58.75
X57.3Y-84.7
X57.77Y-62.23
X57.77Y-64.77
X57.77Y-78.23
X57.77Y-80.77
X59.84Y-58.75
X59.84Y-84.7
X62.38Y-58.75
X62.38Y-84.7
X64.92Y-58.75
X64.92Y-84.7
X67.46Y-58.75
X67.46Y-84.7
X70.0Y-58.75
X70.0Y-84.7
X72.54Y-58.75
X72.54Y-84.7
X75.08Y-58.75
X75.08Y-84.7
X77.62Y-58.75
X77.62Y-84.7
X80.16Y-58.75
X80.16Y-84.7
X82.23Y-62.23
X82.23Y-64.77
X82.23Y-78.23
X82.23Y-80.77
X82.7Y-58.75
X82.7Y-84.7
X84.77Y-62.23
X84.77Y-64.77
X84.77Y-78.23
X84.77Y-80.77
X85.24Y-58.75
X85.24Y-84.7
X87.78Y-58.75
X87.78Y-84.7
T0
M30
