%TF.GenerationSoftware,KiCad,Pcbnew,7.0.2-6a45011f42~172~ubuntu22.04.1*%
%TF.CreationDate,2023-05-29T22:59:09-07:00*%
%TF.ProjectId,comm_v0p5,636f6d6d-5f76-4307-9035-2e6b69636164,rev?*%
%TF.SameCoordinates,Original*%
%TF.FileFunction,Soldermask,Top*%
%TF.FilePolarity,Negative*%
%FSLAX46Y46*%
G04 Gerber Fmt 4.6, Leading zero omitted, Abs format (unit mm)*
G04 Created by KiCad (PCBNEW 7.0.2-6a45011f42~172~ubuntu22.04.1) date 2023-05-29 22:59:09*
%MOMM*%
%LPD*%
G01*
G04 APERTURE LIST*
G04 Aperture macros list*
%AMRoundRect*
0 Rectangle with rounded corners*
0 $1 Rounding radius*
0 $2 $3 $4 $5 $6 $7 $8 $9 X,Y pos of 4 corners*
0 Add a 4 corners polygon primitive as box body*
4,1,4,$2,$3,$4,$5,$6,$7,$8,$9,$2,$3,0*
0 Add four circle primitives for the rounded corners*
1,1,$1+$1,$2,$3*
1,1,$1+$1,$4,$5*
1,1,$1+$1,$6,$7*
1,1,$1+$1,$8,$9*
0 Add four rect primitives between the rounded corners*
20,1,$1+$1,$2,$3,$4,$5,0*
20,1,$1+$1,$4,$5,$6,$7,0*
20,1,$1+$1,$6,$7,$8,$9,0*
20,1,$1+$1,$8,$9,$2,$3,0*%
%AMRotRect*
0 Rectangle, with rotation*
0 The origin of the aperture is its center*
0 $1 length*
0 $2 width*
0 $3 Rotation angle, in degrees counterclockwise*
0 Add horizontal line*
21,1,$1,$2,0,0,$3*%
G04 Aperture macros list end*
%ADD10R,1.700000X1.700000*%
%ADD11O,1.700000X1.700000*%
%ADD12RoundRect,0.200000X0.200000X0.275000X-0.200000X0.275000X-0.200000X-0.275000X0.200000X-0.275000X0*%
%ADD13RoundRect,0.140000X0.021213X-0.219203X0.219203X-0.021213X-0.021213X0.219203X-0.219203X0.021213X0*%
%ADD14RoundRect,0.062500X-0.309359X0.220971X0.220971X-0.309359X0.309359X-0.220971X-0.220971X0.309359X0*%
%ADD15RoundRect,0.062500X-0.309359X-0.220971X-0.220971X-0.309359X0.309359X0.220971X0.220971X0.309359X0*%
%ADD16RotRect,3.100000X3.100000X315.000000*%
%ADD17RoundRect,0.140000X-0.021213X0.219203X-0.219203X0.021213X0.021213X-0.219203X0.219203X-0.021213X0*%
%ADD18RotRect,0.400000X1.900000X225.000000*%
G04 APERTURE END LIST*
D10*
%TO.C,J4*%
X55230000Y-62230000D03*
D11*
X57770000Y-62230000D03*
X55230000Y-64770000D03*
X57770000Y-64770000D03*
%TD*%
D10*
%TO.C,J6*%
X82230000Y-62230000D03*
D11*
X84770000Y-62230000D03*
X82230000Y-64770000D03*
X84770000Y-64770000D03*
%TD*%
D10*
%TO.C,J5*%
X55230000Y-78230000D03*
D11*
X57770000Y-78230000D03*
X55230000Y-80770000D03*
X57770000Y-80770000D03*
%TD*%
D10*
%TO.C,J7*%
X82230000Y-78230000D03*
D11*
X84770000Y-78230000D03*
X82230000Y-80770000D03*
X84770000Y-80770000D03*
%TD*%
D12*
%TO.C,R5*%
X74993000Y-63144400D03*
X73343000Y-63144400D03*
%TD*%
D10*
%TO.C,J1*%
X87780000Y-84700000D03*
D11*
X85240000Y-84700000D03*
X82700000Y-84700000D03*
X80160000Y-84700000D03*
X77620000Y-84700000D03*
X75080000Y-84700000D03*
X72540000Y-84700000D03*
X70000000Y-84700000D03*
X67460000Y-84700000D03*
X64920000Y-84700000D03*
X62380000Y-84700000D03*
X59840000Y-84700000D03*
X57300000Y-84700000D03*
X54760000Y-84700000D03*
X52220000Y-84700000D03*
%TD*%
D13*
%TO.C,C2*%
X78147689Y-76005611D03*
X78826511Y-75326789D03*
%TD*%
D10*
%TO.C,J2*%
X87780000Y-58750000D03*
D11*
X85240000Y-58750000D03*
X82700000Y-58750000D03*
X80160000Y-58750000D03*
X77620000Y-58750000D03*
X75080000Y-58750000D03*
X72540000Y-58750000D03*
X70000000Y-58750000D03*
X67460000Y-58750000D03*
X64920000Y-58750000D03*
X62380000Y-58750000D03*
X59840000Y-58750000D03*
X57300000Y-58750000D03*
X54760000Y-58750000D03*
X52220000Y-58750000D03*
%TD*%
D14*
%TO.C,U1*%
X75290364Y-69954090D03*
X74936811Y-70307644D03*
X74583257Y-70661197D03*
X74229704Y-71014751D03*
X73876151Y-71368304D03*
X73522597Y-71721857D03*
X73169044Y-72075411D03*
X72815490Y-72428964D03*
D15*
X72815490Y-73401236D03*
X73169044Y-73754789D03*
X73522597Y-74108343D03*
X73876151Y-74461896D03*
X74229704Y-74815449D03*
X74583257Y-75169003D03*
X74936811Y-75522556D03*
X75290364Y-75876110D03*
D14*
X76262636Y-75876110D03*
X76616189Y-75522556D03*
X76969743Y-75169003D03*
X77323296Y-74815449D03*
X77676849Y-74461896D03*
X78030403Y-74108343D03*
X78383956Y-73754789D03*
X78737510Y-73401236D03*
D15*
X78737510Y-72428964D03*
X78383956Y-72075411D03*
X78030403Y-71721857D03*
X77676849Y-71368304D03*
X77323296Y-71014751D03*
X76969743Y-70661197D03*
X76616189Y-70307644D03*
X76262636Y-69954090D03*
D16*
X75776500Y-72915100D03*
%TD*%
D17*
%TO.C,C1*%
X73446511Y-69867389D03*
X72767689Y-70546211D03*
%TD*%
D18*
%TO.C,Y1*%
X70872928Y-68310172D03*
X70024400Y-69158700D03*
X69175872Y-70007228D03*
%TD*%
M02*
