M48
;DRILL file {Pcbnew (2013-jul-07)-stable} date Thu 11 Jun 2015 04:55:32 PM PDT
;FORMAT={-:-/ absolute / inch / decimal}
FMAT,2
INCH,TZ
T1C0.025
T2C0.031
T3C0.039
T4C0.040
T5C0.063
T6C0.070
T7C0.106
T8C0.106
T9C0.120
T10C0.124
%
G90
G05
M72
T1
X3.9816Y-4.1504
X4.6319Y-3.8052
X4.7479Y-3.7857
X4.783Y-4.1858
X4.787Y-3.7606
X4.8637Y-2.2368
X5.6103Y-3.7267
X5.9871Y-4.1833
X6.0881Y-4.2772
X6.1003Y-4.2191
X6.2994Y-4.0871
X6.4252Y-3.5585
X6.5402Y-2.4241
X6.6045Y-3.3322
X6.6797Y-2.4636
X7.4006Y-3.6456
X7.6194Y-3.285
X8.4917Y-2.6808
X8.533Y-2.8608
X8.578Y-3.2151
X8.6197Y-2.8933
X8.71Y-3.3932
X9.014Y-3.9728
X9.1048Y-3.8849
X9.3357Y-3.925
X9.4013Y-3.8925
X9.4113Y-4.0692
X9.5531Y-2.3474
X9.6476Y-2.4883
X9.73Y-3.6456
X9.9728Y-3.4503
X10.0252Y-3.5167
X10.0578Y-3.6296
X10.1025Y-3.3274
X10.1066Y-3.6046
X10.1151Y-3.5392
X10.1403Y-3.4719
X10.4808Y-3.6639
T2
X9.4703Y-3.96
X9.4703Y-4.11
X9.5203Y-4.035
X9.5203Y-4.185
X9.5703Y-3.96
X9.5703Y-4.11
X9.6203Y-4.035
X9.6203Y-4.185
X9.6703Y-3.96
X9.6703Y-4.11
X9.7203Y-4.035
X9.7203Y-4.185
X9.7703Y-3.96
X9.7703Y-4.11
X9.8203Y-4.035
X9.8203Y-4.185
X9.8703Y-3.96
X9.8703Y-4.11
X9.9203Y-4.035
X9.9203Y-4.185
X9.9703Y-3.96
X9.9703Y-4.11
X10.0203Y-4.035
X10.0203Y-4.185
X10.0703Y-3.96
X10.0703Y-4.11
X10.1203Y-4.035
X10.1203Y-4.185
X10.1703Y-3.96
X10.1703Y-4.11
X10.2203Y-4.035
X10.2203Y-4.185
X10.2703Y-3.96
X10.2703Y-4.11
X10.3203Y-4.035
X10.3203Y-4.185
X10.3703Y-3.96
X10.3703Y-4.11
X10.4203Y-4.035
X10.4203Y-4.185
X10.4703Y-3.96
X10.4703Y-4.11
X10.5203Y-4.035
X10.5203Y-4.185
X10.5703Y-3.96
X10.5703Y-4.11
X10.6203Y-4.035
X10.6203Y-4.185
X10.6703Y-3.96
X10.6703Y-4.11
X10.7203Y-4.035
X10.7203Y-4.185
X10.7703Y-3.96
X10.7703Y-4.11
X10.8203Y-4.035
X10.8203Y-4.185
X10.8703Y-3.96
X10.8703Y-4.11
X10.9203Y-4.035
X10.9203Y-4.185
X10.9703Y-3.96
X10.9703Y-4.11
X11.0203Y-4.035
X11.0203Y-4.185
X11.0703Y-3.96
X11.0703Y-4.11
X11.1203Y-4.035
X11.1203Y-4.185
T3
X2.548Y-3.2087
X2.548Y-3.4055
X4.128Y-3.2087
X4.128Y-3.4055
X5.707Y-3.2087
X5.707Y-3.4055
X7.282Y-3.2087
X7.282Y-3.4055
X8.864Y-3.2087
X8.864Y-3.4055
X10.444Y-3.2087
X10.444Y-3.4055
T4
X1.72Y-3.24
X1.72Y-3.34
X1.72Y-3.44
X1.72Y-3.54
X2.0461Y-2.2874
X2.1461Y-2.2874
X2.245Y-2.5953
X2.245Y-2.9953
X2.2461Y-2.2874
X2.345Y-2.5953
X2.345Y-2.9953
X2.3461Y-2.2874
X2.445Y-2.5953
X2.445Y-2.9953
X2.4461Y-2.2874
X2.545Y-2.5953
X2.545Y-2.9953
X2.5461Y-2.2874
X2.645Y-2.5953
X2.645Y-2.9953
X2.6461Y-2.2874
X2.745Y-2.5953
X2.745Y-2.9953
X2.7461Y-2.2874
X2.845Y-2.5953
X2.845Y-2.9953
X2.8461Y-2.2874
X2.9461Y-2.2874
X3.0461Y-2.2874
X3.1461Y-2.2874
X3.2324Y-2.7953
X3.2461Y-2.2874
X3.3461Y-2.2874
X3.4324Y-2.7953
X3.4461Y-2.2874
X3.6248Y-2.2874
X3.7248Y-2.2874
X3.8248Y-2.2874
X3.825Y-2.5953
X3.825Y-2.9953
X3.9248Y-2.2874
X3.925Y-2.5953
X3.925Y-2.9953
X3.9713Y-3.9657
X3.9713Y-4.0657
X4.0248Y-2.2874
X4.025Y-2.5953
X4.025Y-2.9953
X4.0713Y-3.9657
X4.0713Y-4.0657
X4.1248Y-2.2874
X4.125Y-2.5953
X4.125Y-2.9953
X4.1713Y-3.9657
X4.1713Y-4.0657
X4.2248Y-2.2874
X4.225Y-2.5953
X4.225Y-2.9953
X4.2713Y-3.9657
X4.2713Y-4.0657
X4.3248Y-2.2874
X4.325Y-2.5953
X4.325Y-2.9953
X4.3713Y-3.9657
X4.3713Y-4.0657
X4.4248Y-2.2874
X4.425Y-2.5953
X4.425Y-2.9953
X4.4713Y-3.9657
X4.4713Y-4.0657
X4.5248Y-2.2874
X4.5713Y-3.9657
X4.5713Y-4.0657
X4.6248Y-2.2874
X4.6713Y-3.9657
X4.6713Y-4.0657
X4.7248Y-2.2874
X4.7713Y-3.9657
X4.7713Y-4.0657
X4.8124Y-2.7953
X4.8248Y-2.2874
X4.8713Y-3.9657
X4.8713Y-4.0657
X4.9248Y-2.2874
X4.9713Y-3.9657
X4.9713Y-4.0657
X5.0124Y-2.7953
X5.0248Y-2.2874
X5.0713Y-3.9657
X5.0713Y-4.0657
X5.1713Y-3.9657
X5.1713Y-4.0657
X5.2035Y-2.2874
X5.2713Y-3.9657
X5.2713Y-4.0657
X5.3035Y-2.2874
X5.3713Y-3.9657
X5.3713Y-4.0657
X5.4035Y-2.2874
X5.405Y-2.5953
X5.405Y-2.9953
X5.4713Y-3.9657
X5.4713Y-4.0657
X5.5035Y-2.2874
X5.505Y-2.5953
X5.505Y-2.9953
X5.5713Y-3.9657
X5.5713Y-4.0657
X5.6035Y-2.2874
X5.605Y-2.5953
X5.605Y-2.9953
X5.6713Y-3.9657
X5.6713Y-4.0657
X5.7035Y-2.2874
X5.705Y-2.5953
X5.705Y-2.9953
X5.7713Y-3.9657
X5.7713Y-4.0657
X5.8035Y-2.2874
X5.805Y-2.5953
X5.805Y-2.9953
X5.8713Y-3.9657
X5.8713Y-4.0657
X5.9035Y-2.2874
X5.905Y-2.5953
X5.905Y-2.9953
X6.0035Y-2.2874
X6.005Y-2.5953
X6.005Y-2.9953
X6.1035Y-2.2874
X6.2035Y-2.2874
X6.3035Y-2.2874
X6.3924Y-2.7953
X6.4035Y-2.2874
X6.5035Y-2.2874
X6.5697Y-3.9657
X6.5697Y-4.0657
X6.5924Y-2.7953
X6.6035Y-2.2874
X6.6697Y-3.9657
X6.6697Y-4.0657
X6.7697Y-3.9657
X6.7697Y-4.0657
X6.7823Y-2.2874
X6.8697Y-3.9657
X6.8697Y-4.0657
X6.8823Y-2.2874
X6.9697Y-3.9657
X6.9697Y-4.0657
X6.982Y-2.5953
X6.982Y-2.9953
X6.9823Y-2.2874
X7.0697Y-3.9657
X7.0697Y-4.0657
X7.082Y-2.5953
X7.082Y-2.9953
X7.0823Y-2.2874
X7.1697Y-3.9657
X7.1697Y-4.0657
X7.182Y-2.5953
X7.182Y-2.9953
X7.1823Y-2.2874
X7.2697Y-3.9657
X7.2697Y-4.0657
X7.282Y-2.5953
X7.282Y-2.9953
X7.2823Y-2.2874
X7.3697Y-3.9657
X7.3697Y-4.0657
X7.382Y-2.5953
X7.382Y-2.9953
X7.3823Y-2.2874
X7.4697Y-3.9657
X7.4697Y-4.0657
X7.482Y-2.5953
X7.482Y-2.9953
X7.4823Y-2.2874
X7.5697Y-3.9657
X7.5697Y-4.0657
X7.582Y-2.5953
X7.582Y-2.9953
X7.5823Y-2.2874
X7.6697Y-3.9657
X7.6697Y-4.0657
X7.6823Y-2.2874
X7.7697Y-3.9657
X7.7697Y-4.0657
X7.7823Y-2.2874
X7.8697Y-3.9657
X7.8697Y-4.0657
X7.8823Y-2.2874
X7.9694Y-2.7953
X7.9697Y-3.9657
X7.9697Y-4.0657
X7.9823Y-2.2874
X8.0697Y-3.9657
X8.0697Y-4.0657
X8.0823Y-2.2874
X8.1694Y-2.7953
X8.1697Y-3.9657
X8.1697Y-4.0657
X8.1823Y-2.2874
X8.2697Y-3.9657
X8.2697Y-4.0657
X8.361Y-2.2874
X8.3697Y-3.9657
X8.3697Y-4.0657
X8.461Y-2.2874
X8.4697Y-3.9657
X8.4697Y-4.0657
X8.561Y-2.2874
X8.564Y-2.5953
X8.564Y-2.9953
X8.661Y-2.2874
X8.664Y-2.5953
X8.664Y-2.9953
X8.761Y-2.2874
X8.764Y-2.5953
X8.764Y-2.9953
X8.861Y-2.2874
X8.864Y-2.5953
X8.864Y-2.9953
X8.961Y-2.2874
X8.964Y-2.5953
X8.964Y-2.9953
X9.061Y-2.2874
X9.064Y-2.5953
X9.064Y-2.9953
X9.161Y-2.2874
X9.164Y-2.5953
X9.164Y-2.9953
X9.261Y-2.2874
X9.361Y-2.2874
X9.461Y-2.2874
X9.5514Y-2.7953
X9.561Y-2.2874
X9.661Y-2.2874
X9.7514Y-2.7953
X9.761Y-2.2874
X9.9398Y-2.2874
X10.0398Y-2.2874
X10.1398Y-2.2874
X10.14Y-2.5953
X10.14Y-2.9953
X10.2398Y-2.2874
X10.24Y-2.5953
X10.24Y-2.9953
X10.3398Y-2.2874
X10.34Y-2.5953
X10.34Y-2.9953
X10.4398Y-2.2874
X10.44Y-2.5953
X10.44Y-2.9953
X10.5398Y-2.2874
X10.54Y-2.5953
X10.54Y-2.9953
X10.6398Y-2.2874
X10.64Y-2.5953
X10.64Y-2.9953
X10.7398Y-2.2874
X10.74Y-2.5953
X10.74Y-2.9953
X10.8398Y-2.2874
X10.9398Y-2.2874
X11.0398Y-2.2874
X11.091Y-3.022
X11.091Y-3.122
X11.091Y-3.222
X11.091Y-3.322
X11.091Y-3.422
X11.091Y-3.522
X11.091Y-3.622
X11.1398Y-2.2874
X11.2398Y-2.2874
X11.3398Y-2.2874
X11.491Y-3.022
X11.491Y-3.122
X11.491Y-3.222
X11.491Y-3.322
X11.491Y-3.422
X11.491Y-3.522
X11.491Y-3.622
T5
X2.2638Y-4.2115
T6
X2.948Y-4.0315
X3.135Y-4.0315
X3.322Y-4.0315
T7
X2.0868Y-4.1325
X2.2638Y-4.0935
X2.4408Y-4.1325
T8
X9.1553Y-4.11
X11.4352Y-4.11
T9
X1.6732Y-2.5787
X1.6732Y-4.2323
X6.2205Y-2.5787
X6.2205Y-4.2323
X11.7126Y-2.5787
X11.7126Y-4.2323
T10
X2.2638Y-3.8575
T0
M30
