G04 (created by PCBNEW (2013-jul-07)-stable) date Thu 11 Jun 2015 04:55:29 PM PDT*
%MOIN*%
G04 Gerber Fmt 3.4, Leading zero omitted, Abs format*
%FSLAX34Y34*%
G01*
G70*
G90*
G04 APERTURE LIST*
%ADD10C,0.00590551*%
%ADD11C,0.1*%
%ADD12R,0.06X0.06*%
%ADD13C,0.06*%
%ADD14C,0.13*%
%ADD15C,0.145669*%
%ADD16C,0.0472441*%
%ADD17C,0.076*%
%ADD18C,0.14*%
%ADD19C,0.16*%
%ADD20C,0.07*%
%ADD21C,0.0590551*%
%ADD22C,0.035*%
%ADD23C,0.025*%
%ADD24C,0.01*%
G04 APERTURE END LIST*
G54D10*
G54D11*
X32324Y-27952D03*
X34324Y-27952D03*
X48124Y-27952D03*
X50124Y-27952D03*
X63924Y-27952D03*
X65924Y-27952D03*
X79694Y-27952D03*
X81694Y-27952D03*
X95514Y-27952D03*
X97514Y-27952D03*
G54D12*
X39712Y-40657D03*
G54D13*
X39712Y-39657D03*
X44712Y-40657D03*
X40712Y-39657D03*
X45712Y-40657D03*
X41712Y-39657D03*
X46712Y-40657D03*
X42712Y-39657D03*
X47712Y-40657D03*
X43712Y-39657D03*
X48712Y-40657D03*
X44712Y-39657D03*
X49712Y-40657D03*
X45712Y-39657D03*
X50712Y-40657D03*
X46712Y-39657D03*
X51712Y-40657D03*
X47712Y-39657D03*
X52712Y-40657D03*
X48712Y-39657D03*
X53712Y-40657D03*
X49712Y-39657D03*
X54712Y-40657D03*
X50712Y-39657D03*
X51712Y-39657D03*
X55712Y-40657D03*
X52712Y-39657D03*
X54712Y-39657D03*
X55712Y-39657D03*
X56712Y-39657D03*
X57712Y-39657D03*
X56712Y-40657D03*
X57712Y-40657D03*
X40712Y-40657D03*
X41712Y-40657D03*
X42712Y-40657D03*
X43712Y-40657D03*
X58712Y-40657D03*
X58712Y-39657D03*
X53712Y-39657D03*
G54D12*
X20460Y-22874D03*
G54D13*
X21460Y-22874D03*
X22460Y-22874D03*
X23460Y-22874D03*
X24460Y-22874D03*
X25460Y-22874D03*
X26460Y-22874D03*
X27460Y-22874D03*
X28460Y-22874D03*
X29460Y-22874D03*
X30460Y-22874D03*
X31460Y-22874D03*
X32460Y-22874D03*
X33460Y-22874D03*
X34460Y-22874D03*
G54D12*
X36248Y-22874D03*
G54D13*
X37248Y-22874D03*
X38248Y-22874D03*
X39248Y-22874D03*
X40248Y-22874D03*
X41248Y-22874D03*
X42248Y-22874D03*
X43248Y-22874D03*
X44248Y-22874D03*
X45248Y-22874D03*
X46248Y-22874D03*
X47248Y-22874D03*
X48248Y-22874D03*
X49248Y-22874D03*
X50248Y-22874D03*
G54D12*
X52035Y-22874D03*
G54D13*
X53035Y-22874D03*
X54035Y-22874D03*
X55035Y-22874D03*
X56035Y-22874D03*
X57035Y-22874D03*
X58035Y-22874D03*
X59035Y-22874D03*
X60035Y-22874D03*
X61035Y-22874D03*
X62035Y-22874D03*
X63035Y-22874D03*
X64035Y-22874D03*
X65035Y-22874D03*
X66035Y-22874D03*
G54D12*
X67822Y-22874D03*
G54D13*
X68822Y-22874D03*
X69822Y-22874D03*
X70822Y-22874D03*
X71822Y-22874D03*
X72822Y-22874D03*
X73822Y-22874D03*
X74822Y-22874D03*
X75822Y-22874D03*
X76822Y-22874D03*
X77822Y-22874D03*
X78822Y-22874D03*
X79822Y-22874D03*
X80822Y-22874D03*
X81822Y-22874D03*
G54D12*
X83610Y-22874D03*
G54D13*
X84610Y-22874D03*
X85610Y-22874D03*
X86610Y-22874D03*
X87610Y-22874D03*
X88610Y-22874D03*
X89610Y-22874D03*
X90610Y-22874D03*
X91610Y-22874D03*
X92610Y-22874D03*
X93610Y-22874D03*
X94610Y-22874D03*
X95610Y-22874D03*
X96610Y-22874D03*
X97610Y-22874D03*
G54D12*
X99397Y-22874D03*
G54D13*
X100397Y-22874D03*
X101397Y-22874D03*
X102397Y-22874D03*
X103397Y-22874D03*
X104397Y-22874D03*
X105397Y-22874D03*
X106397Y-22874D03*
X107397Y-22874D03*
X108397Y-22874D03*
X109397Y-22874D03*
X110397Y-22874D03*
X111397Y-22874D03*
X112397Y-22874D03*
X113397Y-22874D03*
G54D14*
X117125Y-25787D03*
X16732Y-42322D03*
X117125Y-42322D03*
X62204Y-25787D03*
X62204Y-42322D03*
X16732Y-25787D03*
G54D15*
X91553Y-41100D03*
X114352Y-41100D03*
G54D16*
X94702Y-39600D03*
X95202Y-40350D03*
X95702Y-39600D03*
X96202Y-40350D03*
X96702Y-39600D03*
X97202Y-40350D03*
X97702Y-39600D03*
X98202Y-40350D03*
X98702Y-39600D03*
X99202Y-40350D03*
X99702Y-39600D03*
X100202Y-40350D03*
X100702Y-39600D03*
X101202Y-40350D03*
X101702Y-39600D03*
X102202Y-40350D03*
X102702Y-39600D03*
X103202Y-40350D03*
X103702Y-39600D03*
X104202Y-40350D03*
X104702Y-39600D03*
X105202Y-40350D03*
X105702Y-39600D03*
X106202Y-40350D03*
X106702Y-39600D03*
X107202Y-40350D03*
X107702Y-39600D03*
X108202Y-40350D03*
X108702Y-39600D03*
X109202Y-40350D03*
X109702Y-39600D03*
X110202Y-40350D03*
X110702Y-39600D03*
X111202Y-40350D03*
X94702Y-41100D03*
X95202Y-41850D03*
X95702Y-41100D03*
X96202Y-41850D03*
X96702Y-41100D03*
X97202Y-41850D03*
X97702Y-41100D03*
X98202Y-41850D03*
X98702Y-41100D03*
X99202Y-41850D03*
X99702Y-41100D03*
X100202Y-41850D03*
X100702Y-41100D03*
X101202Y-41850D03*
X101702Y-41100D03*
X102202Y-41850D03*
X102702Y-41100D03*
X103202Y-41850D03*
X103702Y-41100D03*
X104202Y-41850D03*
X104702Y-41100D03*
X105202Y-41850D03*
X105702Y-41100D03*
X106202Y-41850D03*
X106702Y-41100D03*
X107202Y-41850D03*
X107702Y-41100D03*
X108202Y-41850D03*
X108702Y-41100D03*
X109202Y-41850D03*
X109702Y-41100D03*
X110202Y-41850D03*
X110702Y-41100D03*
X111202Y-41850D03*
G54D17*
X22637Y-42115D03*
G54D18*
X22637Y-40935D03*
G54D19*
X22637Y-38575D03*
G54D18*
X24407Y-41325D03*
X20867Y-41325D03*
G54D11*
X29480Y-40314D03*
X31350Y-40314D03*
X33220Y-40314D03*
G54D12*
X65696Y-40657D03*
G54D13*
X65696Y-39657D03*
X70696Y-40657D03*
X66696Y-39657D03*
X71696Y-40657D03*
X67696Y-39657D03*
X72696Y-40657D03*
X68696Y-39657D03*
X73696Y-40657D03*
X69696Y-39657D03*
X74696Y-40657D03*
X70696Y-39657D03*
X75696Y-40657D03*
X71696Y-39657D03*
X76696Y-40657D03*
X72696Y-39657D03*
X77696Y-40657D03*
X73696Y-39657D03*
X78696Y-40657D03*
X74696Y-39657D03*
X79696Y-40657D03*
X75696Y-39657D03*
X80696Y-40657D03*
X76696Y-39657D03*
X77696Y-39657D03*
X81696Y-40657D03*
X78696Y-39657D03*
X80696Y-39657D03*
X81696Y-39657D03*
X82696Y-39657D03*
X83696Y-39657D03*
X82696Y-40657D03*
X83696Y-40657D03*
X66696Y-40657D03*
X67696Y-40657D03*
X68696Y-40657D03*
X69696Y-40657D03*
X84696Y-40657D03*
X84696Y-39657D03*
X79696Y-39657D03*
G54D20*
X22450Y-29952D03*
X23450Y-29952D03*
X24450Y-29952D03*
X25450Y-29952D03*
X26450Y-29952D03*
X27450Y-29952D03*
X28450Y-29952D03*
X28450Y-25952D03*
X27450Y-25952D03*
X26450Y-25952D03*
X25450Y-25952D03*
X24450Y-25952D03*
X23450Y-25952D03*
X22450Y-25952D03*
X38250Y-29952D03*
X39250Y-29952D03*
X40250Y-29952D03*
X41250Y-29952D03*
X42250Y-29952D03*
X43250Y-29952D03*
X44250Y-29952D03*
X44250Y-25952D03*
X43250Y-25952D03*
X42250Y-25952D03*
X41250Y-25952D03*
X40250Y-25952D03*
X39250Y-25952D03*
X38250Y-25952D03*
X54050Y-29952D03*
X55050Y-29952D03*
X56050Y-29952D03*
X57050Y-29952D03*
X58050Y-29952D03*
X59050Y-29952D03*
X60050Y-29952D03*
X60050Y-25952D03*
X59050Y-25952D03*
X58050Y-25952D03*
X57050Y-25952D03*
X56050Y-25952D03*
X55050Y-25952D03*
X54050Y-25952D03*
X69820Y-29952D03*
X70820Y-29952D03*
X71820Y-29952D03*
X72820Y-29952D03*
X73820Y-29952D03*
X74820Y-29952D03*
X75820Y-29952D03*
X75820Y-25952D03*
X74820Y-25952D03*
X73820Y-25952D03*
X72820Y-25952D03*
X71820Y-25952D03*
X70820Y-25952D03*
X69820Y-25952D03*
X85640Y-29952D03*
X86640Y-29952D03*
X87640Y-29952D03*
X88640Y-29952D03*
X89640Y-29952D03*
X90640Y-29952D03*
X91640Y-29952D03*
X91640Y-25952D03*
X90640Y-25952D03*
X89640Y-25952D03*
X88640Y-25952D03*
X87640Y-25952D03*
X86640Y-25952D03*
X85640Y-25952D03*
X101400Y-29952D03*
X102400Y-29952D03*
X103400Y-29952D03*
X104400Y-29952D03*
X105400Y-29952D03*
X106400Y-29952D03*
X107400Y-29952D03*
X107400Y-25952D03*
X106400Y-25952D03*
X105400Y-25952D03*
X104400Y-25952D03*
X103400Y-25952D03*
X102400Y-25952D03*
X101400Y-25952D03*
X110909Y-30220D03*
X110909Y-31220D03*
X110909Y-32220D03*
X110909Y-33220D03*
X110909Y-34220D03*
X110909Y-35220D03*
X110909Y-36220D03*
X114909Y-36220D03*
X114909Y-35220D03*
X114909Y-34220D03*
X114909Y-33220D03*
X114909Y-32220D03*
X114909Y-31220D03*
X114909Y-30220D03*
G54D21*
X25480Y-32086D03*
X25480Y-34055D03*
X41279Y-32086D03*
X41279Y-34055D03*
X57070Y-32086D03*
X57070Y-34055D03*
X72820Y-32086D03*
X72820Y-34055D03*
X88640Y-32086D03*
X88640Y-34055D03*
X104440Y-32086D03*
X104440Y-34055D03*
G54D13*
X17200Y-35400D03*
X17200Y-34400D03*
X17200Y-33400D03*
X17200Y-32400D03*
G54D22*
X61002Y-42190D03*
X48637Y-22368D03*
X87100Y-33931D03*
X94112Y-40692D03*
X85779Y-32150D03*
X97300Y-36455D03*
X74005Y-36455D03*
X46318Y-38051D03*
X96476Y-24883D03*
X47479Y-37856D03*
X101024Y-33273D03*
X65402Y-24240D03*
X47869Y-37605D03*
X66797Y-24636D03*
X104808Y-36639D03*
X56102Y-37267D03*
X95530Y-23474D03*
X101066Y-36046D03*
X101151Y-35392D03*
X66044Y-33321D03*
X101403Y-34719D03*
X64251Y-35584D03*
X100577Y-36296D03*
X39816Y-41503D03*
X100251Y-35167D03*
X94012Y-38925D03*
X86196Y-28933D03*
X85329Y-28608D03*
X91048Y-38848D03*
X62994Y-40871D03*
X84916Y-26808D03*
X90140Y-39728D03*
X60881Y-42771D03*
X47830Y-41858D03*
X99728Y-34503D03*
X59870Y-41832D03*
X93356Y-39250D03*
X76193Y-32850D03*
G54D23*
X24377Y-40314D02*
X22637Y-38575D01*
X29480Y-40314D02*
X24377Y-40314D01*
G54D24*
X111417Y-35727D02*
X110909Y-35220D01*
X111417Y-36424D02*
X111417Y-35727D01*
X111121Y-36720D02*
X111417Y-36424D01*
X110695Y-36720D02*
X111121Y-36720D01*
X106400Y-32425D02*
X110695Y-36720D01*
X106400Y-29952D02*
X106400Y-32425D01*
X89937Y-29249D02*
X90640Y-29952D01*
X86339Y-29249D02*
X89937Y-29249D01*
X86331Y-29258D02*
X86339Y-29249D01*
X86062Y-29258D02*
X86331Y-29258D01*
X86053Y-29249D02*
X86062Y-29258D01*
X75522Y-29249D02*
X86053Y-29249D01*
X74820Y-29952D02*
X75522Y-29249D01*
X99397Y-22874D02*
X98947Y-22874D01*
X91160Y-25432D02*
X90640Y-25952D01*
X95514Y-25432D02*
X91160Y-25432D01*
X95514Y-27952D02*
X95514Y-25432D01*
X67822Y-22874D02*
X68272Y-22874D01*
X66782Y-28612D02*
X69273Y-26122D01*
X64584Y-28612D02*
X66782Y-28612D01*
X63924Y-27952D02*
X64584Y-28612D01*
X68272Y-22759D02*
X68272Y-22874D01*
X68610Y-22422D02*
X68272Y-22759D01*
X69022Y-22422D02*
X68610Y-22422D01*
X69273Y-22672D02*
X69022Y-22422D01*
X69273Y-26122D02*
X69273Y-22672D01*
X99847Y-22779D02*
X99847Y-22874D01*
X100221Y-22405D02*
X99847Y-22779D01*
X100578Y-22405D02*
X100221Y-22405D01*
X100897Y-22724D02*
X100578Y-22405D01*
X100897Y-26173D02*
X100897Y-22724D01*
X101188Y-26464D02*
X100897Y-26173D01*
X105888Y-26464D02*
X101188Y-26464D01*
X106400Y-25952D02*
X105888Y-26464D01*
X99397Y-22874D02*
X99847Y-22874D01*
X96389Y-25432D02*
X98947Y-22874D01*
X95514Y-25432D02*
X96389Y-25432D01*
X48124Y-27235D02*
X52035Y-23324D01*
X48124Y-27952D02*
X48124Y-27235D01*
X52035Y-22874D02*
X52035Y-23324D01*
X74312Y-26460D02*
X74820Y-25952D01*
X69611Y-26460D02*
X74312Y-26460D01*
X69273Y-26122D02*
X69611Y-26460D01*
X83610Y-22874D02*
X83160Y-22874D01*
X79694Y-27952D02*
X79112Y-27371D01*
X76238Y-27371D02*
X79112Y-27371D01*
X74820Y-25952D02*
X76238Y-27371D01*
X83160Y-23324D02*
X83160Y-22874D01*
X79112Y-27371D02*
X83160Y-23324D01*
X30560Y-39525D02*
X31350Y-40314D01*
X28846Y-39525D02*
X30560Y-39525D01*
X20460Y-31139D02*
X28846Y-39525D01*
X17200Y-34400D02*
X20460Y-31139D01*
X20460Y-31139D02*
X20460Y-22874D01*
X35643Y-35588D02*
X39712Y-39657D01*
X32085Y-35588D02*
X35643Y-35588D01*
X26450Y-29952D02*
X32085Y-35588D01*
X63014Y-40090D02*
X65696Y-40090D01*
X61002Y-42102D02*
X63014Y-40090D01*
X61002Y-42190D02*
X61002Y-42102D01*
X65967Y-40090D02*
X65696Y-40090D01*
X66205Y-40327D02*
X65967Y-40090D01*
X66205Y-40815D02*
X66205Y-40327D01*
X66710Y-41320D02*
X66205Y-40815D01*
X70680Y-41320D02*
X66710Y-41320D01*
X71196Y-40804D02*
X70680Y-41320D01*
X71196Y-39512D02*
X71196Y-40804D01*
X72707Y-38002D02*
X71196Y-39512D01*
X90960Y-38002D02*
X72707Y-38002D01*
X94059Y-41100D02*
X90960Y-38002D01*
X94702Y-41100D02*
X94059Y-41100D01*
X65696Y-40090D02*
X65696Y-39657D01*
X48788Y-22216D02*
X48637Y-22368D01*
X57378Y-22216D02*
X48788Y-22216D01*
X58035Y-22874D02*
X57378Y-22216D01*
X104521Y-21997D02*
X105397Y-22874D01*
X93814Y-21997D02*
X104521Y-21997D01*
X93110Y-22701D02*
X93814Y-21997D01*
X93110Y-23014D02*
X93110Y-22701D01*
X92390Y-23734D02*
X93110Y-23014D01*
X90471Y-23734D02*
X92390Y-23734D01*
X89610Y-22874D02*
X90471Y-23734D01*
X34330Y-23931D02*
X26460Y-23931D01*
X35838Y-22423D02*
X34330Y-23931D01*
X41797Y-22423D02*
X35838Y-22423D01*
X42248Y-22874D02*
X41797Y-22423D01*
X26460Y-25942D02*
X26460Y-23931D01*
X26450Y-25952D02*
X26460Y-25942D01*
X26460Y-23931D02*
X26460Y-22874D01*
X40400Y-39345D02*
X40712Y-39657D01*
X40400Y-33722D02*
X40400Y-39345D01*
X42250Y-31873D02*
X40400Y-33722D01*
X42250Y-29952D02*
X42250Y-31873D01*
X58583Y-23325D02*
X59035Y-22874D01*
X57836Y-23325D02*
X58583Y-23325D01*
X57535Y-23023D02*
X57836Y-23325D01*
X57535Y-22702D02*
X57535Y-23023D01*
X57256Y-22423D02*
X57535Y-22702D01*
X51643Y-22423D02*
X57256Y-22423D01*
X49940Y-24126D02*
X51643Y-22423D01*
X43248Y-24126D02*
X49940Y-24126D01*
X43248Y-24954D02*
X43248Y-24126D01*
X42250Y-25952D02*
X43248Y-24954D01*
X43248Y-24126D02*
X43248Y-22874D01*
X75276Y-23327D02*
X74822Y-22874D01*
X76014Y-23327D02*
X75276Y-23327D01*
X76322Y-23019D02*
X76014Y-23327D01*
X76322Y-22732D02*
X76322Y-23019D01*
X77067Y-21988D02*
X76322Y-22732D01*
X89724Y-21988D02*
X77067Y-21988D01*
X90610Y-22874D02*
X89724Y-21988D01*
X28312Y-23725D02*
X27460Y-22874D01*
X34254Y-23725D02*
X28312Y-23725D01*
X35764Y-22215D02*
X34254Y-23725D01*
X42589Y-22215D02*
X35764Y-22215D01*
X43248Y-22874D02*
X42589Y-22215D01*
X91062Y-23326D02*
X90610Y-22874D01*
X91796Y-23326D02*
X91062Y-23326D01*
X92110Y-23013D02*
X91796Y-23326D01*
X92110Y-22733D02*
X92110Y-23013D01*
X93251Y-21591D02*
X92110Y-22733D01*
X105115Y-21591D02*
X93251Y-21591D01*
X106397Y-22874D02*
X105115Y-21591D01*
X51262Y-40471D02*
X51262Y-41111D01*
X51526Y-40207D02*
X51262Y-40471D01*
X51805Y-40207D02*
X51526Y-40207D01*
X52247Y-39765D02*
X51805Y-40207D01*
X52247Y-39478D02*
X52247Y-39765D01*
X57020Y-34705D02*
X52247Y-39478D01*
X57054Y-34705D02*
X57020Y-34705D01*
X58050Y-33709D02*
X57054Y-34705D01*
X58050Y-29952D02*
X58050Y-33709D01*
X87267Y-33931D02*
X87100Y-33931D01*
X94027Y-40692D02*
X87267Y-33931D01*
X94112Y-40692D02*
X94027Y-40692D01*
X40813Y-38758D02*
X41712Y-39657D01*
X40813Y-33875D02*
X40813Y-38758D01*
X41091Y-33597D02*
X40813Y-33875D01*
X44626Y-33597D02*
X41091Y-33597D01*
X49243Y-38214D02*
X44626Y-33597D01*
X49243Y-40826D02*
X49243Y-38214D01*
X49528Y-41111D02*
X49243Y-40826D01*
X51262Y-41111D02*
X49528Y-41111D01*
X52318Y-42168D02*
X51262Y-41111D01*
X60018Y-42168D02*
X52318Y-42168D01*
X60277Y-41909D02*
X60018Y-42168D01*
X60277Y-41874D02*
X60277Y-41909D01*
X63354Y-38796D02*
X60277Y-41874D01*
X66835Y-38796D02*
X63354Y-38796D01*
X67696Y-39657D02*
X66835Y-38796D01*
X60035Y-23967D02*
X60035Y-22874D01*
X58050Y-25952D02*
X60035Y-23967D01*
X43184Y-21810D02*
X44248Y-22874D01*
X32851Y-21810D02*
X43184Y-21810D01*
X31910Y-22751D02*
X32851Y-21810D01*
X31910Y-23060D02*
X31910Y-22751D01*
X31445Y-23525D02*
X31910Y-23060D01*
X29111Y-23525D02*
X31445Y-23525D01*
X28460Y-22874D02*
X29111Y-23525D01*
X93092Y-21391D02*
X91610Y-22874D01*
X105914Y-21391D02*
X93092Y-21391D01*
X107397Y-22874D02*
X105914Y-21391D01*
X59168Y-22007D02*
X60035Y-22874D01*
X48471Y-22007D02*
X59168Y-22007D01*
X47793Y-22685D02*
X48471Y-22007D01*
X47793Y-22970D02*
X47793Y-22685D01*
X47037Y-23726D02*
X47793Y-22970D01*
X45100Y-23726D02*
X47037Y-23726D01*
X44248Y-22874D02*
X45100Y-23726D01*
X90522Y-21786D02*
X91610Y-22874D01*
X76910Y-21786D02*
X90522Y-21786D01*
X75822Y-22874D02*
X76910Y-21786D01*
X93540Y-39911D02*
X85779Y-32150D01*
X94085Y-39911D02*
X93540Y-39911D01*
X95316Y-41142D02*
X94085Y-39911D01*
X95316Y-41274D02*
X95316Y-41142D01*
X95892Y-41850D02*
X95316Y-41274D01*
X96202Y-41850D02*
X95892Y-41850D01*
X73820Y-34534D02*
X68696Y-39657D01*
X73820Y-29952D02*
X73820Y-34534D01*
X93686Y-21797D02*
X92610Y-22874D01*
X104962Y-21797D02*
X93686Y-21797D01*
X105897Y-22732D02*
X104962Y-21797D01*
X105897Y-23012D02*
X105897Y-22732D01*
X106214Y-23329D02*
X105897Y-23012D01*
X107942Y-23329D02*
X106214Y-23329D01*
X108397Y-22874D02*
X107942Y-23329D01*
X45700Y-23326D02*
X45248Y-22874D01*
X46434Y-23326D02*
X45700Y-23326D01*
X46748Y-23013D02*
X46434Y-23326D01*
X46748Y-22733D02*
X46748Y-23013D01*
X47879Y-21601D02*
X46748Y-22733D01*
X59762Y-21601D02*
X47879Y-21601D01*
X61035Y-22874D02*
X59762Y-21601D01*
X29911Y-23325D02*
X29460Y-22874D01*
X30653Y-23325D02*
X29911Y-23325D01*
X30960Y-23018D02*
X30653Y-23325D01*
X30960Y-22733D02*
X30960Y-23018D01*
X32283Y-21410D02*
X30960Y-22733D01*
X43784Y-21410D02*
X32283Y-21410D01*
X45248Y-22874D02*
X43784Y-21410D01*
X91949Y-23534D02*
X92610Y-22874D01*
X90631Y-23534D02*
X91949Y-23534D01*
X90110Y-23013D02*
X90631Y-23534D01*
X90110Y-22733D02*
X90110Y-23013D01*
X89565Y-22188D02*
X90110Y-22733D01*
X77508Y-22188D02*
X89565Y-22188D01*
X76822Y-22874D02*
X77508Y-22188D01*
X74992Y-24704D02*
X76822Y-22874D01*
X74992Y-24704D02*
X74992Y-24704D01*
X74992Y-24780D02*
X74992Y-24704D01*
X73820Y-25952D02*
X74992Y-24780D01*
X61489Y-23327D02*
X61035Y-22874D01*
X62226Y-23327D02*
X61489Y-23327D01*
X62535Y-23019D02*
X62226Y-23327D01*
X62535Y-22716D02*
X62535Y-23019D01*
X63037Y-22214D02*
X62535Y-22716D01*
X72802Y-22214D02*
X63037Y-22214D01*
X73322Y-22735D02*
X72802Y-22214D01*
X73322Y-23034D02*
X73322Y-22735D01*
X74992Y-24704D02*
X73322Y-23034D01*
X95228Y-35541D02*
X89640Y-29952D01*
X95228Y-39688D02*
X95228Y-35541D01*
X95648Y-40108D02*
X95228Y-39688D01*
X95648Y-40356D02*
X95648Y-40108D01*
X96392Y-41100D02*
X95648Y-40356D01*
X96702Y-41100D02*
X96392Y-41100D01*
X70941Y-38412D02*
X69696Y-39657D01*
X71305Y-38412D02*
X70941Y-38412D01*
X80265Y-29452D02*
X71305Y-38412D01*
X85973Y-29452D02*
X80265Y-29452D01*
X85979Y-29458D02*
X85973Y-29452D01*
X86414Y-29458D02*
X85979Y-29458D01*
X86420Y-29452D02*
X86414Y-29458D01*
X89139Y-29452D02*
X86420Y-29452D01*
X89640Y-29952D02*
X89139Y-29452D01*
X32130Y-21204D02*
X30460Y-22874D01*
X44578Y-21204D02*
X32130Y-21204D01*
X46248Y-22874D02*
X44578Y-21204D01*
X47720Y-21401D02*
X46248Y-22874D01*
X60562Y-21401D02*
X47720Y-21401D01*
X62035Y-22874D02*
X60562Y-21401D01*
X90518Y-25074D02*
X90518Y-24434D01*
X89640Y-25952D02*
X90518Y-25074D01*
X92049Y-24434D02*
X93610Y-22874D01*
X90518Y-24434D02*
X92049Y-24434D01*
X89140Y-23056D02*
X90518Y-24434D01*
X89140Y-22766D02*
X89140Y-23056D01*
X88782Y-22408D02*
X89140Y-22766D01*
X78288Y-22408D02*
X88782Y-22408D01*
X77822Y-22874D02*
X78288Y-22408D01*
X97300Y-33330D02*
X97300Y-36455D01*
X101196Y-29434D02*
X97300Y-33330D01*
X104881Y-29434D02*
X101196Y-29434D01*
X105400Y-29952D02*
X104881Y-29434D01*
X97202Y-40910D02*
X97202Y-41850D01*
X97601Y-40511D02*
X97202Y-40910D01*
X97601Y-40154D02*
X97601Y-40511D01*
X97300Y-39852D02*
X97601Y-40154D01*
X97300Y-36455D02*
X97300Y-39852D01*
X73898Y-36455D02*
X74005Y-36455D01*
X70696Y-39657D02*
X73898Y-36455D01*
X44712Y-39657D02*
X46318Y-38051D01*
X62360Y-23548D02*
X63035Y-22874D01*
X61062Y-23548D02*
X62360Y-23548D01*
X60535Y-23022D02*
X61062Y-23548D01*
X60535Y-22711D02*
X60535Y-23022D01*
X59628Y-21804D02*
X60535Y-22711D01*
X48317Y-21804D02*
X59628Y-21804D01*
X47248Y-22874D02*
X48317Y-21804D01*
X46595Y-23526D02*
X47248Y-22874D01*
X45259Y-23526D02*
X46595Y-23526D01*
X44748Y-23014D02*
X45259Y-23526D01*
X44748Y-22730D02*
X44748Y-23014D01*
X43627Y-21610D02*
X44748Y-22730D01*
X32724Y-21610D02*
X43627Y-21610D01*
X31460Y-22874D02*
X32724Y-21610D01*
X94610Y-23017D02*
X96476Y-24883D01*
X94610Y-22874D02*
X94610Y-23017D01*
X98013Y-41100D02*
X97702Y-41100D01*
X98773Y-40340D02*
X98013Y-41100D01*
X98773Y-40232D02*
X98773Y-40340D01*
X99316Y-39689D02*
X98773Y-40232D01*
X99316Y-34446D02*
X99316Y-39689D01*
X100489Y-33273D02*
X99316Y-34446D01*
X101024Y-33273D02*
X100489Y-33273D01*
X47479Y-37890D02*
X47479Y-37856D01*
X45712Y-39657D02*
X47479Y-37890D01*
X110797Y-23474D02*
X110797Y-23550D01*
X111397Y-22874D02*
X110797Y-23474D01*
X110797Y-27107D02*
X114909Y-31220D01*
X110797Y-23550D02*
X110797Y-27107D01*
X105419Y-23550D02*
X110797Y-23550D01*
X104897Y-23028D02*
X105419Y-23550D01*
X104897Y-22733D02*
X104897Y-23028D01*
X104363Y-22198D02*
X104897Y-22733D01*
X96285Y-22198D02*
X104363Y-22198D01*
X95610Y-22874D02*
X96285Y-22198D01*
X64035Y-22874D02*
X65402Y-24240D01*
X98589Y-42236D02*
X98202Y-41850D01*
X107380Y-42236D02*
X98589Y-42236D01*
X107702Y-41914D02*
X107380Y-42236D01*
X107702Y-41660D02*
X107702Y-41914D01*
X108273Y-41090D02*
X107702Y-41660D01*
X108273Y-40982D02*
X108273Y-41090D01*
X108702Y-40552D02*
X108273Y-40982D01*
X108702Y-40160D02*
X108702Y-40552D01*
X109273Y-39590D02*
X108702Y-40160D01*
X109273Y-39482D02*
X109273Y-39590D01*
X111856Y-36898D02*
X109273Y-39482D01*
X111856Y-33167D02*
X111856Y-36898D01*
X110909Y-32220D02*
X111856Y-33167D01*
X47869Y-38500D02*
X47869Y-37605D01*
X46712Y-39657D02*
X47869Y-38500D01*
X74152Y-38202D02*
X72696Y-39657D01*
X90875Y-38202D02*
X74152Y-38202D01*
X94924Y-42251D02*
X90875Y-38202D01*
X97801Y-42251D02*
X94924Y-42251D01*
X98202Y-41850D02*
X97801Y-42251D01*
X48195Y-23926D02*
X49248Y-22874D01*
X44661Y-23926D02*
X48195Y-23926D01*
X43748Y-23012D02*
X44661Y-23926D01*
X43748Y-22733D02*
X43748Y-23012D01*
X43027Y-22012D02*
X43748Y-22733D01*
X34321Y-22012D02*
X43027Y-22012D01*
X33460Y-22874D02*
X34321Y-22012D01*
X65035Y-22874D02*
X66797Y-24636D01*
X53712Y-39657D02*
X56102Y-37267D01*
X105096Y-36927D02*
X104808Y-36639D01*
X111197Y-36927D02*
X105096Y-36927D01*
X111640Y-36484D02*
X111197Y-36927D01*
X111640Y-33950D02*
X111640Y-36484D01*
X110909Y-33220D02*
X111640Y-33950D01*
X97010Y-23474D02*
X95530Y-23474D01*
X97610Y-22874D02*
X97010Y-23474D01*
X115427Y-24904D02*
X113397Y-22874D01*
X115427Y-32701D02*
X115427Y-24904D01*
X114909Y-33220D02*
X115427Y-32701D01*
X30749Y-39324D02*
X25480Y-34055D01*
X33152Y-39324D02*
X30749Y-39324D01*
X34944Y-41116D02*
X33152Y-39324D01*
X39989Y-41116D02*
X34944Y-41116D01*
X40180Y-41307D02*
X39989Y-41116D01*
X46062Y-41307D02*
X40180Y-41307D01*
X46712Y-40657D02*
X46062Y-41307D01*
X25460Y-25942D02*
X25460Y-22874D01*
X25450Y-25952D02*
X25460Y-25942D01*
X108970Y-43083D02*
X110202Y-41850D01*
X83122Y-43083D02*
X108970Y-43083D01*
X80696Y-40657D02*
X83122Y-43083D01*
X44796Y-34055D02*
X41279Y-34055D01*
X48205Y-37464D02*
X44796Y-34055D01*
X48205Y-40150D02*
X48205Y-37464D01*
X48712Y-40657D02*
X48205Y-40150D01*
X41248Y-25950D02*
X41248Y-22874D01*
X41250Y-25952D02*
X41248Y-25950D01*
X104101Y-39081D02*
X101066Y-36046D01*
X104101Y-39761D02*
X104101Y-39081D01*
X103800Y-40063D02*
X104101Y-39761D01*
X103800Y-40508D02*
X103800Y-40063D01*
X104202Y-40910D02*
X103800Y-40508D01*
X104202Y-41850D02*
X104202Y-40910D01*
X51262Y-40107D02*
X50712Y-40657D01*
X51262Y-39471D02*
X51262Y-40107D01*
X56678Y-34055D02*
X51262Y-39471D01*
X57070Y-34055D02*
X56678Y-34055D01*
X57035Y-25938D02*
X57035Y-22874D01*
X57050Y-25952D02*
X57035Y-25938D01*
X53991Y-41936D02*
X52712Y-40657D01*
X59290Y-41936D02*
X53991Y-41936D01*
X67171Y-34055D02*
X59290Y-41936D01*
X72820Y-34055D02*
X67171Y-34055D01*
X105202Y-40910D02*
X105202Y-41850D01*
X104802Y-40510D02*
X105202Y-40910D01*
X104802Y-40260D02*
X104802Y-40510D01*
X104301Y-39760D02*
X104802Y-40260D01*
X104301Y-38543D02*
X104301Y-39760D01*
X101151Y-35392D02*
X104301Y-38543D01*
X72822Y-25950D02*
X72822Y-22874D01*
X72820Y-25952D02*
X72822Y-25950D01*
X55212Y-40157D02*
X54712Y-40657D01*
X59209Y-40157D02*
X55212Y-40157D01*
X66044Y-33321D02*
X59209Y-40157D01*
X106101Y-39417D02*
X101403Y-34719D01*
X106101Y-39761D02*
X106101Y-39417D01*
X105801Y-40061D02*
X106101Y-39761D01*
X105801Y-40510D02*
X105801Y-40061D01*
X106202Y-40910D02*
X105801Y-40510D01*
X106202Y-41850D02*
X106202Y-40910D01*
X88610Y-25922D02*
X88610Y-22874D01*
X88640Y-25952D02*
X88610Y-25922D01*
X64251Y-35781D02*
X64251Y-35584D01*
X58909Y-41124D02*
X64251Y-35781D01*
X57179Y-41124D02*
X58909Y-41124D01*
X56712Y-40657D02*
X57179Y-41124D01*
X104440Y-36742D02*
X104440Y-34055D01*
X107101Y-39404D02*
X104440Y-36742D01*
X107101Y-39761D02*
X107101Y-39404D01*
X106799Y-40064D02*
X107101Y-39761D01*
X106799Y-40507D02*
X106799Y-40064D01*
X107202Y-40910D02*
X106799Y-40507D01*
X107202Y-41850D02*
X107202Y-40910D01*
X104397Y-25950D02*
X104397Y-22874D01*
X104400Y-25952D02*
X104397Y-25950D01*
X73154Y-41114D02*
X72696Y-40657D01*
X74883Y-41114D02*
X73154Y-41114D01*
X75196Y-40801D02*
X74883Y-41114D01*
X75196Y-40501D02*
X75196Y-40801D01*
X75496Y-40202D02*
X75196Y-40501D01*
X75807Y-40202D02*
X75496Y-40202D01*
X76246Y-39762D02*
X75807Y-40202D01*
X76246Y-39447D02*
X76246Y-39762D01*
X77092Y-38602D02*
X76246Y-39447D01*
X85532Y-38602D02*
X77092Y-38602D01*
X86122Y-39192D02*
X85532Y-38602D01*
X91512Y-39192D02*
X86122Y-39192D01*
X94791Y-42471D02*
X91512Y-39192D01*
X107581Y-42471D02*
X94791Y-42471D01*
X108202Y-41850D02*
X107581Y-42471D01*
X77246Y-40107D02*
X76696Y-40657D01*
X77246Y-39471D02*
X77246Y-40107D01*
X77915Y-38802D02*
X77246Y-39471D01*
X85449Y-38802D02*
X77915Y-38802D01*
X86039Y-39392D02*
X85449Y-38802D01*
X91429Y-39392D02*
X86039Y-39392D01*
X94708Y-42671D02*
X91429Y-39392D01*
X108381Y-42671D02*
X94708Y-42671D01*
X109202Y-41850D02*
X108381Y-42671D01*
X79196Y-40157D02*
X78696Y-40657D01*
X79833Y-40157D02*
X79196Y-40157D01*
X80147Y-39843D02*
X79833Y-40157D01*
X80147Y-39558D02*
X80147Y-39843D01*
X80502Y-39202D02*
X80147Y-39558D01*
X85181Y-39202D02*
X80502Y-39202D01*
X86198Y-40219D02*
X85181Y-39202D01*
X91973Y-40219D02*
X86198Y-40219D01*
X94636Y-42882D02*
X91973Y-40219D01*
X108725Y-42882D02*
X94636Y-42882D01*
X109702Y-41905D02*
X108725Y-42882D01*
X109702Y-41100D02*
X109702Y-41905D01*
X45262Y-41107D02*
X45712Y-40657D01*
X40523Y-41107D02*
X45262Y-41107D01*
X40162Y-40747D02*
X40523Y-41107D01*
X40162Y-40274D02*
X40162Y-40747D01*
X40053Y-40165D02*
X40162Y-40274D01*
X39116Y-40165D02*
X40053Y-40165D01*
X34739Y-35788D02*
X39116Y-40165D01*
X28531Y-35788D02*
X34739Y-35788D01*
X24450Y-31706D02*
X28531Y-35788D01*
X24450Y-29952D02*
X24450Y-31706D01*
X24460Y-25942D02*
X24460Y-22874D01*
X24450Y-25952D02*
X24460Y-25942D01*
X102312Y-38031D02*
X100577Y-36296D01*
X102312Y-39893D02*
X102312Y-38031D01*
X102702Y-40283D02*
X102312Y-39893D01*
X102702Y-41100D02*
X102702Y-40283D01*
X39822Y-41510D02*
X39816Y-41503D01*
X46859Y-41510D02*
X39822Y-41510D01*
X47712Y-40657D02*
X46859Y-41510D01*
X40248Y-25950D02*
X40248Y-22874D01*
X40250Y-25952D02*
X40248Y-25950D01*
X50212Y-40157D02*
X49712Y-40657D01*
X50212Y-35790D02*
X50212Y-40157D01*
X56050Y-29952D02*
X50212Y-35790D01*
X103392Y-41100D02*
X103702Y-41100D01*
X102988Y-41504D02*
X103392Y-41100D01*
X102550Y-41504D02*
X102988Y-41504D01*
X102202Y-41156D02*
X102550Y-41504D01*
X102202Y-40910D02*
X102202Y-41156D01*
X101801Y-40510D02*
X102202Y-40910D01*
X101801Y-40061D02*
X101801Y-40510D01*
X102112Y-39751D02*
X101801Y-40061D01*
X102112Y-38688D02*
X102112Y-39751D01*
X100251Y-36828D02*
X102112Y-38688D01*
X100251Y-35167D02*
X100251Y-36828D01*
X56035Y-25938D02*
X56035Y-22874D01*
X56050Y-25952D02*
X56035Y-25938D01*
X71314Y-29447D02*
X71820Y-29952D01*
X69614Y-29447D02*
X71314Y-29447D01*
X68737Y-30324D02*
X69614Y-29447D01*
X68737Y-32156D02*
X68737Y-30324D01*
X59163Y-41730D02*
X68737Y-32156D01*
X54123Y-41730D02*
X59163Y-41730D01*
X53212Y-40820D02*
X54123Y-41730D01*
X53212Y-40520D02*
X53212Y-40820D01*
X52898Y-40207D02*
X53212Y-40520D01*
X52162Y-40207D02*
X52898Y-40207D01*
X51712Y-40657D02*
X52162Y-40207D01*
X71822Y-25950D02*
X71822Y-22874D01*
X71820Y-25952D02*
X71822Y-25950D01*
X54585Y-41530D02*
X53712Y-40657D01*
X59080Y-41530D02*
X54585Y-41530D01*
X68525Y-32085D02*
X59080Y-41530D01*
X68525Y-30251D02*
X68525Y-32085D01*
X69843Y-28933D02*
X68525Y-30251D01*
X86196Y-28933D02*
X69843Y-28933D01*
X94012Y-38536D02*
X94012Y-38925D01*
X87640Y-32163D02*
X94012Y-38536D01*
X87640Y-29952D02*
X87640Y-32163D01*
X87610Y-25922D02*
X87610Y-22874D01*
X87640Y-25952D02*
X87610Y-25922D01*
X69886Y-28608D02*
X85329Y-28608D01*
X68162Y-30332D02*
X69886Y-28608D01*
X68162Y-32154D02*
X68162Y-30332D01*
X58992Y-41324D02*
X68162Y-32154D01*
X56379Y-41324D02*
X58992Y-41324D01*
X55712Y-40657D02*
X56379Y-41324D01*
X106594Y-40991D02*
X106702Y-41100D01*
X106594Y-40052D02*
X106594Y-40991D01*
X106301Y-39760D02*
X106594Y-40052D01*
X106301Y-39011D02*
X106301Y-39760D01*
X103400Y-36109D02*
X106301Y-39011D01*
X103400Y-29952D02*
X103400Y-36109D01*
X103397Y-25950D02*
X103397Y-22874D01*
X103400Y-25952D02*
X103397Y-25950D01*
X90602Y-38402D02*
X91048Y-38848D01*
X74311Y-38402D02*
X90602Y-38402D01*
X73147Y-39566D02*
X74311Y-38402D01*
X73147Y-39843D02*
X73147Y-39566D01*
X72833Y-40157D02*
X73147Y-39843D01*
X72196Y-40157D02*
X72833Y-40157D01*
X71696Y-40657D02*
X72196Y-40157D01*
X63854Y-41731D02*
X62994Y-40871D01*
X79279Y-41731D02*
X63854Y-41731D01*
X80196Y-40814D02*
X79279Y-41731D01*
X80196Y-40520D02*
X80196Y-40814D01*
X80510Y-40207D02*
X80196Y-40520D01*
X81147Y-40207D02*
X80510Y-40207D01*
X81696Y-39657D02*
X81147Y-40207D01*
G54D23*
X84916Y-23567D02*
X85610Y-22874D01*
X84916Y-26808D02*
X84916Y-23567D01*
G54D24*
X39712Y-40657D02*
X39262Y-40657D01*
X37531Y-38926D02*
X39262Y-40657D01*
X31386Y-38926D02*
X37531Y-38926D01*
X23450Y-30990D02*
X31386Y-38926D01*
X23450Y-29952D02*
X23450Y-30990D01*
X66569Y-41530D02*
X65696Y-40657D01*
X76460Y-41530D02*
X66569Y-41530D01*
X77147Y-40843D02*
X76460Y-41530D01*
X77147Y-40566D02*
X77147Y-40843D01*
X77605Y-40107D02*
X77147Y-40566D01*
X77883Y-40107D02*
X77605Y-40107D01*
X78196Y-39794D02*
X77883Y-40107D01*
X78196Y-39500D02*
X78196Y-39794D01*
X78694Y-39002D02*
X78196Y-39500D01*
X85366Y-39002D02*
X78694Y-39002D01*
X86092Y-39728D02*
X85366Y-39002D01*
X90140Y-39728D02*
X86092Y-39728D01*
X65119Y-40530D02*
X65246Y-40657D01*
X62857Y-40530D02*
X65119Y-40530D01*
X61327Y-42060D02*
X62857Y-40530D01*
X61327Y-42325D02*
X61327Y-42060D01*
X60881Y-42771D02*
X61327Y-42325D01*
X65696Y-40657D02*
X65246Y-40657D01*
X23460Y-25942D02*
X23460Y-22874D01*
X23450Y-25952D02*
X23460Y-25942D01*
X40712Y-40432D02*
X40712Y-40657D01*
X40212Y-39932D02*
X40712Y-40432D01*
X40212Y-39440D02*
X40212Y-39932D01*
X39250Y-38477D02*
X40212Y-39440D01*
X39250Y-29952D02*
X39250Y-38477D01*
X48540Y-42568D02*
X47830Y-41858D01*
X60184Y-42568D02*
X48540Y-42568D01*
X60677Y-42075D02*
X60184Y-42568D01*
X60677Y-42055D02*
X60677Y-42075D01*
X63536Y-39196D02*
X60677Y-42055D01*
X65907Y-39196D02*
X63536Y-39196D01*
X66196Y-39486D02*
X65907Y-39196D01*
X66196Y-39834D02*
X66196Y-39486D01*
X66696Y-40334D02*
X66196Y-39834D01*
X66696Y-40657D02*
X66696Y-40334D01*
X39248Y-25950D02*
X39248Y-22874D01*
X39250Y-25952D02*
X39248Y-25950D01*
X41212Y-40157D02*
X41712Y-40657D01*
X41212Y-39440D02*
X41212Y-40157D01*
X40600Y-38828D02*
X41212Y-39440D01*
X40600Y-33805D02*
X40600Y-38828D01*
X41650Y-32755D02*
X40600Y-33805D01*
X52247Y-32755D02*
X41650Y-32755D01*
X55050Y-29952D02*
X52247Y-32755D01*
X55035Y-25938D02*
X55035Y-22874D01*
X55050Y-25952D02*
X55035Y-25938D01*
X68238Y-40199D02*
X68696Y-40657D01*
X68238Y-38596D02*
X68238Y-40199D01*
X68936Y-38596D02*
X68238Y-38596D01*
X73280Y-34252D02*
X68936Y-38596D01*
X73280Y-33758D02*
X73280Y-34252D01*
X70820Y-31298D02*
X73280Y-33758D01*
X70820Y-29952D02*
X70820Y-31298D01*
X100202Y-40910D02*
X100202Y-41850D01*
X99802Y-40510D02*
X100202Y-40910D01*
X99802Y-40061D02*
X99802Y-40510D01*
X100101Y-39761D02*
X99802Y-40061D01*
X100101Y-37256D02*
X100101Y-39761D01*
X99726Y-36880D02*
X100101Y-37256D01*
X99726Y-34504D02*
X99726Y-36880D01*
X99728Y-34503D02*
X99726Y-34504D01*
X63107Y-38596D02*
X59870Y-41832D01*
X68238Y-38596D02*
X63107Y-38596D01*
X70822Y-25950D02*
X70822Y-22874D01*
X70820Y-25952D02*
X70822Y-25950D01*
X85489Y-31103D02*
X86640Y-29952D01*
X85489Y-31396D02*
X85489Y-31103D01*
X70224Y-40130D02*
X69696Y-40657D01*
X70224Y-39493D02*
X70224Y-40130D01*
X71034Y-38683D02*
X70224Y-39493D01*
X71317Y-38683D02*
X71034Y-38683D01*
X78604Y-31396D02*
X71317Y-38683D01*
X85489Y-31396D02*
X78604Y-31396D01*
X86571Y-32478D02*
X85489Y-31396D01*
X86571Y-32640D02*
X86571Y-32478D01*
X93180Y-39250D02*
X86571Y-32640D01*
X93356Y-39250D02*
X93180Y-39250D01*
X86610Y-25922D02*
X86610Y-22874D01*
X86640Y-25952D02*
X86610Y-25922D01*
X70243Y-41111D02*
X69229Y-41111D01*
X70696Y-40657D02*
X70243Y-41111D01*
X69229Y-39483D02*
X69229Y-41111D01*
X75863Y-32850D02*
X69229Y-39483D01*
X76193Y-32850D02*
X75863Y-32850D01*
X101202Y-40910D02*
X101202Y-41850D01*
X101601Y-40511D02*
X101202Y-40910D01*
X101601Y-40059D02*
X101601Y-40511D01*
X101300Y-39758D02*
X101601Y-40059D01*
X101300Y-38159D02*
X101300Y-39758D01*
X99926Y-36786D02*
X101300Y-38159D01*
X99926Y-35032D02*
X99926Y-36786D01*
X102400Y-32559D02*
X99926Y-35032D01*
X102400Y-29952D02*
X102400Y-32559D01*
X45168Y-40201D02*
X44712Y-40657D01*
X47903Y-40201D02*
X45168Y-40201D01*
X48212Y-40510D02*
X47903Y-40201D01*
X48212Y-40820D02*
X48212Y-40510D01*
X49760Y-42368D02*
X48212Y-40820D01*
X60101Y-42368D02*
X49760Y-42368D01*
X60477Y-41992D02*
X60101Y-42368D01*
X60477Y-41973D02*
X60477Y-41992D01*
X63453Y-38996D02*
X60477Y-41973D01*
X66679Y-38996D02*
X63453Y-38996D01*
X67196Y-39513D02*
X66679Y-38996D01*
X67196Y-39819D02*
X67196Y-39513D01*
X67585Y-40207D02*
X67196Y-39819D01*
X67883Y-40207D02*
X67585Y-40207D01*
X68246Y-40570D02*
X67883Y-40207D01*
X68246Y-40867D02*
X68246Y-40570D01*
X68490Y-41111D02*
X68246Y-40867D01*
X69229Y-41111D02*
X68490Y-41111D01*
X102397Y-25950D02*
X102397Y-22874D01*
X102400Y-25952D02*
X102397Y-25950D01*
G54D23*
X95702Y-34015D02*
X93577Y-31889D01*
X95702Y-39600D02*
X95702Y-34015D01*
X95202Y-40100D02*
X95202Y-40350D01*
X94702Y-39600D02*
X95202Y-40100D01*
X44250Y-28678D02*
X44250Y-29952D01*
X37248Y-25793D02*
X37248Y-22874D01*
X37985Y-26530D02*
X37248Y-25793D01*
X43714Y-26530D02*
X37985Y-26530D01*
X43714Y-26487D02*
X43714Y-26530D01*
X44250Y-25952D02*
X43714Y-26487D01*
X43714Y-28143D02*
X44250Y-28678D01*
X43714Y-26530D02*
X43714Y-28143D01*
X93577Y-31889D02*
X97514Y-27952D01*
X99387Y-26079D02*
X100397Y-26079D01*
X97514Y-27952D02*
X99387Y-26079D01*
X100397Y-26079D02*
X100397Y-22874D01*
X101063Y-26745D02*
X100397Y-26079D01*
X106607Y-26745D02*
X101063Y-26745D01*
X107400Y-25952D02*
X106607Y-26745D01*
X106607Y-29160D02*
X107400Y-29952D01*
X106607Y-26745D02*
X106607Y-29160D01*
X36483Y-25793D02*
X34324Y-27952D01*
X37248Y-25793D02*
X36483Y-25793D01*
X107400Y-32710D02*
X110909Y-36220D01*
X107400Y-29952D02*
X107400Y-32710D01*
X49398Y-28678D02*
X50124Y-27952D01*
X44250Y-28678D02*
X49398Y-28678D01*
X60050Y-25952D02*
X60050Y-26527D01*
X60050Y-26600D02*
X60312Y-26862D01*
X60050Y-26527D02*
X60050Y-26600D01*
X52305Y-25771D02*
X53035Y-25771D01*
X50124Y-27952D02*
X52305Y-25771D01*
X53791Y-26527D02*
X53035Y-25771D01*
X60050Y-26527D02*
X53791Y-26527D01*
X53035Y-25771D02*
X53035Y-22874D01*
X60312Y-29690D02*
X60050Y-29952D01*
X60312Y-26862D02*
X60312Y-29690D01*
X60050Y-38320D02*
X58712Y-39657D01*
X60050Y-29952D02*
X60050Y-38320D01*
X65143Y-27171D02*
X65924Y-27952D01*
X65143Y-26862D02*
X65143Y-27171D01*
X60312Y-26862D02*
X65143Y-26862D01*
X84511Y-22972D02*
X84610Y-22874D01*
X84511Y-27227D02*
X84511Y-22972D01*
X82419Y-27227D02*
X84511Y-27227D01*
X81694Y-27952D02*
X82419Y-27227D01*
X84511Y-27227D02*
X90365Y-27227D01*
X90365Y-27227D02*
X91640Y-25952D01*
X93577Y-31889D02*
X91640Y-29952D01*
X91640Y-28502D02*
X90365Y-27227D01*
X91640Y-29952D02*
X91640Y-28502D01*
X86139Y-41100D02*
X84696Y-39657D01*
X91553Y-41100D02*
X86139Y-41100D01*
X33598Y-27227D02*
X34324Y-27952D01*
X28450Y-27227D02*
X33598Y-27227D01*
X28450Y-29952D02*
X28450Y-27227D01*
X21460Y-25777D02*
X21460Y-22874D01*
X22213Y-26530D02*
X21460Y-25777D01*
X28450Y-26530D02*
X22213Y-26530D01*
X28450Y-27227D02*
X28450Y-26530D01*
X28450Y-26530D02*
X28450Y-25952D01*
X68822Y-23183D02*
X68822Y-22874D01*
X65143Y-26862D02*
X68822Y-23183D01*
G54D24*
X57050Y-32066D02*
X57050Y-29952D01*
X57070Y-32086D02*
X57050Y-32066D01*
X25450Y-32056D02*
X25450Y-29952D01*
X25480Y-32086D02*
X25450Y-32056D01*
X104400Y-32046D02*
X104400Y-29952D01*
X104440Y-32086D02*
X104400Y-32046D01*
X72820Y-32086D02*
X72820Y-29952D01*
X88640Y-32086D02*
X88640Y-29952D01*
X41250Y-32056D02*
X41250Y-29952D01*
X41279Y-32086D02*
X41250Y-32056D01*
M02*
