G04 (created by PCBNEW (2013-jul-07)-stable) date Thu 11 Jun 2015 04:55:29 PM PDT*
%MOIN*%
G04 Gerber Fmt 3.4, Leading zero omitted, Abs format*
%FSLAX34Y34*%
G01*
G70*
G90*
G04 APERTURE LIST*
%ADD10C,0.00590551*%
%ADD11C,0.1*%
%ADD12R,0.06X0.06*%
%ADD13C,0.06*%
%ADD14C,0.13*%
%ADD15C,0.145669*%
%ADD16C,0.0472441*%
%ADD17C,0.076*%
%ADD18C,0.14*%
%ADD19C,0.16*%
%ADD20R,0.0394X0.0315*%
%ADD21R,0.035X0.055*%
%ADD22R,0.055X0.035*%
%ADD23C,0.07*%
%ADD24C,0.0590551*%
%ADD25C,0.035*%
%ADD26C,0.01*%
%ADD27C,0.025*%
G04 APERTURE END LIST*
G54D10*
G54D11*
X32324Y-27952D03*
X34324Y-27952D03*
X48124Y-27952D03*
X50124Y-27952D03*
X63924Y-27952D03*
X65924Y-27952D03*
X79694Y-27952D03*
X81694Y-27952D03*
X95514Y-27952D03*
X97514Y-27952D03*
G54D12*
X39712Y-40657D03*
G54D13*
X39712Y-39657D03*
X44712Y-40657D03*
X40712Y-39657D03*
X45712Y-40657D03*
X41712Y-39657D03*
X46712Y-40657D03*
X42712Y-39657D03*
X47712Y-40657D03*
X43712Y-39657D03*
X48712Y-40657D03*
X44712Y-39657D03*
X49712Y-40657D03*
X45712Y-39657D03*
X50712Y-40657D03*
X46712Y-39657D03*
X51712Y-40657D03*
X47712Y-39657D03*
X52712Y-40657D03*
X48712Y-39657D03*
X53712Y-40657D03*
X49712Y-39657D03*
X54712Y-40657D03*
X50712Y-39657D03*
X51712Y-39657D03*
X55712Y-40657D03*
X52712Y-39657D03*
X54712Y-39657D03*
X55712Y-39657D03*
X56712Y-39657D03*
X57712Y-39657D03*
X56712Y-40657D03*
X57712Y-40657D03*
X40712Y-40657D03*
X41712Y-40657D03*
X42712Y-40657D03*
X43712Y-40657D03*
X58712Y-40657D03*
X58712Y-39657D03*
X53712Y-39657D03*
G54D12*
X20460Y-22874D03*
G54D13*
X21460Y-22874D03*
X22460Y-22874D03*
X23460Y-22874D03*
X24460Y-22874D03*
X25460Y-22874D03*
X26460Y-22874D03*
X27460Y-22874D03*
X28460Y-22874D03*
X29460Y-22874D03*
X30460Y-22874D03*
X31460Y-22874D03*
X32460Y-22874D03*
X33460Y-22874D03*
X34460Y-22874D03*
G54D12*
X36248Y-22874D03*
G54D13*
X37248Y-22874D03*
X38248Y-22874D03*
X39248Y-22874D03*
X40248Y-22874D03*
X41248Y-22874D03*
X42248Y-22874D03*
X43248Y-22874D03*
X44248Y-22874D03*
X45248Y-22874D03*
X46248Y-22874D03*
X47248Y-22874D03*
X48248Y-22874D03*
X49248Y-22874D03*
X50248Y-22874D03*
G54D12*
X52035Y-22874D03*
G54D13*
X53035Y-22874D03*
X54035Y-22874D03*
X55035Y-22874D03*
X56035Y-22874D03*
X57035Y-22874D03*
X58035Y-22874D03*
X59035Y-22874D03*
X60035Y-22874D03*
X61035Y-22874D03*
X62035Y-22874D03*
X63035Y-22874D03*
X64035Y-22874D03*
X65035Y-22874D03*
X66035Y-22874D03*
G54D12*
X67822Y-22874D03*
G54D13*
X68822Y-22874D03*
X69822Y-22874D03*
X70822Y-22874D03*
X71822Y-22874D03*
X72822Y-22874D03*
X73822Y-22874D03*
X74822Y-22874D03*
X75822Y-22874D03*
X76822Y-22874D03*
X77822Y-22874D03*
X78822Y-22874D03*
X79822Y-22874D03*
X80822Y-22874D03*
X81822Y-22874D03*
G54D12*
X83610Y-22874D03*
G54D13*
X84610Y-22874D03*
X85610Y-22874D03*
X86610Y-22874D03*
X87610Y-22874D03*
X88610Y-22874D03*
X89610Y-22874D03*
X90610Y-22874D03*
X91610Y-22874D03*
X92610Y-22874D03*
X93610Y-22874D03*
X94610Y-22874D03*
X95610Y-22874D03*
X96610Y-22874D03*
X97610Y-22874D03*
G54D12*
X99397Y-22874D03*
G54D13*
X100397Y-22874D03*
X101397Y-22874D03*
X102397Y-22874D03*
X103397Y-22874D03*
X104397Y-22874D03*
X105397Y-22874D03*
X106397Y-22874D03*
X107397Y-22874D03*
X108397Y-22874D03*
X109397Y-22874D03*
X110397Y-22874D03*
X111397Y-22874D03*
X112397Y-22874D03*
X113397Y-22874D03*
G54D14*
X117125Y-25787D03*
X16732Y-42322D03*
X117125Y-42322D03*
X62204Y-25787D03*
X62204Y-42322D03*
X16732Y-25787D03*
G54D15*
X91553Y-41100D03*
X114352Y-41100D03*
G54D16*
X94702Y-39600D03*
X95202Y-40350D03*
X95702Y-39600D03*
X96202Y-40350D03*
X96702Y-39600D03*
X97202Y-40350D03*
X97702Y-39600D03*
X98202Y-40350D03*
X98702Y-39600D03*
X99202Y-40350D03*
X99702Y-39600D03*
X100202Y-40350D03*
X100702Y-39600D03*
X101202Y-40350D03*
X101702Y-39600D03*
X102202Y-40350D03*
X102702Y-39600D03*
X103202Y-40350D03*
X103702Y-39600D03*
X104202Y-40350D03*
X104702Y-39600D03*
X105202Y-40350D03*
X105702Y-39600D03*
X106202Y-40350D03*
X106702Y-39600D03*
X107202Y-40350D03*
X107702Y-39600D03*
X108202Y-40350D03*
X108702Y-39600D03*
X109202Y-40350D03*
X109702Y-39600D03*
X110202Y-40350D03*
X110702Y-39600D03*
X111202Y-40350D03*
X94702Y-41100D03*
X95202Y-41850D03*
X95702Y-41100D03*
X96202Y-41850D03*
X96702Y-41100D03*
X97202Y-41850D03*
X97702Y-41100D03*
X98202Y-41850D03*
X98702Y-41100D03*
X99202Y-41850D03*
X99702Y-41100D03*
X100202Y-41850D03*
X100702Y-41100D03*
X101202Y-41850D03*
X101702Y-41100D03*
X102202Y-41850D03*
X102702Y-41100D03*
X103202Y-41850D03*
X103702Y-41100D03*
X104202Y-41850D03*
X104702Y-41100D03*
X105202Y-41850D03*
X105702Y-41100D03*
X106202Y-41850D03*
X106702Y-41100D03*
X107202Y-41850D03*
X107702Y-41100D03*
X108202Y-41850D03*
X108702Y-41100D03*
X109202Y-41850D03*
X109702Y-41100D03*
X110202Y-41850D03*
X110702Y-41100D03*
X111202Y-41850D03*
G54D17*
X22637Y-42115D03*
G54D18*
X22637Y-40935D03*
G54D19*
X22637Y-38575D03*
G54D18*
X24407Y-41325D03*
X20867Y-41325D03*
G54D11*
X29480Y-40314D03*
X31350Y-40314D03*
X33220Y-40314D03*
G54D12*
X65696Y-40657D03*
G54D13*
X65696Y-39657D03*
X70696Y-40657D03*
X66696Y-39657D03*
X71696Y-40657D03*
X67696Y-39657D03*
X72696Y-40657D03*
X68696Y-39657D03*
X73696Y-40657D03*
X69696Y-39657D03*
X74696Y-40657D03*
X70696Y-39657D03*
X75696Y-40657D03*
X71696Y-39657D03*
X76696Y-40657D03*
X72696Y-39657D03*
X77696Y-40657D03*
X73696Y-39657D03*
X78696Y-40657D03*
X74696Y-39657D03*
X79696Y-40657D03*
X75696Y-39657D03*
X80696Y-40657D03*
X76696Y-39657D03*
X77696Y-39657D03*
X81696Y-40657D03*
X78696Y-39657D03*
X80696Y-39657D03*
X81696Y-39657D03*
X82696Y-39657D03*
X83696Y-39657D03*
X82696Y-40657D03*
X83696Y-40657D03*
X66696Y-40657D03*
X67696Y-40657D03*
X68696Y-40657D03*
X69696Y-40657D03*
X84696Y-40657D03*
X84696Y-39657D03*
X79696Y-39657D03*
G54D20*
X92296Y-32890D03*
X93162Y-32515D03*
X93162Y-33265D03*
G54D21*
X95784Y-33960D03*
X95034Y-33960D03*
G54D22*
X95150Y-32635D03*
X95150Y-31885D03*
G54D23*
X22450Y-29952D03*
X23450Y-29952D03*
X24450Y-29952D03*
X25450Y-29952D03*
X26450Y-29952D03*
X27450Y-29952D03*
X28450Y-29952D03*
X28450Y-25952D03*
X27450Y-25952D03*
X26450Y-25952D03*
X25450Y-25952D03*
X24450Y-25952D03*
X23450Y-25952D03*
X22450Y-25952D03*
X38250Y-29952D03*
X39250Y-29952D03*
X40250Y-29952D03*
X41250Y-29952D03*
X42250Y-29952D03*
X43250Y-29952D03*
X44250Y-29952D03*
X44250Y-25952D03*
X43250Y-25952D03*
X42250Y-25952D03*
X41250Y-25952D03*
X40250Y-25952D03*
X39250Y-25952D03*
X38250Y-25952D03*
X54050Y-29952D03*
X55050Y-29952D03*
X56050Y-29952D03*
X57050Y-29952D03*
X58050Y-29952D03*
X59050Y-29952D03*
X60050Y-29952D03*
X60050Y-25952D03*
X59050Y-25952D03*
X58050Y-25952D03*
X57050Y-25952D03*
X56050Y-25952D03*
X55050Y-25952D03*
X54050Y-25952D03*
X69820Y-29952D03*
X70820Y-29952D03*
X71820Y-29952D03*
X72820Y-29952D03*
X73820Y-29952D03*
X74820Y-29952D03*
X75820Y-29952D03*
X75820Y-25952D03*
X74820Y-25952D03*
X73820Y-25952D03*
X72820Y-25952D03*
X71820Y-25952D03*
X70820Y-25952D03*
X69820Y-25952D03*
X85640Y-29952D03*
X86640Y-29952D03*
X87640Y-29952D03*
X88640Y-29952D03*
X89640Y-29952D03*
X90640Y-29952D03*
X91640Y-29952D03*
X91640Y-25952D03*
X90640Y-25952D03*
X89640Y-25952D03*
X88640Y-25952D03*
X87640Y-25952D03*
X86640Y-25952D03*
X85640Y-25952D03*
X101400Y-29952D03*
X102400Y-29952D03*
X103400Y-29952D03*
X104400Y-29952D03*
X105400Y-29952D03*
X106400Y-29952D03*
X107400Y-29952D03*
X107400Y-25952D03*
X106400Y-25952D03*
X105400Y-25952D03*
X104400Y-25952D03*
X103400Y-25952D03*
X102400Y-25952D03*
X101400Y-25952D03*
X110909Y-30220D03*
X110909Y-31220D03*
X110909Y-32220D03*
X110909Y-33220D03*
X110909Y-34220D03*
X110909Y-35220D03*
X110909Y-36220D03*
X114909Y-36220D03*
X114909Y-35220D03*
X114909Y-34220D03*
X114909Y-33220D03*
X114909Y-32220D03*
X114909Y-31220D03*
X114909Y-30220D03*
G54D24*
X25480Y-32086D03*
X25480Y-34055D03*
X41279Y-32086D03*
X41279Y-34055D03*
X57070Y-32086D03*
X57070Y-34055D03*
X72820Y-32086D03*
X72820Y-34055D03*
X88640Y-32086D03*
X88640Y-34055D03*
X104440Y-32086D03*
X104440Y-34055D03*
G54D13*
X17200Y-35400D03*
X17200Y-34400D03*
X17200Y-33400D03*
X17200Y-32400D03*
G54D25*
X61002Y-42190D03*
X48637Y-22368D03*
X87100Y-33931D03*
X94112Y-40692D03*
X85779Y-32150D03*
X97300Y-36455D03*
X74005Y-36455D03*
X46318Y-38051D03*
X96476Y-24883D03*
X47479Y-37856D03*
X101024Y-33273D03*
X65402Y-24240D03*
X47869Y-37605D03*
X66797Y-24636D03*
X104808Y-36639D03*
X56102Y-37267D03*
X95530Y-23474D03*
X101066Y-36046D03*
X101151Y-35392D03*
X66044Y-33321D03*
X101403Y-34719D03*
X64251Y-35584D03*
X100577Y-36296D03*
X39816Y-41503D03*
X100251Y-35167D03*
X94012Y-38925D03*
X86196Y-28933D03*
X85329Y-28608D03*
X91048Y-38848D03*
X62994Y-40871D03*
X84916Y-26808D03*
X90140Y-39728D03*
X60881Y-42771D03*
X47830Y-41858D03*
X99728Y-34503D03*
X59870Y-41832D03*
X93356Y-39250D03*
X76193Y-32850D03*
G54D26*
X59550Y-29452D02*
X59050Y-29952D01*
X74319Y-29452D02*
X59550Y-29452D01*
X74820Y-29952D02*
X74319Y-29452D01*
X26743Y-30659D02*
X27450Y-29952D01*
X18940Y-30659D02*
X26743Y-30659D01*
X17200Y-32400D02*
X18940Y-30659D01*
X43750Y-29452D02*
X43250Y-29952D01*
X58549Y-29452D02*
X43750Y-29452D01*
X59050Y-29952D02*
X58549Y-29452D01*
X42749Y-29452D02*
X43250Y-29952D01*
X27950Y-29452D02*
X42749Y-29452D01*
X27450Y-29952D02*
X27950Y-29452D01*
X105899Y-29452D02*
X106400Y-29952D01*
X91140Y-29452D02*
X105899Y-29452D01*
X90640Y-29952D02*
X91140Y-29452D01*
X20460Y-22874D02*
X20910Y-22874D01*
X36248Y-22874D02*
X35797Y-22874D01*
X35347Y-22423D02*
X35797Y-22874D01*
X34266Y-22423D02*
X35347Y-22423D01*
X33998Y-22691D02*
X34266Y-22423D01*
X33998Y-24825D02*
X33998Y-22691D01*
X24821Y-23324D02*
X27450Y-25952D01*
X21248Y-23324D02*
X24821Y-23324D01*
X20910Y-22986D02*
X21248Y-23324D01*
X20910Y-22874D02*
X20910Y-22986D01*
X27997Y-26500D02*
X27450Y-25952D01*
X32324Y-26500D02*
X27997Y-26500D01*
X33998Y-24825D02*
X32324Y-26500D01*
X32324Y-26500D02*
X32324Y-27952D01*
X42122Y-24825D02*
X33998Y-24825D01*
X43250Y-25952D02*
X42122Y-24825D01*
X45250Y-27952D02*
X48124Y-27952D01*
X43250Y-25952D02*
X45250Y-27952D01*
X112909Y-33220D02*
X114909Y-35220D01*
X112909Y-31485D02*
X112909Y-33220D01*
X110427Y-29003D02*
X112909Y-31485D01*
X109450Y-29003D02*
X110427Y-29003D01*
X106400Y-25952D02*
X109450Y-29003D01*
X58515Y-26487D02*
X59050Y-25952D01*
X49589Y-26487D02*
X58515Y-26487D01*
X48124Y-27952D02*
X49589Y-26487D01*
X61050Y-27952D02*
X63924Y-27952D01*
X59050Y-25952D02*
X61050Y-27952D01*
X90110Y-26482D02*
X90640Y-25952D01*
X81164Y-26482D02*
X90110Y-26482D01*
X79694Y-27952D02*
X81164Y-26482D01*
X41573Y-42190D02*
X61002Y-42190D01*
X40162Y-40779D02*
X41573Y-42190D01*
X40162Y-40107D02*
X40162Y-40779D01*
X39712Y-39657D02*
X40162Y-40107D01*
X42753Y-22368D02*
X48637Y-22368D01*
X42248Y-22874D02*
X42753Y-22368D01*
X73368Y-23328D02*
X73822Y-22874D01*
X69634Y-23328D02*
X73368Y-23328D01*
X69272Y-22967D02*
X69634Y-23328D01*
X69272Y-22687D02*
X69272Y-22967D01*
X68163Y-21578D02*
X69272Y-22687D01*
X59331Y-21578D02*
X68163Y-21578D01*
X58035Y-22874D02*
X59331Y-21578D01*
X74884Y-21812D02*
X73822Y-22874D01*
X81704Y-21812D02*
X74884Y-21812D01*
X83235Y-23343D02*
X81704Y-21812D01*
X89141Y-23343D02*
X83235Y-23343D01*
X89610Y-22874D02*
X89141Y-23343D01*
X66241Y-39202D02*
X66696Y-39657D01*
X46528Y-39202D02*
X66241Y-39202D01*
X46212Y-39517D02*
X46528Y-39202D01*
X46212Y-39798D02*
X46212Y-39517D01*
X45853Y-40157D02*
X46212Y-39798D01*
X45576Y-40157D02*
X45853Y-40157D01*
X45262Y-40471D02*
X45576Y-40157D01*
X45262Y-40761D02*
X45262Y-40471D01*
X44896Y-41126D02*
X45262Y-40761D01*
X43509Y-41126D02*
X44896Y-41126D01*
X43212Y-40829D02*
X43509Y-41126D01*
X43212Y-40516D02*
X43212Y-40829D01*
X42902Y-40206D02*
X43212Y-40516D01*
X42522Y-40206D02*
X42902Y-40206D01*
X42162Y-40566D02*
X42522Y-40206D01*
X42162Y-40843D02*
X42162Y-40566D01*
X41894Y-41112D02*
X42162Y-40843D01*
X41496Y-41112D02*
X41894Y-41112D01*
X41212Y-40828D02*
X41496Y-41112D01*
X41212Y-40157D02*
X41212Y-40828D01*
X40712Y-39657D02*
X41212Y-40157D01*
X94744Y-42308D02*
X95202Y-41850D01*
X68695Y-42308D02*
X94744Y-42308D01*
X67196Y-40809D02*
X68695Y-42308D01*
X67196Y-40157D02*
X67196Y-40809D01*
X66696Y-39657D02*
X67196Y-40157D01*
X74157Y-23539D02*
X74822Y-22874D01*
X68848Y-23539D02*
X74157Y-23539D01*
X68272Y-22963D02*
X68848Y-23539D01*
X68272Y-22500D02*
X68272Y-22963D01*
X67572Y-21800D02*
X68272Y-22500D01*
X60109Y-21800D02*
X67572Y-21800D01*
X59035Y-22874D02*
X60109Y-21800D01*
X94984Y-40692D02*
X94112Y-40692D01*
X95392Y-41100D02*
X94984Y-40692D01*
X95702Y-41100D02*
X95392Y-41100D01*
X60688Y-32591D02*
X58050Y-29952D01*
X74245Y-32591D02*
X60688Y-32591D01*
X75585Y-33931D02*
X74245Y-32591D01*
X87100Y-33931D02*
X75585Y-33931D01*
X60906Y-22002D02*
X60035Y-22874D01*
X66396Y-22002D02*
X60906Y-22002D01*
X67215Y-22821D02*
X66396Y-22002D01*
X67215Y-23086D02*
X67215Y-22821D01*
X67547Y-23418D02*
X67215Y-23086D01*
X67644Y-23418D02*
X67547Y-23418D01*
X67965Y-23739D02*
X67644Y-23418D01*
X74956Y-23739D02*
X67965Y-23739D01*
X75822Y-22874D02*
X74956Y-23739D01*
X76017Y-32150D02*
X73820Y-29952D01*
X85779Y-32150D02*
X76017Y-32150D01*
X67837Y-38798D02*
X68696Y-39657D01*
X44930Y-38798D02*
X67837Y-38798D01*
X44212Y-39516D02*
X44930Y-38798D01*
X44212Y-39821D02*
X44212Y-39516D01*
X43902Y-40131D02*
X44212Y-39821D01*
X43187Y-40131D02*
X43902Y-40131D01*
X42712Y-39657D02*
X43187Y-40131D01*
X44787Y-38582D02*
X43712Y-39657D01*
X68622Y-38582D02*
X44787Y-38582D01*
X69696Y-39657D02*
X68622Y-38582D01*
X62702Y-22206D02*
X62035Y-22874D01*
X66307Y-22206D02*
X62702Y-22206D01*
X67015Y-22914D02*
X66307Y-22206D01*
X67015Y-23188D02*
X67015Y-22914D01*
X67445Y-23618D02*
X67015Y-23188D01*
X67561Y-23618D02*
X67445Y-23618D01*
X67882Y-23940D02*
X67561Y-23618D01*
X76756Y-23940D02*
X67882Y-23940D01*
X77822Y-22874D02*
X76756Y-23940D01*
X91116Y-24476D02*
X89640Y-25952D01*
X107794Y-24476D02*
X91116Y-24476D01*
X109397Y-22874D02*
X107794Y-24476D01*
X46449Y-38182D02*
X46318Y-38051D01*
X69221Y-38182D02*
X46449Y-38182D01*
X70696Y-39657D02*
X69221Y-38182D01*
X97300Y-36455D02*
X74005Y-36455D01*
X63489Y-22420D02*
X63035Y-22874D01*
X66237Y-22420D02*
X63489Y-22420D01*
X66815Y-22997D02*
X66237Y-22420D01*
X66815Y-23271D02*
X66815Y-22997D01*
X67362Y-23819D02*
X66815Y-23271D01*
X67479Y-23819D02*
X67362Y-23819D01*
X67800Y-24140D02*
X67479Y-23819D01*
X77556Y-24140D02*
X67800Y-24140D01*
X78822Y-22874D02*
X77556Y-24140D01*
X79684Y-22012D02*
X78822Y-22874D01*
X81621Y-22012D02*
X79684Y-22012D01*
X83154Y-23545D02*
X81621Y-22012D01*
X93939Y-23545D02*
X83154Y-23545D01*
X94610Y-22874D02*
X93939Y-23545D01*
X105400Y-25452D02*
X105400Y-25952D01*
X107819Y-25452D02*
X105400Y-25452D01*
X110397Y-22874D02*
X107819Y-25452D01*
X97045Y-25452D02*
X96476Y-24883D01*
X105400Y-25452D02*
X97045Y-25452D01*
X103078Y-31220D02*
X101024Y-33273D01*
X110909Y-31220D02*
X103078Y-31220D01*
X97390Y-41100D02*
X97702Y-41100D01*
X96702Y-40412D02*
X97390Y-41100D01*
X96702Y-40279D02*
X96702Y-40412D01*
X96382Y-39958D02*
X96702Y-40279D01*
X96047Y-39958D02*
X96382Y-39958D01*
X96017Y-39989D02*
X96047Y-39958D01*
X95545Y-39989D02*
X96017Y-39989D01*
X95514Y-39958D02*
X95545Y-39989D01*
X94897Y-39958D02*
X95514Y-39958D01*
X94868Y-39987D02*
X94897Y-39958D01*
X91093Y-39987D02*
X94868Y-39987D01*
X89172Y-41908D02*
X91093Y-39987D01*
X74289Y-41908D02*
X89172Y-41908D01*
X73147Y-40765D02*
X74289Y-41908D01*
X73147Y-40471D02*
X73147Y-40765D01*
X72875Y-40199D02*
X73147Y-40471D01*
X72239Y-40199D02*
X72875Y-40199D01*
X71696Y-39657D02*
X72239Y-40199D01*
X69978Y-37939D02*
X71696Y-39657D01*
X47562Y-37939D02*
X69978Y-37939D01*
X47479Y-37856D02*
X47562Y-37939D01*
X33112Y-22221D02*
X32460Y-22874D01*
X37247Y-22221D02*
X33112Y-22221D01*
X37748Y-22722D02*
X37247Y-22221D01*
X37748Y-23022D02*
X37748Y-22722D01*
X38054Y-23329D02*
X37748Y-23022D01*
X47792Y-23329D02*
X38054Y-23329D01*
X48248Y-22874D02*
X47792Y-23329D01*
X48601Y-22874D02*
X48248Y-22874D01*
X49266Y-22209D02*
X48601Y-22874D01*
X50552Y-22209D02*
X49266Y-22209D01*
X51667Y-23324D02*
X50552Y-22209D01*
X63585Y-23324D02*
X51667Y-23324D01*
X64035Y-22874D02*
X63585Y-23324D01*
X67306Y-24240D02*
X65402Y-24240D01*
X67623Y-24558D02*
X67306Y-24240D01*
X78138Y-24558D02*
X67623Y-24558D01*
X79822Y-22874D02*
X78138Y-24558D01*
X80283Y-22413D02*
X79822Y-22874D01*
X81004Y-22413D02*
X80283Y-22413D01*
X81322Y-22732D02*
X81004Y-22413D01*
X81322Y-23014D02*
X81322Y-22732D01*
X82274Y-23966D02*
X81322Y-23014D01*
X95507Y-23966D02*
X82274Y-23966D01*
X95856Y-23618D02*
X95507Y-23966D01*
X95856Y-23119D02*
X95856Y-23618D01*
X95610Y-22874D02*
X95856Y-23119D01*
X70645Y-37605D02*
X47869Y-37605D01*
X72696Y-39657D02*
X70645Y-37605D01*
X64384Y-23524D02*
X65035Y-22874D01*
X51584Y-23524D02*
X64384Y-23524D01*
X50479Y-22419D02*
X51584Y-23524D01*
X49702Y-22419D02*
X50479Y-22419D01*
X49248Y-22874D02*
X49702Y-22419D01*
X66920Y-24758D02*
X66797Y-24636D01*
X78938Y-24758D02*
X66920Y-24758D01*
X80822Y-22874D02*
X78938Y-24758D01*
X112397Y-29707D02*
X112397Y-22874D01*
X114909Y-32220D02*
X112397Y-29707D01*
X82115Y-24167D02*
X80822Y-22874D01*
X95591Y-24167D02*
X82115Y-24167D01*
X96747Y-23011D02*
X95591Y-24167D01*
X97265Y-23529D02*
X96747Y-23011D01*
X108379Y-23529D02*
X97265Y-23529D01*
X108947Y-22961D02*
X108379Y-23529D01*
X108947Y-22687D02*
X108947Y-22961D01*
X109218Y-22416D02*
X108947Y-22687D01*
X111940Y-22416D02*
X109218Y-22416D01*
X112397Y-22874D02*
X111940Y-22416D01*
X96747Y-23011D02*
X96610Y-22874D01*
X77306Y-37267D02*
X56102Y-37267D01*
X79696Y-39657D02*
X77306Y-37267D01*
X111802Y-41250D02*
X111202Y-41850D01*
X111802Y-38381D02*
X111802Y-41250D01*
X110394Y-36974D02*
X111802Y-38381D01*
X110394Y-33735D02*
X110394Y-36974D01*
X110909Y-33220D02*
X110394Y-33735D01*
X82573Y-36780D02*
X79696Y-39657D01*
X104666Y-36780D02*
X82573Y-36780D01*
X104808Y-36639D02*
X104666Y-36780D01*
X35115Y-23529D02*
X34460Y-22874D01*
X49592Y-23529D02*
X35115Y-23529D01*
X50248Y-22874D02*
X49592Y-23529D01*
X98060Y-23324D02*
X97610Y-22874D01*
X101591Y-23324D02*
X98060Y-23324D01*
X101897Y-23018D02*
X101591Y-23324D01*
X101897Y-22712D02*
X101897Y-23018D01*
X102393Y-22216D02*
X101897Y-22712D01*
X112740Y-22216D02*
X102393Y-22216D01*
X113397Y-22874D02*
X112740Y-22216D01*
X51100Y-23726D02*
X50248Y-22874D01*
X65182Y-23726D02*
X51100Y-23726D01*
X66035Y-22874D02*
X65182Y-23726D01*
X67180Y-24019D02*
X66035Y-22874D01*
X67367Y-24019D02*
X67180Y-24019D01*
X67693Y-24345D02*
X67367Y-24019D01*
X77995Y-24345D02*
X67693Y-24345D01*
X79342Y-22997D02*
X77995Y-24345D01*
X79342Y-22696D02*
X79342Y-22997D01*
X79825Y-22213D02*
X79342Y-22696D01*
X81162Y-22213D02*
X79825Y-22213D01*
X81822Y-22874D02*
X81162Y-22213D01*
X82715Y-23766D02*
X81822Y-22874D01*
X95238Y-23766D02*
X82715Y-23766D01*
X95530Y-23474D02*
X95238Y-23766D01*
X100943Y-43109D02*
X102202Y-41850D01*
X64206Y-43109D02*
X100943Y-43109D01*
X62604Y-41507D02*
X64206Y-43109D01*
X48987Y-41507D02*
X62604Y-41507D01*
X48787Y-41307D02*
X48987Y-41507D01*
X47362Y-41307D02*
X48787Y-41307D01*
X46712Y-40657D02*
X47362Y-41307D01*
X83196Y-40157D02*
X82696Y-40657D01*
X88093Y-40157D02*
X83196Y-40157D01*
X90659Y-37591D02*
X88093Y-40157D01*
X108248Y-37591D02*
X90659Y-37591D01*
X110102Y-39445D02*
X108248Y-37591D01*
X110102Y-39890D02*
X110102Y-39445D01*
X109803Y-40188D02*
X110102Y-39890D01*
X109803Y-40525D02*
X109803Y-40188D01*
X110379Y-41100D02*
X109803Y-40525D01*
X110702Y-41100D02*
X110379Y-41100D01*
X102892Y-41850D02*
X103202Y-41850D01*
X102505Y-41463D02*
X102892Y-41850D01*
X102033Y-41463D02*
X102505Y-41463D01*
X101702Y-41794D02*
X102033Y-41463D01*
X101702Y-41926D02*
X101702Y-41794D01*
X100719Y-42909D02*
X101702Y-41926D01*
X64289Y-42909D02*
X100719Y-42909D01*
X62687Y-41307D02*
X64289Y-42909D01*
X49362Y-41307D02*
X62687Y-41307D01*
X48712Y-40657D02*
X49362Y-41307D01*
X100940Y-35920D02*
X101066Y-36046D01*
X58935Y-35920D02*
X100940Y-35920D01*
X57070Y-34055D02*
X58935Y-35920D01*
X101051Y-35492D02*
X101151Y-35392D01*
X74257Y-35492D02*
X101051Y-35492D01*
X72820Y-34055D02*
X74257Y-35492D01*
X88428Y-34266D02*
X88640Y-34055D01*
X75603Y-34266D02*
X88428Y-34266D01*
X74658Y-33321D02*
X75603Y-34266D01*
X66044Y-33321D02*
X74658Y-33321D01*
X89414Y-34829D02*
X88640Y-34055D01*
X101293Y-34829D02*
X89414Y-34829D01*
X101403Y-34719D02*
X101293Y-34829D01*
X64387Y-35720D02*
X64251Y-35584D01*
X102775Y-35720D02*
X64387Y-35720D01*
X104440Y-34055D02*
X102775Y-35720D01*
X75747Y-41708D02*
X74696Y-40657D01*
X87700Y-41708D02*
X75747Y-41708D01*
X91016Y-38391D02*
X87700Y-41708D01*
X107065Y-38391D02*
X91016Y-38391D01*
X108099Y-39425D02*
X107065Y-38391D01*
X108099Y-39750D02*
X108099Y-39425D01*
X107797Y-40052D02*
X108099Y-39750D01*
X107797Y-40498D02*
X107797Y-40052D01*
X108398Y-41100D02*
X107797Y-40498D01*
X108702Y-41100D02*
X108398Y-41100D01*
X101392Y-41100D02*
X101702Y-41100D01*
X100631Y-41860D02*
X101392Y-41100D01*
X100631Y-41968D02*
X100631Y-41860D01*
X99891Y-42709D02*
X100631Y-41968D01*
X64372Y-42709D02*
X99891Y-42709D01*
X62770Y-41107D02*
X64372Y-42709D01*
X49525Y-41107D02*
X62770Y-41107D01*
X49212Y-40795D02*
X49525Y-41107D01*
X49212Y-40520D02*
X49212Y-40795D01*
X48898Y-40207D02*
X49212Y-40520D01*
X46162Y-40207D02*
X48898Y-40207D01*
X45712Y-40657D02*
X46162Y-40207D01*
X80196Y-40157D02*
X79696Y-40657D01*
X81869Y-40157D02*
X80196Y-40157D01*
X82196Y-39829D02*
X81869Y-40157D01*
X82196Y-39516D02*
X82196Y-39829D01*
X84522Y-37191D02*
X82196Y-39516D01*
X108844Y-37191D02*
X84522Y-37191D01*
X111097Y-39444D02*
X108844Y-37191D01*
X111097Y-39781D02*
X111097Y-39444D01*
X110528Y-40350D02*
X111097Y-39781D01*
X110202Y-40350D02*
X110528Y-40350D01*
X82196Y-40157D02*
X81696Y-40657D01*
X82837Y-40157D02*
X82196Y-40157D01*
X83196Y-39798D02*
X82837Y-40157D01*
X83196Y-39519D02*
X83196Y-39798D01*
X85325Y-37391D02*
X83196Y-39519D01*
X108493Y-37391D02*
X85325Y-37391D01*
X110702Y-39600D02*
X108493Y-37391D01*
X40250Y-34729D02*
X40250Y-29952D01*
X41651Y-36130D02*
X40250Y-34729D01*
X100411Y-36130D02*
X41651Y-36130D01*
X100577Y-36296D02*
X100411Y-36130D01*
X39746Y-41503D02*
X39816Y-41503D01*
X39248Y-41005D02*
X39746Y-41503D01*
X39248Y-38533D02*
X39248Y-41005D01*
X41651Y-36130D02*
X39248Y-38533D01*
X75465Y-35167D02*
X100251Y-35167D01*
X73894Y-33595D02*
X75465Y-35167D01*
X69340Y-33595D02*
X73894Y-33595D01*
X69266Y-33669D02*
X69340Y-33595D01*
X59766Y-33669D02*
X69266Y-33669D01*
X56050Y-29952D02*
X59766Y-33669D01*
X105013Y-41100D02*
X104702Y-41100D01*
X105413Y-41500D02*
X105013Y-41100D01*
X106005Y-41500D02*
X105413Y-41500D01*
X106047Y-41458D02*
X106005Y-41500D01*
X106514Y-41458D02*
X106047Y-41458D01*
X106545Y-41489D02*
X106514Y-41458D01*
X107017Y-41489D02*
X106545Y-41489D01*
X107047Y-41458D02*
X107017Y-41489D01*
X107514Y-41458D02*
X107047Y-41458D01*
X107545Y-41489D02*
X107514Y-41458D01*
X108017Y-41489D02*
X107545Y-41489D01*
X108047Y-41458D02*
X108017Y-41489D01*
X108514Y-41458D02*
X108047Y-41458D01*
X108545Y-41489D02*
X108514Y-41458D01*
X109017Y-41489D02*
X108545Y-41489D01*
X109047Y-41458D02*
X109017Y-41489D01*
X109514Y-41458D02*
X109047Y-41458D01*
X109545Y-41489D02*
X109514Y-41458D01*
X110017Y-41489D02*
X109545Y-41489D01*
X110047Y-41458D02*
X110017Y-41489D01*
X110514Y-41458D02*
X110047Y-41458D01*
X110545Y-41489D02*
X110514Y-41458D01*
X110866Y-41489D02*
X110545Y-41489D01*
X111590Y-40764D02*
X110866Y-41489D01*
X111590Y-39337D02*
X111590Y-40764D01*
X105660Y-33406D02*
X111590Y-39337D01*
X101351Y-33406D02*
X105660Y-33406D01*
X101149Y-33608D02*
X101351Y-33406D01*
X96461Y-33608D02*
X101149Y-33608D01*
X96386Y-33533D02*
X96461Y-33608D01*
X95524Y-33533D02*
X96386Y-33533D01*
X95374Y-33683D02*
X95524Y-33533D01*
X95374Y-34285D02*
X95374Y-33683D01*
X95271Y-34389D02*
X95374Y-34285D01*
X91155Y-34389D02*
X95271Y-34389D01*
X89957Y-33190D02*
X91155Y-34389D01*
X76064Y-33190D02*
X89957Y-33190D01*
X73326Y-30452D02*
X76064Y-33190D01*
X72320Y-30452D02*
X73326Y-30452D01*
X71820Y-29952D02*
X72320Y-30452D01*
X86620Y-28933D02*
X86196Y-28933D01*
X87640Y-29952D02*
X86620Y-28933D01*
X105702Y-40160D02*
X105702Y-41100D01*
X105300Y-39758D02*
X105702Y-40160D01*
X105300Y-39625D02*
X105300Y-39758D01*
X104474Y-38800D02*
X105300Y-39625D01*
X94137Y-38800D02*
X104474Y-38800D01*
X94012Y-38925D02*
X94137Y-38800D01*
X106767Y-28608D02*
X85329Y-28608D01*
X107918Y-29759D02*
X106767Y-28608D01*
X107918Y-30146D02*
X107918Y-29759D01*
X107609Y-30456D02*
X107918Y-30146D01*
X103903Y-30456D02*
X107609Y-30456D01*
X103400Y-29952D02*
X103903Y-30456D01*
X91305Y-38592D02*
X91048Y-38848D01*
X105244Y-38592D02*
X91305Y-38592D01*
X106202Y-39550D02*
X105244Y-38592D01*
X106202Y-39662D02*
X106202Y-39550D01*
X106541Y-40000D02*
X106202Y-39662D01*
X107005Y-40000D02*
X106541Y-40000D01*
X107047Y-39958D02*
X107005Y-40000D01*
X107375Y-39958D02*
X107047Y-39958D01*
X107596Y-40180D02*
X107375Y-39958D01*
X107596Y-40994D02*
X107596Y-40180D01*
X107702Y-41100D02*
X107596Y-40994D01*
X74157Y-40196D02*
X73696Y-40657D01*
X74872Y-40196D02*
X74157Y-40196D01*
X75147Y-40471D02*
X74872Y-40196D01*
X75147Y-40748D02*
X75147Y-40471D01*
X75906Y-41508D02*
X75147Y-40748D01*
X87617Y-41508D02*
X75906Y-41508D01*
X90933Y-38191D02*
X87617Y-41508D01*
X107294Y-38191D02*
X90933Y-38191D01*
X108702Y-39600D02*
X107294Y-38191D01*
X76347Y-41308D02*
X75696Y-40657D01*
X87534Y-41308D02*
X76347Y-41308D01*
X90851Y-37991D02*
X87534Y-41308D01*
X107641Y-37991D02*
X90851Y-37991D01*
X109202Y-39553D02*
X107641Y-37991D01*
X109202Y-40350D02*
X109202Y-39553D01*
X78147Y-41108D02*
X77696Y-40657D01*
X87451Y-41108D02*
X78147Y-41108D01*
X90768Y-37791D02*
X87451Y-41108D01*
X107893Y-37791D02*
X90768Y-37791D01*
X109702Y-39600D02*
X107893Y-37791D01*
X95784Y-33960D02*
X96109Y-33960D01*
X111321Y-40231D02*
X111202Y-40350D01*
X111321Y-39361D02*
X111321Y-40231D01*
X108360Y-36399D02*
X111321Y-39361D01*
X105507Y-36399D02*
X108360Y-36399D01*
X101181Y-33960D02*
X96109Y-33960D01*
X101533Y-33608D02*
X101181Y-33960D01*
X104638Y-33608D02*
X101533Y-33608D01*
X105507Y-34477D02*
X104638Y-33608D01*
X105507Y-36399D02*
X105507Y-34477D01*
X84373Y-36980D02*
X81696Y-39657D01*
X104926Y-36980D02*
X84373Y-36980D01*
X105507Y-36399D02*
X104926Y-36980D01*
X56212Y-40157D02*
X55712Y-39657D01*
X62280Y-40157D02*
X56212Y-40157D01*
X62994Y-40871D02*
X62280Y-40157D01*
G54D27*
X54035Y-21934D02*
X54035Y-22874D01*
X23398Y-21936D02*
X22460Y-22874D01*
X37362Y-21936D02*
X23398Y-21936D01*
X38274Y-22847D02*
X37362Y-21936D01*
X39187Y-21934D02*
X38274Y-22847D01*
X54035Y-21934D02*
X39187Y-21934D01*
X38274Y-22847D02*
X38248Y-22874D01*
X69822Y-22874D02*
X69822Y-22848D01*
X54677Y-21292D02*
X54035Y-21934D01*
X68267Y-21292D02*
X54677Y-21292D01*
X69822Y-22848D02*
X68267Y-21292D01*
X84916Y-30053D02*
X84916Y-26808D01*
X85947Y-31084D02*
X84916Y-30053D01*
X90874Y-31084D02*
X85947Y-31084D01*
X92296Y-32507D02*
X90874Y-31084D01*
X92296Y-32890D02*
X92296Y-32507D01*
X71134Y-21537D02*
X69822Y-22848D01*
X84273Y-21537D02*
X71134Y-21537D01*
X85610Y-22874D02*
X84273Y-21537D01*
X86135Y-22348D02*
X85610Y-22874D01*
X100872Y-22348D02*
X86135Y-22348D01*
X101397Y-22874D02*
X100872Y-22348D01*
G54D26*
X98702Y-40160D02*
X98702Y-41100D01*
X98300Y-39758D02*
X98702Y-40160D01*
X98300Y-39646D02*
X98300Y-39758D01*
X97853Y-39200D02*
X98300Y-39646D01*
X94480Y-39200D02*
X97853Y-39200D01*
X93952Y-39728D02*
X94480Y-39200D01*
X90140Y-39728D02*
X93952Y-39728D01*
X41827Y-42771D02*
X60881Y-42771D01*
X39712Y-40657D02*
X41827Y-42771D01*
X41913Y-41858D02*
X47830Y-41858D01*
X40712Y-40657D02*
X41913Y-41858D01*
X98544Y-42508D02*
X99202Y-41850D01*
X68548Y-42508D02*
X98544Y-42508D01*
X66696Y-40657D02*
X68548Y-42508D01*
X68152Y-41113D02*
X67696Y-40657D01*
X69900Y-41113D02*
X68152Y-41113D01*
X70160Y-40853D02*
X69900Y-41113D01*
X99392Y-41100D02*
X99702Y-41100D01*
X98988Y-41504D02*
X99392Y-41100D01*
X98403Y-41504D02*
X98988Y-41504D01*
X98360Y-41461D02*
X98403Y-41504D01*
X97888Y-41461D02*
X98360Y-41461D01*
X97857Y-41491D02*
X97888Y-41461D01*
X97390Y-41491D02*
X97857Y-41491D01*
X97360Y-41461D02*
X97390Y-41491D01*
X96888Y-41461D02*
X97360Y-41461D01*
X96857Y-41491D02*
X96888Y-41461D01*
X96390Y-41491D02*
X96857Y-41491D01*
X96360Y-41461D02*
X96390Y-41491D01*
X95888Y-41461D02*
X96360Y-41461D01*
X95857Y-41491D02*
X95888Y-41461D01*
X95390Y-41491D02*
X95857Y-41491D01*
X95360Y-41461D02*
X95390Y-41491D01*
X94888Y-41461D02*
X95360Y-41461D01*
X94240Y-42108D02*
X94888Y-41461D01*
X71415Y-42108D02*
X94240Y-42108D01*
X70160Y-40853D02*
X71415Y-42108D01*
X70160Y-39480D02*
X70160Y-40853D01*
X69062Y-38382D02*
X70160Y-39480D01*
X43344Y-38382D02*
X69062Y-38382D01*
X42212Y-39514D02*
X43344Y-38382D01*
X42212Y-40157D02*
X42212Y-39514D01*
X41712Y-40657D02*
X42212Y-40157D01*
X49029Y-41832D02*
X59870Y-41832D01*
X48714Y-41517D02*
X49029Y-41832D01*
X43573Y-41517D02*
X48714Y-41517D01*
X42712Y-40657D02*
X43573Y-41517D01*
X99630Y-34601D02*
X99728Y-34503D01*
X90404Y-34601D02*
X99630Y-34601D01*
X89335Y-33531D02*
X90404Y-34601D01*
X75968Y-33531D02*
X89335Y-33531D01*
X73917Y-31480D02*
X75968Y-33531D01*
X72347Y-31480D02*
X73917Y-31480D01*
X70820Y-29952D02*
X72347Y-31480D01*
X100702Y-40160D02*
X100702Y-41100D01*
X100300Y-39758D02*
X100702Y-40160D01*
X100300Y-39651D02*
X100300Y-39758D01*
X99648Y-39000D02*
X100300Y-39651D01*
X94397Y-39000D02*
X99648Y-39000D01*
X94147Y-39250D02*
X94397Y-39000D01*
X93356Y-39250D02*
X94147Y-39250D01*
X69147Y-40107D02*
X69696Y-40657D01*
X67500Y-40107D02*
X69147Y-40107D01*
X67233Y-39840D02*
X67500Y-40107D01*
X67233Y-39548D02*
X67233Y-39840D01*
X66683Y-38998D02*
X67233Y-39548D01*
X45702Y-38998D02*
X66683Y-38998D01*
X45212Y-39488D02*
X45702Y-38998D01*
X45212Y-39794D02*
X45212Y-39488D01*
X44898Y-40107D02*
X45212Y-39794D01*
X44262Y-40107D02*
X44898Y-40107D01*
X43712Y-40657D02*
X44262Y-40107D01*
X91602Y-32850D02*
X76193Y-32850D01*
X91949Y-33197D02*
X91602Y-32850D01*
X92646Y-33197D02*
X91949Y-33197D01*
X93021Y-32822D02*
X92646Y-33197D01*
X94117Y-32822D02*
X93021Y-32822D01*
X94729Y-32210D02*
X94117Y-32822D01*
X100142Y-32210D02*
X94729Y-32210D01*
X102400Y-29952D02*
X100142Y-32210D01*
G54D27*
X110909Y-36220D02*
X114909Y-36220D01*
X19486Y-35686D02*
X22716Y-35686D01*
X17200Y-33400D02*
X19486Y-35686D01*
X22716Y-35686D02*
X28450Y-29952D01*
X32487Y-39582D02*
X23668Y-39582D01*
X33220Y-40314D02*
X32487Y-39582D01*
X23668Y-36639D02*
X23668Y-39582D01*
X22716Y-35686D02*
X23668Y-36639D01*
X23668Y-39904D02*
X22637Y-40935D01*
X23668Y-39582D02*
X23668Y-39904D01*
X95702Y-39600D02*
X94702Y-39600D01*
X92375Y-40278D02*
X91553Y-41100D01*
X95130Y-40278D02*
X92375Y-40278D01*
X95202Y-40350D02*
X95130Y-40278D01*
X95150Y-31885D02*
X94649Y-31885D01*
X94649Y-31885D02*
X93162Y-31885D01*
X93162Y-31475D02*
X93162Y-31885D01*
X91640Y-29952D02*
X93162Y-31475D01*
X93162Y-31885D02*
X93162Y-32515D01*
X75820Y-29352D02*
X75820Y-29952D01*
X80294Y-29352D02*
X75820Y-29352D01*
X81694Y-27952D02*
X80294Y-29352D01*
X75820Y-26552D02*
X74420Y-27952D01*
X75820Y-25952D02*
X75820Y-26552D01*
X75820Y-29352D02*
X74420Y-27952D01*
X74420Y-27952D02*
X65924Y-27952D01*
G54D26*
X95150Y-32635D02*
X95150Y-32960D01*
X94845Y-33345D02*
X94845Y-33265D01*
X95034Y-33534D02*
X94845Y-33345D01*
X95150Y-32960D02*
X94845Y-33265D01*
X94845Y-33265D02*
X93162Y-33265D01*
X95034Y-33960D02*
X95034Y-33534D01*
M02*
