G04 (created by PCBNEW (2013-mar-13)-testing) date Tue 12 Nov 2013 05:44:31 PM PST*
%MOIN*%
G04 Gerber Fmt 3.4, Leading zero omitted, Abs format*
%FSLAX34Y34*%
G01*
G70*
G90*
G04 APERTURE LIST*
%ADD10C,0.005906*%
%ADD11C,0.100000*%
%ADD12R,0.060000X0.060000*%
%ADD13C,0.060000*%
%ADD14C,0.200000*%
%ADD15C,0.181100*%
%ADD16C,0.130000*%
G04 APERTURE END LIST*
G54D10*
G54D11*
X34039Y-28740D03*
X36039Y-28740D03*
X50181Y-28740D03*
X52181Y-28740D03*
X65929Y-28740D03*
X67929Y-28740D03*
X82070Y-28740D03*
X84070Y-28740D03*
X97425Y-28740D03*
X99425Y-28740D03*
G54D12*
X39795Y-26484D03*
G54D13*
X39795Y-25484D03*
X40795Y-26484D03*
X40795Y-25484D03*
G54D12*
X55582Y-26484D03*
G54D13*
X55582Y-25484D03*
X56582Y-26484D03*
X56582Y-25484D03*
G54D12*
X71370Y-26484D03*
G54D13*
X71370Y-25484D03*
X72370Y-26484D03*
X72370Y-25484D03*
G54D12*
X87157Y-26484D03*
G54D13*
X87157Y-25484D03*
X88157Y-26484D03*
X88157Y-25484D03*
G54D12*
X102944Y-26484D03*
G54D13*
X102944Y-25484D03*
X103944Y-26484D03*
X103944Y-25484D03*
G54D12*
X42748Y-26484D03*
G54D13*
X42748Y-25484D03*
X43748Y-26484D03*
X43748Y-25484D03*
G54D12*
X58535Y-26484D03*
G54D13*
X58535Y-25484D03*
X59535Y-26484D03*
X59535Y-25484D03*
G54D12*
X74322Y-26484D03*
G54D13*
X74322Y-25484D03*
X75322Y-26484D03*
X75322Y-25484D03*
G54D12*
X90110Y-26484D03*
G54D13*
X90110Y-25484D03*
X91110Y-26484D03*
X91110Y-25484D03*
G54D12*
X105897Y-26484D03*
G54D13*
X105897Y-25484D03*
X106897Y-26484D03*
X106897Y-25484D03*
G54D12*
X45700Y-26484D03*
G54D13*
X45700Y-25484D03*
X46700Y-26484D03*
X46700Y-25484D03*
G54D12*
X61488Y-26484D03*
G54D13*
X61488Y-25484D03*
X62488Y-26484D03*
X62488Y-25484D03*
G54D12*
X77275Y-26484D03*
G54D13*
X77275Y-25484D03*
X78275Y-26484D03*
X78275Y-25484D03*
G54D12*
X93062Y-26484D03*
G54D13*
X93062Y-25484D03*
X94062Y-26484D03*
X94062Y-25484D03*
G54D12*
X108850Y-26484D03*
G54D13*
X108850Y-25484D03*
X109850Y-26484D03*
X109850Y-25484D03*
G54D12*
X33807Y-35539D03*
G54D13*
X33807Y-34539D03*
X38807Y-35539D03*
X34807Y-34539D03*
X39807Y-35539D03*
X35807Y-34539D03*
X40807Y-35539D03*
X36807Y-34539D03*
X41807Y-35539D03*
X37807Y-34539D03*
X42807Y-35539D03*
X38807Y-34539D03*
X43807Y-35539D03*
X39807Y-34539D03*
X44807Y-35539D03*
X40807Y-34539D03*
X45807Y-35539D03*
X41807Y-34539D03*
X46807Y-35539D03*
X42807Y-34539D03*
X47807Y-35539D03*
X43807Y-34539D03*
X48807Y-35539D03*
X44807Y-34539D03*
X45807Y-34539D03*
X49807Y-35539D03*
X46807Y-34539D03*
X48807Y-34539D03*
X49807Y-34539D03*
X50807Y-34539D03*
X51807Y-34539D03*
X50807Y-35539D03*
X51807Y-35539D03*
X34807Y-35539D03*
X35807Y-35539D03*
X36807Y-35539D03*
X37807Y-35539D03*
X52807Y-35539D03*
X52807Y-34539D03*
X47807Y-34539D03*
G54D12*
X83925Y-35539D03*
G54D13*
X83925Y-34539D03*
X88925Y-35539D03*
X84925Y-34539D03*
X89925Y-35539D03*
X85925Y-34539D03*
X90925Y-35539D03*
X86925Y-34539D03*
X91925Y-35539D03*
X87925Y-34539D03*
X92925Y-35539D03*
X88925Y-34539D03*
X93925Y-35539D03*
X89925Y-34539D03*
X94925Y-35539D03*
X90925Y-34539D03*
X95925Y-35539D03*
X91925Y-34539D03*
X96925Y-35539D03*
X92925Y-34539D03*
X97925Y-35539D03*
X93925Y-34539D03*
X98925Y-35539D03*
X94925Y-34539D03*
X95925Y-34539D03*
X99925Y-35539D03*
X96925Y-34539D03*
X98925Y-34539D03*
X99925Y-34539D03*
X100925Y-34539D03*
X101925Y-34539D03*
X100925Y-35539D03*
X101925Y-35539D03*
X84925Y-35539D03*
X85925Y-35539D03*
X86925Y-35539D03*
X87925Y-35539D03*
X102925Y-35539D03*
X102925Y-34539D03*
X97925Y-34539D03*
X103925Y-35539D03*
X103925Y-34539D03*
X104925Y-35539D03*
X104925Y-34539D03*
X105925Y-35539D03*
X105925Y-34539D03*
X106925Y-35539D03*
X106925Y-34539D03*
X107925Y-35539D03*
X107925Y-34539D03*
X108925Y-35539D03*
X108925Y-34539D03*
X109925Y-35539D03*
X109925Y-34539D03*
X110925Y-35539D03*
X110925Y-34539D03*
X111925Y-35539D03*
X111925Y-34539D03*
X112925Y-35539D03*
X112925Y-34539D03*
G54D14*
X21980Y-33937D03*
G54D15*
X21980Y-36299D03*
G54D12*
X20460Y-22874D03*
G54D13*
X21460Y-22874D03*
X22460Y-22874D03*
X23460Y-22874D03*
X24460Y-22874D03*
X25460Y-22874D03*
X26460Y-22874D03*
X27460Y-22874D03*
X28460Y-22874D03*
X29460Y-22874D03*
X30460Y-22874D03*
X31460Y-22874D03*
X32460Y-22874D03*
X33460Y-22874D03*
X34460Y-22874D03*
G54D12*
X36248Y-22874D03*
G54D13*
X37248Y-22874D03*
X38248Y-22874D03*
X39248Y-22874D03*
X40248Y-22874D03*
X41248Y-22874D03*
X42248Y-22874D03*
X43248Y-22874D03*
X44248Y-22874D03*
X45248Y-22874D03*
X46248Y-22874D03*
X47248Y-22874D03*
X48248Y-22874D03*
X49248Y-22874D03*
X50248Y-22874D03*
G54D12*
X52035Y-22874D03*
G54D13*
X53035Y-22874D03*
X54035Y-22874D03*
X55035Y-22874D03*
X56035Y-22874D03*
X57035Y-22874D03*
X58035Y-22874D03*
X59035Y-22874D03*
X60035Y-22874D03*
X61035Y-22874D03*
X62035Y-22874D03*
X63035Y-22874D03*
X64035Y-22874D03*
X65035Y-22874D03*
X66035Y-22874D03*
G54D12*
X67822Y-22874D03*
G54D13*
X68822Y-22874D03*
X69822Y-22874D03*
X70822Y-22874D03*
X71822Y-22874D03*
X72822Y-22874D03*
X73822Y-22874D03*
X74822Y-22874D03*
X75822Y-22874D03*
X76822Y-22874D03*
X77822Y-22874D03*
X78822Y-22874D03*
X79822Y-22874D03*
X80822Y-22874D03*
X81822Y-22874D03*
G54D12*
X83610Y-22874D03*
G54D13*
X84610Y-22874D03*
X85610Y-22874D03*
X86610Y-22874D03*
X87610Y-22874D03*
X88610Y-22874D03*
X89610Y-22874D03*
X90610Y-22874D03*
X91610Y-22874D03*
X92610Y-22874D03*
X93610Y-22874D03*
X94610Y-22874D03*
X95610Y-22874D03*
X96610Y-22874D03*
X97610Y-22874D03*
G54D12*
X99397Y-22874D03*
G54D13*
X100397Y-22874D03*
X101397Y-22874D03*
X102397Y-22874D03*
X103397Y-22874D03*
X104397Y-22874D03*
X105397Y-22874D03*
X106397Y-22874D03*
X107397Y-22874D03*
X108397Y-22874D03*
X109397Y-22874D03*
X110397Y-22874D03*
X111397Y-22874D03*
X112397Y-22874D03*
X113397Y-22874D03*
G54D16*
X117125Y-25590D03*
X16732Y-38385D03*
X117125Y-38385D03*
X66929Y-25590D03*
X66929Y-38385D03*
X16732Y-25590D03*
G54D12*
X20900Y-28059D03*
G54D13*
X20900Y-27059D03*
X21900Y-28059D03*
X21900Y-27059D03*
G54D14*
X27500Y-33937D03*
G54D15*
X27500Y-36299D03*
G54D12*
X41248Y-30814D03*
G54D13*
X41248Y-29814D03*
X42248Y-30814D03*
X42248Y-29814D03*
X43248Y-30814D03*
X43248Y-29814D03*
X44248Y-30814D03*
X44248Y-29814D03*
X45248Y-30814D03*
X45248Y-29814D03*
G54D12*
X57035Y-30814D03*
G54D13*
X57035Y-29814D03*
X58035Y-30814D03*
X58035Y-29814D03*
X59035Y-30814D03*
X59035Y-29814D03*
X60035Y-30814D03*
X60035Y-29814D03*
X61035Y-30814D03*
X61035Y-29814D03*
G54D12*
X72822Y-30814D03*
G54D13*
X72822Y-29814D03*
X73822Y-30814D03*
X73822Y-29814D03*
X74822Y-30814D03*
X74822Y-29814D03*
X75822Y-30814D03*
X75822Y-29814D03*
X76822Y-30814D03*
X76822Y-29814D03*
G54D12*
X88610Y-30814D03*
G54D13*
X88610Y-29814D03*
X89610Y-30814D03*
X89610Y-29814D03*
X90610Y-30814D03*
X90610Y-29814D03*
X91610Y-30814D03*
X91610Y-29814D03*
X92610Y-30814D03*
X92610Y-29814D03*
G54D12*
X104397Y-30814D03*
G54D13*
X104397Y-29814D03*
X105397Y-30814D03*
X105397Y-29814D03*
X106397Y-30814D03*
X106397Y-29814D03*
X107397Y-30814D03*
X107397Y-29814D03*
X108397Y-30814D03*
X108397Y-29814D03*
G54D12*
X59003Y-35539D03*
G54D13*
X59003Y-34539D03*
X64003Y-35539D03*
X60003Y-34539D03*
X65003Y-35539D03*
X61003Y-34539D03*
X66003Y-35539D03*
X62003Y-34539D03*
X67003Y-35539D03*
X63003Y-34539D03*
X68003Y-35539D03*
X64003Y-34539D03*
X69003Y-35539D03*
X65003Y-34539D03*
X70003Y-35539D03*
X66003Y-34539D03*
X71003Y-35539D03*
X67003Y-34539D03*
X72003Y-35539D03*
X68003Y-34539D03*
X73003Y-35539D03*
X69003Y-34539D03*
X74003Y-35539D03*
X70003Y-34539D03*
X71003Y-34539D03*
X75003Y-35539D03*
X72003Y-34539D03*
X74003Y-34539D03*
X75003Y-34539D03*
X76003Y-34539D03*
X77003Y-34539D03*
X76003Y-35539D03*
X77003Y-35539D03*
X60003Y-35539D03*
X61003Y-35539D03*
X62003Y-35539D03*
X63003Y-35539D03*
X78003Y-35539D03*
X78003Y-34539D03*
X73003Y-34539D03*
M02*
