G04 (created by PCBNEW (2013-mar-13)-testing) date Tue 12 Nov 2013 05:44:31 PM PST*
%MOIN*%
G04 Gerber Fmt 3.4, Leading zero omitted, Abs format*
%FSLAX34Y34*%
G01*
G70*
G90*
G04 APERTURE LIST*
%ADD10C,0.005906*%
%ADD11C,0.100000*%
%ADD12R,0.060000X0.060000*%
%ADD13C,0.060000*%
%ADD14C,0.200000*%
%ADD15C,0.181100*%
%ADD16C,0.130000*%
%ADD17R,0.025000X0.045000*%
%ADD18R,0.023600X0.039400*%
%ADD19C,0.035000*%
%ADD20C,0.035000*%
%ADD21C,0.010000*%
G04 APERTURE END LIST*
G54D10*
G54D11*
X34039Y-28740D03*
X36039Y-28740D03*
X50181Y-28740D03*
X52181Y-28740D03*
X65929Y-28740D03*
X67929Y-28740D03*
X82070Y-28740D03*
X84070Y-28740D03*
X97425Y-28740D03*
X99425Y-28740D03*
G54D12*
X39795Y-26484D03*
G54D13*
X39795Y-25484D03*
X40795Y-26484D03*
X40795Y-25484D03*
G54D12*
X55582Y-26484D03*
G54D13*
X55582Y-25484D03*
X56582Y-26484D03*
X56582Y-25484D03*
G54D12*
X71370Y-26484D03*
G54D13*
X71370Y-25484D03*
X72370Y-26484D03*
X72370Y-25484D03*
G54D12*
X87157Y-26484D03*
G54D13*
X87157Y-25484D03*
X88157Y-26484D03*
X88157Y-25484D03*
G54D12*
X102944Y-26484D03*
G54D13*
X102944Y-25484D03*
X103944Y-26484D03*
X103944Y-25484D03*
G54D12*
X42748Y-26484D03*
G54D13*
X42748Y-25484D03*
X43748Y-26484D03*
X43748Y-25484D03*
G54D12*
X58535Y-26484D03*
G54D13*
X58535Y-25484D03*
X59535Y-26484D03*
X59535Y-25484D03*
G54D12*
X74322Y-26484D03*
G54D13*
X74322Y-25484D03*
X75322Y-26484D03*
X75322Y-25484D03*
G54D12*
X90110Y-26484D03*
G54D13*
X90110Y-25484D03*
X91110Y-26484D03*
X91110Y-25484D03*
G54D12*
X105897Y-26484D03*
G54D13*
X105897Y-25484D03*
X106897Y-26484D03*
X106897Y-25484D03*
G54D12*
X45700Y-26484D03*
G54D13*
X45700Y-25484D03*
X46700Y-26484D03*
X46700Y-25484D03*
G54D12*
X61488Y-26484D03*
G54D13*
X61488Y-25484D03*
X62488Y-26484D03*
X62488Y-25484D03*
G54D12*
X77275Y-26484D03*
G54D13*
X77275Y-25484D03*
X78275Y-26484D03*
X78275Y-25484D03*
G54D12*
X93062Y-26484D03*
G54D13*
X93062Y-25484D03*
X94062Y-26484D03*
X94062Y-25484D03*
G54D12*
X108850Y-26484D03*
G54D13*
X108850Y-25484D03*
X109850Y-26484D03*
X109850Y-25484D03*
G54D12*
X33807Y-35539D03*
G54D13*
X33807Y-34539D03*
X38807Y-35539D03*
X34807Y-34539D03*
X39807Y-35539D03*
X35807Y-34539D03*
X40807Y-35539D03*
X36807Y-34539D03*
X41807Y-35539D03*
X37807Y-34539D03*
X42807Y-35539D03*
X38807Y-34539D03*
X43807Y-35539D03*
X39807Y-34539D03*
X44807Y-35539D03*
X40807Y-34539D03*
X45807Y-35539D03*
X41807Y-34539D03*
X46807Y-35539D03*
X42807Y-34539D03*
X47807Y-35539D03*
X43807Y-34539D03*
X48807Y-35539D03*
X44807Y-34539D03*
X45807Y-34539D03*
X49807Y-35539D03*
X46807Y-34539D03*
X48807Y-34539D03*
X49807Y-34539D03*
X50807Y-34539D03*
X51807Y-34539D03*
X50807Y-35539D03*
X51807Y-35539D03*
X34807Y-35539D03*
X35807Y-35539D03*
X36807Y-35539D03*
X37807Y-35539D03*
X52807Y-35539D03*
X52807Y-34539D03*
X47807Y-34539D03*
G54D12*
X83925Y-35539D03*
G54D13*
X83925Y-34539D03*
X88925Y-35539D03*
X84925Y-34539D03*
X89925Y-35539D03*
X85925Y-34539D03*
X90925Y-35539D03*
X86925Y-34539D03*
X91925Y-35539D03*
X87925Y-34539D03*
X92925Y-35539D03*
X88925Y-34539D03*
X93925Y-35539D03*
X89925Y-34539D03*
X94925Y-35539D03*
X90925Y-34539D03*
X95925Y-35539D03*
X91925Y-34539D03*
X96925Y-35539D03*
X92925Y-34539D03*
X97925Y-35539D03*
X93925Y-34539D03*
X98925Y-35539D03*
X94925Y-34539D03*
X95925Y-34539D03*
X99925Y-35539D03*
X96925Y-34539D03*
X98925Y-34539D03*
X99925Y-34539D03*
X100925Y-34539D03*
X101925Y-34539D03*
X100925Y-35539D03*
X101925Y-35539D03*
X84925Y-35539D03*
X85925Y-35539D03*
X86925Y-35539D03*
X87925Y-35539D03*
X102925Y-35539D03*
X102925Y-34539D03*
X97925Y-34539D03*
X103925Y-35539D03*
X103925Y-34539D03*
X104925Y-35539D03*
X104925Y-34539D03*
X105925Y-35539D03*
X105925Y-34539D03*
X106925Y-35539D03*
X106925Y-34539D03*
X107925Y-35539D03*
X107925Y-34539D03*
X108925Y-35539D03*
X108925Y-34539D03*
X109925Y-35539D03*
X109925Y-34539D03*
X110925Y-35539D03*
X110925Y-34539D03*
X111925Y-35539D03*
X111925Y-34539D03*
X112925Y-35539D03*
X112925Y-34539D03*
G54D14*
X21980Y-33937D03*
G54D15*
X21980Y-36299D03*
G54D12*
X20460Y-22874D03*
G54D13*
X21460Y-22874D03*
X22460Y-22874D03*
X23460Y-22874D03*
X24460Y-22874D03*
X25460Y-22874D03*
X26460Y-22874D03*
X27460Y-22874D03*
X28460Y-22874D03*
X29460Y-22874D03*
X30460Y-22874D03*
X31460Y-22874D03*
X32460Y-22874D03*
X33460Y-22874D03*
X34460Y-22874D03*
G54D12*
X36248Y-22874D03*
G54D13*
X37248Y-22874D03*
X38248Y-22874D03*
X39248Y-22874D03*
X40248Y-22874D03*
X41248Y-22874D03*
X42248Y-22874D03*
X43248Y-22874D03*
X44248Y-22874D03*
X45248Y-22874D03*
X46248Y-22874D03*
X47248Y-22874D03*
X48248Y-22874D03*
X49248Y-22874D03*
X50248Y-22874D03*
G54D12*
X52035Y-22874D03*
G54D13*
X53035Y-22874D03*
X54035Y-22874D03*
X55035Y-22874D03*
X56035Y-22874D03*
X57035Y-22874D03*
X58035Y-22874D03*
X59035Y-22874D03*
X60035Y-22874D03*
X61035Y-22874D03*
X62035Y-22874D03*
X63035Y-22874D03*
X64035Y-22874D03*
X65035Y-22874D03*
X66035Y-22874D03*
G54D12*
X67822Y-22874D03*
G54D13*
X68822Y-22874D03*
X69822Y-22874D03*
X70822Y-22874D03*
X71822Y-22874D03*
X72822Y-22874D03*
X73822Y-22874D03*
X74822Y-22874D03*
X75822Y-22874D03*
X76822Y-22874D03*
X77822Y-22874D03*
X78822Y-22874D03*
X79822Y-22874D03*
X80822Y-22874D03*
X81822Y-22874D03*
G54D12*
X83610Y-22874D03*
G54D13*
X84610Y-22874D03*
X85610Y-22874D03*
X86610Y-22874D03*
X87610Y-22874D03*
X88610Y-22874D03*
X89610Y-22874D03*
X90610Y-22874D03*
X91610Y-22874D03*
X92610Y-22874D03*
X93610Y-22874D03*
X94610Y-22874D03*
X95610Y-22874D03*
X96610Y-22874D03*
X97610Y-22874D03*
G54D12*
X99397Y-22874D03*
G54D13*
X100397Y-22874D03*
X101397Y-22874D03*
X102397Y-22874D03*
X103397Y-22874D03*
X104397Y-22874D03*
X105397Y-22874D03*
X106397Y-22874D03*
X107397Y-22874D03*
X108397Y-22874D03*
X109397Y-22874D03*
X110397Y-22874D03*
X111397Y-22874D03*
X112397Y-22874D03*
X113397Y-22874D03*
G54D16*
X117125Y-25590D03*
X16732Y-38385D03*
X117125Y-38385D03*
X66929Y-25590D03*
X66929Y-38385D03*
X16732Y-25590D03*
G54D17*
X27520Y-27140D03*
X28120Y-27140D03*
G54D12*
X20900Y-28059D03*
G54D13*
X20900Y-27059D03*
X21900Y-28059D03*
X21900Y-27059D03*
G54D14*
X27500Y-33937D03*
G54D15*
X27500Y-36299D03*
G54D18*
X25904Y-27146D03*
X26416Y-27146D03*
X26160Y-27894D03*
G54D12*
X41248Y-30814D03*
G54D13*
X41248Y-29814D03*
X42248Y-30814D03*
X42248Y-29814D03*
X43248Y-30814D03*
X43248Y-29814D03*
X44248Y-30814D03*
X44248Y-29814D03*
X45248Y-30814D03*
X45248Y-29814D03*
G54D12*
X57035Y-30814D03*
G54D13*
X57035Y-29814D03*
X58035Y-30814D03*
X58035Y-29814D03*
X59035Y-30814D03*
X59035Y-29814D03*
X60035Y-30814D03*
X60035Y-29814D03*
X61035Y-30814D03*
X61035Y-29814D03*
G54D12*
X72822Y-30814D03*
G54D13*
X72822Y-29814D03*
X73822Y-30814D03*
X73822Y-29814D03*
X74822Y-30814D03*
X74822Y-29814D03*
X75822Y-30814D03*
X75822Y-29814D03*
X76822Y-30814D03*
X76822Y-29814D03*
G54D12*
X88610Y-30814D03*
G54D13*
X88610Y-29814D03*
X89610Y-30814D03*
X89610Y-29814D03*
X90610Y-30814D03*
X90610Y-29814D03*
X91610Y-30814D03*
X91610Y-29814D03*
X92610Y-30814D03*
X92610Y-29814D03*
G54D12*
X104397Y-30814D03*
G54D13*
X104397Y-29814D03*
X105397Y-30814D03*
X105397Y-29814D03*
X106397Y-30814D03*
X106397Y-29814D03*
X107397Y-30814D03*
X107397Y-29814D03*
X108397Y-30814D03*
X108397Y-29814D03*
G54D12*
X59003Y-35539D03*
G54D13*
X59003Y-34539D03*
X64003Y-35539D03*
X60003Y-34539D03*
X65003Y-35539D03*
X61003Y-34539D03*
X66003Y-35539D03*
X62003Y-34539D03*
X67003Y-35539D03*
X63003Y-34539D03*
X68003Y-35539D03*
X64003Y-34539D03*
X69003Y-35539D03*
X65003Y-34539D03*
X70003Y-35539D03*
X66003Y-34539D03*
X71003Y-35539D03*
X67003Y-34539D03*
X72003Y-35539D03*
X68003Y-34539D03*
X73003Y-35539D03*
X69003Y-34539D03*
X74003Y-35539D03*
X70003Y-34539D03*
X71003Y-34539D03*
X75003Y-35539D03*
X72003Y-34539D03*
X74003Y-34539D03*
X75003Y-34539D03*
X76003Y-34539D03*
X77003Y-34539D03*
X76003Y-35539D03*
X77003Y-35539D03*
X60003Y-35539D03*
X61003Y-35539D03*
X62003Y-35539D03*
X63003Y-35539D03*
X78003Y-35539D03*
X78003Y-34539D03*
X73003Y-34539D03*
G54D19*
X53597Y-27338D03*
X61688Y-27259D03*
X77515Y-28459D03*
X88172Y-32135D03*
X91841Y-32336D03*
X57549Y-31699D03*
X31555Y-29747D03*
X68779Y-30568D03*
X89854Y-31678D03*
X51236Y-30579D03*
X54020Y-39024D03*
X85673Y-25339D03*
X94636Y-30283D03*
X41526Y-25021D03*
X69242Y-30568D03*
X55102Y-29923D03*
X72807Y-33595D03*
X92182Y-33689D03*
X57276Y-36068D03*
X56422Y-30908D03*
X31959Y-29349D03*
X48921Y-37655D03*
X54470Y-30240D03*
X38727Y-23233D03*
X74869Y-27269D03*
X88283Y-27113D03*
X93751Y-24320D03*
X54382Y-34201D03*
X44605Y-33938D03*
X32877Y-24293D03*
X49953Y-38368D03*
X57884Y-35187D03*
X54161Y-35597D03*
X82966Y-30439D03*
X83272Y-33792D03*
X94745Y-29359D03*
X54836Y-35838D03*
X65304Y-33680D03*
X51845Y-38760D03*
X62115Y-31421D03*
X76539Y-33592D03*
X85439Y-26034D03*
X38379Y-24909D03*
X49921Y-36327D03*
X93273Y-36728D03*
X94062Y-32666D03*
X40433Y-26939D03*
X87411Y-27491D03*
X74338Y-27604D03*
X52523Y-26810D03*
X61903Y-25899D03*
X93075Y-32318D03*
X56348Y-31883D03*
X82029Y-32127D03*
X25021Y-28582D03*
X108830Y-28967D03*
G54D20*
X27520Y-27140D02*
X27119Y-27140D01*
X78003Y-34539D02*
X77003Y-34539D01*
X27113Y-27145D02*
X27119Y-27140D01*
X26415Y-27145D02*
X27113Y-27145D01*
X24260Y-26673D02*
X20460Y-22874D01*
X26415Y-26673D02*
X24260Y-26673D01*
X26415Y-27145D02*
X26415Y-26673D01*
X34814Y-29515D02*
X34039Y-28740D01*
X40603Y-29515D02*
X34814Y-29515D01*
X41378Y-28740D02*
X40603Y-29515D01*
X50181Y-28740D02*
X41378Y-28740D01*
X83610Y-22874D02*
X83035Y-22874D01*
X69201Y-21495D02*
X67822Y-22874D01*
X81656Y-21495D02*
X69201Y-21495D01*
X83035Y-22874D02*
X81656Y-21495D01*
X111925Y-34539D02*
X112925Y-34539D01*
X50956Y-29515D02*
X50181Y-28740D01*
X52913Y-29515D02*
X50956Y-29515D01*
X53807Y-28621D02*
X52913Y-29515D01*
X65810Y-28621D02*
X53807Y-28621D01*
X65929Y-28740D02*
X65810Y-28621D01*
X96650Y-27965D02*
X97425Y-28740D01*
X82846Y-27965D02*
X96650Y-27965D01*
X82070Y-28740D02*
X82846Y-27965D01*
X111925Y-31423D02*
X111925Y-34539D01*
X108464Y-27962D02*
X111925Y-31423D01*
X98203Y-27962D02*
X108464Y-27962D01*
X97425Y-28740D02*
X98203Y-27962D01*
X27176Y-28740D02*
X21980Y-33937D01*
X34039Y-28740D02*
X27176Y-28740D01*
G54D21*
X27070Y-26484D02*
X39345Y-26484D01*
X23460Y-22874D02*
X27070Y-26484D01*
X39795Y-26484D02*
X39345Y-26484D01*
X39795Y-26484D02*
X39795Y-26934D01*
X55582Y-26484D02*
X55582Y-26934D01*
X102944Y-26484D02*
X102494Y-26484D01*
X102044Y-26934D02*
X102494Y-26484D01*
X90913Y-26934D02*
X102044Y-26934D01*
X90560Y-26581D02*
X90913Y-26934D01*
X90560Y-26111D02*
X90560Y-26581D01*
X90483Y-26034D02*
X90560Y-26111D01*
X87945Y-26034D02*
X90483Y-26034D01*
X87607Y-26371D02*
X87945Y-26034D01*
X87607Y-26484D02*
X87607Y-26371D01*
X87157Y-26484D02*
X87607Y-26484D01*
X87157Y-26484D02*
X86707Y-26484D01*
X86257Y-26934D02*
X86707Y-26484D01*
X73467Y-26934D02*
X86257Y-26934D01*
X72545Y-26012D02*
X73467Y-26934D01*
X72179Y-26012D02*
X72545Y-26012D01*
X71820Y-26371D02*
X72179Y-26012D01*
X71820Y-26484D02*
X71820Y-26371D01*
X71370Y-26484D02*
X71820Y-26484D01*
X71370Y-26484D02*
X70919Y-26484D01*
X55582Y-26934D02*
X55582Y-27372D01*
X40408Y-27547D02*
X39795Y-26934D01*
X53238Y-27547D02*
X40408Y-27547D01*
X53357Y-27666D02*
X53238Y-27547D01*
X55288Y-27666D02*
X53357Y-27666D01*
X55582Y-27372D02*
X55288Y-27666D01*
X69819Y-27584D02*
X70919Y-26484D01*
X55794Y-27584D02*
X69819Y-27584D01*
X55582Y-27372D02*
X55794Y-27584D01*
X65503Y-35039D02*
X65003Y-35539D01*
X66144Y-35039D02*
X65503Y-35039D01*
X66503Y-34680D02*
X66144Y-35039D01*
X66503Y-34389D02*
X66503Y-34680D01*
X66805Y-34088D02*
X66503Y-34389D01*
X68196Y-34088D02*
X66805Y-34088D01*
X68503Y-34395D02*
X68196Y-34088D01*
X68503Y-34701D02*
X68503Y-34395D01*
X68892Y-35089D02*
X68503Y-34701D01*
X69209Y-35089D02*
X68892Y-35089D01*
X69503Y-35383D02*
X69209Y-35089D01*
X69503Y-35678D02*
X69503Y-35383D01*
X70880Y-37054D02*
X69503Y-35678D01*
X93409Y-37054D02*
X70880Y-37054D01*
X94925Y-35539D02*
X93409Y-37054D01*
X41650Y-27338D02*
X53597Y-27338D01*
X40795Y-26484D02*
X41650Y-27338D01*
X57446Y-27347D02*
X56582Y-26484D01*
X61600Y-27347D02*
X57446Y-27347D01*
X61688Y-27259D02*
X61600Y-27347D01*
X85425Y-35039D02*
X85925Y-34539D01*
X75503Y-35039D02*
X85425Y-35039D01*
X75003Y-35539D02*
X75503Y-35039D01*
X74344Y-28459D02*
X72370Y-26484D01*
X77515Y-28459D02*
X74344Y-28459D01*
X71370Y-25484D02*
X72370Y-25484D01*
X61481Y-34061D02*
X61003Y-34539D01*
X62550Y-34061D02*
X61481Y-34061D01*
X64057Y-32555D02*
X62550Y-34061D01*
X70375Y-32555D02*
X64057Y-32555D01*
X70463Y-32466D02*
X70375Y-32555D01*
X87840Y-32466D02*
X70463Y-32466D01*
X88172Y-32135D02*
X87840Y-32466D01*
X88373Y-32336D02*
X91841Y-32336D01*
X88172Y-32135D02*
X88373Y-32336D01*
X64977Y-34513D02*
X65003Y-34539D01*
X64977Y-33532D02*
X64977Y-34513D01*
X65155Y-33355D02*
X64977Y-33532D01*
X70989Y-33355D02*
X65155Y-33355D01*
X71078Y-33267D02*
X70989Y-33355D01*
X100653Y-33267D02*
X71078Y-33267D01*
X101925Y-34539D02*
X100653Y-33267D01*
X32622Y-30814D02*
X41248Y-30814D01*
X31555Y-29747D02*
X32622Y-30814D01*
X41248Y-30814D02*
X41698Y-30814D01*
X57397Y-31547D02*
X57549Y-31699D01*
X52778Y-31547D02*
X57397Y-31547D01*
X52620Y-31705D02*
X52778Y-31547D01*
X42476Y-31705D02*
X52620Y-31705D01*
X41698Y-30927D02*
X42476Y-31705D01*
X41698Y-30814D02*
X41698Y-30927D01*
X62508Y-30568D02*
X68779Y-30568D01*
X61208Y-31868D02*
X62508Y-30568D01*
X57718Y-31868D02*
X61208Y-31868D01*
X57549Y-31699D02*
X57718Y-31868D01*
X89272Y-36192D02*
X89925Y-35539D01*
X74009Y-36192D02*
X89272Y-36192D01*
X73454Y-35637D02*
X74009Y-36192D01*
X73454Y-35352D02*
X73454Y-35637D01*
X73090Y-34989D02*
X73454Y-35352D01*
X72817Y-34989D02*
X73090Y-34989D01*
X72503Y-34675D02*
X72817Y-34989D01*
X72503Y-34394D02*
X72503Y-34675D01*
X71997Y-33887D02*
X72503Y-34394D01*
X69655Y-33887D02*
X71997Y-33887D01*
X69003Y-34539D02*
X69655Y-33887D01*
X104397Y-30814D02*
X103947Y-30814D01*
X103083Y-31678D02*
X89854Y-31678D01*
X103947Y-30814D02*
X103083Y-31678D01*
X95609Y-37855D02*
X97925Y-35539D01*
X69653Y-37855D02*
X95609Y-37855D01*
X68382Y-36584D02*
X69653Y-37855D01*
X65406Y-36584D02*
X68382Y-36584D01*
X65137Y-36853D02*
X65406Y-36584D01*
X47448Y-36853D02*
X65137Y-36853D01*
X46307Y-35712D02*
X47448Y-36853D01*
X46307Y-35402D02*
X46307Y-35712D01*
X45993Y-35089D02*
X46307Y-35402D01*
X45257Y-35089D02*
X45993Y-35089D01*
X44807Y-35539D02*
X45257Y-35089D01*
X102278Y-39186D02*
X105925Y-35539D01*
X54182Y-39186D02*
X102278Y-39186D01*
X54020Y-39024D02*
X54182Y-39186D01*
X55148Y-30579D02*
X51236Y-30579D01*
X55913Y-29814D02*
X55148Y-30579D01*
X57035Y-29814D02*
X55913Y-29814D01*
X84429Y-24095D02*
X85673Y-25339D01*
X75044Y-24095D02*
X84429Y-24095D01*
X73822Y-22874D02*
X75044Y-24095D01*
X38934Y-32412D02*
X36807Y-34539D01*
X61625Y-32412D02*
X38934Y-32412D01*
X63084Y-30954D02*
X61625Y-32412D01*
X69612Y-30954D02*
X63084Y-30954D01*
X70751Y-29814D02*
X69612Y-30954D01*
X72822Y-29814D02*
X70751Y-29814D01*
X91434Y-30283D02*
X94636Y-30283D01*
X91160Y-30009D02*
X91434Y-30283D01*
X91160Y-29703D02*
X91160Y-30009D01*
X90808Y-29351D02*
X91160Y-29703D01*
X89074Y-29351D02*
X90808Y-29351D01*
X88610Y-29814D02*
X89074Y-29351D01*
X43133Y-33212D02*
X41807Y-34539D01*
X61957Y-33212D02*
X43133Y-33212D01*
X63415Y-31754D02*
X61957Y-33212D01*
X70044Y-31754D02*
X63415Y-31754D01*
X70132Y-31666D02*
X70044Y-31754D01*
X76932Y-31666D02*
X70132Y-31666D01*
X77781Y-30816D02*
X76932Y-31666D01*
X84493Y-30816D02*
X77781Y-30816D01*
X85495Y-29814D02*
X84493Y-30816D01*
X88610Y-29814D02*
X85495Y-29814D01*
X47476Y-33869D02*
X46807Y-34539D01*
X57507Y-33869D02*
X47476Y-33869D01*
X58637Y-35000D02*
X57507Y-33869D01*
X63204Y-35000D02*
X58637Y-35000D01*
X63503Y-34700D02*
X63204Y-35000D01*
X63503Y-34383D02*
X63503Y-34700D01*
X64732Y-33155D02*
X63503Y-34383D01*
X70907Y-33155D02*
X64732Y-33155D01*
X70995Y-33067D02*
X70907Y-33155D01*
X103453Y-33067D02*
X70995Y-33067D01*
X104925Y-34539D02*
X103453Y-33067D01*
X58035Y-30814D02*
X58035Y-31266D01*
X41077Y-24572D02*
X41526Y-25021D01*
X33813Y-24572D02*
X41077Y-24572D01*
X33738Y-24647D02*
X33813Y-24572D01*
X29233Y-24647D02*
X33738Y-24647D01*
X27460Y-22874D02*
X29233Y-24647D01*
X57996Y-31305D02*
X58035Y-31266D01*
X51046Y-31305D02*
X57996Y-31305D01*
X50856Y-31495D02*
X51046Y-31305D01*
X42928Y-31495D02*
X50856Y-31495D01*
X42248Y-30814D02*
X42928Y-31495D01*
X68917Y-30243D02*
X69242Y-30568D01*
X62550Y-30243D02*
X68917Y-30243D01*
X61126Y-31668D02*
X62550Y-30243D01*
X58437Y-31668D02*
X61126Y-31668D01*
X58035Y-31266D02*
X58437Y-31668D01*
X70455Y-34087D02*
X70003Y-34539D01*
X71196Y-34087D02*
X70455Y-34087D01*
X71503Y-34394D02*
X71196Y-34087D01*
X71503Y-34680D02*
X71503Y-34394D01*
X71863Y-35039D02*
X71503Y-34680D01*
X72140Y-35039D02*
X71863Y-35039D01*
X72454Y-35352D02*
X72140Y-35039D01*
X72454Y-35638D02*
X72454Y-35352D01*
X73209Y-36393D02*
X72454Y-35638D01*
X90071Y-36393D02*
X73209Y-36393D01*
X90925Y-35539D02*
X90071Y-36393D01*
X104243Y-31969D02*
X105397Y-30814D01*
X91332Y-31969D02*
X104243Y-31969D01*
X91266Y-32035D02*
X91332Y-31969D01*
X89740Y-32035D02*
X91266Y-32035D01*
X89526Y-31821D02*
X89740Y-32035D01*
X89526Y-30898D02*
X89526Y-31821D01*
X89610Y-30814D02*
X89526Y-30898D01*
X96409Y-38055D02*
X98925Y-35539D01*
X69570Y-38055D02*
X96409Y-38055D01*
X68299Y-36784D02*
X69570Y-38055D01*
X65488Y-36784D02*
X68299Y-36784D01*
X65220Y-37053D02*
X65488Y-36784D01*
X47320Y-37053D02*
X65220Y-37053D01*
X45807Y-35539D02*
X47320Y-37053D01*
X57567Y-29347D02*
X58035Y-29814D01*
X55678Y-29347D02*
X57567Y-29347D01*
X55102Y-29923D02*
X55678Y-29347D01*
X89273Y-33887D02*
X89925Y-34539D01*
X83637Y-33887D02*
X89273Y-33887D01*
X83407Y-34117D02*
X83637Y-33887D01*
X83137Y-34117D02*
X83407Y-34117D01*
X82907Y-33887D02*
X83137Y-34117D01*
X76703Y-33887D02*
X82907Y-33887D01*
X76673Y-33917D02*
X76703Y-33887D01*
X76404Y-33917D02*
X76673Y-33917D01*
X76082Y-33595D02*
X76404Y-33917D01*
X72807Y-33595D02*
X76082Y-33595D01*
X39734Y-32612D02*
X37807Y-34539D01*
X61708Y-32612D02*
X39734Y-32612D01*
X63166Y-31154D02*
X61708Y-32612D01*
X69712Y-31154D02*
X63166Y-31154D01*
X70501Y-30364D02*
X69712Y-31154D01*
X73272Y-30364D02*
X70501Y-30364D01*
X73822Y-29814D02*
X73272Y-30364D01*
X97075Y-33689D02*
X92182Y-33689D01*
X97925Y-34539D02*
X97075Y-33689D01*
X43933Y-33412D02*
X42807Y-34539D01*
X62040Y-33412D02*
X43933Y-33412D01*
X63498Y-31954D02*
X62040Y-33412D01*
X70126Y-31954D02*
X63498Y-31954D01*
X70215Y-31866D02*
X70126Y-31954D01*
X77021Y-31866D02*
X70215Y-31866D01*
X77701Y-31186D02*
X77021Y-31866D01*
X86938Y-31186D02*
X77701Y-31186D01*
X87759Y-30364D02*
X86938Y-31186D01*
X89060Y-30364D02*
X87759Y-30364D01*
X89610Y-29814D02*
X89060Y-30364D01*
X57145Y-36199D02*
X57276Y-36068D01*
X50818Y-36199D02*
X57145Y-36199D01*
X50257Y-35638D02*
X50818Y-36199D01*
X50257Y-35352D02*
X50257Y-35638D01*
X49993Y-35089D02*
X50257Y-35352D01*
X48356Y-35089D02*
X49993Y-35089D01*
X47807Y-34539D02*
X48356Y-35089D01*
X90871Y-36593D02*
X91925Y-35539D01*
X72417Y-36593D02*
X90871Y-36593D01*
X71503Y-35680D02*
X72417Y-36593D01*
X71503Y-35039D02*
X71503Y-35680D01*
X71003Y-34539D02*
X71503Y-35039D01*
X74318Y-30310D02*
X74822Y-30814D01*
X74318Y-29669D02*
X74318Y-30310D01*
X74011Y-29362D02*
X74318Y-29669D01*
X69174Y-29362D02*
X74011Y-29362D01*
X68519Y-30018D02*
X69174Y-29362D01*
X62493Y-30018D02*
X68519Y-30018D01*
X61043Y-31468D02*
X62493Y-30018D01*
X59688Y-31468D02*
X61043Y-31468D01*
X59035Y-30814D02*
X59688Y-31468D01*
X43718Y-31285D02*
X43248Y-30814D01*
X45900Y-31285D02*
X43718Y-31285D01*
X46081Y-31105D02*
X45900Y-31285D01*
X56225Y-31105D02*
X46081Y-31105D01*
X56422Y-30908D02*
X56225Y-31105D01*
X32897Y-30287D02*
X31959Y-29349D01*
X42720Y-30287D02*
X32897Y-30287D01*
X43248Y-30814D02*
X42720Y-30287D01*
X91273Y-31478D02*
X90610Y-30814D01*
X100174Y-31478D02*
X91273Y-31478D01*
X101292Y-30359D02*
X100174Y-31478D01*
X105942Y-30359D02*
X101292Y-30359D01*
X106397Y-30814D02*
X105942Y-30359D01*
X97008Y-38455D02*
X99925Y-35539D01*
X69066Y-38455D02*
X97008Y-38455D01*
X67795Y-37184D02*
X69066Y-38455D01*
X65654Y-37184D02*
X67795Y-37184D01*
X65184Y-37655D02*
X65654Y-37184D01*
X48921Y-37655D02*
X65184Y-37655D01*
X54470Y-30092D02*
X54470Y-30240D01*
X55415Y-29147D02*
X54470Y-30092D01*
X58367Y-29147D02*
X55415Y-29147D01*
X59035Y-29814D02*
X58367Y-29147D01*
X75170Y-22221D02*
X75822Y-22874D01*
X70834Y-22221D02*
X75170Y-22221D01*
X70322Y-22733D02*
X70834Y-22221D01*
X70322Y-23022D02*
X70322Y-22733D01*
X69618Y-23725D02*
X70322Y-23022D01*
X63246Y-23725D02*
X69618Y-23725D01*
X62535Y-23014D02*
X63246Y-23725D01*
X62535Y-22719D02*
X62535Y-23014D01*
X62227Y-22410D02*
X62535Y-22719D01*
X55845Y-22410D02*
X62227Y-22410D01*
X55535Y-22721D02*
X55845Y-22410D01*
X55535Y-23022D02*
X55535Y-22721D01*
X55023Y-23534D02*
X55535Y-23022D01*
X46247Y-23534D02*
X55023Y-23534D01*
X45748Y-23035D02*
X46247Y-23534D01*
X45748Y-22729D02*
X45748Y-23035D01*
X45429Y-22411D02*
X45748Y-22729D01*
X39070Y-22411D02*
X45429Y-22411D01*
X38727Y-22754D02*
X39070Y-22411D01*
X38727Y-23233D02*
X38727Y-22754D01*
X74971Y-27166D02*
X74869Y-27269D01*
X88230Y-27166D02*
X74971Y-27166D01*
X88283Y-27113D02*
X88230Y-27166D01*
X93056Y-24320D02*
X93751Y-24320D01*
X91610Y-22874D02*
X93056Y-24320D01*
X43807Y-34276D02*
X43807Y-34539D01*
X44470Y-33612D02*
X43807Y-34276D01*
X62406Y-33612D02*
X44470Y-33612D01*
X63864Y-32154D02*
X62406Y-33612D01*
X70209Y-32154D02*
X63864Y-32154D01*
X70297Y-32066D02*
X70209Y-32154D01*
X77104Y-32066D02*
X70297Y-32066D01*
X77784Y-31386D02*
X77104Y-32066D01*
X88870Y-31386D02*
X77784Y-31386D01*
X89060Y-31196D02*
X88870Y-31386D01*
X89060Y-30713D02*
X89060Y-31196D01*
X89409Y-30364D02*
X89060Y-30713D01*
X90060Y-30364D02*
X89409Y-30364D01*
X90610Y-29814D02*
X90060Y-30364D01*
X54269Y-34088D02*
X54382Y-34201D01*
X49258Y-34088D02*
X54269Y-34088D01*
X48807Y-34539D02*
X49258Y-34088D01*
X60035Y-30733D02*
X60035Y-30814D01*
X60157Y-30610D02*
X60035Y-30733D01*
X43307Y-35039D02*
X42807Y-35539D01*
X43948Y-35039D02*
X43307Y-35039D01*
X44307Y-34680D02*
X43948Y-35039D01*
X44307Y-34235D02*
X44307Y-34680D01*
X44605Y-33938D02*
X44307Y-34235D01*
X44748Y-30314D02*
X44248Y-30814D01*
X50770Y-30314D02*
X44748Y-30314D01*
X50861Y-30223D02*
X50770Y-30314D01*
X52881Y-30223D02*
X50861Y-30223D01*
X54158Y-28947D02*
X52881Y-30223D01*
X58809Y-28947D02*
X54158Y-28947D01*
X59487Y-29624D02*
X58809Y-28947D01*
X59487Y-29939D02*
X59487Y-29624D01*
X60157Y-30610D02*
X59487Y-29939D01*
X60453Y-30314D02*
X60157Y-30610D01*
X61642Y-30314D02*
X60453Y-30314D01*
X62567Y-29390D02*
X61642Y-30314D01*
X68806Y-29390D02*
X62567Y-29390D01*
X69034Y-29162D02*
X68806Y-29390D01*
X74838Y-29162D02*
X69034Y-29162D01*
X75272Y-29597D02*
X74838Y-29162D01*
X75272Y-30265D02*
X75272Y-29597D01*
X75822Y-30814D02*
X75272Y-30265D01*
X30880Y-24293D02*
X29460Y-22874D01*
X32877Y-24293D02*
X30880Y-24293D01*
X92073Y-31278D02*
X91610Y-30814D01*
X99808Y-31278D02*
X92073Y-31278D01*
X101734Y-29352D02*
X99808Y-31278D01*
X105572Y-29352D02*
X101734Y-29352D01*
X105897Y-29677D02*
X105572Y-29352D01*
X105897Y-29955D02*
X105897Y-29677D01*
X106256Y-30314D02*
X105897Y-29955D01*
X106897Y-30314D02*
X106256Y-30314D01*
X107397Y-30814D02*
X106897Y-30314D01*
X97808Y-38655D02*
X100925Y-35539D01*
X68983Y-38655D02*
X97808Y-38655D01*
X67712Y-37384D02*
X68983Y-38655D01*
X65737Y-37384D02*
X67712Y-37384D01*
X64754Y-38368D02*
X65737Y-37384D01*
X49953Y-38368D02*
X64754Y-38368D01*
X54571Y-35187D02*
X54161Y-35597D01*
X57884Y-35187D02*
X54571Y-35187D01*
X52865Y-35597D02*
X52807Y-35539D01*
X54161Y-35597D02*
X52865Y-35597D01*
X77404Y-30439D02*
X82966Y-30439D01*
X77404Y-29748D02*
X77404Y-30439D01*
X77013Y-29357D02*
X77404Y-29748D01*
X76280Y-29357D02*
X77013Y-29357D01*
X75822Y-29814D02*
X76280Y-29357D01*
X91053Y-33667D02*
X91925Y-34539D01*
X83397Y-33667D02*
X91053Y-33667D01*
X83272Y-33792D02*
X83397Y-33667D01*
X40261Y-34993D02*
X39807Y-34539D01*
X40989Y-34993D02*
X40261Y-34993D01*
X41307Y-34675D02*
X40989Y-34993D01*
X41307Y-34398D02*
X41307Y-34675D01*
X42692Y-33012D02*
X41307Y-34398D01*
X61874Y-33012D02*
X42692Y-33012D01*
X63332Y-31554D02*
X61874Y-33012D01*
X69961Y-31554D02*
X63332Y-31554D01*
X70049Y-31466D02*
X69961Y-31554D01*
X76808Y-31466D02*
X70049Y-31466D01*
X77404Y-30869D02*
X76808Y-31466D01*
X77404Y-30439D02*
X77404Y-30869D01*
X92065Y-29359D02*
X94745Y-29359D01*
X91610Y-29814D02*
X92065Y-29359D01*
X99475Y-34989D02*
X99925Y-34539D01*
X99475Y-35652D02*
X99475Y-34989D01*
X96871Y-38255D02*
X99475Y-35652D01*
X69487Y-38255D02*
X96871Y-38255D01*
X68216Y-36984D02*
X69487Y-38255D01*
X65571Y-36984D02*
X68216Y-36984D01*
X65289Y-37267D02*
X65571Y-36984D01*
X45878Y-37267D02*
X65289Y-37267D01*
X44353Y-35742D02*
X45878Y-37267D01*
X44353Y-34992D02*
X44353Y-35742D01*
X44807Y-34539D02*
X44353Y-34992D01*
X54677Y-35997D02*
X54836Y-35838D01*
X52628Y-35997D02*
X54677Y-35997D01*
X52282Y-35651D02*
X52628Y-35997D01*
X52282Y-35371D02*
X52282Y-35651D01*
X51900Y-34989D02*
X52282Y-35371D01*
X50257Y-34989D02*
X51900Y-34989D01*
X49807Y-34539D02*
X50257Y-34989D01*
X45337Y-30904D02*
X45248Y-30814D01*
X55273Y-30904D02*
X45337Y-30904D01*
X55813Y-30364D02*
X55273Y-30904D01*
X59239Y-30364D02*
X55813Y-30364D01*
X59485Y-30610D02*
X59239Y-30364D01*
X59485Y-30906D02*
X59485Y-30610D01*
X59844Y-31265D02*
X59485Y-30906D01*
X60585Y-31265D02*
X59844Y-31265D01*
X61035Y-30814D02*
X60585Y-31265D01*
X99641Y-30814D02*
X92610Y-30814D01*
X101304Y-29152D02*
X99641Y-30814D01*
X106385Y-29152D02*
X101304Y-29152D01*
X106897Y-29664D02*
X106385Y-29152D01*
X106897Y-29956D02*
X106897Y-29664D01*
X107306Y-30364D02*
X106897Y-29956D01*
X107947Y-30364D02*
X107306Y-30364D01*
X108397Y-30814D02*
X107947Y-30364D01*
X72359Y-33680D02*
X65304Y-33680D01*
X72767Y-34087D02*
X72359Y-33680D01*
X73003Y-34087D02*
X72767Y-34087D01*
X73003Y-34539D02*
X73003Y-34087D01*
X93375Y-34989D02*
X93925Y-35539D01*
X89738Y-34989D02*
X93375Y-34989D01*
X89425Y-34675D02*
X89738Y-34989D01*
X89425Y-34366D02*
X89425Y-34675D01*
X89146Y-34087D02*
X89425Y-34366D01*
X83719Y-34087D02*
X89146Y-34087D01*
X83489Y-34317D02*
X83719Y-34087D01*
X83054Y-34317D02*
X83489Y-34317D01*
X82824Y-34087D02*
X83054Y-34317D01*
X76786Y-34087D02*
X82824Y-34087D01*
X76756Y-34117D02*
X76786Y-34087D01*
X76321Y-34117D02*
X76756Y-34117D01*
X76291Y-34087D02*
X76321Y-34117D01*
X73003Y-34087D02*
X76291Y-34087D01*
X51907Y-38699D02*
X51845Y-38760D01*
X64989Y-38699D02*
X51907Y-38699D01*
X66103Y-37584D02*
X64989Y-38699D01*
X67529Y-37584D02*
X66103Y-37584D01*
X68805Y-38861D02*
X67529Y-37584D01*
X98603Y-38861D02*
X68805Y-38861D01*
X101925Y-35539D02*
X98603Y-38861D01*
X110378Y-35993D02*
X109925Y-35539D01*
X113118Y-35993D02*
X110378Y-35993D01*
X113615Y-35495D02*
X113118Y-35993D01*
X113615Y-28574D02*
X113615Y-35495D01*
X108366Y-23324D02*
X113615Y-28574D01*
X105170Y-23324D02*
X108366Y-23324D01*
X104897Y-23050D02*
X105170Y-23324D01*
X104897Y-22706D02*
X104897Y-23050D01*
X104608Y-22416D02*
X104897Y-22706D01*
X104199Y-22416D02*
X104608Y-22416D01*
X103897Y-22718D02*
X104199Y-22416D01*
X103897Y-23020D02*
X103897Y-22718D01*
X103376Y-23541D02*
X103897Y-23020D01*
X92608Y-23541D02*
X103376Y-23541D01*
X92110Y-23043D02*
X92608Y-23541D01*
X92110Y-22709D02*
X92110Y-23043D01*
X91606Y-22205D02*
X92110Y-22709D01*
X86642Y-22205D02*
X91606Y-22205D01*
X86060Y-22787D02*
X86642Y-22205D01*
X86060Y-23060D02*
X86060Y-22787D01*
X85383Y-23737D02*
X86060Y-23060D01*
X75014Y-23737D02*
X85383Y-23737D01*
X74322Y-23045D02*
X75014Y-23737D01*
X74322Y-22726D02*
X74322Y-23045D01*
X74018Y-22422D02*
X74322Y-22726D01*
X71619Y-22422D02*
X74018Y-22422D01*
X71322Y-22718D02*
X71619Y-22422D01*
X71322Y-23013D02*
X71322Y-22718D01*
X70408Y-23928D02*
X71322Y-23013D01*
X63089Y-23928D02*
X70408Y-23928D01*
X62035Y-22874D02*
X63089Y-23928D01*
X38134Y-32212D02*
X35807Y-34539D01*
X61324Y-32212D02*
X38134Y-32212D01*
X62115Y-31421D02*
X61324Y-32212D01*
X92561Y-34539D02*
X92925Y-34539D01*
X91489Y-33467D02*
X92561Y-34539D01*
X76664Y-33467D02*
X91489Y-33467D01*
X76539Y-33592D02*
X76664Y-33467D01*
X42533Y-32812D02*
X40807Y-34539D01*
X61791Y-32812D02*
X42533Y-32812D01*
X63249Y-31354D02*
X61791Y-32812D01*
X69878Y-31354D02*
X63249Y-31354D01*
X69966Y-31266D02*
X69878Y-31354D01*
X76011Y-31266D02*
X69966Y-31266D01*
X76285Y-30992D02*
X76011Y-31266D01*
X76285Y-30352D02*
X76285Y-30992D01*
X76822Y-29814D02*
X76285Y-30352D01*
X100457Y-34071D02*
X100925Y-34539D01*
X98753Y-34071D02*
X100457Y-34071D01*
X98425Y-34400D02*
X98753Y-34071D01*
X98425Y-34696D02*
X98425Y-34400D01*
X98044Y-35077D02*
X98425Y-34696D01*
X97743Y-35077D02*
X98044Y-35077D01*
X97475Y-35346D02*
X97743Y-35077D01*
X97475Y-35654D02*
X97475Y-35346D01*
X95473Y-37655D02*
X97475Y-35654D01*
X69736Y-37655D02*
X95473Y-37655D01*
X68465Y-36384D02*
X69736Y-37655D01*
X65323Y-36384D02*
X68465Y-36384D01*
X65054Y-36652D02*
X65323Y-36384D01*
X49271Y-36652D02*
X65054Y-36652D01*
X48257Y-35639D02*
X49271Y-36652D01*
X48257Y-35352D02*
X48257Y-35639D01*
X47993Y-35089D02*
X48257Y-35352D01*
X46356Y-35089D02*
X47993Y-35089D01*
X45807Y-34539D02*
X46356Y-35089D01*
X93513Y-26371D02*
X93513Y-26484D01*
X93850Y-26034D02*
X93513Y-26371D01*
X107950Y-26034D02*
X93850Y-26034D01*
X108400Y-26484D02*
X107950Y-26034D01*
X108850Y-26484D02*
X108400Y-26484D01*
X93062Y-26484D02*
X93513Y-26484D01*
X45475Y-26484D02*
X45250Y-26484D01*
X93062Y-26484D02*
X92612Y-26484D01*
X45700Y-26484D02*
X45475Y-26484D01*
X45700Y-26484D02*
X46150Y-26484D01*
X61474Y-26484D02*
X61038Y-26484D01*
X77275Y-26484D02*
X77725Y-26484D01*
X92612Y-26343D02*
X92612Y-26484D01*
X91195Y-24926D02*
X92612Y-26343D01*
X89990Y-24926D02*
X91195Y-24926D01*
X88110Y-23045D02*
X89990Y-24926D01*
X88110Y-22727D02*
X88110Y-23045D01*
X87806Y-22423D02*
X88110Y-22727D01*
X87417Y-22423D02*
X87806Y-22423D01*
X87110Y-22731D02*
X87417Y-22423D01*
X87110Y-24362D02*
X87110Y-22731D01*
X85439Y-26034D02*
X87110Y-24362D01*
X85439Y-26034D02*
X85439Y-26034D01*
X78063Y-26034D02*
X85439Y-26034D01*
X77725Y-26371D02*
X78063Y-26034D01*
X77725Y-26484D02*
X77725Y-26371D01*
X44800Y-26034D02*
X45250Y-26484D01*
X41984Y-26034D02*
X44800Y-26034D01*
X40859Y-24909D02*
X41984Y-26034D01*
X38379Y-24909D02*
X40859Y-24909D01*
X27495Y-24909D02*
X38379Y-24909D01*
X25460Y-22874D02*
X27495Y-24909D01*
X46150Y-26371D02*
X46150Y-26484D01*
X46488Y-26034D02*
X46150Y-26371D01*
X48510Y-26034D02*
X46488Y-26034D01*
X49512Y-25032D02*
X48510Y-26034D01*
X57066Y-25032D02*
X49512Y-25032D01*
X58068Y-26034D02*
X57066Y-25032D01*
X58908Y-26034D02*
X58068Y-26034D01*
X58985Y-26111D02*
X58908Y-26034D01*
X58985Y-26601D02*
X58985Y-26111D01*
X59318Y-26934D02*
X58985Y-26601D01*
X60019Y-26934D02*
X59318Y-26934D01*
X60469Y-26484D02*
X60019Y-26934D01*
X61038Y-26484D02*
X60469Y-26484D01*
X61474Y-26484D02*
X61488Y-26484D01*
X76375Y-26034D02*
X76825Y-26484D01*
X73954Y-26034D02*
X76375Y-26034D01*
X72709Y-24789D02*
X73954Y-26034D01*
X66457Y-24789D02*
X72709Y-24789D01*
X65263Y-25984D02*
X66457Y-24789D01*
X62348Y-25984D02*
X65263Y-25984D01*
X61938Y-26394D02*
X62348Y-25984D01*
X61938Y-26484D02*
X61938Y-26394D01*
X61488Y-26484D02*
X61938Y-26484D01*
X77275Y-26484D02*
X76825Y-26484D01*
X68389Y-36025D02*
X67003Y-36025D01*
X69818Y-37455D02*
X68389Y-36025D01*
X95009Y-37455D02*
X69818Y-37455D01*
X96925Y-35539D02*
X95009Y-37455D01*
X67003Y-36025D02*
X67003Y-35539D01*
X50008Y-36414D02*
X49921Y-36327D01*
X58060Y-36414D02*
X50008Y-36414D01*
X58449Y-36025D02*
X58060Y-36414D01*
X67003Y-36025D02*
X58449Y-36025D01*
X46700Y-25484D02*
X45700Y-25484D01*
X42903Y-24529D02*
X41248Y-22874D01*
X44745Y-24529D02*
X42903Y-24529D01*
X45700Y-25484D02*
X44745Y-24529D01*
X93208Y-36793D02*
X93273Y-36728D01*
X72258Y-36793D02*
X93208Y-36793D01*
X71003Y-35539D02*
X72258Y-36793D01*
X62488Y-25484D02*
X61488Y-25484D01*
X60806Y-24802D02*
X61488Y-25484D01*
X58964Y-24802D02*
X60806Y-24802D01*
X57035Y-22874D02*
X58964Y-24802D01*
X78275Y-25484D02*
X77275Y-25484D01*
X76609Y-24818D02*
X77275Y-25484D01*
X74766Y-24818D02*
X76609Y-24818D01*
X72822Y-22874D02*
X74766Y-24818D01*
X64588Y-32955D02*
X63003Y-34539D01*
X70824Y-32955D02*
X64588Y-32955D01*
X70912Y-32867D02*
X70824Y-32955D01*
X93862Y-32867D02*
X70912Y-32867D01*
X94062Y-32666D02*
X93862Y-32867D01*
X94062Y-25484D02*
X93062Y-25484D01*
X91303Y-23724D02*
X93062Y-25484D01*
X89460Y-23724D02*
X91303Y-23724D01*
X88610Y-22874D02*
X89460Y-23724D01*
X104388Y-35003D02*
X103925Y-34539D01*
X113126Y-35003D02*
X104388Y-35003D01*
X113389Y-34740D02*
X113126Y-35003D01*
X113389Y-30023D02*
X113389Y-34740D01*
X109850Y-26484D02*
X113389Y-30023D01*
X109850Y-25484D02*
X108850Y-25484D01*
X107136Y-23770D02*
X108850Y-25484D01*
X105293Y-23770D02*
X107136Y-23770D01*
X104397Y-22874D02*
X105293Y-23770D01*
X40245Y-26751D02*
X40433Y-26939D01*
X40245Y-26111D02*
X40245Y-26751D01*
X27620Y-26034D02*
X24460Y-22874D01*
X40168Y-26034D02*
X27620Y-26034D01*
X40245Y-26111D02*
X40168Y-26034D01*
X41495Y-26484D02*
X42748Y-26484D01*
X41041Y-26030D02*
X41495Y-26484D01*
X40326Y-26030D02*
X41041Y-26030D01*
X40245Y-26111D02*
X40326Y-26030D01*
X57635Y-26034D02*
X58085Y-26484D01*
X53760Y-26034D02*
X57635Y-26034D01*
X52658Y-27136D02*
X53760Y-26034D01*
X43738Y-27136D02*
X52658Y-27136D01*
X43198Y-26596D02*
X43738Y-27136D01*
X43198Y-26484D02*
X43198Y-26596D01*
X42748Y-26484D02*
X43198Y-26484D01*
X58310Y-26484D02*
X58085Y-26484D01*
X90762Y-27136D02*
X90110Y-26484D01*
X104795Y-27136D02*
X90762Y-27136D01*
X105447Y-26484D02*
X104795Y-27136D01*
X105897Y-26484D02*
X105447Y-26484D01*
X90110Y-26484D02*
X89660Y-26484D01*
X88652Y-27491D02*
X87411Y-27491D01*
X89660Y-26484D02*
X88652Y-27491D01*
X87298Y-27604D02*
X74338Y-27604D01*
X87411Y-27491D02*
X87298Y-27604D01*
X74322Y-26484D02*
X73872Y-26484D01*
X58535Y-26484D02*
X58310Y-26484D01*
X59197Y-27146D02*
X58535Y-26484D01*
X60089Y-27146D02*
X59197Y-27146D01*
X60301Y-26934D02*
X60089Y-27146D01*
X66985Y-26934D02*
X60301Y-26934D01*
X68900Y-25018D02*
X66985Y-26934D01*
X72574Y-25018D02*
X68900Y-25018D01*
X73872Y-26317D02*
X72574Y-25018D01*
X73872Y-26484D02*
X73872Y-26317D01*
X94209Y-37255D02*
X95925Y-35539D01*
X70055Y-37255D02*
X94209Y-37255D01*
X68454Y-35653D02*
X70055Y-37255D01*
X68454Y-35352D02*
X68454Y-35653D01*
X68179Y-35078D02*
X68454Y-35352D01*
X66464Y-35078D02*
X68179Y-35078D01*
X66003Y-35539D02*
X66464Y-35078D01*
X52399Y-26934D02*
X52523Y-26810D01*
X44198Y-26934D02*
X52399Y-26934D01*
X43748Y-26484D02*
X44198Y-26934D01*
X42748Y-25484D02*
X43748Y-25484D01*
X40248Y-22984D02*
X42748Y-25484D01*
X40248Y-22874D02*
X40248Y-22984D01*
X61768Y-26034D02*
X61903Y-25899D01*
X59985Y-26034D02*
X61768Y-26034D01*
X59535Y-26484D02*
X59985Y-26034D01*
X59535Y-25484D02*
X58535Y-25484D01*
X58535Y-25374D02*
X58535Y-25484D01*
X56035Y-22874D02*
X58535Y-25374D01*
X74454Y-35989D02*
X74003Y-35539D01*
X85145Y-35989D02*
X74454Y-35989D01*
X85390Y-35744D02*
X85145Y-35989D01*
X85390Y-35421D02*
X85390Y-35744D01*
X85742Y-35069D02*
X85390Y-35421D01*
X86395Y-35069D02*
X85742Y-35069D01*
X86925Y-34539D02*
X86395Y-35069D01*
X74322Y-25374D02*
X74322Y-25484D01*
X71822Y-22874D02*
X74322Y-25374D01*
X74322Y-25484D02*
X75322Y-25484D01*
X62361Y-34539D02*
X62003Y-34539D01*
X64145Y-32755D02*
X62361Y-34539D01*
X70741Y-32755D02*
X64145Y-32755D01*
X70829Y-32666D02*
X70741Y-32755D01*
X92726Y-32666D02*
X70829Y-32666D01*
X93075Y-32318D02*
X92726Y-32666D01*
X90110Y-25484D02*
X91110Y-25484D01*
X90110Y-25374D02*
X90110Y-25484D01*
X87610Y-22874D02*
X90110Y-25374D01*
X106897Y-25484D02*
X105897Y-25484D01*
X64487Y-23325D02*
X64035Y-22874D01*
X69008Y-23325D02*
X64487Y-23325D01*
X69322Y-23011D02*
X69008Y-23325D01*
X69322Y-22725D02*
X69322Y-23011D01*
X70227Y-21820D02*
X69322Y-22725D01*
X78769Y-21820D02*
X70227Y-21820D01*
X79822Y-22874D02*
X78769Y-21820D01*
X96267Y-22216D02*
X95610Y-22874D01*
X110740Y-22216D02*
X96267Y-22216D01*
X111397Y-22874D02*
X110740Y-22216D01*
X80285Y-23336D02*
X79822Y-22874D01*
X84817Y-23336D02*
X80285Y-23336D01*
X85110Y-23044D02*
X84817Y-23336D01*
X85110Y-22716D02*
X85110Y-23044D01*
X86031Y-21795D02*
X85110Y-22716D01*
X94531Y-21795D02*
X86031Y-21795D01*
X95610Y-22874D02*
X94531Y-21795D01*
X49116Y-22005D02*
X48248Y-22874D01*
X63166Y-22005D02*
X49116Y-22005D01*
X64035Y-22874D02*
X63166Y-22005D01*
X33338Y-21995D02*
X32460Y-22874D01*
X47369Y-21995D02*
X33338Y-21995D01*
X48248Y-22874D02*
X47369Y-21995D01*
X36334Y-32012D02*
X33807Y-34539D01*
X56219Y-32012D02*
X36334Y-32012D01*
X56348Y-31883D02*
X56219Y-32012D01*
X20828Y-28580D02*
X20900Y-28509D01*
X20828Y-34432D02*
X20828Y-28580D01*
X21501Y-35105D02*
X20828Y-34432D01*
X33241Y-35105D02*
X21501Y-35105D01*
X33807Y-34539D02*
X33241Y-35105D01*
X20900Y-28059D02*
X20900Y-28509D01*
X59730Y-33813D02*
X59003Y-34539D01*
X62503Y-33813D02*
X59730Y-33813D01*
X63961Y-32354D02*
X62503Y-33813D01*
X70292Y-32354D02*
X63961Y-32354D01*
X70380Y-32266D02*
X70292Y-32354D01*
X81891Y-32266D02*
X70380Y-32266D01*
X82029Y-32127D02*
X81891Y-32266D01*
X25904Y-27145D02*
X25635Y-27145D01*
X22813Y-27145D02*
X21900Y-28059D01*
X25635Y-27145D02*
X22813Y-27145D01*
X70676Y-22020D02*
X69822Y-22874D01*
X78640Y-22020D02*
X70676Y-22020D01*
X79322Y-22702D02*
X78640Y-22020D01*
X79322Y-23023D02*
X79322Y-22702D01*
X79836Y-23536D02*
X79322Y-23023D01*
X84947Y-23536D02*
X79836Y-23536D01*
X85610Y-22874D02*
X84947Y-23536D01*
X69170Y-23525D02*
X69822Y-22874D01*
X64027Y-23525D02*
X69170Y-23525D01*
X63535Y-23033D02*
X64027Y-23525D01*
X63535Y-22731D02*
X63535Y-23033D01*
X63013Y-22209D02*
X63535Y-22731D01*
X54700Y-22209D02*
X63013Y-22209D01*
X54035Y-22874D02*
X54700Y-22209D01*
X100930Y-23340D02*
X101397Y-22874D01*
X95432Y-23340D02*
X100930Y-23340D01*
X95110Y-23018D02*
X95432Y-23340D01*
X95110Y-22731D02*
X95110Y-23018D01*
X94383Y-22005D02*
X95110Y-22731D01*
X86479Y-22005D02*
X94383Y-22005D01*
X85610Y-22874D02*
X86479Y-22005D01*
X38923Y-22198D02*
X38248Y-22874D01*
X47214Y-22198D02*
X38923Y-22198D01*
X47748Y-22731D02*
X47214Y-22198D01*
X47748Y-23017D02*
X47748Y-22731D01*
X48058Y-23327D02*
X47748Y-23017D01*
X53581Y-23327D02*
X48058Y-23327D01*
X54035Y-22874D02*
X53581Y-23327D01*
X22923Y-22411D02*
X22460Y-22874D01*
X31653Y-22411D02*
X22923Y-22411D01*
X31960Y-22718D02*
X31653Y-22411D01*
X31960Y-23013D02*
X31960Y-22718D01*
X32278Y-23331D02*
X31960Y-23013D01*
X37790Y-23331D02*
X32278Y-23331D01*
X38248Y-22874D02*
X37790Y-23331D01*
G54D20*
X77003Y-35539D02*
X78003Y-35539D01*
X28120Y-27140D02*
X28120Y-27640D01*
X25766Y-27894D02*
X25766Y-27894D01*
X25710Y-27894D02*
X25766Y-27894D01*
X25021Y-28582D02*
X25710Y-27894D01*
X26160Y-27894D02*
X25766Y-27894D01*
X27866Y-27894D02*
X26553Y-27894D01*
X28120Y-27640D02*
X27866Y-27894D01*
X26160Y-27894D02*
X26553Y-27894D01*
X112925Y-35539D02*
X111925Y-35539D01*
X34939Y-27640D02*
X28120Y-27640D01*
X36039Y-28740D02*
X34939Y-27640D01*
X98650Y-29515D02*
X99425Y-28740D01*
X96295Y-29515D02*
X98650Y-29515D01*
X95520Y-28740D02*
X96295Y-29515D01*
X84070Y-28740D02*
X95520Y-28740D01*
X108603Y-28740D02*
X108830Y-28967D01*
X99425Y-28740D02*
X108603Y-28740D01*
X51405Y-27965D02*
X52181Y-28740D01*
X36814Y-27965D02*
X51405Y-27965D01*
X36039Y-28740D02*
X36814Y-27965D01*
X67148Y-27959D02*
X67929Y-28740D01*
X61992Y-27959D02*
X67148Y-27959D01*
X61899Y-28053D02*
X61992Y-27959D01*
X52868Y-28053D02*
X61899Y-28053D01*
X52181Y-28740D02*
X52868Y-28053D01*
X83295Y-29515D02*
X84070Y-28740D01*
X77935Y-29515D02*
X83295Y-29515D01*
X77233Y-28813D02*
X77935Y-29515D01*
X68002Y-28813D02*
X77233Y-28813D01*
X67929Y-28740D02*
X68002Y-28813D01*
M02*
