G04 (created by PCBNEW (2013-mar-13)-testing) date Tue 12 Nov 2013 05:44:31 PM PST*
%MOIN*%
G04 Gerber Fmt 3.4, Leading zero omitted, Abs format*
%FSLAX34Y34*%
G01*
G70*
G90*
G04 APERTURE LIST*
%ADD10C,0.005906*%
%ADD11C,0.100000*%
%ADD12R,0.060000X0.060000*%
%ADD13C,0.060000*%
%ADD14C,0.200000*%
%ADD15C,0.181100*%
%ADD16C,0.130000*%
%ADD17C,0.035000*%
%ADD18C,0.035000*%
%ADD19C,0.010000*%
G04 APERTURE END LIST*
G54D10*
G54D11*
X34039Y-28740D03*
X36039Y-28740D03*
X50181Y-28740D03*
X52181Y-28740D03*
X65929Y-28740D03*
X67929Y-28740D03*
X82070Y-28740D03*
X84070Y-28740D03*
X97425Y-28740D03*
X99425Y-28740D03*
G54D12*
X39795Y-26484D03*
G54D13*
X39795Y-25484D03*
X40795Y-26484D03*
X40795Y-25484D03*
G54D12*
X55582Y-26484D03*
G54D13*
X55582Y-25484D03*
X56582Y-26484D03*
X56582Y-25484D03*
G54D12*
X71370Y-26484D03*
G54D13*
X71370Y-25484D03*
X72370Y-26484D03*
X72370Y-25484D03*
G54D12*
X87157Y-26484D03*
G54D13*
X87157Y-25484D03*
X88157Y-26484D03*
X88157Y-25484D03*
G54D12*
X102944Y-26484D03*
G54D13*
X102944Y-25484D03*
X103944Y-26484D03*
X103944Y-25484D03*
G54D12*
X42748Y-26484D03*
G54D13*
X42748Y-25484D03*
X43748Y-26484D03*
X43748Y-25484D03*
G54D12*
X58535Y-26484D03*
G54D13*
X58535Y-25484D03*
X59535Y-26484D03*
X59535Y-25484D03*
G54D12*
X74322Y-26484D03*
G54D13*
X74322Y-25484D03*
X75322Y-26484D03*
X75322Y-25484D03*
G54D12*
X90110Y-26484D03*
G54D13*
X90110Y-25484D03*
X91110Y-26484D03*
X91110Y-25484D03*
G54D12*
X105897Y-26484D03*
G54D13*
X105897Y-25484D03*
X106897Y-26484D03*
X106897Y-25484D03*
G54D12*
X45700Y-26484D03*
G54D13*
X45700Y-25484D03*
X46700Y-26484D03*
X46700Y-25484D03*
G54D12*
X61488Y-26484D03*
G54D13*
X61488Y-25484D03*
X62488Y-26484D03*
X62488Y-25484D03*
G54D12*
X77275Y-26484D03*
G54D13*
X77275Y-25484D03*
X78275Y-26484D03*
X78275Y-25484D03*
G54D12*
X93062Y-26484D03*
G54D13*
X93062Y-25484D03*
X94062Y-26484D03*
X94062Y-25484D03*
G54D12*
X108850Y-26484D03*
G54D13*
X108850Y-25484D03*
X109850Y-26484D03*
X109850Y-25484D03*
G54D12*
X33807Y-35539D03*
G54D13*
X33807Y-34539D03*
X38807Y-35539D03*
X34807Y-34539D03*
X39807Y-35539D03*
X35807Y-34539D03*
X40807Y-35539D03*
X36807Y-34539D03*
X41807Y-35539D03*
X37807Y-34539D03*
X42807Y-35539D03*
X38807Y-34539D03*
X43807Y-35539D03*
X39807Y-34539D03*
X44807Y-35539D03*
X40807Y-34539D03*
X45807Y-35539D03*
X41807Y-34539D03*
X46807Y-35539D03*
X42807Y-34539D03*
X47807Y-35539D03*
X43807Y-34539D03*
X48807Y-35539D03*
X44807Y-34539D03*
X45807Y-34539D03*
X49807Y-35539D03*
X46807Y-34539D03*
X48807Y-34539D03*
X49807Y-34539D03*
X50807Y-34539D03*
X51807Y-34539D03*
X50807Y-35539D03*
X51807Y-35539D03*
X34807Y-35539D03*
X35807Y-35539D03*
X36807Y-35539D03*
X37807Y-35539D03*
X52807Y-35539D03*
X52807Y-34539D03*
X47807Y-34539D03*
G54D12*
X83925Y-35539D03*
G54D13*
X83925Y-34539D03*
X88925Y-35539D03*
X84925Y-34539D03*
X89925Y-35539D03*
X85925Y-34539D03*
X90925Y-35539D03*
X86925Y-34539D03*
X91925Y-35539D03*
X87925Y-34539D03*
X92925Y-35539D03*
X88925Y-34539D03*
X93925Y-35539D03*
X89925Y-34539D03*
X94925Y-35539D03*
X90925Y-34539D03*
X95925Y-35539D03*
X91925Y-34539D03*
X96925Y-35539D03*
X92925Y-34539D03*
X97925Y-35539D03*
X93925Y-34539D03*
X98925Y-35539D03*
X94925Y-34539D03*
X95925Y-34539D03*
X99925Y-35539D03*
X96925Y-34539D03*
X98925Y-34539D03*
X99925Y-34539D03*
X100925Y-34539D03*
X101925Y-34539D03*
X100925Y-35539D03*
X101925Y-35539D03*
X84925Y-35539D03*
X85925Y-35539D03*
X86925Y-35539D03*
X87925Y-35539D03*
X102925Y-35539D03*
X102925Y-34539D03*
X97925Y-34539D03*
X103925Y-35539D03*
X103925Y-34539D03*
X104925Y-35539D03*
X104925Y-34539D03*
X105925Y-35539D03*
X105925Y-34539D03*
X106925Y-35539D03*
X106925Y-34539D03*
X107925Y-35539D03*
X107925Y-34539D03*
X108925Y-35539D03*
X108925Y-34539D03*
X109925Y-35539D03*
X109925Y-34539D03*
X110925Y-35539D03*
X110925Y-34539D03*
X111925Y-35539D03*
X111925Y-34539D03*
X112925Y-35539D03*
X112925Y-34539D03*
G54D14*
X21980Y-33937D03*
G54D15*
X21980Y-36299D03*
G54D12*
X20460Y-22874D03*
G54D13*
X21460Y-22874D03*
X22460Y-22874D03*
X23460Y-22874D03*
X24460Y-22874D03*
X25460Y-22874D03*
X26460Y-22874D03*
X27460Y-22874D03*
X28460Y-22874D03*
X29460Y-22874D03*
X30460Y-22874D03*
X31460Y-22874D03*
X32460Y-22874D03*
X33460Y-22874D03*
X34460Y-22874D03*
G54D12*
X36248Y-22874D03*
G54D13*
X37248Y-22874D03*
X38248Y-22874D03*
X39248Y-22874D03*
X40248Y-22874D03*
X41248Y-22874D03*
X42248Y-22874D03*
X43248Y-22874D03*
X44248Y-22874D03*
X45248Y-22874D03*
X46248Y-22874D03*
X47248Y-22874D03*
X48248Y-22874D03*
X49248Y-22874D03*
X50248Y-22874D03*
G54D12*
X52035Y-22874D03*
G54D13*
X53035Y-22874D03*
X54035Y-22874D03*
X55035Y-22874D03*
X56035Y-22874D03*
X57035Y-22874D03*
X58035Y-22874D03*
X59035Y-22874D03*
X60035Y-22874D03*
X61035Y-22874D03*
X62035Y-22874D03*
X63035Y-22874D03*
X64035Y-22874D03*
X65035Y-22874D03*
X66035Y-22874D03*
G54D12*
X67822Y-22874D03*
G54D13*
X68822Y-22874D03*
X69822Y-22874D03*
X70822Y-22874D03*
X71822Y-22874D03*
X72822Y-22874D03*
X73822Y-22874D03*
X74822Y-22874D03*
X75822Y-22874D03*
X76822Y-22874D03*
X77822Y-22874D03*
X78822Y-22874D03*
X79822Y-22874D03*
X80822Y-22874D03*
X81822Y-22874D03*
G54D12*
X83610Y-22874D03*
G54D13*
X84610Y-22874D03*
X85610Y-22874D03*
X86610Y-22874D03*
X87610Y-22874D03*
X88610Y-22874D03*
X89610Y-22874D03*
X90610Y-22874D03*
X91610Y-22874D03*
X92610Y-22874D03*
X93610Y-22874D03*
X94610Y-22874D03*
X95610Y-22874D03*
X96610Y-22874D03*
X97610Y-22874D03*
G54D12*
X99397Y-22874D03*
G54D13*
X100397Y-22874D03*
X101397Y-22874D03*
X102397Y-22874D03*
X103397Y-22874D03*
X104397Y-22874D03*
X105397Y-22874D03*
X106397Y-22874D03*
X107397Y-22874D03*
X108397Y-22874D03*
X109397Y-22874D03*
X110397Y-22874D03*
X111397Y-22874D03*
X112397Y-22874D03*
X113397Y-22874D03*
G54D16*
X117125Y-25590D03*
X16732Y-38385D03*
X117125Y-38385D03*
X66929Y-25590D03*
X66929Y-38385D03*
X16732Y-25590D03*
G54D12*
X20900Y-28059D03*
G54D13*
X20900Y-27059D03*
X21900Y-28059D03*
X21900Y-27059D03*
G54D14*
X27500Y-33937D03*
G54D15*
X27500Y-36299D03*
G54D12*
X41248Y-30814D03*
G54D13*
X41248Y-29814D03*
X42248Y-30814D03*
X42248Y-29814D03*
X43248Y-30814D03*
X43248Y-29814D03*
X44248Y-30814D03*
X44248Y-29814D03*
X45248Y-30814D03*
X45248Y-29814D03*
G54D12*
X57035Y-30814D03*
G54D13*
X57035Y-29814D03*
X58035Y-30814D03*
X58035Y-29814D03*
X59035Y-30814D03*
X59035Y-29814D03*
X60035Y-30814D03*
X60035Y-29814D03*
X61035Y-30814D03*
X61035Y-29814D03*
G54D12*
X72822Y-30814D03*
G54D13*
X72822Y-29814D03*
X73822Y-30814D03*
X73822Y-29814D03*
X74822Y-30814D03*
X74822Y-29814D03*
X75822Y-30814D03*
X75822Y-29814D03*
X76822Y-30814D03*
X76822Y-29814D03*
G54D12*
X88610Y-30814D03*
G54D13*
X88610Y-29814D03*
X89610Y-30814D03*
X89610Y-29814D03*
X90610Y-30814D03*
X90610Y-29814D03*
X91610Y-30814D03*
X91610Y-29814D03*
X92610Y-30814D03*
X92610Y-29814D03*
G54D12*
X104397Y-30814D03*
G54D13*
X104397Y-29814D03*
X105397Y-30814D03*
X105397Y-29814D03*
X106397Y-30814D03*
X106397Y-29814D03*
X107397Y-30814D03*
X107397Y-29814D03*
X108397Y-30814D03*
X108397Y-29814D03*
G54D12*
X59003Y-35539D03*
G54D13*
X59003Y-34539D03*
X64003Y-35539D03*
X60003Y-34539D03*
X65003Y-35539D03*
X61003Y-34539D03*
X66003Y-35539D03*
X62003Y-34539D03*
X67003Y-35539D03*
X63003Y-34539D03*
X68003Y-35539D03*
X64003Y-34539D03*
X69003Y-35539D03*
X65003Y-34539D03*
X70003Y-35539D03*
X66003Y-34539D03*
X71003Y-35539D03*
X67003Y-34539D03*
X72003Y-35539D03*
X68003Y-34539D03*
X73003Y-35539D03*
X69003Y-34539D03*
X74003Y-35539D03*
X70003Y-34539D03*
X71003Y-34539D03*
X75003Y-35539D03*
X72003Y-34539D03*
X74003Y-34539D03*
X75003Y-34539D03*
X76003Y-34539D03*
X77003Y-34539D03*
X76003Y-35539D03*
X77003Y-35539D03*
X60003Y-35539D03*
X61003Y-35539D03*
X62003Y-35539D03*
X63003Y-35539D03*
X78003Y-35539D03*
X78003Y-34539D03*
X73003Y-34539D03*
G54D17*
X53597Y-27338D03*
X61688Y-27259D03*
X77515Y-28459D03*
X88172Y-32135D03*
X91841Y-32336D03*
X57549Y-31699D03*
X31555Y-29747D03*
X68779Y-30568D03*
X89854Y-31678D03*
X51236Y-30579D03*
X54020Y-39024D03*
X85673Y-25339D03*
X94636Y-30283D03*
X41526Y-25021D03*
X69242Y-30568D03*
X55102Y-29923D03*
X72807Y-33595D03*
X92182Y-33689D03*
X57276Y-36068D03*
X56422Y-30908D03*
X31959Y-29349D03*
X48921Y-37655D03*
X54470Y-30240D03*
X38727Y-23233D03*
X74869Y-27269D03*
X88283Y-27113D03*
X93751Y-24320D03*
X54382Y-34201D03*
X44605Y-33938D03*
X32877Y-24293D03*
X49953Y-38368D03*
X57884Y-35187D03*
X54161Y-35597D03*
X82966Y-30439D03*
X83272Y-33792D03*
X94745Y-29359D03*
X54836Y-35838D03*
X65304Y-33680D03*
X51845Y-38760D03*
X62115Y-31421D03*
X76539Y-33592D03*
X85439Y-26034D03*
X38379Y-24909D03*
X49921Y-36327D03*
X93273Y-36728D03*
X94062Y-32666D03*
X40433Y-26939D03*
X87411Y-27491D03*
X74338Y-27604D03*
X52523Y-26810D03*
X61903Y-25899D03*
X93075Y-32318D03*
X56348Y-31883D03*
X82029Y-32127D03*
X25021Y-28582D03*
X108830Y-28967D03*
G54D18*
X20324Y-32281D02*
X21980Y-33937D01*
X20324Y-23584D02*
X20324Y-32281D01*
X20460Y-23449D02*
X20324Y-23584D01*
X20460Y-22874D02*
X20460Y-23449D01*
X52035Y-22874D02*
X52035Y-23449D01*
X83610Y-22874D02*
X83610Y-23449D01*
X82070Y-24988D02*
X82070Y-28740D01*
X83610Y-23449D02*
X82070Y-24988D01*
X97425Y-24846D02*
X99397Y-22874D01*
X97425Y-28740D02*
X97425Y-24846D01*
X67750Y-23449D02*
X67822Y-23449D01*
X65929Y-25270D02*
X67750Y-23449D01*
X65929Y-28740D02*
X65929Y-25270D01*
X67822Y-22874D02*
X67822Y-23449D01*
X50181Y-25303D02*
X50181Y-28740D01*
X52035Y-23449D02*
X50181Y-25303D01*
X51807Y-30366D02*
X51807Y-34539D01*
X50181Y-28740D02*
X51807Y-30366D01*
X79327Y-31483D02*
X82070Y-28740D01*
X79327Y-33216D02*
X79327Y-31483D01*
X78003Y-34539D02*
X79327Y-33216D01*
X34039Y-25082D02*
X36248Y-22874D01*
X34039Y-28740D02*
X34039Y-25082D01*
G54D19*
X55582Y-26484D02*
X55582Y-26934D01*
X39795Y-26484D02*
X39795Y-26934D01*
X37307Y-29422D02*
X39795Y-26934D01*
X37307Y-35039D02*
X37307Y-29422D01*
X36807Y-35539D02*
X37307Y-35039D01*
X56097Y-27449D02*
X55582Y-26934D01*
X56097Y-31085D02*
X56097Y-27449D01*
X56325Y-31314D02*
X56097Y-31085D01*
X56415Y-31314D02*
X56325Y-31314D01*
X59553Y-34452D02*
X56415Y-31314D01*
X59553Y-34725D02*
X59553Y-34452D01*
X59817Y-34989D02*
X59553Y-34725D01*
X60454Y-34989D02*
X59817Y-34989D01*
X61003Y-35539D02*
X60454Y-34989D01*
X86471Y-27620D02*
X87157Y-26934D01*
X86471Y-35085D02*
X86471Y-27620D01*
X86925Y-35539D02*
X86471Y-35085D01*
X87157Y-26484D02*
X87157Y-26934D01*
X64351Y-36192D02*
X65003Y-35539D01*
X58429Y-36192D02*
X64351Y-36192D01*
X55634Y-33396D02*
X58429Y-36192D01*
X55634Y-29375D02*
X55634Y-33396D01*
X53597Y-27338D02*
X55634Y-29375D01*
X39795Y-25484D02*
X40795Y-25484D01*
X39795Y-23421D02*
X39795Y-25484D01*
X39248Y-22874D02*
X39795Y-23421D01*
X69367Y-35539D02*
X69003Y-35539D01*
X70623Y-36795D02*
X69367Y-35539D01*
X92098Y-36795D02*
X70623Y-36795D01*
X92704Y-36189D02*
X92098Y-36795D01*
X102274Y-36189D02*
X92704Y-36189D01*
X102925Y-35539D02*
X102274Y-36189D01*
X61688Y-28259D02*
X61688Y-27259D01*
X67503Y-34075D02*
X61688Y-28259D01*
X67503Y-34680D02*
X67503Y-34075D01*
X67863Y-35039D02*
X67503Y-34680D01*
X68503Y-35039D02*
X67863Y-35039D01*
X69003Y-35539D02*
X68503Y-35039D01*
X56582Y-25484D02*
X55582Y-25484D01*
X55582Y-23421D02*
X55582Y-25484D01*
X55035Y-22874D02*
X55582Y-23421D01*
X77699Y-28642D02*
X77515Y-28459D01*
X77699Y-33194D02*
X77699Y-28642D01*
X76503Y-34390D02*
X77699Y-33194D01*
X76503Y-34675D02*
X76503Y-34390D01*
X76190Y-34989D02*
X76503Y-34675D01*
X75553Y-34989D02*
X76190Y-34989D01*
X75003Y-35539D02*
X75553Y-34989D01*
X71370Y-23421D02*
X71370Y-25484D01*
X70822Y-22874D02*
X71370Y-23421D01*
X87957Y-31920D02*
X88172Y-32135D01*
X87957Y-26684D02*
X87957Y-31920D01*
X88157Y-26484D02*
X87957Y-26684D01*
X93925Y-34420D02*
X91841Y-32336D01*
X93925Y-34539D02*
X93925Y-34420D01*
X88157Y-25484D02*
X87157Y-25484D01*
X86610Y-24937D02*
X87157Y-25484D01*
X86610Y-22874D02*
X86610Y-24937D01*
X101925Y-28503D02*
X101925Y-34539D01*
X103944Y-26484D02*
X101925Y-28503D01*
X103944Y-25484D02*
X102944Y-25484D01*
X102944Y-23421D02*
X102944Y-25484D01*
X102397Y-22874D02*
X102944Y-23421D01*
X88610Y-30814D02*
X88610Y-31265D01*
X40307Y-35039D02*
X39807Y-35539D01*
X40307Y-32206D02*
X40307Y-35039D01*
X41248Y-31265D02*
X40307Y-32206D01*
X41248Y-30814D02*
X41248Y-31265D01*
X57114Y-31265D02*
X57035Y-31265D01*
X57549Y-31699D02*
X57114Y-31265D01*
X57035Y-30814D02*
X57035Y-31265D01*
X72822Y-30814D02*
X72372Y-30814D01*
X68859Y-30492D02*
X68859Y-30568D01*
X69107Y-30243D02*
X68859Y-30492D01*
X69376Y-30243D02*
X69107Y-30243D01*
X69948Y-30814D02*
X69376Y-30243D01*
X72372Y-30814D02*
X69948Y-30814D01*
X68859Y-34394D02*
X69003Y-34539D01*
X68859Y-30568D02*
X68859Y-34394D01*
X26460Y-24652D02*
X31555Y-29747D01*
X26460Y-22874D02*
X26460Y-24652D01*
X68859Y-30568D02*
X68779Y-30568D01*
X88610Y-31265D02*
X89438Y-32093D01*
X89438Y-35053D02*
X89925Y-35539D01*
X89438Y-32093D02*
X89438Y-35053D01*
X89438Y-32093D02*
X89854Y-31678D01*
X41448Y-29614D02*
X41248Y-29814D01*
X41448Y-25402D02*
X41448Y-29614D01*
X41201Y-25156D02*
X41448Y-25402D01*
X41201Y-23920D02*
X41201Y-25156D01*
X42248Y-22874D02*
X41201Y-23920D01*
X44341Y-35073D02*
X44807Y-35539D01*
X42611Y-35073D02*
X44341Y-35073D01*
X42257Y-35427D02*
X42611Y-35073D01*
X42257Y-35725D02*
X42257Y-35427D01*
X41985Y-35997D02*
X42257Y-35725D01*
X39627Y-35997D02*
X41985Y-35997D01*
X39341Y-35711D02*
X39627Y-35997D01*
X39341Y-31721D02*
X39341Y-35711D01*
X41248Y-29814D02*
X39341Y-31721D01*
X57035Y-23874D02*
X58035Y-22874D01*
X57035Y-29814D02*
X57035Y-23874D01*
X50298Y-35048D02*
X49847Y-35499D01*
X50298Y-31518D02*
X50298Y-35048D01*
X51236Y-30579D02*
X50298Y-31518D01*
X49847Y-35499D02*
X49807Y-35539D01*
X53372Y-39024D02*
X54020Y-39024D01*
X49847Y-35499D02*
X53372Y-39024D01*
X72822Y-23874D02*
X73822Y-22874D01*
X72822Y-29814D02*
X72822Y-23874D01*
X86368Y-26034D02*
X85673Y-25339D01*
X87530Y-26034D02*
X86368Y-26034D01*
X87660Y-26164D02*
X87530Y-26034D01*
X87660Y-27281D02*
X87660Y-26164D01*
X87736Y-27357D02*
X87660Y-27281D01*
X87736Y-33350D02*
X87736Y-27357D01*
X88925Y-34539D02*
X87736Y-33350D01*
X88610Y-23874D02*
X89610Y-22874D01*
X88610Y-29814D02*
X88610Y-23874D01*
X94636Y-32250D02*
X94636Y-30283D01*
X96925Y-34539D02*
X94636Y-32250D01*
X106349Y-27862D02*
X104397Y-29814D01*
X106349Y-23826D02*
X106349Y-27862D01*
X105397Y-22874D02*
X106349Y-23826D01*
X103947Y-33561D02*
X104925Y-34539D01*
X103947Y-30265D02*
X103947Y-33561D01*
X104397Y-29814D02*
X103947Y-30265D01*
X41356Y-34989D02*
X40807Y-35539D01*
X41356Y-31706D02*
X41356Y-34989D01*
X42248Y-30814D02*
X41356Y-31706D01*
X41748Y-30314D02*
X42248Y-30814D01*
X41748Y-25242D02*
X41748Y-30314D01*
X41526Y-25021D02*
X41748Y-25242D01*
X71608Y-32934D02*
X69242Y-30568D01*
X73728Y-30814D02*
X73822Y-30814D01*
X71608Y-32934D02*
X73728Y-30814D01*
X71608Y-32934D02*
X70003Y-34539D01*
X90376Y-34990D02*
X90925Y-35539D01*
X90376Y-31581D02*
X90376Y-34990D01*
X89610Y-30814D02*
X90376Y-31581D01*
X43248Y-28814D02*
X42422Y-29640D01*
X43248Y-22874D02*
X43248Y-28814D01*
X42422Y-29640D02*
X42248Y-29814D01*
X45281Y-35013D02*
X45807Y-35539D01*
X44630Y-35013D02*
X45281Y-35013D01*
X44326Y-34709D02*
X44630Y-35013D01*
X44326Y-34119D02*
X44326Y-34709D01*
X43708Y-33501D02*
X44326Y-34119D01*
X43708Y-30639D02*
X43708Y-33501D01*
X43434Y-30364D02*
X43708Y-30639D01*
X43146Y-30364D02*
X43434Y-30364D01*
X42422Y-29640D02*
X43146Y-30364D01*
X58035Y-23874D02*
X59035Y-22874D01*
X58035Y-29814D02*
X58035Y-23874D01*
X55102Y-34375D02*
X55102Y-29923D01*
X57529Y-36802D02*
X55102Y-34375D01*
X65860Y-36802D02*
X57529Y-36802D01*
X65897Y-36764D02*
X65860Y-36802D01*
X68109Y-36764D02*
X65897Y-36764D01*
X68946Y-37602D02*
X68109Y-36764D01*
X104862Y-37602D02*
X68946Y-37602D01*
X106925Y-35539D02*
X104862Y-37602D01*
X55070Y-29891D02*
X55102Y-29923D01*
X54336Y-29891D02*
X55070Y-29891D01*
X53257Y-30970D02*
X54336Y-29891D01*
X53257Y-34727D02*
X53257Y-30970D01*
X52945Y-35039D02*
X53257Y-34727D01*
X51307Y-35039D02*
X52945Y-35039D01*
X50807Y-35539D02*
X51307Y-35039D01*
X75288Y-31114D02*
X72807Y-33595D01*
X75288Y-30629D02*
X75288Y-31114D01*
X74924Y-30265D02*
X75288Y-30629D01*
X74272Y-30265D02*
X74924Y-30265D01*
X73822Y-29814D02*
X74272Y-30265D01*
X73822Y-23874D02*
X73822Y-29814D01*
X74822Y-22874D02*
X73822Y-23874D01*
X89610Y-23874D02*
X89610Y-29814D01*
X90610Y-22874D02*
X89610Y-23874D01*
X91298Y-32806D02*
X92182Y-33689D01*
X91298Y-31220D02*
X91298Y-32806D01*
X91110Y-31031D02*
X91298Y-31220D01*
X91110Y-30653D02*
X91110Y-31031D01*
X90742Y-30285D02*
X91110Y-30653D01*
X90080Y-30285D02*
X90742Y-30285D01*
X89610Y-29814D02*
X90080Y-30285D01*
X107350Y-23827D02*
X106397Y-22874D01*
X107350Y-27861D02*
X107350Y-23827D01*
X105397Y-29814D02*
X107350Y-27861D01*
X105925Y-30342D02*
X105925Y-34539D01*
X105397Y-29814D02*
X105925Y-30342D01*
X57809Y-36602D02*
X57276Y-36068D01*
X65777Y-36602D02*
X57809Y-36602D01*
X65814Y-36564D02*
X65777Y-36602D01*
X69375Y-36564D02*
X65814Y-36564D01*
X70213Y-37402D02*
X69375Y-36564D01*
X104700Y-37402D02*
X70213Y-37402D01*
X106381Y-35721D02*
X104700Y-37402D01*
X106381Y-34996D02*
X106381Y-35721D01*
X105925Y-34539D02*
X106381Y-34996D01*
X42356Y-31706D02*
X43248Y-30814D01*
X42356Y-34989D02*
X42356Y-31706D01*
X41807Y-35539D02*
X42356Y-34989D01*
X71098Y-34539D02*
X71003Y-34539D01*
X74822Y-30814D02*
X71098Y-34539D01*
X58585Y-30364D02*
X59035Y-30814D01*
X56663Y-30364D02*
X58585Y-30364D01*
X56422Y-30605D02*
X56663Y-30364D01*
X56422Y-30908D02*
X56422Y-30605D01*
X91425Y-35039D02*
X91925Y-35539D01*
X91425Y-33684D02*
X91425Y-35039D01*
X91098Y-33358D02*
X91425Y-33684D01*
X91098Y-31303D02*
X91098Y-33358D01*
X90610Y-30814D02*
X91098Y-31303D01*
X31959Y-26372D02*
X31959Y-29349D01*
X28460Y-22874D02*
X31959Y-26372D01*
X44248Y-28814D02*
X43423Y-29639D01*
X44248Y-22874D02*
X44248Y-28814D01*
X43423Y-29639D02*
X43248Y-29814D01*
X46307Y-35039D02*
X46807Y-35539D01*
X45670Y-35039D02*
X46307Y-35039D01*
X45356Y-34725D02*
X45670Y-35039D01*
X45356Y-33994D02*
X45356Y-34725D01*
X44711Y-33348D02*
X45356Y-33994D01*
X44711Y-30618D02*
X44711Y-33348D01*
X44357Y-30265D02*
X44711Y-30618D01*
X44048Y-30265D02*
X44357Y-30265D01*
X43423Y-29639D02*
X44048Y-30265D01*
X48922Y-37654D02*
X48921Y-37655D01*
X46807Y-35539D02*
X48922Y-37654D01*
X59035Y-23874D02*
X60035Y-22874D01*
X59035Y-29814D02*
X59035Y-23874D01*
X54055Y-30654D02*
X54055Y-35247D01*
X54470Y-30240D02*
X54055Y-30654D01*
X53881Y-35247D02*
X54055Y-35247D01*
X53127Y-36001D02*
X53881Y-35247D01*
X52268Y-36001D02*
X53127Y-36001D01*
X51807Y-35539D02*
X52268Y-36001D01*
X105461Y-38002D02*
X107925Y-35539D01*
X68681Y-38002D02*
X105461Y-38002D01*
X67843Y-37164D02*
X68681Y-38002D01*
X66063Y-37164D02*
X67843Y-37164D01*
X66025Y-37202D02*
X66063Y-37164D01*
X56889Y-37202D02*
X66025Y-37202D01*
X54935Y-35247D02*
X56889Y-37202D01*
X54055Y-35247D02*
X54935Y-35247D01*
X38727Y-25054D02*
X38727Y-23233D01*
X39657Y-25984D02*
X38727Y-25054D01*
X40945Y-25984D02*
X39657Y-25984D01*
X41248Y-26286D02*
X40945Y-25984D01*
X41248Y-28987D02*
X41248Y-26286D01*
X38807Y-31428D02*
X41248Y-28987D01*
X38807Y-34539D02*
X38807Y-31428D01*
X74822Y-27315D02*
X74869Y-27269D01*
X74822Y-29814D02*
X74822Y-27315D01*
X74869Y-23827D02*
X75822Y-22874D01*
X74869Y-27269D02*
X74869Y-23827D01*
X90898Y-34512D02*
X90925Y-34539D01*
X90898Y-31820D02*
X90898Y-34512D01*
X90110Y-31031D02*
X90898Y-31820D01*
X90110Y-30673D02*
X90110Y-31031D01*
X89701Y-30265D02*
X90110Y-30673D01*
X88406Y-30265D02*
X89701Y-30265D01*
X88157Y-30016D02*
X88406Y-30265D01*
X88157Y-27239D02*
X88157Y-30016D01*
X88283Y-27113D02*
X88157Y-27239D01*
X90610Y-23874D02*
X91610Y-22874D01*
X90610Y-29814D02*
X90610Y-23874D01*
X99386Y-35000D02*
X98925Y-34539D01*
X101103Y-35000D02*
X99386Y-35000D01*
X101375Y-34728D02*
X101103Y-35000D01*
X101375Y-34289D02*
X101375Y-34728D01*
X96228Y-29142D02*
X101375Y-34289D01*
X96228Y-26798D02*
X96228Y-29142D01*
X93751Y-24320D02*
X96228Y-26798D01*
X107552Y-23028D02*
X107397Y-22874D01*
X107552Y-28660D02*
X107552Y-23028D01*
X106397Y-29814D02*
X107552Y-28660D01*
X106925Y-30342D02*
X106925Y-34539D01*
X106397Y-29814D02*
X106925Y-30342D01*
X57183Y-37002D02*
X54382Y-34201D01*
X65942Y-37002D02*
X57183Y-37002D01*
X65980Y-36964D02*
X65942Y-37002D01*
X68026Y-36964D02*
X65980Y-36964D01*
X68864Y-37802D02*
X68026Y-36964D01*
X105324Y-37802D02*
X68864Y-37802D01*
X107381Y-35745D02*
X105324Y-37802D01*
X107381Y-34996D02*
X107381Y-35745D01*
X106925Y-34539D02*
X107381Y-34996D01*
X92681Y-35539D02*
X92925Y-35539D01*
X92621Y-35479D02*
X92681Y-35539D01*
X72503Y-34731D02*
X72324Y-34552D01*
X72503Y-35676D02*
X72503Y-34731D01*
X73222Y-36394D02*
X72503Y-35676D01*
X91706Y-36394D02*
X73222Y-36394D01*
X92621Y-35479D02*
X91706Y-36394D01*
X75822Y-31054D02*
X72324Y-34552D01*
X75822Y-30814D02*
X75822Y-31054D01*
X72016Y-34552D02*
X72003Y-34539D01*
X72324Y-34552D02*
X72016Y-34552D01*
X44248Y-33581D02*
X44605Y-33938D01*
X44248Y-30814D02*
X44248Y-33581D01*
X32877Y-35427D02*
X32877Y-24293D01*
X33667Y-36216D02*
X32877Y-35427D01*
X42129Y-36216D02*
X33667Y-36216D01*
X42807Y-35539D02*
X42129Y-36216D01*
X92471Y-35329D02*
X92621Y-35479D01*
X92471Y-33860D02*
X92471Y-35329D01*
X92507Y-33824D02*
X92471Y-33860D01*
X92507Y-33536D02*
X92507Y-33824D01*
X91498Y-32527D02*
X92507Y-33536D01*
X91498Y-30926D02*
X91498Y-32527D01*
X91610Y-30814D02*
X91498Y-30926D01*
X44426Y-29636D02*
X44248Y-29814D01*
X45248Y-26781D02*
X45248Y-22874D01*
X44925Y-27103D02*
X45248Y-26781D01*
X44925Y-27859D02*
X44925Y-27103D01*
X44900Y-27884D02*
X44925Y-27859D01*
X44900Y-28736D02*
X44900Y-27884D01*
X44700Y-28936D02*
X44900Y-28736D01*
X44700Y-29150D02*
X44700Y-28936D01*
X44500Y-29350D02*
X44700Y-29150D01*
X44500Y-29562D02*
X44500Y-29350D01*
X44426Y-29636D02*
X44500Y-29562D01*
X47570Y-35302D02*
X47807Y-35539D01*
X47570Y-35302D02*
X47570Y-35302D01*
X47333Y-35065D02*
X47570Y-35302D01*
X47333Y-33623D02*
X47333Y-35065D01*
X47257Y-33547D02*
X47333Y-33623D01*
X47257Y-32720D02*
X47257Y-33547D01*
X46373Y-31836D02*
X47257Y-32720D01*
X46373Y-31553D02*
X46373Y-31836D01*
X46138Y-31318D02*
X46373Y-31553D01*
X46138Y-31201D02*
X46138Y-31318D01*
X46073Y-31136D02*
X46138Y-31201D01*
X46073Y-31013D02*
X46073Y-31136D01*
X45752Y-30693D02*
X46073Y-31013D01*
X45752Y-30650D02*
X45752Y-30693D01*
X45381Y-30278D02*
X45752Y-30650D01*
X45067Y-30278D02*
X45381Y-30278D01*
X44426Y-29636D02*
X45067Y-30278D01*
X49953Y-37686D02*
X49953Y-38368D01*
X47807Y-35539D02*
X49953Y-37686D01*
X60035Y-29814D02*
X60485Y-29814D01*
X60485Y-23423D02*
X60485Y-29814D01*
X61035Y-22874D02*
X60485Y-23423D01*
X57884Y-35256D02*
X57884Y-35187D01*
X58617Y-35989D02*
X57884Y-35256D01*
X62191Y-35989D02*
X58617Y-35989D01*
X62477Y-35703D02*
X62191Y-35989D01*
X62477Y-33678D02*
X62477Y-35703D01*
X60485Y-31686D02*
X62477Y-33678D01*
X60485Y-29814D02*
X60485Y-31686D01*
X54161Y-35640D02*
X54161Y-35597D01*
X56123Y-37602D02*
X54161Y-35640D01*
X66191Y-37602D02*
X56123Y-37602D01*
X66229Y-37565D02*
X66191Y-37602D01*
X67322Y-37565D02*
X66229Y-37565D01*
X68166Y-38409D02*
X67322Y-37565D01*
X106054Y-38409D02*
X68166Y-38409D01*
X108925Y-35539D02*
X106054Y-38409D01*
X76822Y-28814D02*
X76822Y-22874D01*
X75822Y-29814D02*
X76822Y-28814D01*
X83272Y-30745D02*
X83272Y-33792D01*
X82966Y-30439D02*
X83272Y-30745D01*
X92610Y-28814D02*
X92610Y-22874D01*
X91610Y-29814D02*
X92610Y-28814D01*
X99925Y-34539D02*
X94745Y-29359D01*
X107997Y-29215D02*
X107397Y-29814D01*
X107997Y-23274D02*
X107997Y-29215D01*
X108397Y-22874D02*
X107997Y-23274D01*
X107925Y-30342D02*
X107397Y-29814D01*
X107925Y-34539D02*
X107925Y-30342D01*
X56401Y-37402D02*
X54836Y-35838D01*
X66108Y-37402D02*
X56401Y-37402D01*
X66146Y-37365D02*
X66108Y-37402D01*
X67546Y-37365D02*
X66146Y-37365D01*
X68384Y-38202D02*
X67546Y-37365D01*
X105924Y-38202D02*
X68384Y-38202D01*
X108391Y-35735D02*
X105924Y-38202D01*
X108391Y-35005D02*
X108391Y-35735D01*
X107925Y-34539D02*
X108391Y-35005D01*
X76728Y-30814D02*
X76822Y-30814D01*
X73003Y-34539D02*
X76728Y-30814D01*
X30009Y-22423D02*
X30460Y-22874D01*
X26261Y-22423D02*
X30009Y-22423D01*
X25998Y-22686D02*
X26261Y-22423D01*
X25998Y-34077D02*
X25998Y-22686D01*
X27097Y-35176D02*
X25998Y-34077D01*
X28288Y-35176D02*
X27097Y-35176D01*
X29529Y-36417D02*
X28288Y-35176D01*
X43807Y-36417D02*
X29529Y-36417D01*
X45386Y-37996D02*
X43807Y-36417D01*
X49040Y-37996D02*
X45386Y-37996D01*
X49268Y-37769D02*
X49040Y-37996D01*
X49268Y-37542D02*
X49268Y-37769D01*
X48456Y-36730D02*
X49268Y-37542D01*
X48357Y-36730D02*
X48456Y-36730D01*
X47333Y-35706D02*
X48357Y-36730D01*
X47333Y-35429D02*
X47333Y-35706D01*
X46993Y-35089D02*
X47333Y-35429D01*
X46719Y-35089D02*
X46993Y-35089D01*
X46356Y-34726D02*
X46719Y-35089D01*
X46356Y-33245D02*
X46356Y-34726D01*
X45248Y-32136D02*
X46356Y-33245D01*
X45248Y-30814D02*
X45248Y-32136D01*
X43807Y-36417D02*
X43807Y-35539D01*
X94393Y-35070D02*
X93925Y-35539D01*
X94393Y-34291D02*
X94393Y-35070D01*
X92610Y-32507D02*
X94393Y-34291D01*
X92610Y-30814D02*
X92610Y-32507D01*
X63901Y-33680D02*
X61035Y-30814D01*
X65304Y-33680D02*
X63901Y-33680D01*
X46248Y-28814D02*
X45248Y-29814D01*
X46248Y-22874D02*
X46248Y-28814D01*
X48307Y-35039D02*
X48807Y-35539D01*
X48307Y-32874D02*
X48307Y-35039D01*
X45248Y-29814D02*
X48307Y-32874D01*
X48807Y-35722D02*
X51845Y-38760D01*
X48807Y-35539D02*
X48807Y-35722D01*
X61035Y-23874D02*
X61035Y-29814D01*
X62035Y-22874D02*
X61035Y-23874D01*
X62115Y-30895D02*
X61035Y-29814D01*
X62115Y-31421D02*
X62115Y-30895D01*
X77190Y-28324D02*
X77190Y-29814D01*
X77822Y-27692D02*
X77190Y-28324D01*
X77822Y-22874D02*
X77822Y-27692D01*
X77492Y-30117D02*
X77190Y-29814D01*
X77492Y-32638D02*
X77492Y-30117D01*
X76539Y-33592D02*
X77492Y-32638D01*
X77190Y-29814D02*
X76822Y-29814D01*
X93612Y-28812D02*
X92610Y-29814D01*
X93612Y-26297D02*
X93612Y-28812D01*
X93876Y-26034D02*
X93612Y-26297D01*
X94249Y-26034D02*
X93876Y-26034D01*
X94613Y-26397D02*
X94249Y-26034D01*
X94613Y-28227D02*
X94613Y-26397D01*
X100925Y-34539D02*
X94613Y-28227D01*
X93610Y-25767D02*
X93876Y-26034D01*
X93610Y-24639D02*
X93610Y-25767D01*
X93426Y-24455D02*
X93610Y-24639D01*
X93426Y-23058D02*
X93426Y-24455D01*
X93610Y-22874D02*
X93426Y-23058D01*
X108397Y-23874D02*
X108397Y-29814D01*
X109397Y-22874D02*
X108397Y-23874D01*
X108925Y-30342D02*
X108925Y-34539D01*
X108397Y-29814D02*
X108925Y-30342D01*
X50807Y-34822D02*
X50807Y-34539D01*
X50356Y-35272D02*
X50807Y-34822D01*
X50356Y-35725D02*
X50356Y-35272D01*
X53330Y-38699D02*
X50356Y-35725D01*
X54154Y-38699D02*
X53330Y-38699D01*
X54642Y-39187D02*
X54154Y-38699D01*
X105924Y-39187D02*
X54642Y-39187D01*
X109375Y-35736D02*
X105924Y-39187D01*
X109375Y-34989D02*
X109375Y-35736D01*
X108925Y-34539D02*
X109375Y-34989D01*
X61488Y-26484D02*
X61488Y-26934D01*
X38349Y-35997D02*
X38807Y-35539D01*
X36603Y-35997D02*
X38349Y-35997D01*
X36343Y-35737D02*
X36603Y-35997D01*
X36343Y-33392D02*
X36343Y-35737D01*
X37057Y-32678D02*
X36343Y-33392D01*
X37057Y-26231D02*
X37057Y-32678D01*
X38379Y-24909D02*
X37057Y-26231D01*
X85439Y-26034D02*
X85439Y-26034D01*
X85439Y-35692D02*
X85439Y-26034D01*
X85736Y-35990D02*
X85439Y-35692D01*
X88474Y-35990D02*
X85736Y-35990D01*
X88925Y-35539D02*
X88474Y-35990D01*
X61361Y-27060D02*
X61488Y-26934D01*
X61361Y-29168D02*
X61361Y-27060D01*
X65629Y-33436D02*
X61361Y-29168D01*
X65629Y-33815D02*
X65629Y-33436D01*
X65439Y-34005D02*
X65629Y-33815D01*
X64890Y-34005D02*
X65439Y-34005D01*
X64454Y-34442D02*
X64890Y-34005D01*
X64454Y-34725D02*
X64454Y-34442D01*
X64140Y-35039D02*
X64454Y-34725D01*
X63503Y-35039D02*
X64140Y-35039D01*
X63003Y-35539D02*
X63503Y-35039D01*
X49335Y-35740D02*
X49921Y-36327D01*
X49335Y-29118D02*
X49335Y-35740D01*
X46700Y-26484D02*
X49335Y-29118D01*
X66047Y-30043D02*
X62488Y-26484D01*
X69459Y-30043D02*
X66047Y-30043D01*
X69683Y-30267D02*
X69459Y-30043D01*
X73923Y-30267D02*
X69683Y-30267D01*
X74272Y-30617D02*
X73923Y-30267D01*
X74272Y-31005D02*
X74272Y-30617D01*
X72569Y-32709D02*
X74272Y-31005D01*
X72194Y-32709D02*
X72569Y-32709D01*
X70547Y-34357D02*
X72194Y-32709D01*
X70547Y-35082D02*
X70547Y-34357D01*
X71003Y-35539D02*
X70547Y-35082D01*
X103736Y-36728D02*
X93273Y-36728D01*
X104925Y-35539D02*
X103736Y-36728D01*
X73454Y-35989D02*
X73003Y-35539D01*
X77552Y-35989D02*
X73454Y-35989D01*
X77757Y-36194D02*
X77552Y-35989D01*
X88913Y-36194D02*
X77757Y-36194D01*
X89386Y-35721D02*
X88913Y-36194D01*
X89386Y-35360D02*
X89386Y-35721D01*
X89066Y-35039D02*
X89386Y-35360D01*
X88425Y-35039D02*
X89066Y-35039D01*
X87925Y-34539D02*
X88425Y-35039D01*
X78275Y-33404D02*
X78275Y-26484D01*
X77552Y-34127D02*
X78275Y-33404D01*
X77552Y-35989D02*
X77552Y-34127D01*
X94062Y-32677D02*
X94062Y-32666D01*
X95925Y-34539D02*
X94062Y-32677D01*
X94062Y-32666D02*
X94062Y-26484D01*
X104382Y-34996D02*
X103925Y-34539D01*
X104382Y-35723D02*
X104382Y-34996D01*
X103713Y-36391D02*
X104382Y-35723D01*
X92926Y-36391D02*
X103713Y-36391D01*
X92322Y-36995D02*
X92926Y-36391D01*
X70435Y-36995D02*
X92322Y-36995D01*
X69551Y-36111D02*
X70435Y-36995D01*
X67929Y-36111D02*
X69551Y-36111D01*
X67503Y-35685D02*
X67929Y-36111D01*
X67503Y-35039D02*
X67503Y-35685D01*
X67003Y-34539D02*
X67503Y-35039D01*
X58535Y-26484D02*
X58535Y-26934D01*
X58535Y-29956D02*
X58535Y-26934D01*
X58894Y-30314D02*
X58535Y-29956D01*
X59171Y-30314D02*
X58894Y-30314D01*
X59485Y-30628D02*
X59171Y-30314D01*
X59485Y-32212D02*
X59485Y-30628D01*
X60503Y-33231D02*
X59485Y-32212D01*
X60503Y-34701D02*
X60503Y-33231D01*
X60892Y-35089D02*
X60503Y-34701D01*
X61553Y-35089D02*
X60892Y-35089D01*
X62003Y-35539D02*
X61553Y-35089D01*
X38307Y-35039D02*
X37807Y-35539D01*
X38307Y-29065D02*
X38307Y-35039D01*
X40433Y-26939D02*
X38307Y-29065D01*
X87411Y-35025D02*
X87411Y-27491D01*
X87925Y-35539D02*
X87411Y-35025D01*
X74322Y-26484D02*
X74322Y-26934D01*
X74322Y-27588D02*
X74338Y-27604D01*
X74322Y-26934D02*
X74322Y-27588D01*
X65141Y-36401D02*
X66003Y-35539D01*
X58340Y-36401D02*
X65141Y-36401D01*
X55434Y-33495D02*
X58340Y-36401D01*
X55434Y-29721D02*
X55434Y-33495D01*
X52523Y-26810D02*
X55434Y-29721D01*
X103475Y-35089D02*
X103925Y-35539D01*
X102738Y-35089D02*
X103475Y-35089D01*
X102425Y-35402D02*
X102738Y-35089D01*
X102425Y-35712D02*
X102425Y-35402D01*
X102147Y-35989D02*
X102425Y-35712D01*
X92479Y-35989D02*
X102147Y-35989D01*
X91874Y-36595D02*
X92479Y-35989D01*
X71059Y-36595D02*
X91874Y-36595D01*
X70003Y-35539D02*
X71059Y-36595D01*
X62015Y-26011D02*
X61903Y-25899D01*
X62015Y-27351D02*
X62015Y-26011D01*
X68553Y-33889D02*
X62015Y-27351D01*
X68553Y-34725D02*
X68553Y-33889D01*
X68867Y-35039D02*
X68553Y-34725D01*
X69503Y-35039D02*
X68867Y-35039D01*
X70003Y-35539D02*
X69503Y-35039D01*
X75322Y-29951D02*
X75322Y-26484D01*
X75636Y-30265D02*
X75322Y-29951D01*
X76923Y-30265D02*
X75636Y-30265D01*
X77282Y-30624D02*
X76923Y-30265D01*
X77282Y-31308D02*
X77282Y-30624D01*
X74503Y-34087D02*
X77282Y-31308D01*
X74503Y-35039D02*
X74503Y-34087D01*
X74003Y-35539D02*
X74503Y-35039D01*
X93075Y-32689D02*
X93075Y-32318D01*
X94925Y-34539D02*
X93075Y-32689D01*
X91110Y-29955D02*
X91110Y-26484D01*
X91465Y-30310D02*
X91110Y-29955D01*
X92745Y-30310D02*
X91465Y-30310D01*
X93075Y-30640D02*
X92745Y-30310D01*
X93075Y-32318D02*
X93075Y-30640D01*
X104738Y-34989D02*
X105111Y-34989D01*
X104475Y-34725D02*
X104738Y-34989D01*
X104475Y-34442D02*
X104475Y-34725D01*
X104111Y-34079D02*
X104475Y-34442D01*
X103385Y-34079D02*
X104111Y-34079D01*
X102925Y-34539D02*
X103385Y-34079D01*
X106897Y-27598D02*
X106897Y-26484D01*
X104947Y-29548D02*
X106897Y-27598D01*
X104947Y-31593D02*
X104947Y-29548D01*
X105375Y-32021D02*
X104947Y-31593D01*
X105375Y-34725D02*
X105375Y-32021D01*
X105111Y-34989D02*
X105375Y-34725D01*
X105387Y-35265D02*
X105111Y-34989D01*
X105387Y-35723D02*
X105387Y-35265D01*
X103911Y-37200D02*
X105387Y-35723D01*
X70357Y-37200D02*
X103911Y-37200D01*
X69510Y-36354D02*
X70357Y-37200D01*
X67177Y-36354D02*
X69510Y-36354D01*
X66503Y-35680D02*
X67177Y-36354D01*
X66503Y-35039D02*
X66503Y-35680D01*
X66003Y-34539D02*
X66503Y-35039D01*
X105897Y-25374D02*
X105897Y-25484D01*
X103397Y-22874D02*
X105897Y-25374D01*
X21812Y-26971D02*
X21900Y-27059D01*
X20987Y-26971D02*
X21812Y-26971D01*
X20987Y-22706D02*
X20987Y-26971D01*
X21470Y-22223D02*
X20987Y-22706D01*
X31809Y-22223D02*
X21470Y-22223D01*
X32460Y-22874D02*
X31809Y-22223D01*
X20987Y-26971D02*
X20900Y-27059D01*
X59003Y-34539D02*
X56348Y-31883D01*
X83559Y-34539D02*
X83925Y-34539D01*
X82029Y-33009D02*
X83559Y-34539D01*
X82029Y-32127D02*
X82029Y-33009D01*
X33807Y-35539D02*
X33807Y-35089D01*
X84037Y-35089D02*
X83925Y-35089D01*
X84375Y-34751D02*
X84037Y-35089D01*
X84375Y-29490D02*
X84375Y-34751D01*
X85050Y-28814D02*
X84375Y-29490D01*
X85050Y-23433D02*
X85050Y-28814D01*
X85610Y-22874D02*
X85050Y-23433D01*
X83925Y-35539D02*
X83925Y-35089D01*
X36814Y-24307D02*
X38248Y-22874D01*
X36814Y-30947D02*
X36814Y-24307D01*
X34257Y-33505D02*
X36814Y-30947D01*
X34257Y-34751D02*
X34257Y-33505D01*
X33919Y-35089D02*
X34257Y-34751D01*
X33807Y-35089D02*
X33919Y-35089D01*
X58891Y-35089D02*
X59003Y-35089D01*
X55834Y-32032D02*
X58891Y-35089D01*
X55834Y-28225D02*
X55834Y-32032D01*
X54035Y-26426D02*
X55834Y-28225D01*
X54035Y-22874D02*
X54035Y-26426D01*
X59003Y-35539D02*
X59003Y-35089D01*
G54D18*
X64459Y-22298D02*
X65035Y-22874D01*
X49823Y-22298D02*
X64459Y-22298D01*
X49248Y-22874D02*
X49823Y-22298D01*
X65610Y-22298D02*
X65035Y-22874D01*
X80247Y-22298D02*
X65610Y-22298D01*
X80822Y-22874D02*
X80247Y-22298D01*
X81397Y-22298D02*
X80822Y-22874D01*
X96035Y-22298D02*
X81397Y-22298D01*
X96610Y-22874D02*
X96035Y-22298D01*
X34041Y-22293D02*
X33460Y-22874D01*
X48667Y-22293D02*
X34041Y-22293D01*
X49248Y-22874D02*
X48667Y-22293D01*
X28015Y-33937D02*
X27500Y-33937D01*
X32409Y-29542D02*
X28015Y-33937D01*
X32409Y-23924D02*
X32409Y-29542D01*
X33460Y-22874D02*
X32409Y-23924D01*
X97217Y-22266D02*
X96610Y-22874D01*
X111790Y-22266D02*
X97217Y-22266D01*
X112397Y-22874D02*
X111790Y-22266D01*
X52071Y-28630D02*
X52181Y-28740D01*
X52071Y-25947D02*
X52071Y-28630D01*
X53035Y-24983D02*
X52071Y-25947D01*
X53035Y-22874D02*
X53035Y-24983D01*
X52807Y-29366D02*
X52807Y-34539D01*
X52181Y-28740D02*
X52807Y-29366D01*
X99425Y-23846D02*
X100397Y-22874D01*
X99425Y-28740D02*
X99425Y-23846D01*
X84070Y-23413D02*
X84070Y-28740D01*
X84610Y-22874D02*
X84070Y-23413D01*
X68822Y-27846D02*
X68822Y-22874D01*
X67929Y-28740D02*
X68822Y-27846D01*
X113501Y-34962D02*
X112925Y-35539D01*
X113501Y-33638D02*
X113501Y-34962D01*
X108830Y-28967D02*
X113501Y-33638D01*
X81579Y-31963D02*
X78003Y-35539D01*
X81579Y-31190D02*
X81579Y-31963D01*
X84030Y-28740D02*
X81579Y-31190D01*
X84070Y-28740D02*
X84030Y-28740D01*
X25021Y-26434D02*
X25021Y-28582D01*
X21460Y-22874D02*
X25021Y-26434D01*
X25021Y-28582D02*
X25021Y-35643D01*
X26844Y-35643D02*
X25021Y-35643D01*
X27500Y-36299D02*
X26844Y-35643D01*
X22635Y-35643D02*
X21980Y-36299D01*
X25021Y-35643D02*
X22635Y-35643D01*
X36039Y-24082D02*
X37248Y-22874D01*
X36039Y-28740D02*
X36039Y-24082D01*
M02*
