M48
; DRILL file {KiCad 5.1.7} date Thu Oct  8 13:52:55 2020
; FORMAT={3:3/ absolute / metric / keep zeros}
; #@! TF.CreationDate,2020-10-08T13:52:55-04:00
; #@! TF.GenerationSoftware,Kicad,Pcbnew,5.1.7
FMAT,2
METRIC
T1C1.016
%
G90
G05
T1
X052220Y-084700
X054760Y-084700
X057300Y-084700
X059840Y-084700
X062380Y-084700
X064920Y-084700
X067460Y-084700
X070000Y-084700
X072540Y-084700
X075080Y-084700
X077620Y-084700
X080160Y-084700
X082700Y-084700
X085240Y-084700
X087780Y-084700
X052220Y-058750
X054760Y-058750
X057300Y-058750
X059840Y-058750
X062380Y-058750
X064920Y-058750
X067460Y-058750
X070000Y-058750
X072540Y-058750
X075080Y-058750
X077620Y-058750
X080160Y-058750
X082700Y-058750
X085240Y-058750
X087780Y-058750
T0
M30
