G04 (created by PCBNEW-RS274X (2011-aug-04)-testing) date Wed 17 Apr 2013 04:11:37 PM PDT*
G01*
G70*
G90*
%MOIN*%
G04 Gerber Fmt 3.4, Leading zero omitted, Abs format*
%FSLAX34Y34*%
G04 APERTURE LIST*
%ADD10C,0.006000*%
%ADD11C,0.080000*%
%ADD12R,0.080000X0.080000*%
G04 APERTURE END LIST*
G54D10*
G54D11*
X21575Y-35397D03*
X21575Y-36397D03*
X21575Y-37397D03*
X21575Y-38397D03*
X21575Y-39397D03*
X21575Y-40397D03*
X21575Y-41397D03*
X21575Y-42397D03*
G54D12*
X31024Y-42397D03*
G54D11*
X31024Y-41397D03*
X31024Y-40397D03*
X31024Y-39397D03*
X31024Y-38397D03*
X31024Y-37397D03*
X31024Y-36397D03*
X31024Y-35397D03*
X21575Y-22798D03*
X21575Y-23798D03*
X21575Y-24798D03*
X21575Y-25798D03*
X21575Y-26798D03*
X21575Y-27798D03*
X21575Y-28798D03*
X21575Y-29798D03*
G54D12*
X31024Y-29798D03*
G54D11*
X31024Y-28798D03*
X31024Y-27798D03*
X31024Y-26798D03*
X31024Y-25798D03*
X31024Y-24798D03*
X31024Y-23798D03*
X31024Y-22798D03*
G54D12*
X22799Y-39398D03*
G54D11*
X22799Y-38398D03*
X23799Y-39398D03*
X23799Y-38398D03*
X24799Y-39398D03*
X24799Y-38398D03*
X25799Y-39398D03*
X25799Y-38398D03*
X26799Y-39398D03*
X26799Y-38398D03*
X27799Y-39398D03*
X27799Y-38398D03*
X28799Y-39398D03*
X28799Y-38398D03*
X29799Y-39398D03*
X29799Y-38398D03*
G54D12*
X22799Y-26799D03*
G54D11*
X22799Y-25799D03*
X23799Y-26799D03*
X23799Y-25799D03*
X24799Y-26799D03*
X24799Y-25799D03*
X25799Y-26799D03*
X25799Y-25799D03*
X26799Y-26799D03*
X26799Y-25799D03*
X27799Y-26799D03*
X27799Y-25799D03*
X28799Y-26799D03*
X28799Y-25799D03*
X29799Y-26799D03*
X29799Y-25799D03*
M02*
