G04 (created by PCBNEW-RS274X (2011-aug-04)-testing) date Sun 07 Apr 2013 12:32:43 PM PDT*
G01*
G70*
G90*
%MOIN*%
G04 Gerber Fmt 3.4, Leading zero omitted, Abs format*
%FSLAX34Y34*%
G04 APERTURE LIST*
%ADD10C,0.006000*%
%ADD11C,0.012000*%
G04 APERTURE END LIST*
G54D10*
G54D11*
X24913Y-44505D02*
X24999Y-44543D01*
X25027Y-44581D01*
X25056Y-44657D01*
X25056Y-44771D01*
X25027Y-44848D01*
X24999Y-44886D01*
X24941Y-44924D01*
X24713Y-44924D01*
X24713Y-44124D01*
X24913Y-44124D01*
X24970Y-44162D01*
X24999Y-44200D01*
X25027Y-44276D01*
X25027Y-44352D01*
X24999Y-44429D01*
X24970Y-44467D01*
X24913Y-44505D01*
X24713Y-44505D01*
X25427Y-44124D02*
X25541Y-44124D01*
X25599Y-44162D01*
X25656Y-44238D01*
X25684Y-44390D01*
X25684Y-44657D01*
X25656Y-44810D01*
X25599Y-44886D01*
X25541Y-44924D01*
X25427Y-44924D01*
X25370Y-44886D01*
X25313Y-44810D01*
X25284Y-44657D01*
X25284Y-44390D01*
X25313Y-44238D01*
X25370Y-44162D01*
X25427Y-44124D01*
X25856Y-44124D02*
X26199Y-44124D01*
X26028Y-44924D02*
X26028Y-44124D01*
X26313Y-44124D02*
X26656Y-44124D01*
X26485Y-44924D02*
X26485Y-44124D01*
X26970Y-44124D02*
X27084Y-44124D01*
X27142Y-44162D01*
X27199Y-44238D01*
X27227Y-44390D01*
X27227Y-44657D01*
X27199Y-44810D01*
X27142Y-44886D01*
X27084Y-44924D01*
X26970Y-44924D01*
X26913Y-44886D01*
X26856Y-44810D01*
X26827Y-44657D01*
X26827Y-44390D01*
X26856Y-44238D01*
X26913Y-44162D01*
X26970Y-44124D01*
X27485Y-44924D02*
X27485Y-44124D01*
X27685Y-44695D01*
X27885Y-44124D01*
X27885Y-44924D01*
X25513Y-20224D02*
X25856Y-20224D01*
X25685Y-21024D02*
X25685Y-20224D01*
X26170Y-20224D02*
X26284Y-20224D01*
X26342Y-20262D01*
X26399Y-20338D01*
X26427Y-20490D01*
X26427Y-20757D01*
X26399Y-20910D01*
X26342Y-20986D01*
X26284Y-21024D01*
X26170Y-21024D01*
X26113Y-20986D01*
X26056Y-20910D01*
X26027Y-20757D01*
X26027Y-20490D01*
X26056Y-20338D01*
X26113Y-20262D01*
X26170Y-20224D01*
X26685Y-21024D02*
X26685Y-20224D01*
X26913Y-20224D01*
X26971Y-20262D01*
X26999Y-20300D01*
X27028Y-20376D01*
X27028Y-20490D01*
X26999Y-20567D01*
X26971Y-20605D01*
X26913Y-20643D01*
X26685Y-20643D01*
X22399Y-39798D02*
X22399Y-37998D01*
X22399Y-37998D02*
X30199Y-37998D01*
X30199Y-37998D02*
X30199Y-39798D01*
X30199Y-39798D02*
X22399Y-39798D01*
X22399Y-27199D02*
X22399Y-25399D01*
X22399Y-25399D02*
X30199Y-25399D01*
X30199Y-25399D02*
X30199Y-27199D01*
X30199Y-27199D02*
X22399Y-27199D01*
M02*
