M48
;DRILL file {PCBnew (2011-aug-04)-testing} date Wed 17 Apr 2013 04:11:40 PM PDT
;FORMAT={2:4/ absolute / inch / suppress trailing zeros}
FMAT,2
INCH,LZ
T1C0.025
T2C0.040
%
G90
G05
M72
T1
X029799Y-029696
T2
X021575Y-022798
X021575Y-023798
X021575Y-024798
X021575Y-025798
X021575Y-026798
X021575Y-027798
X021575Y-028798
X021575Y-029798
X021575Y-035397
X021575Y-036397
X021575Y-037397
X021575Y-038397
X021575Y-039397
X021575Y-040397
X021575Y-041397
X021575Y-042397
X022799Y-025799
X022799Y-026799
X022799Y-038398
X022799Y-039398
X023799Y-025799
X023799Y-026799
X023799Y-038398
X023799Y-039398
X024799Y-025799
X024799Y-026799
X024799Y-038398
X024799Y-039398
X025799Y-025799
X025799Y-026799
X025799Y-038398
X025799Y-039398
X026799Y-025799
X026799Y-026799
X026799Y-038398
X026799Y-039398
X027799Y-025799
X027799Y-026799
X027799Y-038398
X027799Y-039398
X028799Y-025799
X028799Y-026799
X028799Y-038398
X028799Y-039398
X029799Y-025799
X029799Y-026799
X029799Y-038398
X029799Y-039398
X031024Y-022798
X031024Y-023798
X031024Y-024798
X031024Y-025798
X031024Y-026798
X031024Y-027798
X031024Y-028798
X031024Y-029798
X031024Y-035397
X031024Y-036397
X031024Y-037397
X031024Y-038397
X031024Y-039397
X031024Y-040397
X031024Y-041397
X031024Y-042397
T0
M30
