G04 (created by PCBNEW-RS274X (2011-aug-04)-testing) date Sun 07 Apr 2013 12:32:43 PM PDT*
G01*
G70*
G90*
%MOIN*%
G04 Gerber Fmt 3.4, Leading zero omitted, Abs format*
%FSLAX34Y34*%
G04 APERTURE LIST*
%ADD10C,0.006000*%
%ADD11C,0.060000*%
%ADD12R,0.060000X0.060000*%
%ADD13C,0.035000*%
%ADD14C,0.012000*%
G04 APERTURE END LIST*
G54D10*
G54D11*
X21575Y-35397D03*
X21575Y-36397D03*
X21575Y-37397D03*
X21575Y-38397D03*
X21575Y-39397D03*
X21575Y-40397D03*
X21575Y-41397D03*
X21575Y-42397D03*
G54D12*
X31024Y-42397D03*
G54D11*
X31024Y-41397D03*
X31024Y-40397D03*
X31024Y-39397D03*
X31024Y-38397D03*
X31024Y-37397D03*
X31024Y-36397D03*
X31024Y-35397D03*
X21575Y-22798D03*
X21575Y-23798D03*
X21575Y-24798D03*
X21575Y-25798D03*
X21575Y-26798D03*
X21575Y-27798D03*
X21575Y-28798D03*
X21575Y-29798D03*
G54D12*
X31024Y-29798D03*
G54D11*
X31024Y-28798D03*
X31024Y-27798D03*
X31024Y-26798D03*
X31024Y-25798D03*
X31024Y-24798D03*
X31024Y-23798D03*
X31024Y-22798D03*
G54D12*
X22799Y-39398D03*
G54D11*
X22799Y-38398D03*
X23799Y-39398D03*
X23799Y-38398D03*
X24799Y-39398D03*
X24799Y-38398D03*
X25799Y-39398D03*
X25799Y-38398D03*
X26799Y-39398D03*
X26799Y-38398D03*
X27799Y-39398D03*
X27799Y-38398D03*
X28799Y-39398D03*
X28799Y-38398D03*
X29799Y-39398D03*
X29799Y-38398D03*
G54D12*
X22799Y-26799D03*
G54D11*
X22799Y-25799D03*
X23799Y-26799D03*
X23799Y-25799D03*
X24799Y-26799D03*
X24799Y-25799D03*
X25799Y-26799D03*
X25799Y-25799D03*
X26799Y-26799D03*
X26799Y-25799D03*
X27799Y-26799D03*
X27799Y-25799D03*
X28799Y-26799D03*
X28799Y-25799D03*
X29799Y-26799D03*
X29799Y-25799D03*
G54D13*
X29799Y-29696D03*
G54D14*
X27890Y-40307D02*
X28799Y-39398D01*
X22485Y-40307D02*
X27890Y-40307D01*
X21575Y-39397D02*
X22485Y-40307D01*
X23223Y-22223D02*
X26799Y-25799D01*
X21448Y-22223D02*
X23223Y-22223D01*
X21111Y-22560D02*
X21448Y-22223D01*
X21111Y-23334D02*
X21111Y-22560D01*
X21575Y-23798D02*
X21111Y-23334D01*
X27299Y-26299D02*
X27799Y-26799D01*
X27299Y-25616D02*
X27299Y-26299D01*
X23681Y-21998D02*
X27299Y-25616D01*
X21317Y-21998D02*
X23681Y-21998D01*
X20858Y-22457D02*
X21317Y-21998D01*
X20858Y-24081D02*
X20858Y-22457D01*
X21575Y-24798D02*
X20858Y-24081D01*
X29799Y-26799D02*
X29799Y-29696D01*
X27800Y-41397D02*
X29799Y-39398D01*
X21575Y-41397D02*
X27800Y-41397D01*
X30335Y-38934D02*
X29799Y-38398D01*
X30335Y-39825D02*
X30335Y-38934D01*
X27763Y-42397D02*
X30335Y-39825D01*
X21575Y-42397D02*
X27763Y-42397D01*
X26336Y-39861D02*
X26799Y-39398D01*
X24368Y-39861D02*
X26336Y-39861D01*
X24334Y-39827D02*
X24368Y-39861D01*
X24334Y-39250D02*
X24334Y-39827D01*
X23982Y-38898D02*
X24334Y-39250D01*
X23522Y-38898D02*
X23982Y-38898D01*
X23262Y-38638D02*
X23522Y-38898D01*
X23262Y-37084D02*
X23262Y-38638D01*
X21575Y-35397D02*
X23262Y-37084D01*
X24335Y-32637D02*
X21575Y-35397D01*
X24335Y-26295D02*
X24335Y-32637D01*
X24367Y-26263D02*
X24335Y-26295D01*
X24335Y-26231D02*
X24367Y-26263D01*
X24335Y-25558D02*
X24335Y-26231D01*
X21575Y-22798D02*
X24335Y-25558D01*
X26263Y-26263D02*
X26799Y-26799D01*
X24367Y-26263D02*
X26263Y-26263D01*
X21039Y-39861D02*
X21575Y-40397D01*
X21039Y-28334D02*
X21039Y-39861D01*
X21575Y-27798D02*
X21039Y-28334D01*
X29263Y-38862D02*
X28799Y-38398D01*
X29263Y-39590D02*
X29263Y-38862D01*
X28323Y-40530D02*
X29263Y-39590D01*
X21708Y-40530D02*
X28323Y-40530D01*
X21575Y-40397D02*
X21708Y-40530D01*
X29299Y-37898D02*
X28799Y-38398D01*
X29299Y-26299D02*
X29299Y-37898D01*
X28799Y-25799D02*
X29299Y-26299D01*
X30337Y-34710D02*
X31024Y-35397D01*
X30337Y-23485D02*
X30337Y-34710D01*
X31024Y-22798D02*
X30337Y-23485D01*
X28299Y-37898D02*
X27799Y-38398D01*
X28299Y-26299D02*
X28299Y-37898D01*
X27799Y-25799D02*
X28299Y-26299D01*
X27299Y-38898D02*
X27799Y-38398D01*
X27299Y-39601D02*
X27299Y-38898D01*
X26816Y-40084D02*
X27299Y-39601D01*
X22592Y-40084D02*
X26816Y-40084D01*
X22111Y-39603D02*
X22592Y-40084D01*
X22111Y-38933D02*
X22111Y-39603D01*
X21575Y-38397D02*
X22111Y-38933D01*
X23774Y-21774D02*
X27799Y-25799D01*
X21069Y-21774D02*
X23774Y-21774D01*
X20634Y-22209D02*
X21069Y-21774D01*
X20634Y-24857D02*
X20634Y-22209D01*
X21575Y-25798D02*
X20634Y-24857D01*
X31024Y-29798D02*
X31024Y-30261D01*
X31024Y-42397D02*
X31024Y-41934D01*
X31710Y-30947D02*
X31024Y-30261D01*
X31710Y-41677D02*
X31710Y-30947D01*
X31453Y-41934D02*
X31710Y-41677D01*
X31024Y-41934D02*
X31453Y-41934D01*
X26299Y-38898D02*
X25799Y-39398D01*
X26299Y-27299D02*
X26299Y-38898D01*
X25799Y-26799D02*
X26299Y-27299D01*
X31487Y-40934D02*
X31024Y-41397D01*
X31487Y-34717D02*
X31487Y-40934D01*
X30561Y-33791D02*
X31487Y-34717D01*
X30561Y-29261D02*
X30561Y-33791D01*
X31024Y-28798D02*
X30561Y-29261D01*
X25299Y-38898D02*
X24799Y-39398D01*
X25299Y-27299D02*
X25299Y-38898D01*
X24799Y-26799D02*
X25299Y-27299D01*
M02*
