G04 (created by PCBNEW-RS274X (2011-aug-04)-testing) date Sun 07 Apr 2013 12:32:43 PM PDT*
G01*
G70*
G90*
%MOIN*%
G04 Gerber Fmt 3.4, Leading zero omitted, Abs format*
%FSLAX34Y34*%
G04 APERTURE LIST*
%ADD10C,0.006000*%
%ADD11C,0.060000*%
%ADD12R,0.060000X0.060000*%
%ADD13C,0.035000*%
%ADD14C,0.012000*%
G04 APERTURE END LIST*
G54D10*
G54D11*
X21575Y-35397D03*
X21575Y-36397D03*
X21575Y-37397D03*
X21575Y-38397D03*
X21575Y-39397D03*
X21575Y-40397D03*
X21575Y-41397D03*
X21575Y-42397D03*
G54D12*
X31024Y-42397D03*
G54D11*
X31024Y-41397D03*
X31024Y-40397D03*
X31024Y-39397D03*
X31024Y-38397D03*
X31024Y-37397D03*
X31024Y-36397D03*
X31024Y-35397D03*
X21575Y-22798D03*
X21575Y-23798D03*
X21575Y-24798D03*
X21575Y-25798D03*
X21575Y-26798D03*
X21575Y-27798D03*
X21575Y-28798D03*
X21575Y-29798D03*
G54D12*
X31024Y-29798D03*
G54D11*
X31024Y-28798D03*
X31024Y-27798D03*
X31024Y-26798D03*
X31024Y-25798D03*
X31024Y-24798D03*
X31024Y-23798D03*
X31024Y-22798D03*
G54D12*
X22799Y-39398D03*
G54D11*
X22799Y-38398D03*
X23799Y-39398D03*
X23799Y-38398D03*
X24799Y-39398D03*
X24799Y-38398D03*
X25799Y-39398D03*
X25799Y-38398D03*
X26799Y-39398D03*
X26799Y-38398D03*
X27799Y-39398D03*
X27799Y-38398D03*
X28799Y-39398D03*
X28799Y-38398D03*
X29799Y-39398D03*
X29799Y-38398D03*
G54D12*
X22799Y-26799D03*
G54D11*
X22799Y-25799D03*
X23799Y-26799D03*
X23799Y-25799D03*
X24799Y-26799D03*
X24799Y-25799D03*
X25799Y-26799D03*
X25799Y-25799D03*
X26799Y-26799D03*
X26799Y-25799D03*
X27799Y-26799D03*
X27799Y-25799D03*
X28799Y-26799D03*
X28799Y-25799D03*
X29799Y-26799D03*
X29799Y-25799D03*
G54D13*
X29799Y-29696D03*
G54D14*
X30801Y-28021D02*
X31024Y-27798D01*
X25021Y-28021D02*
X30801Y-28021D01*
X23799Y-26799D02*
X25021Y-28021D01*
X30024Y-27798D02*
X31024Y-26798D01*
X25115Y-27798D02*
X30024Y-27798D01*
X24299Y-26982D02*
X25115Y-27798D01*
X24299Y-26299D02*
X24299Y-26982D01*
X23799Y-25799D02*
X24299Y-26299D01*
X31501Y-24321D02*
X31024Y-24798D01*
X31501Y-23366D02*
X31501Y-24321D01*
X31467Y-23332D02*
X31501Y-23366D01*
X28612Y-23332D02*
X31467Y-23332D01*
X26299Y-25645D02*
X28612Y-23332D01*
X26299Y-25982D02*
X26299Y-25645D01*
X25946Y-26335D02*
X26299Y-25982D01*
X25631Y-26335D02*
X25946Y-26335D01*
X25095Y-25799D02*
X25631Y-26335D01*
X24799Y-25799D02*
X25095Y-25799D01*
X22473Y-29696D02*
X29799Y-29696D01*
X21575Y-28798D02*
X22473Y-29696D01*
X30279Y-25319D02*
X29799Y-25799D01*
X31454Y-25319D02*
X30279Y-25319D01*
X31488Y-25353D02*
X31454Y-25319D01*
X31488Y-30228D02*
X31488Y-25353D01*
X31454Y-30262D02*
X31488Y-30228D01*
X22039Y-30262D02*
X31454Y-30262D01*
X21575Y-29798D02*
X22039Y-30262D01*
X30862Y-40559D02*
X31024Y-40397D01*
X24656Y-40559D02*
X30862Y-40559D01*
X23799Y-39702D02*
X24656Y-40559D01*
X23799Y-39398D02*
X23799Y-39702D01*
X30085Y-40336D02*
X31024Y-39397D01*
X24990Y-40336D02*
X30085Y-40336D01*
X24333Y-39679D02*
X24990Y-40336D01*
X24333Y-38932D02*
X24333Y-39679D01*
X23799Y-38398D02*
X24333Y-38932D01*
X26482Y-38398D02*
X26799Y-38398D01*
X26016Y-38864D02*
X26482Y-38398D01*
X25367Y-38864D02*
X26016Y-38864D01*
X25333Y-38830D02*
X25367Y-38864D01*
X25333Y-37822D02*
X25333Y-38830D01*
X23908Y-36397D02*
X25333Y-37822D01*
X21575Y-36397D02*
X23908Y-36397D01*
X24799Y-37777D02*
X24799Y-38398D01*
X23885Y-36863D02*
X24799Y-37777D01*
X21133Y-36863D02*
X23885Y-36863D01*
X21099Y-36829D02*
X21133Y-36863D01*
X21099Y-35961D02*
X21099Y-36829D01*
X21163Y-35897D02*
X21099Y-35961D01*
X21777Y-35897D02*
X21163Y-35897D01*
X22742Y-34932D02*
X21777Y-35897D01*
X31469Y-34932D02*
X22742Y-34932D01*
X31503Y-34966D02*
X31469Y-34932D01*
X31503Y-36918D02*
X31503Y-34966D01*
X31024Y-37397D02*
X31503Y-36918D01*
X27308Y-39889D02*
X27799Y-39398D01*
X25485Y-39889D02*
X27308Y-39889D01*
X25299Y-39703D02*
X25485Y-39889D01*
X25299Y-39228D02*
X25299Y-39703D01*
X24960Y-38889D02*
X25299Y-39228D01*
X24634Y-38889D02*
X24960Y-38889D01*
X24263Y-38518D02*
X24634Y-38889D01*
X24263Y-37956D02*
X24263Y-38518D01*
X23704Y-37397D02*
X24263Y-37956D01*
X21575Y-37397D02*
X23704Y-37397D01*
X28247Y-27351D02*
X28799Y-26799D01*
X25668Y-27351D02*
X28247Y-27351D01*
X25333Y-27016D02*
X25668Y-27351D01*
X25333Y-26413D02*
X25333Y-27016D01*
X25183Y-26263D02*
X25333Y-26413D01*
X24600Y-26263D02*
X25183Y-26263D01*
X24263Y-25926D02*
X24600Y-26263D01*
X24263Y-25606D02*
X24263Y-25926D01*
X23992Y-25335D02*
X24263Y-25606D01*
X22368Y-25335D02*
X23992Y-25335D01*
X22187Y-25516D02*
X22368Y-25335D01*
X22187Y-26186D02*
X22187Y-25516D01*
X21575Y-26798D02*
X22187Y-26186D01*
X28800Y-35397D02*
X25799Y-38398D01*
X31024Y-35397D02*
X28800Y-35397D01*
X28800Y-22798D02*
X25799Y-25799D01*
X31024Y-22798D02*
X28800Y-22798D01*
X22799Y-26799D02*
X22799Y-27262D01*
X31024Y-29798D02*
X30561Y-29798D01*
X24855Y-42397D02*
X31024Y-42397D01*
X22799Y-40341D02*
X24855Y-42397D01*
X22799Y-39398D02*
X22799Y-40341D01*
X24895Y-29358D02*
X22799Y-27262D01*
X30121Y-29358D02*
X24895Y-29358D01*
X30561Y-29798D02*
X30121Y-29358D01*
X28517Y-23798D02*
X31024Y-23798D01*
X27263Y-25052D02*
X28517Y-23798D01*
X27263Y-26231D02*
X27263Y-25052D01*
X27229Y-26265D02*
X27263Y-26231D01*
X26333Y-26265D02*
X27229Y-26265D01*
X25799Y-26799D02*
X26333Y-26265D01*
X29069Y-36397D02*
X31024Y-36397D01*
X27265Y-38201D02*
X29069Y-36397D01*
X27265Y-38828D02*
X27265Y-38201D01*
X27231Y-38862D02*
X27265Y-38828D01*
X26335Y-38862D02*
X27231Y-38862D01*
X25799Y-39398D02*
X26335Y-38862D01*
X23263Y-26263D02*
X22799Y-25799D01*
X23263Y-27223D02*
X23263Y-26263D01*
X24838Y-28798D02*
X23263Y-27223D01*
X31024Y-28798D02*
X24838Y-28798D01*
X23263Y-38862D02*
X22799Y-38398D01*
X23263Y-39786D02*
X23263Y-38862D01*
X24874Y-41397D02*
X23263Y-39786D01*
X31024Y-41397D02*
X24874Y-41397D01*
X25575Y-27575D02*
X24799Y-26799D01*
X28732Y-27575D02*
X25575Y-27575D01*
X29333Y-26974D02*
X28732Y-27575D01*
X29333Y-26369D02*
X29333Y-26974D01*
X29367Y-26335D02*
X29333Y-26369D01*
X30487Y-26335D02*
X29367Y-26335D01*
X31024Y-25798D02*
X30487Y-26335D01*
X30333Y-39088D02*
X31024Y-38397D01*
X30333Y-39771D02*
X30333Y-39088D01*
X29991Y-40113D02*
X30333Y-39771D01*
X25194Y-40113D02*
X29991Y-40113D01*
X24799Y-39718D02*
X25194Y-40113D01*
X24799Y-39398D02*
X24799Y-39718D01*
M02*
