G04 (created by PCBNEW-RS274X (2011-aug-04)-testing) date Wed 17 Apr 2013 04:11:37 PM PDT*
G01*
G70*
G90*
%MOIN*%
G04 Gerber Fmt 3.4, Leading zero omitted, Abs format*
%FSLAX34Y34*%
G04 APERTURE LIST*
%ADD10C,0.006000*%
%ADD11C,0.008000*%
%ADD12C,0.012000*%
G04 APERTURE END LIST*
G54D10*
G54D11*
X29853Y-20993D02*
X29624Y-20993D01*
X29739Y-21593D02*
X29739Y-20993D01*
X29529Y-21193D02*
X29453Y-21593D01*
X29376Y-21307D01*
X29300Y-21593D01*
X29224Y-21193D01*
X29015Y-21593D02*
X29053Y-21564D01*
X29072Y-21536D01*
X29091Y-21479D01*
X29091Y-21307D01*
X29072Y-21250D01*
X29053Y-21221D01*
X29015Y-21193D01*
X28957Y-21193D01*
X28919Y-21221D01*
X28900Y-21250D01*
X28881Y-21307D01*
X28881Y-21479D01*
X28900Y-21536D01*
X28919Y-21564D01*
X28957Y-21593D01*
X29015Y-21593D01*
X28405Y-21593D02*
X28405Y-20993D01*
X28252Y-20993D01*
X28214Y-21021D01*
X28195Y-21050D01*
X28176Y-21107D01*
X28176Y-21193D01*
X28195Y-21250D01*
X28214Y-21279D01*
X28252Y-21307D01*
X28405Y-21307D01*
X27833Y-21593D02*
X27833Y-21279D01*
X27852Y-21221D01*
X27890Y-21193D01*
X27967Y-21193D01*
X28005Y-21221D01*
X27833Y-21564D02*
X27871Y-21593D01*
X27967Y-21593D01*
X28005Y-21564D01*
X28024Y-21507D01*
X28024Y-21450D01*
X28005Y-21393D01*
X27967Y-21364D01*
X27871Y-21364D01*
X27833Y-21336D01*
X27643Y-21193D02*
X27643Y-21593D01*
X27643Y-21250D02*
X27624Y-21221D01*
X27586Y-21193D01*
X27528Y-21193D01*
X27490Y-21221D01*
X27471Y-21279D01*
X27471Y-21593D01*
X27128Y-21564D02*
X27166Y-21593D01*
X27243Y-21593D01*
X27281Y-21564D01*
X27300Y-21507D01*
X27300Y-21279D01*
X27281Y-21221D01*
X27243Y-21193D01*
X27166Y-21193D01*
X27128Y-21221D01*
X27109Y-21279D01*
X27109Y-21336D01*
X27300Y-21393D01*
X26881Y-21593D02*
X26919Y-21564D01*
X26938Y-21507D01*
X26938Y-20993D01*
X26442Y-21421D02*
X26251Y-21421D01*
X26480Y-21593D02*
X26347Y-20993D01*
X26213Y-21593D01*
X25908Y-21593D02*
X25908Y-20993D01*
X25908Y-21564D02*
X25946Y-21593D01*
X26023Y-21593D01*
X26061Y-21564D01*
X26080Y-21536D01*
X26099Y-21479D01*
X26099Y-21307D01*
X26080Y-21250D01*
X26061Y-21221D01*
X26023Y-21193D01*
X25946Y-21193D01*
X25908Y-21221D01*
X25546Y-21593D02*
X25546Y-21279D01*
X25565Y-21221D01*
X25603Y-21193D01*
X25680Y-21193D01*
X25718Y-21221D01*
X25546Y-21564D02*
X25584Y-21593D01*
X25680Y-21593D01*
X25718Y-21564D01*
X25737Y-21507D01*
X25737Y-21450D01*
X25718Y-21393D01*
X25680Y-21364D01*
X25584Y-21364D01*
X25546Y-21336D01*
X25356Y-21193D02*
X25356Y-21793D01*
X25356Y-21221D02*
X25318Y-21193D01*
X25241Y-21193D01*
X25203Y-21221D01*
X25184Y-21250D01*
X25165Y-21307D01*
X25165Y-21479D01*
X25184Y-21536D01*
X25203Y-21564D01*
X25241Y-21593D01*
X25318Y-21593D01*
X25356Y-21564D01*
X25051Y-21193D02*
X24899Y-21193D01*
X24994Y-20993D02*
X24994Y-21507D01*
X24975Y-21564D01*
X24937Y-21593D01*
X24899Y-21593D01*
X24612Y-21564D02*
X24650Y-21593D01*
X24727Y-21593D01*
X24765Y-21564D01*
X24784Y-21507D01*
X24784Y-21279D01*
X24765Y-21221D01*
X24727Y-21193D01*
X24650Y-21193D01*
X24612Y-21221D01*
X24593Y-21279D01*
X24593Y-21336D01*
X24784Y-21393D01*
X24422Y-21593D02*
X24422Y-21193D01*
X24422Y-21307D02*
X24403Y-21250D01*
X24384Y-21221D01*
X24346Y-21193D01*
X24307Y-21193D01*
X23926Y-20993D02*
X23793Y-21593D01*
X23659Y-20993D01*
X23450Y-20993D02*
X23411Y-20993D01*
X23373Y-21021D01*
X23354Y-21050D01*
X23335Y-21107D01*
X23316Y-21221D01*
X23316Y-21364D01*
X23335Y-21479D01*
X23354Y-21536D01*
X23373Y-21564D01*
X23411Y-21593D01*
X23450Y-21593D01*
X23488Y-21564D01*
X23507Y-21536D01*
X23526Y-21479D01*
X23545Y-21364D01*
X23545Y-21221D01*
X23526Y-21107D01*
X23507Y-21050D01*
X23488Y-21021D01*
X23450Y-20993D01*
X23145Y-21536D02*
X23126Y-21564D01*
X23145Y-21593D01*
X23164Y-21564D01*
X23145Y-21536D01*
X23145Y-21593D01*
X22745Y-21593D02*
X22974Y-21593D01*
X22860Y-21593D02*
X22860Y-20993D01*
X22898Y-21079D01*
X22936Y-21136D01*
X22974Y-21164D01*
X28156Y-22513D02*
X28156Y-21913D01*
X27890Y-21913D02*
X27813Y-21913D01*
X27775Y-21941D01*
X27737Y-21999D01*
X27718Y-22113D01*
X27718Y-22313D01*
X27737Y-22427D01*
X27775Y-22484D01*
X27813Y-22513D01*
X27890Y-22513D01*
X27928Y-22484D01*
X27966Y-22427D01*
X27985Y-22313D01*
X27985Y-22113D01*
X27966Y-21999D01*
X27928Y-21941D01*
X27890Y-21913D01*
X27013Y-22513D02*
X27147Y-22227D01*
X27242Y-22513D02*
X27242Y-21913D01*
X27089Y-21913D01*
X27051Y-21941D01*
X27032Y-21970D01*
X27013Y-22027D01*
X27013Y-22113D01*
X27032Y-22170D01*
X27051Y-22199D01*
X27089Y-22227D01*
X27242Y-22227D01*
X26785Y-22513D02*
X26823Y-22484D01*
X26842Y-22456D01*
X26861Y-22399D01*
X26861Y-22227D01*
X26842Y-22170D01*
X26823Y-22141D01*
X26785Y-22113D01*
X26727Y-22113D01*
X26689Y-22141D01*
X26670Y-22170D01*
X26651Y-22227D01*
X26651Y-22399D01*
X26670Y-22456D01*
X26689Y-22484D01*
X26727Y-22513D01*
X26785Y-22513D01*
X26308Y-22513D02*
X26308Y-21913D01*
X26308Y-22484D02*
X26346Y-22513D01*
X26423Y-22513D01*
X26461Y-22484D01*
X26480Y-22456D01*
X26499Y-22399D01*
X26499Y-22227D01*
X26480Y-22170D01*
X26461Y-22141D01*
X26423Y-22113D01*
X26346Y-22113D01*
X26308Y-22141D01*
X25965Y-22484D02*
X26003Y-22513D01*
X26080Y-22513D01*
X26118Y-22484D01*
X26137Y-22427D01*
X26137Y-22199D01*
X26118Y-22141D01*
X26080Y-22113D01*
X26003Y-22113D01*
X25965Y-22141D01*
X25946Y-22199D01*
X25946Y-22256D01*
X26137Y-22313D01*
X25718Y-22513D02*
X25756Y-22484D01*
X25775Y-22456D01*
X25794Y-22399D01*
X25794Y-22227D01*
X25775Y-22170D01*
X25756Y-22141D01*
X25718Y-22113D01*
X25660Y-22113D01*
X25622Y-22141D01*
X25603Y-22170D01*
X25584Y-22227D01*
X25584Y-22399D01*
X25603Y-22456D01*
X25622Y-22484D01*
X25660Y-22513D01*
X25718Y-22513D01*
X25108Y-22513D02*
X25108Y-21913D01*
X24918Y-22113D02*
X24918Y-22513D01*
X24918Y-22170D02*
X24899Y-22141D01*
X24861Y-22113D01*
X24803Y-22113D01*
X24765Y-22141D01*
X24746Y-22199D01*
X24746Y-22513D01*
X24384Y-22484D02*
X24422Y-22513D01*
X24499Y-22513D01*
X24537Y-22484D01*
X24556Y-22456D01*
X24575Y-22399D01*
X24575Y-22227D01*
X24556Y-22170D01*
X24537Y-22141D01*
X24499Y-22113D01*
X24422Y-22113D01*
X24384Y-22141D01*
X32125Y-44569D02*
X32068Y-44597D01*
X32049Y-44626D01*
X32030Y-44683D01*
X32030Y-44769D01*
X32049Y-44826D01*
X32068Y-44854D01*
X32106Y-44883D01*
X32259Y-44883D01*
X32259Y-44283D01*
X32125Y-44283D01*
X32087Y-44311D01*
X32068Y-44340D01*
X32049Y-44397D01*
X32049Y-44454D01*
X32068Y-44511D01*
X32087Y-44540D01*
X32125Y-44569D01*
X32259Y-44569D01*
X31783Y-44283D02*
X31706Y-44283D01*
X31668Y-44311D01*
X31630Y-44369D01*
X31611Y-44483D01*
X31611Y-44683D01*
X31630Y-44797D01*
X31668Y-44854D01*
X31706Y-44883D01*
X31783Y-44883D01*
X31821Y-44854D01*
X31859Y-44797D01*
X31878Y-44683D01*
X31878Y-44483D01*
X31859Y-44369D01*
X31821Y-44311D01*
X31783Y-44283D01*
X31497Y-44283D02*
X31268Y-44283D01*
X31383Y-44883D02*
X31383Y-44283D01*
X32214Y-20313D02*
X31985Y-20313D01*
X32100Y-20913D02*
X32100Y-20313D01*
X31776Y-20313D02*
X31699Y-20313D01*
X31661Y-20341D01*
X31623Y-20399D01*
X31604Y-20513D01*
X31604Y-20713D01*
X31623Y-20827D01*
X31661Y-20884D01*
X31699Y-20913D01*
X31776Y-20913D01*
X31814Y-20884D01*
X31852Y-20827D01*
X31871Y-20713D01*
X31871Y-20513D01*
X31852Y-20399D01*
X31814Y-20341D01*
X31776Y-20313D01*
X31433Y-20913D02*
X31433Y-20313D01*
X31280Y-20313D01*
X31242Y-20341D01*
X31223Y-20370D01*
X31204Y-20427D01*
X31204Y-20513D01*
X31223Y-20570D01*
X31242Y-20599D01*
X31280Y-20627D01*
X31433Y-20627D01*
G54D12*
X22399Y-39798D02*
X22399Y-37998D01*
X22399Y-37998D02*
X30199Y-37998D01*
X30199Y-37998D02*
X30199Y-39798D01*
X30199Y-39798D02*
X22399Y-39798D01*
X22399Y-27199D02*
X22399Y-25399D01*
X22399Y-25399D02*
X30199Y-25399D01*
X30199Y-25399D02*
X30199Y-27199D01*
X30199Y-27199D02*
X22399Y-27199D01*
M02*
