G04 (created by PCBNEW-RS274X (2011-aug-04)-testing) date Wed 17 Apr 2013 04:11:37 PM PDT*
G01*
G70*
G90*
%MOIN*%
G04 Gerber Fmt 3.4, Leading zero omitted, Abs format*
%FSLAX34Y34*%
G04 APERTURE LIST*
%ADD10C,0.006000*%
%ADD11C,0.008000*%
G04 APERTURE END LIST*
G54D10*
G54D11*
X25976Y-36062D02*
X25976Y-35662D01*
X26110Y-35948D01*
X26243Y-35662D01*
X26243Y-36062D01*
X26643Y-36062D02*
X26414Y-36062D01*
X26528Y-36062D02*
X26528Y-35662D01*
X26490Y-35719D01*
X26452Y-35757D01*
X26414Y-35776D01*
X23839Y-35462D02*
X23648Y-35462D01*
X23648Y-35062D01*
X23972Y-35252D02*
X24106Y-35252D01*
X24163Y-35462D02*
X23972Y-35462D01*
X23972Y-35062D01*
X24163Y-35062D01*
X24334Y-35462D02*
X24334Y-35062D01*
X24429Y-35062D01*
X24487Y-35081D01*
X24525Y-35119D01*
X24544Y-35157D01*
X24563Y-35233D01*
X24563Y-35290D01*
X24544Y-35367D01*
X24525Y-35405D01*
X24487Y-35443D01*
X24429Y-35462D01*
X24334Y-35462D01*
X24734Y-35310D02*
X25039Y-35310D01*
X25229Y-35462D02*
X25229Y-35062D01*
X25363Y-35348D01*
X25496Y-35062D01*
X25496Y-35462D01*
X25667Y-35348D02*
X25858Y-35348D01*
X25629Y-35462D02*
X25762Y-35062D01*
X25896Y-35462D01*
X25972Y-35062D02*
X26201Y-35062D01*
X26086Y-35462D02*
X26086Y-35062D01*
X26563Y-35462D02*
X26429Y-35271D01*
X26334Y-35462D02*
X26334Y-35062D01*
X26487Y-35062D01*
X26525Y-35081D01*
X26544Y-35100D01*
X26563Y-35138D01*
X26563Y-35195D01*
X26544Y-35233D01*
X26525Y-35252D01*
X26487Y-35271D01*
X26334Y-35271D01*
X26734Y-35462D02*
X26734Y-35062D01*
X26886Y-35062D02*
X27153Y-35462D01*
X27153Y-35062D02*
X26886Y-35462D01*
X27305Y-35310D02*
X27610Y-35310D01*
X27857Y-35233D02*
X27819Y-35214D01*
X27800Y-35195D01*
X27781Y-35157D01*
X27781Y-35138D01*
X27800Y-35100D01*
X27819Y-35081D01*
X27857Y-35062D01*
X27934Y-35062D01*
X27972Y-35081D01*
X27991Y-35100D01*
X28010Y-35138D01*
X28010Y-35157D01*
X27991Y-35195D01*
X27972Y-35214D01*
X27934Y-35233D01*
X27857Y-35233D01*
X27819Y-35252D01*
X27800Y-35271D01*
X27781Y-35310D01*
X27781Y-35386D01*
X27800Y-35424D01*
X27819Y-35443D01*
X27857Y-35462D01*
X27934Y-35462D01*
X27972Y-35443D01*
X27991Y-35424D01*
X28010Y-35386D01*
X28010Y-35310D01*
X27991Y-35271D01*
X27972Y-35252D01*
X27934Y-35233D01*
X28143Y-35062D02*
X28410Y-35462D01*
X28410Y-35062D02*
X28143Y-35462D01*
X28619Y-35233D02*
X28581Y-35214D01*
X28562Y-35195D01*
X28543Y-35157D01*
X28543Y-35138D01*
X28562Y-35100D01*
X28581Y-35081D01*
X28619Y-35062D01*
X28696Y-35062D01*
X28734Y-35081D01*
X28753Y-35100D01*
X28772Y-35138D01*
X28772Y-35157D01*
X28753Y-35195D01*
X28734Y-35214D01*
X28696Y-35233D01*
X28619Y-35233D01*
X28581Y-35252D01*
X28562Y-35271D01*
X28543Y-35310D01*
X28543Y-35386D01*
X28562Y-35424D01*
X28581Y-35443D01*
X28619Y-35462D01*
X28696Y-35462D01*
X28734Y-35443D01*
X28753Y-35424D01*
X28772Y-35386D01*
X28772Y-35310D01*
X28753Y-35271D01*
X28734Y-35252D01*
X28696Y-35233D01*
X25776Y-23562D02*
X25776Y-23162D01*
X25910Y-23448D01*
X26043Y-23162D01*
X26043Y-23562D01*
X26214Y-23200D02*
X26233Y-23181D01*
X26271Y-23162D01*
X26367Y-23162D01*
X26405Y-23181D01*
X26424Y-23200D01*
X26443Y-23238D01*
X26443Y-23276D01*
X26424Y-23333D01*
X26195Y-23562D01*
X26443Y-23562D01*
X23839Y-22862D02*
X23648Y-22862D01*
X23648Y-22462D01*
X23972Y-22652D02*
X24106Y-22652D01*
X24163Y-22862D02*
X23972Y-22862D01*
X23972Y-22462D01*
X24163Y-22462D01*
X24334Y-22862D02*
X24334Y-22462D01*
X24429Y-22462D01*
X24487Y-22481D01*
X24525Y-22519D01*
X24544Y-22557D01*
X24563Y-22633D01*
X24563Y-22690D01*
X24544Y-22767D01*
X24525Y-22805D01*
X24487Y-22843D01*
X24429Y-22862D01*
X24334Y-22862D01*
X24734Y-22710D02*
X25039Y-22710D01*
X25229Y-22862D02*
X25229Y-22462D01*
X25363Y-22748D01*
X25496Y-22462D01*
X25496Y-22862D01*
X25667Y-22748D02*
X25858Y-22748D01*
X25629Y-22862D02*
X25762Y-22462D01*
X25896Y-22862D01*
X25972Y-22462D02*
X26201Y-22462D01*
X26086Y-22862D02*
X26086Y-22462D01*
X26563Y-22862D02*
X26429Y-22671D01*
X26334Y-22862D02*
X26334Y-22462D01*
X26487Y-22462D01*
X26525Y-22481D01*
X26544Y-22500D01*
X26563Y-22538D01*
X26563Y-22595D01*
X26544Y-22633D01*
X26525Y-22652D01*
X26487Y-22671D01*
X26334Y-22671D01*
X26734Y-22862D02*
X26734Y-22462D01*
X26886Y-22462D02*
X27153Y-22862D01*
X27153Y-22462D02*
X26886Y-22862D01*
X27305Y-22710D02*
X27610Y-22710D01*
X27857Y-22633D02*
X27819Y-22614D01*
X27800Y-22595D01*
X27781Y-22557D01*
X27781Y-22538D01*
X27800Y-22500D01*
X27819Y-22481D01*
X27857Y-22462D01*
X27934Y-22462D01*
X27972Y-22481D01*
X27991Y-22500D01*
X28010Y-22538D01*
X28010Y-22557D01*
X27991Y-22595D01*
X27972Y-22614D01*
X27934Y-22633D01*
X27857Y-22633D01*
X27819Y-22652D01*
X27800Y-22671D01*
X27781Y-22710D01*
X27781Y-22786D01*
X27800Y-22824D01*
X27819Y-22843D01*
X27857Y-22862D01*
X27934Y-22862D01*
X27972Y-22843D01*
X27991Y-22824D01*
X28010Y-22786D01*
X28010Y-22710D01*
X27991Y-22671D01*
X27972Y-22652D01*
X27934Y-22633D01*
X28143Y-22462D02*
X28410Y-22862D01*
X28410Y-22462D02*
X28143Y-22862D01*
X28619Y-22633D02*
X28581Y-22614D01*
X28562Y-22595D01*
X28543Y-22557D01*
X28543Y-22538D01*
X28562Y-22500D01*
X28581Y-22481D01*
X28619Y-22462D01*
X28696Y-22462D01*
X28734Y-22481D01*
X28753Y-22500D01*
X28772Y-22538D01*
X28772Y-22557D01*
X28753Y-22595D01*
X28734Y-22614D01*
X28696Y-22633D01*
X28619Y-22633D01*
X28581Y-22652D01*
X28562Y-22671D01*
X28543Y-22710D01*
X28543Y-22786D01*
X28562Y-22824D01*
X28581Y-22843D01*
X28619Y-22862D01*
X28696Y-22862D01*
X28734Y-22843D01*
X28753Y-22824D01*
X28772Y-22786D01*
X28772Y-22710D01*
X28753Y-22671D01*
X28734Y-22652D01*
X28696Y-22633D01*
X25904Y-37760D02*
X25904Y-37360D01*
X26057Y-37360D01*
X26095Y-37379D01*
X26114Y-37398D01*
X26133Y-37436D01*
X26133Y-37493D01*
X26114Y-37531D01*
X26095Y-37550D01*
X26057Y-37569D01*
X25904Y-37569D01*
X26514Y-37760D02*
X26285Y-37760D01*
X26399Y-37760D02*
X26399Y-37360D01*
X26361Y-37417D01*
X26323Y-37455D01*
X26285Y-37474D01*
X25071Y-40322D02*
X25052Y-40341D01*
X24995Y-40360D01*
X24957Y-40360D01*
X24899Y-40341D01*
X24861Y-40303D01*
X24842Y-40265D01*
X24823Y-40188D01*
X24823Y-40131D01*
X24842Y-40055D01*
X24861Y-40017D01*
X24899Y-39979D01*
X24957Y-39960D01*
X24995Y-39960D01*
X25052Y-39979D01*
X25071Y-39998D01*
X25318Y-39960D02*
X25395Y-39960D01*
X25433Y-39979D01*
X25471Y-40017D01*
X25490Y-40093D01*
X25490Y-40227D01*
X25471Y-40303D01*
X25433Y-40341D01*
X25395Y-40360D01*
X25318Y-40360D01*
X25280Y-40341D01*
X25242Y-40303D01*
X25223Y-40227D01*
X25223Y-40093D01*
X25242Y-40017D01*
X25280Y-39979D01*
X25318Y-39960D01*
X25661Y-40360D02*
X25661Y-39960D01*
X25890Y-40360D01*
X25890Y-39960D01*
X26080Y-40360D02*
X26080Y-39960D01*
X26309Y-40360D01*
X26309Y-39960D01*
X26404Y-40398D02*
X26709Y-40398D01*
X26861Y-40131D02*
X26823Y-40112D01*
X26804Y-40093D01*
X26785Y-40055D01*
X26785Y-40036D01*
X26804Y-39998D01*
X26823Y-39979D01*
X26861Y-39960D01*
X26938Y-39960D01*
X26976Y-39979D01*
X26995Y-39998D01*
X27014Y-40036D01*
X27014Y-40055D01*
X26995Y-40093D01*
X26976Y-40112D01*
X26938Y-40131D01*
X26861Y-40131D01*
X26823Y-40150D01*
X26804Y-40169D01*
X26785Y-40208D01*
X26785Y-40284D01*
X26804Y-40322D01*
X26823Y-40341D01*
X26861Y-40360D01*
X26938Y-40360D01*
X26976Y-40341D01*
X26995Y-40322D01*
X27014Y-40284D01*
X27014Y-40208D01*
X26995Y-40169D01*
X26976Y-40150D01*
X26938Y-40131D01*
X27147Y-39960D02*
X27414Y-40360D01*
X27414Y-39960D02*
X27147Y-40360D01*
X27547Y-39998D02*
X27566Y-39979D01*
X27604Y-39960D01*
X27700Y-39960D01*
X27738Y-39979D01*
X27757Y-39998D01*
X27776Y-40036D01*
X27776Y-40074D01*
X27757Y-40131D01*
X27528Y-40360D01*
X27776Y-40360D01*
X25904Y-25161D02*
X25904Y-24761D01*
X26057Y-24761D01*
X26095Y-24780D01*
X26114Y-24799D01*
X26133Y-24837D01*
X26133Y-24894D01*
X26114Y-24932D01*
X26095Y-24951D01*
X26057Y-24970D01*
X25904Y-24970D01*
X26285Y-24799D02*
X26304Y-24780D01*
X26342Y-24761D01*
X26438Y-24761D01*
X26476Y-24780D01*
X26495Y-24799D01*
X26514Y-24837D01*
X26514Y-24875D01*
X26495Y-24932D01*
X26266Y-25161D01*
X26514Y-25161D01*
X25071Y-27723D02*
X25052Y-27742D01*
X24995Y-27761D01*
X24957Y-27761D01*
X24899Y-27742D01*
X24861Y-27704D01*
X24842Y-27666D01*
X24823Y-27589D01*
X24823Y-27532D01*
X24842Y-27456D01*
X24861Y-27418D01*
X24899Y-27380D01*
X24957Y-27361D01*
X24995Y-27361D01*
X25052Y-27380D01*
X25071Y-27399D01*
X25318Y-27361D02*
X25395Y-27361D01*
X25433Y-27380D01*
X25471Y-27418D01*
X25490Y-27494D01*
X25490Y-27628D01*
X25471Y-27704D01*
X25433Y-27742D01*
X25395Y-27761D01*
X25318Y-27761D01*
X25280Y-27742D01*
X25242Y-27704D01*
X25223Y-27628D01*
X25223Y-27494D01*
X25242Y-27418D01*
X25280Y-27380D01*
X25318Y-27361D01*
X25661Y-27761D02*
X25661Y-27361D01*
X25890Y-27761D01*
X25890Y-27361D01*
X26080Y-27761D02*
X26080Y-27361D01*
X26309Y-27761D01*
X26309Y-27361D01*
X26404Y-27799D02*
X26709Y-27799D01*
X26861Y-27532D02*
X26823Y-27513D01*
X26804Y-27494D01*
X26785Y-27456D01*
X26785Y-27437D01*
X26804Y-27399D01*
X26823Y-27380D01*
X26861Y-27361D01*
X26938Y-27361D01*
X26976Y-27380D01*
X26995Y-27399D01*
X27014Y-27437D01*
X27014Y-27456D01*
X26995Y-27494D01*
X26976Y-27513D01*
X26938Y-27532D01*
X26861Y-27532D01*
X26823Y-27551D01*
X26804Y-27570D01*
X26785Y-27609D01*
X26785Y-27685D01*
X26804Y-27723D01*
X26823Y-27742D01*
X26861Y-27761D01*
X26938Y-27761D01*
X26976Y-27742D01*
X26995Y-27723D01*
X27014Y-27685D01*
X27014Y-27609D01*
X26995Y-27570D01*
X26976Y-27551D01*
X26938Y-27532D01*
X27147Y-27361D02*
X27414Y-27761D01*
X27414Y-27361D02*
X27147Y-27761D01*
X27547Y-27399D02*
X27566Y-27380D01*
X27604Y-27361D01*
X27700Y-27361D01*
X27738Y-27380D01*
X27757Y-27399D01*
X27776Y-27437D01*
X27776Y-27475D01*
X27757Y-27532D01*
X27528Y-27761D01*
X27776Y-27761D01*
M02*
