G04 (created by PCBNEW (2013-mar-13)-testing) date Tue 12 Nov 2013 05:14:33 PM PST*
%MOIN*%
G04 Gerber Fmt 3.4, Leading zero omitted, Abs format*
%FSLAX34Y34*%
G01*
G70*
G90*
G04 APERTURE LIST*
%ADD10C,0.005906*%
%ADD11C,0.100000*%
%ADD12R,0.060000X0.060000*%
%ADD13C,0.060000*%
%ADD14C,0.200000*%
%ADD15C,0.181100*%
%ADD16C,0.130000*%
%ADD17C,0.035000*%
%ADD18C,0.040000*%
%ADD19C,0.010000*%
G04 APERTURE END LIST*
G54D10*
G54D11*
X34039Y-28740D03*
X36039Y-28740D03*
X50181Y-28740D03*
X52181Y-28740D03*
X65929Y-28740D03*
X67929Y-28740D03*
X82070Y-28740D03*
X84070Y-28740D03*
X97425Y-28740D03*
X99425Y-28740D03*
G54D12*
X39795Y-26484D03*
G54D13*
X39795Y-25484D03*
X40795Y-26484D03*
X40795Y-25484D03*
G54D12*
X55582Y-26484D03*
G54D13*
X55582Y-25484D03*
X56582Y-26484D03*
X56582Y-25484D03*
G54D12*
X71370Y-26484D03*
G54D13*
X71370Y-25484D03*
X72370Y-26484D03*
X72370Y-25484D03*
G54D12*
X87157Y-26484D03*
G54D13*
X87157Y-25484D03*
X88157Y-26484D03*
X88157Y-25484D03*
G54D12*
X102944Y-26484D03*
G54D13*
X102944Y-25484D03*
X103944Y-26484D03*
X103944Y-25484D03*
G54D12*
X42748Y-26484D03*
G54D13*
X42748Y-25484D03*
X43748Y-26484D03*
X43748Y-25484D03*
G54D12*
X58535Y-26484D03*
G54D13*
X58535Y-25484D03*
X59535Y-26484D03*
X59535Y-25484D03*
G54D12*
X74322Y-26484D03*
G54D13*
X74322Y-25484D03*
X75322Y-26484D03*
X75322Y-25484D03*
G54D12*
X90110Y-26484D03*
G54D13*
X90110Y-25484D03*
X91110Y-26484D03*
X91110Y-25484D03*
G54D12*
X105897Y-26484D03*
G54D13*
X105897Y-25484D03*
X106897Y-26484D03*
X106897Y-25484D03*
G54D12*
X45700Y-26484D03*
G54D13*
X45700Y-25484D03*
X46700Y-26484D03*
X46700Y-25484D03*
G54D12*
X61488Y-26484D03*
G54D13*
X61488Y-25484D03*
X62488Y-26484D03*
X62488Y-25484D03*
G54D12*
X77275Y-26484D03*
G54D13*
X77275Y-25484D03*
X78275Y-26484D03*
X78275Y-25484D03*
G54D12*
X93062Y-26484D03*
G54D13*
X93062Y-25484D03*
X94062Y-26484D03*
X94062Y-25484D03*
G54D12*
X108850Y-26484D03*
G54D13*
X108850Y-25484D03*
X109850Y-26484D03*
X109850Y-25484D03*
G54D12*
X33807Y-35539D03*
G54D13*
X33807Y-34539D03*
X38807Y-35539D03*
X34807Y-34539D03*
X39807Y-35539D03*
X35807Y-34539D03*
X40807Y-35539D03*
X36807Y-34539D03*
X41807Y-35539D03*
X37807Y-34539D03*
X42807Y-35539D03*
X38807Y-34539D03*
X43807Y-35539D03*
X39807Y-34539D03*
X44807Y-35539D03*
X40807Y-34539D03*
X45807Y-35539D03*
X41807Y-34539D03*
X46807Y-35539D03*
X42807Y-34539D03*
X47807Y-35539D03*
X43807Y-34539D03*
X48807Y-35539D03*
X44807Y-34539D03*
X45807Y-34539D03*
X49807Y-35539D03*
X46807Y-34539D03*
X48807Y-34539D03*
X49807Y-34539D03*
X50807Y-34539D03*
X51807Y-34539D03*
X50807Y-35539D03*
X51807Y-35539D03*
X34807Y-35539D03*
X35807Y-35539D03*
X36807Y-35539D03*
X37807Y-35539D03*
X52807Y-35539D03*
X52807Y-34539D03*
X47807Y-34539D03*
G54D12*
X83925Y-35539D03*
G54D13*
X83925Y-34539D03*
X88925Y-35539D03*
X84925Y-34539D03*
X89925Y-35539D03*
X85925Y-34539D03*
X90925Y-35539D03*
X86925Y-34539D03*
X91925Y-35539D03*
X87925Y-34539D03*
X92925Y-35539D03*
X88925Y-34539D03*
X93925Y-35539D03*
X89925Y-34539D03*
X94925Y-35539D03*
X90925Y-34539D03*
X95925Y-35539D03*
X91925Y-34539D03*
X96925Y-35539D03*
X92925Y-34539D03*
X97925Y-35539D03*
X93925Y-34539D03*
X98925Y-35539D03*
X94925Y-34539D03*
X95925Y-34539D03*
X99925Y-35539D03*
X96925Y-34539D03*
X98925Y-34539D03*
X99925Y-34539D03*
X100925Y-34539D03*
X101925Y-34539D03*
X100925Y-35539D03*
X101925Y-35539D03*
X84925Y-35539D03*
X85925Y-35539D03*
X86925Y-35539D03*
X87925Y-35539D03*
X102925Y-35539D03*
X102925Y-34539D03*
X97925Y-34539D03*
X103925Y-35539D03*
X103925Y-34539D03*
X104925Y-35539D03*
X104925Y-34539D03*
X105925Y-35539D03*
X105925Y-34539D03*
X106925Y-35539D03*
X106925Y-34539D03*
X107925Y-35539D03*
X107925Y-34539D03*
X108925Y-35539D03*
X108925Y-34539D03*
X109925Y-35539D03*
X109925Y-34539D03*
X110925Y-35539D03*
X110925Y-34539D03*
X111925Y-35539D03*
X111925Y-34539D03*
X112925Y-35539D03*
X112925Y-34539D03*
G54D14*
X22244Y-33956D03*
G54D15*
X22244Y-36318D03*
G54D12*
X20460Y-22874D03*
G54D13*
X21460Y-22874D03*
X22460Y-22874D03*
X23460Y-22874D03*
X24460Y-22874D03*
X25460Y-22874D03*
X26460Y-22874D03*
X27460Y-22874D03*
X28460Y-22874D03*
X29460Y-22874D03*
X30460Y-22874D03*
X31460Y-22874D03*
X32460Y-22874D03*
X33460Y-22874D03*
X34460Y-22874D03*
G54D12*
X36248Y-22874D03*
G54D13*
X37248Y-22874D03*
X38248Y-22874D03*
X39248Y-22874D03*
X40248Y-22874D03*
X41248Y-22874D03*
X42248Y-22874D03*
X43248Y-22874D03*
X44248Y-22874D03*
X45248Y-22874D03*
X46248Y-22874D03*
X47248Y-22874D03*
X48248Y-22874D03*
X49248Y-22874D03*
X50248Y-22874D03*
G54D12*
X52035Y-22874D03*
G54D13*
X53035Y-22874D03*
X54035Y-22874D03*
X55035Y-22874D03*
X56035Y-22874D03*
X57035Y-22874D03*
X58035Y-22874D03*
X59035Y-22874D03*
X60035Y-22874D03*
X61035Y-22874D03*
X62035Y-22874D03*
X63035Y-22874D03*
X64035Y-22874D03*
X65035Y-22874D03*
X66035Y-22874D03*
G54D12*
X67822Y-22874D03*
G54D13*
X68822Y-22874D03*
X69822Y-22874D03*
X70822Y-22874D03*
X71822Y-22874D03*
X72822Y-22874D03*
X73822Y-22874D03*
X74822Y-22874D03*
X75822Y-22874D03*
X76822Y-22874D03*
X77822Y-22874D03*
X78822Y-22874D03*
X79822Y-22874D03*
X80822Y-22874D03*
X81822Y-22874D03*
G54D12*
X83610Y-22874D03*
G54D13*
X84610Y-22874D03*
X85610Y-22874D03*
X86610Y-22874D03*
X87610Y-22874D03*
X88610Y-22874D03*
X89610Y-22874D03*
X90610Y-22874D03*
X91610Y-22874D03*
X92610Y-22874D03*
X93610Y-22874D03*
X94610Y-22874D03*
X95610Y-22874D03*
X96610Y-22874D03*
X97610Y-22874D03*
G54D12*
X99397Y-22874D03*
G54D13*
X100397Y-22874D03*
X101397Y-22874D03*
X102397Y-22874D03*
X103397Y-22874D03*
X104397Y-22874D03*
X105397Y-22874D03*
X106397Y-22874D03*
X107397Y-22874D03*
X108397Y-22874D03*
X109397Y-22874D03*
X110397Y-22874D03*
X111397Y-22874D03*
X112397Y-22874D03*
X113397Y-22874D03*
G54D16*
X117125Y-25590D03*
X16732Y-38385D03*
X117125Y-38385D03*
X66929Y-25590D03*
X66929Y-38385D03*
X16732Y-25590D03*
G54D12*
X41248Y-30814D03*
G54D13*
X41248Y-29814D03*
X42248Y-30814D03*
X42248Y-29814D03*
X43248Y-30814D03*
X43248Y-29814D03*
X44248Y-30814D03*
X44248Y-29814D03*
X45248Y-30814D03*
X45248Y-29814D03*
G54D12*
X57035Y-30814D03*
G54D13*
X57035Y-29814D03*
X58035Y-30814D03*
X58035Y-29814D03*
X59035Y-30814D03*
X59035Y-29814D03*
X60035Y-30814D03*
X60035Y-29814D03*
X61035Y-30814D03*
X61035Y-29814D03*
G54D12*
X72822Y-30814D03*
G54D13*
X72822Y-29814D03*
X73822Y-30814D03*
X73822Y-29814D03*
X74822Y-30814D03*
X74822Y-29814D03*
X75822Y-30814D03*
X75822Y-29814D03*
X76822Y-30814D03*
X76822Y-29814D03*
G54D12*
X88610Y-30814D03*
G54D13*
X88610Y-29814D03*
X89610Y-30814D03*
X89610Y-29814D03*
X90610Y-30814D03*
X90610Y-29814D03*
X91610Y-30814D03*
X91610Y-29814D03*
X92610Y-30814D03*
X92610Y-29814D03*
G54D12*
X104397Y-30814D03*
G54D13*
X104397Y-29814D03*
X105397Y-30814D03*
X105397Y-29814D03*
X106397Y-30814D03*
X106397Y-29814D03*
X107397Y-30814D03*
X107397Y-29814D03*
X108397Y-30814D03*
X108397Y-29814D03*
G54D12*
X59003Y-35539D03*
G54D13*
X59003Y-34539D03*
X64003Y-35539D03*
X60003Y-34539D03*
X65003Y-35539D03*
X61003Y-34539D03*
X66003Y-35539D03*
X62003Y-34539D03*
X67003Y-35539D03*
X63003Y-34539D03*
X68003Y-35539D03*
X64003Y-34539D03*
X69003Y-35539D03*
X65003Y-34539D03*
X70003Y-35539D03*
X66003Y-34539D03*
X71003Y-35539D03*
X67003Y-34539D03*
X72003Y-35539D03*
X68003Y-34539D03*
X73003Y-35539D03*
X69003Y-34539D03*
X74003Y-35539D03*
X70003Y-34539D03*
X71003Y-34539D03*
X75003Y-35539D03*
X72003Y-34539D03*
X74003Y-34539D03*
X75003Y-34539D03*
X76003Y-34539D03*
X77003Y-34539D03*
X76003Y-35539D03*
X77003Y-35539D03*
X60003Y-35539D03*
X61003Y-35539D03*
X62003Y-35539D03*
X63003Y-35539D03*
X78003Y-35539D03*
X78003Y-34539D03*
X73003Y-34539D03*
G54D17*
X102736Y-33182D03*
X57547Y-32615D03*
X71202Y-32159D03*
X70211Y-37408D03*
X53682Y-34325D03*
X73181Y-27622D03*
X87486Y-27632D03*
X39602Y-27703D03*
X89219Y-33021D03*
X69215Y-37397D03*
X53836Y-34775D03*
X88946Y-25292D03*
X41467Y-24224D03*
X95327Y-31350D03*
X91323Y-32060D03*
X96386Y-37579D03*
X81402Y-30521D03*
X93968Y-22382D03*
X43851Y-33183D03*
X44347Y-31798D03*
X89616Y-24789D03*
X94748Y-32865D03*
X98984Y-33598D03*
X50724Y-38133D03*
X46532Y-32642D03*
X59099Y-33015D03*
X95706Y-32471D03*
X100142Y-36950D03*
X42919Y-24026D03*
X62319Y-23407D03*
X35036Y-23206D03*
X85836Y-23861D03*
X70726Y-27394D03*
X87156Y-27280D03*
X41515Y-27179D03*
X58200Y-35048D03*
X109193Y-33810D03*
X42748Y-28616D03*
X86094Y-26934D03*
X46748Y-24894D03*
X60553Y-26333D03*
X63015Y-23743D03*
X79565Y-22257D03*
X48036Y-27541D03*
X68180Y-32517D03*
X54139Y-32615D03*
X76205Y-26934D03*
X88629Y-33360D03*
X100491Y-32930D03*
X70368Y-32531D03*
X80917Y-30077D03*
G54D18*
X67822Y-22874D02*
X67822Y-23474D01*
X34039Y-25682D02*
X36248Y-23474D01*
X34039Y-28740D02*
X34039Y-25682D01*
X36248Y-22874D02*
X36248Y-23474D01*
X52035Y-22874D02*
X52035Y-23474D01*
X67879Y-26789D02*
X65929Y-28740D01*
X67879Y-23531D02*
X67879Y-26789D01*
X67822Y-23474D02*
X67879Y-23531D01*
X98204Y-28740D02*
X97425Y-28740D01*
X98248Y-28695D02*
X98204Y-28740D01*
X98248Y-28695D02*
X102736Y-33182D01*
X79720Y-32823D02*
X78003Y-34539D01*
X79720Y-30567D02*
X79720Y-32823D01*
X81547Y-28740D02*
X79720Y-30567D01*
X82070Y-28740D02*
X81547Y-28740D01*
X83610Y-22874D02*
X83610Y-23474D01*
X82070Y-25013D02*
X83610Y-23474D01*
X82070Y-28740D02*
X82070Y-25013D01*
X50181Y-25328D02*
X52035Y-23474D01*
X50181Y-28740D02*
X50181Y-25328D01*
X51807Y-30366D02*
X51807Y-34539D01*
X50181Y-28740D02*
X51807Y-30366D01*
X99397Y-27546D02*
X98248Y-28695D01*
X99397Y-22874D02*
X99397Y-27546D01*
G54D19*
X72822Y-30814D02*
X72372Y-30814D01*
X57035Y-32103D02*
X57547Y-32615D01*
X57035Y-30814D02*
X57035Y-32103D01*
X70003Y-33358D02*
X71202Y-32159D01*
X70003Y-34539D02*
X70003Y-33358D01*
X72372Y-30989D02*
X71202Y-32159D01*
X72372Y-30814D02*
X72372Y-30989D01*
X41248Y-30814D02*
X41248Y-31265D01*
X40356Y-34989D02*
X39807Y-35539D01*
X40356Y-32156D02*
X40356Y-34989D01*
X41248Y-31265D02*
X40356Y-32156D01*
X26913Y-22421D02*
X26460Y-22874D01*
X27646Y-22421D02*
X26913Y-22421D01*
X27960Y-22735D02*
X27646Y-22421D01*
X27960Y-31935D02*
X27960Y-22735D01*
X33016Y-36990D02*
X27960Y-31935D01*
X38355Y-36990D02*
X33016Y-36990D01*
X39807Y-35539D02*
X38355Y-36990D01*
X88610Y-31265D02*
X88610Y-31265D01*
X88610Y-31953D02*
X88610Y-31265D01*
X89544Y-32887D02*
X88610Y-31953D01*
X89544Y-33156D02*
X89544Y-32887D01*
X89454Y-33245D02*
X89544Y-33156D01*
X89454Y-35069D02*
X89454Y-33245D01*
X89925Y-35539D02*
X89454Y-35069D01*
X88610Y-30814D02*
X88610Y-31265D01*
X69887Y-37732D02*
X70211Y-37408D01*
X67876Y-37732D02*
X69887Y-37732D01*
X67729Y-37585D02*
X67876Y-37732D01*
X66296Y-37585D02*
X67729Y-37585D01*
X66077Y-37804D02*
X66296Y-37585D01*
X47071Y-37804D02*
X66077Y-37804D01*
X44807Y-35539D02*
X47071Y-37804D01*
X41850Y-23271D02*
X42248Y-22874D01*
X41850Y-29212D02*
X41850Y-23271D01*
X41248Y-29814D02*
X41850Y-29212D01*
X57035Y-23874D02*
X58035Y-22874D01*
X57035Y-29814D02*
X57035Y-23874D01*
X54490Y-33517D02*
X53682Y-34325D01*
X54490Y-32254D02*
X54490Y-33517D01*
X56929Y-29814D02*
X54490Y-32254D01*
X57035Y-29814D02*
X56929Y-29814D01*
X72822Y-27980D02*
X73181Y-27622D01*
X72822Y-29814D02*
X72822Y-27980D01*
X73181Y-23515D02*
X73822Y-22874D01*
X73181Y-27622D02*
X73181Y-23515D01*
X87486Y-33100D02*
X87486Y-27632D01*
X88925Y-34539D02*
X87486Y-33100D01*
X36807Y-30498D02*
X36807Y-34539D01*
X39602Y-27703D02*
X36807Y-30498D01*
X88610Y-23874D02*
X88610Y-29814D01*
X89610Y-22874D02*
X88610Y-23874D01*
X88160Y-31962D02*
X89219Y-33021D01*
X88160Y-30265D02*
X88160Y-31962D01*
X88610Y-29814D02*
X88160Y-30265D01*
X104925Y-30342D02*
X104925Y-34539D01*
X104397Y-29814D02*
X104925Y-30342D01*
X107347Y-26864D02*
X104397Y-29814D01*
X107347Y-24824D02*
X107347Y-26864D01*
X105397Y-22874D02*
X107347Y-24824D01*
X46807Y-34862D02*
X46807Y-34539D01*
X47356Y-35412D02*
X46807Y-34862D01*
X47356Y-35744D02*
X47356Y-35412D01*
X48816Y-37203D02*
X47356Y-35744D01*
X65622Y-37203D02*
X48816Y-37203D01*
X65853Y-36972D02*
X65622Y-37203D01*
X66595Y-36972D02*
X65853Y-36972D01*
X66695Y-36872D02*
X66595Y-36972D01*
X71016Y-36872D02*
X66695Y-36872D01*
X71585Y-37441D02*
X71016Y-36872D01*
X92162Y-37441D02*
X71585Y-37441D01*
X92349Y-37254D02*
X92162Y-37441D01*
X96521Y-37254D02*
X92349Y-37254D01*
X96542Y-37275D02*
X96521Y-37254D01*
X103842Y-37275D02*
X96542Y-37275D01*
X105388Y-35729D02*
X103842Y-37275D01*
X105388Y-35002D02*
X105388Y-35729D01*
X104925Y-34539D02*
X105388Y-35002D01*
X71003Y-33633D02*
X73822Y-30814D01*
X71003Y-34539D02*
X71003Y-33633D01*
X90475Y-35089D02*
X90925Y-35539D01*
X90475Y-31679D02*
X90475Y-35089D01*
X89610Y-30814D02*
X90475Y-31679D01*
X41356Y-34989D02*
X40807Y-35539D01*
X41356Y-32106D02*
X41356Y-34989D01*
X42248Y-31215D02*
X41356Y-32106D01*
X42248Y-30814D02*
X42248Y-31215D01*
X39155Y-37190D02*
X40807Y-35539D01*
X32933Y-37190D02*
X39155Y-37190D01*
X27460Y-31718D02*
X32933Y-37190D01*
X27460Y-22874D02*
X27460Y-31718D01*
X42091Y-24030D02*
X43248Y-22874D01*
X42091Y-29658D02*
X42091Y-24030D01*
X42248Y-29814D02*
X42091Y-29658D01*
X47871Y-37604D02*
X45807Y-35539D01*
X65929Y-37604D02*
X47871Y-37604D01*
X66161Y-37372D02*
X65929Y-37604D01*
X69190Y-37372D02*
X66161Y-37372D01*
X69215Y-37397D02*
X69190Y-37372D01*
X58035Y-23874D02*
X59035Y-22874D01*
X58035Y-29814D02*
X58035Y-23874D01*
X56470Y-32141D02*
X53836Y-34775D01*
X56470Y-30556D02*
X56470Y-32141D01*
X56742Y-30284D02*
X56470Y-30556D01*
X57566Y-30284D02*
X56742Y-30284D01*
X58035Y-29814D02*
X57566Y-30284D01*
X73822Y-23874D02*
X74822Y-22874D01*
X73822Y-29814D02*
X73822Y-23874D01*
X89925Y-32748D02*
X89925Y-34539D01*
X89060Y-31883D02*
X89925Y-32748D01*
X89060Y-25406D02*
X89060Y-31883D01*
X88946Y-25292D02*
X89060Y-25406D01*
X41467Y-26581D02*
X41467Y-24224D01*
X37807Y-30241D02*
X41467Y-26581D01*
X37807Y-34539D02*
X37807Y-30241D01*
X89282Y-24201D02*
X90610Y-22874D01*
X89282Y-29487D02*
X89282Y-24201D01*
X89610Y-29814D02*
X89282Y-29487D01*
X97925Y-33948D02*
X95327Y-31350D01*
X97925Y-34539D02*
X97925Y-33948D01*
X105925Y-30342D02*
X105925Y-34539D01*
X105397Y-29814D02*
X105925Y-30342D01*
X107547Y-24024D02*
X106397Y-22874D01*
X107547Y-27664D02*
X107547Y-24024D01*
X105397Y-29814D02*
X107547Y-27664D01*
X72003Y-33633D02*
X74822Y-30814D01*
X72003Y-34539D02*
X72003Y-33633D01*
X90610Y-31346D02*
X91323Y-32060D01*
X90610Y-30814D02*
X90610Y-31346D01*
X91475Y-32211D02*
X91323Y-32060D01*
X91475Y-35089D02*
X91475Y-32211D01*
X91925Y-35539D02*
X91475Y-35089D01*
X42356Y-34989D02*
X41807Y-35539D01*
X42356Y-31706D02*
X42356Y-34989D01*
X43248Y-30814D02*
X42356Y-31706D01*
X27807Y-22221D02*
X28460Y-22874D01*
X26466Y-22221D02*
X27807Y-22221D01*
X25986Y-22700D02*
X26466Y-22221D01*
X25986Y-30527D02*
X25986Y-22700D01*
X32850Y-37391D02*
X25986Y-30527D01*
X39955Y-37391D02*
X32850Y-37391D01*
X41807Y-35539D02*
X39955Y-37391D01*
X43248Y-29814D02*
X43281Y-29781D01*
X43281Y-23840D02*
X44248Y-22874D01*
X43281Y-29781D02*
X43281Y-23840D01*
X46257Y-34989D02*
X46807Y-35539D01*
X46257Y-32946D02*
X46257Y-34989D01*
X44748Y-31437D02*
X46257Y-32946D01*
X44748Y-30653D02*
X44748Y-31437D01*
X44359Y-30265D02*
X44748Y-30653D01*
X43765Y-30265D02*
X44359Y-30265D01*
X43281Y-29781D02*
X43765Y-30265D01*
X48671Y-37403D02*
X46807Y-35539D01*
X65846Y-37403D02*
X48671Y-37403D01*
X66078Y-37172D02*
X65846Y-37403D01*
X66678Y-37172D02*
X66078Y-37172D01*
X66778Y-37072D02*
X66678Y-37172D01*
X70861Y-37072D02*
X66778Y-37072D01*
X71434Y-37645D02*
X70861Y-37072D01*
X96320Y-37645D02*
X71434Y-37645D01*
X96386Y-37579D02*
X96320Y-37645D01*
X59035Y-23874D02*
X60035Y-22874D01*
X59035Y-29814D02*
X59035Y-23874D01*
X58585Y-30265D02*
X59035Y-29814D01*
X58585Y-32037D02*
X58585Y-30265D01*
X55521Y-35100D02*
X58585Y-32037D01*
X53701Y-35100D02*
X55521Y-35100D01*
X53689Y-35089D02*
X53701Y-35100D01*
X52257Y-35089D02*
X53689Y-35089D01*
X51807Y-35539D02*
X52257Y-35089D01*
X74822Y-23874D02*
X75822Y-22874D01*
X74822Y-29814D02*
X74822Y-23874D01*
X90925Y-34862D02*
X90925Y-34539D01*
X91376Y-35313D02*
X90925Y-34862D01*
X91376Y-35738D02*
X91376Y-35313D01*
X90913Y-36201D02*
X91376Y-35738D01*
X83470Y-36201D02*
X90913Y-36201D01*
X81402Y-34133D02*
X83470Y-36201D01*
X81402Y-30521D02*
X81402Y-34133D01*
X43807Y-33227D02*
X43807Y-34539D01*
X43851Y-33183D02*
X43807Y-33227D01*
X94110Y-22524D02*
X93968Y-22382D01*
X94110Y-23679D02*
X94110Y-22524D01*
X96123Y-25692D02*
X94110Y-23679D01*
X96123Y-29037D02*
X96123Y-25692D01*
X101375Y-34289D02*
X96123Y-29037D01*
X101375Y-34728D02*
X101375Y-34289D01*
X101103Y-35000D02*
X101375Y-34728D01*
X99386Y-35000D02*
X101103Y-35000D01*
X98925Y-34539D02*
X99386Y-35000D01*
X90610Y-23874D02*
X91610Y-22874D01*
X90610Y-29814D02*
X90610Y-23874D01*
X106925Y-30342D02*
X106397Y-29814D01*
X106925Y-34539D02*
X106925Y-30342D01*
X107748Y-23224D02*
X107397Y-22874D01*
X107748Y-28464D02*
X107748Y-23224D01*
X106397Y-29814D02*
X107748Y-28464D01*
X44248Y-31698D02*
X44347Y-31798D01*
X44248Y-30814D02*
X44248Y-31698D01*
X43356Y-34989D02*
X42807Y-35539D01*
X43356Y-32789D02*
X43356Y-34989D01*
X44347Y-31798D02*
X43356Y-32789D01*
X40755Y-37591D02*
X42807Y-35539D01*
X32767Y-37591D02*
X40755Y-37591D01*
X25003Y-29827D02*
X32767Y-37591D01*
X25003Y-22688D02*
X25003Y-29827D01*
X25871Y-21820D02*
X25003Y-22688D01*
X28407Y-21820D02*
X25871Y-21820D01*
X29460Y-22874D02*
X28407Y-21820D01*
X92425Y-35039D02*
X92925Y-35539D01*
X92425Y-31629D02*
X92425Y-35039D01*
X91610Y-30814D02*
X92425Y-31629D01*
X73003Y-33633D02*
X75822Y-30814D01*
X73003Y-34539D02*
X73003Y-33633D01*
X45248Y-28814D02*
X45248Y-22874D01*
X44429Y-29633D02*
X45248Y-28814D01*
X44248Y-29814D02*
X44429Y-29633D01*
X47307Y-35039D02*
X47807Y-35539D01*
X47307Y-32236D02*
X47307Y-35039D01*
X45335Y-30265D02*
X47307Y-32236D01*
X45061Y-30265D02*
X45335Y-30265D01*
X44429Y-29633D02*
X45061Y-30265D01*
X60035Y-23874D02*
X61035Y-22874D01*
X60035Y-29814D02*
X60035Y-23874D01*
X59535Y-30314D02*
X60035Y-29814D01*
X59535Y-31370D02*
X59535Y-30314D01*
X55366Y-35539D02*
X59535Y-31370D01*
X52807Y-35539D02*
X55366Y-35539D01*
X75822Y-23874D02*
X76822Y-22874D01*
X75822Y-29814D02*
X75822Y-23874D01*
X91925Y-32200D02*
X91925Y-34539D01*
X91110Y-31385D02*
X91925Y-32200D01*
X91110Y-30678D02*
X91110Y-31385D01*
X90796Y-30364D02*
X91110Y-30678D01*
X90523Y-30364D02*
X90796Y-30364D01*
X90160Y-30001D02*
X90523Y-30364D01*
X90160Y-28791D02*
X90160Y-30001D01*
X89616Y-28247D02*
X90160Y-28791D01*
X89616Y-24789D02*
X89616Y-28247D01*
X91610Y-29814D02*
X91960Y-29814D01*
X91960Y-23523D02*
X91960Y-29814D01*
X92610Y-22874D02*
X91960Y-23523D01*
X98984Y-33598D02*
X99925Y-34539D01*
X94748Y-32287D02*
X94748Y-32865D01*
X92825Y-30364D02*
X94748Y-32287D01*
X92510Y-30364D02*
X92825Y-30364D01*
X91960Y-29814D02*
X92510Y-30364D01*
X107925Y-30342D02*
X107925Y-34539D01*
X107397Y-29814D02*
X107925Y-30342D01*
X108397Y-28814D02*
X107397Y-29814D01*
X108397Y-22874D02*
X108397Y-28814D01*
X51778Y-39187D02*
X50724Y-38133D01*
X102933Y-39187D02*
X51778Y-39187D01*
X106425Y-35696D02*
X102933Y-39187D01*
X106425Y-35402D02*
X106425Y-35696D01*
X106738Y-35089D02*
X106425Y-35402D01*
X107375Y-35089D02*
X106738Y-35089D01*
X107925Y-34539D02*
X107375Y-35089D01*
X74003Y-33633D02*
X76822Y-30814D01*
X74003Y-34539D02*
X74003Y-33633D01*
X46532Y-32099D02*
X45248Y-30814D01*
X46532Y-32642D02*
X46532Y-32099D01*
X59099Y-32750D02*
X59099Y-33015D01*
X61035Y-30814D02*
X59099Y-32750D01*
X41555Y-37791D02*
X43807Y-35539D01*
X32684Y-37791D02*
X41555Y-37791D01*
X24003Y-29110D02*
X32684Y-37791D01*
X24003Y-22667D02*
X24003Y-29110D01*
X25251Y-21420D02*
X24003Y-22667D01*
X29007Y-21420D02*
X25251Y-21420D01*
X30460Y-22874D02*
X29007Y-21420D01*
X94608Y-33193D02*
X95375Y-33193D01*
X92610Y-31194D02*
X94608Y-33193D01*
X92610Y-30814D02*
X92610Y-31194D01*
X95375Y-32802D02*
X95375Y-33193D01*
X95706Y-32471D02*
X95375Y-32802D01*
X94425Y-35039D02*
X93925Y-35539D01*
X95061Y-35039D02*
X94425Y-35039D01*
X95375Y-34725D02*
X95061Y-35039D01*
X95375Y-33193D02*
X95375Y-34725D01*
X45248Y-29814D02*
X46200Y-29814D01*
X46200Y-22921D02*
X46248Y-22874D01*
X46200Y-29814D02*
X46200Y-22921D01*
X48257Y-34989D02*
X48807Y-35539D01*
X48257Y-31871D02*
X48257Y-34989D01*
X46200Y-29814D02*
X48257Y-31871D01*
X50271Y-37003D02*
X48807Y-35539D01*
X65539Y-37003D02*
X50271Y-37003D01*
X65771Y-36772D02*
X65539Y-37003D01*
X66512Y-36772D02*
X65771Y-36772D01*
X66612Y-36672D02*
X66512Y-36772D01*
X71099Y-36672D02*
X66612Y-36672D01*
X71658Y-37231D02*
X71099Y-36672D01*
X91948Y-37231D02*
X71658Y-37231D01*
X92141Y-37038D02*
X91948Y-37231D01*
X100054Y-37038D02*
X92141Y-37038D01*
X100142Y-36950D02*
X100054Y-37038D01*
X62035Y-22874D02*
X62000Y-22909D01*
X61994Y-28856D02*
X61035Y-29814D01*
X61994Y-22915D02*
X61994Y-28856D01*
X62000Y-22909D02*
X61994Y-22915D01*
X61110Y-22019D02*
X62000Y-22909D01*
X52070Y-22019D02*
X61110Y-22019D01*
X50158Y-23931D02*
X52070Y-22019D01*
X47649Y-23931D02*
X50158Y-23931D01*
X46748Y-23029D02*
X47649Y-23931D01*
X46748Y-22703D02*
X46748Y-23029D01*
X46052Y-22008D02*
X46748Y-22703D01*
X39475Y-22008D02*
X46052Y-22008D01*
X38748Y-22735D02*
X39475Y-22008D01*
X38748Y-27839D02*
X38748Y-22735D01*
X35807Y-30780D02*
X38748Y-27839D01*
X35807Y-34539D02*
X35807Y-30780D01*
X77822Y-22874D02*
X77822Y-26023D01*
X77822Y-28814D02*
X76822Y-29814D01*
X77822Y-26023D02*
X77822Y-28814D01*
X42294Y-24650D02*
X42919Y-24026D01*
X42294Y-28837D02*
X42294Y-24650D01*
X42698Y-29240D02*
X42294Y-28837D01*
X42698Y-30001D02*
X42698Y-29240D01*
X42384Y-30314D02*
X42698Y-30001D01*
X42076Y-30314D02*
X42384Y-30314D01*
X41698Y-30692D02*
X42076Y-30314D01*
X41698Y-31348D02*
X41698Y-30692D01*
X40807Y-32239D02*
X41698Y-31348D01*
X40807Y-34539D02*
X40807Y-32239D01*
X93393Y-35008D02*
X92925Y-34539D01*
X93393Y-35719D02*
X93393Y-35008D01*
X92914Y-36199D02*
X93393Y-35719D01*
X91765Y-36199D02*
X92914Y-36199D01*
X91559Y-36405D02*
X91765Y-36199D01*
X78223Y-36405D02*
X91559Y-36405D01*
X77542Y-35724D02*
X78223Y-36405D01*
X77542Y-33778D02*
X77542Y-35724D01*
X78732Y-32588D02*
X77542Y-33778D01*
X78732Y-26301D02*
X78732Y-32588D01*
X78454Y-26023D02*
X78732Y-26301D01*
X77822Y-26023D02*
X78454Y-26023D01*
X93610Y-26022D02*
X93610Y-22874D01*
X93610Y-28814D02*
X92610Y-29814D01*
X93610Y-26022D02*
X93610Y-28814D01*
X94238Y-26022D02*
X93610Y-26022D01*
X95412Y-27196D02*
X94238Y-26022D01*
X95412Y-29026D02*
X95412Y-27196D01*
X100925Y-34539D02*
X95412Y-29026D01*
X108868Y-34482D02*
X108925Y-34539D01*
X108868Y-30285D02*
X108868Y-34482D01*
X108397Y-29814D02*
X108868Y-30285D01*
X109397Y-28814D02*
X108397Y-29814D01*
X109397Y-22874D02*
X109397Y-28814D01*
X33178Y-24156D02*
X34460Y-22874D01*
X33178Y-33910D02*
X33178Y-24156D01*
X33807Y-34539D02*
X33178Y-33910D01*
X49590Y-23531D02*
X50248Y-22874D01*
X48258Y-23531D02*
X49590Y-23531D01*
X47748Y-23021D02*
X48258Y-23531D01*
X47748Y-22732D02*
X47748Y-23021D01*
X46616Y-21601D02*
X47748Y-22732D01*
X35733Y-21601D02*
X46616Y-21601D01*
X34460Y-22874D02*
X35733Y-21601D01*
X82479Y-22217D02*
X81822Y-22874D01*
X85069Y-22217D02*
X82479Y-22217D01*
X85489Y-21797D02*
X85069Y-22217D01*
X96533Y-21797D02*
X85489Y-21797D01*
X97610Y-22874D02*
X96533Y-21797D01*
X98688Y-21795D02*
X97610Y-22874D01*
X112318Y-21795D02*
X98688Y-21795D01*
X113397Y-22874D02*
X112318Y-21795D01*
X59003Y-34345D02*
X59003Y-34539D01*
X62940Y-30408D02*
X59003Y-34345D01*
X62940Y-24645D02*
X62940Y-30408D01*
X62319Y-24024D02*
X62940Y-24645D01*
X62319Y-23407D02*
X62319Y-24024D01*
X67287Y-21622D02*
X66035Y-22874D01*
X80571Y-21622D02*
X67287Y-21622D01*
X81822Y-22874D02*
X80571Y-21622D01*
X85069Y-33394D02*
X83925Y-34539D01*
X85069Y-22217D02*
X85069Y-33394D01*
X33378Y-24864D02*
X35036Y-23206D01*
X33378Y-33110D02*
X33378Y-24864D01*
X34807Y-34539D02*
X33378Y-33110D01*
X36435Y-21808D02*
X35036Y-23206D01*
X46182Y-21808D02*
X36435Y-21808D01*
X47248Y-22874D02*
X46182Y-21808D01*
X61980Y-21819D02*
X63035Y-22874D01*
X51957Y-21819D02*
X61980Y-21819D01*
X50045Y-23731D02*
X51957Y-21819D01*
X48105Y-23731D02*
X50045Y-23731D01*
X47248Y-22874D02*
X48105Y-23731D01*
X95486Y-23750D02*
X94610Y-22874D01*
X97954Y-23750D02*
X95486Y-23750D01*
X98641Y-23063D02*
X97954Y-23750D01*
X98641Y-22812D02*
X98641Y-23063D01*
X99030Y-22423D02*
X98641Y-22812D01*
X109947Y-22423D02*
X99030Y-22423D01*
X110397Y-22874D02*
X109947Y-22423D01*
X60003Y-34105D02*
X60003Y-34539D01*
X63340Y-30768D02*
X60003Y-34105D01*
X63340Y-23179D02*
X63340Y-30768D01*
X63035Y-22874D02*
X63340Y-23179D01*
X85727Y-33737D02*
X84925Y-34539D01*
X85727Y-23970D02*
X85727Y-33737D01*
X85836Y-23861D02*
X85727Y-23970D01*
X64503Y-35039D02*
X64003Y-35539D01*
X64503Y-33617D02*
X64503Y-35039D01*
X70726Y-27394D02*
X64503Y-33617D01*
X87156Y-33096D02*
X87156Y-27280D01*
X88425Y-34364D02*
X87156Y-33096D01*
X88425Y-35039D02*
X88425Y-34364D01*
X88925Y-35539D02*
X88425Y-35039D01*
X37555Y-36790D02*
X38807Y-35539D01*
X33099Y-36790D02*
X37555Y-36790D01*
X28919Y-32611D02*
X33099Y-36790D01*
X28919Y-22695D02*
X28919Y-32611D01*
X28245Y-22021D02*
X28919Y-22695D01*
X26313Y-22021D02*
X28245Y-22021D01*
X25460Y-22874D02*
X26313Y-22021D01*
X39258Y-29437D02*
X41515Y-27179D01*
X39258Y-35088D02*
X39258Y-29437D01*
X38807Y-35539D02*
X39258Y-35088D01*
X46700Y-28361D02*
X46700Y-26484D01*
X49307Y-30967D02*
X46700Y-28361D01*
X49307Y-35677D02*
X49307Y-30967D01*
X50433Y-36803D02*
X49307Y-35677D01*
X65456Y-36803D02*
X50433Y-36803D01*
X65688Y-36572D02*
X65456Y-36803D01*
X66429Y-36572D02*
X65688Y-36572D01*
X66629Y-36372D02*
X66429Y-36572D01*
X67171Y-36372D02*
X66629Y-36372D01*
X68003Y-35539D02*
X67171Y-36372D01*
X45700Y-22674D02*
X45700Y-25484D01*
X45243Y-22217D02*
X45700Y-22674D01*
X41904Y-22217D02*
X45243Y-22217D01*
X41248Y-22874D02*
X41904Y-22217D01*
X58200Y-34453D02*
X58200Y-35048D01*
X62488Y-30165D02*
X58200Y-34453D01*
X62488Y-26484D02*
X62488Y-30165D01*
X104475Y-35089D02*
X104925Y-35539D01*
X103738Y-35089D02*
X104475Y-35089D01*
X103425Y-35402D02*
X103738Y-35089D01*
X103425Y-35686D02*
X103425Y-35402D01*
X102850Y-36260D02*
X103425Y-35686D01*
X95605Y-36260D02*
X102850Y-36260D01*
X95250Y-36615D02*
X95605Y-36260D01*
X91997Y-36615D02*
X95250Y-36615D01*
X91797Y-36816D02*
X91997Y-36615D01*
X73281Y-36816D02*
X91797Y-36816D01*
X72003Y-35539D02*
X73281Y-36816D01*
X61488Y-22685D02*
X61488Y-25484D01*
X61022Y-22219D02*
X61488Y-22685D01*
X57689Y-22219D02*
X61022Y-22219D01*
X57035Y-22874D02*
X57689Y-22219D01*
X74454Y-35989D02*
X74003Y-35539D01*
X76195Y-35989D02*
X74454Y-35989D01*
X76503Y-35681D02*
X76195Y-35989D01*
X76503Y-33581D02*
X76503Y-35681D01*
X78275Y-31809D02*
X76503Y-33581D01*
X78275Y-26484D02*
X78275Y-31809D01*
X73474Y-22222D02*
X72822Y-22874D01*
X76830Y-22222D02*
X73474Y-22222D01*
X77275Y-22667D02*
X76830Y-22222D01*
X77275Y-25484D02*
X77275Y-22667D01*
X94062Y-30549D02*
X94062Y-26484D01*
X95660Y-32146D02*
X94062Y-30549D01*
X95840Y-32146D02*
X95660Y-32146D01*
X96031Y-32337D02*
X95840Y-32146D01*
X96031Y-34433D02*
X96031Y-32337D01*
X95925Y-34539D02*
X96031Y-34433D01*
X89263Y-22220D02*
X88610Y-22874D01*
X92596Y-22220D02*
X89263Y-22220D01*
X93062Y-22687D02*
X92596Y-22220D01*
X93062Y-25484D02*
X93062Y-22687D01*
X68503Y-35039D02*
X68003Y-34539D01*
X69140Y-35039D02*
X68503Y-35039D01*
X69454Y-35352D02*
X69140Y-35039D01*
X69454Y-35630D02*
X69454Y-35352D01*
X69829Y-36005D02*
X69454Y-35630D01*
X70185Y-36005D02*
X69829Y-36005D01*
X70503Y-35687D02*
X70185Y-36005D01*
X70503Y-35370D02*
X70503Y-35687D01*
X70793Y-35080D02*
X70503Y-35370D01*
X73216Y-35080D02*
X70793Y-35080D01*
X73503Y-35368D02*
X73216Y-35080D01*
X73503Y-35683D02*
X73503Y-35368D01*
X74426Y-36605D02*
X73503Y-35683D01*
X91725Y-36605D02*
X74426Y-36605D01*
X91931Y-36399D02*
X91725Y-36605D01*
X93481Y-36399D02*
X91931Y-36399D01*
X93891Y-35989D02*
X93481Y-36399D01*
X102131Y-35989D02*
X93891Y-35989D01*
X102425Y-35695D02*
X102131Y-35989D01*
X102425Y-35402D02*
X102425Y-35695D01*
X102738Y-35089D02*
X102425Y-35402D01*
X103375Y-35089D02*
X102738Y-35089D01*
X103925Y-34539D02*
X103375Y-35089D01*
X109850Y-33154D02*
X109850Y-26484D01*
X109193Y-33810D02*
X109850Y-33154D01*
X63461Y-35996D02*
X63003Y-35539D01*
X64205Y-35996D02*
X63461Y-35996D01*
X64553Y-35648D02*
X64205Y-35996D01*
X64553Y-35343D02*
X64553Y-35648D01*
X64809Y-35088D02*
X64553Y-35343D01*
X65113Y-35088D02*
X64809Y-35088D01*
X65503Y-34697D02*
X65113Y-35088D01*
X65503Y-34365D02*
X65503Y-34697D01*
X69593Y-30275D02*
X65503Y-34365D01*
X74005Y-30275D02*
X69593Y-30275D01*
X74322Y-29957D02*
X74005Y-30275D01*
X74322Y-26484D02*
X74322Y-29957D01*
X25713Y-21620D02*
X24460Y-22874D01*
X28870Y-21620D02*
X25713Y-21620D01*
X29960Y-22711D02*
X28870Y-21620D01*
X29960Y-33369D02*
X29960Y-22711D01*
X33182Y-36590D02*
X29960Y-33369D01*
X36755Y-36590D02*
X33182Y-36590D01*
X37807Y-35539D02*
X36755Y-36590D01*
X42748Y-26484D02*
X42748Y-28616D01*
X86094Y-33653D02*
X86094Y-26934D01*
X85459Y-34288D02*
X86094Y-33653D01*
X85459Y-35725D02*
X85459Y-34288D01*
X85734Y-36001D02*
X85459Y-35725D01*
X87463Y-36001D02*
X85734Y-36001D01*
X87925Y-35539D02*
X87463Y-36001D01*
X47200Y-25346D02*
X46748Y-24894D01*
X47200Y-27246D02*
X47200Y-25346D01*
X50307Y-30353D02*
X47200Y-27246D01*
X50307Y-35676D02*
X50307Y-30353D01*
X51234Y-36603D02*
X50307Y-35676D01*
X65373Y-36603D02*
X51234Y-36603D01*
X65605Y-36372D02*
X65373Y-36603D01*
X66171Y-36372D02*
X65605Y-36372D01*
X67003Y-35539D02*
X66171Y-36372D01*
X44709Y-24522D02*
X43748Y-25484D01*
X44709Y-22685D02*
X44709Y-24522D01*
X44440Y-22417D02*
X44709Y-22685D01*
X42032Y-22417D02*
X44440Y-22417D01*
X41698Y-22751D02*
X42032Y-22417D01*
X41698Y-23060D02*
X41698Y-22751D01*
X41433Y-23324D02*
X41698Y-23060D01*
X40698Y-23324D02*
X41433Y-23324D01*
X40248Y-22874D02*
X40698Y-23324D01*
X103003Y-36461D02*
X103925Y-35539D01*
X95841Y-36461D02*
X103003Y-36461D01*
X95486Y-36816D02*
X95841Y-36461D01*
X92080Y-36816D02*
X95486Y-36816D01*
X91879Y-37017D02*
X92080Y-36816D01*
X72481Y-37017D02*
X91879Y-37017D01*
X71003Y-35539D02*
X72481Y-37017D01*
X70337Y-36205D02*
X71003Y-35539D01*
X69026Y-36205D02*
X70337Y-36205D01*
X68503Y-35683D02*
X69026Y-36205D01*
X68503Y-35377D02*
X68503Y-35683D01*
X68215Y-35089D02*
X68503Y-35377D01*
X65805Y-35089D02*
X68215Y-35089D01*
X65506Y-35388D02*
X65805Y-35089D01*
X65506Y-35686D02*
X65506Y-35388D01*
X64996Y-36196D02*
X65506Y-35686D01*
X58824Y-36196D02*
X64996Y-36196D01*
X57864Y-35237D02*
X58824Y-36196D01*
X57864Y-33622D02*
X57864Y-35237D01*
X60553Y-30933D02*
X57864Y-33622D01*
X60553Y-26333D02*
X60553Y-30933D01*
X56495Y-23333D02*
X56035Y-22874D01*
X57216Y-23333D02*
X56495Y-23333D01*
X57535Y-23014D02*
X57216Y-23333D01*
X57535Y-22733D02*
X57535Y-23014D01*
X57849Y-22419D02*
X57535Y-22733D01*
X59235Y-22419D02*
X57849Y-22419D01*
X59501Y-22685D02*
X59235Y-22419D01*
X59501Y-23124D02*
X59501Y-22685D01*
X58535Y-24090D02*
X59501Y-23124D01*
X58535Y-25484D02*
X58535Y-24090D01*
X75322Y-29951D02*
X75322Y-26484D01*
X75636Y-30265D02*
X75322Y-29951D01*
X75909Y-30265D02*
X75636Y-30265D01*
X76272Y-30628D02*
X75909Y-30265D01*
X76272Y-31018D02*
X76272Y-30628D01*
X73538Y-33753D02*
X76272Y-31018D01*
X73538Y-34710D02*
X73538Y-33753D01*
X73817Y-34989D02*
X73538Y-34710D01*
X74454Y-34989D02*
X73817Y-34989D01*
X75003Y-35539D02*
X74454Y-34989D01*
X72292Y-23344D02*
X71822Y-22874D01*
X72993Y-23344D02*
X72292Y-23344D01*
X73322Y-23014D02*
X72993Y-23344D01*
X73322Y-22736D02*
X73322Y-23014D01*
X73636Y-22422D02*
X73322Y-22736D01*
X75023Y-22422D02*
X73636Y-22422D01*
X75289Y-22688D02*
X75023Y-22422D01*
X75289Y-23124D02*
X75289Y-22688D01*
X74322Y-24090D02*
X75289Y-23124D01*
X74322Y-25484D02*
X74322Y-24090D01*
X91110Y-29951D02*
X91110Y-26484D01*
X91423Y-30265D02*
X91110Y-29951D01*
X91696Y-30265D02*
X91423Y-30265D01*
X92060Y-30628D02*
X91696Y-30265D01*
X92060Y-30982D02*
X92060Y-30628D01*
X94925Y-33846D02*
X92060Y-30982D01*
X94925Y-34539D02*
X94925Y-33846D01*
X90110Y-24090D02*
X90110Y-25484D01*
X91076Y-23124D02*
X90110Y-24090D01*
X91076Y-22685D02*
X91076Y-23124D01*
X90811Y-22420D02*
X91076Y-22685D01*
X89421Y-22420D02*
X90811Y-22420D01*
X89060Y-22782D02*
X89421Y-22420D01*
X89060Y-23060D02*
X89060Y-22782D01*
X88788Y-23332D02*
X89060Y-23060D01*
X88068Y-23332D02*
X88788Y-23332D01*
X87610Y-22874D02*
X88068Y-23332D01*
X103692Y-29689D02*
X106897Y-26484D01*
X103692Y-33772D02*
X103692Y-29689D01*
X102925Y-34539D02*
X103692Y-33772D01*
X105897Y-25374D02*
X105897Y-25484D01*
X103397Y-22874D02*
X105897Y-25374D01*
X59003Y-35539D02*
X59003Y-35089D01*
X59116Y-35089D02*
X59003Y-35089D01*
X59454Y-34751D02*
X59116Y-35089D01*
X59454Y-34178D02*
X59454Y-34751D01*
X63140Y-30491D02*
X59454Y-34178D01*
X63140Y-23868D02*
X63140Y-30491D01*
X63015Y-23743D02*
X63140Y-23868D01*
X70674Y-22022D02*
X69822Y-22874D01*
X79330Y-22022D02*
X70674Y-22022D01*
X79565Y-22257D02*
X79330Y-22022D01*
X83925Y-35539D02*
X83925Y-35089D01*
X84037Y-35089D02*
X83925Y-35089D01*
X84375Y-34751D02*
X84037Y-35089D01*
X84375Y-34372D02*
X84375Y-34751D01*
X85327Y-33420D02*
X84375Y-34372D01*
X85327Y-23157D02*
X85327Y-33420D01*
X85610Y-22874D02*
X85327Y-23157D01*
X34257Y-35426D02*
X34257Y-35539D01*
X34594Y-35089D02*
X34257Y-35426D01*
X34893Y-35089D02*
X34594Y-35089D01*
X35257Y-34725D02*
X34893Y-35089D01*
X35257Y-30441D02*
X35257Y-34725D01*
X38248Y-27450D02*
X35257Y-30441D01*
X38248Y-22874D02*
X38248Y-27450D01*
X33807Y-35539D02*
X34257Y-35539D01*
X32916Y-23330D02*
X32460Y-22874D01*
X32978Y-23330D02*
X32916Y-23330D01*
X32978Y-35534D02*
X32978Y-23330D01*
X33433Y-35989D02*
X32978Y-35534D01*
X34356Y-35989D02*
X33433Y-35989D01*
X34807Y-35539D02*
X34356Y-35989D01*
X33676Y-23330D02*
X32978Y-23330D01*
X33960Y-23046D02*
X33676Y-23330D01*
X33960Y-22733D02*
X33960Y-23046D01*
X35292Y-21401D02*
X33960Y-22733D01*
X46775Y-21401D02*
X35292Y-21401D01*
X48248Y-22874D02*
X46775Y-21401D01*
X63637Y-22874D02*
X64035Y-22874D01*
X63637Y-22824D02*
X63637Y-22874D01*
X62432Y-21619D02*
X63637Y-22824D01*
X50861Y-21619D02*
X62432Y-21619D01*
X49748Y-22733D02*
X50861Y-21619D01*
X49748Y-23014D02*
X49748Y-22733D01*
X49431Y-23331D02*
X49748Y-23014D01*
X48705Y-23331D02*
X49431Y-23331D01*
X48248Y-22874D02*
X48705Y-23331D01*
X110734Y-22210D02*
X111397Y-22874D01*
X98942Y-22210D02*
X110734Y-22210D01*
X98341Y-22811D02*
X98942Y-22210D01*
X98341Y-23077D02*
X98341Y-22811D01*
X97888Y-23529D02*
X98341Y-23077D01*
X96265Y-23529D02*
X97888Y-23529D01*
X95610Y-22874D02*
X96265Y-23529D01*
X60503Y-35039D02*
X60003Y-35539D01*
X60503Y-33977D02*
X60503Y-35039D01*
X63637Y-30843D02*
X60503Y-33977D01*
X63637Y-22874D02*
X63637Y-30843D01*
X84475Y-35989D02*
X84925Y-35539D01*
X83551Y-35989D02*
X84475Y-35989D01*
X83415Y-35853D02*
X83551Y-35989D01*
X83415Y-28314D02*
X83415Y-35853D01*
X84077Y-27652D02*
X83415Y-28314D01*
X84077Y-22520D02*
X84077Y-27652D01*
X83980Y-22423D02*
X84077Y-22520D01*
X82925Y-22423D02*
X83980Y-22423D01*
X82025Y-23324D02*
X82925Y-22423D01*
X80272Y-23324D02*
X82025Y-23324D01*
X79822Y-22874D02*
X80272Y-23324D01*
X62503Y-35039D02*
X62003Y-35539D01*
X62503Y-34399D02*
X62503Y-35039D01*
X63048Y-33854D02*
X62503Y-34399D01*
X63734Y-33854D02*
X63048Y-33854D01*
X70919Y-26668D02*
X63734Y-33854D01*
X70919Y-26484D02*
X70919Y-26668D01*
X71370Y-26484D02*
X70919Y-26484D01*
X87393Y-35070D02*
X86925Y-35539D01*
X87393Y-33684D02*
X87393Y-35070D01*
X86822Y-33113D02*
X87393Y-33684D01*
X86822Y-27143D02*
X86822Y-33113D01*
X87032Y-26934D02*
X86822Y-27143D01*
X87157Y-26934D02*
X87032Y-26934D01*
X87157Y-26484D02*
X87157Y-26934D01*
X39927Y-27066D02*
X39795Y-26934D01*
X39927Y-27838D02*
X39927Y-27066D01*
X37307Y-30458D02*
X39927Y-27838D01*
X37307Y-35039D02*
X37307Y-30458D01*
X36807Y-35539D02*
X37307Y-35039D01*
X39795Y-26484D02*
X39795Y-26934D01*
X25114Y-21220D02*
X23460Y-22874D01*
X29464Y-21220D02*
X25114Y-21220D01*
X30960Y-22716D02*
X29464Y-21220D01*
X30960Y-34083D02*
X30960Y-22716D01*
X33267Y-36389D02*
X30960Y-34083D01*
X35956Y-36389D02*
X33267Y-36389D01*
X36807Y-35539D02*
X35956Y-36389D01*
X51307Y-30811D02*
X48036Y-27541D01*
X51307Y-35687D02*
X51307Y-30811D01*
X52022Y-36402D02*
X51307Y-35687D01*
X65140Y-36402D02*
X52022Y-36402D01*
X66003Y-35539D02*
X65140Y-36402D01*
X39795Y-25484D02*
X40795Y-25484D01*
X39248Y-24937D02*
X39795Y-25484D01*
X39248Y-22874D02*
X39248Y-24937D01*
X54139Y-28927D02*
X54139Y-32615D01*
X56582Y-26484D02*
X54139Y-28927D01*
X69500Y-33838D02*
X68180Y-32517D01*
X69500Y-35036D02*
X69500Y-33838D01*
X70003Y-35539D02*
X69500Y-35036D01*
X56582Y-25484D02*
X55582Y-25484D01*
X55582Y-23421D02*
X55582Y-25484D01*
X55035Y-22874D02*
X55582Y-23421D01*
X76322Y-27052D02*
X76205Y-26934D01*
X76322Y-29951D02*
X76322Y-27052D01*
X76636Y-30265D02*
X76322Y-29951D01*
X76934Y-30265D02*
X76636Y-30265D01*
X77286Y-30617D02*
X76934Y-30265D01*
X77286Y-31212D02*
X77286Y-30617D01*
X75552Y-32945D02*
X77286Y-31212D01*
X75552Y-35088D02*
X75552Y-32945D01*
X76003Y-35539D02*
X75552Y-35088D01*
X72370Y-25484D02*
X71370Y-25484D01*
X71370Y-23421D02*
X71370Y-25484D01*
X70822Y-22874D02*
X71370Y-23421D01*
X87957Y-32687D02*
X88629Y-33360D01*
X87957Y-26684D02*
X87957Y-32687D01*
X88157Y-26484D02*
X87957Y-26684D01*
X87157Y-25484D02*
X88157Y-25484D01*
X87157Y-23421D02*
X87157Y-25484D01*
X86610Y-22874D02*
X87157Y-23421D01*
X101925Y-34539D02*
X101925Y-34314D01*
X101875Y-34314D02*
X100491Y-32930D01*
X101925Y-34314D02*
X101875Y-34314D01*
X103438Y-26990D02*
X103944Y-26484D01*
X103438Y-32998D02*
X103438Y-26990D01*
X102122Y-34314D02*
X103438Y-32998D01*
X101925Y-34314D02*
X102122Y-34314D01*
X70008Y-32172D02*
X70368Y-32531D01*
X68036Y-32172D02*
X70008Y-32172D01*
X66003Y-34205D02*
X68036Y-32172D01*
X66003Y-34539D02*
X66003Y-34205D01*
X103944Y-25484D02*
X102944Y-25484D01*
X102944Y-23421D02*
X102944Y-25484D01*
X102397Y-22874D02*
X102944Y-23421D01*
X35133Y-21200D02*
X33460Y-22874D01*
X47574Y-21200D02*
X35133Y-21200D01*
X49248Y-22874D02*
X47574Y-21200D01*
X33006Y-22420D02*
X33460Y-22874D01*
X32249Y-22420D02*
X33006Y-22420D01*
X31994Y-22674D02*
X32249Y-22420D01*
X31994Y-34834D02*
X31994Y-22674D01*
X33350Y-36189D02*
X31994Y-34834D01*
X35156Y-36189D02*
X33350Y-36189D01*
X35807Y-35539D02*
X35156Y-36189D01*
X111523Y-22000D02*
X112397Y-22874D01*
X98869Y-22000D02*
X111523Y-22000D01*
X98141Y-22728D02*
X98869Y-22000D01*
X98141Y-22994D02*
X98141Y-22728D01*
X97806Y-23329D02*
X98141Y-22994D01*
X97065Y-23329D02*
X97806Y-23329D01*
X96610Y-22874D02*
X97065Y-23329D01*
X50702Y-21419D02*
X49248Y-22874D01*
X63580Y-21419D02*
X50702Y-21419D01*
X65035Y-22874D02*
X63580Y-21419D01*
X65035Y-30123D02*
X65035Y-23330D01*
X61503Y-33654D02*
X65035Y-30123D01*
X61503Y-35039D02*
X61503Y-33654D01*
X61003Y-35539D02*
X61503Y-35039D01*
X65035Y-23330D02*
X65035Y-22874D01*
X66402Y-23330D02*
X65035Y-23330D01*
X67910Y-21822D02*
X66402Y-23330D01*
X79771Y-21822D02*
X67910Y-21822D01*
X80822Y-22874D02*
X79771Y-21822D01*
X95752Y-22016D02*
X96610Y-22874D01*
X86801Y-22016D02*
X95752Y-22016D01*
X86145Y-22672D02*
X86801Y-22016D01*
X86145Y-23669D02*
X86145Y-22672D01*
X86422Y-23946D02*
X86145Y-23669D01*
X86422Y-35042D02*
X86422Y-23946D01*
X85925Y-35539D02*
X86422Y-35042D01*
G54D18*
X21460Y-31545D02*
X21460Y-22874D01*
X20931Y-32073D02*
X21460Y-31545D01*
X20931Y-35006D02*
X20931Y-32073D01*
X22244Y-36318D02*
X20931Y-35006D01*
X37248Y-27531D02*
X36039Y-28740D01*
X37248Y-22874D02*
X37248Y-27531D01*
X68822Y-27846D02*
X68822Y-22874D01*
X67929Y-28740D02*
X68822Y-27846D01*
X53035Y-27885D02*
X53035Y-22874D01*
X52181Y-28740D02*
X53035Y-27885D01*
X52807Y-29366D02*
X52807Y-34539D01*
X52181Y-28740D02*
X52807Y-29366D01*
X84610Y-28200D02*
X84070Y-28740D01*
X84610Y-22874D02*
X84610Y-28200D01*
X80917Y-32626D02*
X78003Y-35539D01*
X80917Y-30077D02*
X80917Y-32626D01*
X100397Y-27767D02*
X99425Y-28740D01*
X100397Y-22874D02*
X100397Y-27767D01*
M02*
