M48
;DRILL file {Pcbnew (2013-mar-13)-testing} date Tue 12 Nov 2013 05:14:37 PM PST
;FORMAT={2:4/ absolute / inch / suppress trailing zeros}
FMAT,2
INCH,LZ
T1C0.025
T2C0.040
T3C0.102
T4C0.118
T5C0.120
%
G90
G05
M72
T1
X035037Y-023207
X039602Y-027704
X041467Y-024225
X041516Y-027179
X042748Y-028617
X042919Y-024026
X043851Y-033183
X044348Y-031798
X046533Y-032642
X046749Y-024895
X048036Y-027541
X050725Y-038134
X053682Y-034326
X053836Y-034776
X05414Y-032615
X057548Y-032615
X058201Y-035049
X0591Y-033016
X060554Y-026334
X062319Y-023407
X063015Y-023743
X06818Y-032517
X069215Y-037398
X070212Y-037408
X070368Y-032532
X070727Y-027394
X071203Y-032159
X073182Y-027622
X076205Y-026934
X079565Y-022258
X080917Y-030078
X081403Y-030521
X085837Y-023862
X086095Y-026934
X087157Y-027281
X087486Y-027632
X08863Y-03336
X088946Y-025293
X089219Y-033022
X089616Y-02479
X091324Y-03206
X093969Y-022383
X094748Y-032866
X095328Y-031351
X095706Y-032472
X096386Y-037579
X098984Y-033599
X100142Y-036951
X100492Y-03293
X102736Y-033183
X109194Y-033811
T2
X020461Y-022874
X021461Y-022874
X022461Y-022874
X023461Y-022874
X024461Y-022874
X025461Y-022874
X026461Y-022874
X027461Y-022874
X028461Y-022874
X029461Y-022874
X030461Y-022874
X031461Y-022874
X032461Y-022874
X033461Y-022874
X033807Y-034539
X033807Y-035539
X034039Y-02874
X034461Y-022874
X034807Y-034539
X034807Y-035539
X035807Y-034539
X035807Y-035539
X036039Y-02874
X036248Y-022874
X036807Y-034539
X036807Y-035539
X037248Y-022874
X037807Y-034539
X037807Y-035539
X038248Y-022874
X038807Y-034539
X038807Y-035539
X039248Y-022874
X039795Y-025484
X039795Y-026484
X039807Y-034539
X039807Y-035539
X040248Y-022874
X040795Y-025484
X040795Y-026484
X040807Y-034539
X040807Y-035539
X041248Y-022874
X041248Y-029815
X041248Y-030815
X041807Y-034539
X041807Y-035539
X042248Y-022874
X042248Y-029815
X042248Y-030815
X042748Y-025484
X042748Y-026484
X042807Y-034539
X042807Y-035539
X043248Y-022874
X043248Y-029815
X043248Y-030815
X043748Y-025484
X043748Y-026484
X043807Y-034539
X043807Y-035539
X044248Y-022874
X044248Y-029815
X044248Y-030815
X044807Y-034539
X044807Y-035539
X045248Y-022874
X045248Y-029815
X045248Y-030815
X045701Y-025484
X045701Y-026484
X045807Y-034539
X045807Y-035539
X046248Y-022874
X046701Y-025484
X046701Y-026484
X046807Y-034539
X046807Y-035539
X047248Y-022874
X047807Y-034539
X047807Y-035539
X048248Y-022874
X048807Y-034539
X048807Y-035539
X049248Y-022874
X049807Y-034539
X049807Y-035539
X050181Y-02874
X050248Y-022874
X050807Y-034539
X050807Y-035539
X051807Y-034539
X051807Y-035539
X052035Y-022874
X052181Y-02874
X052807Y-034539
X052807Y-035539
X053035Y-022874
X054035Y-022874
X055035Y-022874
X055583Y-025484
X055583Y-026484
X056035Y-022874
X056583Y-025484
X056583Y-026484
X057035Y-022874
X057035Y-029815
X057035Y-030815
X058035Y-022874
X058035Y-029815
X058035Y-030815
X058535Y-025484
X058535Y-026484
X059004Y-034539
X059004Y-035539
X059035Y-022874
X059035Y-029815
X059035Y-030815
X059535Y-025484
X059535Y-026484
X060004Y-034539
X060004Y-035539
X060035Y-022874
X060035Y-029815
X060035Y-030815
X061004Y-034539
X061004Y-035539
X061035Y-022874
X061035Y-029815
X061035Y-030815
X061488Y-025484
X061488Y-026484
X062004Y-034539
X062004Y-035539
X062035Y-022874
X062488Y-025484
X062488Y-026484
X063004Y-034539
X063004Y-035539
X063035Y-022874
X064004Y-034539
X064004Y-035539
X064035Y-022874
X065004Y-034539
X065004Y-035539
X065035Y-022874
X065929Y-02874
X066004Y-034539
X066004Y-035539
X066035Y-022874
X067004Y-034539
X067004Y-035539
X067823Y-022874
X067929Y-02874
X068004Y-034539
X068004Y-035539
X068823Y-022874
X069004Y-034539
X069004Y-035539
X069823Y-022874
X070004Y-034539
X070004Y-035539
X070823Y-022874
X071004Y-034539
X071004Y-035539
X07137Y-025484
X07137Y-026484
X071823Y-022874
X072004Y-034539
X072004Y-035539
X07237Y-025484
X07237Y-026484
X072823Y-022874
X072823Y-029815
X072823Y-030815
X073004Y-034539
X073004Y-035539
X073823Y-022874
X073823Y-029815
X073823Y-030815
X074004Y-034539
X074004Y-035539
X074323Y-025484
X074323Y-026484
X074823Y-022874
X074823Y-029815
X074823Y-030815
X075004Y-034539
X075004Y-035539
X075323Y-025484
X075323Y-026484
X075823Y-022874
X075823Y-029815
X075823Y-030815
X076004Y-034539
X076004Y-035539
X076823Y-022874
X076823Y-029815
X076823Y-030815
X077004Y-034539
X077004Y-035539
X077276Y-025484
X077276Y-026484
X077823Y-022874
X078004Y-034539
X078004Y-035539
X078276Y-025484
X078276Y-026484
X078823Y-022874
X079823Y-022874
X080823Y-022874
X081823Y-022874
X082071Y-02874
X08361Y-022874
X083925Y-034539
X083925Y-035539
X084071Y-02874
X08461Y-022874
X084925Y-034539
X084925Y-035539
X08561Y-022874
X085925Y-034539
X085925Y-035539
X08661Y-022874
X086925Y-034539
X086925Y-035539
X087157Y-025484
X087157Y-026484
X08761Y-022874
X087925Y-034539
X087925Y-035539
X088157Y-025484
X088157Y-026484
X08861Y-022874
X08861Y-029815
X08861Y-030815
X088925Y-034539
X088925Y-035539
X08961Y-022874
X08961Y-029815
X08961Y-030815
X089925Y-034539
X089925Y-035539
X09011Y-025484
X09011Y-026484
X09061Y-022874
X09061Y-029815
X09061Y-030815
X090925Y-034539
X090925Y-035539
X09111Y-025484
X09111Y-026484
X09161Y-022874
X09161Y-029815
X09161Y-030815
X091925Y-034539
X091925Y-035539
X09261Y-022874
X09261Y-029815
X09261Y-030815
X092925Y-034539
X092925Y-035539
X093063Y-025484
X093063Y-026484
X09361Y-022874
X093925Y-034539
X093925Y-035539
X094063Y-025484
X094063Y-026484
X09461Y-022874
X094925Y-034539
X094925Y-035539
X09561Y-022874
X095925Y-034539
X095925Y-035539
X09661Y-022874
X096925Y-034539
X096925Y-035539
X097425Y-02874
X09761Y-022874
X097925Y-034539
X097925Y-035539
X098925Y-034539
X098925Y-035539
X099398Y-022874
X099425Y-02874
X099925Y-034539
X099925Y-035539
X100398Y-022874
X100925Y-034539
X100925Y-035539
X101398Y-022874
X101925Y-034539
X101925Y-035539
X102398Y-022874
X102925Y-034539
X102925Y-035539
X102945Y-025484
X102945Y-026484
X103398Y-022874
X103925Y-034539
X103925Y-035539
X103945Y-025484
X103945Y-026484
X104398Y-022874
X104398Y-029815
X104398Y-030815
X104925Y-034539
X104925Y-035539
X105398Y-022874
X105398Y-029815
X105398Y-030815
X105898Y-025484
X105898Y-026484
X105925Y-034539
X105925Y-035539
X106398Y-022874
X106398Y-029815
X106398Y-030815
X106898Y-025484
X106898Y-026484
X106925Y-034539
X106925Y-035539
X107398Y-022874
X107398Y-029815
X107398Y-030815
X107925Y-034539
X107925Y-035539
X108398Y-022874
X108398Y-029815
X108398Y-030815
X10885Y-025484
X10885Y-026484
X108925Y-034539
X108925Y-035539
X109398Y-022874
X10985Y-025484
X10985Y-026484
X109925Y-034539
X109925Y-035539
X110398Y-022874
X110925Y-034539
X110925Y-035539
X111398Y-022874
X111925Y-034539
X111925Y-035539
X112398Y-022874
X112925Y-034539
X112925Y-035539
X113398Y-022874
T3
X022244Y-036319
T4
X022244Y-033957
T5
X016732Y-025591
X016732Y-038386
X066929Y-025591
X066929Y-038386
X117126Y-025591
X117126Y-038386
T0
M30
