G04 (created by PCBNEW (2013-mar-13)-testing) date Mon 26 Aug 2013 08:21:07 AM PDT*
%MOIN*%
G04 Gerber Fmt 3.4, Leading zero omitted, Abs format*
%FSLAX34Y34*%
G01*
G70*
G90*
G04 APERTURE LIST*
%ADD10C,0.005906*%
%ADD11C,0.008000*%
G04 APERTURE END LIST*
G54D10*
G54D11*
X35315Y-35290D02*
X34915Y-35290D01*
X35315Y-35061D02*
X35087Y-35233D01*
X34915Y-35061D02*
X35144Y-35290D01*
X35087Y-34833D02*
X35068Y-34871D01*
X35049Y-34890D01*
X35011Y-34909D01*
X34992Y-34909D01*
X34954Y-34890D01*
X34935Y-34871D01*
X34915Y-34833D01*
X34915Y-34756D01*
X34935Y-34718D01*
X34954Y-34699D01*
X34992Y-34680D01*
X35011Y-34680D01*
X35049Y-34699D01*
X35068Y-34718D01*
X35087Y-34756D01*
X35087Y-34833D01*
X35106Y-34871D01*
X35125Y-34890D01*
X35163Y-34909D01*
X35239Y-34909D01*
X35277Y-34890D01*
X35296Y-34871D01*
X35315Y-34833D01*
X35315Y-34756D01*
X35296Y-34718D01*
X35277Y-34699D01*
X35239Y-34680D01*
X35163Y-34680D01*
X35125Y-34699D01*
X35106Y-34718D01*
X35087Y-34756D01*
X28055Y-35305D02*
X27655Y-35305D01*
X28055Y-35076D02*
X27827Y-35248D01*
X27655Y-35076D02*
X27884Y-35305D01*
X27655Y-34943D02*
X27655Y-34676D01*
X28055Y-34848D01*
X35320Y-20405D02*
X34920Y-20405D01*
X35320Y-20176D02*
X35092Y-20348D01*
X34920Y-20176D02*
X35149Y-20405D01*
X34920Y-19833D02*
X34920Y-19909D01*
X34940Y-19948D01*
X34959Y-19967D01*
X35016Y-20005D01*
X35092Y-20024D01*
X35244Y-20024D01*
X35282Y-20005D01*
X35301Y-19986D01*
X35320Y-19948D01*
X35320Y-19871D01*
X35301Y-19833D01*
X35282Y-19814D01*
X35244Y-19795D01*
X35149Y-19795D01*
X35111Y-19814D01*
X35092Y-19833D01*
X35073Y-19871D01*
X35073Y-19948D01*
X35092Y-19986D01*
X35111Y-20005D01*
X35149Y-20024D01*
X28075Y-20400D02*
X27675Y-20400D01*
X28075Y-20171D02*
X27847Y-20343D01*
X27675Y-20171D02*
X27904Y-20400D01*
X27675Y-19809D02*
X27675Y-20000D01*
X27866Y-20019D01*
X27847Y-20000D01*
X27828Y-19962D01*
X27828Y-19866D01*
X27847Y-19828D01*
X27866Y-19809D01*
X27904Y-19790D01*
X27999Y-19790D01*
X28037Y-19809D01*
X28056Y-19828D01*
X28075Y-19866D01*
X28075Y-19962D01*
X28056Y-20000D01*
X28037Y-20019D01*
X27445Y-35305D02*
X27045Y-35305D01*
X27445Y-35076D02*
X27217Y-35248D01*
X27045Y-35076D02*
X27274Y-35305D01*
X27179Y-34733D02*
X27445Y-34733D01*
X27026Y-34829D02*
X27312Y-34924D01*
X27312Y-34676D01*
X20200Y-35290D02*
X19800Y-35290D01*
X20200Y-35061D02*
X19972Y-35233D01*
X19800Y-35061D02*
X20029Y-35290D01*
X19800Y-34928D02*
X19800Y-34680D01*
X19953Y-34814D01*
X19953Y-34756D01*
X19972Y-34718D01*
X19991Y-34699D01*
X20029Y-34680D01*
X20124Y-34680D01*
X20162Y-34699D01*
X20181Y-34718D01*
X20200Y-34756D01*
X20200Y-34871D01*
X20181Y-34909D01*
X20162Y-34928D01*
X27450Y-20405D02*
X27050Y-20405D01*
X27450Y-20176D02*
X27222Y-20348D01*
X27050Y-20176D02*
X27279Y-20405D01*
X27089Y-20024D02*
X27070Y-20005D01*
X27050Y-19967D01*
X27050Y-19871D01*
X27070Y-19833D01*
X27089Y-19814D01*
X27127Y-19795D01*
X27165Y-19795D01*
X27222Y-19814D01*
X27450Y-20043D01*
X27450Y-19795D01*
X20195Y-20495D02*
X19795Y-20495D01*
X20195Y-20266D02*
X19967Y-20438D01*
X19795Y-20266D02*
X20024Y-20495D01*
X20195Y-19885D02*
X20195Y-20114D01*
X20195Y-19999D02*
X19795Y-19999D01*
X19853Y-20038D01*
X19891Y-20076D01*
X19910Y-20114D01*
G54D10*
X23622Y-19685D02*
X27559Y-19685D01*
X27559Y-19685D02*
X27559Y-27559D01*
X27559Y-27559D02*
X19685Y-27559D01*
X19685Y-27559D02*
X19685Y-19685D01*
X19685Y-19685D02*
X23818Y-19685D01*
X23622Y-27559D02*
X27559Y-27559D01*
X27559Y-27559D02*
X27559Y-35433D01*
X27559Y-35433D02*
X19685Y-35433D01*
X19685Y-35433D02*
X19685Y-27559D01*
X19685Y-27559D02*
X23818Y-27559D01*
X31496Y-19685D02*
X35433Y-19685D01*
X35433Y-19685D02*
X35433Y-27559D01*
X35433Y-27559D02*
X27559Y-27559D01*
X27559Y-27559D02*
X27559Y-19685D01*
X27559Y-19685D02*
X31692Y-19685D01*
X31496Y-27559D02*
X35433Y-27559D01*
X35433Y-27559D02*
X35433Y-35433D01*
X35433Y-35433D02*
X27559Y-35433D01*
X27559Y-35433D02*
X27559Y-27559D01*
X27559Y-27559D02*
X31692Y-27559D01*
G54D11*
X24393Y-23945D02*
X23993Y-23945D01*
X24279Y-23812D01*
X23993Y-23679D01*
X24393Y-23679D01*
X24393Y-23279D02*
X24393Y-23507D01*
X24393Y-23393D02*
X23993Y-23393D01*
X24050Y-23431D01*
X24088Y-23469D01*
X24107Y-23507D01*
X24393Y-31819D02*
X23993Y-31819D01*
X24279Y-31686D01*
X23993Y-31553D01*
X24393Y-31553D01*
X24031Y-31381D02*
X24012Y-31362D01*
X23993Y-31324D01*
X23993Y-31229D01*
X24012Y-31191D01*
X24031Y-31172D01*
X24069Y-31153D01*
X24107Y-31153D01*
X24164Y-31172D01*
X24393Y-31400D01*
X24393Y-31153D01*
X32267Y-23945D02*
X31867Y-23945D01*
X32153Y-23812D01*
X31867Y-23679D01*
X32267Y-23679D01*
X31867Y-23526D02*
X31867Y-23279D01*
X32019Y-23412D01*
X32019Y-23355D01*
X32038Y-23317D01*
X32058Y-23298D01*
X32096Y-23279D01*
X32191Y-23279D01*
X32229Y-23298D01*
X32248Y-23317D01*
X32267Y-23355D01*
X32267Y-23469D01*
X32248Y-23507D01*
X32229Y-23526D01*
X32267Y-31819D02*
X31867Y-31819D01*
X32153Y-31686D01*
X31867Y-31553D01*
X32267Y-31553D01*
X32000Y-31191D02*
X32267Y-31191D01*
X31848Y-31286D02*
X32134Y-31381D01*
X32134Y-31134D01*
M02*
