G04 (created by PCBNEW (2013-mar-13)-testing) date Mon 26 Aug 2013 08:21:07 AM PDT*
%MOIN*%
G04 Gerber Fmt 3.4, Leading zero omitted, Abs format*
%FSLAX34Y34*%
G01*
G70*
G90*
G04 APERTURE LIST*
%ADD10C,0.005906*%
%ADD11C,0.065000*%
%ADD12R,0.083000X0.026000*%
%ADD13C,0.050000*%
%ADD14C,0.035000*%
%ADD15C,0.010000*%
G04 APERTURE END LIST*
G54D10*
G54D11*
X20669Y-20122D03*
X20669Y-21122D03*
X20669Y-22122D03*
X20669Y-23122D03*
X20669Y-24122D03*
X20669Y-25122D03*
X20669Y-26122D03*
X20669Y-27122D03*
X26574Y-27122D03*
X26574Y-26122D03*
X26574Y-25122D03*
X26574Y-24122D03*
X26574Y-23122D03*
X26574Y-22122D03*
X26574Y-21122D03*
X26574Y-20122D03*
X20669Y-27996D03*
X20669Y-28996D03*
X20669Y-29996D03*
X20669Y-30996D03*
X20669Y-31996D03*
X20669Y-32996D03*
X20669Y-33996D03*
X20669Y-34996D03*
X26574Y-34996D03*
X26574Y-33996D03*
X26574Y-32996D03*
X26574Y-31996D03*
X26574Y-30996D03*
X26574Y-29996D03*
X26574Y-28996D03*
X26574Y-27996D03*
X28543Y-20122D03*
X28543Y-21122D03*
X28543Y-22122D03*
X28543Y-23122D03*
X28543Y-24122D03*
X28543Y-25122D03*
X28543Y-26122D03*
X28543Y-27122D03*
X34448Y-27122D03*
X34448Y-26122D03*
X34448Y-25122D03*
X34448Y-24122D03*
X34448Y-23122D03*
X34448Y-22122D03*
X34448Y-21122D03*
X34448Y-20122D03*
X28543Y-27996D03*
X28543Y-28996D03*
X28543Y-29996D03*
X28543Y-30996D03*
X28543Y-31996D03*
X28543Y-32996D03*
X28543Y-33996D03*
X28543Y-34996D03*
X34448Y-34996D03*
X34448Y-33996D03*
X34448Y-32996D03*
X34448Y-31996D03*
X34448Y-30996D03*
X34448Y-29996D03*
X34448Y-28996D03*
X34448Y-27996D03*
G54D12*
X24332Y-24688D03*
X22912Y-24688D03*
X24332Y-25188D03*
X22912Y-25188D03*
X24332Y-25688D03*
X22912Y-25688D03*
X24332Y-26188D03*
X22912Y-26188D03*
X24332Y-26688D03*
X22912Y-26688D03*
X24332Y-27188D03*
X22912Y-27188D03*
X24332Y-27688D03*
X22912Y-27688D03*
X24332Y-28188D03*
X22912Y-28188D03*
X24332Y-28688D03*
X22912Y-28688D03*
X24332Y-29188D03*
X22912Y-29188D03*
X24332Y-29688D03*
X22912Y-29688D03*
X24332Y-30188D03*
X22912Y-30188D03*
X24332Y-30688D03*
X22912Y-30688D03*
X24332Y-31188D03*
X22912Y-31188D03*
X24332Y-31688D03*
X22912Y-31688D03*
G54D13*
X23622Y-24068D03*
G54D11*
X23622Y-32308D03*
G54D12*
X32206Y-24688D03*
X30786Y-24688D03*
X32206Y-25188D03*
X30786Y-25188D03*
X32206Y-25688D03*
X30786Y-25688D03*
X32206Y-26188D03*
X30786Y-26188D03*
X32206Y-26688D03*
X30786Y-26688D03*
X32206Y-27188D03*
X30786Y-27188D03*
X32206Y-27688D03*
X30786Y-27688D03*
X32206Y-28188D03*
X30786Y-28188D03*
X32206Y-28688D03*
X30786Y-28688D03*
X32206Y-29188D03*
X30786Y-29188D03*
X32206Y-29688D03*
X30786Y-29688D03*
X32206Y-30188D03*
X30786Y-30188D03*
X32206Y-30688D03*
X30786Y-30688D03*
X32206Y-31188D03*
X30786Y-31188D03*
X32206Y-31688D03*
X30786Y-31688D03*
G54D13*
X31496Y-24068D03*
G54D11*
X31496Y-32308D03*
G54D14*
X25005Y-28604D03*
X22046Y-28113D03*
X21894Y-27683D03*
X22217Y-26886D03*
X23593Y-26486D03*
X22238Y-26163D03*
X23630Y-28951D03*
X23652Y-29631D03*
X23622Y-30470D03*
X23582Y-26967D03*
X25782Y-23360D03*
X22064Y-28763D03*
X32878Y-28600D03*
X30115Y-27766D03*
X31462Y-28722D03*
X30115Y-27190D03*
X31457Y-26346D03*
X31479Y-25688D03*
X30115Y-25404D03*
X32885Y-29093D03*
X32886Y-29530D03*
X30115Y-28212D03*
X25010Y-24462D03*
X23650Y-25111D03*
X24503Y-24205D03*
X23622Y-25631D03*
X25739Y-32613D03*
X32751Y-23811D03*
X32140Y-23722D03*
X32879Y-25317D03*
X32991Y-25910D03*
G54D15*
X24920Y-28688D02*
X25005Y-28604D01*
X24332Y-28688D02*
X24920Y-28688D01*
X22912Y-27688D02*
X22366Y-27688D01*
X22366Y-27793D02*
X22046Y-28113D01*
X22366Y-27688D02*
X22366Y-27793D01*
X22912Y-27188D02*
X22366Y-27188D01*
X22366Y-27211D02*
X21894Y-27683D01*
X22366Y-27188D02*
X22366Y-27211D01*
X22366Y-26736D02*
X22217Y-26886D01*
X22366Y-26688D02*
X22366Y-26736D01*
X22912Y-26688D02*
X22366Y-26688D01*
X23457Y-26350D02*
X23593Y-26486D01*
X23457Y-26188D02*
X23457Y-26350D01*
X22912Y-26188D02*
X23457Y-26188D01*
X22912Y-25688D02*
X22366Y-25688D01*
X22238Y-25817D02*
X22238Y-26163D01*
X22366Y-25688D02*
X22238Y-25817D01*
X27407Y-29163D02*
X26574Y-29996D01*
X27407Y-24310D02*
X27407Y-29163D01*
X26763Y-23666D02*
X27407Y-24310D01*
X24610Y-23666D02*
X26763Y-23666D01*
X23759Y-24518D02*
X24610Y-23666D01*
X23759Y-24570D02*
X23759Y-24518D01*
X23141Y-25188D02*
X23759Y-24570D01*
X22912Y-25188D02*
X23141Y-25188D01*
X27587Y-29983D02*
X26574Y-30996D01*
X27587Y-23486D02*
X27587Y-29983D01*
X26756Y-22655D02*
X27587Y-23486D01*
X24494Y-22655D02*
X26756Y-22655D01*
X22912Y-24238D02*
X24494Y-22655D01*
X22912Y-24688D02*
X22912Y-24238D01*
X24332Y-29188D02*
X23786Y-29188D01*
X23786Y-29107D02*
X23630Y-28951D01*
X23786Y-29188D02*
X23786Y-29107D01*
X24332Y-29688D02*
X23786Y-29688D01*
X23729Y-29631D02*
X23652Y-29631D01*
X23786Y-29688D02*
X23729Y-29631D01*
X22912Y-30688D02*
X22366Y-30688D01*
X22366Y-30049D02*
X22366Y-30688D01*
X20813Y-28496D02*
X22366Y-30049D01*
X20509Y-28496D02*
X20813Y-28496D01*
X20205Y-28191D02*
X20509Y-28496D01*
X20205Y-27585D02*
X20205Y-28191D01*
X20669Y-27122D02*
X20205Y-27585D01*
X22912Y-30188D02*
X23457Y-30188D01*
X23457Y-30305D02*
X23622Y-30470D01*
X23457Y-30188D02*
X23457Y-30305D01*
X22912Y-29688D02*
X22366Y-29688D01*
X22303Y-29688D02*
X22366Y-29688D01*
X21409Y-28794D02*
X22303Y-29688D01*
X21409Y-27467D02*
X21409Y-28794D01*
X21561Y-27314D02*
X21409Y-27467D01*
X21561Y-25031D02*
X21561Y-27314D01*
X25471Y-21122D02*
X21561Y-25031D01*
X26574Y-21122D02*
X25471Y-21122D01*
X22912Y-29188D02*
X22366Y-29188D01*
X22058Y-29188D02*
X22366Y-29188D01*
X21589Y-28719D02*
X22058Y-29188D01*
X21589Y-27557D02*
X21589Y-28719D01*
X21741Y-27404D02*
X21589Y-27557D01*
X21741Y-25106D02*
X21741Y-27404D01*
X24725Y-22122D02*
X21741Y-25106D01*
X26574Y-22122D02*
X24725Y-22122D01*
X22912Y-28688D02*
X23457Y-28688D01*
X26336Y-23360D02*
X25782Y-23360D01*
X26574Y-23122D02*
X26336Y-23360D01*
X23457Y-27092D02*
X23582Y-26967D01*
X23457Y-28688D02*
X23457Y-27092D01*
X22912Y-28188D02*
X22366Y-28188D01*
X22366Y-28460D02*
X22064Y-28763D01*
X22366Y-28188D02*
X22366Y-28460D01*
X32839Y-28600D02*
X32878Y-28600D01*
X32751Y-28688D02*
X32839Y-28600D01*
X32206Y-28688D02*
X32751Y-28688D01*
X30786Y-27688D02*
X30240Y-27688D01*
X30163Y-27766D02*
X30115Y-27766D01*
X30240Y-27688D02*
X30163Y-27766D01*
X31331Y-28590D02*
X31462Y-28722D01*
X31331Y-27188D02*
X31331Y-28590D01*
X30786Y-27188D02*
X31331Y-27188D01*
X30786Y-26688D02*
X30240Y-26688D01*
X30240Y-27064D02*
X30115Y-27190D01*
X30240Y-26688D02*
X30240Y-27064D01*
X30786Y-26188D02*
X31331Y-26188D01*
X31331Y-26220D02*
X31457Y-26346D01*
X31331Y-26188D02*
X31331Y-26220D01*
X30786Y-25688D02*
X31479Y-25688D01*
X30786Y-25188D02*
X30240Y-25188D01*
X30240Y-25278D02*
X30115Y-25404D01*
X30240Y-25188D02*
X30240Y-25278D01*
X35100Y-30344D02*
X34448Y-30996D01*
X35100Y-24118D02*
X35100Y-30344D01*
X34604Y-23622D02*
X35100Y-24118D01*
X34218Y-23622D02*
X34604Y-23622D01*
X34014Y-23417D02*
X34218Y-23622D01*
X31606Y-23417D02*
X34014Y-23417D01*
X30786Y-24237D02*
X31606Y-23417D01*
X30786Y-24688D02*
X30786Y-24237D01*
X32206Y-29188D02*
X32751Y-29188D01*
X32846Y-29093D02*
X32885Y-29093D01*
X32751Y-29188D02*
X32846Y-29093D01*
X32751Y-29665D02*
X32886Y-29530D01*
X32751Y-29688D02*
X32751Y-29665D01*
X32206Y-29688D02*
X32751Y-29688D01*
X30786Y-30688D02*
X30240Y-30688D01*
X28999Y-29447D02*
X30240Y-30688D01*
X28999Y-28803D02*
X28999Y-29447D01*
X28691Y-28496D02*
X28999Y-28803D01*
X28388Y-28496D02*
X28691Y-28496D01*
X28084Y-28192D02*
X28388Y-28496D01*
X28084Y-27580D02*
X28084Y-28192D01*
X28543Y-27122D02*
X28084Y-27580D01*
X30786Y-30188D02*
X30240Y-30188D01*
X29245Y-29193D02*
X30240Y-30188D01*
X29245Y-24671D02*
X29245Y-29193D01*
X33795Y-20122D02*
X29245Y-24671D01*
X34448Y-20122D02*
X33795Y-20122D01*
X30786Y-29688D02*
X30240Y-29688D01*
X29442Y-28890D02*
X30240Y-29688D01*
X29442Y-24769D02*
X29442Y-28890D01*
X33089Y-21122D02*
X29442Y-24769D01*
X34448Y-21122D02*
X33089Y-21122D01*
X32344Y-22122D02*
X34448Y-22122D01*
X29627Y-24839D02*
X32344Y-22122D01*
X29627Y-28575D02*
X29627Y-24839D01*
X30240Y-29188D02*
X29627Y-28575D01*
X30786Y-29188D02*
X30240Y-29188D01*
X31609Y-23122D02*
X34448Y-23122D01*
X29808Y-24923D02*
X31609Y-23122D01*
X29808Y-28353D02*
X29808Y-24923D01*
X30143Y-28688D02*
X29808Y-28353D01*
X30786Y-28688D02*
X30143Y-28688D01*
X30138Y-28188D02*
X30115Y-28212D01*
X30786Y-28188D02*
X30138Y-28188D01*
X24877Y-24595D02*
X25010Y-24462D01*
X24877Y-24688D02*
X24877Y-24595D01*
X24332Y-24688D02*
X24877Y-24688D01*
X20669Y-27952D02*
X20669Y-27996D01*
X21307Y-27314D02*
X20669Y-27952D01*
X21307Y-20760D02*
X21307Y-27314D01*
X20669Y-20122D02*
X21307Y-20760D01*
X23727Y-25188D02*
X23650Y-25111D01*
X24332Y-25188D02*
X23727Y-25188D01*
X20025Y-28352D02*
X20669Y-28996D01*
X20025Y-25112D02*
X20025Y-28352D01*
X20515Y-24622D02*
X20025Y-25112D01*
X20817Y-24622D02*
X20515Y-24622D01*
X21127Y-24311D02*
X20817Y-24622D01*
X21127Y-21580D02*
X21127Y-24311D01*
X20669Y-21122D02*
X21127Y-21580D01*
X24551Y-24157D02*
X24503Y-24205D01*
X25150Y-24157D02*
X24551Y-24157D01*
X25315Y-24322D02*
X25150Y-24157D01*
X25315Y-25250D02*
X25315Y-24322D01*
X24877Y-25688D02*
X25315Y-25250D01*
X24332Y-25688D02*
X24877Y-25688D01*
X19845Y-29171D02*
X20669Y-29996D01*
X19845Y-22946D02*
X19845Y-29171D01*
X20669Y-22122D02*
X19845Y-22946D01*
X23786Y-25796D02*
X23622Y-25631D01*
X23786Y-26188D02*
X23786Y-25796D01*
X24332Y-26188D02*
X23786Y-26188D01*
X24332Y-26688D02*
X24877Y-26688D01*
X25495Y-25555D02*
X26575Y-24475D01*
X25495Y-25956D02*
X25495Y-25555D01*
X24877Y-26574D02*
X25495Y-25956D01*
X24877Y-26688D02*
X24877Y-26574D01*
X26575Y-24122D02*
X26574Y-24122D01*
X26575Y-24475D02*
X26575Y-24122D01*
X27046Y-24947D02*
X26575Y-24475D01*
X27046Y-25691D02*
X27046Y-24947D01*
X27227Y-25871D02*
X27046Y-25691D01*
X27227Y-28450D02*
X27227Y-25871D01*
X27029Y-28647D02*
X27227Y-28450D01*
X27029Y-29188D02*
X27029Y-28647D01*
X26721Y-29496D02*
X27029Y-29188D01*
X26427Y-29496D02*
X26721Y-29496D01*
X26114Y-29809D02*
X26427Y-29496D01*
X26114Y-31441D02*
X26114Y-29809D01*
X26574Y-31901D02*
X26114Y-31441D01*
X26574Y-31996D02*
X26574Y-31901D01*
X24332Y-27188D02*
X24877Y-27188D01*
X24877Y-27142D02*
X26560Y-25459D01*
X24877Y-27188D02*
X24877Y-27142D01*
X26560Y-25136D02*
X26560Y-25459D01*
X26574Y-25122D02*
X26560Y-25136D01*
X27046Y-25945D02*
X26560Y-25459D01*
X27046Y-28179D02*
X27046Y-25945D01*
X26729Y-28496D02*
X27046Y-28179D01*
X26424Y-28496D02*
X26729Y-28496D01*
X25934Y-28986D02*
X26424Y-28496D01*
X25934Y-32355D02*
X25934Y-28986D01*
X26574Y-32996D02*
X25934Y-32355D01*
X25007Y-27688D02*
X24332Y-27688D01*
X26574Y-26122D02*
X25007Y-27688D01*
X25507Y-32381D02*
X25739Y-32613D01*
X25507Y-28188D02*
X25507Y-32381D01*
X24332Y-28188D02*
X25507Y-28188D01*
X25507Y-28188D02*
X26574Y-27122D01*
X32206Y-24688D02*
X32751Y-24688D01*
X28999Y-27540D02*
X28543Y-27996D01*
X28999Y-20578D02*
X28999Y-27540D01*
X28543Y-20122D02*
X28999Y-20578D01*
X32751Y-24688D02*
X32751Y-23811D01*
X32206Y-25188D02*
X31660Y-25188D01*
X32140Y-23962D02*
X32140Y-23722D01*
X31660Y-24441D02*
X32140Y-23962D01*
X31660Y-25188D02*
X31660Y-24441D01*
X27898Y-28350D02*
X28543Y-28996D01*
X27898Y-21767D02*
X27898Y-28350D01*
X28543Y-21122D02*
X27898Y-21767D01*
X32751Y-25446D02*
X32879Y-25317D01*
X32751Y-25688D02*
X32751Y-25446D01*
X32206Y-25688D02*
X32751Y-25688D01*
X32751Y-26151D02*
X32991Y-25910D01*
X32751Y-26188D02*
X32751Y-26151D01*
X32206Y-26188D02*
X32751Y-26188D01*
X32206Y-26688D02*
X32751Y-26688D01*
X33903Y-24666D02*
X34448Y-24122D01*
X33903Y-25536D02*
X33903Y-24666D01*
X32751Y-26688D02*
X33903Y-25536D01*
X32206Y-27188D02*
X32751Y-27188D01*
X34920Y-25924D02*
X34442Y-25446D01*
X34920Y-30172D02*
X34920Y-25924D01*
X34596Y-30496D02*
X34920Y-30172D01*
X34305Y-30496D02*
X34596Y-30496D01*
X33987Y-30813D02*
X34305Y-30496D01*
X33987Y-32535D02*
X33987Y-30813D01*
X34448Y-32996D02*
X33987Y-32535D01*
X32751Y-27137D02*
X34442Y-25446D01*
X32751Y-27188D02*
X32751Y-27137D01*
X34448Y-25440D02*
X34448Y-25122D01*
X34442Y-25446D02*
X34448Y-25440D01*
X32881Y-27688D02*
X34448Y-26122D01*
X32206Y-27688D02*
X32881Y-27688D01*
X32206Y-28188D02*
X32751Y-28188D01*
X33404Y-28188D02*
X32751Y-28188D01*
X33404Y-28166D02*
X33404Y-28188D01*
X34448Y-27122D02*
X33404Y-28166D01*
X33404Y-33951D02*
X33404Y-28188D01*
X34448Y-34996D02*
X33404Y-33951D01*
X24332Y-31688D02*
X24877Y-31688D01*
X32206Y-32248D02*
X32206Y-31688D01*
X30991Y-33462D02*
X32206Y-32248D01*
X26157Y-33462D02*
X30991Y-33462D01*
X24877Y-32182D02*
X26157Y-33462D01*
X24877Y-31688D02*
X24877Y-32182D01*
M02*
