M48
;DRILL file {Pcbnew (2013-mar-13)-testing} date Mon 26 Aug 2013 08:21:11 AM PDT
;FORMAT={2:4/ absolute / inch / suppress trailing zeros}
FMAT,2
INCH,LZ
T1C0.025
T2C0.040
T3C0.055
%
G90
G05
M72
T1
X021894Y-027684
X022047Y-028114
X022064Y-028763
X022218Y-026886
X022239Y-026164
X023583Y-026967
X023593Y-026487
X023622Y-025631
X023622Y-03047
X023631Y-028951
X02365Y-025111
X023652Y-029632
X024504Y-024205
X025005Y-028605
X02501Y-024463
X025739Y-032613
X025782Y-02336
X030115Y-025404
X030115Y-027191
X030115Y-027766
X030115Y-028212
X031457Y-026347
X031463Y-028722
X031479Y-025689
X03214Y-023723
X032751Y-023811
X032879Y-0286
X032879Y-025318
X032885Y-029093
X032887Y-02953
X032992Y-02591
T2
X020669Y-020122
X020669Y-021122
X020669Y-022122
X020669Y-023122
X020669Y-024122
X020669Y-025122
X020669Y-026122
X020669Y-027122
X020669Y-027996
X020669Y-028996
X020669Y-029996
X020669Y-030996
X020669Y-031996
X020669Y-032996
X020669Y-033996
X020669Y-034996
X023622Y-024069
X026575Y-020122
X026575Y-021122
X026575Y-022122
X026575Y-023122
X026575Y-024122
X026575Y-025122
X026575Y-026122
X026575Y-027122
X026575Y-027996
X026575Y-028996
X026575Y-029996
X026575Y-030996
X026575Y-031996
X026575Y-032996
X026575Y-033996
X026575Y-034996
X028543Y-020122
X028543Y-021122
X028543Y-022122
X028543Y-023122
X028543Y-024122
X028543Y-025122
X028543Y-026122
X028543Y-027122
X028543Y-027996
X028543Y-028996
X028543Y-029996
X028543Y-030996
X028543Y-031996
X028543Y-032996
X028543Y-033996
X028543Y-034996
X031496Y-024069
X034449Y-020122
X034449Y-021122
X034449Y-022122
X034449Y-023122
X034449Y-024122
X034449Y-025122
X034449Y-026122
X034449Y-027122
X034449Y-027996
X034449Y-028996
X034449Y-029996
X034449Y-030996
X034449Y-031996
X034449Y-032996
X034449Y-033996
X034449Y-034996
T3
X023622Y-032309
X031496Y-032309
T0
M30
