G04 (created by PCBNEW (2013-mar-13)-testing) date Mon 26 Aug 2013 08:21:07 AM PDT*
%MOIN*%
G04 Gerber Fmt 3.4, Leading zero omitted, Abs format*
%FSLAX34Y34*%
G01*
G70*
G90*
G04 APERTURE LIST*
%ADD10C,0.005906*%
%ADD11C,0.065000*%
%ADD12C,0.050000*%
%ADD13C,0.035000*%
%ADD14C,0.010000*%
G04 APERTURE END LIST*
G54D10*
G54D11*
X20669Y-20122D03*
X20669Y-21122D03*
X20669Y-22122D03*
X20669Y-23122D03*
X20669Y-24122D03*
X20669Y-25122D03*
X20669Y-26122D03*
X20669Y-27122D03*
X26574Y-27122D03*
X26574Y-26122D03*
X26574Y-25122D03*
X26574Y-24122D03*
X26574Y-23122D03*
X26574Y-22122D03*
X26574Y-21122D03*
X26574Y-20122D03*
X20669Y-27996D03*
X20669Y-28996D03*
X20669Y-29996D03*
X20669Y-30996D03*
X20669Y-31996D03*
X20669Y-32996D03*
X20669Y-33996D03*
X20669Y-34996D03*
X26574Y-34996D03*
X26574Y-33996D03*
X26574Y-32996D03*
X26574Y-31996D03*
X26574Y-30996D03*
X26574Y-29996D03*
X26574Y-28996D03*
X26574Y-27996D03*
X28543Y-20122D03*
X28543Y-21122D03*
X28543Y-22122D03*
X28543Y-23122D03*
X28543Y-24122D03*
X28543Y-25122D03*
X28543Y-26122D03*
X28543Y-27122D03*
X34448Y-27122D03*
X34448Y-26122D03*
X34448Y-25122D03*
X34448Y-24122D03*
X34448Y-23122D03*
X34448Y-22122D03*
X34448Y-21122D03*
X34448Y-20122D03*
X28543Y-27996D03*
X28543Y-28996D03*
X28543Y-29996D03*
X28543Y-30996D03*
X28543Y-31996D03*
X28543Y-32996D03*
X28543Y-33996D03*
X28543Y-34996D03*
X34448Y-34996D03*
X34448Y-33996D03*
X34448Y-32996D03*
X34448Y-31996D03*
X34448Y-30996D03*
X34448Y-29996D03*
X34448Y-28996D03*
X34448Y-27996D03*
G54D12*
X23622Y-24068D03*
G54D11*
X23622Y-32308D03*
G54D12*
X31496Y-24068D03*
G54D11*
X31496Y-32308D03*
G54D13*
X25005Y-28604D03*
X22046Y-28113D03*
X21894Y-27683D03*
X22217Y-26886D03*
X23593Y-26486D03*
X22238Y-26163D03*
X23630Y-28951D03*
X23652Y-29631D03*
X23622Y-30470D03*
X23582Y-26967D03*
X25782Y-23360D03*
X22064Y-28763D03*
X32878Y-28600D03*
X30115Y-27766D03*
X31462Y-28722D03*
X30115Y-27190D03*
X31457Y-26346D03*
X31479Y-25688D03*
X30115Y-25404D03*
X32885Y-29093D03*
X32886Y-29530D03*
X30115Y-28212D03*
X25010Y-24462D03*
X23650Y-25111D03*
X24503Y-24205D03*
X23622Y-25631D03*
X25739Y-32613D03*
X32751Y-23811D03*
X32140Y-23722D03*
X32879Y-25317D03*
X32991Y-25910D03*
G54D14*
X24524Y-28604D02*
X25005Y-28604D01*
X22822Y-26902D02*
X24524Y-28604D01*
X22822Y-26274D02*
X22822Y-26902D01*
X20669Y-24122D02*
X22822Y-26274D01*
X22375Y-28442D02*
X22046Y-28113D01*
X22375Y-31290D02*
X22375Y-28442D01*
X20669Y-32996D02*
X22375Y-31290D01*
X22577Y-32088D02*
X20669Y-33996D01*
X22577Y-28189D02*
X22577Y-32088D01*
X22071Y-27683D02*
X22577Y-28189D01*
X21894Y-27683D02*
X22071Y-27683D01*
X23109Y-32556D02*
X20669Y-34996D01*
X23109Y-30541D02*
X23109Y-32556D01*
X23590Y-30060D02*
X23109Y-30541D01*
X23668Y-30060D02*
X23590Y-30060D01*
X23958Y-29770D02*
X23668Y-30060D01*
X23958Y-28626D02*
X23958Y-29770D01*
X22217Y-26886D02*
X23958Y-28626D01*
X24175Y-27996D02*
X26574Y-27996D01*
X23277Y-27098D02*
X24175Y-27996D01*
X23277Y-26802D02*
X23277Y-27098D01*
X23593Y-26486D02*
X23277Y-26802D01*
X24657Y-28996D02*
X26574Y-28996D01*
X22590Y-26929D02*
X24657Y-28996D01*
X22590Y-26515D02*
X22590Y-26929D01*
X22238Y-26163D02*
X22590Y-26515D01*
X23630Y-28733D02*
X23630Y-28951D01*
X21467Y-26570D02*
X23630Y-28733D01*
X21467Y-25920D02*
X21467Y-26570D01*
X20669Y-25122D02*
X21467Y-25920D01*
X23082Y-29061D02*
X23652Y-29631D01*
X23082Y-28439D02*
X23082Y-29061D01*
X20764Y-26122D02*
X23082Y-28439D01*
X20669Y-26122D02*
X20764Y-26122D01*
X26766Y-30470D02*
X23622Y-30470D01*
X27057Y-30179D02*
X26766Y-30470D01*
X27057Y-26957D02*
X27057Y-30179D01*
X26721Y-26622D02*
X27057Y-26957D01*
X26426Y-26622D02*
X26721Y-26622D01*
X26104Y-26300D02*
X26426Y-26622D01*
X26104Y-20592D02*
X26104Y-26300D01*
X26574Y-20122D02*
X26104Y-20592D01*
X25782Y-24767D02*
X23582Y-26967D01*
X25782Y-23360D02*
X25782Y-24767D01*
X22064Y-30601D02*
X20669Y-31996D01*
X22064Y-28763D02*
X22064Y-30601D01*
X28543Y-24265D02*
X28543Y-24122D01*
X32878Y-28600D02*
X28543Y-24265D01*
X30420Y-28071D02*
X30115Y-27766D01*
X30420Y-31118D02*
X30420Y-28071D01*
X28543Y-32996D02*
X30420Y-31118D01*
X31462Y-31076D02*
X28543Y-33996D01*
X31462Y-28722D02*
X31462Y-31076D01*
X29772Y-27532D02*
X30115Y-27190D01*
X29772Y-30421D02*
X29772Y-27532D01*
X28697Y-31496D02*
X29772Y-30421D01*
X28393Y-31496D02*
X28697Y-31496D01*
X28072Y-31816D02*
X28393Y-31496D01*
X28072Y-34525D02*
X28072Y-31816D01*
X28543Y-34996D02*
X28072Y-34525D01*
X31168Y-26057D02*
X31457Y-26346D01*
X31168Y-25551D02*
X31168Y-26057D01*
X31356Y-25362D02*
X31168Y-25551D01*
X31815Y-25362D02*
X31356Y-25362D01*
X34448Y-27996D02*
X31815Y-25362D01*
X34448Y-28658D02*
X31479Y-25688D01*
X34448Y-28996D02*
X34448Y-28658D01*
X30115Y-25446D02*
X30115Y-25404D01*
X32578Y-27910D02*
X30115Y-25446D01*
X32633Y-27910D02*
X32578Y-27910D01*
X34448Y-29725D02*
X32633Y-27910D01*
X34448Y-29996D02*
X34448Y-29725D01*
X28913Y-25122D02*
X28543Y-25122D01*
X32885Y-29093D02*
X28913Y-25122D01*
X29478Y-26122D02*
X28543Y-26122D01*
X32886Y-29530D02*
X29478Y-26122D01*
X30115Y-30424D02*
X30115Y-28212D01*
X28543Y-31996D02*
X30115Y-30424D01*
X20851Y-20122D02*
X20669Y-20122D01*
X25010Y-24280D02*
X20851Y-20122D01*
X25010Y-24462D02*
X25010Y-24280D01*
X21116Y-22577D02*
X23650Y-25111D01*
X20470Y-22577D02*
X21116Y-22577D01*
X20214Y-22320D02*
X20470Y-22577D01*
X20214Y-21577D02*
X20214Y-22320D01*
X20669Y-21122D02*
X20214Y-21577D01*
X22420Y-22122D02*
X20669Y-22122D01*
X24503Y-24205D02*
X22420Y-22122D01*
X21430Y-23439D02*
X20708Y-23439D01*
X23622Y-25631D02*
X21430Y-23439D01*
X20708Y-23160D02*
X20708Y-23439D01*
X20669Y-23122D02*
X20708Y-23160D01*
X20192Y-30519D02*
X20669Y-30996D01*
X20192Y-23955D02*
X20192Y-30519D01*
X20708Y-23439D02*
X20192Y-23955D01*
X27244Y-33326D02*
X26574Y-33996D01*
X27244Y-26791D02*
X27244Y-33326D01*
X26574Y-26122D02*
X27244Y-26791D01*
X25739Y-34160D02*
X26574Y-34996D01*
X25739Y-32613D02*
X25739Y-34160D01*
X29062Y-20122D02*
X32751Y-23811D01*
X28543Y-20122D02*
X29062Y-20122D01*
X29539Y-21122D02*
X32140Y-23722D01*
X28543Y-21122D02*
X29539Y-21122D01*
X29020Y-22599D02*
X28543Y-22122D01*
X29020Y-23664D02*
X29020Y-22599D01*
X28354Y-23664D02*
X29020Y-23664D01*
X28071Y-23947D02*
X28354Y-23664D01*
X28071Y-29523D02*
X28071Y-23947D01*
X28543Y-29996D02*
X28071Y-29523D01*
X30383Y-25027D02*
X29020Y-23664D01*
X32588Y-25027D02*
X30383Y-25027D01*
X32879Y-25317D02*
X32588Y-25027D01*
X33184Y-25717D02*
X32991Y-25910D01*
X33184Y-25185D02*
X33184Y-25717D01*
X32026Y-24027D02*
X33184Y-25185D01*
X32013Y-24027D02*
X32026Y-24027D01*
X29653Y-21666D02*
X32013Y-24027D01*
X28344Y-21666D02*
X29653Y-21666D01*
X28088Y-21923D02*
X28344Y-21666D01*
X28088Y-22666D02*
X28088Y-21923D01*
X28543Y-23122D02*
X28088Y-22666D01*
X27884Y-30337D02*
X28543Y-30996D01*
X27884Y-23780D02*
X27884Y-30337D01*
X28543Y-23122D02*
X27884Y-23780D01*
X34920Y-31524D02*
X34448Y-31996D01*
X34920Y-26946D02*
X34920Y-31524D01*
X34596Y-26622D02*
X34920Y-26946D01*
X34304Y-26622D02*
X34596Y-26622D01*
X33979Y-26297D02*
X34304Y-26622D01*
X33979Y-24591D02*
X33979Y-26297D01*
X34448Y-24122D02*
X33979Y-24591D01*
X35100Y-33344D02*
X34448Y-33996D01*
X35100Y-26774D02*
X35100Y-33344D01*
X34448Y-26122D02*
X35100Y-26774D01*
M02*
