%TF.GenerationSoftware,KiCad,Pcbnew,7.0.1*%
%TF.CreationDate,2023-04-03T11:52:17-04:00*%
%TF.ProjectId,panel-tester_arduino-uno,70616e65-6c2d-4746-9573-7465725f6172,rev?*%
%TF.SameCoordinates,Original*%
%TF.FileFunction,Copper,L2,Bot*%
%TF.FilePolarity,Positive*%
%FSLAX46Y46*%
G04 Gerber Fmt 4.6, Leading zero omitted, Abs format (unit mm)*
G04 Created by KiCad (PCBNEW 7.0.1) date 2023-04-03 11:52:17*
%MOMM*%
%LPD*%
G01*
G04 APERTURE LIST*
%TA.AperFunction,ComponentPad*%
%ADD10O,1.727200X1.727200*%
%TD*%
%TA.AperFunction,ComponentPad*%
%ADD11R,1.727200X1.727200*%
%TD*%
%TA.AperFunction,ComponentPad*%
%ADD12R,1.700000X1.700000*%
%TD*%
%TA.AperFunction,ComponentPad*%
%ADD13O,1.700000X1.700000*%
%TD*%
G04 APERTURE END LIST*
D10*
%TO.P,XA1,VIN,VIN*%
%TO.N,unconnected-(XA1-PadVIN)*%
X213279881Y-82750000D03*
%TO.P,XA1,SDA,SDA*%
%TO.N,unconnected-(XA1-PadSDA)*%
X188895881Y-34490000D03*
%TO.P,XA1,SCL,SCL*%
%TO.N,unconnected-(XA1-PadSCL)*%
X186355881Y-34490000D03*
%TO.P,XA1,SCK,SPI_SCK*%
%TO.N,unconnected-(XA1-PadSCK)*%
X231186881Y-57350000D03*
%TO.P,XA1,RST2,SPI_RESET*%
%TO.N,unconnected-(XA1-PadRST2)*%
X231186881Y-59890000D03*
%TO.P,XA1,RST1,RESET*%
%TO.N,unconnected-(XA1-PadRST1)*%
X200579881Y-82750000D03*
%TO.P,XA1,MOSI,SPI_MOSI*%
%TO.N,unconnected-(XA1-PadMOSI)*%
X233726881Y-57350000D03*
%TO.P,XA1,MISO,SPI_MISO*%
%TO.N,unconnected-(XA1-PadMISO)*%
X231186881Y-54810000D03*
%TO.P,XA1,IORF,IOREF*%
%TO.N,unconnected-(XA1-PadIORF)*%
X198039881Y-82750000D03*
D11*
%TO.P,XA1,GND4,SPI_GND*%
%TO.N,unconnected-(XA1-PadGND4)*%
X233726881Y-59890000D03*
%TO.P,XA1,GND3,GND*%
%TO.N,unconnected-(XA1-PadGND3)*%
X210739881Y-82750000D03*
%TO.P,XA1,GND2,GND*%
%TO.N,/GND*%
X208199881Y-82750000D03*
%TO.P,XA1,GND1,GND*%
%TO.N,unconnected-(XA1-PadGND1)*%
X193975881Y-34490000D03*
D10*
%TO.P,XA1,D13,D13*%
%TO.N,/SCK*%
X196515881Y-34490000D03*
%TO.P,XA1,D12,D12*%
%TO.N,unconnected-(XA1-PadD12)*%
X199055881Y-34490000D03*
%TO.P,XA1,D11,D11*%
%TO.N,/COPI*%
X201595881Y-34490000D03*
%TO.P,XA1,D10,D10_CS*%
%TO.N,/CS1*%
X204135881Y-34490000D03*
%TO.P,XA1,D9,D9*%
%TO.N,unconnected-(XA1-PadD9)*%
X206675881Y-34490000D03*
%TO.P,XA1,D8,D8*%
%TO.N,unconnected-(XA1-PadD8)*%
X209215881Y-34490000D03*
%TO.P,XA1,D7,D7*%
%TO.N,unconnected-(XA1-PadD7)*%
X213279881Y-34490000D03*
%TO.P,XA1,D6,D6*%
%TO.N,unconnected-(XA1-PadD6)*%
X215819881Y-34490000D03*
%TO.P,XA1,D5,D5*%
%TO.N,unconnected-(XA1-PadD5)*%
X218359881Y-34490000D03*
%TO.P,XA1,D4,D4*%
%TO.N,unconnected-(XA1-PadD4)*%
X220899881Y-34490000D03*
%TO.P,XA1,D3,D3_INT1*%
%TO.N,unconnected-(XA1-PadD3)*%
X223439881Y-34490000D03*
%TO.P,XA1,D2,D2_INT0*%
%TO.N,unconnected-(XA1-PadD2)*%
X225979881Y-34490000D03*
%TO.P,XA1,D1,D1_TX0*%
%TO.N,unconnected-(XA1-PadD1)*%
X228519881Y-34490000D03*
%TO.P,XA1,D0,D0_RX0*%
%TO.N,unconnected-(XA1-PadD0)*%
X231059881Y-34490000D03*
%TO.P,XA1,AREF,AREF*%
%TO.N,unconnected-(XA1-PadAREF)*%
X191435881Y-34490000D03*
%TO.P,XA1,A5,A5*%
%TO.N,unconnected-(XA1-PadA5)*%
X231059881Y-82750000D03*
%TO.P,XA1,A4,A4*%
%TO.N,unconnected-(XA1-PadA4)*%
X228519881Y-82750000D03*
%TO.P,XA1,A3,A3*%
%TO.N,unconnected-(XA1-PadA3)*%
X225979881Y-82750000D03*
%TO.P,XA1,A2,A2*%
%TO.N,unconnected-(XA1-PadA2)*%
X223439881Y-82750000D03*
%TO.P,XA1,A1,A1*%
%TO.N,unconnected-(XA1-PadA1)*%
X220899881Y-82750000D03*
%TO.P,XA1,A0,A0*%
%TO.N,unconnected-(XA1-PadA0)*%
X218359881Y-82750000D03*
%TO.P,XA1,5V2,SPI_5V*%
%TO.N,unconnected-(XA1-Pad5V2)*%
X233726881Y-54810000D03*
%TO.P,XA1,5V1,5V*%
%TO.N,/5VCC*%
X205659881Y-82750000D03*
%TO.P,XA1,3V3,3.3V*%
%TO.N,unconnected-(XA1-Pad3V3)*%
X203119881Y-82750000D03*
%TO.P,XA1,*%
%TO.N,*%
X195499881Y-82750000D03*
%TD*%
D12*
%TO.P,J1,1,Pin_1*%
%TO.N,/5VCC*%
X224105000Y-77000000D03*
D13*
%TO.P,J1,2,Pin_2*%
%TO.N,/GND*%
X224105000Y-74460000D03*
%TO.P,J1,3,Pin_3*%
%TO.N,unconnected-(J1-Pad3)*%
X224105000Y-71920000D03*
%TO.P,J1,4,Pin_4*%
%TO.N,/SCK*%
X224105000Y-69380000D03*
%TO.P,J1,5,Pin_5*%
%TO.N,/COPI*%
X224105000Y-66840000D03*
%TO.P,J1,6,Pin_6*%
%TO.N,unconnected-(J1-Pad6)*%
X224105000Y-64300000D03*
%TO.P,J1,7,Pin_7*%
%TO.N,/CS1*%
X224105000Y-61760000D03*
%TO.P,J1,8,Pin_8*%
%TO.N,unconnected-(J1-Pad8)*%
X224105000Y-59220000D03*
%TO.P,J1,9,Pin_9*%
%TO.N,unconnected-(J1-Pad9)*%
X224105000Y-56680000D03*
%TO.P,J1,10,Pin_10*%
%TO.N,unconnected-(J1-Pad10)*%
X224105000Y-54140000D03*
%TO.P,J1,11,Pin_11*%
%TO.N,unconnected-(J1-Pad11)*%
X224105000Y-51600000D03*
%TO.P,J1,12,Pin_12*%
%TO.N,unconnected-(J1-Pad12)*%
X224105000Y-49060000D03*
%TO.P,J1,13,Pin_13*%
%TO.N,unconnected-(J1-Pad13)*%
X224105000Y-46520000D03*
%TO.P,J1,14,Pin_14*%
%TO.N,unconnected-(J1-Pad14)*%
X224105000Y-43980000D03*
%TO.P,J1,15,Pin_15*%
%TO.N,unconnected-(J1-Pad15)*%
X224105000Y-41440000D03*
%TD*%
%TA.AperFunction,Conductor*%
%TO.N,/GND*%
G36*
X236874791Y-31647819D02*
G01*
X236950493Y-31649171D01*
X236954988Y-31649332D01*
X236962096Y-31649713D01*
X237058590Y-31654886D01*
X237060711Y-31655018D01*
X237092923Y-31657322D01*
X237097299Y-31657713D01*
X237232246Y-31672221D01*
X237241115Y-31673496D01*
X237372439Y-31697190D01*
X237381190Y-31699094D01*
X237510469Y-31732090D01*
X237519095Y-31734623D01*
X237645680Y-31776755D01*
X237654107Y-31779898D01*
X237777348Y-31830946D01*
X237785529Y-31834682D01*
X237904830Y-31894399D01*
X237912712Y-31898703D01*
X238027456Y-31966783D01*
X238035019Y-31971643D01*
X238082631Y-32004701D01*
X238144606Y-32047731D01*
X238151806Y-32053121D01*
X238255675Y-32136824D01*
X238262470Y-32142711D01*
X238344769Y-32219335D01*
X238360116Y-32233623D01*
X238366476Y-32239983D01*
X238457385Y-32337626D01*
X238463275Y-32344424D01*
X238546977Y-32448291D01*
X238552358Y-32455480D01*
X238616260Y-32547515D01*
X238628453Y-32565076D01*
X238633316Y-32572643D01*
X238701389Y-32687374D01*
X238705700Y-32695269D01*
X238765417Y-32814570D01*
X238769153Y-32822751D01*
X238820201Y-32945992D01*
X238823344Y-32954419D01*
X238865475Y-33081001D01*
X238868009Y-33089631D01*
X238901001Y-33218889D01*
X238902913Y-33227678D01*
X238924889Y-33349485D01*
X238926600Y-33358965D01*
X238927880Y-33367869D01*
X238942380Y-33502743D01*
X238942781Y-33507223D01*
X238945077Y-33539329D01*
X238945217Y-33541573D01*
X238950767Y-33645111D01*
X238950928Y-33649605D01*
X238952280Y-33725306D01*
X238952300Y-33727556D01*
X238952300Y-83567044D01*
X238952280Y-83569294D01*
X238950928Y-83644994D01*
X238950767Y-83649488D01*
X238945217Y-83753026D01*
X238945077Y-83755270D01*
X238942781Y-83787376D01*
X238942380Y-83791856D01*
X238927880Y-83926730D01*
X238926600Y-83935634D01*
X238902913Y-84066921D01*
X238901001Y-84075710D01*
X238868009Y-84204968D01*
X238865475Y-84213598D01*
X238823344Y-84340180D01*
X238820201Y-84348607D01*
X238769153Y-84471848D01*
X238765417Y-84480029D01*
X238705700Y-84599330D01*
X238701389Y-84607225D01*
X238633316Y-84721956D01*
X238628453Y-84729523D01*
X238552368Y-84839106D01*
X238546978Y-84846306D01*
X238463275Y-84950175D01*
X238457385Y-84956973D01*
X238366476Y-85054616D01*
X238360116Y-85060976D01*
X238262473Y-85151885D01*
X238255675Y-85157775D01*
X238151798Y-85241484D01*
X238144597Y-85246874D01*
X238035022Y-85322953D01*
X238027456Y-85327816D01*
X237912725Y-85395889D01*
X237904830Y-85400200D01*
X237785529Y-85459917D01*
X237777348Y-85463653D01*
X237654103Y-85514703D01*
X237645676Y-85517846D01*
X237519095Y-85559976D01*
X237510464Y-85562510D01*
X237381197Y-85595503D01*
X237372409Y-85597415D01*
X237241134Y-85621100D01*
X237232230Y-85622380D01*
X237097356Y-85636880D01*
X237092876Y-85637281D01*
X237060770Y-85639577D01*
X237058526Y-85639717D01*
X236954988Y-85645267D01*
X236950494Y-85645428D01*
X236878089Y-85646721D01*
X236874789Y-85646780D01*
X236872544Y-85646800D01*
X176988059Y-85646800D01*
X176986494Y-85646790D01*
X176984469Y-85646764D01*
X176954392Y-85646390D01*
X176951258Y-85646312D01*
X176912980Y-85644882D01*
X176911647Y-85644825D01*
X176704713Y-85634899D01*
X176701353Y-85634693D01*
X176558798Y-85624032D01*
X176552556Y-85623409D01*
X176426775Y-85607676D01*
X176424361Y-85607350D01*
X176344948Y-85595853D01*
X176344262Y-85595752D01*
X176311023Y-85590753D01*
X176307924Y-85590247D01*
X176165551Y-85565192D01*
X176159404Y-85563952D01*
X176044325Y-85537738D01*
X176042404Y-85537284D01*
X175972749Y-85520265D01*
X175971622Y-85519985D01*
X175922343Y-85507462D01*
X175919314Y-85506652D01*
X175780094Y-85467561D01*
X175774102Y-85465716D01*
X175671532Y-85431326D01*
X175670103Y-85430837D01*
X175603783Y-85407713D01*
X175602251Y-85407168D01*
X175543833Y-85385950D01*
X175540900Y-85384843D01*
X175406255Y-85332111D01*
X175400489Y-85329686D01*
X175346862Y-85305542D01*
X175312921Y-85290260D01*
X175311971Y-85289827D01*
X175245806Y-85259375D01*
X175243913Y-85258485D01*
X175179249Y-85227413D01*
X175176442Y-85226021D01*
X175125460Y-85199943D01*
X175047714Y-85160175D01*
X175042242Y-85157202D01*
X174976464Y-85119314D01*
X174976132Y-85119121D01*
X174903069Y-85076586D01*
X174900875Y-85075279D01*
X174832282Y-85033462D01*
X174829626Y-85031797D01*
X174708801Y-84953950D01*
X174703521Y-84950356D01*
X174579344Y-84861131D01*
X174576914Y-84859340D01*
X174506235Y-84805942D01*
X174503756Y-84804020D01*
X174397070Y-84719166D01*
X174392524Y-84715373D01*
X174281057Y-84617826D01*
X174277228Y-84614456D01*
X174274938Y-84612389D01*
X174204472Y-84547195D01*
X174202197Y-84545037D01*
X174109734Y-84455120D01*
X174105904Y-84451231D01*
X174023250Y-84363574D01*
X174022789Y-84363082D01*
X173995605Y-84333878D01*
X173993547Y-84331610D01*
X173929894Y-84259719D01*
X173927845Y-84257347D01*
X173883743Y-84204968D01*
X173849548Y-84164355D01*
X173846438Y-84160509D01*
X173776990Y-84071060D01*
X173776339Y-84070212D01*
X173743279Y-84026729D01*
X173741427Y-84024228D01*
X173707241Y-83976861D01*
X173685237Y-83946373D01*
X173683440Y-83943816D01*
X173619004Y-83849684D01*
X173616527Y-83845923D01*
X173557761Y-83753084D01*
X173556840Y-83751607D01*
X173522706Y-83695996D01*
X173521100Y-83693304D01*
X173494376Y-83647232D01*
X173472936Y-83610270D01*
X173471432Y-83607602D01*
X173420249Y-83514075D01*
X173418435Y-83510631D01*
X173369415Y-83413762D01*
X173368620Y-83412157D01*
X173336078Y-83344954D01*
X173334763Y-83342149D01*
X173295071Y-83254698D01*
X173293837Y-83251885D01*
X173270574Y-83197045D01*
X173255223Y-83160856D01*
X173253925Y-83157672D01*
X173214738Y-83057419D01*
X173213840Y-83055045D01*
X173185287Y-82977168D01*
X173184260Y-82974256D01*
X173153458Y-82883303D01*
X173152498Y-82880349D01*
X173133025Y-82817766D01*
X179675668Y-82817766D01*
X179705294Y-83087015D01*
X179705295Y-83087018D01*
X179773809Y-83349088D01*
X179801383Y-83413974D01*
X179878586Y-83595650D01*
X179879751Y-83598390D01*
X180020863Y-83829610D01*
X180194136Y-84037820D01*
X180194137Y-84037821D01*
X180194139Y-84037823D01*
X180395874Y-84218578D01*
X180395876Y-84218579D01*
X180395879Y-84218582D01*
X180621791Y-84368044D01*
X180679138Y-84394927D01*
X180867052Y-84483018D01*
X180867054Y-84483018D01*
X180867057Y-84483020D01*
X181126450Y-84561060D01*
X181126453Y-84561060D01*
X181126455Y-84561061D01*
X181394439Y-84600500D01*
X181394442Y-84600500D01*
X181597511Y-84600500D01*
X181597512Y-84600500D01*
X181800037Y-84585677D01*
X182064434Y-84526780D01*
X182317439Y-84430014D01*
X182553658Y-84297441D01*
X182768058Y-84131888D01*
X182956067Y-83936881D01*
X183113680Y-83716579D01*
X183237537Y-83475675D01*
X183324999Y-83219305D01*
X183374200Y-82952933D01*
X183381616Y-82750000D01*
X194123079Y-82750000D01*
X194141857Y-82976614D01*
X194141857Y-82976617D01*
X194141858Y-82976618D01*
X194197677Y-83197045D01*
X194289020Y-83405285D01*
X194413391Y-83595650D01*
X194567396Y-83762945D01*
X194746841Y-83902612D01*
X194946824Y-84010838D01*
X194946826Y-84010839D01*
X195161896Y-84084672D01*
X195251611Y-84099643D01*
X195386183Y-84122100D01*
X195386186Y-84122100D01*
X195613576Y-84122100D01*
X195613579Y-84122100D01*
X195725720Y-84103386D01*
X195837866Y-84084672D01*
X196052936Y-84010839D01*
X196252920Y-83902612D01*
X196432364Y-83762946D01*
X196438524Y-83756255D01*
X196572911Y-83610270D01*
X196586371Y-83595649D01*
X196664397Y-83476220D01*
X196709911Y-83434321D01*
X196769881Y-83419135D01*
X196829851Y-83434321D01*
X196875364Y-83476220D01*
X196953391Y-83595650D01*
X197107396Y-83762945D01*
X197286841Y-83902612D01*
X197486824Y-84010838D01*
X197486826Y-84010839D01*
X197701896Y-84084672D01*
X197791611Y-84099643D01*
X197926183Y-84122100D01*
X197926186Y-84122100D01*
X198153576Y-84122100D01*
X198153579Y-84122100D01*
X198265720Y-84103386D01*
X198377866Y-84084672D01*
X198592936Y-84010839D01*
X198792920Y-83902612D01*
X198972364Y-83762946D01*
X198978524Y-83756255D01*
X199112911Y-83610270D01*
X199126371Y-83595649D01*
X199204397Y-83476220D01*
X199249911Y-83434321D01*
X199309881Y-83419135D01*
X199369851Y-83434321D01*
X199415364Y-83476220D01*
X199493391Y-83595650D01*
X199647396Y-83762945D01*
X199826841Y-83902612D01*
X200026824Y-84010838D01*
X200026826Y-84010839D01*
X200241896Y-84084672D01*
X200331611Y-84099643D01*
X200466183Y-84122100D01*
X200466186Y-84122100D01*
X200693576Y-84122100D01*
X200693579Y-84122100D01*
X200805720Y-84103386D01*
X200917866Y-84084672D01*
X201132936Y-84010839D01*
X201332920Y-83902612D01*
X201512364Y-83762946D01*
X201518524Y-83756255D01*
X201652911Y-83610270D01*
X201666371Y-83595649D01*
X201744397Y-83476220D01*
X201789911Y-83434321D01*
X201849881Y-83419135D01*
X201909851Y-83434321D01*
X201955364Y-83476220D01*
X202033391Y-83595650D01*
X202187396Y-83762945D01*
X202366841Y-83902612D01*
X202566824Y-84010838D01*
X202566826Y-84010839D01*
X202781896Y-84084672D01*
X202871611Y-84099643D01*
X203006183Y-84122100D01*
X203006186Y-84122100D01*
X203233576Y-84122100D01*
X203233579Y-84122100D01*
X203345720Y-84103386D01*
X203457866Y-84084672D01*
X203672936Y-84010839D01*
X203872920Y-83902612D01*
X204052364Y-83762946D01*
X204058524Y-83756255D01*
X204192911Y-83610270D01*
X204206371Y-83595649D01*
X204284397Y-83476220D01*
X204329911Y-83434321D01*
X204389881Y-83419135D01*
X204449851Y-83434321D01*
X204495364Y-83476220D01*
X204573391Y-83595650D01*
X204727396Y-83762945D01*
X204906841Y-83902612D01*
X205106824Y-84010838D01*
X205106826Y-84010839D01*
X205321896Y-84084672D01*
X205411611Y-84099643D01*
X205546183Y-84122100D01*
X205546186Y-84122100D01*
X205773576Y-84122100D01*
X205773579Y-84122100D01*
X205885720Y-84103386D01*
X205997866Y-84084672D01*
X206212936Y-84010839D01*
X206412920Y-83902612D01*
X206592364Y-83762946D01*
X206636546Y-83714950D01*
X206690018Y-83680550D01*
X206753480Y-83676639D01*
X206810772Y-83704215D01*
X206847304Y-83756255D01*
X206885835Y-83859562D01*
X206973376Y-83976504D01*
X207090318Y-84064045D01*
X207227187Y-84115094D01*
X207287692Y-84121600D01*
X207945881Y-84121600D01*
X208453881Y-84121600D01*
X209112070Y-84121600D01*
X209172574Y-84115094D01*
X209309443Y-84064045D01*
X209393953Y-84000781D01*
X209442679Y-83978528D01*
X209496246Y-83978528D01*
X209544970Y-84000778D01*
X209630077Y-84064489D01*
X209767080Y-84115589D01*
X209827643Y-84122100D01*
X211652119Y-84122100D01*
X211712682Y-84115589D01*
X211849685Y-84064489D01*
X211966742Y-83976861D01*
X212054370Y-83859804D01*
X212092839Y-83756664D01*
X212129368Y-83704628D01*
X212186660Y-83677052D01*
X212250122Y-83680962D01*
X212303594Y-83715363D01*
X212347396Y-83762945D01*
X212526841Y-83902612D01*
X212726824Y-84010838D01*
X212726826Y-84010839D01*
X212941896Y-84084672D01*
X213031611Y-84099643D01*
X213166183Y-84122100D01*
X213166186Y-84122100D01*
X213393576Y-84122100D01*
X213393579Y-84122100D01*
X213505720Y-84103386D01*
X213617866Y-84084672D01*
X213832936Y-84010839D01*
X214032920Y-83902612D01*
X214212364Y-83762946D01*
X214218524Y-83756255D01*
X214352911Y-83610270D01*
X214366371Y-83595649D01*
X214490742Y-83405285D01*
X214582084Y-83197047D01*
X214637905Y-82976614D01*
X214656683Y-82750000D01*
X216983079Y-82750000D01*
X217001857Y-82976614D01*
X217001857Y-82976617D01*
X217001858Y-82976618D01*
X217057677Y-83197045D01*
X217149020Y-83405285D01*
X217273391Y-83595650D01*
X217427396Y-83762945D01*
X217606841Y-83902612D01*
X217806824Y-84010838D01*
X217806826Y-84010839D01*
X218021896Y-84084672D01*
X218111611Y-84099643D01*
X218246183Y-84122100D01*
X218246186Y-84122100D01*
X218473576Y-84122100D01*
X218473579Y-84122100D01*
X218585720Y-84103386D01*
X218697866Y-84084672D01*
X218912936Y-84010839D01*
X219112920Y-83902612D01*
X219292364Y-83762946D01*
X219298524Y-83756255D01*
X219432911Y-83610270D01*
X219446371Y-83595649D01*
X219524397Y-83476220D01*
X219569911Y-83434321D01*
X219629881Y-83419135D01*
X219689851Y-83434321D01*
X219735364Y-83476220D01*
X219813391Y-83595650D01*
X219967396Y-83762945D01*
X220146841Y-83902612D01*
X220346824Y-84010838D01*
X220346826Y-84010839D01*
X220561896Y-84084672D01*
X220651611Y-84099643D01*
X220786183Y-84122100D01*
X220786186Y-84122100D01*
X221013576Y-84122100D01*
X221013579Y-84122100D01*
X221125720Y-84103386D01*
X221237866Y-84084672D01*
X221452936Y-84010839D01*
X221652920Y-83902612D01*
X221832364Y-83762946D01*
X221838524Y-83756255D01*
X221972911Y-83610270D01*
X221986371Y-83595649D01*
X222064397Y-83476220D01*
X222109911Y-83434321D01*
X222169881Y-83419135D01*
X222229851Y-83434321D01*
X222275364Y-83476220D01*
X222353391Y-83595650D01*
X222507396Y-83762945D01*
X222686841Y-83902612D01*
X222886824Y-84010838D01*
X222886826Y-84010839D01*
X223101896Y-84084672D01*
X223191611Y-84099643D01*
X223326183Y-84122100D01*
X223326186Y-84122100D01*
X223553576Y-84122100D01*
X223553579Y-84122100D01*
X223665720Y-84103386D01*
X223777866Y-84084672D01*
X223992936Y-84010839D01*
X224192920Y-83902612D01*
X224372364Y-83762946D01*
X224378524Y-83756255D01*
X224512911Y-83610270D01*
X224526371Y-83595649D01*
X224604397Y-83476220D01*
X224649911Y-83434321D01*
X224709881Y-83419135D01*
X224769851Y-83434321D01*
X224815364Y-83476220D01*
X224893391Y-83595650D01*
X225047396Y-83762945D01*
X225226841Y-83902612D01*
X225426824Y-84010838D01*
X225426826Y-84010839D01*
X225641896Y-84084672D01*
X225731611Y-84099643D01*
X225866183Y-84122100D01*
X225866186Y-84122100D01*
X226093576Y-84122100D01*
X226093579Y-84122100D01*
X226205720Y-84103386D01*
X226317866Y-84084672D01*
X226532936Y-84010839D01*
X226732920Y-83902612D01*
X226912364Y-83762946D01*
X226918524Y-83756255D01*
X227052911Y-83610270D01*
X227066371Y-83595649D01*
X227144397Y-83476220D01*
X227189911Y-83434321D01*
X227249881Y-83419135D01*
X227309851Y-83434321D01*
X227355364Y-83476220D01*
X227433391Y-83595650D01*
X227587396Y-83762945D01*
X227766841Y-83902612D01*
X227966824Y-84010838D01*
X227966826Y-84010839D01*
X228181896Y-84084672D01*
X228271611Y-84099643D01*
X228406183Y-84122100D01*
X228406186Y-84122100D01*
X228633576Y-84122100D01*
X228633579Y-84122100D01*
X228745720Y-84103386D01*
X228857866Y-84084672D01*
X229072936Y-84010839D01*
X229272920Y-83902612D01*
X229452364Y-83762946D01*
X229458524Y-83756255D01*
X229592911Y-83610270D01*
X229606371Y-83595649D01*
X229684397Y-83476220D01*
X229729911Y-83434321D01*
X229789881Y-83419135D01*
X229849851Y-83434321D01*
X229895364Y-83476220D01*
X229973391Y-83595650D01*
X230127396Y-83762945D01*
X230306841Y-83902612D01*
X230506824Y-84010838D01*
X230506826Y-84010839D01*
X230721896Y-84084672D01*
X230811611Y-84099643D01*
X230946183Y-84122100D01*
X230946186Y-84122100D01*
X231173576Y-84122100D01*
X231173579Y-84122100D01*
X231285720Y-84103386D01*
X231397866Y-84084672D01*
X231612936Y-84010839D01*
X231812920Y-83902612D01*
X231992364Y-83762946D01*
X231998524Y-83756255D01*
X232132911Y-83610270D01*
X232146371Y-83595649D01*
X232270742Y-83405285D01*
X232362084Y-83197047D01*
X232417905Y-82976614D01*
X232436683Y-82750000D01*
X232417905Y-82523386D01*
X232362084Y-82302953D01*
X232270742Y-82094715D01*
X232156780Y-81920283D01*
X232146370Y-81904349D01*
X231992365Y-81737054D01*
X231812920Y-81597387D01*
X231612937Y-81489161D01*
X231397863Y-81415327D01*
X231173579Y-81377900D01*
X231173576Y-81377900D01*
X230946186Y-81377900D01*
X230946183Y-81377900D01*
X230721898Y-81415327D01*
X230506824Y-81489161D01*
X230306841Y-81597387D01*
X230127396Y-81737054D01*
X229973391Y-81904349D01*
X229895364Y-82023779D01*
X229849850Y-82065678D01*
X229789881Y-82080864D01*
X229729912Y-82065678D01*
X229684398Y-82023779D01*
X229606370Y-81904349D01*
X229452365Y-81737054D01*
X229272920Y-81597387D01*
X229072937Y-81489161D01*
X228857863Y-81415327D01*
X228633579Y-81377900D01*
X228633576Y-81377900D01*
X228406186Y-81377900D01*
X228406183Y-81377900D01*
X228181898Y-81415327D01*
X227966824Y-81489161D01*
X227766841Y-81597387D01*
X227587396Y-81737054D01*
X227433391Y-81904349D01*
X227355364Y-82023779D01*
X227309850Y-82065678D01*
X227249881Y-82080864D01*
X227189912Y-82065678D01*
X227144398Y-82023779D01*
X227066370Y-81904349D01*
X226912365Y-81737054D01*
X226732920Y-81597387D01*
X226532937Y-81489161D01*
X226317863Y-81415327D01*
X226093579Y-81377900D01*
X226093576Y-81377900D01*
X225866186Y-81377900D01*
X225866183Y-81377900D01*
X225641898Y-81415327D01*
X225426824Y-81489161D01*
X225226841Y-81597387D01*
X225047396Y-81737054D01*
X224893391Y-81904349D01*
X224815364Y-82023779D01*
X224769850Y-82065678D01*
X224709881Y-82080864D01*
X224649912Y-82065678D01*
X224604398Y-82023779D01*
X224526370Y-81904349D01*
X224372365Y-81737054D01*
X224192920Y-81597387D01*
X223992937Y-81489161D01*
X223777863Y-81415327D01*
X223553579Y-81377900D01*
X223553576Y-81377900D01*
X223326186Y-81377900D01*
X223326183Y-81377900D01*
X223101898Y-81415327D01*
X222886824Y-81489161D01*
X222686841Y-81597387D01*
X222507396Y-81737054D01*
X222353391Y-81904349D01*
X222275364Y-82023779D01*
X222229850Y-82065678D01*
X222169881Y-82080864D01*
X222109912Y-82065678D01*
X222064398Y-82023779D01*
X221986370Y-81904349D01*
X221832365Y-81737054D01*
X221652920Y-81597387D01*
X221452937Y-81489161D01*
X221237863Y-81415327D01*
X221013579Y-81377900D01*
X221013576Y-81377900D01*
X220786186Y-81377900D01*
X220786183Y-81377900D01*
X220561898Y-81415327D01*
X220346824Y-81489161D01*
X220146841Y-81597387D01*
X219967396Y-81737054D01*
X219813391Y-81904349D01*
X219735364Y-82023779D01*
X219689850Y-82065678D01*
X219629881Y-82080864D01*
X219569912Y-82065678D01*
X219524398Y-82023779D01*
X219446370Y-81904349D01*
X219292365Y-81737054D01*
X219112920Y-81597387D01*
X218912937Y-81489161D01*
X218697863Y-81415327D01*
X218473579Y-81377900D01*
X218473576Y-81377900D01*
X218246186Y-81377900D01*
X218246183Y-81377900D01*
X218021898Y-81415327D01*
X217806824Y-81489161D01*
X217606841Y-81597387D01*
X217427396Y-81737054D01*
X217273391Y-81904349D01*
X217149020Y-82094714D01*
X217057677Y-82302954D01*
X217029814Y-82412984D01*
X217001857Y-82523386D01*
X216983079Y-82750000D01*
X214656683Y-82750000D01*
X214637905Y-82523386D01*
X214582084Y-82302953D01*
X214490742Y-82094715D01*
X214376780Y-81920283D01*
X214366370Y-81904349D01*
X214212365Y-81737054D01*
X214032920Y-81597387D01*
X213832937Y-81489161D01*
X213617863Y-81415327D01*
X213393579Y-81377900D01*
X213393576Y-81377900D01*
X213166186Y-81377900D01*
X213166183Y-81377900D01*
X212941898Y-81415327D01*
X212726824Y-81489161D01*
X212526841Y-81597387D01*
X212347395Y-81737055D01*
X212303593Y-81784637D01*
X212250121Y-81819037D01*
X212186659Y-81822947D01*
X212129368Y-81795371D01*
X212092838Y-81743333D01*
X212054370Y-81640196D01*
X212054369Y-81640194D01*
X211966742Y-81523138D01*
X211849686Y-81435511D01*
X211779572Y-81409360D01*
X211712682Y-81384411D01*
X211652119Y-81377900D01*
X209827643Y-81377900D01*
X209767080Y-81384411D01*
X209630075Y-81435511D01*
X209544972Y-81499219D01*
X209496246Y-81521472D01*
X209442679Y-81521471D01*
X209393953Y-81499219D01*
X209309441Y-81435953D01*
X209172574Y-81384905D01*
X209112070Y-81378400D01*
X208453881Y-81378400D01*
X208453881Y-84121600D01*
X207945881Y-84121600D01*
X207945881Y-81378400D01*
X207287692Y-81378400D01*
X207227187Y-81384905D01*
X207090318Y-81435954D01*
X206973376Y-81523495D01*
X206885835Y-81640437D01*
X206847304Y-81743744D01*
X206810772Y-81795784D01*
X206753481Y-81823360D01*
X206690019Y-81819450D01*
X206636547Y-81785049D01*
X206592365Y-81737054D01*
X206412920Y-81597387D01*
X206212937Y-81489161D01*
X205997863Y-81415327D01*
X205773579Y-81377900D01*
X205773576Y-81377900D01*
X205546186Y-81377900D01*
X205546183Y-81377900D01*
X205321898Y-81415327D01*
X205106824Y-81489161D01*
X204906841Y-81597387D01*
X204727396Y-81737054D01*
X204573391Y-81904349D01*
X204495364Y-82023779D01*
X204449850Y-82065678D01*
X204389881Y-82080864D01*
X204329912Y-82065678D01*
X204284398Y-82023779D01*
X204206370Y-81904349D01*
X204052365Y-81737054D01*
X203872920Y-81597387D01*
X203672937Y-81489161D01*
X203457863Y-81415327D01*
X203233579Y-81377900D01*
X203233576Y-81377900D01*
X203006186Y-81377900D01*
X203006183Y-81377900D01*
X202781898Y-81415327D01*
X202566824Y-81489161D01*
X202366841Y-81597387D01*
X202187396Y-81737054D01*
X202033391Y-81904349D01*
X201955364Y-82023779D01*
X201909850Y-82065678D01*
X201849881Y-82080864D01*
X201789912Y-82065678D01*
X201744398Y-82023779D01*
X201666370Y-81904349D01*
X201512365Y-81737054D01*
X201332920Y-81597387D01*
X201132937Y-81489161D01*
X200917863Y-81415327D01*
X200693579Y-81377900D01*
X200693576Y-81377900D01*
X200466186Y-81377900D01*
X200466183Y-81377900D01*
X200241898Y-81415327D01*
X200026824Y-81489161D01*
X199826841Y-81597387D01*
X199647396Y-81737054D01*
X199493391Y-81904349D01*
X199415364Y-82023779D01*
X199369850Y-82065678D01*
X199309881Y-82080864D01*
X199249912Y-82065678D01*
X199204398Y-82023779D01*
X199126370Y-81904349D01*
X198972365Y-81737054D01*
X198792920Y-81597387D01*
X198592937Y-81489161D01*
X198377863Y-81415327D01*
X198153579Y-81377900D01*
X198153576Y-81377900D01*
X197926186Y-81377900D01*
X197926183Y-81377900D01*
X197701898Y-81415327D01*
X197486824Y-81489161D01*
X197286841Y-81597387D01*
X197107396Y-81737054D01*
X196953391Y-81904349D01*
X196875364Y-82023779D01*
X196829850Y-82065678D01*
X196769881Y-82080864D01*
X196709912Y-82065678D01*
X196664398Y-82023779D01*
X196586370Y-81904349D01*
X196432365Y-81737054D01*
X196252920Y-81597387D01*
X196052937Y-81489161D01*
X195837863Y-81415327D01*
X195613579Y-81377900D01*
X195613576Y-81377900D01*
X195386186Y-81377900D01*
X195386183Y-81377900D01*
X195161898Y-81415327D01*
X194946824Y-81489161D01*
X194746841Y-81597387D01*
X194567396Y-81737054D01*
X194413391Y-81904349D01*
X194289020Y-82094714D01*
X194197677Y-82302954D01*
X194169814Y-82412984D01*
X194141857Y-82523386D01*
X194123079Y-82750000D01*
X183381616Y-82750000D01*
X183384093Y-82682235D01*
X183354467Y-82412982D01*
X183285953Y-82150912D01*
X183180011Y-81901610D01*
X183038899Y-81670390D01*
X182865626Y-81462180D01*
X182809999Y-81412338D01*
X182663887Y-81281421D01*
X182663884Y-81281419D01*
X182663883Y-81281418D01*
X182437971Y-81131956D01*
X182437967Y-81131954D01*
X182192709Y-81016981D01*
X181933306Y-80938938D01*
X181665323Y-80899500D01*
X181665320Y-80899500D01*
X181462250Y-80899500D01*
X181428495Y-80901970D01*
X181259720Y-80914323D01*
X180995330Y-80973219D01*
X180742322Y-81069985D01*
X180506106Y-81202557D01*
X180291701Y-81368114D01*
X180103696Y-81563117D01*
X179946081Y-81783422D01*
X179822223Y-82024328D01*
X179734763Y-82280693D01*
X179685562Y-82547065D01*
X179675668Y-82817766D01*
X173133025Y-82817766D01*
X173125438Y-82793381D01*
X173124581Y-82790496D01*
X173095274Y-82687323D01*
X173094455Y-82684299D01*
X173093923Y-82682233D01*
X173071770Y-82596153D01*
X173071040Y-82593159D01*
X173054923Y-82523381D01*
X173049427Y-82499584D01*
X173048767Y-82496552D01*
X173032113Y-82415276D01*
X173031641Y-82412843D01*
X173012276Y-82306974D01*
X173011698Y-82303539D01*
X172996689Y-82205775D01*
X172996257Y-82202704D01*
X172984059Y-82107513D01*
X172983699Y-82104399D01*
X172982702Y-82094714D01*
X172976074Y-82030325D01*
X172975871Y-82028164D01*
X172975497Y-82023779D01*
X172966671Y-81920262D01*
X172966394Y-81916229D01*
X172960773Y-81809874D01*
X172960651Y-81806853D01*
X172957969Y-81710787D01*
X172957922Y-81707668D01*
X172957809Y-81670390D01*
X172957724Y-81642345D01*
X172957729Y-81640842D01*
X172958917Y-81530800D01*
X172959045Y-81526384D01*
X172964379Y-81412338D01*
X172964555Y-81409360D01*
X172971434Y-81313476D01*
X172971694Y-81310401D01*
X172976980Y-81255800D01*
X172977040Y-81255209D01*
X172989124Y-81142340D01*
X172989740Y-81137495D01*
X173007472Y-81017147D01*
X173007941Y-81014210D01*
X173024327Y-80919421D01*
X173024886Y-80916417D01*
X173028246Y-80899500D01*
X173032692Y-80877110D01*
X173057016Y-80758637D01*
X173058213Y-80753386D01*
X173089625Y-80628188D01*
X173090400Y-80625255D01*
X173116082Y-80532713D01*
X173116938Y-80529770D01*
X173118241Y-80525488D01*
X173161989Y-80383237D01*
X173163827Y-80377725D01*
X173188193Y-80310000D01*
X173210009Y-80249369D01*
X173211106Y-80246434D01*
X173214943Y-80236545D01*
X173243187Y-80163781D01*
X173244221Y-80161209D01*
X173303024Y-80019851D01*
X173305581Y-80014119D01*
X173367461Y-79884333D01*
X173368837Y-79881539D01*
X173405231Y-79809856D01*
X173406410Y-79807592D01*
X173409402Y-79801983D01*
X173446272Y-79732869D01*
X173482410Y-79665876D01*
X173485483Y-79660503D01*
X173560450Y-79536690D01*
X173562016Y-79534175D01*
X173600795Y-79473585D01*
X173601735Y-79472142D01*
X173642443Y-79410805D01*
X173696490Y-79330816D01*
X173700103Y-79325746D01*
X173786945Y-79210073D01*
X173788813Y-79207648D01*
X173827490Y-79158717D01*
X173828268Y-79157745D01*
X173872834Y-79102834D01*
X173873442Y-79102094D01*
X173942820Y-79018673D01*
X173946904Y-79014005D01*
X174044847Y-78907497D01*
X174046915Y-78905304D01*
X174082377Y-78868616D01*
X174082747Y-78868237D01*
X174133615Y-78816572D01*
X174134664Y-78815522D01*
X174218946Y-78732561D01*
X174223466Y-78728329D01*
X174331511Y-78632079D01*
X174333798Y-78630093D01*
X174359609Y-78608226D01*
X174421636Y-78556265D01*
X174423447Y-78554780D01*
X174522099Y-78475334D01*
X174527061Y-78471536D01*
X174642529Y-78387661D01*
X174645175Y-78385793D01*
X174817653Y-78267425D01*
X174818299Y-78266987D01*
X174849291Y-78246195D01*
X174851779Y-78244571D01*
X174879273Y-78227104D01*
X174880238Y-78226500D01*
X175410774Y-77898638D01*
X222746500Y-77898638D01*
X222753011Y-77959200D01*
X222804111Y-78096205D01*
X222891738Y-78213261D01*
X223008794Y-78300888D01*
X223008795Y-78300888D01*
X223008796Y-78300889D01*
X223145799Y-78351989D01*
X223206362Y-78358500D01*
X225003638Y-78358500D01*
X225064201Y-78351989D01*
X225201204Y-78300889D01*
X225318261Y-78213261D01*
X225405889Y-78096204D01*
X225456989Y-77959201D01*
X225463500Y-77898638D01*
X225463500Y-77737766D01*
X231745668Y-77737766D01*
X231775294Y-78007015D01*
X231806267Y-78125490D01*
X231843809Y-78269088D01*
X231949751Y-78518390D01*
X232090863Y-78749610D01*
X232264136Y-78957820D01*
X232264137Y-78957821D01*
X232264139Y-78957823D01*
X232465874Y-79138578D01*
X232465876Y-79138579D01*
X232465879Y-79138582D01*
X232691791Y-79288044D01*
X232772217Y-79325746D01*
X232937052Y-79403018D01*
X232937054Y-79403018D01*
X232937057Y-79403020D01*
X233196450Y-79481060D01*
X233196453Y-79481060D01*
X233196455Y-79481061D01*
X233464439Y-79520500D01*
X233464442Y-79520500D01*
X233667511Y-79520500D01*
X233667512Y-79520500D01*
X233870037Y-79505677D01*
X234134434Y-79446780D01*
X234387439Y-79350014D01*
X234623658Y-79217441D01*
X234838058Y-79051888D01*
X235026067Y-78856881D01*
X235183680Y-78636579D01*
X235307537Y-78395675D01*
X235394999Y-78139305D01*
X235444200Y-77872933D01*
X235454093Y-77602235D01*
X235424467Y-77332982D01*
X235355953Y-77070912D01*
X235250011Y-76821610D01*
X235108899Y-76590390D01*
X234935626Y-76382180D01*
X234830640Y-76288112D01*
X234733887Y-76201421D01*
X234733884Y-76201419D01*
X234733883Y-76201418D01*
X234507971Y-76051956D01*
X234484171Y-76040799D01*
X234262709Y-75936981D01*
X234003306Y-75858938D01*
X233735323Y-75819500D01*
X233735320Y-75819500D01*
X233532250Y-75819500D01*
X233498495Y-75821970D01*
X233329720Y-75834323D01*
X233065330Y-75893219D01*
X232812322Y-75989985D01*
X232576106Y-76122557D01*
X232361701Y-76288114D01*
X232173696Y-76483117D01*
X232016081Y-76703422D01*
X231892223Y-76944328D01*
X231804763Y-77200693D01*
X231755562Y-77467065D01*
X231745668Y-77737766D01*
X225463500Y-77737766D01*
X225463500Y-76101362D01*
X225456989Y-76040799D01*
X225405889Y-75903796D01*
X225397972Y-75893220D01*
X225318261Y-75786738D01*
X225201206Y-75699111D01*
X225127758Y-75671716D01*
X225085684Y-75656024D01*
X225035352Y-75621461D01*
X225007178Y-75567291D01*
X225007781Y-75506235D01*
X225037018Y-75452632D01*
X225180321Y-75296962D01*
X225303419Y-75108548D01*
X225393822Y-74902451D01*
X225441544Y-74714000D01*
X222768455Y-74714000D01*
X222816177Y-74902451D01*
X222906580Y-75108548D01*
X223029678Y-75296962D01*
X223172981Y-75452632D01*
X223202218Y-75506235D01*
X223202821Y-75567291D01*
X223174647Y-75621461D01*
X223124313Y-75656025D01*
X223008793Y-75699111D01*
X222891738Y-75786738D01*
X222804111Y-75903794D01*
X222753011Y-76040799D01*
X222746500Y-76101362D01*
X222746500Y-77898638D01*
X175410774Y-77898638D01*
X185085210Y-71920000D01*
X222741844Y-71920000D01*
X222760436Y-72144368D01*
X222760436Y-72144371D01*
X222760437Y-72144372D01*
X222815702Y-72362611D01*
X222906139Y-72568790D01*
X223029278Y-72757268D01*
X223181762Y-72922908D01*
X223359422Y-73061188D01*
X223359424Y-73061189D01*
X223393205Y-73079470D01*
X223441477Y-73125785D01*
X223459237Y-73190282D01*
X223441479Y-73254779D01*
X223393209Y-73301096D01*
X223359702Y-73319229D01*
X223182096Y-73457466D01*
X223029678Y-73623037D01*
X222906580Y-73811451D01*
X222816177Y-74017548D01*
X222768455Y-74205999D01*
X222768456Y-74206000D01*
X225441544Y-74206000D01*
X225441544Y-74205999D01*
X225393822Y-74017548D01*
X225303419Y-73811451D01*
X225180321Y-73623037D01*
X225027903Y-73457466D01*
X224850299Y-73319231D01*
X224816791Y-73301097D01*
X224768520Y-73254780D01*
X224750762Y-73190282D01*
X224768522Y-73125785D01*
X224816791Y-73079471D01*
X224850576Y-73061189D01*
X225028240Y-72922906D01*
X225180722Y-72757268D01*
X225303860Y-72568791D01*
X225394296Y-72362616D01*
X225449564Y-72144368D01*
X225468156Y-71920000D01*
X225449564Y-71695632D01*
X225394296Y-71477384D01*
X225303860Y-71271209D01*
X225180722Y-71082732D01*
X225028240Y-70917094D01*
X225028239Y-70917093D01*
X225028237Y-70917091D01*
X224850579Y-70778813D01*
X224850577Y-70778812D01*
X224850576Y-70778811D01*
X224817317Y-70760812D01*
X224769047Y-70714498D01*
X224751288Y-70650000D01*
X224769047Y-70585502D01*
X224817317Y-70539187D01*
X224850576Y-70521189D01*
X225028240Y-70382906D01*
X225180722Y-70217268D01*
X225303860Y-70028791D01*
X225394296Y-69822616D01*
X225449564Y-69604368D01*
X225468156Y-69380000D01*
X225449564Y-69155632D01*
X225394296Y-68937384D01*
X225303860Y-68731209D01*
X225180722Y-68542732D01*
X225028240Y-68377094D01*
X225028239Y-68377093D01*
X225028237Y-68377091D01*
X224850579Y-68238813D01*
X224850577Y-68238812D01*
X224850576Y-68238811D01*
X224817317Y-68220812D01*
X224769047Y-68174498D01*
X224751288Y-68110000D01*
X224769047Y-68045502D01*
X224817317Y-67999187D01*
X224850576Y-67981189D01*
X225028240Y-67842906D01*
X225180722Y-67677268D01*
X225303860Y-67488791D01*
X225394296Y-67282616D01*
X225449564Y-67064368D01*
X225468156Y-66840000D01*
X225449564Y-66615632D01*
X225394296Y-66397384D01*
X225303860Y-66191209D01*
X225180722Y-66002732D01*
X225028240Y-65837094D01*
X225028239Y-65837093D01*
X225028237Y-65837091D01*
X224850578Y-65698812D01*
X224817317Y-65680812D01*
X224769046Y-65634495D01*
X224751288Y-65569997D01*
X224769049Y-65505499D01*
X224817317Y-65459187D01*
X224850576Y-65441189D01*
X225028240Y-65302906D01*
X225180722Y-65137268D01*
X225303860Y-64948791D01*
X225394296Y-64742616D01*
X225449564Y-64524368D01*
X225468156Y-64300000D01*
X225449564Y-64075632D01*
X225394296Y-63857384D01*
X225303860Y-63651209D01*
X225180722Y-63462732D01*
X225028240Y-63297094D01*
X225028239Y-63297093D01*
X225028237Y-63297091D01*
X224850579Y-63158813D01*
X224850577Y-63158812D01*
X224850576Y-63158811D01*
X224817317Y-63140812D01*
X224769047Y-63094498D01*
X224751288Y-63030000D01*
X224769047Y-62965502D01*
X224817317Y-62919187D01*
X224850576Y-62901189D01*
X225028240Y-62762906D01*
X225180722Y-62597268D01*
X225303860Y-62408791D01*
X225394296Y-62202616D01*
X225449564Y-61984368D01*
X225468156Y-61760000D01*
X225449564Y-61535632D01*
X225394296Y-61317384D01*
X225303860Y-61111209D01*
X225180722Y-60922732D01*
X225028240Y-60757094D01*
X225028239Y-60757093D01*
X225028237Y-60757091D01*
X224850579Y-60618813D01*
X224850577Y-60618812D01*
X224850576Y-60618811D01*
X224817317Y-60600812D01*
X224769047Y-60554498D01*
X224751288Y-60490000D01*
X224769047Y-60425502D01*
X224817317Y-60379187D01*
X224850576Y-60361189D01*
X225028240Y-60222906D01*
X225180722Y-60057268D01*
X225290003Y-59890000D01*
X229810079Y-59890000D01*
X229828857Y-60116614D01*
X229828857Y-60116617D01*
X229828858Y-60116618D01*
X229884677Y-60337045D01*
X229976020Y-60545285D01*
X230100391Y-60735650D01*
X230254396Y-60902945D01*
X230433841Y-61042612D01*
X230633824Y-61150838D01*
X230633826Y-61150839D01*
X230848896Y-61224672D01*
X230938611Y-61239643D01*
X231073183Y-61262100D01*
X231073186Y-61262100D01*
X231300576Y-61262100D01*
X231300579Y-61262100D01*
X231412721Y-61243385D01*
X231524866Y-61224672D01*
X231739936Y-61150839D01*
X231939920Y-61042612D01*
X232119364Y-60902946D01*
X232163168Y-60855361D01*
X232216638Y-60820963D01*
X232280100Y-60817052D01*
X232337392Y-60844628D01*
X232373923Y-60896667D01*
X232376266Y-60902948D01*
X232412392Y-60999805D01*
X232500019Y-61116861D01*
X232617075Y-61204488D01*
X232617076Y-61204488D01*
X232617077Y-61204489D01*
X232754080Y-61255589D01*
X232814643Y-61262100D01*
X234639119Y-61262100D01*
X234699682Y-61255589D01*
X234836685Y-61204489D01*
X234953742Y-61116861D01*
X235041370Y-60999804D01*
X235092470Y-60862801D01*
X235098981Y-60802238D01*
X235098981Y-58977762D01*
X235092470Y-58917199D01*
X235041370Y-58780196D01*
X235039265Y-58777384D01*
X234953742Y-58663138D01*
X234836687Y-58575511D01*
X234764557Y-58548608D01*
X234734628Y-58537445D01*
X234684295Y-58502882D01*
X234656121Y-58448712D01*
X234656724Y-58387656D01*
X234685958Y-58334056D01*
X234813371Y-58195649D01*
X234937742Y-58005285D01*
X235029084Y-57797047D01*
X235084905Y-57576614D01*
X235103683Y-57350000D01*
X235084905Y-57123386D01*
X235029084Y-56902953D01*
X234937742Y-56694715D01*
X234813371Y-56504351D01*
X234813370Y-56504349D01*
X234659365Y-56337054D01*
X234479919Y-56197387D01*
X234467768Y-56190811D01*
X234419497Y-56144493D01*
X234401740Y-56079994D01*
X234419502Y-56015497D01*
X234467771Y-55969186D01*
X234479920Y-55962612D01*
X234659364Y-55822946D01*
X234813371Y-55655649D01*
X234937742Y-55465285D01*
X235029084Y-55257047D01*
X235084905Y-55036614D01*
X235103683Y-54810000D01*
X235084905Y-54583386D01*
X235029084Y-54362953D01*
X234937742Y-54154715D01*
X234813371Y-53964351D01*
X234813370Y-53964349D01*
X234659365Y-53797054D01*
X234479920Y-53657387D01*
X234279937Y-53549161D01*
X234064863Y-53475327D01*
X233840579Y-53437900D01*
X233840576Y-53437900D01*
X233613186Y-53437900D01*
X233613183Y-53437900D01*
X233388898Y-53475327D01*
X233173824Y-53549161D01*
X232973841Y-53657387D01*
X232794396Y-53797054D01*
X232640391Y-53964349D01*
X232562364Y-54083779D01*
X232516850Y-54125678D01*
X232456881Y-54140864D01*
X232396912Y-54125678D01*
X232351398Y-54083779D01*
X232273370Y-53964349D01*
X232119365Y-53797054D01*
X231939920Y-53657387D01*
X231739937Y-53549161D01*
X231524863Y-53475327D01*
X231300579Y-53437900D01*
X231300576Y-53437900D01*
X231073186Y-53437900D01*
X231073183Y-53437900D01*
X230848898Y-53475327D01*
X230633824Y-53549161D01*
X230433841Y-53657387D01*
X230254396Y-53797054D01*
X230100391Y-53964349D01*
X229976020Y-54154714D01*
X229884677Y-54362954D01*
X229829053Y-54582611D01*
X229828857Y-54583386D01*
X229810079Y-54810000D01*
X229828857Y-55036614D01*
X229828857Y-55036617D01*
X229828858Y-55036618D01*
X229884677Y-55257045D01*
X229976020Y-55465285D01*
X230100391Y-55655650D01*
X230254396Y-55822945D01*
X230433840Y-55962611D01*
X230433842Y-55962612D01*
X230445988Y-55969185D01*
X230494260Y-56015498D01*
X230512021Y-56079994D01*
X230494264Y-56144492D01*
X230445995Y-56190810D01*
X230433843Y-56197386D01*
X230254396Y-56337054D01*
X230100391Y-56504349D01*
X229976020Y-56694714D01*
X229884677Y-56902954D01*
X229829053Y-57122611D01*
X229828857Y-57123386D01*
X229810079Y-57350000D01*
X229828857Y-57576614D01*
X229828857Y-57576617D01*
X229828858Y-57576618D01*
X229884677Y-57797045D01*
X229976020Y-58005285D01*
X230100391Y-58195650D01*
X230254396Y-58362945D01*
X230433841Y-58502612D01*
X230445991Y-58509187D01*
X230494262Y-58555503D01*
X230512021Y-58620000D01*
X230494262Y-58684497D01*
X230445991Y-58730813D01*
X230433841Y-58737387D01*
X230254396Y-58877054D01*
X230100391Y-59044349D01*
X229976020Y-59234714D01*
X229884677Y-59442954D01*
X229843249Y-59606553D01*
X229828857Y-59663386D01*
X229810079Y-59890000D01*
X225290003Y-59890000D01*
X225303860Y-59868791D01*
X225394296Y-59662616D01*
X225449564Y-59444368D01*
X225468156Y-59220000D01*
X225449564Y-58995632D01*
X225394296Y-58777384D01*
X225303860Y-58571209D01*
X225180722Y-58382732D01*
X225028240Y-58217094D01*
X225028239Y-58217093D01*
X225028237Y-58217091D01*
X224850578Y-58078812D01*
X224817317Y-58060812D01*
X224769046Y-58014495D01*
X224751288Y-57949997D01*
X224769049Y-57885499D01*
X224817317Y-57839187D01*
X224850576Y-57821189D01*
X225028240Y-57682906D01*
X225180722Y-57517268D01*
X225303860Y-57328791D01*
X225394296Y-57122616D01*
X225449564Y-56904368D01*
X225468156Y-56680000D01*
X225449564Y-56455632D01*
X225394296Y-56237384D01*
X225303860Y-56031209D01*
X225180722Y-55842732D01*
X225028240Y-55677094D01*
X225028239Y-55677093D01*
X225028237Y-55677091D01*
X224850578Y-55538812D01*
X224817317Y-55520812D01*
X224769046Y-55474495D01*
X224751288Y-55409997D01*
X224769049Y-55345499D01*
X224817317Y-55299187D01*
X224850576Y-55281189D01*
X225028240Y-55142906D01*
X225180722Y-54977268D01*
X225303860Y-54788791D01*
X225394296Y-54582616D01*
X225449564Y-54364368D01*
X225468156Y-54140000D01*
X225449564Y-53915632D01*
X225394296Y-53697384D01*
X225303860Y-53491209D01*
X225180722Y-53302732D01*
X225028240Y-53137094D01*
X225028239Y-53137093D01*
X225028237Y-53137091D01*
X224850579Y-52998813D01*
X224850577Y-52998812D01*
X224850576Y-52998811D01*
X224817317Y-52980812D01*
X224769047Y-52934498D01*
X224751288Y-52870000D01*
X224769047Y-52805502D01*
X224817317Y-52759187D01*
X224850576Y-52741189D01*
X225028240Y-52602906D01*
X225180722Y-52437268D01*
X225303860Y-52248791D01*
X225394296Y-52042616D01*
X225449564Y-51824368D01*
X225468156Y-51600000D01*
X225449564Y-51375632D01*
X225394296Y-51157384D01*
X225303860Y-50951209D01*
X225180722Y-50762732D01*
X225028240Y-50597094D01*
X225028239Y-50597093D01*
X225028237Y-50597091D01*
X224850579Y-50458813D01*
X224850577Y-50458812D01*
X224850576Y-50458811D01*
X224817317Y-50440812D01*
X224769047Y-50394498D01*
X224751288Y-50330000D01*
X224769047Y-50265502D01*
X224817317Y-50219187D01*
X224850576Y-50201189D01*
X225028240Y-50062906D01*
X225180722Y-49897268D01*
X225245730Y-49797766D01*
X231745668Y-49797766D01*
X231775294Y-50067015D01*
X231775295Y-50067018D01*
X231843809Y-50329088D01*
X231949751Y-50578390D01*
X232090863Y-50809610D01*
X232264136Y-51017820D01*
X232264137Y-51017821D01*
X232264139Y-51017823D01*
X232465874Y-51198578D01*
X232465876Y-51198579D01*
X232465879Y-51198582D01*
X232691791Y-51348044D01*
X232750631Y-51375627D01*
X232937052Y-51463018D01*
X232937054Y-51463018D01*
X232937057Y-51463020D01*
X233196450Y-51541060D01*
X233196453Y-51541060D01*
X233196455Y-51541061D01*
X233464439Y-51580500D01*
X233464442Y-51580500D01*
X233667511Y-51580500D01*
X233667512Y-51580500D01*
X233870037Y-51565677D01*
X234134434Y-51506780D01*
X234387439Y-51410014D01*
X234623658Y-51277441D01*
X234838058Y-51111888D01*
X235026067Y-50916881D01*
X235183680Y-50696579D01*
X235307537Y-50455675D01*
X235394999Y-50199305D01*
X235444200Y-49932933D01*
X235454093Y-49662235D01*
X235424467Y-49392982D01*
X235355953Y-49130912D01*
X235250011Y-48881610D01*
X235108899Y-48650390D01*
X234935626Y-48442180D01*
X234935622Y-48442176D01*
X234733887Y-48261421D01*
X234733884Y-48261419D01*
X234733883Y-48261418D01*
X234507971Y-48111956D01*
X234507967Y-48111954D01*
X234262709Y-47996981D01*
X234003306Y-47918938D01*
X233735323Y-47879500D01*
X233735320Y-47879500D01*
X233532250Y-47879500D01*
X233498495Y-47881970D01*
X233329720Y-47894323D01*
X233065330Y-47953219D01*
X232812322Y-48049985D01*
X232576106Y-48182557D01*
X232361701Y-48348114D01*
X232173696Y-48543117D01*
X232016081Y-48763422D01*
X231892223Y-49004328D01*
X231804763Y-49260693D01*
X231755562Y-49527065D01*
X231745668Y-49797766D01*
X225245730Y-49797766D01*
X225303860Y-49708791D01*
X225394296Y-49502616D01*
X225449564Y-49284368D01*
X225468156Y-49060000D01*
X225449564Y-48835632D01*
X225394296Y-48617384D01*
X225303860Y-48411209D01*
X225180722Y-48222732D01*
X225028240Y-48057094D01*
X225028239Y-48057093D01*
X225028237Y-48057091D01*
X224850578Y-47918812D01*
X224817317Y-47900812D01*
X224769046Y-47854495D01*
X224751288Y-47789997D01*
X224769049Y-47725499D01*
X224817317Y-47679187D01*
X224850576Y-47661189D01*
X225028240Y-47522906D01*
X225180722Y-47357268D01*
X225303860Y-47168791D01*
X225394296Y-46962616D01*
X225449564Y-46744368D01*
X225468156Y-46520000D01*
X225449564Y-46295632D01*
X225394296Y-46077384D01*
X225303860Y-45871209D01*
X225180722Y-45682732D01*
X225028240Y-45517094D01*
X225028239Y-45517093D01*
X225028237Y-45517091D01*
X224850579Y-45378813D01*
X224850577Y-45378812D01*
X224850576Y-45378811D01*
X224817317Y-45360812D01*
X224769047Y-45314498D01*
X224751288Y-45250000D01*
X224769047Y-45185502D01*
X224817317Y-45139187D01*
X224850576Y-45121189D01*
X225028240Y-44982906D01*
X225180722Y-44817268D01*
X225303860Y-44628791D01*
X225394296Y-44422616D01*
X225449564Y-44204368D01*
X225468156Y-43980000D01*
X225449564Y-43755632D01*
X225394296Y-43537384D01*
X225303860Y-43331209D01*
X225180722Y-43142732D01*
X225028240Y-42977094D01*
X225028239Y-42977093D01*
X225028237Y-42977091D01*
X224850579Y-42838813D01*
X224850577Y-42838812D01*
X224850576Y-42838811D01*
X224817317Y-42820812D01*
X224769047Y-42774498D01*
X224751288Y-42710000D01*
X224769047Y-42645502D01*
X224817317Y-42599187D01*
X224850576Y-42581189D01*
X225028240Y-42442906D01*
X225180722Y-42277268D01*
X225303860Y-42088791D01*
X225394296Y-41882616D01*
X225449564Y-41664368D01*
X225468156Y-41440000D01*
X225449564Y-41215632D01*
X225394296Y-40997384D01*
X225303860Y-40791209D01*
X225180722Y-40602732D01*
X225028240Y-40437094D01*
X225028239Y-40437093D01*
X225028237Y-40437091D01*
X224850578Y-40298812D01*
X224652573Y-40191657D01*
X224508427Y-40142172D01*
X224439635Y-40118556D01*
X224217569Y-40081500D01*
X223992431Y-40081500D01*
X223770365Y-40118556D01*
X223770362Y-40118556D01*
X223770362Y-40118557D01*
X223557426Y-40191657D01*
X223359421Y-40298812D01*
X223181762Y-40437091D01*
X223029278Y-40602731D01*
X222906139Y-40791209D01*
X222815702Y-40997388D01*
X222760437Y-41215627D01*
X222760436Y-41215632D01*
X222741844Y-41440000D01*
X222760436Y-41664368D01*
X222760436Y-41664371D01*
X222760437Y-41664372D01*
X222815702Y-41882611D01*
X222906139Y-42088790D01*
X223029278Y-42277268D01*
X223181762Y-42442908D01*
X223359418Y-42581185D01*
X223359420Y-42581186D01*
X223359424Y-42581189D01*
X223392682Y-42599187D01*
X223440952Y-42645503D01*
X223458711Y-42710000D01*
X223440952Y-42774497D01*
X223392682Y-42820812D01*
X223367794Y-42834281D01*
X223359418Y-42838814D01*
X223181762Y-42977091D01*
X223029278Y-43142731D01*
X222906139Y-43331209D01*
X222815702Y-43537388D01*
X222760437Y-43755627D01*
X222760436Y-43755632D01*
X222741844Y-43980000D01*
X222760436Y-44204368D01*
X222760436Y-44204371D01*
X222760437Y-44204372D01*
X222815702Y-44422611D01*
X222906139Y-44628790D01*
X223029278Y-44817268D01*
X223181762Y-44982908D01*
X223359418Y-45121185D01*
X223359420Y-45121186D01*
X223359424Y-45121189D01*
X223392682Y-45139187D01*
X223440952Y-45185503D01*
X223458711Y-45250000D01*
X223440952Y-45314497D01*
X223392682Y-45360812D01*
X223367794Y-45374281D01*
X223359418Y-45378814D01*
X223181762Y-45517091D01*
X223029278Y-45682731D01*
X222906139Y-45871209D01*
X222815702Y-46077388D01*
X222760437Y-46295627D01*
X222760436Y-46295632D01*
X222741844Y-46520000D01*
X222760436Y-46744368D01*
X222760436Y-46744371D01*
X222760437Y-46744372D01*
X222815702Y-46962611D01*
X222906139Y-47168790D01*
X223029278Y-47357268D01*
X223181762Y-47522908D01*
X223283611Y-47602181D01*
X223359424Y-47661189D01*
X223392682Y-47679187D01*
X223440951Y-47725500D01*
X223458711Y-47789997D01*
X223440953Y-47854494D01*
X223392683Y-47900811D01*
X223359423Y-47918810D01*
X223181762Y-48057091D01*
X223029278Y-48222731D01*
X222906139Y-48411209D01*
X222815702Y-48617388D01*
X222778722Y-48763421D01*
X222760436Y-48835632D01*
X222741844Y-49060000D01*
X222760436Y-49284368D01*
X222760436Y-49284371D01*
X222760437Y-49284372D01*
X222815702Y-49502611D01*
X222906139Y-49708790D01*
X223029278Y-49897268D01*
X223181762Y-50062908D01*
X223359418Y-50201185D01*
X223359420Y-50201186D01*
X223359424Y-50201189D01*
X223392682Y-50219187D01*
X223440952Y-50265503D01*
X223458711Y-50330000D01*
X223440952Y-50394497D01*
X223392682Y-50440812D01*
X223367794Y-50454281D01*
X223359418Y-50458814D01*
X223181762Y-50597091D01*
X223029278Y-50762731D01*
X222906139Y-50951209D01*
X222815702Y-51157388D01*
X222785301Y-51277441D01*
X222760436Y-51375632D01*
X222741844Y-51600000D01*
X222760436Y-51824368D01*
X222760436Y-51824371D01*
X222760437Y-51824372D01*
X222815702Y-52042611D01*
X222906139Y-52248790D01*
X223029278Y-52437268D01*
X223181762Y-52602908D01*
X223359418Y-52741185D01*
X223359420Y-52741186D01*
X223359424Y-52741189D01*
X223392682Y-52759187D01*
X223440952Y-52805503D01*
X223458711Y-52870000D01*
X223440952Y-52934497D01*
X223392682Y-52980812D01*
X223367794Y-52994281D01*
X223359418Y-52998814D01*
X223181762Y-53137091D01*
X223029278Y-53302731D01*
X222906139Y-53491209D01*
X222815702Y-53697388D01*
X222760437Y-53915627D01*
X222760436Y-53915632D01*
X222741844Y-54140000D01*
X222760436Y-54364368D01*
X222760436Y-54364371D01*
X222760437Y-54364372D01*
X222815702Y-54582611D01*
X222906139Y-54788790D01*
X223029278Y-54977268D01*
X223181762Y-55142908D01*
X223359418Y-55281185D01*
X223359420Y-55281186D01*
X223359424Y-55281189D01*
X223392682Y-55299187D01*
X223440952Y-55345503D01*
X223458711Y-55410000D01*
X223440952Y-55474497D01*
X223392682Y-55520812D01*
X223367794Y-55534281D01*
X223359418Y-55538814D01*
X223181762Y-55677091D01*
X223029278Y-55842731D01*
X222906139Y-56031209D01*
X222815702Y-56237388D01*
X222762357Y-56448046D01*
X222760436Y-56455632D01*
X222741844Y-56680000D01*
X222760436Y-56904368D01*
X222760436Y-56904371D01*
X222760437Y-56904372D01*
X222815702Y-57122611D01*
X222906139Y-57328790D01*
X223029278Y-57517268D01*
X223181762Y-57682908D01*
X223188365Y-57688047D01*
X223359424Y-57821189D01*
X223392682Y-57839187D01*
X223440951Y-57885500D01*
X223458711Y-57949997D01*
X223440953Y-58014494D01*
X223392683Y-58060811D01*
X223359423Y-58078810D01*
X223181762Y-58217091D01*
X223029278Y-58382731D01*
X222906139Y-58571209D01*
X222815702Y-58777388D01*
X222775696Y-58935371D01*
X222760436Y-58995632D01*
X222741844Y-59220000D01*
X222760436Y-59444368D01*
X222760436Y-59444371D01*
X222760437Y-59444372D01*
X222815702Y-59662611D01*
X222906139Y-59868790D01*
X222977251Y-59977635D01*
X223029278Y-60057268D01*
X223124637Y-60160855D01*
X223181762Y-60222908D01*
X223359418Y-60361185D01*
X223359420Y-60361186D01*
X223359424Y-60361189D01*
X223392682Y-60379187D01*
X223440952Y-60425503D01*
X223458711Y-60490000D01*
X223440952Y-60554497D01*
X223392682Y-60600812D01*
X223373780Y-60611042D01*
X223359418Y-60618814D01*
X223181762Y-60757091D01*
X223029278Y-60922731D01*
X222906139Y-61111209D01*
X222815702Y-61317388D01*
X222782136Y-61449940D01*
X222760436Y-61535632D01*
X222741844Y-61760000D01*
X222760436Y-61984368D01*
X222760436Y-61984371D01*
X222760437Y-61984372D01*
X222815702Y-62202611D01*
X222906139Y-62408790D01*
X223029278Y-62597268D01*
X223181762Y-62762908D01*
X223283611Y-62842181D01*
X223359424Y-62901189D01*
X223392682Y-62919187D01*
X223440951Y-62965500D01*
X223458711Y-63029997D01*
X223440953Y-63094494D01*
X223392683Y-63140811D01*
X223359423Y-63158810D01*
X223181762Y-63297091D01*
X223029278Y-63462731D01*
X222906139Y-63651209D01*
X222815702Y-63857388D01*
X222760437Y-64075627D01*
X222760436Y-64075632D01*
X222741844Y-64300000D01*
X222760436Y-64524368D01*
X222760436Y-64524371D01*
X222760437Y-64524372D01*
X222815702Y-64742611D01*
X222906139Y-64948790D01*
X223029278Y-65137268D01*
X223181762Y-65302908D01*
X223359418Y-65441185D01*
X223359420Y-65441186D01*
X223359424Y-65441189D01*
X223392682Y-65459187D01*
X223440952Y-65505503D01*
X223458711Y-65570000D01*
X223440952Y-65634497D01*
X223392682Y-65680812D01*
X223367794Y-65694281D01*
X223359418Y-65698814D01*
X223181762Y-65837091D01*
X223029278Y-66002731D01*
X222906139Y-66191209D01*
X222815702Y-66397388D01*
X222760437Y-66615627D01*
X222760436Y-66615632D01*
X222741844Y-66840000D01*
X222760436Y-67064368D01*
X222760436Y-67064371D01*
X222760437Y-67064372D01*
X222815702Y-67282611D01*
X222906139Y-67488790D01*
X223029278Y-67677268D01*
X223181762Y-67842908D01*
X223359418Y-67981185D01*
X223359420Y-67981186D01*
X223359424Y-67981189D01*
X223392682Y-67999187D01*
X223440952Y-68045503D01*
X223458711Y-68110000D01*
X223440952Y-68174497D01*
X223392682Y-68220812D01*
X223367794Y-68234281D01*
X223359418Y-68238814D01*
X223181762Y-68377091D01*
X223029278Y-68542731D01*
X222906139Y-68731209D01*
X222815702Y-68937388D01*
X222760437Y-69155627D01*
X222760436Y-69155632D01*
X222741844Y-69380000D01*
X222760436Y-69604368D01*
X222760436Y-69604371D01*
X222760437Y-69604372D01*
X222815702Y-69822611D01*
X222906139Y-70028790D01*
X223029278Y-70217268D01*
X223181762Y-70382908D01*
X223359418Y-70521185D01*
X223359420Y-70521186D01*
X223359424Y-70521189D01*
X223392682Y-70539187D01*
X223440952Y-70585503D01*
X223458711Y-70650000D01*
X223440952Y-70714497D01*
X223392682Y-70760812D01*
X223367794Y-70774281D01*
X223359418Y-70778814D01*
X223181762Y-70917091D01*
X223029278Y-71082731D01*
X222906139Y-71271209D01*
X222815702Y-71477388D01*
X222760437Y-71695627D01*
X222760436Y-71695632D01*
X222741844Y-71920000D01*
X185085210Y-71920000D01*
X199262280Y-63158810D01*
X201074752Y-62038733D01*
X201074771Y-62038716D01*
X201220825Y-61948435D01*
X201220824Y-61948435D01*
X201220830Y-61948432D01*
X201529514Y-61713565D01*
X201814031Y-61449940D01*
X202071714Y-61160030D01*
X202103172Y-61116861D01*
X202244634Y-60922732D01*
X202300145Y-60846554D01*
X202497182Y-60512451D01*
X202660978Y-60160856D01*
X202789996Y-59795065D01*
X202883025Y-59418510D01*
X202939194Y-59034722D01*
X202957976Y-58647300D01*
X202939194Y-58259878D01*
X202883025Y-57876090D01*
X202789996Y-57499535D01*
X202660978Y-57133744D01*
X202579273Y-56958360D01*
X202497185Y-56782155D01*
X202497184Y-56782153D01*
X202497182Y-56782149D01*
X202300145Y-56448046D01*
X202219265Y-56337054D01*
X202071715Y-56134570D01*
X201814028Y-55844656D01*
X201529517Y-55581037D01*
X201220829Y-55346167D01*
X201070872Y-55253473D01*
X201070854Y-55253457D01*
X174881518Y-39068889D01*
X174880191Y-39068058D01*
X174851851Y-39050054D01*
X174849224Y-39048339D01*
X174817443Y-39027020D01*
X174816338Y-39026270D01*
X174645453Y-38908995D01*
X174642703Y-38907053D01*
X174527091Y-38823080D01*
X174522111Y-38819270D01*
X174423434Y-38739807D01*
X174421548Y-38738258D01*
X174359683Y-38686432D01*
X174359154Y-38685986D01*
X174333809Y-38664516D01*
X174331439Y-38662457D01*
X174223495Y-38566296D01*
X174218938Y-38562030D01*
X174134842Y-38479252D01*
X174133530Y-38477940D01*
X174082889Y-38426506D01*
X174082078Y-38425674D01*
X174046954Y-38389336D01*
X174044803Y-38387055D01*
X173946918Y-38280609D01*
X173942790Y-38275889D01*
X173873672Y-38192782D01*
X173872715Y-38191617D01*
X173856115Y-38171164D01*
X173828269Y-38136854D01*
X173827472Y-38135860D01*
X173788806Y-38086942D01*
X173786925Y-38084499D01*
X173700112Y-37968866D01*
X173696473Y-37963759D01*
X173642857Y-37884407D01*
X173642275Y-37883538D01*
X173601784Y-37822526D01*
X173600644Y-37820777D01*
X173562051Y-37760480D01*
X173560414Y-37757852D01*
X173485510Y-37634142D01*
X173482398Y-37628700D01*
X173446361Y-37561892D01*
X173446174Y-37561545D01*
X173406321Y-37486840D01*
X173405254Y-37484790D01*
X173368806Y-37413003D01*
X173367465Y-37410277D01*
X173305610Y-37280542D01*
X173303020Y-37274736D01*
X173244231Y-37133411D01*
X173243130Y-37130672D01*
X173211088Y-37048124D01*
X173210006Y-37045228D01*
X173163841Y-36916915D01*
X173161986Y-36911350D01*
X173118168Y-36768872D01*
X173116927Y-36764796D01*
X173116095Y-36761934D01*
X173090399Y-36669341D01*
X173089633Y-36666444D01*
X173058211Y-36541207D01*
X173057032Y-36536033D01*
X173032649Y-36417277D01*
X173024877Y-36378140D01*
X173024309Y-36375080D01*
X173015769Y-36325676D01*
X173007954Y-36280463D01*
X173007461Y-36277379D01*
X172989745Y-36157138D01*
X172989126Y-36152268D01*
X172977038Y-36039362D01*
X172976970Y-36038693D01*
X172971690Y-35984157D01*
X172971436Y-35981143D01*
X172964555Y-35885255D01*
X172964378Y-35882259D01*
X172959045Y-35768239D01*
X172958919Y-35763878D01*
X172957728Y-35653548D01*
X172957723Y-35652174D01*
X172957921Y-35586909D01*
X172957969Y-35583792D01*
X172958365Y-35569609D01*
X172960651Y-35487734D01*
X172960773Y-35484728D01*
X172966394Y-35378364D01*
X172966668Y-35374388D01*
X172975884Y-35266298D01*
X172976074Y-35264275D01*
X172983700Y-35190189D01*
X172984059Y-35187091D01*
X172989416Y-35145285D01*
X172996263Y-35091848D01*
X172996685Y-35088846D01*
X173011698Y-34991065D01*
X173012264Y-34987696D01*
X173031647Y-34881726D01*
X173032130Y-34879237D01*
X173048774Y-34798015D01*
X173049423Y-34795031D01*
X173071050Y-34701395D01*
X173071763Y-34698475D01*
X173094496Y-34610138D01*
X173095211Y-34607497D01*
X173109337Y-34557766D01*
X180945668Y-34557766D01*
X180975294Y-34827015D01*
X180975295Y-34827018D01*
X181043809Y-35089088D01*
X181119153Y-35266386D01*
X181148586Y-35335650D01*
X181149751Y-35338390D01*
X181290863Y-35569610D01*
X181464136Y-35777820D01*
X181464137Y-35777821D01*
X181464139Y-35777823D01*
X181665874Y-35958578D01*
X181665876Y-35958579D01*
X181665879Y-35958582D01*
X181891791Y-36108044D01*
X181986044Y-36152228D01*
X182137052Y-36223018D01*
X182137054Y-36223018D01*
X182137057Y-36223020D01*
X182396450Y-36301060D01*
X182396453Y-36301060D01*
X182396455Y-36301061D01*
X182664439Y-36340500D01*
X182664442Y-36340500D01*
X182867511Y-36340500D01*
X182867512Y-36340500D01*
X183070037Y-36325677D01*
X183334434Y-36266780D01*
X183587439Y-36170014D01*
X183823658Y-36037441D01*
X184038058Y-35871888D01*
X184226067Y-35676881D01*
X184383680Y-35456579D01*
X184507537Y-35215675D01*
X184594999Y-34959305D01*
X184644200Y-34692933D01*
X184651616Y-34490000D01*
X184979079Y-34490000D01*
X184997857Y-34716614D01*
X184997857Y-34716617D01*
X184997858Y-34716618D01*
X185053677Y-34937045D01*
X185145020Y-35145285D01*
X185269391Y-35335650D01*
X185423396Y-35502945D01*
X185602841Y-35642612D01*
X185802824Y-35750838D01*
X185802826Y-35750839D01*
X186017896Y-35824672D01*
X186107612Y-35839643D01*
X186242183Y-35862100D01*
X186242186Y-35862100D01*
X186469576Y-35862100D01*
X186469579Y-35862100D01*
X186581720Y-35843386D01*
X186693866Y-35824672D01*
X186908936Y-35750839D01*
X187108920Y-35642612D01*
X187288364Y-35502946D01*
X187331050Y-35456577D01*
X187442370Y-35335650D01*
X187461054Y-35307053D01*
X187520397Y-35216220D01*
X187565911Y-35174321D01*
X187625881Y-35159135D01*
X187685851Y-35174321D01*
X187731364Y-35216220D01*
X187809391Y-35335650D01*
X187963396Y-35502945D01*
X188142841Y-35642612D01*
X188342824Y-35750838D01*
X188342826Y-35750839D01*
X188557896Y-35824672D01*
X188647612Y-35839643D01*
X188782183Y-35862100D01*
X188782186Y-35862100D01*
X189009576Y-35862100D01*
X189009579Y-35862100D01*
X189121720Y-35843386D01*
X189233866Y-35824672D01*
X189448936Y-35750839D01*
X189648920Y-35642612D01*
X189828364Y-35502946D01*
X189871050Y-35456577D01*
X189982370Y-35335650D01*
X190001054Y-35307053D01*
X190060397Y-35216220D01*
X190105911Y-35174321D01*
X190165881Y-35159135D01*
X190225851Y-35174321D01*
X190271364Y-35216220D01*
X190349391Y-35335650D01*
X190503396Y-35502945D01*
X190682841Y-35642612D01*
X190882824Y-35750838D01*
X190882826Y-35750839D01*
X191097896Y-35824672D01*
X191187612Y-35839643D01*
X191322183Y-35862100D01*
X191322186Y-35862100D01*
X191549576Y-35862100D01*
X191549579Y-35862100D01*
X191661720Y-35843386D01*
X191773866Y-35824672D01*
X191988936Y-35750839D01*
X192188920Y-35642612D01*
X192368364Y-35502946D01*
X192412168Y-35455361D01*
X192465638Y-35420963D01*
X192529100Y-35417052D01*
X192586392Y-35444628D01*
X192622923Y-35496667D01*
X192625266Y-35502948D01*
X192661392Y-35599805D01*
X192749019Y-35716861D01*
X192866075Y-35804488D01*
X192866076Y-35804488D01*
X192866077Y-35804489D01*
X193003080Y-35855589D01*
X193063643Y-35862100D01*
X194888119Y-35862100D01*
X194948682Y-35855589D01*
X195085685Y-35804489D01*
X195202742Y-35716861D01*
X195290370Y-35599804D01*
X195328839Y-35496664D01*
X195365368Y-35444628D01*
X195422660Y-35417052D01*
X195486122Y-35420962D01*
X195539594Y-35455363D01*
X195583396Y-35502945D01*
X195762841Y-35642612D01*
X195962824Y-35750838D01*
X195962826Y-35750839D01*
X196177896Y-35824672D01*
X196267612Y-35839643D01*
X196402183Y-35862100D01*
X196402186Y-35862100D01*
X196629576Y-35862100D01*
X196629579Y-35862100D01*
X196741720Y-35843386D01*
X196853866Y-35824672D01*
X197068936Y-35750839D01*
X197268920Y-35642612D01*
X197448364Y-35502946D01*
X197491050Y-35456577D01*
X197602370Y-35335650D01*
X197621054Y-35307053D01*
X197680397Y-35216220D01*
X197725911Y-35174321D01*
X197785881Y-35159135D01*
X197845851Y-35174321D01*
X197891364Y-35216220D01*
X197969391Y-35335650D01*
X198123396Y-35502945D01*
X198302841Y-35642612D01*
X198502824Y-35750838D01*
X198502826Y-35750839D01*
X198717896Y-35824672D01*
X198807612Y-35839643D01*
X198942183Y-35862100D01*
X198942186Y-35862100D01*
X199169576Y-35862100D01*
X199169579Y-35862100D01*
X199281720Y-35843386D01*
X199393866Y-35824672D01*
X199608936Y-35750839D01*
X199808920Y-35642612D01*
X199988364Y-35502946D01*
X200031050Y-35456577D01*
X200142370Y-35335650D01*
X200161054Y-35307053D01*
X200220397Y-35216220D01*
X200265911Y-35174321D01*
X200325881Y-35159135D01*
X200385851Y-35174321D01*
X200431364Y-35216220D01*
X200509391Y-35335650D01*
X200663396Y-35502945D01*
X200842841Y-35642612D01*
X201042824Y-35750838D01*
X201042826Y-35750839D01*
X201257896Y-35824672D01*
X201347612Y-35839643D01*
X201482183Y-35862100D01*
X201482186Y-35862100D01*
X201709576Y-35862100D01*
X201709579Y-35862100D01*
X201821720Y-35843386D01*
X201933866Y-35824672D01*
X202148936Y-35750839D01*
X202348920Y-35642612D01*
X202528364Y-35502946D01*
X202571050Y-35456577D01*
X202682370Y-35335650D01*
X202701054Y-35307053D01*
X202760397Y-35216220D01*
X202805911Y-35174321D01*
X202865881Y-35159135D01*
X202925851Y-35174321D01*
X202971364Y-35216220D01*
X203049391Y-35335650D01*
X203203396Y-35502945D01*
X203382841Y-35642612D01*
X203582824Y-35750838D01*
X203582826Y-35750839D01*
X203797896Y-35824672D01*
X203887612Y-35839643D01*
X204022183Y-35862100D01*
X204022186Y-35862100D01*
X204249576Y-35862100D01*
X204249579Y-35862100D01*
X204361720Y-35843386D01*
X204473866Y-35824672D01*
X204688936Y-35750839D01*
X204888920Y-35642612D01*
X205068364Y-35502946D01*
X205111050Y-35456577D01*
X205222370Y-35335650D01*
X205241054Y-35307053D01*
X205300397Y-35216220D01*
X205345911Y-35174321D01*
X205405881Y-35159135D01*
X205465851Y-35174321D01*
X205511364Y-35216220D01*
X205589391Y-35335650D01*
X205743396Y-35502945D01*
X205922841Y-35642612D01*
X206122824Y-35750838D01*
X206122826Y-35750839D01*
X206337896Y-35824672D01*
X206427612Y-35839643D01*
X206562183Y-35862100D01*
X206562186Y-35862100D01*
X206789576Y-35862100D01*
X206789579Y-35862100D01*
X206901720Y-35843386D01*
X207013866Y-35824672D01*
X207228936Y-35750839D01*
X207428920Y-35642612D01*
X207608364Y-35502946D01*
X207651050Y-35456577D01*
X207762370Y-35335650D01*
X207781054Y-35307053D01*
X207840397Y-35216220D01*
X207885911Y-35174321D01*
X207945881Y-35159135D01*
X208005851Y-35174321D01*
X208051364Y-35216220D01*
X208129391Y-35335650D01*
X208283396Y-35502945D01*
X208462841Y-35642612D01*
X208662824Y-35750838D01*
X208662826Y-35750839D01*
X208877896Y-35824672D01*
X208967612Y-35839643D01*
X209102183Y-35862100D01*
X209102186Y-35862100D01*
X209329576Y-35862100D01*
X209329579Y-35862100D01*
X209441720Y-35843386D01*
X209553866Y-35824672D01*
X209768936Y-35750839D01*
X209968920Y-35642612D01*
X210148364Y-35502946D01*
X210191050Y-35456577D01*
X210302370Y-35335650D01*
X210302371Y-35335649D01*
X210426742Y-35145285D01*
X210518084Y-34937047D01*
X210573905Y-34716614D01*
X210592683Y-34490000D01*
X211903079Y-34490000D01*
X211921857Y-34716614D01*
X211921857Y-34716617D01*
X211921858Y-34716618D01*
X211977677Y-34937045D01*
X212069020Y-35145285D01*
X212193391Y-35335650D01*
X212347396Y-35502945D01*
X212526841Y-35642612D01*
X212726824Y-35750838D01*
X212726826Y-35750839D01*
X212941896Y-35824672D01*
X213031612Y-35839643D01*
X213166183Y-35862100D01*
X213166186Y-35862100D01*
X213393576Y-35862100D01*
X213393579Y-35862100D01*
X213505720Y-35843386D01*
X213617866Y-35824672D01*
X213832936Y-35750839D01*
X214032920Y-35642612D01*
X214212364Y-35502946D01*
X214255050Y-35456577D01*
X214366370Y-35335650D01*
X214385054Y-35307053D01*
X214444397Y-35216220D01*
X214489911Y-35174321D01*
X214549881Y-35159135D01*
X214609851Y-35174321D01*
X214655364Y-35216220D01*
X214733391Y-35335650D01*
X214887396Y-35502945D01*
X215066841Y-35642612D01*
X215266824Y-35750838D01*
X215266826Y-35750839D01*
X215481896Y-35824672D01*
X215571612Y-35839643D01*
X215706183Y-35862100D01*
X215706186Y-35862100D01*
X215933576Y-35862100D01*
X215933579Y-35862100D01*
X216045720Y-35843386D01*
X216157866Y-35824672D01*
X216372936Y-35750839D01*
X216572920Y-35642612D01*
X216752364Y-35502946D01*
X216795050Y-35456577D01*
X216906370Y-35335650D01*
X216925054Y-35307053D01*
X216984397Y-35216220D01*
X217029911Y-35174321D01*
X217089881Y-35159135D01*
X217149851Y-35174321D01*
X217195364Y-35216220D01*
X217273391Y-35335650D01*
X217427396Y-35502945D01*
X217606841Y-35642612D01*
X217806824Y-35750838D01*
X217806826Y-35750839D01*
X218021896Y-35824672D01*
X218111612Y-35839643D01*
X218246183Y-35862100D01*
X218246186Y-35862100D01*
X218473576Y-35862100D01*
X218473579Y-35862100D01*
X218585720Y-35843386D01*
X218697866Y-35824672D01*
X218912936Y-35750839D01*
X219112920Y-35642612D01*
X219292364Y-35502946D01*
X219335050Y-35456577D01*
X219446370Y-35335650D01*
X219465054Y-35307053D01*
X219524397Y-35216220D01*
X219569911Y-35174321D01*
X219629881Y-35159135D01*
X219689851Y-35174321D01*
X219735364Y-35216220D01*
X219813391Y-35335650D01*
X219967396Y-35502945D01*
X220146841Y-35642612D01*
X220346824Y-35750838D01*
X220346826Y-35750839D01*
X220561896Y-35824672D01*
X220651612Y-35839643D01*
X220786183Y-35862100D01*
X220786186Y-35862100D01*
X221013576Y-35862100D01*
X221013579Y-35862100D01*
X221125720Y-35843386D01*
X221237866Y-35824672D01*
X221452936Y-35750839D01*
X221652920Y-35642612D01*
X221832364Y-35502946D01*
X221875050Y-35456577D01*
X221986370Y-35335650D01*
X222005054Y-35307053D01*
X222064397Y-35216220D01*
X222109911Y-35174321D01*
X222169881Y-35159135D01*
X222229851Y-35174321D01*
X222275364Y-35216220D01*
X222353391Y-35335650D01*
X222507396Y-35502945D01*
X222686841Y-35642612D01*
X222886824Y-35750838D01*
X222886826Y-35750839D01*
X223101896Y-35824672D01*
X223191612Y-35839643D01*
X223326183Y-35862100D01*
X223326186Y-35862100D01*
X223553576Y-35862100D01*
X223553579Y-35862100D01*
X223665720Y-35843386D01*
X223777866Y-35824672D01*
X223992936Y-35750839D01*
X224192920Y-35642612D01*
X224372364Y-35502946D01*
X224415050Y-35456577D01*
X224526370Y-35335650D01*
X224545054Y-35307053D01*
X224604397Y-35216220D01*
X224649911Y-35174321D01*
X224709881Y-35159135D01*
X224769851Y-35174321D01*
X224815364Y-35216220D01*
X224893391Y-35335650D01*
X225047396Y-35502945D01*
X225226841Y-35642612D01*
X225426824Y-35750838D01*
X225426826Y-35750839D01*
X225641896Y-35824672D01*
X225731612Y-35839643D01*
X225866183Y-35862100D01*
X225866186Y-35862100D01*
X226093576Y-35862100D01*
X226093579Y-35862100D01*
X226205720Y-35843386D01*
X226317866Y-35824672D01*
X226532936Y-35750839D01*
X226732920Y-35642612D01*
X226912364Y-35502946D01*
X226955050Y-35456577D01*
X227066370Y-35335650D01*
X227085054Y-35307053D01*
X227144397Y-35216220D01*
X227189911Y-35174321D01*
X227249881Y-35159135D01*
X227309851Y-35174321D01*
X227355364Y-35216220D01*
X227433391Y-35335650D01*
X227587396Y-35502945D01*
X227766841Y-35642612D01*
X227966824Y-35750838D01*
X227966826Y-35750839D01*
X228181896Y-35824672D01*
X228271612Y-35839643D01*
X228406183Y-35862100D01*
X228406186Y-35862100D01*
X228633576Y-35862100D01*
X228633579Y-35862100D01*
X228745720Y-35843386D01*
X228857866Y-35824672D01*
X229072936Y-35750839D01*
X229272920Y-35642612D01*
X229452364Y-35502946D01*
X229495050Y-35456577D01*
X229606370Y-35335650D01*
X229625054Y-35307053D01*
X229684397Y-35216220D01*
X229729911Y-35174321D01*
X229789881Y-35159135D01*
X229849851Y-35174321D01*
X229895364Y-35216220D01*
X229973391Y-35335650D01*
X230127396Y-35502945D01*
X230306841Y-35642612D01*
X230506824Y-35750838D01*
X230506826Y-35750839D01*
X230721896Y-35824672D01*
X230811612Y-35839643D01*
X230946183Y-35862100D01*
X230946186Y-35862100D01*
X231173576Y-35862100D01*
X231173579Y-35862100D01*
X231285720Y-35843386D01*
X231397866Y-35824672D01*
X231612936Y-35750839D01*
X231812920Y-35642612D01*
X231992364Y-35502946D01*
X232035050Y-35456577D01*
X232146370Y-35335650D01*
X232146371Y-35335649D01*
X232270742Y-35145285D01*
X232362084Y-34937047D01*
X232417905Y-34716614D01*
X232436683Y-34490000D01*
X232417905Y-34263386D01*
X232362084Y-34042953D01*
X232270742Y-33834715D01*
X232199262Y-33725306D01*
X232146370Y-33644349D01*
X231992365Y-33477054D01*
X231812920Y-33337387D01*
X231612937Y-33229161D01*
X231397863Y-33155327D01*
X231173579Y-33117900D01*
X231173576Y-33117900D01*
X230946186Y-33117900D01*
X230946183Y-33117900D01*
X230721898Y-33155327D01*
X230506824Y-33229161D01*
X230306841Y-33337387D01*
X230127396Y-33477054D01*
X229973391Y-33644349D01*
X229895364Y-33763779D01*
X229849850Y-33805678D01*
X229789881Y-33820864D01*
X229729912Y-33805678D01*
X229684398Y-33763779D01*
X229606370Y-33644349D01*
X229452365Y-33477054D01*
X229272920Y-33337387D01*
X229072937Y-33229161D01*
X228857863Y-33155327D01*
X228633579Y-33117900D01*
X228633576Y-33117900D01*
X228406186Y-33117900D01*
X228406183Y-33117900D01*
X228181898Y-33155327D01*
X227966824Y-33229161D01*
X227766841Y-33337387D01*
X227587396Y-33477054D01*
X227433391Y-33644349D01*
X227355364Y-33763779D01*
X227309850Y-33805678D01*
X227249881Y-33820864D01*
X227189912Y-33805678D01*
X227144398Y-33763779D01*
X227066370Y-33644349D01*
X226912365Y-33477054D01*
X226732920Y-33337387D01*
X226532937Y-33229161D01*
X226317863Y-33155327D01*
X226093579Y-33117900D01*
X226093576Y-33117900D01*
X225866186Y-33117900D01*
X225866183Y-33117900D01*
X225641898Y-33155327D01*
X225426824Y-33229161D01*
X225226841Y-33337387D01*
X225047396Y-33477054D01*
X224893391Y-33644349D01*
X224815364Y-33763779D01*
X224769850Y-33805678D01*
X224709881Y-33820864D01*
X224649912Y-33805678D01*
X224604398Y-33763779D01*
X224526370Y-33644349D01*
X224372365Y-33477054D01*
X224192920Y-33337387D01*
X223992937Y-33229161D01*
X223777863Y-33155327D01*
X223553579Y-33117900D01*
X223553576Y-33117900D01*
X223326186Y-33117900D01*
X223326183Y-33117900D01*
X223101898Y-33155327D01*
X222886824Y-33229161D01*
X222686841Y-33337387D01*
X222507396Y-33477054D01*
X222353391Y-33644349D01*
X222275364Y-33763779D01*
X222229850Y-33805678D01*
X222169881Y-33820864D01*
X222109912Y-33805678D01*
X222064398Y-33763779D01*
X221986370Y-33644349D01*
X221832365Y-33477054D01*
X221652920Y-33337387D01*
X221452937Y-33229161D01*
X221237863Y-33155327D01*
X221013579Y-33117900D01*
X221013576Y-33117900D01*
X220786186Y-33117900D01*
X220786183Y-33117900D01*
X220561898Y-33155327D01*
X220346824Y-33229161D01*
X220146841Y-33337387D01*
X219967396Y-33477054D01*
X219813391Y-33644349D01*
X219735364Y-33763779D01*
X219689850Y-33805678D01*
X219629881Y-33820864D01*
X219569912Y-33805678D01*
X219524398Y-33763779D01*
X219446370Y-33644349D01*
X219292365Y-33477054D01*
X219112920Y-33337387D01*
X218912937Y-33229161D01*
X218697863Y-33155327D01*
X218473579Y-33117900D01*
X218473576Y-33117900D01*
X218246186Y-33117900D01*
X218246183Y-33117900D01*
X218021898Y-33155327D01*
X217806824Y-33229161D01*
X217606841Y-33337387D01*
X217427396Y-33477054D01*
X217273391Y-33644349D01*
X217195364Y-33763779D01*
X217149850Y-33805678D01*
X217089881Y-33820864D01*
X217029912Y-33805678D01*
X216984398Y-33763779D01*
X216906370Y-33644349D01*
X216752365Y-33477054D01*
X216572920Y-33337387D01*
X216372937Y-33229161D01*
X216157863Y-33155327D01*
X215933579Y-33117900D01*
X215933576Y-33117900D01*
X215706186Y-33117900D01*
X215706183Y-33117900D01*
X215481898Y-33155327D01*
X215266824Y-33229161D01*
X215066841Y-33337387D01*
X214887396Y-33477054D01*
X214733391Y-33644349D01*
X214655364Y-33763779D01*
X214609850Y-33805678D01*
X214549881Y-33820864D01*
X214489912Y-33805678D01*
X214444398Y-33763779D01*
X214366370Y-33644349D01*
X214212365Y-33477054D01*
X214032920Y-33337387D01*
X213832937Y-33229161D01*
X213617863Y-33155327D01*
X213393579Y-33117900D01*
X213393576Y-33117900D01*
X213166186Y-33117900D01*
X213166183Y-33117900D01*
X212941898Y-33155327D01*
X212726824Y-33229161D01*
X212526841Y-33337387D01*
X212347396Y-33477054D01*
X212193391Y-33644349D01*
X212069020Y-33834714D01*
X211977677Y-34042954D01*
X211921858Y-34263381D01*
X211921857Y-34263386D01*
X211903079Y-34490000D01*
X210592683Y-34490000D01*
X210573905Y-34263386D01*
X210518084Y-34042953D01*
X210426742Y-33834715D01*
X210355262Y-33725306D01*
X210302370Y-33644349D01*
X210148365Y-33477054D01*
X209968920Y-33337387D01*
X209768937Y-33229161D01*
X209553863Y-33155327D01*
X209329579Y-33117900D01*
X209329576Y-33117900D01*
X209102186Y-33117900D01*
X209102183Y-33117900D01*
X208877898Y-33155327D01*
X208662824Y-33229161D01*
X208462841Y-33337387D01*
X208283396Y-33477054D01*
X208129391Y-33644349D01*
X208051364Y-33763779D01*
X208005850Y-33805678D01*
X207945881Y-33820864D01*
X207885912Y-33805678D01*
X207840398Y-33763779D01*
X207762370Y-33644349D01*
X207608365Y-33477054D01*
X207428920Y-33337387D01*
X207228937Y-33229161D01*
X207013863Y-33155327D01*
X206789579Y-33117900D01*
X206789576Y-33117900D01*
X206562186Y-33117900D01*
X206562183Y-33117900D01*
X206337898Y-33155327D01*
X206122824Y-33229161D01*
X205922841Y-33337387D01*
X205743396Y-33477054D01*
X205589391Y-33644349D01*
X205511364Y-33763779D01*
X205465850Y-33805678D01*
X205405881Y-33820864D01*
X205345912Y-33805678D01*
X205300398Y-33763779D01*
X205222370Y-33644349D01*
X205068365Y-33477054D01*
X204888920Y-33337387D01*
X204688937Y-33229161D01*
X204473863Y-33155327D01*
X204249579Y-33117900D01*
X204249576Y-33117900D01*
X204022186Y-33117900D01*
X204022183Y-33117900D01*
X203797898Y-33155327D01*
X203582824Y-33229161D01*
X203382841Y-33337387D01*
X203203396Y-33477054D01*
X203049391Y-33644349D01*
X202971364Y-33763779D01*
X202925850Y-33805678D01*
X202865881Y-33820864D01*
X202805912Y-33805678D01*
X202760398Y-33763779D01*
X202682370Y-33644349D01*
X202528365Y-33477054D01*
X202348920Y-33337387D01*
X202148937Y-33229161D01*
X201933863Y-33155327D01*
X201709579Y-33117900D01*
X201709576Y-33117900D01*
X201482186Y-33117900D01*
X201482183Y-33117900D01*
X201257898Y-33155327D01*
X201042824Y-33229161D01*
X200842841Y-33337387D01*
X200663396Y-33477054D01*
X200509391Y-33644349D01*
X200431364Y-33763779D01*
X200385850Y-33805678D01*
X200325881Y-33820864D01*
X200265912Y-33805678D01*
X200220398Y-33763779D01*
X200142370Y-33644349D01*
X199988365Y-33477054D01*
X199808920Y-33337387D01*
X199608937Y-33229161D01*
X199393863Y-33155327D01*
X199169579Y-33117900D01*
X199169576Y-33117900D01*
X198942186Y-33117900D01*
X198942183Y-33117900D01*
X198717898Y-33155327D01*
X198502824Y-33229161D01*
X198302841Y-33337387D01*
X198123396Y-33477054D01*
X197969391Y-33644349D01*
X197891364Y-33763779D01*
X197845850Y-33805678D01*
X197785881Y-33820864D01*
X197725912Y-33805678D01*
X197680398Y-33763779D01*
X197602370Y-33644349D01*
X197448365Y-33477054D01*
X197268920Y-33337387D01*
X197068937Y-33229161D01*
X196853863Y-33155327D01*
X196629579Y-33117900D01*
X196629576Y-33117900D01*
X196402186Y-33117900D01*
X196402183Y-33117900D01*
X196177898Y-33155327D01*
X195962824Y-33229161D01*
X195762841Y-33337387D01*
X195583395Y-33477055D01*
X195539593Y-33524637D01*
X195486121Y-33559037D01*
X195422659Y-33562947D01*
X195365368Y-33535371D01*
X195328838Y-33483332D01*
X195290370Y-33380196D01*
X195290368Y-33380193D01*
X195202742Y-33263138D01*
X195085686Y-33175511D01*
X194974632Y-33134090D01*
X194948682Y-33124411D01*
X194888119Y-33117900D01*
X193063643Y-33117900D01*
X193003080Y-33124411D01*
X192866075Y-33175511D01*
X192749019Y-33263138D01*
X192661392Y-33380193D01*
X192635855Y-33448663D01*
X192625266Y-33477054D01*
X192622924Y-33483332D01*
X192586392Y-33535371D01*
X192529101Y-33562947D01*
X192465639Y-33559037D01*
X192412167Y-33524636D01*
X192368365Y-33477054D01*
X192188920Y-33337387D01*
X191988937Y-33229161D01*
X191773863Y-33155327D01*
X191549579Y-33117900D01*
X191549576Y-33117900D01*
X191322186Y-33117900D01*
X191322183Y-33117900D01*
X191097898Y-33155327D01*
X190882824Y-33229161D01*
X190682841Y-33337387D01*
X190503396Y-33477054D01*
X190349391Y-33644349D01*
X190271364Y-33763779D01*
X190225850Y-33805678D01*
X190165881Y-33820864D01*
X190105912Y-33805678D01*
X190060398Y-33763779D01*
X189982370Y-33644349D01*
X189828365Y-33477054D01*
X189648920Y-33337387D01*
X189448937Y-33229161D01*
X189233863Y-33155327D01*
X189009579Y-33117900D01*
X189009576Y-33117900D01*
X188782186Y-33117900D01*
X188782183Y-33117900D01*
X188557898Y-33155327D01*
X188342824Y-33229161D01*
X188142841Y-33337387D01*
X187963396Y-33477054D01*
X187809391Y-33644349D01*
X187731364Y-33763779D01*
X187685850Y-33805678D01*
X187625881Y-33820864D01*
X187565912Y-33805678D01*
X187520398Y-33763779D01*
X187442370Y-33644349D01*
X187288365Y-33477054D01*
X187108920Y-33337387D01*
X186908937Y-33229161D01*
X186693863Y-33155327D01*
X186469579Y-33117900D01*
X186469576Y-33117900D01*
X186242186Y-33117900D01*
X186242183Y-33117900D01*
X186017898Y-33155327D01*
X185802824Y-33229161D01*
X185602841Y-33337387D01*
X185423396Y-33477054D01*
X185269391Y-33644349D01*
X185145020Y-33834714D01*
X185053677Y-34042954D01*
X184997858Y-34263381D01*
X184997857Y-34263386D01*
X184979079Y-34490000D01*
X184651616Y-34490000D01*
X184654093Y-34422235D01*
X184624467Y-34152982D01*
X184555953Y-33890912D01*
X184450011Y-33641610D01*
X184308899Y-33410390D01*
X184135626Y-33202180D01*
X184135622Y-33202176D01*
X183933887Y-33021421D01*
X183933884Y-33021419D01*
X183933883Y-33021418D01*
X183707971Y-32871956D01*
X183638792Y-32839526D01*
X183462709Y-32756981D01*
X183203306Y-32678938D01*
X182935323Y-32639500D01*
X182935320Y-32639500D01*
X182732250Y-32639500D01*
X182698495Y-32641970D01*
X182529720Y-32654323D01*
X182265330Y-32713219D01*
X182012322Y-32809985D01*
X181776106Y-32942557D01*
X181561701Y-33108114D01*
X181373696Y-33303117D01*
X181216081Y-33523422D01*
X181092223Y-33764328D01*
X181004763Y-34020693D01*
X180955562Y-34287065D01*
X180945668Y-34557766D01*
X173109337Y-34557766D01*
X173124610Y-34504000D01*
X173125443Y-34501202D01*
X173152498Y-34414251D01*
X173153455Y-34411307D01*
X173159964Y-34392085D01*
X173184260Y-34320343D01*
X173185287Y-34317431D01*
X173196421Y-34287065D01*
X173213837Y-34239560D01*
X173214756Y-34237135D01*
X173253915Y-34136955D01*
X173255217Y-34133757D01*
X173293858Y-34042666D01*
X173295075Y-34039892D01*
X173334791Y-33952389D01*
X173336102Y-33949597D01*
X173368539Y-33882610D01*
X173369446Y-33880778D01*
X173418452Y-33783937D01*
X173420244Y-33780532D01*
X173471433Y-33686996D01*
X173472908Y-33684377D01*
X173521165Y-33601180D01*
X173522685Y-33598635D01*
X173556897Y-33542897D01*
X173557579Y-33541803D01*
X173616593Y-33448574D01*
X173618993Y-33444929D01*
X173683459Y-33350755D01*
X173685226Y-33348239D01*
X173741470Y-33270310D01*
X173743233Y-33267930D01*
X173776349Y-33224372D01*
X173776764Y-33223831D01*
X173846479Y-33134038D01*
X173849562Y-33130227D01*
X173927846Y-33037252D01*
X173929867Y-33034910D01*
X173993558Y-32962975D01*
X173995598Y-32960728D01*
X174022832Y-32931469D01*
X174105963Y-32843307D01*
X174109685Y-32839526D01*
X174202240Y-32749521D01*
X174204472Y-32747405D01*
X174274958Y-32682193D01*
X174277226Y-32680145D01*
X174280501Y-32677261D01*
X174392565Y-32579191D01*
X174397067Y-32575434D01*
X174503790Y-32490552D01*
X174506243Y-32488651D01*
X174577008Y-32435187D01*
X174579151Y-32433608D01*
X174703586Y-32344198D01*
X174708767Y-32340671D01*
X174829648Y-32262786D01*
X174832261Y-32261149D01*
X174866980Y-32239983D01*
X174900891Y-32219309D01*
X174902955Y-32218079D01*
X174976650Y-32175177D01*
X175042265Y-32137383D01*
X175047706Y-32134428D01*
X175176497Y-32068548D01*
X175179201Y-32067207D01*
X175243979Y-32036081D01*
X175245518Y-32035357D01*
X175312523Y-32004518D01*
X175312777Y-32004403D01*
X175400509Y-31964903D01*
X175406234Y-31962495D01*
X175540919Y-31909747D01*
X175543776Y-31908668D01*
X175602378Y-31887383D01*
X175603369Y-31887030D01*
X175670385Y-31863664D01*
X175671597Y-31863250D01*
X175774117Y-31828876D01*
X175780076Y-31827042D01*
X175919351Y-31787936D01*
X175922328Y-31787140D01*
X175971590Y-31774622D01*
X175972216Y-31774465D01*
X176042719Y-31757239D01*
X176044318Y-31756862D01*
X176159422Y-31730643D01*
X176165525Y-31729412D01*
X176307970Y-31704344D01*
X176311004Y-31703848D01*
X176344081Y-31698873D01*
X176344441Y-31698819D01*
X176424512Y-31687227D01*
X176426817Y-31686916D01*
X176552596Y-31671184D01*
X176558753Y-31670569D01*
X176701432Y-31659898D01*
X176704529Y-31659709D01*
X176911873Y-31649764D01*
X176912956Y-31649717D01*
X176951297Y-31648285D01*
X176954353Y-31648209D01*
X176985687Y-31647820D01*
X176986492Y-31647810D01*
X176988058Y-31647800D01*
X236872544Y-31647800D01*
X236874791Y-31647819D01*
G37*
%TD.AperFunction*%
%TD*%
M02*
