M48
; DRILL file {KiCad 7.0.1} date Mon Apr  3 11:51:49 2023
; FORMAT={2:4/ absolute / inch / keep zeros}
; #@! TF.CreationDate,2023-04-03T11:51:49-04:00
; #@! TF.GenerationSoftware,Kicad,Pcbnew,7.0.1
; #@! TF.FileFunction,MixedPlating,1,2
FMAT,2
INCH
; #@! TA.AperFunction,Plated,PTH,ComponentDrill
T1C0.0394
; #@! TA.AperFunction,Plated,PTH,ComponentDrill
T2C0.0400
; #@! TA.AperFunction,NonPlated,NPTH,ComponentDrill
T3C0.1260
%
G90
G05
T1
X088230Y-016315
X088230Y-017315
X088230Y-018315
X088230Y-019315
X088230Y-020315
X088230Y-021315
X088230Y-022315
X088230Y-023315
X088230Y-024315
X088230Y-025315
X088230Y-026315
X088230Y-027315
X088230Y-028315
X088230Y-029315
X088230Y-030315
T2
X073368Y-013579
X074368Y-013579
X075368Y-013579
X076368Y-013579
X076968Y-032579
X077368Y-013579
X077968Y-032579
X078368Y-013579
X078968Y-032579
X079368Y-013579
X079968Y-032579
X080368Y-013579
X080968Y-032579
X081368Y-013579
X081968Y-032579
X082368Y-013579
X082968Y-032579
X083968Y-013579
X083968Y-032579
X084968Y-013579
X085968Y-013579
X085968Y-032579
X086968Y-013579
X086968Y-032579
X087968Y-013579
X087968Y-032579
X088968Y-013579
X088968Y-032579
X089968Y-013579
X089968Y-032579
X090968Y-013579
X090968Y-032579
X091018Y-021579
X091018Y-022579
X091018Y-023579
X092018Y-021579
X092018Y-022579
X092018Y-023579
T3
X071468Y-032579
X071968Y-013579
X091968Y-019579
X091968Y-030579
T0
M30
