%TF.GenerationSoftware,KiCad,Pcbnew,7.0.1*%
%TF.CreationDate,2023-04-03T11:51:54-04:00*%
%TF.ProjectId,panel-tester_arduino-uno,70616e65-6c2d-4746-9573-7465725f6172,rev?*%
%TF.SameCoordinates,Original*%
%TF.FileFunction,Drillmap*%
%TF.FilePolarity,Positive*%
%FSLAX45Y45*%
G04 Gerber Fmt 4.5, Leading zero omitted, Abs format (unit mm)*
G04 Created by KiCad (PCBNEW 7.0.1) date 2023-04-03 11:51:54*
%MOMM*%
%LPD*%
G01*
G04 APERTURE LIST*
%ADD10C,0.200000*%
%ADD11C,0.100000*%
%ADD12C,0.101600*%
%ADD13C,0.320000*%
G04 APERTURE END LIST*
D10*
X17485000Y-3905000D02*
X20105560Y-5524462D01*
X20105560Y-6204998D02*
G75*
G03*
X20105560Y-5524462I-210280J340268D01*
G01*
X20105560Y-6204998D02*
X17485000Y-7824460D01*
X17485002Y-7824461D02*
G75*
G03*
X17695280Y-8564730I210278J-340269D01*
G01*
X23695280Y-8564730D02*
X17695280Y-8564730D01*
X23695280Y-8564730D02*
G75*
G03*
X23895280Y-8364730I0J200000D01*
G01*
X23895280Y-3364730D02*
X23895280Y-8364730D01*
X23895280Y-3364730D02*
G75*
G03*
X23695280Y-3164730I-200000J0D01*
G01*
X17695280Y-3164730D02*
X23695280Y-3164730D01*
X17695280Y-3164730D02*
G75*
G03*
X17485002Y-3904999I0J-400000D01*
G01*
D11*
X22360500Y-4094000D02*
X22460500Y-4194000D01*
X22460500Y-4094000D02*
X22360500Y-4194000D01*
X22360500Y-4348000D02*
X22460500Y-4448000D01*
X22460500Y-4348000D02*
X22360500Y-4448000D01*
X22360500Y-4602000D02*
X22460500Y-4702000D01*
X22460500Y-4602000D02*
X22360500Y-4702000D01*
X22360500Y-4856000D02*
X22460500Y-4956000D01*
X22460500Y-4856000D02*
X22360500Y-4956000D01*
X22360500Y-5110000D02*
X22460500Y-5210000D01*
X22460500Y-5110000D02*
X22360500Y-5210000D01*
X22360500Y-5364000D02*
X22460500Y-5464000D01*
X22460500Y-5364000D02*
X22360500Y-5464000D01*
X22360500Y-5618000D02*
X22460500Y-5718000D01*
X22460500Y-5618000D02*
X22360500Y-5718000D01*
X22360500Y-5872000D02*
X22460500Y-5972000D01*
X22460500Y-5872000D02*
X22360500Y-5972000D01*
X22360500Y-6126000D02*
X22460500Y-6226000D01*
X22460500Y-6126000D02*
X22360500Y-6226000D01*
X22360500Y-6380000D02*
X22460500Y-6480000D01*
X22460500Y-6380000D02*
X22360500Y-6480000D01*
X22360500Y-6634000D02*
X22460500Y-6734000D01*
X22460500Y-6634000D02*
X22360500Y-6734000D01*
X22360500Y-6888000D02*
X22460500Y-6988000D01*
X22460500Y-6888000D02*
X22360500Y-6988000D01*
X22360500Y-7142000D02*
X22460500Y-7242000D01*
X22460500Y-7142000D02*
X22360500Y-7242000D01*
X22360500Y-7396000D02*
X22460500Y-7496000D01*
X22460500Y-7396000D02*
X22360500Y-7496000D01*
X22360500Y-7650000D02*
X22460500Y-7750000D01*
X22460500Y-7650000D02*
X22360500Y-7750000D01*
D12*
X18686388Y-3449000D02*
G75*
G03*
X18686388Y-3449000I-50800J0D01*
G01*
X18940388Y-3449000D02*
G75*
G03*
X18940388Y-3449000I-50800J0D01*
G01*
X19194388Y-3449000D02*
G75*
G03*
X19194388Y-3449000I-50800J0D01*
G01*
X19448388Y-3449000D02*
G75*
G03*
X19448388Y-3449000I-50800J0D01*
G01*
X19600788Y-8275000D02*
G75*
G03*
X19600788Y-8275000I-50800J0D01*
G01*
X19702388Y-3449000D02*
G75*
G03*
X19702388Y-3449000I-50800J0D01*
G01*
X19854788Y-8275000D02*
G75*
G03*
X19854788Y-8275000I-50800J0D01*
G01*
X19956388Y-3449000D02*
G75*
G03*
X19956388Y-3449000I-50800J0D01*
G01*
X20108788Y-8275000D02*
G75*
G03*
X20108788Y-8275000I-50800J0D01*
G01*
X20210388Y-3449000D02*
G75*
G03*
X20210388Y-3449000I-50800J0D01*
G01*
X20362788Y-8275000D02*
G75*
G03*
X20362788Y-8275000I-50800J0D01*
G01*
X20464388Y-3449000D02*
G75*
G03*
X20464388Y-3449000I-50800J0D01*
G01*
X20616788Y-8275000D02*
G75*
G03*
X20616788Y-8275000I-50800J0D01*
G01*
X20718388Y-3449000D02*
G75*
G03*
X20718388Y-3449000I-50800J0D01*
G01*
X20870788Y-8275000D02*
G75*
G03*
X20870788Y-8275000I-50800J0D01*
G01*
X20972388Y-3449000D02*
G75*
G03*
X20972388Y-3449000I-50800J0D01*
G01*
X21124788Y-8275000D02*
G75*
G03*
X21124788Y-8275000I-50800J0D01*
G01*
X21378788Y-3449000D02*
G75*
G03*
X21378788Y-3449000I-50800J0D01*
G01*
X21378788Y-8275000D02*
G75*
G03*
X21378788Y-8275000I-50800J0D01*
G01*
X21632788Y-3449000D02*
G75*
G03*
X21632788Y-3449000I-50800J0D01*
G01*
X21886788Y-3449000D02*
G75*
G03*
X21886788Y-3449000I-50800J0D01*
G01*
X21886788Y-8275000D02*
G75*
G03*
X21886788Y-8275000I-50800J0D01*
G01*
X22140788Y-3449000D02*
G75*
G03*
X22140788Y-3449000I-50800J0D01*
G01*
X22140788Y-8275000D02*
G75*
G03*
X22140788Y-8275000I-50800J0D01*
G01*
X22394788Y-3449000D02*
G75*
G03*
X22394788Y-3449000I-50800J0D01*
G01*
X22394788Y-8275000D02*
G75*
G03*
X22394788Y-8275000I-50800J0D01*
G01*
X22648788Y-3449000D02*
G75*
G03*
X22648788Y-3449000I-50800J0D01*
G01*
X22648788Y-8275000D02*
G75*
G03*
X22648788Y-8275000I-50800J0D01*
G01*
X22902788Y-3449000D02*
G75*
G03*
X22902788Y-3449000I-50800J0D01*
G01*
X22902788Y-8275000D02*
G75*
G03*
X22902788Y-8275000I-50800J0D01*
G01*
X23156788Y-3449000D02*
G75*
G03*
X23156788Y-3449000I-50800J0D01*
G01*
X23156788Y-8275000D02*
G75*
G03*
X23156788Y-8275000I-50800J0D01*
G01*
X23169488Y-5481000D02*
G75*
G03*
X23169488Y-5481000I-50800J0D01*
G01*
X23169488Y-5735000D02*
G75*
G03*
X23169488Y-5735000I-50800J0D01*
G01*
X23169488Y-5989000D02*
G75*
G03*
X23169488Y-5989000I-50800J0D01*
G01*
X23423488Y-5481000D02*
G75*
G03*
X23423488Y-5481000I-50800J0D01*
G01*
X23423488Y-5735000D02*
G75*
G03*
X23423488Y-5735000I-50800J0D01*
G01*
X23423488Y-5989000D02*
G75*
G03*
X23423488Y-5989000I-50800J0D01*
G01*
D13*
X18152988Y-8115000D02*
X18152988Y-8435000D01*
X17992988Y-8275000D02*
X18312988Y-8275000D01*
X18279988Y-3289000D02*
X18279988Y-3609000D01*
X18119988Y-3449000D02*
X18439988Y-3449000D01*
X23359988Y-4813000D02*
X23359988Y-5133000D01*
X23199988Y-4973000D02*
X23519988Y-4973000D01*
X23359988Y-7607000D02*
X23359988Y-7927000D01*
X23199988Y-7767000D02*
X23519988Y-7767000D01*
D10*
X17532899Y-8887254D02*
X17532899Y-8687254D01*
X17532899Y-8687254D02*
X17580518Y-8687254D01*
X17580518Y-8687254D02*
X17609090Y-8696778D01*
X17609090Y-8696778D02*
X17628137Y-8715825D01*
X17628137Y-8715825D02*
X17637661Y-8734873D01*
X17637661Y-8734873D02*
X17647185Y-8772968D01*
X17647185Y-8772968D02*
X17647185Y-8801540D01*
X17647185Y-8801540D02*
X17637661Y-8839635D01*
X17637661Y-8839635D02*
X17628137Y-8858682D01*
X17628137Y-8858682D02*
X17609090Y-8877730D01*
X17609090Y-8877730D02*
X17580518Y-8887254D01*
X17580518Y-8887254D02*
X17532899Y-8887254D01*
X17732899Y-8887254D02*
X17732899Y-8753920D01*
X17732899Y-8792016D02*
X17742423Y-8772968D01*
X17742423Y-8772968D02*
X17751947Y-8763444D01*
X17751947Y-8763444D02*
X17770994Y-8753920D01*
X17770994Y-8753920D02*
X17790042Y-8753920D01*
X17856709Y-8887254D02*
X17856709Y-8753920D01*
X17856709Y-8687254D02*
X17847185Y-8696778D01*
X17847185Y-8696778D02*
X17856709Y-8706301D01*
X17856709Y-8706301D02*
X17866232Y-8696778D01*
X17866232Y-8696778D02*
X17856709Y-8687254D01*
X17856709Y-8687254D02*
X17856709Y-8706301D01*
X17980518Y-8887254D02*
X17961470Y-8877730D01*
X17961470Y-8877730D02*
X17951947Y-8858682D01*
X17951947Y-8858682D02*
X17951947Y-8687254D01*
X18085280Y-8887254D02*
X18066232Y-8877730D01*
X18066232Y-8877730D02*
X18056709Y-8858682D01*
X18056709Y-8858682D02*
X18056709Y-8687254D01*
X18313851Y-8887254D02*
X18313851Y-8687254D01*
X18313851Y-8687254D02*
X18380518Y-8830111D01*
X18380518Y-8830111D02*
X18447185Y-8687254D01*
X18447185Y-8687254D02*
X18447185Y-8887254D01*
X18628137Y-8887254D02*
X18628137Y-8782492D01*
X18628137Y-8782492D02*
X18618613Y-8763444D01*
X18618613Y-8763444D02*
X18599566Y-8753920D01*
X18599566Y-8753920D02*
X18561470Y-8753920D01*
X18561470Y-8753920D02*
X18542423Y-8763444D01*
X18628137Y-8877730D02*
X18609090Y-8887254D01*
X18609090Y-8887254D02*
X18561470Y-8887254D01*
X18561470Y-8887254D02*
X18542423Y-8877730D01*
X18542423Y-8877730D02*
X18532899Y-8858682D01*
X18532899Y-8858682D02*
X18532899Y-8839635D01*
X18532899Y-8839635D02*
X18542423Y-8820587D01*
X18542423Y-8820587D02*
X18561470Y-8811063D01*
X18561470Y-8811063D02*
X18609090Y-8811063D01*
X18609090Y-8811063D02*
X18628137Y-8801540D01*
X18723375Y-8753920D02*
X18723375Y-8953920D01*
X18723375Y-8763444D02*
X18742423Y-8753920D01*
X18742423Y-8753920D02*
X18780518Y-8753920D01*
X18780518Y-8753920D02*
X18799566Y-8763444D01*
X18799566Y-8763444D02*
X18809090Y-8772968D01*
X18809090Y-8772968D02*
X18818613Y-8792016D01*
X18818613Y-8792016D02*
X18818613Y-8849159D01*
X18818613Y-8849159D02*
X18809090Y-8868206D01*
X18809090Y-8868206D02*
X18799566Y-8877730D01*
X18799566Y-8877730D02*
X18780518Y-8887254D01*
X18780518Y-8887254D02*
X18742423Y-8887254D01*
X18742423Y-8887254D02*
X18723375Y-8877730D01*
X18904328Y-8868206D02*
X18913851Y-8877730D01*
X18913851Y-8877730D02*
X18904328Y-8887254D01*
X18904328Y-8887254D02*
X18894804Y-8877730D01*
X18894804Y-8877730D02*
X18904328Y-8868206D01*
X18904328Y-8868206D02*
X18904328Y-8887254D01*
X18904328Y-8763444D02*
X18913851Y-8772968D01*
X18913851Y-8772968D02*
X18904328Y-8782492D01*
X18904328Y-8782492D02*
X18894804Y-8772968D01*
X18894804Y-8772968D02*
X18904328Y-8763444D01*
X18904328Y-8763444D02*
X18904328Y-8782492D01*
D11*
X17185280Y-9164730D02*
X17285280Y-9264730D01*
X17285280Y-9164730D02*
X17185280Y-9264730D01*
D10*
X17637661Y-9307254D02*
X17523375Y-9307254D01*
X17580518Y-9307254D02*
X17580518Y-9107254D01*
X17580518Y-9107254D02*
X17561470Y-9135825D01*
X17561470Y-9135825D02*
X17542423Y-9154873D01*
X17542423Y-9154873D02*
X17523375Y-9164397D01*
X17723375Y-9288206D02*
X17732899Y-9297730D01*
X17732899Y-9297730D02*
X17723375Y-9307254D01*
X17723375Y-9307254D02*
X17713851Y-9297730D01*
X17713851Y-9297730D02*
X17723375Y-9288206D01*
X17723375Y-9288206D02*
X17723375Y-9307254D01*
X17856709Y-9107254D02*
X17875756Y-9107254D01*
X17875756Y-9107254D02*
X17894804Y-9116778D01*
X17894804Y-9116778D02*
X17904328Y-9126301D01*
X17904328Y-9126301D02*
X17913851Y-9145349D01*
X17913851Y-9145349D02*
X17923375Y-9183444D01*
X17923375Y-9183444D02*
X17923375Y-9231063D01*
X17923375Y-9231063D02*
X17913851Y-9269159D01*
X17913851Y-9269159D02*
X17904328Y-9288206D01*
X17904328Y-9288206D02*
X17894804Y-9297730D01*
X17894804Y-9297730D02*
X17875756Y-9307254D01*
X17875756Y-9307254D02*
X17856709Y-9307254D01*
X17856709Y-9307254D02*
X17837661Y-9297730D01*
X17837661Y-9297730D02*
X17828137Y-9288206D01*
X17828137Y-9288206D02*
X17818613Y-9269159D01*
X17818613Y-9269159D02*
X17809090Y-9231063D01*
X17809090Y-9231063D02*
X17809090Y-9183444D01*
X17809090Y-9183444D02*
X17818613Y-9145349D01*
X17818613Y-9145349D02*
X17828137Y-9126301D01*
X17828137Y-9126301D02*
X17837661Y-9116778D01*
X17837661Y-9116778D02*
X17856709Y-9107254D01*
X18047185Y-9107254D02*
X18066232Y-9107254D01*
X18066232Y-9107254D02*
X18085280Y-9116778D01*
X18085280Y-9116778D02*
X18094804Y-9126301D01*
X18094804Y-9126301D02*
X18104328Y-9145349D01*
X18104328Y-9145349D02*
X18113851Y-9183444D01*
X18113851Y-9183444D02*
X18113851Y-9231063D01*
X18113851Y-9231063D02*
X18104328Y-9269159D01*
X18104328Y-9269159D02*
X18094804Y-9288206D01*
X18094804Y-9288206D02*
X18085280Y-9297730D01*
X18085280Y-9297730D02*
X18066232Y-9307254D01*
X18066232Y-9307254D02*
X18047185Y-9307254D01*
X18047185Y-9307254D02*
X18028137Y-9297730D01*
X18028137Y-9297730D02*
X18018613Y-9288206D01*
X18018613Y-9288206D02*
X18009090Y-9269159D01*
X18009090Y-9269159D02*
X17999566Y-9231063D01*
X17999566Y-9231063D02*
X17999566Y-9183444D01*
X17999566Y-9183444D02*
X18009090Y-9145349D01*
X18009090Y-9145349D02*
X18018613Y-9126301D01*
X18018613Y-9126301D02*
X18028137Y-9116778D01*
X18028137Y-9116778D02*
X18047185Y-9107254D01*
X18237661Y-9107254D02*
X18256709Y-9107254D01*
X18256709Y-9107254D02*
X18275756Y-9116778D01*
X18275756Y-9116778D02*
X18285280Y-9126301D01*
X18285280Y-9126301D02*
X18294804Y-9145349D01*
X18294804Y-9145349D02*
X18304328Y-9183444D01*
X18304328Y-9183444D02*
X18304328Y-9231063D01*
X18304328Y-9231063D02*
X18294804Y-9269159D01*
X18294804Y-9269159D02*
X18285280Y-9288206D01*
X18285280Y-9288206D02*
X18275756Y-9297730D01*
X18275756Y-9297730D02*
X18256709Y-9307254D01*
X18256709Y-9307254D02*
X18237661Y-9307254D01*
X18237661Y-9307254D02*
X18218613Y-9297730D01*
X18218613Y-9297730D02*
X18209090Y-9288206D01*
X18209090Y-9288206D02*
X18199566Y-9269159D01*
X18199566Y-9269159D02*
X18190042Y-9231063D01*
X18190042Y-9231063D02*
X18190042Y-9183444D01*
X18190042Y-9183444D02*
X18199566Y-9145349D01*
X18199566Y-9145349D02*
X18209090Y-9126301D01*
X18209090Y-9126301D02*
X18218613Y-9116778D01*
X18218613Y-9116778D02*
X18237661Y-9107254D01*
X18390042Y-9307254D02*
X18390042Y-9173920D01*
X18390042Y-9192968D02*
X18399566Y-9183444D01*
X18399566Y-9183444D02*
X18418613Y-9173920D01*
X18418613Y-9173920D02*
X18447185Y-9173920D01*
X18447185Y-9173920D02*
X18466232Y-9183444D01*
X18466232Y-9183444D02*
X18475756Y-9202492D01*
X18475756Y-9202492D02*
X18475756Y-9307254D01*
X18475756Y-9202492D02*
X18485280Y-9183444D01*
X18485280Y-9183444D02*
X18504328Y-9173920D01*
X18504328Y-9173920D02*
X18532899Y-9173920D01*
X18532899Y-9173920D02*
X18551947Y-9183444D01*
X18551947Y-9183444D02*
X18561471Y-9202492D01*
X18561471Y-9202492D02*
X18561471Y-9307254D01*
X18656709Y-9307254D02*
X18656709Y-9173920D01*
X18656709Y-9192968D02*
X18666232Y-9183444D01*
X18666232Y-9183444D02*
X18685280Y-9173920D01*
X18685280Y-9173920D02*
X18713852Y-9173920D01*
X18713852Y-9173920D02*
X18732899Y-9183444D01*
X18732899Y-9183444D02*
X18742423Y-9202492D01*
X18742423Y-9202492D02*
X18742423Y-9307254D01*
X18742423Y-9202492D02*
X18751947Y-9183444D01*
X18751947Y-9183444D02*
X18770994Y-9173920D01*
X18770994Y-9173920D02*
X18799566Y-9173920D01*
X18799566Y-9173920D02*
X18818613Y-9183444D01*
X18818613Y-9183444D02*
X18828137Y-9202492D01*
X18828137Y-9202492D02*
X18828137Y-9307254D01*
X19218613Y-9097730D02*
X19047185Y-9354873D01*
X19475756Y-9107254D02*
X19494804Y-9107254D01*
X19494804Y-9107254D02*
X19513852Y-9116778D01*
X19513852Y-9116778D02*
X19523375Y-9126301D01*
X19523375Y-9126301D02*
X19532899Y-9145349D01*
X19532899Y-9145349D02*
X19542423Y-9183444D01*
X19542423Y-9183444D02*
X19542423Y-9231063D01*
X19542423Y-9231063D02*
X19532899Y-9269159D01*
X19532899Y-9269159D02*
X19523375Y-9288206D01*
X19523375Y-9288206D02*
X19513852Y-9297730D01*
X19513852Y-9297730D02*
X19494804Y-9307254D01*
X19494804Y-9307254D02*
X19475756Y-9307254D01*
X19475756Y-9307254D02*
X19456709Y-9297730D01*
X19456709Y-9297730D02*
X19447185Y-9288206D01*
X19447185Y-9288206D02*
X19437661Y-9269159D01*
X19437661Y-9269159D02*
X19428137Y-9231063D01*
X19428137Y-9231063D02*
X19428137Y-9183444D01*
X19428137Y-9183444D02*
X19437661Y-9145349D01*
X19437661Y-9145349D02*
X19447185Y-9126301D01*
X19447185Y-9126301D02*
X19456709Y-9116778D01*
X19456709Y-9116778D02*
X19475756Y-9107254D01*
X19628137Y-9288206D02*
X19637661Y-9297730D01*
X19637661Y-9297730D02*
X19628137Y-9307254D01*
X19628137Y-9307254D02*
X19618614Y-9297730D01*
X19618614Y-9297730D02*
X19628137Y-9288206D01*
X19628137Y-9288206D02*
X19628137Y-9307254D01*
X19761471Y-9107254D02*
X19780518Y-9107254D01*
X19780518Y-9107254D02*
X19799566Y-9116778D01*
X19799566Y-9116778D02*
X19809090Y-9126301D01*
X19809090Y-9126301D02*
X19818614Y-9145349D01*
X19818614Y-9145349D02*
X19828137Y-9183444D01*
X19828137Y-9183444D02*
X19828137Y-9231063D01*
X19828137Y-9231063D02*
X19818614Y-9269159D01*
X19818614Y-9269159D02*
X19809090Y-9288206D01*
X19809090Y-9288206D02*
X19799566Y-9297730D01*
X19799566Y-9297730D02*
X19780518Y-9307254D01*
X19780518Y-9307254D02*
X19761471Y-9307254D01*
X19761471Y-9307254D02*
X19742423Y-9297730D01*
X19742423Y-9297730D02*
X19732899Y-9288206D01*
X19732899Y-9288206D02*
X19723375Y-9269159D01*
X19723375Y-9269159D02*
X19713852Y-9231063D01*
X19713852Y-9231063D02*
X19713852Y-9183444D01*
X19713852Y-9183444D02*
X19723375Y-9145349D01*
X19723375Y-9145349D02*
X19732899Y-9126301D01*
X19732899Y-9126301D02*
X19742423Y-9116778D01*
X19742423Y-9116778D02*
X19761471Y-9107254D01*
X19894804Y-9107254D02*
X20018614Y-9107254D01*
X20018614Y-9107254D02*
X19951947Y-9183444D01*
X19951947Y-9183444D02*
X19980518Y-9183444D01*
X19980518Y-9183444D02*
X19999566Y-9192968D01*
X19999566Y-9192968D02*
X20009090Y-9202492D01*
X20009090Y-9202492D02*
X20018614Y-9221540D01*
X20018614Y-9221540D02*
X20018614Y-9269159D01*
X20018614Y-9269159D02*
X20009090Y-9288206D01*
X20009090Y-9288206D02*
X19999566Y-9297730D01*
X19999566Y-9297730D02*
X19980518Y-9307254D01*
X19980518Y-9307254D02*
X19923375Y-9307254D01*
X19923375Y-9307254D02*
X19904328Y-9297730D01*
X19904328Y-9297730D02*
X19894804Y-9288206D01*
X20113852Y-9307254D02*
X20151947Y-9307254D01*
X20151947Y-9307254D02*
X20170995Y-9297730D01*
X20170995Y-9297730D02*
X20180518Y-9288206D01*
X20180518Y-9288206D02*
X20199566Y-9259635D01*
X20199566Y-9259635D02*
X20209090Y-9221540D01*
X20209090Y-9221540D02*
X20209090Y-9145349D01*
X20209090Y-9145349D02*
X20199566Y-9126301D01*
X20199566Y-9126301D02*
X20190042Y-9116778D01*
X20190042Y-9116778D02*
X20170995Y-9107254D01*
X20170995Y-9107254D02*
X20132899Y-9107254D01*
X20132899Y-9107254D02*
X20113852Y-9116778D01*
X20113852Y-9116778D02*
X20104328Y-9126301D01*
X20104328Y-9126301D02*
X20094804Y-9145349D01*
X20094804Y-9145349D02*
X20094804Y-9192968D01*
X20094804Y-9192968D02*
X20104328Y-9212016D01*
X20104328Y-9212016D02*
X20113852Y-9221540D01*
X20113852Y-9221540D02*
X20132899Y-9231063D01*
X20132899Y-9231063D02*
X20170995Y-9231063D01*
X20170995Y-9231063D02*
X20190042Y-9221540D01*
X20190042Y-9221540D02*
X20199566Y-9212016D01*
X20199566Y-9212016D02*
X20209090Y-9192968D01*
X20380518Y-9173920D02*
X20380518Y-9307254D01*
X20332899Y-9097730D02*
X20285280Y-9240587D01*
X20285280Y-9240587D02*
X20409090Y-9240587D01*
X20475756Y-9107254D02*
X20475756Y-9145349D01*
X20551947Y-9107254D02*
X20551947Y-9145349D01*
X20847185Y-9383444D02*
X20837661Y-9373920D01*
X20837661Y-9373920D02*
X20818614Y-9345349D01*
X20818614Y-9345349D02*
X20809090Y-9326301D01*
X20809090Y-9326301D02*
X20799566Y-9297730D01*
X20799566Y-9297730D02*
X20790042Y-9250111D01*
X20790042Y-9250111D02*
X20790042Y-9212016D01*
X20790042Y-9212016D02*
X20799566Y-9164397D01*
X20799566Y-9164397D02*
X20809090Y-9135825D01*
X20809090Y-9135825D02*
X20818614Y-9116778D01*
X20818614Y-9116778D02*
X20837661Y-9088206D01*
X20837661Y-9088206D02*
X20847185Y-9078682D01*
X21028137Y-9307254D02*
X20913852Y-9307254D01*
X20970995Y-9307254D02*
X20970995Y-9107254D01*
X20970995Y-9107254D02*
X20951947Y-9135825D01*
X20951947Y-9135825D02*
X20932899Y-9154873D01*
X20932899Y-9154873D02*
X20913852Y-9164397D01*
X21209090Y-9107254D02*
X21113852Y-9107254D01*
X21113852Y-9107254D02*
X21104328Y-9202492D01*
X21104328Y-9202492D02*
X21113852Y-9192968D01*
X21113852Y-9192968D02*
X21132899Y-9183444D01*
X21132899Y-9183444D02*
X21180518Y-9183444D01*
X21180518Y-9183444D02*
X21199566Y-9192968D01*
X21199566Y-9192968D02*
X21209090Y-9202492D01*
X21209090Y-9202492D02*
X21218614Y-9221540D01*
X21218614Y-9221540D02*
X21218614Y-9269159D01*
X21218614Y-9269159D02*
X21209090Y-9288206D01*
X21209090Y-9288206D02*
X21199566Y-9297730D01*
X21199566Y-9297730D02*
X21180518Y-9307254D01*
X21180518Y-9307254D02*
X21132899Y-9307254D01*
X21132899Y-9307254D02*
X21113852Y-9297730D01*
X21113852Y-9297730D02*
X21104328Y-9288206D01*
X21456709Y-9307254D02*
X21456709Y-9107254D01*
X21542423Y-9307254D02*
X21542423Y-9202492D01*
X21542423Y-9202492D02*
X21532899Y-9183444D01*
X21532899Y-9183444D02*
X21513852Y-9173920D01*
X21513852Y-9173920D02*
X21485280Y-9173920D01*
X21485280Y-9173920D02*
X21466233Y-9183444D01*
X21466233Y-9183444D02*
X21456709Y-9192968D01*
X21666233Y-9307254D02*
X21647185Y-9297730D01*
X21647185Y-9297730D02*
X21637661Y-9288206D01*
X21637661Y-9288206D02*
X21628138Y-9269159D01*
X21628138Y-9269159D02*
X21628138Y-9212016D01*
X21628138Y-9212016D02*
X21637661Y-9192968D01*
X21637661Y-9192968D02*
X21647185Y-9183444D01*
X21647185Y-9183444D02*
X21666233Y-9173920D01*
X21666233Y-9173920D02*
X21694804Y-9173920D01*
X21694804Y-9173920D02*
X21713852Y-9183444D01*
X21713852Y-9183444D02*
X21723376Y-9192968D01*
X21723376Y-9192968D02*
X21732899Y-9212016D01*
X21732899Y-9212016D02*
X21732899Y-9269159D01*
X21732899Y-9269159D02*
X21723376Y-9288206D01*
X21723376Y-9288206D02*
X21713852Y-9297730D01*
X21713852Y-9297730D02*
X21694804Y-9307254D01*
X21694804Y-9307254D02*
X21666233Y-9307254D01*
X21847185Y-9307254D02*
X21828138Y-9297730D01*
X21828138Y-9297730D02*
X21818614Y-9278682D01*
X21818614Y-9278682D02*
X21818614Y-9107254D01*
X21999566Y-9297730D02*
X21980519Y-9307254D01*
X21980519Y-9307254D02*
X21942423Y-9307254D01*
X21942423Y-9307254D02*
X21923376Y-9297730D01*
X21923376Y-9297730D02*
X21913852Y-9278682D01*
X21913852Y-9278682D02*
X21913852Y-9202492D01*
X21913852Y-9202492D02*
X21923376Y-9183444D01*
X21923376Y-9183444D02*
X21942423Y-9173920D01*
X21942423Y-9173920D02*
X21980519Y-9173920D01*
X21980519Y-9173920D02*
X21999566Y-9183444D01*
X21999566Y-9183444D02*
X22009090Y-9202492D01*
X22009090Y-9202492D02*
X22009090Y-9221540D01*
X22009090Y-9221540D02*
X21913852Y-9240587D01*
X22085280Y-9297730D02*
X22104328Y-9307254D01*
X22104328Y-9307254D02*
X22142423Y-9307254D01*
X22142423Y-9307254D02*
X22161471Y-9297730D01*
X22161471Y-9297730D02*
X22170995Y-9278682D01*
X22170995Y-9278682D02*
X22170995Y-9269159D01*
X22170995Y-9269159D02*
X22161471Y-9250111D01*
X22161471Y-9250111D02*
X22142423Y-9240587D01*
X22142423Y-9240587D02*
X22113852Y-9240587D01*
X22113852Y-9240587D02*
X22094804Y-9231063D01*
X22094804Y-9231063D02*
X22085280Y-9212016D01*
X22085280Y-9212016D02*
X22085280Y-9202492D01*
X22085280Y-9202492D02*
X22094804Y-9183444D01*
X22094804Y-9183444D02*
X22113852Y-9173920D01*
X22113852Y-9173920D02*
X22142423Y-9173920D01*
X22142423Y-9173920D02*
X22161471Y-9183444D01*
X22237661Y-9383444D02*
X22247185Y-9373920D01*
X22247185Y-9373920D02*
X22266233Y-9345349D01*
X22266233Y-9345349D02*
X22275757Y-9326301D01*
X22275757Y-9326301D02*
X22285280Y-9297730D01*
X22285280Y-9297730D02*
X22294804Y-9250111D01*
X22294804Y-9250111D02*
X22294804Y-9212016D01*
X22294804Y-9212016D02*
X22285280Y-9164397D01*
X22285280Y-9164397D02*
X22275757Y-9135825D01*
X22275757Y-9135825D02*
X22266233Y-9116778D01*
X22266233Y-9116778D02*
X22247185Y-9088206D01*
X22247185Y-9088206D02*
X22237661Y-9078682D01*
D12*
X17285280Y-9478730D02*
G75*
G03*
X17285280Y-9478730I-50800J0D01*
G01*
D10*
X17637661Y-9571254D02*
X17523375Y-9571254D01*
X17580518Y-9571254D02*
X17580518Y-9371254D01*
X17580518Y-9371254D02*
X17561470Y-9399825D01*
X17561470Y-9399825D02*
X17542423Y-9418873D01*
X17542423Y-9418873D02*
X17523375Y-9428397D01*
X17723375Y-9552206D02*
X17732899Y-9561730D01*
X17732899Y-9561730D02*
X17723375Y-9571254D01*
X17723375Y-9571254D02*
X17713851Y-9561730D01*
X17713851Y-9561730D02*
X17723375Y-9552206D01*
X17723375Y-9552206D02*
X17723375Y-9571254D01*
X17856709Y-9371254D02*
X17875756Y-9371254D01*
X17875756Y-9371254D02*
X17894804Y-9380778D01*
X17894804Y-9380778D02*
X17904328Y-9390301D01*
X17904328Y-9390301D02*
X17913851Y-9409349D01*
X17913851Y-9409349D02*
X17923375Y-9447444D01*
X17923375Y-9447444D02*
X17923375Y-9495063D01*
X17923375Y-9495063D02*
X17913851Y-9533159D01*
X17913851Y-9533159D02*
X17904328Y-9552206D01*
X17904328Y-9552206D02*
X17894804Y-9561730D01*
X17894804Y-9561730D02*
X17875756Y-9571254D01*
X17875756Y-9571254D02*
X17856709Y-9571254D01*
X17856709Y-9571254D02*
X17837661Y-9561730D01*
X17837661Y-9561730D02*
X17828137Y-9552206D01*
X17828137Y-9552206D02*
X17818613Y-9533159D01*
X17818613Y-9533159D02*
X17809090Y-9495063D01*
X17809090Y-9495063D02*
X17809090Y-9447444D01*
X17809090Y-9447444D02*
X17818613Y-9409349D01*
X17818613Y-9409349D02*
X17828137Y-9390301D01*
X17828137Y-9390301D02*
X17837661Y-9380778D01*
X17837661Y-9380778D02*
X17856709Y-9371254D01*
X18113851Y-9571254D02*
X17999566Y-9571254D01*
X18056709Y-9571254D02*
X18056709Y-9371254D01*
X18056709Y-9371254D02*
X18037661Y-9399825D01*
X18037661Y-9399825D02*
X18018613Y-9418873D01*
X18018613Y-9418873D02*
X17999566Y-9428397D01*
X18285280Y-9371254D02*
X18247185Y-9371254D01*
X18247185Y-9371254D02*
X18228137Y-9380778D01*
X18228137Y-9380778D02*
X18218613Y-9390301D01*
X18218613Y-9390301D02*
X18199566Y-9418873D01*
X18199566Y-9418873D02*
X18190042Y-9456968D01*
X18190042Y-9456968D02*
X18190042Y-9533159D01*
X18190042Y-9533159D02*
X18199566Y-9552206D01*
X18199566Y-9552206D02*
X18209090Y-9561730D01*
X18209090Y-9561730D02*
X18228137Y-9571254D01*
X18228137Y-9571254D02*
X18266232Y-9571254D01*
X18266232Y-9571254D02*
X18285280Y-9561730D01*
X18285280Y-9561730D02*
X18294804Y-9552206D01*
X18294804Y-9552206D02*
X18304328Y-9533159D01*
X18304328Y-9533159D02*
X18304328Y-9485540D01*
X18304328Y-9485540D02*
X18294804Y-9466492D01*
X18294804Y-9466492D02*
X18285280Y-9456968D01*
X18285280Y-9456968D02*
X18266232Y-9447444D01*
X18266232Y-9447444D02*
X18228137Y-9447444D01*
X18228137Y-9447444D02*
X18209090Y-9456968D01*
X18209090Y-9456968D02*
X18199566Y-9466492D01*
X18199566Y-9466492D02*
X18190042Y-9485540D01*
X18390042Y-9571254D02*
X18390042Y-9437920D01*
X18390042Y-9456968D02*
X18399566Y-9447444D01*
X18399566Y-9447444D02*
X18418613Y-9437920D01*
X18418613Y-9437920D02*
X18447185Y-9437920D01*
X18447185Y-9437920D02*
X18466232Y-9447444D01*
X18466232Y-9447444D02*
X18475756Y-9466492D01*
X18475756Y-9466492D02*
X18475756Y-9571254D01*
X18475756Y-9466492D02*
X18485280Y-9447444D01*
X18485280Y-9447444D02*
X18504328Y-9437920D01*
X18504328Y-9437920D02*
X18532899Y-9437920D01*
X18532899Y-9437920D02*
X18551947Y-9447444D01*
X18551947Y-9447444D02*
X18561471Y-9466492D01*
X18561471Y-9466492D02*
X18561471Y-9571254D01*
X18656709Y-9571254D02*
X18656709Y-9437920D01*
X18656709Y-9456968D02*
X18666232Y-9447444D01*
X18666232Y-9447444D02*
X18685280Y-9437920D01*
X18685280Y-9437920D02*
X18713852Y-9437920D01*
X18713852Y-9437920D02*
X18732899Y-9447444D01*
X18732899Y-9447444D02*
X18742423Y-9466492D01*
X18742423Y-9466492D02*
X18742423Y-9571254D01*
X18742423Y-9466492D02*
X18751947Y-9447444D01*
X18751947Y-9447444D02*
X18770994Y-9437920D01*
X18770994Y-9437920D02*
X18799566Y-9437920D01*
X18799566Y-9437920D02*
X18818613Y-9447444D01*
X18818613Y-9447444D02*
X18828137Y-9466492D01*
X18828137Y-9466492D02*
X18828137Y-9571254D01*
X19218613Y-9361730D02*
X19047185Y-9618873D01*
X19475756Y-9371254D02*
X19494804Y-9371254D01*
X19494804Y-9371254D02*
X19513852Y-9380778D01*
X19513852Y-9380778D02*
X19523375Y-9390301D01*
X19523375Y-9390301D02*
X19532899Y-9409349D01*
X19532899Y-9409349D02*
X19542423Y-9447444D01*
X19542423Y-9447444D02*
X19542423Y-9495063D01*
X19542423Y-9495063D02*
X19532899Y-9533159D01*
X19532899Y-9533159D02*
X19523375Y-9552206D01*
X19523375Y-9552206D02*
X19513852Y-9561730D01*
X19513852Y-9561730D02*
X19494804Y-9571254D01*
X19494804Y-9571254D02*
X19475756Y-9571254D01*
X19475756Y-9571254D02*
X19456709Y-9561730D01*
X19456709Y-9561730D02*
X19447185Y-9552206D01*
X19447185Y-9552206D02*
X19437661Y-9533159D01*
X19437661Y-9533159D02*
X19428137Y-9495063D01*
X19428137Y-9495063D02*
X19428137Y-9447444D01*
X19428137Y-9447444D02*
X19437661Y-9409349D01*
X19437661Y-9409349D02*
X19447185Y-9390301D01*
X19447185Y-9390301D02*
X19456709Y-9380778D01*
X19456709Y-9380778D02*
X19475756Y-9371254D01*
X19628137Y-9552206D02*
X19637661Y-9561730D01*
X19637661Y-9561730D02*
X19628137Y-9571254D01*
X19628137Y-9571254D02*
X19618614Y-9561730D01*
X19618614Y-9561730D02*
X19628137Y-9552206D01*
X19628137Y-9552206D02*
X19628137Y-9571254D01*
X19761471Y-9371254D02*
X19780518Y-9371254D01*
X19780518Y-9371254D02*
X19799566Y-9380778D01*
X19799566Y-9380778D02*
X19809090Y-9390301D01*
X19809090Y-9390301D02*
X19818614Y-9409349D01*
X19818614Y-9409349D02*
X19828137Y-9447444D01*
X19828137Y-9447444D02*
X19828137Y-9495063D01*
X19828137Y-9495063D02*
X19818614Y-9533159D01*
X19818614Y-9533159D02*
X19809090Y-9552206D01*
X19809090Y-9552206D02*
X19799566Y-9561730D01*
X19799566Y-9561730D02*
X19780518Y-9571254D01*
X19780518Y-9571254D02*
X19761471Y-9571254D01*
X19761471Y-9571254D02*
X19742423Y-9561730D01*
X19742423Y-9561730D02*
X19732899Y-9552206D01*
X19732899Y-9552206D02*
X19723375Y-9533159D01*
X19723375Y-9533159D02*
X19713852Y-9495063D01*
X19713852Y-9495063D02*
X19713852Y-9447444D01*
X19713852Y-9447444D02*
X19723375Y-9409349D01*
X19723375Y-9409349D02*
X19732899Y-9390301D01*
X19732899Y-9390301D02*
X19742423Y-9380778D01*
X19742423Y-9380778D02*
X19761471Y-9371254D01*
X19999566Y-9437920D02*
X19999566Y-9571254D01*
X19951947Y-9361730D02*
X19904328Y-9504587D01*
X19904328Y-9504587D02*
X20028137Y-9504587D01*
X20142423Y-9371254D02*
X20161471Y-9371254D01*
X20161471Y-9371254D02*
X20180518Y-9380778D01*
X20180518Y-9380778D02*
X20190042Y-9390301D01*
X20190042Y-9390301D02*
X20199566Y-9409349D01*
X20199566Y-9409349D02*
X20209090Y-9447444D01*
X20209090Y-9447444D02*
X20209090Y-9495063D01*
X20209090Y-9495063D02*
X20199566Y-9533159D01*
X20199566Y-9533159D02*
X20190042Y-9552206D01*
X20190042Y-9552206D02*
X20180518Y-9561730D01*
X20180518Y-9561730D02*
X20161471Y-9571254D01*
X20161471Y-9571254D02*
X20142423Y-9571254D01*
X20142423Y-9571254D02*
X20123375Y-9561730D01*
X20123375Y-9561730D02*
X20113852Y-9552206D01*
X20113852Y-9552206D02*
X20104328Y-9533159D01*
X20104328Y-9533159D02*
X20094804Y-9495063D01*
X20094804Y-9495063D02*
X20094804Y-9447444D01*
X20094804Y-9447444D02*
X20104328Y-9409349D01*
X20104328Y-9409349D02*
X20113852Y-9390301D01*
X20113852Y-9390301D02*
X20123375Y-9380778D01*
X20123375Y-9380778D02*
X20142423Y-9371254D01*
X20332899Y-9371254D02*
X20351947Y-9371254D01*
X20351947Y-9371254D02*
X20370995Y-9380778D01*
X20370995Y-9380778D02*
X20380518Y-9390301D01*
X20380518Y-9390301D02*
X20390042Y-9409349D01*
X20390042Y-9409349D02*
X20399566Y-9447444D01*
X20399566Y-9447444D02*
X20399566Y-9495063D01*
X20399566Y-9495063D02*
X20390042Y-9533159D01*
X20390042Y-9533159D02*
X20380518Y-9552206D01*
X20380518Y-9552206D02*
X20370995Y-9561730D01*
X20370995Y-9561730D02*
X20351947Y-9571254D01*
X20351947Y-9571254D02*
X20332899Y-9571254D01*
X20332899Y-9571254D02*
X20313852Y-9561730D01*
X20313852Y-9561730D02*
X20304328Y-9552206D01*
X20304328Y-9552206D02*
X20294804Y-9533159D01*
X20294804Y-9533159D02*
X20285280Y-9495063D01*
X20285280Y-9495063D02*
X20285280Y-9447444D01*
X20285280Y-9447444D02*
X20294804Y-9409349D01*
X20294804Y-9409349D02*
X20304328Y-9390301D01*
X20304328Y-9390301D02*
X20313852Y-9380778D01*
X20313852Y-9380778D02*
X20332899Y-9371254D01*
X20475756Y-9371254D02*
X20475756Y-9409349D01*
X20551947Y-9371254D02*
X20551947Y-9409349D01*
X20847185Y-9647444D02*
X20837661Y-9637920D01*
X20837661Y-9637920D02*
X20818614Y-9609349D01*
X20818614Y-9609349D02*
X20809090Y-9590301D01*
X20809090Y-9590301D02*
X20799566Y-9561730D01*
X20799566Y-9561730D02*
X20790042Y-9514111D01*
X20790042Y-9514111D02*
X20790042Y-9476016D01*
X20790042Y-9476016D02*
X20799566Y-9428397D01*
X20799566Y-9428397D02*
X20809090Y-9399825D01*
X20809090Y-9399825D02*
X20818614Y-9380778D01*
X20818614Y-9380778D02*
X20837661Y-9352206D01*
X20837661Y-9352206D02*
X20847185Y-9342682D01*
X20904328Y-9371254D02*
X21028137Y-9371254D01*
X21028137Y-9371254D02*
X20961471Y-9447444D01*
X20961471Y-9447444D02*
X20990042Y-9447444D01*
X20990042Y-9447444D02*
X21009090Y-9456968D01*
X21009090Y-9456968D02*
X21018614Y-9466492D01*
X21018614Y-9466492D02*
X21028137Y-9485540D01*
X21028137Y-9485540D02*
X21028137Y-9533159D01*
X21028137Y-9533159D02*
X21018614Y-9552206D01*
X21018614Y-9552206D02*
X21009090Y-9561730D01*
X21009090Y-9561730D02*
X20990042Y-9571254D01*
X20990042Y-9571254D02*
X20932899Y-9571254D01*
X20932899Y-9571254D02*
X20913852Y-9561730D01*
X20913852Y-9561730D02*
X20904328Y-9552206D01*
X21142423Y-9456968D02*
X21123376Y-9447444D01*
X21123376Y-9447444D02*
X21113852Y-9437920D01*
X21113852Y-9437920D02*
X21104328Y-9418873D01*
X21104328Y-9418873D02*
X21104328Y-9409349D01*
X21104328Y-9409349D02*
X21113852Y-9390301D01*
X21113852Y-9390301D02*
X21123376Y-9380778D01*
X21123376Y-9380778D02*
X21142423Y-9371254D01*
X21142423Y-9371254D02*
X21180518Y-9371254D01*
X21180518Y-9371254D02*
X21199566Y-9380778D01*
X21199566Y-9380778D02*
X21209090Y-9390301D01*
X21209090Y-9390301D02*
X21218614Y-9409349D01*
X21218614Y-9409349D02*
X21218614Y-9418873D01*
X21218614Y-9418873D02*
X21209090Y-9437920D01*
X21209090Y-9437920D02*
X21199566Y-9447444D01*
X21199566Y-9447444D02*
X21180518Y-9456968D01*
X21180518Y-9456968D02*
X21142423Y-9456968D01*
X21142423Y-9456968D02*
X21123376Y-9466492D01*
X21123376Y-9466492D02*
X21113852Y-9476016D01*
X21113852Y-9476016D02*
X21104328Y-9495063D01*
X21104328Y-9495063D02*
X21104328Y-9533159D01*
X21104328Y-9533159D02*
X21113852Y-9552206D01*
X21113852Y-9552206D02*
X21123376Y-9561730D01*
X21123376Y-9561730D02*
X21142423Y-9571254D01*
X21142423Y-9571254D02*
X21180518Y-9571254D01*
X21180518Y-9571254D02*
X21199566Y-9561730D01*
X21199566Y-9561730D02*
X21209090Y-9552206D01*
X21209090Y-9552206D02*
X21218614Y-9533159D01*
X21218614Y-9533159D02*
X21218614Y-9495063D01*
X21218614Y-9495063D02*
X21209090Y-9476016D01*
X21209090Y-9476016D02*
X21199566Y-9466492D01*
X21199566Y-9466492D02*
X21180518Y-9456968D01*
X21456709Y-9571254D02*
X21456709Y-9371254D01*
X21542423Y-9571254D02*
X21542423Y-9466492D01*
X21542423Y-9466492D02*
X21532899Y-9447444D01*
X21532899Y-9447444D02*
X21513852Y-9437920D01*
X21513852Y-9437920D02*
X21485280Y-9437920D01*
X21485280Y-9437920D02*
X21466233Y-9447444D01*
X21466233Y-9447444D02*
X21456709Y-9456968D01*
X21666233Y-9571254D02*
X21647185Y-9561730D01*
X21647185Y-9561730D02*
X21637661Y-9552206D01*
X21637661Y-9552206D02*
X21628138Y-9533159D01*
X21628138Y-9533159D02*
X21628138Y-9476016D01*
X21628138Y-9476016D02*
X21637661Y-9456968D01*
X21637661Y-9456968D02*
X21647185Y-9447444D01*
X21647185Y-9447444D02*
X21666233Y-9437920D01*
X21666233Y-9437920D02*
X21694804Y-9437920D01*
X21694804Y-9437920D02*
X21713852Y-9447444D01*
X21713852Y-9447444D02*
X21723376Y-9456968D01*
X21723376Y-9456968D02*
X21732899Y-9476016D01*
X21732899Y-9476016D02*
X21732899Y-9533159D01*
X21732899Y-9533159D02*
X21723376Y-9552206D01*
X21723376Y-9552206D02*
X21713852Y-9561730D01*
X21713852Y-9561730D02*
X21694804Y-9571254D01*
X21694804Y-9571254D02*
X21666233Y-9571254D01*
X21847185Y-9571254D02*
X21828138Y-9561730D01*
X21828138Y-9561730D02*
X21818614Y-9542682D01*
X21818614Y-9542682D02*
X21818614Y-9371254D01*
X21999566Y-9561730D02*
X21980519Y-9571254D01*
X21980519Y-9571254D02*
X21942423Y-9571254D01*
X21942423Y-9571254D02*
X21923376Y-9561730D01*
X21923376Y-9561730D02*
X21913852Y-9542682D01*
X21913852Y-9542682D02*
X21913852Y-9466492D01*
X21913852Y-9466492D02*
X21923376Y-9447444D01*
X21923376Y-9447444D02*
X21942423Y-9437920D01*
X21942423Y-9437920D02*
X21980519Y-9437920D01*
X21980519Y-9437920D02*
X21999566Y-9447444D01*
X21999566Y-9447444D02*
X22009090Y-9466492D01*
X22009090Y-9466492D02*
X22009090Y-9485540D01*
X22009090Y-9485540D02*
X21913852Y-9504587D01*
X22085280Y-9561730D02*
X22104328Y-9571254D01*
X22104328Y-9571254D02*
X22142423Y-9571254D01*
X22142423Y-9571254D02*
X22161471Y-9561730D01*
X22161471Y-9561730D02*
X22170995Y-9542682D01*
X22170995Y-9542682D02*
X22170995Y-9533159D01*
X22170995Y-9533159D02*
X22161471Y-9514111D01*
X22161471Y-9514111D02*
X22142423Y-9504587D01*
X22142423Y-9504587D02*
X22113852Y-9504587D01*
X22113852Y-9504587D02*
X22094804Y-9495063D01*
X22094804Y-9495063D02*
X22085280Y-9476016D01*
X22085280Y-9476016D02*
X22085280Y-9466492D01*
X22085280Y-9466492D02*
X22094804Y-9447444D01*
X22094804Y-9447444D02*
X22113852Y-9437920D01*
X22113852Y-9437920D02*
X22142423Y-9437920D01*
X22142423Y-9437920D02*
X22161471Y-9447444D01*
X22237661Y-9647444D02*
X22247185Y-9637920D01*
X22247185Y-9637920D02*
X22266233Y-9609349D01*
X22266233Y-9609349D02*
X22275757Y-9590301D01*
X22275757Y-9590301D02*
X22285280Y-9561730D01*
X22285280Y-9561730D02*
X22294804Y-9514111D01*
X22294804Y-9514111D02*
X22294804Y-9476016D01*
X22294804Y-9476016D02*
X22285280Y-9428397D01*
X22285280Y-9428397D02*
X22275757Y-9399825D01*
X22275757Y-9399825D02*
X22266233Y-9380778D01*
X22266233Y-9380778D02*
X22247185Y-9352206D01*
X22247185Y-9352206D02*
X22237661Y-9342682D01*
X17185280Y-9642730D02*
X17185280Y-9842730D01*
X17085280Y-9742730D02*
X17285280Y-9742730D01*
X17513851Y-9635254D02*
X17637661Y-9635254D01*
X17637661Y-9635254D02*
X17570994Y-9711444D01*
X17570994Y-9711444D02*
X17599566Y-9711444D01*
X17599566Y-9711444D02*
X17618613Y-9720968D01*
X17618613Y-9720968D02*
X17628137Y-9730492D01*
X17628137Y-9730492D02*
X17637661Y-9749540D01*
X17637661Y-9749540D02*
X17637661Y-9797159D01*
X17637661Y-9797159D02*
X17628137Y-9816206D01*
X17628137Y-9816206D02*
X17618613Y-9825730D01*
X17618613Y-9825730D02*
X17599566Y-9835254D01*
X17599566Y-9835254D02*
X17542423Y-9835254D01*
X17542423Y-9835254D02*
X17523375Y-9825730D01*
X17523375Y-9825730D02*
X17513851Y-9816206D01*
X17723375Y-9816206D02*
X17732899Y-9825730D01*
X17732899Y-9825730D02*
X17723375Y-9835254D01*
X17723375Y-9835254D02*
X17713851Y-9825730D01*
X17713851Y-9825730D02*
X17723375Y-9816206D01*
X17723375Y-9816206D02*
X17723375Y-9835254D01*
X17809090Y-9654301D02*
X17818613Y-9644778D01*
X17818613Y-9644778D02*
X17837661Y-9635254D01*
X17837661Y-9635254D02*
X17885280Y-9635254D01*
X17885280Y-9635254D02*
X17904328Y-9644778D01*
X17904328Y-9644778D02*
X17913851Y-9654301D01*
X17913851Y-9654301D02*
X17923375Y-9673349D01*
X17923375Y-9673349D02*
X17923375Y-9692397D01*
X17923375Y-9692397D02*
X17913851Y-9720968D01*
X17913851Y-9720968D02*
X17799566Y-9835254D01*
X17799566Y-9835254D02*
X17923375Y-9835254D01*
X18047185Y-9635254D02*
X18066232Y-9635254D01*
X18066232Y-9635254D02*
X18085280Y-9644778D01*
X18085280Y-9644778D02*
X18094804Y-9654301D01*
X18094804Y-9654301D02*
X18104328Y-9673349D01*
X18104328Y-9673349D02*
X18113851Y-9711444D01*
X18113851Y-9711444D02*
X18113851Y-9759063D01*
X18113851Y-9759063D02*
X18104328Y-9797159D01*
X18104328Y-9797159D02*
X18094804Y-9816206D01*
X18094804Y-9816206D02*
X18085280Y-9825730D01*
X18085280Y-9825730D02*
X18066232Y-9835254D01*
X18066232Y-9835254D02*
X18047185Y-9835254D01*
X18047185Y-9835254D02*
X18028137Y-9825730D01*
X18028137Y-9825730D02*
X18018613Y-9816206D01*
X18018613Y-9816206D02*
X18009090Y-9797159D01*
X18009090Y-9797159D02*
X17999566Y-9759063D01*
X17999566Y-9759063D02*
X17999566Y-9711444D01*
X17999566Y-9711444D02*
X18009090Y-9673349D01*
X18009090Y-9673349D02*
X18018613Y-9654301D01*
X18018613Y-9654301D02*
X18028137Y-9644778D01*
X18028137Y-9644778D02*
X18047185Y-9635254D01*
X18237661Y-9635254D02*
X18256709Y-9635254D01*
X18256709Y-9635254D02*
X18275756Y-9644778D01*
X18275756Y-9644778D02*
X18285280Y-9654301D01*
X18285280Y-9654301D02*
X18294804Y-9673349D01*
X18294804Y-9673349D02*
X18304328Y-9711444D01*
X18304328Y-9711444D02*
X18304328Y-9759063D01*
X18304328Y-9759063D02*
X18294804Y-9797159D01*
X18294804Y-9797159D02*
X18285280Y-9816206D01*
X18285280Y-9816206D02*
X18275756Y-9825730D01*
X18275756Y-9825730D02*
X18256709Y-9835254D01*
X18256709Y-9835254D02*
X18237661Y-9835254D01*
X18237661Y-9835254D02*
X18218613Y-9825730D01*
X18218613Y-9825730D02*
X18209090Y-9816206D01*
X18209090Y-9816206D02*
X18199566Y-9797159D01*
X18199566Y-9797159D02*
X18190042Y-9759063D01*
X18190042Y-9759063D02*
X18190042Y-9711444D01*
X18190042Y-9711444D02*
X18199566Y-9673349D01*
X18199566Y-9673349D02*
X18209090Y-9654301D01*
X18209090Y-9654301D02*
X18218613Y-9644778D01*
X18218613Y-9644778D02*
X18237661Y-9635254D01*
X18390042Y-9835254D02*
X18390042Y-9701920D01*
X18390042Y-9720968D02*
X18399566Y-9711444D01*
X18399566Y-9711444D02*
X18418613Y-9701920D01*
X18418613Y-9701920D02*
X18447185Y-9701920D01*
X18447185Y-9701920D02*
X18466232Y-9711444D01*
X18466232Y-9711444D02*
X18475756Y-9730492D01*
X18475756Y-9730492D02*
X18475756Y-9835254D01*
X18475756Y-9730492D02*
X18485280Y-9711444D01*
X18485280Y-9711444D02*
X18504328Y-9701920D01*
X18504328Y-9701920D02*
X18532899Y-9701920D01*
X18532899Y-9701920D02*
X18551947Y-9711444D01*
X18551947Y-9711444D02*
X18561471Y-9730492D01*
X18561471Y-9730492D02*
X18561471Y-9835254D01*
X18656709Y-9835254D02*
X18656709Y-9701920D01*
X18656709Y-9720968D02*
X18666232Y-9711444D01*
X18666232Y-9711444D02*
X18685280Y-9701920D01*
X18685280Y-9701920D02*
X18713852Y-9701920D01*
X18713852Y-9701920D02*
X18732899Y-9711444D01*
X18732899Y-9711444D02*
X18742423Y-9730492D01*
X18742423Y-9730492D02*
X18742423Y-9835254D01*
X18742423Y-9730492D02*
X18751947Y-9711444D01*
X18751947Y-9711444D02*
X18770994Y-9701920D01*
X18770994Y-9701920D02*
X18799566Y-9701920D01*
X18799566Y-9701920D02*
X18818613Y-9711444D01*
X18818613Y-9711444D02*
X18828137Y-9730492D01*
X18828137Y-9730492D02*
X18828137Y-9835254D01*
X19218613Y-9625730D02*
X19047185Y-9882873D01*
X19475756Y-9635254D02*
X19494804Y-9635254D01*
X19494804Y-9635254D02*
X19513852Y-9644778D01*
X19513852Y-9644778D02*
X19523375Y-9654301D01*
X19523375Y-9654301D02*
X19532899Y-9673349D01*
X19532899Y-9673349D02*
X19542423Y-9711444D01*
X19542423Y-9711444D02*
X19542423Y-9759063D01*
X19542423Y-9759063D02*
X19532899Y-9797159D01*
X19532899Y-9797159D02*
X19523375Y-9816206D01*
X19523375Y-9816206D02*
X19513852Y-9825730D01*
X19513852Y-9825730D02*
X19494804Y-9835254D01*
X19494804Y-9835254D02*
X19475756Y-9835254D01*
X19475756Y-9835254D02*
X19456709Y-9825730D01*
X19456709Y-9825730D02*
X19447185Y-9816206D01*
X19447185Y-9816206D02*
X19437661Y-9797159D01*
X19437661Y-9797159D02*
X19428137Y-9759063D01*
X19428137Y-9759063D02*
X19428137Y-9711444D01*
X19428137Y-9711444D02*
X19437661Y-9673349D01*
X19437661Y-9673349D02*
X19447185Y-9654301D01*
X19447185Y-9654301D02*
X19456709Y-9644778D01*
X19456709Y-9644778D02*
X19475756Y-9635254D01*
X19628137Y-9816206D02*
X19637661Y-9825730D01*
X19637661Y-9825730D02*
X19628137Y-9835254D01*
X19628137Y-9835254D02*
X19618614Y-9825730D01*
X19618614Y-9825730D02*
X19628137Y-9816206D01*
X19628137Y-9816206D02*
X19628137Y-9835254D01*
X19828137Y-9835254D02*
X19713852Y-9835254D01*
X19770994Y-9835254D02*
X19770994Y-9635254D01*
X19770994Y-9635254D02*
X19751947Y-9663825D01*
X19751947Y-9663825D02*
X19732899Y-9682873D01*
X19732899Y-9682873D02*
X19713852Y-9692397D01*
X19904328Y-9654301D02*
X19913852Y-9644778D01*
X19913852Y-9644778D02*
X19932899Y-9635254D01*
X19932899Y-9635254D02*
X19980518Y-9635254D01*
X19980518Y-9635254D02*
X19999566Y-9644778D01*
X19999566Y-9644778D02*
X20009090Y-9654301D01*
X20009090Y-9654301D02*
X20018614Y-9673349D01*
X20018614Y-9673349D02*
X20018614Y-9692397D01*
X20018614Y-9692397D02*
X20009090Y-9720968D01*
X20009090Y-9720968D02*
X19894804Y-9835254D01*
X19894804Y-9835254D02*
X20018614Y-9835254D01*
X20190042Y-9635254D02*
X20151947Y-9635254D01*
X20151947Y-9635254D02*
X20132899Y-9644778D01*
X20132899Y-9644778D02*
X20123375Y-9654301D01*
X20123375Y-9654301D02*
X20104328Y-9682873D01*
X20104328Y-9682873D02*
X20094804Y-9720968D01*
X20094804Y-9720968D02*
X20094804Y-9797159D01*
X20094804Y-9797159D02*
X20104328Y-9816206D01*
X20104328Y-9816206D02*
X20113852Y-9825730D01*
X20113852Y-9825730D02*
X20132899Y-9835254D01*
X20132899Y-9835254D02*
X20170995Y-9835254D01*
X20170995Y-9835254D02*
X20190042Y-9825730D01*
X20190042Y-9825730D02*
X20199566Y-9816206D01*
X20199566Y-9816206D02*
X20209090Y-9797159D01*
X20209090Y-9797159D02*
X20209090Y-9749540D01*
X20209090Y-9749540D02*
X20199566Y-9730492D01*
X20199566Y-9730492D02*
X20190042Y-9720968D01*
X20190042Y-9720968D02*
X20170995Y-9711444D01*
X20170995Y-9711444D02*
X20132899Y-9711444D01*
X20132899Y-9711444D02*
X20113852Y-9720968D01*
X20113852Y-9720968D02*
X20104328Y-9730492D01*
X20104328Y-9730492D02*
X20094804Y-9749540D01*
X20332899Y-9635254D02*
X20351947Y-9635254D01*
X20351947Y-9635254D02*
X20370995Y-9644778D01*
X20370995Y-9644778D02*
X20380518Y-9654301D01*
X20380518Y-9654301D02*
X20390042Y-9673349D01*
X20390042Y-9673349D02*
X20399566Y-9711444D01*
X20399566Y-9711444D02*
X20399566Y-9759063D01*
X20399566Y-9759063D02*
X20390042Y-9797159D01*
X20390042Y-9797159D02*
X20380518Y-9816206D01*
X20380518Y-9816206D02*
X20370995Y-9825730D01*
X20370995Y-9825730D02*
X20351947Y-9835254D01*
X20351947Y-9835254D02*
X20332899Y-9835254D01*
X20332899Y-9835254D02*
X20313852Y-9825730D01*
X20313852Y-9825730D02*
X20304328Y-9816206D01*
X20304328Y-9816206D02*
X20294804Y-9797159D01*
X20294804Y-9797159D02*
X20285280Y-9759063D01*
X20285280Y-9759063D02*
X20285280Y-9711444D01*
X20285280Y-9711444D02*
X20294804Y-9673349D01*
X20294804Y-9673349D02*
X20304328Y-9654301D01*
X20304328Y-9654301D02*
X20313852Y-9644778D01*
X20313852Y-9644778D02*
X20332899Y-9635254D01*
X20475756Y-9635254D02*
X20475756Y-9673349D01*
X20551947Y-9635254D02*
X20551947Y-9673349D01*
X20847185Y-9911444D02*
X20837661Y-9901920D01*
X20837661Y-9901920D02*
X20818614Y-9873349D01*
X20818614Y-9873349D02*
X20809090Y-9854301D01*
X20809090Y-9854301D02*
X20799566Y-9825730D01*
X20799566Y-9825730D02*
X20790042Y-9778111D01*
X20790042Y-9778111D02*
X20790042Y-9740016D01*
X20790042Y-9740016D02*
X20799566Y-9692397D01*
X20799566Y-9692397D02*
X20809090Y-9663825D01*
X20809090Y-9663825D02*
X20818614Y-9644778D01*
X20818614Y-9644778D02*
X20837661Y-9616206D01*
X20837661Y-9616206D02*
X20847185Y-9606682D01*
X21009090Y-9701920D02*
X21009090Y-9835254D01*
X20961471Y-9625730D02*
X20913852Y-9768587D01*
X20913852Y-9768587D02*
X21037661Y-9768587D01*
X21266233Y-9835254D02*
X21266233Y-9635254D01*
X21351947Y-9835254D02*
X21351947Y-9730492D01*
X21351947Y-9730492D02*
X21342423Y-9711444D01*
X21342423Y-9711444D02*
X21323376Y-9701920D01*
X21323376Y-9701920D02*
X21294804Y-9701920D01*
X21294804Y-9701920D02*
X21275757Y-9711444D01*
X21275757Y-9711444D02*
X21266233Y-9720968D01*
X21475757Y-9835254D02*
X21456709Y-9825730D01*
X21456709Y-9825730D02*
X21447185Y-9816206D01*
X21447185Y-9816206D02*
X21437661Y-9797159D01*
X21437661Y-9797159D02*
X21437661Y-9740016D01*
X21437661Y-9740016D02*
X21447185Y-9720968D01*
X21447185Y-9720968D02*
X21456709Y-9711444D01*
X21456709Y-9711444D02*
X21475757Y-9701920D01*
X21475757Y-9701920D02*
X21504328Y-9701920D01*
X21504328Y-9701920D02*
X21523376Y-9711444D01*
X21523376Y-9711444D02*
X21532899Y-9720968D01*
X21532899Y-9720968D02*
X21542423Y-9740016D01*
X21542423Y-9740016D02*
X21542423Y-9797159D01*
X21542423Y-9797159D02*
X21532899Y-9816206D01*
X21532899Y-9816206D02*
X21523376Y-9825730D01*
X21523376Y-9825730D02*
X21504328Y-9835254D01*
X21504328Y-9835254D02*
X21475757Y-9835254D01*
X21656709Y-9835254D02*
X21637661Y-9825730D01*
X21637661Y-9825730D02*
X21628138Y-9806682D01*
X21628138Y-9806682D02*
X21628138Y-9635254D01*
X21809090Y-9825730D02*
X21790042Y-9835254D01*
X21790042Y-9835254D02*
X21751947Y-9835254D01*
X21751947Y-9835254D02*
X21732899Y-9825730D01*
X21732899Y-9825730D02*
X21723376Y-9806682D01*
X21723376Y-9806682D02*
X21723376Y-9730492D01*
X21723376Y-9730492D02*
X21732899Y-9711444D01*
X21732899Y-9711444D02*
X21751947Y-9701920D01*
X21751947Y-9701920D02*
X21790042Y-9701920D01*
X21790042Y-9701920D02*
X21809090Y-9711444D01*
X21809090Y-9711444D02*
X21818614Y-9730492D01*
X21818614Y-9730492D02*
X21818614Y-9749540D01*
X21818614Y-9749540D02*
X21723376Y-9768587D01*
X21894804Y-9825730D02*
X21913852Y-9835254D01*
X21913852Y-9835254D02*
X21951947Y-9835254D01*
X21951947Y-9835254D02*
X21970995Y-9825730D01*
X21970995Y-9825730D02*
X21980519Y-9806682D01*
X21980519Y-9806682D02*
X21980519Y-9797159D01*
X21980519Y-9797159D02*
X21970995Y-9778111D01*
X21970995Y-9778111D02*
X21951947Y-9768587D01*
X21951947Y-9768587D02*
X21923376Y-9768587D01*
X21923376Y-9768587D02*
X21904328Y-9759063D01*
X21904328Y-9759063D02*
X21894804Y-9740016D01*
X21894804Y-9740016D02*
X21894804Y-9730492D01*
X21894804Y-9730492D02*
X21904328Y-9711444D01*
X21904328Y-9711444D02*
X21923376Y-9701920D01*
X21923376Y-9701920D02*
X21951947Y-9701920D01*
X21951947Y-9701920D02*
X21970995Y-9711444D01*
X22047185Y-9911444D02*
X22056709Y-9901920D01*
X22056709Y-9901920D02*
X22075757Y-9873349D01*
X22075757Y-9873349D02*
X22085280Y-9854301D01*
X22085280Y-9854301D02*
X22094804Y-9825730D01*
X22094804Y-9825730D02*
X22104328Y-9778111D01*
X22104328Y-9778111D02*
X22104328Y-9740016D01*
X22104328Y-9740016D02*
X22094804Y-9692397D01*
X22094804Y-9692397D02*
X22085280Y-9663825D01*
X22085280Y-9663825D02*
X22075757Y-9644778D01*
X22075757Y-9644778D02*
X22056709Y-9616206D01*
X22056709Y-9616206D02*
X22047185Y-9606682D01*
X22409090Y-9911444D02*
X22399566Y-9901920D01*
X22399566Y-9901920D02*
X22380518Y-9873349D01*
X22380518Y-9873349D02*
X22370995Y-9854301D01*
X22370995Y-9854301D02*
X22361471Y-9825730D01*
X22361471Y-9825730D02*
X22351947Y-9778111D01*
X22351947Y-9778111D02*
X22351947Y-9740016D01*
X22351947Y-9740016D02*
X22361471Y-9692397D01*
X22361471Y-9692397D02*
X22370995Y-9663825D01*
X22370995Y-9663825D02*
X22380518Y-9644778D01*
X22380518Y-9644778D02*
X22399566Y-9616206D01*
X22399566Y-9616206D02*
X22409090Y-9606682D01*
X22485280Y-9701920D02*
X22485280Y-9835254D01*
X22485280Y-9720968D02*
X22494804Y-9711444D01*
X22494804Y-9711444D02*
X22513852Y-9701920D01*
X22513852Y-9701920D02*
X22542423Y-9701920D01*
X22542423Y-9701920D02*
X22561471Y-9711444D01*
X22561471Y-9711444D02*
X22570995Y-9730492D01*
X22570995Y-9730492D02*
X22570995Y-9835254D01*
X22694804Y-9835254D02*
X22675757Y-9825730D01*
X22675757Y-9825730D02*
X22666233Y-9816206D01*
X22666233Y-9816206D02*
X22656709Y-9797159D01*
X22656709Y-9797159D02*
X22656709Y-9740016D01*
X22656709Y-9740016D02*
X22666233Y-9720968D01*
X22666233Y-9720968D02*
X22675757Y-9711444D01*
X22675757Y-9711444D02*
X22694804Y-9701920D01*
X22694804Y-9701920D02*
X22723376Y-9701920D01*
X22723376Y-9701920D02*
X22742423Y-9711444D01*
X22742423Y-9711444D02*
X22751947Y-9720968D01*
X22751947Y-9720968D02*
X22761471Y-9740016D01*
X22761471Y-9740016D02*
X22761471Y-9797159D01*
X22761471Y-9797159D02*
X22751947Y-9816206D01*
X22751947Y-9816206D02*
X22742423Y-9825730D01*
X22742423Y-9825730D02*
X22723376Y-9835254D01*
X22723376Y-9835254D02*
X22694804Y-9835254D01*
X22818614Y-9701920D02*
X22894804Y-9701920D01*
X22847185Y-9635254D02*
X22847185Y-9806682D01*
X22847185Y-9806682D02*
X22856709Y-9825730D01*
X22856709Y-9825730D02*
X22875757Y-9835254D01*
X22875757Y-9835254D02*
X22894804Y-9835254D01*
X23113852Y-9701920D02*
X23113852Y-9901920D01*
X23113852Y-9711444D02*
X23132899Y-9701920D01*
X23132899Y-9701920D02*
X23170995Y-9701920D01*
X23170995Y-9701920D02*
X23190042Y-9711444D01*
X23190042Y-9711444D02*
X23199566Y-9720968D01*
X23199566Y-9720968D02*
X23209090Y-9740016D01*
X23209090Y-9740016D02*
X23209090Y-9797159D01*
X23209090Y-9797159D02*
X23199566Y-9816206D01*
X23199566Y-9816206D02*
X23190042Y-9825730D01*
X23190042Y-9825730D02*
X23170995Y-9835254D01*
X23170995Y-9835254D02*
X23132899Y-9835254D01*
X23132899Y-9835254D02*
X23113852Y-9825730D01*
X23323376Y-9835254D02*
X23304328Y-9825730D01*
X23304328Y-9825730D02*
X23294804Y-9806682D01*
X23294804Y-9806682D02*
X23294804Y-9635254D01*
X23485280Y-9835254D02*
X23485280Y-9730492D01*
X23485280Y-9730492D02*
X23475757Y-9711444D01*
X23475757Y-9711444D02*
X23456709Y-9701920D01*
X23456709Y-9701920D02*
X23418614Y-9701920D01*
X23418614Y-9701920D02*
X23399566Y-9711444D01*
X23485280Y-9825730D02*
X23466233Y-9835254D01*
X23466233Y-9835254D02*
X23418614Y-9835254D01*
X23418614Y-9835254D02*
X23399566Y-9825730D01*
X23399566Y-9825730D02*
X23390042Y-9806682D01*
X23390042Y-9806682D02*
X23390042Y-9787635D01*
X23390042Y-9787635D02*
X23399566Y-9768587D01*
X23399566Y-9768587D02*
X23418614Y-9759063D01*
X23418614Y-9759063D02*
X23466233Y-9759063D01*
X23466233Y-9759063D02*
X23485280Y-9749540D01*
X23551947Y-9701920D02*
X23628138Y-9701920D01*
X23580519Y-9635254D02*
X23580519Y-9806682D01*
X23580519Y-9806682D02*
X23590042Y-9825730D01*
X23590042Y-9825730D02*
X23609090Y-9835254D01*
X23609090Y-9835254D02*
X23628138Y-9835254D01*
X23770995Y-9825730D02*
X23751947Y-9835254D01*
X23751947Y-9835254D02*
X23713852Y-9835254D01*
X23713852Y-9835254D02*
X23694804Y-9825730D01*
X23694804Y-9825730D02*
X23685280Y-9806682D01*
X23685280Y-9806682D02*
X23685280Y-9730492D01*
X23685280Y-9730492D02*
X23694804Y-9711444D01*
X23694804Y-9711444D02*
X23713852Y-9701920D01*
X23713852Y-9701920D02*
X23751947Y-9701920D01*
X23751947Y-9701920D02*
X23770995Y-9711444D01*
X23770995Y-9711444D02*
X23780519Y-9730492D01*
X23780519Y-9730492D02*
X23780519Y-9749540D01*
X23780519Y-9749540D02*
X23685280Y-9768587D01*
X23951947Y-9835254D02*
X23951947Y-9635254D01*
X23951947Y-9825730D02*
X23932900Y-9835254D01*
X23932900Y-9835254D02*
X23894804Y-9835254D01*
X23894804Y-9835254D02*
X23875757Y-9825730D01*
X23875757Y-9825730D02*
X23866233Y-9816206D01*
X23866233Y-9816206D02*
X23856709Y-9797159D01*
X23856709Y-9797159D02*
X23856709Y-9740016D01*
X23856709Y-9740016D02*
X23866233Y-9720968D01*
X23866233Y-9720968D02*
X23875757Y-9711444D01*
X23875757Y-9711444D02*
X23894804Y-9701920D01*
X23894804Y-9701920D02*
X23932900Y-9701920D01*
X23932900Y-9701920D02*
X23951947Y-9711444D01*
X24028138Y-9911444D02*
X24037661Y-9901920D01*
X24037661Y-9901920D02*
X24056709Y-9873349D01*
X24056709Y-9873349D02*
X24066233Y-9854301D01*
X24066233Y-9854301D02*
X24075757Y-9825730D01*
X24075757Y-9825730D02*
X24085280Y-9778111D01*
X24085280Y-9778111D02*
X24085280Y-9740016D01*
X24085280Y-9740016D02*
X24075757Y-9692397D01*
X24075757Y-9692397D02*
X24066233Y-9663825D01*
X24066233Y-9663825D02*
X24056709Y-9644778D01*
X24056709Y-9644778D02*
X24037661Y-9616206D01*
X24037661Y-9616206D02*
X24028138Y-9606682D01*
M02*
