%TF.GenerationSoftware,KiCad,Pcbnew,7.0.1*%
%TF.CreationDate,2023-04-03T11:52:17-04:00*%
%TF.ProjectId,panel-tester_arduino-uno,70616e65-6c2d-4746-9573-7465725f6172,rev?*%
%TF.SameCoordinates,Original*%
%TF.FileFunction,Legend,Bot*%
%TF.FilePolarity,Positive*%
%FSLAX46Y46*%
G04 Gerber Fmt 4.6, Leading zero omitted, Abs format (unit mm)*
G04 Created by KiCad (PCBNEW 7.0.1) date 2023-04-03 11:52:17*
%MOMM*%
%LPD*%
G01*
G04 APERTURE LIST*
%ADD10C,0.150000*%
%ADD11C,0.075000*%
G04 APERTURE END LIST*
D10*
%TO.C,XA1*%
X171337975Y-30396619D02*
X170671309Y-31396619D01*
X170671309Y-30396619D02*
X171337975Y-31396619D01*
X170337975Y-31110904D02*
X169861785Y-31110904D01*
X170433213Y-31396619D02*
X170099880Y-30396619D01*
X170099880Y-30396619D02*
X169766547Y-31396619D01*
X168909404Y-31396619D02*
X169480832Y-31396619D01*
X169195118Y-31396619D02*
X169195118Y-30396619D01*
X169195118Y-30396619D02*
X169290356Y-30539476D01*
X169290356Y-30539476D02*
X169385594Y-30634714D01*
X169385594Y-30634714D02*
X169480832Y-30682333D01*
X230043881Y-53653380D02*
X230091500Y-53701000D01*
X230091500Y-53701000D02*
X230043881Y-53748619D01*
X230043881Y-53748619D02*
X229996262Y-53701000D01*
X229996262Y-53701000D02*
X230043881Y-53653380D01*
X230043881Y-53653380D02*
X230043881Y-53748619D01*
D11*
X231428928Y-36626309D02*
X231428928Y-36126309D01*
X231428928Y-36126309D02*
X231309880Y-36126309D01*
X231309880Y-36126309D02*
X231238452Y-36150119D01*
X231238452Y-36150119D02*
X231190833Y-36197738D01*
X231190833Y-36197738D02*
X231167023Y-36245357D01*
X231167023Y-36245357D02*
X231143214Y-36340595D01*
X231143214Y-36340595D02*
X231143214Y-36412023D01*
X231143214Y-36412023D02*
X231167023Y-36507261D01*
X231167023Y-36507261D02*
X231190833Y-36554880D01*
X231190833Y-36554880D02*
X231238452Y-36602500D01*
X231238452Y-36602500D02*
X231309880Y-36626309D01*
X231309880Y-36626309D02*
X231428928Y-36626309D01*
X230833690Y-36126309D02*
X230786071Y-36126309D01*
X230786071Y-36126309D02*
X230738452Y-36150119D01*
X230738452Y-36150119D02*
X230714642Y-36173928D01*
X230714642Y-36173928D02*
X230690833Y-36221547D01*
X230690833Y-36221547D02*
X230667023Y-36316785D01*
X230667023Y-36316785D02*
X230667023Y-36435833D01*
X230667023Y-36435833D02*
X230690833Y-36531071D01*
X230690833Y-36531071D02*
X230714642Y-36578690D01*
X230714642Y-36578690D02*
X230738452Y-36602500D01*
X230738452Y-36602500D02*
X230786071Y-36626309D01*
X230786071Y-36626309D02*
X230833690Y-36626309D01*
X230833690Y-36626309D02*
X230881309Y-36602500D01*
X230881309Y-36602500D02*
X230905118Y-36578690D01*
X230905118Y-36578690D02*
X230928928Y-36531071D01*
X230928928Y-36531071D02*
X230952737Y-36435833D01*
X230952737Y-36435833D02*
X230952737Y-36316785D01*
X230952737Y-36316785D02*
X230928928Y-36221547D01*
X230928928Y-36221547D02*
X230905118Y-36173928D01*
X230905118Y-36173928D02*
X230881309Y-36150119D01*
X230881309Y-36150119D02*
X230833690Y-36126309D01*
D10*
X232075881Y-31950000D02*
X233599881Y-33474000D01*
X236139881Y-47190000D02*
X233599881Y-44650000D01*
X233599881Y-44650000D02*
X233599881Y-33474000D01*
X167559881Y-31950000D02*
X232075881Y-31950000D01*
X233599881Y-84020000D02*
X236139881Y-81480000D01*
X167559881Y-85290000D02*
X233599881Y-85290000D01*
X167559881Y-31950000D02*
X167559881Y-85290000D01*
X236139881Y-81480000D02*
X236139881Y-47190000D01*
X233599881Y-85290000D02*
X233599881Y-84020000D01*
%TD*%
M02*
