M48
;DRILL file {Pcbnew (2013-mar-13)-testing} date Tue 12 Nov 2013 05:41:57 PM PST
;FORMAT={2:4/ absolute / inch / suppress trailing zeros}
FMAT,2
INCH,LZ
T1C0.025
T2C0.040
T3C0.102
T4C0.118
%
G90
G05
M72
T1
X031496Y-024606
X032677Y-024705
T2
X021835Y-027059
X021835Y-028059
X022835Y-027059
X022835Y-028059
X023835Y-027059
X023835Y-028059
X031283Y-027059
X031283Y-028059
X032283Y-027059
X032283Y-028059
X033283Y-027059
X033283Y-028059
X040051Y-020654
X040051Y-021654
X040051Y-022654
X040051Y-027937
X040051Y-028937
X040051Y-029937
X040248Y-034449
X041051Y-020654
X041051Y-021654
X041051Y-022654
X041051Y-027937
X041051Y-028937
X041051Y-029937
X041248Y-034449
T3
X040162Y-03845
T4
X0378Y-03845
T0
M30
