G04 (created by PCBNEW (2013-jul-07)-stable) date Tue 07 Apr 2015 07:13:19 PM PDT*
%MOIN*%
G04 Gerber Fmt 3.4, Leading zero omitted, Abs format*
%FSLAX34Y34*%
G01*
G70*
G90*
G04 APERTURE LIST*
%ADD10C,0.00590551*%
%ADD11R,0.06X0.06*%
%ADD12C,0.06*%
%ADD13R,0.025X0.045*%
%ADD14R,0.0787X0.0177*%
%ADD15R,0.0177X0.0787*%
%ADD16R,0.0512X0.0197*%
%ADD17C,0.1339*%
%ADD18C,0.051*%
%ADD19C,0.035*%
%ADD20C,0.01*%
%ADD21C,0.025*%
G04 APERTURE END LIST*
G54D10*
G54D11*
X20559Y-33346D03*
G54D12*
X21559Y-33346D03*
X22559Y-33346D03*
X23559Y-33346D03*
X24559Y-33346D03*
X25559Y-33346D03*
X26559Y-33346D03*
X27559Y-33346D03*
X28559Y-33346D03*
X29559Y-33346D03*
X30559Y-33346D03*
X31559Y-33346D03*
X32559Y-33346D03*
X33559Y-33346D03*
X34559Y-33346D03*
G54D11*
X20559Y-23129D03*
G54D12*
X21559Y-23129D03*
X22559Y-23129D03*
X23559Y-23129D03*
X24559Y-23129D03*
X25559Y-23129D03*
X26559Y-23129D03*
X27559Y-23129D03*
X28559Y-23129D03*
X29559Y-23129D03*
X30559Y-23129D03*
X31559Y-23129D03*
X32559Y-23129D03*
X33559Y-23129D03*
X34559Y-23129D03*
G54D13*
X23528Y-26692D03*
X22928Y-26692D03*
X23528Y-27598D03*
X22928Y-27598D03*
G54D14*
X26056Y-29242D03*
X26056Y-28927D03*
X26056Y-28612D03*
X26056Y-28297D03*
X26056Y-27982D03*
X26056Y-27667D03*
X26056Y-27352D03*
X26056Y-27037D03*
X29822Y-27039D03*
X29822Y-29249D03*
X29822Y-28929D03*
X29822Y-28609D03*
X29822Y-28299D03*
X29822Y-27979D03*
X29822Y-27669D03*
X29822Y-27349D03*
G54D15*
X26840Y-26249D03*
X27154Y-26249D03*
X27470Y-26249D03*
X27784Y-26249D03*
X28100Y-26249D03*
X28414Y-26249D03*
X28730Y-26249D03*
X29044Y-26249D03*
X26842Y-30029D03*
X27152Y-30029D03*
X27472Y-30029D03*
X27782Y-30029D03*
X28092Y-30029D03*
X28412Y-30029D03*
X28732Y-30029D03*
X29052Y-30029D03*
G54D13*
X29129Y-24311D03*
X29729Y-24311D03*
G54D16*
X24212Y-29330D03*
X24212Y-29802D03*
X24212Y-28858D03*
G54D11*
X32007Y-27059D03*
G54D12*
X32007Y-28059D03*
G54D17*
X21259Y-27559D03*
X33858Y-27559D03*
G54D11*
X31374Y-30799D03*
G54D12*
X34374Y-30799D03*
X31374Y-31799D03*
X34374Y-31799D03*
G54D18*
X32374Y-30799D03*
X33374Y-30799D03*
X33374Y-31799D03*
X32374Y-31799D03*
G54D11*
X31374Y-24500D03*
G54D12*
X34374Y-24500D03*
X31374Y-25500D03*
X34374Y-25500D03*
G54D18*
X32374Y-24500D03*
X33374Y-24500D03*
X33374Y-25500D03*
X32374Y-25500D03*
G54D11*
X20744Y-30799D03*
G54D12*
X23744Y-30799D03*
X20744Y-31799D03*
X23744Y-31799D03*
G54D18*
X21744Y-30799D03*
X22744Y-30799D03*
X22744Y-31799D03*
X21744Y-31799D03*
G54D11*
X20744Y-24500D03*
G54D12*
X23744Y-24500D03*
X20744Y-25500D03*
X23744Y-25500D03*
G54D18*
X21744Y-24500D03*
X22744Y-24500D03*
X22744Y-25500D03*
X21744Y-25500D03*
G54D19*
X28889Y-28745D03*
X27470Y-26971D03*
X28173Y-26971D03*
X31338Y-27784D03*
G54D20*
X29822Y-28299D02*
X29279Y-28299D01*
X29822Y-28929D02*
X29279Y-28929D01*
X23528Y-26692D02*
X23528Y-27598D01*
X26056Y-27982D02*
X26600Y-27982D01*
X29279Y-28299D02*
X29279Y-28929D01*
X26056Y-28612D02*
X26600Y-28612D01*
X26915Y-28297D02*
X26600Y-28612D01*
X26917Y-28299D02*
X26915Y-28297D01*
X29279Y-28299D02*
X26917Y-28299D01*
X26915Y-28297D02*
X26600Y-27982D01*
X20744Y-24500D02*
X21194Y-24500D01*
X29729Y-24311D02*
X29454Y-24311D01*
X21194Y-24471D02*
X21194Y-24500D01*
X21832Y-23833D02*
X21194Y-24471D01*
X24177Y-23833D02*
X21832Y-23833D01*
X25029Y-24686D02*
X24177Y-23833D01*
X29319Y-24686D02*
X25029Y-24686D01*
X29454Y-24551D02*
X29319Y-24686D01*
X29454Y-24311D02*
X29454Y-24551D01*
G54D21*
X19950Y-32300D02*
X19950Y-31119D01*
X20200Y-32550D02*
X19950Y-32300D01*
X20400Y-32550D02*
X20200Y-32550D01*
X20559Y-32709D02*
X20400Y-32550D01*
X20559Y-33346D02*
X20559Y-32709D01*
G54D20*
X26600Y-29398D02*
X26600Y-28612D01*
X25662Y-30336D02*
X26600Y-29398D01*
X23570Y-30336D02*
X25662Y-30336D01*
X23203Y-30703D02*
X23570Y-30336D01*
X23203Y-30940D02*
X23203Y-30703D01*
X22889Y-31254D02*
X23203Y-30940D01*
X20084Y-31254D02*
X22889Y-31254D01*
X19950Y-31119D02*
X20084Y-31254D01*
G54D21*
X19950Y-31119D02*
X19950Y-26275D01*
G54D20*
X23253Y-26452D02*
X23253Y-26692D01*
X23076Y-26275D02*
X23253Y-26452D01*
X19950Y-26275D02*
X23076Y-26275D01*
X23528Y-26692D02*
X23253Y-26692D01*
G54D21*
X19950Y-26275D02*
X19950Y-24541D01*
X20559Y-23590D02*
X20559Y-23129D01*
X20450Y-23700D02*
X20559Y-23590D01*
X20150Y-23700D02*
X20450Y-23700D01*
X19950Y-23900D02*
X20150Y-23700D01*
X19950Y-24541D02*
X19950Y-23900D01*
G54D20*
X20252Y-24541D02*
X20293Y-24500D01*
X19950Y-24541D02*
X20252Y-24541D01*
X20744Y-24500D02*
X20293Y-24500D01*
X26087Y-33817D02*
X26559Y-33346D01*
X24368Y-33817D02*
X26087Y-33817D01*
X24102Y-33551D02*
X24368Y-33817D01*
X24102Y-33164D02*
X24102Y-33551D01*
X25868Y-31397D02*
X24102Y-33164D01*
X27588Y-31397D02*
X25868Y-31397D01*
X28412Y-30573D02*
X27588Y-31397D01*
X28412Y-30029D02*
X28412Y-30573D01*
X26429Y-32475D02*
X25559Y-33346D01*
X27150Y-32475D02*
X26429Y-32475D01*
X29052Y-30573D02*
X27150Y-32475D01*
X29052Y-30029D02*
X29052Y-30573D01*
X28732Y-30029D02*
X28732Y-30573D01*
X25830Y-32075D02*
X24559Y-33346D01*
X27230Y-32075D02*
X25830Y-32075D01*
X28732Y-30573D02*
X27230Y-32075D01*
X24230Y-34017D02*
X23559Y-33346D01*
X26534Y-34017D02*
X24230Y-34017D01*
X27059Y-33493D02*
X26534Y-34017D01*
X27059Y-33193D02*
X27059Y-33493D01*
X29003Y-31249D02*
X27059Y-33193D01*
X34598Y-31249D02*
X29003Y-31249D01*
X34840Y-31007D02*
X34598Y-31249D01*
X34840Y-30598D02*
X34840Y-31007D01*
X33491Y-29249D02*
X34840Y-30598D01*
X29822Y-29249D02*
X33491Y-29249D01*
X25513Y-26269D02*
X25513Y-27037D01*
X23744Y-24500D02*
X25513Y-26269D01*
X26056Y-27037D02*
X25513Y-27037D01*
X26616Y-30799D02*
X26842Y-30573D01*
X23744Y-30799D02*
X26616Y-30799D01*
X26842Y-30029D02*
X26842Y-30573D01*
X27893Y-28745D02*
X27152Y-29485D01*
X28889Y-28745D02*
X27893Y-28745D01*
X27152Y-30029D02*
X27152Y-29485D01*
X29203Y-29485D02*
X27472Y-29485D01*
X29346Y-29628D02*
X29203Y-29485D01*
X33203Y-29628D02*
X29346Y-29628D01*
X34374Y-30799D02*
X33203Y-29628D01*
X27472Y-30029D02*
X27472Y-29485D01*
X27470Y-26971D02*
X27470Y-26249D01*
X27470Y-26971D02*
X27470Y-26971D01*
X31374Y-24500D02*
X30923Y-24500D01*
X27154Y-26249D02*
X27154Y-25705D01*
X27627Y-25233D02*
X27154Y-25705D01*
X27627Y-25233D02*
X27627Y-25233D01*
X30190Y-25233D02*
X27627Y-25233D01*
X30923Y-24500D02*
X30190Y-25233D01*
X24818Y-27352D02*
X26056Y-27352D01*
X23498Y-26032D02*
X24818Y-27352D01*
X21276Y-26032D02*
X23498Y-26032D01*
X20744Y-25500D02*
X21276Y-26032D01*
X26840Y-26249D02*
X26840Y-25705D01*
X27596Y-24950D02*
X26840Y-25705D01*
X29719Y-24950D02*
X27596Y-24950D01*
X30742Y-23926D02*
X29719Y-24950D01*
X32059Y-23926D02*
X30742Y-23926D01*
X32259Y-23726D02*
X32059Y-23926D01*
X33962Y-23726D02*
X32259Y-23726D01*
X34559Y-23129D02*
X33962Y-23726D01*
X27213Y-27349D02*
X29822Y-27349D01*
X26600Y-26736D02*
X27213Y-27349D01*
X26600Y-26699D02*
X26600Y-26736D01*
X23934Y-24033D02*
X26600Y-26699D01*
X23560Y-24033D02*
X23934Y-24033D01*
X23291Y-24302D02*
X23560Y-24033D01*
X23291Y-25047D02*
X23291Y-24302D01*
X23744Y-25500D02*
X23291Y-25047D01*
X28242Y-27039D02*
X29822Y-27039D01*
X28173Y-26971D02*
X28242Y-27039D01*
X29283Y-25705D02*
X29044Y-25705D01*
X29555Y-25977D02*
X29283Y-25705D01*
X33896Y-25977D02*
X29555Y-25977D01*
X34374Y-25500D02*
X33896Y-25977D01*
X29044Y-26249D02*
X29044Y-25705D01*
X30347Y-26793D02*
X28730Y-26793D01*
X31338Y-27784D02*
X30347Y-26793D01*
X28730Y-26249D02*
X28730Y-26793D01*
X29129Y-24311D02*
X28991Y-24311D01*
X23062Y-23633D02*
X22559Y-23129D01*
X28314Y-23633D02*
X23062Y-23633D01*
X28991Y-24311D02*
X28314Y-23633D01*
X27784Y-26249D02*
X27784Y-25705D01*
X28009Y-25481D02*
X27784Y-25705D01*
X30392Y-25481D02*
X28009Y-25481D01*
X30923Y-24950D02*
X30392Y-25481D01*
X31742Y-24950D02*
X30923Y-24950D01*
X31936Y-24756D02*
X31742Y-24950D01*
X31936Y-24365D02*
X31936Y-24756D01*
X32274Y-24026D02*
X31936Y-24365D01*
X34328Y-24026D02*
X32274Y-24026D01*
X35022Y-23332D02*
X34328Y-24026D01*
X35022Y-22947D02*
X35022Y-23332D01*
X34735Y-22660D02*
X35022Y-22947D01*
X32391Y-22660D02*
X34735Y-22660D01*
X32108Y-22943D02*
X32391Y-22660D01*
X32108Y-23233D02*
X32108Y-22943D01*
X31615Y-23726D02*
X32108Y-23233D01*
X29575Y-23726D02*
X31615Y-23726D01*
X28991Y-24311D02*
X29575Y-23726D01*
X25444Y-28858D02*
X25513Y-28927D01*
X24212Y-28858D02*
X25444Y-28858D01*
X26056Y-28927D02*
X25513Y-28927D01*
X24953Y-29802D02*
X25513Y-29242D01*
X24212Y-29802D02*
X24953Y-29802D01*
X26056Y-29242D02*
X25513Y-29242D01*
X22928Y-27598D02*
X23203Y-27598D01*
X24212Y-29330D02*
X23806Y-29330D01*
X23806Y-28339D02*
X23806Y-29330D01*
X23703Y-28339D02*
X23806Y-28339D01*
X23203Y-27839D02*
X23703Y-28339D01*
X23203Y-27598D02*
X23203Y-27839D01*
X26056Y-28297D02*
X25513Y-28297D01*
X25471Y-28339D02*
X25513Y-28297D01*
X23806Y-28339D02*
X25471Y-28339D01*
X26056Y-27667D02*
X25513Y-27667D01*
X25513Y-28297D02*
X25513Y-27667D01*
X30094Y-27979D02*
X30366Y-27979D01*
X30094Y-27979D02*
X29822Y-27979D01*
X27867Y-27667D02*
X26056Y-27667D01*
X28179Y-27979D02*
X27867Y-27667D01*
X29822Y-27979D02*
X28179Y-27979D01*
X32007Y-27059D02*
X32007Y-27509D01*
X32282Y-27784D02*
X32007Y-27509D01*
X32507Y-27559D02*
X32282Y-27784D01*
X33858Y-27559D02*
X32507Y-27559D01*
X32282Y-27784D02*
X32007Y-28059D01*
X22613Y-27559D02*
X22653Y-27598D01*
X21259Y-27559D02*
X22613Y-27559D01*
X31957Y-28109D02*
X32007Y-28059D01*
X30495Y-28109D02*
X31957Y-28109D01*
X30366Y-27979D02*
X30495Y-28109D01*
X22928Y-27598D02*
X22790Y-27598D01*
X22790Y-27598D02*
X22653Y-27598D01*
X22928Y-27460D02*
X22928Y-26692D01*
X22790Y-27598D02*
X22928Y-27460D01*
M02*
