G04 (created by PCBNEW (2013-mar-13)-testing) date Tue 12 Nov 2013 05:10:08 PM PST*
%MOIN*%
G04 Gerber Fmt 3.4, Leading zero omitted, Abs format*
%FSLAX34Y34*%
G01*
G70*
G90*
G04 APERTURE LIST*
%ADD10C,0.005906*%
%ADD11C,0.200000*%
%ADD12C,0.181100*%
%ADD13R,0.070000X0.070000*%
%ADD14C,0.070000*%
%ADD15R,0.060000X0.060000*%
%ADD16C,0.060000*%
%ADD17C,0.035000*%
%ADD18C,0.025000*%
G04 APERTURE END LIST*
G54D10*
G54D11*
X21890Y-29985D03*
G54D12*
X21890Y-32347D03*
G54D13*
X27965Y-30350D03*
G54D14*
X26965Y-30350D03*
X27965Y-29350D03*
X26965Y-29350D03*
X27965Y-28350D03*
X26965Y-28350D03*
G54D15*
X20559Y-22913D03*
G54D16*
X21559Y-22913D03*
X22559Y-22913D03*
X23559Y-22913D03*
X24559Y-22913D03*
X25559Y-22913D03*
X26559Y-22913D03*
X27559Y-22913D03*
X28559Y-22913D03*
X29559Y-22913D03*
X30559Y-22913D03*
X31559Y-22913D03*
X32559Y-22913D03*
X33559Y-22913D03*
X34559Y-22913D03*
G54D15*
X33770Y-33060D03*
G54D16*
X33770Y-32060D03*
G54D15*
X33810Y-30010D03*
G54D16*
X33810Y-29010D03*
X33810Y-28010D03*
X33810Y-27010D03*
X33810Y-26010D03*
X33810Y-25010D03*
G54D17*
X27047Y-26592D03*
G54D18*
X21890Y-32127D02*
X21890Y-32347D01*
X20559Y-30796D02*
X21890Y-32127D01*
X20559Y-22913D02*
X20559Y-30796D01*
X25187Y-32127D02*
X26965Y-30350D01*
X21890Y-32127D02*
X25187Y-32127D01*
X26965Y-30392D02*
X26965Y-30350D01*
X29632Y-33060D02*
X26965Y-30392D01*
X33770Y-33060D02*
X29632Y-33060D01*
X28899Y-26254D02*
X25559Y-22913D01*
X28899Y-29415D02*
X28899Y-26254D01*
X27965Y-30350D02*
X28899Y-29415D01*
X24559Y-26944D02*
X26965Y-29350D01*
X24559Y-22913D02*
X24559Y-26944D01*
X32559Y-25759D02*
X32559Y-22913D01*
X33810Y-27010D02*
X32559Y-25759D01*
X28544Y-28770D02*
X27965Y-29350D01*
X28544Y-28089D02*
X28544Y-28770D01*
X27047Y-26592D02*
X28544Y-28089D01*
X33262Y-23210D02*
X33559Y-22913D01*
X33262Y-25462D02*
X33262Y-23210D01*
X33810Y-26010D02*
X33262Y-25462D01*
X33810Y-29010D02*
X33810Y-30010D01*
X21559Y-29654D02*
X21890Y-29985D01*
X21559Y-22913D02*
X21559Y-29654D01*
X34335Y-31494D02*
X33770Y-32060D01*
X34335Y-28535D02*
X34335Y-31494D01*
X33810Y-28010D02*
X34335Y-28535D01*
M02*
