G04 (created by PCBNEW (2013-mar-13)-testing) date Tue 12 Nov 2013 05:14:33 PM PST*
%MOIN*%
G04 Gerber Fmt 3.4, Leading zero omitted, Abs format*
%FSLAX34Y34*%
G01*
G70*
G90*
G04 APERTURE LIST*
%ADD10C,0.005906*%
%ADD11C,0.100000*%
%ADD12R,0.060000X0.060000*%
%ADD13C,0.060000*%
%ADD14C,0.200000*%
%ADD15C,0.181100*%
%ADD16C,0.130000*%
%ADD17C,0.035000*%
%ADD18C,0.040000*%
%ADD19C,0.010000*%
G04 APERTURE END LIST*
G54D10*
G54D11*
X34039Y-28740D03*
X36039Y-28740D03*
X50181Y-28740D03*
X52181Y-28740D03*
X65929Y-28740D03*
X67929Y-28740D03*
X82070Y-28740D03*
X84070Y-28740D03*
X97425Y-28740D03*
X99425Y-28740D03*
G54D12*
X39795Y-26484D03*
G54D13*
X39795Y-25484D03*
X40795Y-26484D03*
X40795Y-25484D03*
G54D12*
X55582Y-26484D03*
G54D13*
X55582Y-25484D03*
X56582Y-26484D03*
X56582Y-25484D03*
G54D12*
X71370Y-26484D03*
G54D13*
X71370Y-25484D03*
X72370Y-26484D03*
X72370Y-25484D03*
G54D12*
X87157Y-26484D03*
G54D13*
X87157Y-25484D03*
X88157Y-26484D03*
X88157Y-25484D03*
G54D12*
X102944Y-26484D03*
G54D13*
X102944Y-25484D03*
X103944Y-26484D03*
X103944Y-25484D03*
G54D12*
X42748Y-26484D03*
G54D13*
X42748Y-25484D03*
X43748Y-26484D03*
X43748Y-25484D03*
G54D12*
X58535Y-26484D03*
G54D13*
X58535Y-25484D03*
X59535Y-26484D03*
X59535Y-25484D03*
G54D12*
X74322Y-26484D03*
G54D13*
X74322Y-25484D03*
X75322Y-26484D03*
X75322Y-25484D03*
G54D12*
X90110Y-26484D03*
G54D13*
X90110Y-25484D03*
X91110Y-26484D03*
X91110Y-25484D03*
G54D12*
X105897Y-26484D03*
G54D13*
X105897Y-25484D03*
X106897Y-26484D03*
X106897Y-25484D03*
G54D12*
X45700Y-26484D03*
G54D13*
X45700Y-25484D03*
X46700Y-26484D03*
X46700Y-25484D03*
G54D12*
X61488Y-26484D03*
G54D13*
X61488Y-25484D03*
X62488Y-26484D03*
X62488Y-25484D03*
G54D12*
X77275Y-26484D03*
G54D13*
X77275Y-25484D03*
X78275Y-26484D03*
X78275Y-25484D03*
G54D12*
X93062Y-26484D03*
G54D13*
X93062Y-25484D03*
X94062Y-26484D03*
X94062Y-25484D03*
G54D12*
X108850Y-26484D03*
G54D13*
X108850Y-25484D03*
X109850Y-26484D03*
X109850Y-25484D03*
G54D12*
X33807Y-35539D03*
G54D13*
X33807Y-34539D03*
X38807Y-35539D03*
X34807Y-34539D03*
X39807Y-35539D03*
X35807Y-34539D03*
X40807Y-35539D03*
X36807Y-34539D03*
X41807Y-35539D03*
X37807Y-34539D03*
X42807Y-35539D03*
X38807Y-34539D03*
X43807Y-35539D03*
X39807Y-34539D03*
X44807Y-35539D03*
X40807Y-34539D03*
X45807Y-35539D03*
X41807Y-34539D03*
X46807Y-35539D03*
X42807Y-34539D03*
X47807Y-35539D03*
X43807Y-34539D03*
X48807Y-35539D03*
X44807Y-34539D03*
X45807Y-34539D03*
X49807Y-35539D03*
X46807Y-34539D03*
X48807Y-34539D03*
X49807Y-34539D03*
X50807Y-34539D03*
X51807Y-34539D03*
X50807Y-35539D03*
X51807Y-35539D03*
X34807Y-35539D03*
X35807Y-35539D03*
X36807Y-35539D03*
X37807Y-35539D03*
X52807Y-35539D03*
X52807Y-34539D03*
X47807Y-34539D03*
G54D12*
X83925Y-35539D03*
G54D13*
X83925Y-34539D03*
X88925Y-35539D03*
X84925Y-34539D03*
X89925Y-35539D03*
X85925Y-34539D03*
X90925Y-35539D03*
X86925Y-34539D03*
X91925Y-35539D03*
X87925Y-34539D03*
X92925Y-35539D03*
X88925Y-34539D03*
X93925Y-35539D03*
X89925Y-34539D03*
X94925Y-35539D03*
X90925Y-34539D03*
X95925Y-35539D03*
X91925Y-34539D03*
X96925Y-35539D03*
X92925Y-34539D03*
X97925Y-35539D03*
X93925Y-34539D03*
X98925Y-35539D03*
X94925Y-34539D03*
X95925Y-34539D03*
X99925Y-35539D03*
X96925Y-34539D03*
X98925Y-34539D03*
X99925Y-34539D03*
X100925Y-34539D03*
X101925Y-34539D03*
X100925Y-35539D03*
X101925Y-35539D03*
X84925Y-35539D03*
X85925Y-35539D03*
X86925Y-35539D03*
X87925Y-35539D03*
X102925Y-35539D03*
X102925Y-34539D03*
X97925Y-34539D03*
X103925Y-35539D03*
X103925Y-34539D03*
X104925Y-35539D03*
X104925Y-34539D03*
X105925Y-35539D03*
X105925Y-34539D03*
X106925Y-35539D03*
X106925Y-34539D03*
X107925Y-35539D03*
X107925Y-34539D03*
X108925Y-35539D03*
X108925Y-34539D03*
X109925Y-35539D03*
X109925Y-34539D03*
X110925Y-35539D03*
X110925Y-34539D03*
X111925Y-35539D03*
X111925Y-34539D03*
X112925Y-35539D03*
X112925Y-34539D03*
G54D14*
X22244Y-33956D03*
G54D15*
X22244Y-36318D03*
G54D12*
X20460Y-22874D03*
G54D13*
X21460Y-22874D03*
X22460Y-22874D03*
X23460Y-22874D03*
X24460Y-22874D03*
X25460Y-22874D03*
X26460Y-22874D03*
X27460Y-22874D03*
X28460Y-22874D03*
X29460Y-22874D03*
X30460Y-22874D03*
X31460Y-22874D03*
X32460Y-22874D03*
X33460Y-22874D03*
X34460Y-22874D03*
G54D12*
X36248Y-22874D03*
G54D13*
X37248Y-22874D03*
X38248Y-22874D03*
X39248Y-22874D03*
X40248Y-22874D03*
X41248Y-22874D03*
X42248Y-22874D03*
X43248Y-22874D03*
X44248Y-22874D03*
X45248Y-22874D03*
X46248Y-22874D03*
X47248Y-22874D03*
X48248Y-22874D03*
X49248Y-22874D03*
X50248Y-22874D03*
G54D12*
X52035Y-22874D03*
G54D13*
X53035Y-22874D03*
X54035Y-22874D03*
X55035Y-22874D03*
X56035Y-22874D03*
X57035Y-22874D03*
X58035Y-22874D03*
X59035Y-22874D03*
X60035Y-22874D03*
X61035Y-22874D03*
X62035Y-22874D03*
X63035Y-22874D03*
X64035Y-22874D03*
X65035Y-22874D03*
X66035Y-22874D03*
G54D12*
X67822Y-22874D03*
G54D13*
X68822Y-22874D03*
X69822Y-22874D03*
X70822Y-22874D03*
X71822Y-22874D03*
X72822Y-22874D03*
X73822Y-22874D03*
X74822Y-22874D03*
X75822Y-22874D03*
X76822Y-22874D03*
X77822Y-22874D03*
X78822Y-22874D03*
X79822Y-22874D03*
X80822Y-22874D03*
X81822Y-22874D03*
G54D12*
X83610Y-22874D03*
G54D13*
X84610Y-22874D03*
X85610Y-22874D03*
X86610Y-22874D03*
X87610Y-22874D03*
X88610Y-22874D03*
X89610Y-22874D03*
X90610Y-22874D03*
X91610Y-22874D03*
X92610Y-22874D03*
X93610Y-22874D03*
X94610Y-22874D03*
X95610Y-22874D03*
X96610Y-22874D03*
X97610Y-22874D03*
G54D12*
X99397Y-22874D03*
G54D13*
X100397Y-22874D03*
X101397Y-22874D03*
X102397Y-22874D03*
X103397Y-22874D03*
X104397Y-22874D03*
X105397Y-22874D03*
X106397Y-22874D03*
X107397Y-22874D03*
X108397Y-22874D03*
X109397Y-22874D03*
X110397Y-22874D03*
X111397Y-22874D03*
X112397Y-22874D03*
X113397Y-22874D03*
G54D16*
X117125Y-25590D03*
X16732Y-38385D03*
X117125Y-38385D03*
X66929Y-25590D03*
X66929Y-38385D03*
X16732Y-25590D03*
G54D12*
X41248Y-30814D03*
G54D13*
X41248Y-29814D03*
X42248Y-30814D03*
X42248Y-29814D03*
X43248Y-30814D03*
X43248Y-29814D03*
X44248Y-30814D03*
X44248Y-29814D03*
X45248Y-30814D03*
X45248Y-29814D03*
G54D12*
X57035Y-30814D03*
G54D13*
X57035Y-29814D03*
X58035Y-30814D03*
X58035Y-29814D03*
X59035Y-30814D03*
X59035Y-29814D03*
X60035Y-30814D03*
X60035Y-29814D03*
X61035Y-30814D03*
X61035Y-29814D03*
G54D12*
X72822Y-30814D03*
G54D13*
X72822Y-29814D03*
X73822Y-30814D03*
X73822Y-29814D03*
X74822Y-30814D03*
X74822Y-29814D03*
X75822Y-30814D03*
X75822Y-29814D03*
X76822Y-30814D03*
X76822Y-29814D03*
G54D12*
X88610Y-30814D03*
G54D13*
X88610Y-29814D03*
X89610Y-30814D03*
X89610Y-29814D03*
X90610Y-30814D03*
X90610Y-29814D03*
X91610Y-30814D03*
X91610Y-29814D03*
X92610Y-30814D03*
X92610Y-29814D03*
G54D12*
X104397Y-30814D03*
G54D13*
X104397Y-29814D03*
X105397Y-30814D03*
X105397Y-29814D03*
X106397Y-30814D03*
X106397Y-29814D03*
X107397Y-30814D03*
X107397Y-29814D03*
X108397Y-30814D03*
X108397Y-29814D03*
G54D12*
X59003Y-35539D03*
G54D13*
X59003Y-34539D03*
X64003Y-35539D03*
X60003Y-34539D03*
X65003Y-35539D03*
X61003Y-34539D03*
X66003Y-35539D03*
X62003Y-34539D03*
X67003Y-35539D03*
X63003Y-34539D03*
X68003Y-35539D03*
X64003Y-34539D03*
X69003Y-35539D03*
X65003Y-34539D03*
X70003Y-35539D03*
X66003Y-34539D03*
X71003Y-35539D03*
X67003Y-34539D03*
X72003Y-35539D03*
X68003Y-34539D03*
X73003Y-35539D03*
X69003Y-34539D03*
X74003Y-35539D03*
X70003Y-34539D03*
X71003Y-34539D03*
X75003Y-35539D03*
X72003Y-34539D03*
X74003Y-34539D03*
X75003Y-34539D03*
X76003Y-34539D03*
X77003Y-34539D03*
X76003Y-35539D03*
X77003Y-35539D03*
X60003Y-35539D03*
X61003Y-35539D03*
X62003Y-35539D03*
X63003Y-35539D03*
X78003Y-35539D03*
X78003Y-34539D03*
X73003Y-34539D03*
G54D17*
X102736Y-33182D03*
X57547Y-32615D03*
X71202Y-32159D03*
X70211Y-37408D03*
X53682Y-34325D03*
X73181Y-27622D03*
X87486Y-27632D03*
X39602Y-27703D03*
X89219Y-33021D03*
X69215Y-37397D03*
X53836Y-34775D03*
X88946Y-25292D03*
X41467Y-24224D03*
X95327Y-31350D03*
X91323Y-32060D03*
X96386Y-37579D03*
X81402Y-30521D03*
X93968Y-22382D03*
X43851Y-33183D03*
X44347Y-31798D03*
X89616Y-24789D03*
X94748Y-32865D03*
X98984Y-33598D03*
X50724Y-38133D03*
X46532Y-32642D03*
X59099Y-33015D03*
X95706Y-32471D03*
X100142Y-36950D03*
X42919Y-24026D03*
X62319Y-23407D03*
X35036Y-23206D03*
X85836Y-23861D03*
X70726Y-27394D03*
X87156Y-27280D03*
X41515Y-27179D03*
X58200Y-35048D03*
X109193Y-33810D03*
X42748Y-28616D03*
X86094Y-26934D03*
X46748Y-24894D03*
X60553Y-26333D03*
X63015Y-23743D03*
X79565Y-22257D03*
X48036Y-27541D03*
X68180Y-32517D03*
X54139Y-32615D03*
X76205Y-26934D03*
X88629Y-33360D03*
X100491Y-32930D03*
X70368Y-32531D03*
X80917Y-30077D03*
G54D18*
X78003Y-34539D02*
X77003Y-34539D01*
X20460Y-22874D02*
X20460Y-23474D01*
X33477Y-29301D02*
X26288Y-29301D01*
X34039Y-28740D02*
X33477Y-29301D01*
X20460Y-23474D02*
X26288Y-29301D01*
X26288Y-29912D02*
X22244Y-33956D01*
X26288Y-29301D02*
X26288Y-29912D01*
X66738Y-27930D02*
X65929Y-28740D01*
X68820Y-27930D02*
X66738Y-27930D01*
X68987Y-28097D02*
X68820Y-27930D01*
X81427Y-28097D02*
X68987Y-28097D01*
X82070Y-28740D02*
X81427Y-28097D01*
X112925Y-34539D02*
X111925Y-34539D01*
X82882Y-27928D02*
X82070Y-28740D01*
X86806Y-27928D02*
X82882Y-27928D01*
X86994Y-28116D02*
X86806Y-27928D01*
X96801Y-28116D02*
X86994Y-28116D01*
X97425Y-28740D02*
X96801Y-28116D01*
X65128Y-27940D02*
X65929Y-28740D01*
X50981Y-27940D02*
X65128Y-27940D01*
X50181Y-28740D02*
X50981Y-27940D01*
X110568Y-33182D02*
X102736Y-33182D01*
X111925Y-34539D02*
X110568Y-33182D01*
X34843Y-27936D02*
X34039Y-28740D01*
X36391Y-27936D02*
X34843Y-27936D01*
X36640Y-28184D02*
X36391Y-27936D01*
X42508Y-28184D02*
X36640Y-28184D01*
X42551Y-28141D02*
X42508Y-28184D01*
X42944Y-28141D02*
X42551Y-28141D01*
X43031Y-28227D02*
X42944Y-28141D01*
X49668Y-28227D02*
X43031Y-28227D01*
X50181Y-28740D02*
X49668Y-28227D01*
G54D19*
X88610Y-30814D02*
X89060Y-30814D01*
X104397Y-30814D02*
X103947Y-30814D01*
X88610Y-30814D02*
X88610Y-31265D01*
X41698Y-30702D02*
X41698Y-30814D01*
X42035Y-30364D02*
X41698Y-30702D01*
X56135Y-30364D02*
X42035Y-30364D01*
X56585Y-30814D02*
X56135Y-30364D01*
X57035Y-30814D02*
X56585Y-30814D01*
X41248Y-30814D02*
X41698Y-30814D01*
X89060Y-30702D02*
X89060Y-30814D01*
X89397Y-30364D02*
X89060Y-30702D01*
X89801Y-30364D02*
X89397Y-30364D01*
X90110Y-30674D02*
X89801Y-30364D01*
X90110Y-30978D02*
X90110Y-30674D01*
X90610Y-31477D02*
X90110Y-30978D01*
X91894Y-31477D02*
X90610Y-31477D01*
X92094Y-31678D02*
X91894Y-31477D01*
X103084Y-31678D02*
X92094Y-31678D01*
X103947Y-30814D02*
X103084Y-31678D01*
X71327Y-32284D02*
X71202Y-32159D01*
X77634Y-32284D02*
X71327Y-32284D01*
X77935Y-31984D02*
X77634Y-32284D01*
X87891Y-31984D02*
X77935Y-31984D01*
X88610Y-31265D02*
X87891Y-31984D01*
X57672Y-32490D02*
X57547Y-32615D01*
X59591Y-32490D02*
X57672Y-32490D01*
X59889Y-32192D02*
X59591Y-32490D01*
X69571Y-32192D02*
X59889Y-32192D01*
X69779Y-31984D02*
X69571Y-32192D01*
X71027Y-31984D02*
X69779Y-31984D01*
X71202Y-32159D02*
X71027Y-31984D01*
X44351Y-35995D02*
X44807Y-35539D01*
X43610Y-35995D02*
X44351Y-35995D01*
X43307Y-35692D02*
X43610Y-35995D01*
X43307Y-35402D02*
X43307Y-35692D01*
X42993Y-35089D02*
X43307Y-35402D01*
X41691Y-35089D02*
X42993Y-35089D01*
X41356Y-34754D02*
X41691Y-35089D01*
X41356Y-33735D02*
X41356Y-34754D01*
X40797Y-33176D02*
X41356Y-33735D01*
X40797Y-30265D02*
X40797Y-33176D01*
X41248Y-29814D02*
X40797Y-30265D01*
X96510Y-36954D02*
X97925Y-35539D01*
X96266Y-36954D02*
X96510Y-36954D01*
X95812Y-37408D02*
X96266Y-36954D01*
X70211Y-37408D02*
X95812Y-37408D01*
X53550Y-34325D02*
X53682Y-34325D01*
X53313Y-34089D02*
X53550Y-34325D01*
X51607Y-34089D02*
X53313Y-34089D01*
X51307Y-34389D02*
X51607Y-34089D01*
X51307Y-34680D02*
X51307Y-34389D01*
X50947Y-35039D02*
X51307Y-34680D01*
X50307Y-35039D02*
X50947Y-35039D01*
X49807Y-35539D02*
X50307Y-35039D01*
X102894Y-38569D02*
X105925Y-35539D01*
X68968Y-38569D02*
X102894Y-38569D01*
X67569Y-37170D02*
X68968Y-38569D01*
X56723Y-37170D02*
X67569Y-37170D01*
X53878Y-34325D02*
X56723Y-37170D01*
X53682Y-34325D02*
X53878Y-34325D01*
X73251Y-27551D02*
X73181Y-27622D01*
X86924Y-27551D02*
X73251Y-27551D01*
X87005Y-27632D02*
X86924Y-27551D01*
X87486Y-27632D02*
X87005Y-27632D01*
X39689Y-27791D02*
X39602Y-27703D01*
X43089Y-27791D02*
X39689Y-27791D01*
X43175Y-27877D02*
X43089Y-27791D01*
X49042Y-27877D02*
X43175Y-27877D01*
X49353Y-27566D02*
X49042Y-27877D01*
X69723Y-27566D02*
X49353Y-27566D01*
X69903Y-27747D02*
X69723Y-27566D01*
X73056Y-27747D02*
X69903Y-27747D01*
X73181Y-27622D02*
X73056Y-27747D01*
X42809Y-33537D02*
X41807Y-34539D01*
X43957Y-33537D02*
X42809Y-33537D01*
X45404Y-32090D02*
X43957Y-33537D01*
X59425Y-32090D02*
X45404Y-32090D01*
X59723Y-31792D02*
X59425Y-32090D01*
X69405Y-31792D02*
X59723Y-31792D01*
X69620Y-31576D02*
X69405Y-31792D01*
X71363Y-31576D02*
X69620Y-31576D01*
X71670Y-31884D02*
X71363Y-31576D01*
X75832Y-31884D02*
X71670Y-31884D01*
X76133Y-31583D02*
X75832Y-31884D01*
X85391Y-31583D02*
X76133Y-31583D01*
X87160Y-29814D02*
X85391Y-31583D01*
X88610Y-29814D02*
X87160Y-29814D01*
X96438Y-34052D02*
X96925Y-34539D01*
X94721Y-34052D02*
X96438Y-34052D01*
X93854Y-33185D02*
X94721Y-34052D01*
X89383Y-33185D02*
X93854Y-33185D01*
X89219Y-33021D02*
X89383Y-33185D01*
X58035Y-30932D02*
X58035Y-30814D01*
X42902Y-31469D02*
X42248Y-30814D01*
X57497Y-31469D02*
X42902Y-31469D01*
X58035Y-30932D02*
X57497Y-31469D01*
X90473Y-31678D02*
X89610Y-30814D01*
X91811Y-31678D02*
X90473Y-31678D01*
X92011Y-31878D02*
X91811Y-31678D01*
X104334Y-31878D02*
X92011Y-31878D01*
X105397Y-30814D02*
X104334Y-31878D01*
X90375Y-34989D02*
X90925Y-35539D01*
X89738Y-34989D02*
X90375Y-34989D01*
X89425Y-34675D02*
X89738Y-34989D01*
X89425Y-34382D02*
X89425Y-34675D01*
X89131Y-34089D02*
X89425Y-34382D01*
X88708Y-34089D02*
X89131Y-34089D01*
X88508Y-33889D02*
X88708Y-34089D01*
X71654Y-33889D02*
X88508Y-33889D01*
X71003Y-34539D02*
X71654Y-33889D01*
X73372Y-30364D02*
X73822Y-30814D01*
X69264Y-30364D02*
X73372Y-30364D01*
X69118Y-30511D02*
X69264Y-30364D01*
X62052Y-30511D02*
X69118Y-30511D01*
X61905Y-30364D02*
X62052Y-30511D01*
X59849Y-30364D02*
X61905Y-30364D01*
X59535Y-30678D02*
X59849Y-30364D01*
X59535Y-30966D02*
X59535Y-30678D01*
X59230Y-31271D02*
X59535Y-30966D01*
X58374Y-31271D02*
X59230Y-31271D01*
X58035Y-30932D02*
X58374Y-31271D01*
X41780Y-29347D02*
X42248Y-29814D01*
X41049Y-29347D02*
X41780Y-29347D01*
X40356Y-30039D02*
X41049Y-29347D01*
X40356Y-34725D02*
X40356Y-30039D01*
X40720Y-35089D02*
X40356Y-34725D01*
X40993Y-35089D02*
X40720Y-35089D01*
X41307Y-35402D02*
X40993Y-35089D01*
X41307Y-35685D02*
X41307Y-35402D01*
X41838Y-36217D02*
X41307Y-35685D01*
X45129Y-36217D02*
X41838Y-36217D01*
X45807Y-35539D02*
X45129Y-36217D01*
X69561Y-37743D02*
X69215Y-37397D01*
X95762Y-37743D02*
X69561Y-37743D01*
X96251Y-37254D02*
X95762Y-37743D01*
X97210Y-37254D02*
X96251Y-37254D01*
X98925Y-35539D02*
X97210Y-37254D01*
X51314Y-35031D02*
X50807Y-35539D01*
X53836Y-35031D02*
X51314Y-35031D01*
X103694Y-38770D02*
X106925Y-35539D01*
X68885Y-38770D02*
X103694Y-38770D01*
X67486Y-37370D02*
X68885Y-38770D01*
X56175Y-37370D02*
X67486Y-37370D01*
X53836Y-35031D02*
X56175Y-37370D01*
X53836Y-34775D02*
X53836Y-35031D01*
X88294Y-24640D02*
X88946Y-25292D01*
X75193Y-24640D02*
X88294Y-24640D01*
X74822Y-24269D02*
X75193Y-24640D01*
X74822Y-22874D02*
X74822Y-24269D01*
X41594Y-24351D02*
X41467Y-24224D01*
X74741Y-24351D02*
X41594Y-24351D01*
X74822Y-24269D02*
X74741Y-24351D01*
X89610Y-29814D02*
X89610Y-29941D01*
X43532Y-33814D02*
X42807Y-34539D01*
X43963Y-33814D02*
X43532Y-33814D01*
X45487Y-32290D02*
X43963Y-33814D01*
X59508Y-32290D02*
X45487Y-32290D01*
X59806Y-31992D02*
X59508Y-32290D01*
X69488Y-31992D02*
X59806Y-31992D01*
X69703Y-31777D02*
X69488Y-31992D01*
X71280Y-31777D02*
X69703Y-31777D01*
X71587Y-32084D02*
X71280Y-31777D01*
X77552Y-32084D02*
X71587Y-32084D01*
X77852Y-31784D02*
X77552Y-32084D01*
X85574Y-31784D02*
X77852Y-31784D01*
X87033Y-30324D02*
X85574Y-31784D01*
X88759Y-30324D02*
X87033Y-30324D01*
X89142Y-29941D02*
X88759Y-30324D01*
X89610Y-29941D02*
X89142Y-29941D01*
X95200Y-31477D02*
X95327Y-31350D01*
X92177Y-31477D02*
X95200Y-31477D01*
X91977Y-31277D02*
X92177Y-31477D01*
X91436Y-31277D02*
X91977Y-31277D01*
X91110Y-30951D02*
X91436Y-31277D01*
X91110Y-30672D02*
X91110Y-30951D01*
X90752Y-30314D02*
X91110Y-30672D01*
X90110Y-30314D02*
X90752Y-30314D01*
X89736Y-29941D02*
X90110Y-30314D01*
X89610Y-29941D02*
X89736Y-29941D01*
X105375Y-35089D02*
X105925Y-34539D01*
X104738Y-35089D02*
X105375Y-35089D01*
X104425Y-35402D02*
X104738Y-35089D01*
X104425Y-35695D02*
X104425Y-35402D01*
X101950Y-38169D02*
X104425Y-35695D01*
X69134Y-38169D02*
X101950Y-38169D01*
X67732Y-36768D02*
X69134Y-38169D01*
X56907Y-36768D02*
X67732Y-36768D01*
X53939Y-33800D02*
X56907Y-36768D01*
X53590Y-33800D02*
X53939Y-33800D01*
X53471Y-33681D02*
X53590Y-33800D01*
X48664Y-33681D02*
X53471Y-33681D01*
X47807Y-34539D02*
X48664Y-33681D01*
X58535Y-30314D02*
X59035Y-30814D01*
X43702Y-31269D02*
X43248Y-30814D01*
X57412Y-31269D02*
X43702Y-31269D01*
X57580Y-31101D02*
X57412Y-31269D01*
X57580Y-30629D02*
X57580Y-31101D01*
X57894Y-30314D02*
X57580Y-30629D01*
X58535Y-30314D02*
X57894Y-30314D01*
X72503Y-35039D02*
X72003Y-34539D01*
X73140Y-35039D02*
X72503Y-35039D01*
X73454Y-35352D02*
X73140Y-35039D01*
X73454Y-35633D02*
X73454Y-35352D01*
X74211Y-36390D02*
X73454Y-35633D01*
X91073Y-36390D02*
X74211Y-36390D01*
X91925Y-35539D02*
X91073Y-36390D01*
X91348Y-32085D02*
X91323Y-32060D01*
X105127Y-32085D02*
X91348Y-32085D01*
X106397Y-30814D02*
X105127Y-32085D01*
X74372Y-30364D02*
X74822Y-30814D01*
X73710Y-30364D02*
X74372Y-30364D01*
X73272Y-29927D02*
X73710Y-30364D01*
X73272Y-29628D02*
X73272Y-29927D01*
X73009Y-29364D02*
X73272Y-29628D01*
X69981Y-29364D02*
X73009Y-29364D01*
X69035Y-30311D02*
X69981Y-29364D01*
X62170Y-30311D02*
X69035Y-30311D01*
X61215Y-29356D02*
X62170Y-30311D01*
X58830Y-29356D02*
X61215Y-29356D01*
X58535Y-29652D02*
X58830Y-29356D01*
X58535Y-30314D02*
X58535Y-29652D01*
X97885Y-37579D02*
X99925Y-35539D01*
X96386Y-37579D02*
X97885Y-37579D01*
X104494Y-38970D02*
X107925Y-35539D01*
X68662Y-38970D02*
X104494Y-38970D01*
X67263Y-37570D02*
X68662Y-38970D01*
X53838Y-37570D02*
X67263Y-37570D01*
X51807Y-35539D02*
X53838Y-37570D01*
X38807Y-31023D02*
X38807Y-34539D01*
X40889Y-28941D02*
X38807Y-31023D01*
X45456Y-28941D02*
X40889Y-28941D01*
X45908Y-29393D02*
X45456Y-28941D01*
X56510Y-29393D02*
X45908Y-29393D01*
X56948Y-28955D02*
X56510Y-29393D01*
X61786Y-28955D02*
X56948Y-28955D01*
X62739Y-29909D02*
X61786Y-28955D01*
X68769Y-29909D02*
X62739Y-29909D01*
X69731Y-28947D02*
X68769Y-29909D01*
X73955Y-28947D02*
X69731Y-28947D01*
X74822Y-29814D02*
X73955Y-28947D01*
X75272Y-29364D02*
X74822Y-29814D01*
X77995Y-29364D02*
X75272Y-29364D01*
X79152Y-30521D02*
X77995Y-29364D01*
X81402Y-30521D02*
X79152Y-30521D01*
X45144Y-31889D02*
X43851Y-33183D01*
X59342Y-31889D02*
X45144Y-31889D01*
X59640Y-31591D02*
X59342Y-31889D01*
X69322Y-31591D02*
X59640Y-31591D01*
X69537Y-31376D02*
X69322Y-31591D01*
X71446Y-31376D02*
X69537Y-31376D01*
X71753Y-31683D02*
X71446Y-31376D01*
X75750Y-31683D02*
X71753Y-31683D01*
X76086Y-31347D02*
X75750Y-31683D01*
X85303Y-31347D02*
X76086Y-31347D01*
X87290Y-29361D02*
X85303Y-31347D01*
X90156Y-29361D02*
X87290Y-29361D01*
X90610Y-29814D02*
X90156Y-29361D01*
X92101Y-22382D02*
X93968Y-22382D01*
X91610Y-22874D02*
X92101Y-22382D01*
X107475Y-35089D02*
X106925Y-34539D01*
X108111Y-35089D02*
X107475Y-35089D01*
X108384Y-35362D02*
X108111Y-35089D01*
X108384Y-35742D02*
X108384Y-35362D01*
X104917Y-39209D02*
X108384Y-35742D01*
X52830Y-39209D02*
X104917Y-39209D01*
X49307Y-35685D02*
X52830Y-39209D01*
X49307Y-35039D02*
X49307Y-35685D01*
X48807Y-34539D02*
X49307Y-35039D01*
X44476Y-31669D02*
X44347Y-31798D01*
X59180Y-31669D02*
X44476Y-31669D01*
X60035Y-30814D02*
X59180Y-31669D01*
X92475Y-35089D02*
X92925Y-35539D01*
X91738Y-35089D02*
X92475Y-35089D01*
X91425Y-35402D02*
X91738Y-35089D01*
X91425Y-35712D02*
X91425Y-35402D01*
X91125Y-36011D02*
X91425Y-35712D01*
X89749Y-36011D02*
X91125Y-36011D01*
X89375Y-35636D02*
X89749Y-36011D01*
X89375Y-35352D02*
X89375Y-35636D01*
X89011Y-34989D02*
X89375Y-35352D01*
X88738Y-34989D02*
X89011Y-34989D01*
X88425Y-34675D02*
X88738Y-34989D01*
X88425Y-34382D02*
X88425Y-34675D01*
X88131Y-34089D02*
X88425Y-34382D01*
X76792Y-34089D02*
X88131Y-34089D01*
X76503Y-34377D02*
X76792Y-34089D01*
X76503Y-34708D02*
X76503Y-34377D01*
X76217Y-34995D02*
X76503Y-34708D01*
X73460Y-34995D02*
X76217Y-34995D01*
X73003Y-34539D02*
X73460Y-34995D01*
X60493Y-31273D02*
X60035Y-30814D01*
X69358Y-31273D02*
X60493Y-31273D01*
X69457Y-31174D02*
X69358Y-31273D01*
X71526Y-31174D02*
X69457Y-31174D01*
X71819Y-31466D02*
X71526Y-31174D01*
X75170Y-31466D02*
X71819Y-31466D01*
X75822Y-30814D02*
X75170Y-31466D01*
X91897Y-30814D02*
X91610Y-30814D01*
X92360Y-31277D02*
X91897Y-30814D01*
X93897Y-31277D02*
X92360Y-31277D01*
X94810Y-30364D02*
X93897Y-31277D01*
X106947Y-30364D02*
X94810Y-30364D01*
X107397Y-30814D02*
X106947Y-30364D01*
X98497Y-37967D02*
X100925Y-35539D01*
X69325Y-37967D02*
X98497Y-37967D01*
X67771Y-36413D02*
X69325Y-37967D01*
X56835Y-36413D02*
X67771Y-36413D01*
X54022Y-33600D02*
X56835Y-36413D01*
X53673Y-33600D02*
X54022Y-33600D01*
X53554Y-33480D02*
X53673Y-33600D01*
X48221Y-33480D02*
X53554Y-33480D01*
X47341Y-34361D02*
X48221Y-33480D01*
X47341Y-35073D02*
X47341Y-34361D01*
X47807Y-35539D02*
X47341Y-35073D01*
X62456Y-21452D02*
X61035Y-22874D01*
X110619Y-21452D02*
X62456Y-21452D01*
X111897Y-22731D02*
X110619Y-21452D01*
X111897Y-30545D02*
X111897Y-22731D01*
X114089Y-32737D02*
X111897Y-30545D01*
X114089Y-35320D02*
X114089Y-32737D01*
X113219Y-36190D02*
X114089Y-35320D01*
X109576Y-36190D02*
X113219Y-36190D01*
X108925Y-35539D02*
X109576Y-36190D01*
X89015Y-24188D02*
X89616Y-24789D01*
X78137Y-24188D02*
X89015Y-24188D01*
X76822Y-22874D02*
X78137Y-24188D01*
X39807Y-30306D02*
X39807Y-34539D01*
X40971Y-29141D02*
X39807Y-30306D01*
X45373Y-29141D02*
X40971Y-29141D01*
X45847Y-29615D02*
X45373Y-29141D01*
X56571Y-29615D02*
X45847Y-29615D01*
X57031Y-29155D02*
X56571Y-29615D01*
X61403Y-29155D02*
X57031Y-29155D01*
X62359Y-30111D02*
X61403Y-29155D01*
X68852Y-30111D02*
X62359Y-30111D01*
X69816Y-29147D02*
X68852Y-30111D01*
X73799Y-29147D02*
X69816Y-29147D01*
X74322Y-29670D02*
X73799Y-29147D01*
X74322Y-29956D02*
X74322Y-29670D01*
X74632Y-30266D02*
X74322Y-29956D01*
X75371Y-30266D02*
X74632Y-30266D01*
X75822Y-29814D02*
X75371Y-30266D01*
X95481Y-33598D02*
X94748Y-32865D01*
X98984Y-33598D02*
X95481Y-33598D01*
X46285Y-33061D02*
X44807Y-34539D01*
X53842Y-33061D02*
X46285Y-33061D01*
X53981Y-33200D02*
X53842Y-33061D01*
X57106Y-33200D02*
X53981Y-33200D01*
X57247Y-33340D02*
X57106Y-33200D01*
X59307Y-33340D02*
X57247Y-33340D01*
X59576Y-33071D02*
X59307Y-33340D01*
X64022Y-33071D02*
X59576Y-33071D01*
X64209Y-32884D02*
X64022Y-33071D01*
X87102Y-32884D02*
X64209Y-32884D01*
X87367Y-32619D02*
X87102Y-32884D01*
X88878Y-32619D02*
X87367Y-32619D01*
X89001Y-32496D02*
X88878Y-32619D01*
X89436Y-32496D02*
X89001Y-32496D01*
X89725Y-32785D02*
X89436Y-32496D01*
X94668Y-32785D02*
X89725Y-32785D01*
X94748Y-32865D02*
X94668Y-32785D01*
X48350Y-35759D02*
X50724Y-38133D01*
X48350Y-34358D02*
X48350Y-35759D01*
X48628Y-34081D02*
X48350Y-34358D01*
X49349Y-34081D02*
X48628Y-34081D01*
X49807Y-34539D02*
X49349Y-34081D01*
X44356Y-34989D02*
X43807Y-35539D01*
X44356Y-34352D02*
X44356Y-34989D01*
X46067Y-32642D02*
X44356Y-34352D01*
X46532Y-32642D02*
X46067Y-32642D01*
X58974Y-33140D02*
X59099Y-33015D01*
X57330Y-33140D02*
X58974Y-33140D01*
X57134Y-32945D02*
X57330Y-33140D01*
X54009Y-32945D02*
X57134Y-32945D01*
X53706Y-32642D02*
X54009Y-32945D01*
X46532Y-32642D02*
X53706Y-32642D01*
X71906Y-30814D02*
X61035Y-30814D01*
X72357Y-31265D02*
X71906Y-30814D01*
X75044Y-31265D02*
X72357Y-31265D01*
X75322Y-30987D02*
X75044Y-31265D01*
X75322Y-30673D02*
X75322Y-30987D01*
X75632Y-30363D02*
X75322Y-30673D01*
X76371Y-30363D02*
X75632Y-30363D01*
X76822Y-30814D02*
X76371Y-30363D01*
X95892Y-32285D02*
X95706Y-32471D01*
X106927Y-32285D02*
X95892Y-32285D01*
X108397Y-30814D02*
X106927Y-32285D01*
X92154Y-30359D02*
X92610Y-30814D01*
X91518Y-30359D02*
X92154Y-30359D01*
X91110Y-29951D02*
X91518Y-30359D01*
X91110Y-29668D02*
X91110Y-29951D01*
X90602Y-29160D02*
X91110Y-29668D01*
X84911Y-29160D02*
X90602Y-29160D01*
X83225Y-30846D02*
X84911Y-29160D01*
X76854Y-30846D02*
X83225Y-30846D01*
X76822Y-30814D02*
X76854Y-30846D01*
X100513Y-36950D02*
X101925Y-35539D01*
X100142Y-36950D02*
X100513Y-36950D01*
X110376Y-35990D02*
X109925Y-35539D01*
X113136Y-35990D02*
X110376Y-35990D01*
X113875Y-35251D02*
X113136Y-35990D01*
X113875Y-33824D02*
X113875Y-35251D01*
X109300Y-29248D02*
X113875Y-33824D01*
X109300Y-26111D02*
X109300Y-29248D01*
X109223Y-26034D02*
X109300Y-26111D01*
X108700Y-26034D02*
X109223Y-26034D01*
X107447Y-24781D02*
X108700Y-26034D01*
X103650Y-24781D02*
X107447Y-24781D01*
X101897Y-23029D02*
X103650Y-24781D01*
X101897Y-22734D02*
X101897Y-23029D01*
X100816Y-21653D02*
X101897Y-22734D01*
X63256Y-21653D02*
X100816Y-21653D01*
X62035Y-22874D02*
X63256Y-21653D01*
X77368Y-22419D02*
X77822Y-22874D01*
X74618Y-22419D02*
X77368Y-22419D01*
X74322Y-22715D02*
X74618Y-22419D01*
X74322Y-23020D02*
X74322Y-22715D01*
X73273Y-24069D02*
X74322Y-23020D01*
X42962Y-24069D02*
X73273Y-24069D01*
X42919Y-24026D02*
X42962Y-24069D01*
X47066Y-33280D02*
X45807Y-34539D01*
X53778Y-33280D02*
X47066Y-33280D01*
X53898Y-33400D02*
X53778Y-33280D01*
X57023Y-33400D02*
X53898Y-33400D01*
X57164Y-33540D02*
X57023Y-33400D01*
X63159Y-33540D02*
X57164Y-33540D01*
X63428Y-33271D02*
X63159Y-33540D01*
X64105Y-33271D02*
X63428Y-33271D01*
X64292Y-33084D02*
X64105Y-33271D01*
X87185Y-33084D02*
X64292Y-33084D01*
X87450Y-32820D02*
X87185Y-33084D01*
X88961Y-32820D02*
X87450Y-32820D01*
X89084Y-32696D02*
X88961Y-32820D01*
X89353Y-32696D02*
X89084Y-32696D01*
X89642Y-32985D02*
X89353Y-32696D01*
X94269Y-32985D02*
X89642Y-32985D01*
X95136Y-33852D02*
X94269Y-32985D01*
X98118Y-33852D02*
X95136Y-33852D01*
X98199Y-33932D02*
X98118Y-33852D01*
X100318Y-33932D02*
X98199Y-33932D01*
X100925Y-34539D02*
X100318Y-33932D01*
X108470Y-34084D02*
X108925Y-34539D01*
X106723Y-34084D02*
X108470Y-34084D01*
X106425Y-34382D02*
X106723Y-34084D01*
X106425Y-34685D02*
X106425Y-34382D01*
X106071Y-35039D02*
X106425Y-34685D01*
X105785Y-35039D02*
X106071Y-35039D01*
X105425Y-35399D02*
X105785Y-35039D01*
X105425Y-35680D02*
X105425Y-35399D01*
X102735Y-38369D02*
X105425Y-35680D01*
X69051Y-38369D02*
X102735Y-38369D01*
X67652Y-36970D02*
X69051Y-38369D01*
X56826Y-36970D02*
X67652Y-36970D01*
X53856Y-34000D02*
X56826Y-36970D01*
X53507Y-34000D02*
X53856Y-34000D01*
X53389Y-33881D02*
X53507Y-34000D01*
X51464Y-33881D02*
X53389Y-33881D01*
X50807Y-34539D02*
X51464Y-33881D01*
X50698Y-23324D02*
X50248Y-22874D01*
X53254Y-23324D02*
X50698Y-23324D01*
X53535Y-23043D02*
X53254Y-23324D01*
X53535Y-22712D02*
X53535Y-23043D01*
X53823Y-22423D02*
X53535Y-22712D01*
X60233Y-22423D02*
X53823Y-22423D01*
X60535Y-22725D02*
X60233Y-22423D01*
X60535Y-23027D02*
X60535Y-22725D01*
X60915Y-23407D02*
X60535Y-23027D01*
X62319Y-23407D02*
X60915Y-23407D01*
X65377Y-23532D02*
X66035Y-22874D01*
X63737Y-23532D02*
X65377Y-23532D01*
X63612Y-23407D02*
X63737Y-23532D01*
X62319Y-23407D02*
X63612Y-23407D01*
X31926Y-23340D02*
X31460Y-22874D01*
X34903Y-23340D02*
X31926Y-23340D01*
X35036Y-23206D02*
X34903Y-23340D01*
X85836Y-23759D02*
X85836Y-23861D01*
X93724Y-23759D02*
X85836Y-23759D01*
X94610Y-22874D02*
X93724Y-23759D01*
X79708Y-23759D02*
X78822Y-22874D01*
X85836Y-23759D02*
X79708Y-23759D01*
X78154Y-22205D02*
X78822Y-22874D01*
X65031Y-22205D02*
X78154Y-22205D01*
X64535Y-22701D02*
X65031Y-22205D01*
X64535Y-23010D02*
X64535Y-22701D01*
X64221Y-23324D02*
X64535Y-23010D01*
X63846Y-23324D02*
X64221Y-23324D01*
X63396Y-22874D02*
X63846Y-23324D01*
X63035Y-22874D02*
X63396Y-22874D01*
X61713Y-26484D02*
X61938Y-26484D01*
X61713Y-26484D02*
X61488Y-26484D01*
X61488Y-26484D02*
X61038Y-26484D01*
X45700Y-26484D02*
X46150Y-26484D01*
X70629Y-27296D02*
X70726Y-27394D01*
X62638Y-27296D02*
X70629Y-27296D01*
X61938Y-26596D02*
X62638Y-27296D01*
X61938Y-26484D02*
X61938Y-26596D01*
X93062Y-26484D02*
X92612Y-26484D01*
X93513Y-26596D02*
X93513Y-26484D01*
X94063Y-27146D02*
X93513Y-26596D01*
X107737Y-27146D02*
X94063Y-27146D01*
X108400Y-26484D02*
X107737Y-27146D01*
X108850Y-26484D02*
X108400Y-26484D01*
X93062Y-26484D02*
X93513Y-26484D01*
X76825Y-26793D02*
X76825Y-26484D01*
X76330Y-27288D02*
X76825Y-26793D01*
X70832Y-27288D02*
X76330Y-27288D01*
X70726Y-27394D02*
X70832Y-27288D01*
X77275Y-26484D02*
X76825Y-26484D01*
X91816Y-27280D02*
X87156Y-27280D01*
X92612Y-26484D02*
X91816Y-27280D01*
X77725Y-26596D02*
X77725Y-26484D01*
X78409Y-27280D02*
X77725Y-26596D01*
X87156Y-27280D02*
X78409Y-27280D01*
X77275Y-26484D02*
X77725Y-26484D01*
X46150Y-26596D02*
X46150Y-26484D01*
X46692Y-27138D02*
X46150Y-26596D01*
X60383Y-27138D02*
X46692Y-27138D01*
X61038Y-26484D02*
X60383Y-27138D01*
X45700Y-26484D02*
X45250Y-26484D01*
X44555Y-27179D02*
X45250Y-26484D01*
X41515Y-27179D02*
X44555Y-27179D01*
X96474Y-35088D02*
X96925Y-35539D01*
X95735Y-35088D02*
X96474Y-35088D01*
X95425Y-35398D02*
X95735Y-35088D01*
X95425Y-35711D02*
X95425Y-35398D01*
X94339Y-36797D02*
X95425Y-35711D01*
X73570Y-36797D02*
X94339Y-36797D01*
X73370Y-36597D02*
X73570Y-36797D01*
X69199Y-36597D02*
X73370Y-36597D01*
X68141Y-35539D02*
X69199Y-36597D01*
X68003Y-35539D02*
X68141Y-35539D01*
X46700Y-25484D02*
X45700Y-25484D01*
X60174Y-35048D02*
X58200Y-35048D01*
X60553Y-35427D02*
X60174Y-35048D01*
X60553Y-35732D02*
X60553Y-35427D01*
X60817Y-35996D02*
X60553Y-35732D01*
X64194Y-35996D02*
X60817Y-35996D01*
X64503Y-35687D02*
X64194Y-35996D01*
X64503Y-35377D02*
X64503Y-35687D01*
X64880Y-35001D02*
X64503Y-35377D01*
X65206Y-35001D02*
X64880Y-35001D01*
X65553Y-34654D02*
X65206Y-35001D01*
X65553Y-34351D02*
X65553Y-34654D01*
X66019Y-33885D02*
X65553Y-34351D01*
X69991Y-33885D02*
X66019Y-33885D01*
X70503Y-34398D02*
X69991Y-33885D01*
X70503Y-34707D02*
X70503Y-34398D01*
X70793Y-34996D02*
X70503Y-34707D01*
X71461Y-34996D02*
X70793Y-34996D01*
X72003Y-35539D02*
X71461Y-34996D01*
X62488Y-25484D02*
X61488Y-25484D01*
X87425Y-35039D02*
X87925Y-34539D01*
X86784Y-35039D02*
X87425Y-35039D01*
X86425Y-35398D02*
X86784Y-35039D01*
X86425Y-35686D02*
X86425Y-35398D01*
X85920Y-36190D02*
X86425Y-35686D01*
X74655Y-36190D02*
X85920Y-36190D01*
X74003Y-35539D02*
X74655Y-36190D01*
X78275Y-25484D02*
X77275Y-25484D01*
X95475Y-34989D02*
X95925Y-34539D01*
X93738Y-34989D02*
X95475Y-34989D01*
X93425Y-34675D02*
X93738Y-34989D01*
X93425Y-34399D02*
X93425Y-34675D01*
X92912Y-33886D02*
X93425Y-34399D01*
X89057Y-33886D02*
X92912Y-33886D01*
X88856Y-33685D02*
X89057Y-33886D01*
X64858Y-33685D02*
X88856Y-33685D01*
X64003Y-34539D02*
X64858Y-33685D01*
X94062Y-25484D02*
X93062Y-25484D01*
X104653Y-33810D02*
X109193Y-33810D01*
X103925Y-34539D02*
X104653Y-33810D01*
X109850Y-25484D02*
X108850Y-25484D01*
X107248Y-23882D02*
X108850Y-25484D01*
X105405Y-23882D02*
X107248Y-23882D01*
X104397Y-22874D02*
X105405Y-23882D01*
X105897Y-26484D02*
X105447Y-26484D01*
X90110Y-26484D02*
X90560Y-26484D01*
X42748Y-26484D02*
X43198Y-26484D01*
X104997Y-26934D02*
X105447Y-26484D01*
X96240Y-26934D02*
X104997Y-26934D01*
X95331Y-26025D02*
X96240Y-26934D01*
X90907Y-26025D02*
X95331Y-26025D01*
X90560Y-26371D02*
X90907Y-26025D01*
X90560Y-26484D02*
X90560Y-26371D01*
X57635Y-26934D02*
X58085Y-26484D01*
X54700Y-26934D02*
X57635Y-26934D01*
X53800Y-26034D02*
X54700Y-26934D01*
X44917Y-26034D02*
X53800Y-26034D01*
X43995Y-26956D02*
X44917Y-26034D01*
X43558Y-26956D02*
X43995Y-26956D01*
X43198Y-26596D02*
X43558Y-26956D01*
X43198Y-26484D02*
X43198Y-26596D01*
X38307Y-35039D02*
X37807Y-35539D01*
X38307Y-31240D02*
X38307Y-35039D01*
X40931Y-28616D02*
X38307Y-31240D01*
X42748Y-28616D02*
X40931Y-28616D01*
X90110Y-26484D02*
X89660Y-26484D01*
X89210Y-26934D02*
X89660Y-26484D01*
X86094Y-26934D02*
X89210Y-26934D01*
X58535Y-26484D02*
X58310Y-26484D01*
X58310Y-26484D02*
X58085Y-26484D01*
X58810Y-25984D02*
X58310Y-26484D01*
X64415Y-25984D02*
X58810Y-25984D01*
X65365Y-26934D02*
X64415Y-25984D01*
X71732Y-26934D02*
X65365Y-26934D01*
X71870Y-26796D02*
X71732Y-26934D01*
X71870Y-26325D02*
X71870Y-26796D01*
X72169Y-26026D02*
X71870Y-26325D01*
X73415Y-26026D02*
X72169Y-26026D01*
X73872Y-26484D02*
X73415Y-26026D01*
X85175Y-26015D02*
X86094Y-26934D01*
X75129Y-26015D02*
X85175Y-26015D01*
X74772Y-26371D02*
X75129Y-26015D01*
X74772Y-26484D02*
X74772Y-26371D01*
X74322Y-26484D02*
X74772Y-26484D01*
X74322Y-26484D02*
X73872Y-26484D01*
X94466Y-36997D02*
X95925Y-35539D01*
X73488Y-36997D02*
X94466Y-36997D01*
X73308Y-36817D02*
X73488Y-36997D01*
X69130Y-36817D02*
X73308Y-36817D01*
X68312Y-35999D02*
X69130Y-36817D01*
X67464Y-35999D02*
X68312Y-35999D01*
X67003Y-35539D02*
X67464Y-35999D01*
X45337Y-24894D02*
X46748Y-24894D01*
X43748Y-26484D02*
X45337Y-24894D01*
X43748Y-25484D02*
X42748Y-25484D01*
X59685Y-26333D02*
X60553Y-26333D01*
X59535Y-26484D02*
X59685Y-26333D01*
X59535Y-25484D02*
X58535Y-25484D01*
X75455Y-35990D02*
X75003Y-35539D01*
X85144Y-35990D02*
X75455Y-35990D01*
X85425Y-35710D02*
X85144Y-35990D01*
X85425Y-35398D02*
X85425Y-35710D01*
X85784Y-35039D02*
X85425Y-35398D01*
X86425Y-35039D02*
X85784Y-35039D01*
X86925Y-34539D02*
X86425Y-35039D01*
X75322Y-25484D02*
X74322Y-25484D01*
X93871Y-33486D02*
X94925Y-34539D01*
X89223Y-33486D02*
X93871Y-33486D01*
X88772Y-33034D02*
X89223Y-33486D01*
X88212Y-33034D02*
X88772Y-33034D01*
X87962Y-33284D02*
X88212Y-33034D01*
X64375Y-33284D02*
X87962Y-33284D01*
X64175Y-33485D02*
X64375Y-33284D01*
X64058Y-33485D02*
X64175Y-33485D01*
X63003Y-34539D02*
X64058Y-33485D01*
X91110Y-25484D02*
X90110Y-25484D01*
X66553Y-34990D02*
X67003Y-34539D01*
X66553Y-35752D02*
X66553Y-34990D01*
X67013Y-36213D02*
X66553Y-35752D01*
X68149Y-36213D02*
X67013Y-36213D01*
X68958Y-37021D02*
X68149Y-36213D01*
X73228Y-37021D02*
X68958Y-37021D01*
X73405Y-37197D02*
X73228Y-37021D01*
X95459Y-37197D02*
X73405Y-37197D01*
X96003Y-36653D02*
X95459Y-37197D01*
X96449Y-36653D02*
X96003Y-36653D01*
X97425Y-35677D02*
X96449Y-36653D01*
X97425Y-35402D02*
X97425Y-35677D01*
X97738Y-35089D02*
X97425Y-35402D01*
X102375Y-35089D02*
X97738Y-35089D01*
X102925Y-34539D02*
X102375Y-35089D01*
X106897Y-25484D02*
X105897Y-25484D01*
X37581Y-23540D02*
X38248Y-22874D01*
X23126Y-23540D02*
X37581Y-23540D01*
X22460Y-22874D02*
X23126Y-23540D01*
X38917Y-23542D02*
X38248Y-22874D01*
X53366Y-23542D02*
X38917Y-23542D01*
X54035Y-22874D02*
X53366Y-23542D01*
X54904Y-23743D02*
X63015Y-23743D01*
X54035Y-22874D02*
X54904Y-23743D01*
X84993Y-22257D02*
X79565Y-22257D01*
X85610Y-22874D02*
X84993Y-22257D01*
X100381Y-21857D02*
X101397Y-22874D01*
X86626Y-21857D02*
X100381Y-21857D01*
X85610Y-22874D02*
X86626Y-21857D01*
X68953Y-23743D02*
X69822Y-22874D01*
X63015Y-23743D02*
X68953Y-23743D01*
X80483Y-23535D02*
X79822Y-22874D01*
X93589Y-23535D02*
X80483Y-23535D01*
X94110Y-23014D02*
X93589Y-23535D01*
X94110Y-22725D02*
X94110Y-23014D01*
X94416Y-22419D02*
X94110Y-22725D01*
X95155Y-22419D02*
X94416Y-22419D01*
X95610Y-22874D02*
X95155Y-22419D01*
X64904Y-22005D02*
X64035Y-22874D01*
X78833Y-22005D02*
X64904Y-22005D01*
X79701Y-22874D02*
X78833Y-22005D01*
X79822Y-22874D02*
X79701Y-22874D01*
X65983Y-26484D02*
X71370Y-26484D01*
X64532Y-25033D02*
X65983Y-26484D01*
X57689Y-25033D02*
X64532Y-25033D01*
X56688Y-26034D02*
X57689Y-25033D01*
X56370Y-26034D02*
X56688Y-26034D01*
X56032Y-26371D02*
X56370Y-26034D01*
X56032Y-26484D02*
X56032Y-26371D01*
X55582Y-26484D02*
X56032Y-26484D01*
X71370Y-26484D02*
X71370Y-26034D01*
X86932Y-26484D02*
X86707Y-26484D01*
X86932Y-26484D02*
X87157Y-26484D01*
X87157Y-26484D02*
X87607Y-26484D01*
X102944Y-26484D02*
X102494Y-26484D01*
X39795Y-26484D02*
X39795Y-26034D01*
X55582Y-26484D02*
X55132Y-26484D01*
X101032Y-25021D02*
X102494Y-26484D01*
X89887Y-25021D02*
X101032Y-25021D01*
X88974Y-25934D02*
X89887Y-25021D01*
X88051Y-25934D02*
X88974Y-25934D01*
X87607Y-26378D02*
X88051Y-25934D01*
X87607Y-26484D02*
X87607Y-26378D01*
X85236Y-25013D02*
X86707Y-26484D01*
X72204Y-25013D02*
X85236Y-25013D01*
X71820Y-25397D02*
X72204Y-25013D01*
X71820Y-25696D02*
X71820Y-25397D01*
X71482Y-26034D02*
X71820Y-25696D01*
X71370Y-26034D02*
X71482Y-26034D01*
X53203Y-24555D02*
X55132Y-26484D01*
X41070Y-24555D02*
X53203Y-24555D01*
X40245Y-25380D02*
X41070Y-24555D01*
X40245Y-25696D02*
X40245Y-25380D01*
X39907Y-26034D02*
X40245Y-25696D01*
X39795Y-26034D02*
X39907Y-26034D01*
X66003Y-35216D02*
X66003Y-35539D01*
X66503Y-34716D02*
X66003Y-35216D01*
X66503Y-34395D02*
X66503Y-34716D01*
X66812Y-34086D02*
X66503Y-34395D01*
X69224Y-34086D02*
X66812Y-34086D01*
X69503Y-34365D02*
X69224Y-34086D01*
X69503Y-35685D02*
X69503Y-34365D01*
X70033Y-36214D02*
X69503Y-35685D01*
X73370Y-36214D02*
X70033Y-36214D01*
X73753Y-36597D02*
X73370Y-36214D01*
X93867Y-36597D02*
X73753Y-36597D01*
X94925Y-35539D02*
X93867Y-36597D01*
X40795Y-26923D02*
X40795Y-26484D01*
X41412Y-27541D02*
X40795Y-26923D01*
X48036Y-27541D02*
X41412Y-27541D01*
X57087Y-32615D02*
X54139Y-32615D01*
X57412Y-32940D02*
X57087Y-32615D01*
X57682Y-32940D02*
X57412Y-32940D01*
X57932Y-32690D02*
X57682Y-32940D01*
X64120Y-32690D02*
X57932Y-32690D01*
X64293Y-32517D02*
X64120Y-32690D01*
X68180Y-32517D02*
X64293Y-32517D01*
X69529Y-32517D02*
X68180Y-32517D01*
X69858Y-32187D02*
X69529Y-32517D01*
X70759Y-32187D02*
X69858Y-32187D01*
X71055Y-32484D02*
X70759Y-32187D01*
X78084Y-32484D02*
X71055Y-32484D01*
X78384Y-32184D02*
X78084Y-32484D01*
X88747Y-32184D02*
X78384Y-32184D01*
X88835Y-32096D02*
X88747Y-32184D01*
X90800Y-32096D02*
X88835Y-32096D01*
X91089Y-32385D02*
X90800Y-32096D01*
X94486Y-32385D02*
X91089Y-32385D01*
X94530Y-32340D02*
X94486Y-32385D01*
X95001Y-32340D02*
X94530Y-32340D01*
X95459Y-32798D02*
X95001Y-32340D01*
X97262Y-32798D02*
X95459Y-32798D01*
X97460Y-32600D02*
X97262Y-32798D01*
X101654Y-32600D02*
X97460Y-32600D01*
X103397Y-34343D02*
X101654Y-32600D01*
X103397Y-35066D02*
X103397Y-34343D01*
X102925Y-35539D02*
X103397Y-35066D01*
X72820Y-26934D02*
X72370Y-26484D01*
X76205Y-26934D02*
X72820Y-26934D01*
X85456Y-35008D02*
X85925Y-34539D01*
X76535Y-35008D02*
X85456Y-35008D01*
X76003Y-35539D02*
X76535Y-35008D01*
X62454Y-34989D02*
X62003Y-34539D01*
X63190Y-34989D02*
X62454Y-34989D01*
X63503Y-34675D02*
X63190Y-34989D01*
X63503Y-34376D02*
X63503Y-34675D01*
X63791Y-34089D02*
X63503Y-34376D01*
X63953Y-34089D02*
X63791Y-34089D01*
X64558Y-33485D02*
X63953Y-34089D01*
X88504Y-33485D02*
X64558Y-33485D01*
X88629Y-33360D02*
X88504Y-33485D01*
X93072Y-33686D02*
X93925Y-34539D01*
X89140Y-33686D02*
X93072Y-33686D01*
X88814Y-33360D02*
X89140Y-33686D01*
X88629Y-33360D02*
X88814Y-33360D01*
X70520Y-32684D02*
X70368Y-32531D01*
X79351Y-32684D02*
X70520Y-32684D01*
X79633Y-32402D02*
X79351Y-32684D01*
X88812Y-32402D02*
X79633Y-32402D01*
X88918Y-32296D02*
X88812Y-32402D01*
X89519Y-32296D02*
X88918Y-32296D01*
X89808Y-32585D02*
X89519Y-32296D01*
X94568Y-32585D02*
X89808Y-32585D01*
X94613Y-32540D02*
X94568Y-32585D01*
X94918Y-32540D02*
X94613Y-32540D01*
X95377Y-32999D02*
X94918Y-32540D01*
X100421Y-32999D02*
X95377Y-32999D01*
X100491Y-32930D02*
X100421Y-32999D01*
X95793Y-22057D02*
X96610Y-22874D01*
X86758Y-22057D02*
X95793Y-22057D01*
X86110Y-22705D02*
X86758Y-22057D01*
X86110Y-23045D02*
X86110Y-22705D01*
X85820Y-23334D02*
X86110Y-23045D01*
X81283Y-23334D02*
X85820Y-23334D01*
X80822Y-22874D02*
X81283Y-23334D01*
G54D18*
X112925Y-35539D02*
X111925Y-35539D01*
X78003Y-35539D02*
X77003Y-35539D01*
X22079Y-22255D02*
X21460Y-22874D01*
X36659Y-22255D02*
X22079Y-22255D01*
X37262Y-22859D02*
X36659Y-22255D01*
X37848Y-22273D02*
X37262Y-22859D01*
X52470Y-22273D02*
X37848Y-22273D01*
X53035Y-22838D02*
X52470Y-22273D01*
X53035Y-22874D02*
X53035Y-22838D01*
X37262Y-22859D02*
X37248Y-22874D01*
X99425Y-28740D02*
X99425Y-29102D01*
X113525Y-34939D02*
X112925Y-35539D01*
X113525Y-34080D02*
X113525Y-34939D01*
X108546Y-29102D02*
X113525Y-34080D01*
X99425Y-29102D02*
X108546Y-29102D01*
X93089Y-28740D02*
X84070Y-28740D01*
X93902Y-29553D02*
X93089Y-28740D01*
X98974Y-29553D02*
X93902Y-29553D01*
X99425Y-29102D02*
X98974Y-29553D01*
X68071Y-28597D02*
X67929Y-28740D01*
X79436Y-28597D02*
X68071Y-28597D01*
X80917Y-30077D02*
X79436Y-28597D01*
X52315Y-28605D02*
X52181Y-28740D01*
X61931Y-28605D02*
X52315Y-28605D01*
X62873Y-29547D02*
X61931Y-28605D01*
X67121Y-29547D02*
X62873Y-29547D01*
X67929Y-28740D02*
X67121Y-29547D01*
X80948Y-30046D02*
X80917Y-30077D01*
X82764Y-30046D02*
X80948Y-30046D01*
X84070Y-28740D02*
X82764Y-30046D01*
M02*
