G04 (created by PCBNEW (2013-mar-13)-testing) date Tue 23 Sep 2014 01:04:41 PM PDT*
%MOIN*%
G04 Gerber Fmt 3.4, Leading zero omitted, Abs format*
%FSLAX34Y34*%
G01*
G70*
G90*
G04 APERTURE LIST*
%ADD10C,0.005906*%
%ADD11R,0.045000X0.025000*%
%ADD12C,0.065000*%
%ADD13R,0.051200X0.019700*%
%ADD14R,0.030000X0.010000*%
%ADD15R,0.010000X0.030000*%
%ADD16R,0.118100X0.118100*%
%ADD17R,0.025000X0.045000*%
%ADD18R,0.060000X0.060000*%
%ADD19C,0.060000*%
%ADD20C,0.030000*%
%ADD21C,0.007000*%
G04 APERTURE END LIST*
G54D10*
G54D11*
X23897Y-24818D03*
X23897Y-25418D03*
G54D12*
X20669Y-20122D03*
X20669Y-21122D03*
X20669Y-22122D03*
X20669Y-23122D03*
X20669Y-24122D03*
X20669Y-25122D03*
X20669Y-26122D03*
X20669Y-27122D03*
X26574Y-27122D03*
X26574Y-26122D03*
X26574Y-25122D03*
X26574Y-24122D03*
X26574Y-23122D03*
X26574Y-22122D03*
X26574Y-21122D03*
X26574Y-20122D03*
X20669Y-27996D03*
X20669Y-28996D03*
X20669Y-29996D03*
X20669Y-30996D03*
X20669Y-31996D03*
X20669Y-32996D03*
X20669Y-33996D03*
X20669Y-34996D03*
X26574Y-34996D03*
X26574Y-33996D03*
X26574Y-32996D03*
X26574Y-31996D03*
X26574Y-30996D03*
X26574Y-29996D03*
X26574Y-28996D03*
X26574Y-27996D03*
X28543Y-20122D03*
X28543Y-21122D03*
X28543Y-22122D03*
X28543Y-23122D03*
X28543Y-24122D03*
X28543Y-25122D03*
X28543Y-26122D03*
X28543Y-27122D03*
X34448Y-27122D03*
X34448Y-26122D03*
X34448Y-25122D03*
X34448Y-24122D03*
X34448Y-23122D03*
X34448Y-22122D03*
X34448Y-21122D03*
X34448Y-20122D03*
X28543Y-27996D03*
X28543Y-28996D03*
X28543Y-29996D03*
X28543Y-30996D03*
X28543Y-31996D03*
X28543Y-32996D03*
X28543Y-33996D03*
X28543Y-34996D03*
X34448Y-34996D03*
X34448Y-33996D03*
X34448Y-32996D03*
X34448Y-31996D03*
X34448Y-30996D03*
X34448Y-29996D03*
X34448Y-28996D03*
X34448Y-27996D03*
G54D13*
X25157Y-25354D03*
X25157Y-24882D03*
X25157Y-25826D03*
X25492Y-31496D03*
X25492Y-31024D03*
X25492Y-31968D03*
X31003Y-25295D03*
X31003Y-25767D03*
X31003Y-24823D03*
X31102Y-31397D03*
X31102Y-31869D03*
X31102Y-30925D03*
G54D11*
X24015Y-31294D03*
X24015Y-31894D03*
G54D14*
X23228Y-22834D03*
X23228Y-22637D03*
X23228Y-22440D03*
X23228Y-23031D03*
G54D15*
X23523Y-23326D03*
X23720Y-23326D03*
X23917Y-23326D03*
X24114Y-23326D03*
X24310Y-23326D03*
X24507Y-23326D03*
X24704Y-23326D03*
X24901Y-23326D03*
G54D14*
X25196Y-21653D03*
X25196Y-23031D03*
X25196Y-22834D03*
X25196Y-22637D03*
X25196Y-22440D03*
X25196Y-22244D03*
X25196Y-22047D03*
X25196Y-21850D03*
G54D15*
X24901Y-21358D03*
X24704Y-21358D03*
X24507Y-21358D03*
X24310Y-21358D03*
X24114Y-21358D03*
X23917Y-21358D03*
X23720Y-21358D03*
X23523Y-21358D03*
G54D14*
X23228Y-21653D03*
X23228Y-21850D03*
X23228Y-22047D03*
X23228Y-22244D03*
G54D16*
X24212Y-22342D03*
G54D14*
X23228Y-29133D03*
X23228Y-28936D03*
X23228Y-28739D03*
X23228Y-29330D03*
G54D15*
X23523Y-29625D03*
X23720Y-29625D03*
X23917Y-29625D03*
X24114Y-29625D03*
X24310Y-29625D03*
X24507Y-29625D03*
X24704Y-29625D03*
X24901Y-29625D03*
G54D14*
X25196Y-27952D03*
X25196Y-29330D03*
X25196Y-29133D03*
X25196Y-28936D03*
X25196Y-28739D03*
X25196Y-28543D03*
X25196Y-28346D03*
X25196Y-28149D03*
G54D15*
X24901Y-27657D03*
X24704Y-27657D03*
X24507Y-27657D03*
X24310Y-27657D03*
X24114Y-27657D03*
X23917Y-27657D03*
X23720Y-27657D03*
X23523Y-27657D03*
G54D14*
X23228Y-27952D03*
X23228Y-28149D03*
X23228Y-28346D03*
X23228Y-28543D03*
G54D16*
X24212Y-28641D03*
G54D14*
X30315Y-22834D03*
X30315Y-22637D03*
X30315Y-22440D03*
X30315Y-23031D03*
G54D15*
X30610Y-23326D03*
X30807Y-23326D03*
X31004Y-23326D03*
X31201Y-23326D03*
X31397Y-23326D03*
X31594Y-23326D03*
X31791Y-23326D03*
X31988Y-23326D03*
G54D14*
X32283Y-21653D03*
X32283Y-23031D03*
X32283Y-22834D03*
X32283Y-22637D03*
X32283Y-22440D03*
X32283Y-22244D03*
X32283Y-22047D03*
X32283Y-21850D03*
G54D15*
X31988Y-21358D03*
X31791Y-21358D03*
X31594Y-21358D03*
X31397Y-21358D03*
X31201Y-21358D03*
X31004Y-21358D03*
X30807Y-21358D03*
X30610Y-21358D03*
G54D14*
X30315Y-21653D03*
X30315Y-21850D03*
X30315Y-22047D03*
X30315Y-22244D03*
G54D16*
X31299Y-22342D03*
G54D14*
X30315Y-29133D03*
X30315Y-28936D03*
X30315Y-28739D03*
X30315Y-29330D03*
G54D15*
X30610Y-29625D03*
X30807Y-29625D03*
X31004Y-29625D03*
X31201Y-29625D03*
X31397Y-29625D03*
X31594Y-29625D03*
X31791Y-29625D03*
X31988Y-29625D03*
G54D14*
X32283Y-27952D03*
X32283Y-29330D03*
X32283Y-29133D03*
X32283Y-28936D03*
X32283Y-28739D03*
X32283Y-28543D03*
X32283Y-28346D03*
X32283Y-28149D03*
G54D15*
X31988Y-27657D03*
X31791Y-27657D03*
X31594Y-27657D03*
X31397Y-27657D03*
X31201Y-27657D03*
X31004Y-27657D03*
X30807Y-27657D03*
X30610Y-27657D03*
G54D14*
X30315Y-27952D03*
X30315Y-28149D03*
X30315Y-28346D03*
X30315Y-28543D03*
G54D16*
X31299Y-28641D03*
G54D11*
X29724Y-24798D03*
X29724Y-25398D03*
G54D17*
X30802Y-32972D03*
X31402Y-32972D03*
X32613Y-32992D03*
X33213Y-32992D03*
X32574Y-33937D03*
X33174Y-33937D03*
X32849Y-34960D03*
X33449Y-34960D03*
G54D11*
X33661Y-27259D03*
X33661Y-27859D03*
G54D17*
X29925Y-34940D03*
X29325Y-34940D03*
X29925Y-33956D03*
X29325Y-33956D03*
X29827Y-32972D03*
X29227Y-32972D03*
G54D11*
X29429Y-31491D03*
X29429Y-32091D03*
G54D17*
X32888Y-26535D03*
X33488Y-26535D03*
G54D11*
X33661Y-23233D03*
X33661Y-22633D03*
X33661Y-19975D03*
X33661Y-20575D03*
G54D17*
X29522Y-20078D03*
X30122Y-20078D03*
X27259Y-27559D03*
X27859Y-27559D03*
X27259Y-26476D03*
X27859Y-26476D03*
X27259Y-25295D03*
X27859Y-25295D03*
X27259Y-24173D03*
X27859Y-24173D03*
X25290Y-34940D03*
X25890Y-34940D03*
X25290Y-34055D03*
X25890Y-34055D03*
X25290Y-33169D03*
X25890Y-33169D03*
X27859Y-28740D03*
X27259Y-28740D03*
X23922Y-34842D03*
X23322Y-34842D03*
X23922Y-33858D03*
X23322Y-33858D03*
X22347Y-33858D03*
X21747Y-33858D03*
X22347Y-32874D03*
X21747Y-32874D03*
X27859Y-23149D03*
X27259Y-23149D03*
X27859Y-22165D03*
X27259Y-22165D03*
X27859Y-21141D03*
X27259Y-21141D03*
X27859Y-20078D03*
X27259Y-20078D03*
X24748Y-20118D03*
X24148Y-20118D03*
X22051Y-26476D03*
X21451Y-26476D03*
X21992Y-23425D03*
X21392Y-23425D03*
X22150Y-20118D03*
X21550Y-20118D03*
X31402Y-33956D03*
X30802Y-33956D03*
X32180Y-20078D03*
X32780Y-20078D03*
G54D11*
X21456Y-28548D03*
X21456Y-27948D03*
G54D17*
X22928Y-26476D03*
X23528Y-26476D03*
G54D18*
X21744Y-24500D03*
G54D19*
X21744Y-25500D03*
X22744Y-24500D03*
X22744Y-25500D03*
G54D18*
X21744Y-30799D03*
G54D19*
X21744Y-31799D03*
X22744Y-30799D03*
X22744Y-31799D03*
G54D18*
X32374Y-24500D03*
G54D19*
X32374Y-25500D03*
X33374Y-24500D03*
X33374Y-25500D03*
G54D18*
X32374Y-30799D03*
G54D19*
X32374Y-31799D03*
X33374Y-30799D03*
X33374Y-31799D03*
G54D20*
X30212Y-24956D03*
X24466Y-23704D03*
X27850Y-25753D03*
X31241Y-27050D03*
X22082Y-20569D03*
X22038Y-22649D03*
X24634Y-20983D03*
X23263Y-23581D03*
X25015Y-20987D03*
X23720Y-23754D03*
X26982Y-29391D03*
X23745Y-30079D03*
X29455Y-20831D03*
X30415Y-23763D03*
X32849Y-27884D03*
X30926Y-29998D03*
X27846Y-21597D03*
X26941Y-24622D03*
X32744Y-32442D03*
X32529Y-29725D03*
X25015Y-31910D03*
X25454Y-29586D03*
X24933Y-32316D03*
X25467Y-29978D03*
X25745Y-21878D03*
X25678Y-28372D03*
X33307Y-21985D03*
X32716Y-28255D03*
X25174Y-27678D03*
X25933Y-20758D03*
X32607Y-21434D03*
X32449Y-27223D03*
X29733Y-21275D03*
X32729Y-21834D03*
X29044Y-22845D03*
X29796Y-20644D03*
X32025Y-32283D03*
X29658Y-29990D03*
X21976Y-27561D03*
X22703Y-21864D03*
X22751Y-28392D03*
X29875Y-22065D03*
X29354Y-29543D03*
X22800Y-22244D03*
X22227Y-29266D03*
X29699Y-22413D03*
X25895Y-22631D03*
X25634Y-22251D03*
X33681Y-22145D03*
X31716Y-27281D03*
X25175Y-21354D03*
X25330Y-26601D03*
X32412Y-20776D03*
X27417Y-26940D03*
X24440Y-27134D03*
X24145Y-26226D03*
X30238Y-27146D03*
X30055Y-26636D03*
X26061Y-32715D03*
X25451Y-32346D03*
X31823Y-20078D03*
X23128Y-20216D03*
X21420Y-20570D03*
G54D21*
X24114Y-29625D02*
X24114Y-29845D01*
X24015Y-31294D02*
X24015Y-31064D01*
X24704Y-21358D02*
X24704Y-21578D01*
X24310Y-21546D02*
X24310Y-21358D01*
X24377Y-21613D02*
X24310Y-21546D01*
X24669Y-21613D02*
X24377Y-21613D01*
X24704Y-21578D02*
X24669Y-21613D01*
X24507Y-23326D02*
X24507Y-23071D01*
X24838Y-23071D02*
X24507Y-23071D01*
X24908Y-23002D02*
X24838Y-23071D01*
X24908Y-21702D02*
X24908Y-23002D01*
X24819Y-21613D02*
X24908Y-21702D01*
X24739Y-21613D02*
X24819Y-21613D01*
X24704Y-21578D02*
X24739Y-21613D01*
X24507Y-23326D02*
X24507Y-23581D01*
X24114Y-23326D02*
X24114Y-23581D01*
X31791Y-27657D02*
X31791Y-27912D01*
X31915Y-21613D02*
X31791Y-21613D01*
X31994Y-21692D02*
X31915Y-21613D01*
X31994Y-22995D02*
X31994Y-21692D01*
X31918Y-23071D02*
X31994Y-22995D01*
X31594Y-23071D02*
X31918Y-23071D01*
X24507Y-29625D02*
X24507Y-29880D01*
X24435Y-29880D02*
X24292Y-30023D01*
X24507Y-29880D02*
X24435Y-29880D01*
X24292Y-30787D02*
X24292Y-30023D01*
X24015Y-31064D02*
X24292Y-30787D01*
X24292Y-30023D02*
X24114Y-29845D01*
X31594Y-29880D02*
X31201Y-29880D01*
X31594Y-29625D02*
X31594Y-29880D01*
X31201Y-29625D02*
X31201Y-29880D01*
X30802Y-33956D02*
X30802Y-32972D01*
X31201Y-30319D02*
X31201Y-29880D01*
X30596Y-30924D02*
X31201Y-30319D01*
X30596Y-32436D02*
X30596Y-30924D01*
X30802Y-32642D02*
X30596Y-32436D01*
X30802Y-32972D02*
X30802Y-32642D01*
X31464Y-27912D02*
X31791Y-27912D01*
X31397Y-27845D02*
X31464Y-27912D01*
X31397Y-27657D02*
X31397Y-27845D01*
X31925Y-29370D02*
X31594Y-29370D01*
X31994Y-29301D02*
X31925Y-29370D01*
X31994Y-28004D02*
X31994Y-29301D01*
X31903Y-27912D02*
X31994Y-28004D01*
X31791Y-27912D02*
X31903Y-27912D01*
X31594Y-29625D02*
X31594Y-29370D01*
X31791Y-21358D02*
X31791Y-21578D01*
X31791Y-21578D02*
X31791Y-21613D01*
X31397Y-21538D02*
X31397Y-21358D01*
X31472Y-21613D02*
X31397Y-21538D01*
X31791Y-21613D02*
X31472Y-21613D01*
X32780Y-20078D02*
X32550Y-20078D01*
X24838Y-29370D02*
X24507Y-29370D01*
X24908Y-29301D02*
X24838Y-29370D01*
X24908Y-28002D02*
X24908Y-29301D01*
X24818Y-27912D02*
X24908Y-28002D01*
X24704Y-27912D02*
X24818Y-27912D01*
X24704Y-27657D02*
X24704Y-27912D01*
X24507Y-29625D02*
X24507Y-29370D01*
X31594Y-23234D02*
X31594Y-23071D01*
X21456Y-27948D02*
X21456Y-27717D01*
X21744Y-24500D02*
X22149Y-24500D01*
X23897Y-24818D02*
X23567Y-24818D01*
X21868Y-27306D02*
X21456Y-27717D01*
X22612Y-27306D02*
X21868Y-27306D01*
X23298Y-26620D02*
X22612Y-27306D01*
X23298Y-26476D02*
X23298Y-26620D01*
X23528Y-26476D02*
X23298Y-26476D01*
X23528Y-26476D02*
X23528Y-26146D01*
X29724Y-24798D02*
X30054Y-24798D01*
X31594Y-23234D02*
X31594Y-23326D01*
X31594Y-23326D02*
X31594Y-23581D01*
X31201Y-23326D02*
X31201Y-23549D01*
X31594Y-23581D02*
X31233Y-23581D01*
X31201Y-23549D02*
X31233Y-23581D01*
X31201Y-23549D02*
X31201Y-23549D01*
X30054Y-24798D02*
X30212Y-24956D01*
X31233Y-23619D02*
X30054Y-24798D01*
X31233Y-23581D02*
X31233Y-23619D01*
X24135Y-23602D02*
X24466Y-23602D01*
X24114Y-23581D02*
X24135Y-23602D01*
X24486Y-23602D02*
X24507Y-23581D01*
X24466Y-23602D02*
X24486Y-23602D01*
X24466Y-23704D02*
X24466Y-23602D01*
X24704Y-27657D02*
X24704Y-27402D01*
X24377Y-27912D02*
X24704Y-27912D01*
X24310Y-27845D02*
X24377Y-27912D01*
X24310Y-27657D02*
X24310Y-27845D01*
X27786Y-25689D02*
X27850Y-25753D01*
X25880Y-25689D02*
X27786Y-25689D01*
X24704Y-26866D02*
X25880Y-25689D01*
X24704Y-26866D02*
X24704Y-27402D01*
X24148Y-26866D02*
X24704Y-26866D01*
X23758Y-26476D02*
X24148Y-26866D01*
X23528Y-26476D02*
X23758Y-26476D01*
X31791Y-21036D02*
X31791Y-21358D01*
X32550Y-20277D02*
X31791Y-21036D01*
X32550Y-20078D02*
X32550Y-20277D01*
X23476Y-26094D02*
X23476Y-24909D01*
X23528Y-26146D02*
X23476Y-26094D01*
X22558Y-24909D02*
X23476Y-24909D01*
X22149Y-24500D02*
X22558Y-24909D01*
X23476Y-24909D02*
X23567Y-24818D01*
X31397Y-27206D02*
X31397Y-27657D01*
X31241Y-27050D02*
X31397Y-27206D01*
X22961Y-22649D02*
X22973Y-22637D01*
X22038Y-22649D02*
X22961Y-22649D01*
X23228Y-22637D02*
X22973Y-22637D01*
X22082Y-20516D02*
X22082Y-20569D01*
X22150Y-20448D02*
X22082Y-20516D01*
X22150Y-20118D02*
X22150Y-20448D01*
X22347Y-32874D02*
X22347Y-32543D01*
X23051Y-28936D02*
X23228Y-28936D01*
X22780Y-29207D02*
X23051Y-28936D01*
X22780Y-29551D02*
X22780Y-29207D01*
X22312Y-30019D02*
X22780Y-29551D01*
X22312Y-32509D02*
X22312Y-30019D01*
X22347Y-32543D02*
X22312Y-32509D01*
X29009Y-23687D02*
X30060Y-22637D01*
X27830Y-23687D02*
X29009Y-23687D01*
X27489Y-24029D02*
X27830Y-23687D01*
X27489Y-24173D02*
X27489Y-24029D01*
X27259Y-24173D02*
X27489Y-24173D01*
X30315Y-22637D02*
X30060Y-22637D01*
X30150Y-28936D02*
X30315Y-28936D01*
X29917Y-29169D02*
X30150Y-28936D01*
X29917Y-30772D02*
X29917Y-29169D01*
X29429Y-31261D02*
X29917Y-30772D01*
X29429Y-31491D02*
X29429Y-31261D01*
X21992Y-23425D02*
X22223Y-23425D01*
X22813Y-22834D02*
X23228Y-22834D01*
X22223Y-23425D02*
X22813Y-22834D01*
X23052Y-29133D02*
X23228Y-29133D01*
X22973Y-29212D02*
X23052Y-29133D01*
X22973Y-30394D02*
X22973Y-29212D01*
X23150Y-30571D02*
X22973Y-30394D01*
X23150Y-33284D02*
X23150Y-30571D01*
X22577Y-33858D02*
X23150Y-33284D01*
X22347Y-33858D02*
X22577Y-33858D01*
X30156Y-22834D02*
X30315Y-22834D01*
X30019Y-22971D02*
X30156Y-22834D01*
X30019Y-23257D02*
X30019Y-22971D01*
X28663Y-24613D02*
X30019Y-23257D01*
X28027Y-24613D02*
X28663Y-24613D01*
X27489Y-25151D02*
X28027Y-24613D01*
X27489Y-25295D02*
X27489Y-25151D01*
X27259Y-25295D02*
X27489Y-25295D01*
X29827Y-32972D02*
X29827Y-32642D01*
X30156Y-29133D02*
X30315Y-29133D01*
X30058Y-29232D02*
X30156Y-29133D01*
X30058Y-32411D02*
X30058Y-29232D01*
X29827Y-32642D02*
X30058Y-32411D01*
X21947Y-24057D02*
X22973Y-23031D01*
X21407Y-24057D02*
X21947Y-24057D01*
X21338Y-24125D02*
X21407Y-24057D01*
X21338Y-25763D02*
X21338Y-24125D01*
X21821Y-26246D02*
X21338Y-25763D01*
X21821Y-26476D02*
X21821Y-26246D01*
X22051Y-26476D02*
X21821Y-26476D01*
X23228Y-23031D02*
X22973Y-23031D01*
X23349Y-29452D02*
X23228Y-29330D01*
X23349Y-33286D02*
X23349Y-29452D01*
X23691Y-33628D02*
X23349Y-33286D01*
X23691Y-33858D02*
X23691Y-33628D01*
X23922Y-33858D02*
X23691Y-33858D01*
X27259Y-26476D02*
X27489Y-26476D01*
X30315Y-23273D02*
X30315Y-23031D01*
X29001Y-24586D02*
X30315Y-23273D01*
X29001Y-25284D02*
X29001Y-24586D01*
X28663Y-25622D02*
X29001Y-25284D01*
X28343Y-25622D02*
X28663Y-25622D01*
X27956Y-26009D02*
X28343Y-25622D01*
X27823Y-26009D02*
X27956Y-26009D01*
X27489Y-26343D02*
X27823Y-26009D01*
X27489Y-26476D02*
X27489Y-26343D01*
X29925Y-33956D02*
X29925Y-33626D01*
X30198Y-33354D02*
X29925Y-33626D01*
X30198Y-29447D02*
X30198Y-33354D01*
X30315Y-29330D02*
X30198Y-29447D01*
X23523Y-23326D02*
X23523Y-23581D01*
X23523Y-23581D02*
X23263Y-23581D01*
X24748Y-20869D02*
X24634Y-20983D01*
X24748Y-20118D02*
X24748Y-20869D01*
X23922Y-34842D02*
X24152Y-34842D01*
X23523Y-29625D02*
X23523Y-29880D01*
X23490Y-29914D02*
X23523Y-29880D01*
X23490Y-32100D02*
X23490Y-29914D01*
X24152Y-32762D02*
X23490Y-32100D01*
X24152Y-34842D02*
X24152Y-32762D01*
X30460Y-23326D02*
X30610Y-23326D01*
X29148Y-24638D02*
X30460Y-23326D01*
X29148Y-26127D02*
X29148Y-24638D01*
X28653Y-26622D02*
X29148Y-26127D01*
X28289Y-26622D02*
X28653Y-26622D01*
X27489Y-27422D02*
X28289Y-26622D01*
X27489Y-27559D02*
X27489Y-27422D01*
X27259Y-27559D02*
X27489Y-27559D01*
X30455Y-30035D02*
X30610Y-29880D01*
X30455Y-34641D02*
X30455Y-30035D01*
X30156Y-34940D02*
X30455Y-34641D01*
X29925Y-34940D02*
X30156Y-34940D01*
X30610Y-29625D02*
X30610Y-29880D01*
X23720Y-23754D02*
X23720Y-23326D01*
X27859Y-20078D02*
X27628Y-20078D01*
X25502Y-20501D02*
X25015Y-20987D01*
X26256Y-20501D02*
X25502Y-20501D01*
X26311Y-20556D02*
X26256Y-20501D01*
X27294Y-20556D02*
X26311Y-20556D01*
X27628Y-20221D02*
X27294Y-20556D01*
X27628Y-20078D02*
X27628Y-20221D01*
X27859Y-28740D02*
X27628Y-28740D01*
X27114Y-29391D02*
X26982Y-29391D01*
X27628Y-28876D02*
X27114Y-29391D01*
X27628Y-28740D02*
X27628Y-28876D01*
X23720Y-30054D02*
X23745Y-30079D01*
X23720Y-29625D02*
X23720Y-30054D01*
X30596Y-23581D02*
X30415Y-23763D01*
X30807Y-23581D02*
X30596Y-23581D01*
X29522Y-20078D02*
X29522Y-20408D01*
X29455Y-20476D02*
X29455Y-20831D01*
X29522Y-20408D02*
X29455Y-20476D01*
X30807Y-23326D02*
X30807Y-23581D01*
X30808Y-29880D02*
X30926Y-29998D01*
X30807Y-29880D02*
X30808Y-29880D01*
X33661Y-27259D02*
X33331Y-27259D01*
X30807Y-29625D02*
X30807Y-29880D01*
X33331Y-27403D02*
X32849Y-27884D01*
X33331Y-27259D02*
X33331Y-27403D01*
X25451Y-23607D02*
X25451Y-23031D01*
X26465Y-24622D02*
X25451Y-23607D01*
X26941Y-24622D02*
X26465Y-24622D01*
X25196Y-23031D02*
X25451Y-23031D01*
X27859Y-21584D02*
X27846Y-21597D01*
X27859Y-21141D02*
X27859Y-21584D01*
X25290Y-33169D02*
X25290Y-32839D01*
X25323Y-32839D02*
X25290Y-32839D01*
X25993Y-32169D02*
X25323Y-32839D01*
X25993Y-31015D02*
X25993Y-32169D01*
X25196Y-30218D02*
X25993Y-31015D01*
X25196Y-29330D02*
X25196Y-30218D01*
X32783Y-23531D02*
X32283Y-23031D01*
X32783Y-25955D02*
X32783Y-23531D01*
X32658Y-26079D02*
X32783Y-25955D01*
X32658Y-26834D02*
X32658Y-26079D01*
X32702Y-26877D02*
X32658Y-26834D01*
X33713Y-26877D02*
X32702Y-26877D01*
X33969Y-26622D02*
X33713Y-26877D01*
X34576Y-26622D02*
X33969Y-26622D01*
X35058Y-26140D02*
X34576Y-26622D01*
X35058Y-21122D02*
X35058Y-26140D01*
X34557Y-20622D02*
X35058Y-21122D01*
X34307Y-20622D02*
X34557Y-20622D01*
X33891Y-20205D02*
X34307Y-20622D01*
X33661Y-20205D02*
X33891Y-20205D01*
X33661Y-19975D02*
X33661Y-20205D01*
X32653Y-32442D02*
X32744Y-32442D01*
X32363Y-32732D02*
X32653Y-32442D01*
X32363Y-33247D02*
X32363Y-32732D01*
X32512Y-33396D02*
X32363Y-33247D01*
X32561Y-33396D02*
X32512Y-33396D01*
X32849Y-33684D02*
X32561Y-33396D01*
X32849Y-34960D02*
X32849Y-33684D01*
X32283Y-29478D02*
X32529Y-29725D01*
X32283Y-29330D02*
X32283Y-29478D01*
X25502Y-22834D02*
X25196Y-22834D01*
X26220Y-23552D02*
X25502Y-22834D01*
X27370Y-23552D02*
X26220Y-23552D01*
X27430Y-23491D02*
X27370Y-23552D01*
X28039Y-23491D02*
X27430Y-23491D01*
X28089Y-23442D02*
X28039Y-23491D01*
X28089Y-22165D02*
X28089Y-23442D01*
X27859Y-22165D02*
X28089Y-22165D01*
X25196Y-29133D02*
X25451Y-29133D01*
X25290Y-34055D02*
X25060Y-34055D01*
X24894Y-33888D02*
X25060Y-34055D01*
X24894Y-32777D02*
X24894Y-33888D01*
X25188Y-32483D02*
X24894Y-32777D01*
X25188Y-32210D02*
X25188Y-32483D01*
X25015Y-32037D02*
X25188Y-32210D01*
X25015Y-32037D02*
X25015Y-32037D01*
X25015Y-31910D02*
X25015Y-32037D01*
X25451Y-29584D02*
X25454Y-29586D01*
X25451Y-29133D02*
X25451Y-29584D01*
X32283Y-22834D02*
X32538Y-22834D01*
X32936Y-23233D02*
X32538Y-22834D01*
X33661Y-23233D02*
X32936Y-23233D01*
X32574Y-33937D02*
X32574Y-33606D01*
X32524Y-33606D02*
X32574Y-33606D01*
X32223Y-33306D02*
X32524Y-33606D01*
X32223Y-32602D02*
X32223Y-33306D01*
X32786Y-32039D02*
X32223Y-32602D01*
X32786Y-29469D02*
X32786Y-32039D01*
X32451Y-29133D02*
X32786Y-29469D01*
X32283Y-29133D02*
X32451Y-29133D01*
X27859Y-23149D02*
X27628Y-23149D01*
X25196Y-22637D02*
X25451Y-22637D01*
X27628Y-23005D02*
X27628Y-23149D01*
X27296Y-22673D02*
X27628Y-23005D01*
X26383Y-22673D02*
X27296Y-22673D01*
X26168Y-22889D02*
X26383Y-22673D01*
X25792Y-22889D02*
X26168Y-22889D01*
X25550Y-22646D02*
X25792Y-22889D01*
X25461Y-22646D02*
X25550Y-22646D01*
X25451Y-22637D02*
X25461Y-22646D01*
X25290Y-34940D02*
X25060Y-34940D01*
X24750Y-34630D02*
X25060Y-34940D01*
X24750Y-32500D02*
X24750Y-34630D01*
X24933Y-32316D02*
X24750Y-32500D01*
X25725Y-29719D02*
X25467Y-29978D01*
X25725Y-29201D02*
X25725Y-29719D01*
X25461Y-28936D02*
X25725Y-29201D01*
X25196Y-28936D02*
X25461Y-28936D01*
X32769Y-22637D02*
X32283Y-22637D01*
X33134Y-23002D02*
X32769Y-22637D01*
X33929Y-23002D02*
X33134Y-23002D01*
X33991Y-23064D02*
X33929Y-23002D01*
X33991Y-23403D02*
X33991Y-23064D01*
X33782Y-23612D02*
X33991Y-23403D01*
X33782Y-25684D02*
X33782Y-23612D01*
X33119Y-26348D02*
X33782Y-25684D01*
X33119Y-26535D02*
X33119Y-26348D01*
X32888Y-26535D02*
X33119Y-26535D01*
X32613Y-32992D02*
X32843Y-32992D01*
X32283Y-28936D02*
X32538Y-28936D01*
X32928Y-29326D02*
X32538Y-28936D01*
X32928Y-32266D02*
X32928Y-29326D01*
X32999Y-32336D02*
X32928Y-32266D01*
X32999Y-32548D02*
X32999Y-32336D01*
X32843Y-32704D02*
X32999Y-32548D01*
X32843Y-32992D02*
X32843Y-32704D01*
X25478Y-22047D02*
X25196Y-22047D01*
X25647Y-21878D02*
X25478Y-22047D01*
X25745Y-21878D02*
X25647Y-21878D01*
X25477Y-28372D02*
X25451Y-28346D01*
X25678Y-28372D02*
X25477Y-28372D01*
X25196Y-28346D02*
X25451Y-28346D01*
X32283Y-22047D02*
X32538Y-22047D01*
X33197Y-22094D02*
X33307Y-21985D01*
X32585Y-22094D02*
X33197Y-22094D01*
X32538Y-22047D02*
X32585Y-22094D01*
X32624Y-28346D02*
X32716Y-28255D01*
X32283Y-28346D02*
X32624Y-28346D01*
X25245Y-21653D02*
X25196Y-21653D01*
X25933Y-20964D02*
X25245Y-21653D01*
X25933Y-20758D02*
X25933Y-20964D01*
X25196Y-27700D02*
X25174Y-27678D01*
X25196Y-27952D02*
X25196Y-27700D01*
X32538Y-21504D02*
X32538Y-21653D01*
X32607Y-21434D02*
X32538Y-21504D01*
X32283Y-21653D02*
X32538Y-21653D01*
X32283Y-27388D02*
X32449Y-27223D01*
X32283Y-27952D02*
X32283Y-27388D01*
X25196Y-21850D02*
X25451Y-21850D01*
X29320Y-21275D02*
X29733Y-21275D01*
X28730Y-20685D02*
X29320Y-21275D01*
X27811Y-20685D02*
X28730Y-20685D01*
X27628Y-20867D02*
X27811Y-20685D01*
X27628Y-21293D02*
X27628Y-20867D01*
X27357Y-21564D02*
X27628Y-21293D01*
X25690Y-21564D02*
X27357Y-21564D01*
X25451Y-21803D02*
X25690Y-21564D01*
X25451Y-21850D02*
X25451Y-21803D01*
X32283Y-21850D02*
X32538Y-21850D01*
X32713Y-21850D02*
X32729Y-21834D01*
X32538Y-21850D02*
X32713Y-21850D01*
X32374Y-24500D02*
X32374Y-24905D01*
X31965Y-25313D02*
X31965Y-26349D01*
X32374Y-24905D02*
X31965Y-25313D01*
X32458Y-28149D02*
X32283Y-28149D01*
X32594Y-28013D02*
X32458Y-28149D01*
X32594Y-27590D02*
X32594Y-28013D01*
X32705Y-27480D02*
X32594Y-27590D01*
X32705Y-27089D02*
X32705Y-27480D01*
X31965Y-26349D02*
X32705Y-27089D01*
X25541Y-28149D02*
X25196Y-28149D01*
X26131Y-27559D02*
X25541Y-28149D01*
X26746Y-27559D02*
X26131Y-27559D01*
X27085Y-27898D02*
X26746Y-27559D01*
X28033Y-27898D02*
X27085Y-27898D01*
X28378Y-27552D02*
X28033Y-27898D01*
X28788Y-27552D02*
X28378Y-27552D01*
X29449Y-26891D02*
X28788Y-27552D01*
X31040Y-26891D02*
X29449Y-26891D01*
X31582Y-26349D02*
X31040Y-26891D01*
X31965Y-26349D02*
X31582Y-26349D01*
X30315Y-22440D02*
X30060Y-22440D01*
X29641Y-22845D02*
X29044Y-22845D01*
X30005Y-22482D02*
X29641Y-22845D01*
X30018Y-22482D02*
X30005Y-22482D01*
X30060Y-22440D02*
X30018Y-22482D01*
X32180Y-20078D02*
X32180Y-20408D01*
X31945Y-20644D02*
X29796Y-20644D01*
X32180Y-20408D02*
X31945Y-20644D01*
X22744Y-25962D02*
X22744Y-25500D01*
X22928Y-26146D02*
X22744Y-25962D01*
X22928Y-26476D02*
X22928Y-26476D01*
X22928Y-26476D02*
X22928Y-26146D01*
X22585Y-26819D02*
X22928Y-26476D01*
X21168Y-26819D02*
X22585Y-26819D01*
X20971Y-26622D02*
X21168Y-26819D01*
X20559Y-26622D02*
X20971Y-26622D01*
X20219Y-26282D02*
X20559Y-26622D01*
X20219Y-23952D02*
X20219Y-26282D01*
X20618Y-23553D02*
X20219Y-23952D01*
X20846Y-23553D02*
X20618Y-23553D01*
X21131Y-23268D02*
X20846Y-23553D01*
X21131Y-23168D02*
X21131Y-23268D01*
X21905Y-22394D02*
X21131Y-23168D01*
X22144Y-22394D02*
X21905Y-22394D01*
X22257Y-22507D02*
X22144Y-22394D01*
X22899Y-22507D02*
X22257Y-22507D01*
X22965Y-22440D02*
X22899Y-22507D01*
X23228Y-22440D02*
X22965Y-22440D01*
X21644Y-32321D02*
X22117Y-32321D01*
X20828Y-31505D02*
X21644Y-32321D01*
X20567Y-31505D02*
X20828Y-31505D01*
X20236Y-31174D02*
X20567Y-31505D01*
X20236Y-29809D02*
X20236Y-31174D01*
X20550Y-29496D02*
X20236Y-29809D01*
X20791Y-29496D02*
X20550Y-29496D01*
X21456Y-28831D02*
X20791Y-29496D01*
X21456Y-28548D02*
X21456Y-28831D01*
X22117Y-33151D02*
X22117Y-32321D01*
X22169Y-33204D02*
X22117Y-33151D01*
X22535Y-33204D02*
X22169Y-33204D01*
X22744Y-32995D02*
X22535Y-33204D01*
X22744Y-31799D02*
X22744Y-32995D01*
X23228Y-28739D02*
X22973Y-28739D01*
X22640Y-29072D02*
X22973Y-28739D01*
X22640Y-29493D02*
X22640Y-29072D01*
X22172Y-29961D02*
X22640Y-29493D01*
X22172Y-32266D02*
X22172Y-29961D01*
X22117Y-32321D02*
X22172Y-32266D01*
X31402Y-33956D02*
X31632Y-33956D01*
X32025Y-32283D02*
X32025Y-32283D01*
X32025Y-33563D02*
X32025Y-32283D01*
X31632Y-33956D02*
X32025Y-33563D01*
X30116Y-28739D02*
X30315Y-28739D01*
X29749Y-29106D02*
X30116Y-28739D01*
X29749Y-29899D02*
X29749Y-29106D01*
X29658Y-29990D02*
X29749Y-29899D01*
X20669Y-20220D02*
X20669Y-20122D01*
X21392Y-20943D02*
X20669Y-20220D01*
X23596Y-20943D02*
X21392Y-20943D01*
X23720Y-21067D02*
X23596Y-20943D01*
X23720Y-21358D02*
X23720Y-21067D01*
X23720Y-27657D02*
X23720Y-27402D01*
X23139Y-27561D02*
X21976Y-27561D01*
X23298Y-27402D02*
X23139Y-27561D01*
X23720Y-27402D02*
X23298Y-27402D01*
X30807Y-21358D02*
X30807Y-21103D01*
X30706Y-21003D02*
X30807Y-21103D01*
X29644Y-21003D02*
X30706Y-21003D01*
X29561Y-21086D02*
X29644Y-21003D01*
X29349Y-21086D02*
X29561Y-21086D01*
X28543Y-20280D02*
X29349Y-21086D01*
X28543Y-20122D02*
X28543Y-20280D01*
X29136Y-27402D02*
X28543Y-27996D01*
X30807Y-27402D02*
X29136Y-27402D01*
X30807Y-27657D02*
X30807Y-27402D01*
X20687Y-21103D02*
X20669Y-21122D01*
X23523Y-21103D02*
X20687Y-21103D01*
X23523Y-21358D02*
X23523Y-21103D01*
X20669Y-28825D02*
X20669Y-28996D01*
X21225Y-28268D02*
X20669Y-28825D01*
X21895Y-28268D02*
X21225Y-28268D01*
X22462Y-27701D02*
X21895Y-28268D01*
X23479Y-27701D02*
X22462Y-27701D01*
X23523Y-27657D02*
X23479Y-27701D01*
X30010Y-21358D02*
X30610Y-21358D01*
X29839Y-21530D02*
X30010Y-21358D01*
X28951Y-21530D02*
X29839Y-21530D01*
X28543Y-21122D02*
X28951Y-21530D01*
X29881Y-27657D02*
X28543Y-28996D01*
X30610Y-27657D02*
X29881Y-27657D01*
X21334Y-21456D02*
X20669Y-22122D01*
X23031Y-21456D02*
X21334Y-21456D01*
X23228Y-21653D02*
X23031Y-21456D01*
X23228Y-27952D02*
X22973Y-27952D01*
X20669Y-29890D02*
X20669Y-29996D01*
X22607Y-27952D02*
X20669Y-29890D01*
X22973Y-27952D02*
X22607Y-27952D01*
X30043Y-21670D02*
X30060Y-21653D01*
X28995Y-21670D02*
X30043Y-21670D01*
X28543Y-22122D02*
X28995Y-21670D01*
X30315Y-21653D02*
X30060Y-21653D01*
X30315Y-27952D02*
X30060Y-27952D01*
X28543Y-29796D02*
X28543Y-29996D01*
X28994Y-29344D02*
X28543Y-29796D01*
X28994Y-28961D02*
X28994Y-29344D01*
X30004Y-27952D02*
X28994Y-28961D01*
X30060Y-27952D02*
X30004Y-27952D01*
X22186Y-21604D02*
X20669Y-23122D01*
X22830Y-21604D02*
X22186Y-21604D01*
X22973Y-21747D02*
X22830Y-21604D01*
X22973Y-21850D02*
X22973Y-21747D01*
X23228Y-21850D02*
X22973Y-21850D01*
X23228Y-28149D02*
X22973Y-28149D01*
X22961Y-28137D02*
X22973Y-28149D01*
X22645Y-28137D02*
X22961Y-28137D01*
X21749Y-29033D02*
X22645Y-28137D01*
X21749Y-29916D02*
X21749Y-29033D01*
X20669Y-30996D02*
X21749Y-29916D01*
X30315Y-21850D02*
X30060Y-21850D01*
X30020Y-21810D02*
X30060Y-21850D01*
X29719Y-21810D02*
X30020Y-21810D01*
X28543Y-22986D02*
X29719Y-21810D01*
X28543Y-23122D02*
X28543Y-22986D01*
X30315Y-28149D02*
X30060Y-28149D01*
X28543Y-30604D02*
X28543Y-30996D01*
X29037Y-30110D02*
X28543Y-30604D01*
X29037Y-29500D02*
X29037Y-30110D01*
X29176Y-29360D02*
X29037Y-29500D01*
X29176Y-28983D02*
X29176Y-29360D01*
X30010Y-28149D02*
X29176Y-28983D01*
X30060Y-28149D02*
X30010Y-28149D01*
X22781Y-21864D02*
X22703Y-21864D01*
X22964Y-22047D02*
X22781Y-21864D01*
X23228Y-22047D02*
X22964Y-22047D01*
X22797Y-28346D02*
X22751Y-28392D01*
X23228Y-28346D02*
X22797Y-28346D01*
X30315Y-22047D02*
X30060Y-22047D01*
X29893Y-22047D02*
X29875Y-22065D01*
X30060Y-22047D02*
X29893Y-22047D01*
X30049Y-28346D02*
X30315Y-28346D01*
X29354Y-29041D02*
X30049Y-28346D01*
X29354Y-29543D02*
X29354Y-29041D01*
X23228Y-22244D02*
X22800Y-22244D01*
X22961Y-28543D02*
X23228Y-28543D01*
X22238Y-29266D02*
X22961Y-28543D01*
X22227Y-29266D02*
X22238Y-29266D01*
X30056Y-22244D02*
X30315Y-22244D01*
X29980Y-22320D02*
X30056Y-22244D01*
X29792Y-22320D02*
X29980Y-22320D01*
X29699Y-22413D02*
X29792Y-22320D01*
X30315Y-28543D02*
X30060Y-28543D01*
X29609Y-28994D02*
X30060Y-28543D01*
X29609Y-29649D02*
X29609Y-28994D01*
X29332Y-29927D02*
X29609Y-29649D01*
X29332Y-30105D02*
X29332Y-29927D01*
X29098Y-30338D02*
X29332Y-30105D01*
X29098Y-31673D02*
X29098Y-30338D01*
X29216Y-31791D02*
X29098Y-31673D01*
X29655Y-31791D02*
X29216Y-31791D01*
X29772Y-31908D02*
X29655Y-31791D01*
X29772Y-32261D02*
X29772Y-31908D01*
X29597Y-32436D02*
X29772Y-32261D01*
X29597Y-35129D02*
X29597Y-32436D01*
X29766Y-35299D02*
X29597Y-35129D01*
X33618Y-35299D02*
X29766Y-35299D01*
X33869Y-35047D02*
X33618Y-35299D01*
X33869Y-33848D02*
X33869Y-35047D01*
X34448Y-33269D02*
X33869Y-33848D01*
X34448Y-32996D02*
X34448Y-33269D01*
X25196Y-22440D02*
X25451Y-22440D01*
X25770Y-22506D02*
X25895Y-22631D01*
X25528Y-22506D02*
X25770Y-22506D01*
X25462Y-22440D02*
X25528Y-22506D01*
X25451Y-22440D02*
X25462Y-22440D01*
X27005Y-33565D02*
X26574Y-33996D01*
X27005Y-31803D02*
X27005Y-33565D01*
X26693Y-31491D02*
X27005Y-31803D01*
X26460Y-31491D02*
X26693Y-31491D01*
X26144Y-31175D02*
X26460Y-31491D01*
X26144Y-29384D02*
X26144Y-31175D01*
X25528Y-28768D02*
X26144Y-29384D01*
X25480Y-28768D02*
X25528Y-28768D01*
X25451Y-28739D02*
X25480Y-28768D01*
X25196Y-28739D02*
X25451Y-28739D01*
X32283Y-22440D02*
X32538Y-22440D01*
X34901Y-25668D02*
X34448Y-26122D01*
X34901Y-21964D02*
X34901Y-25668D01*
X34619Y-21681D02*
X34901Y-21964D01*
X34251Y-21681D02*
X34619Y-21681D01*
X33956Y-21977D02*
X34251Y-21681D01*
X33956Y-22231D02*
X33956Y-21977D01*
X33786Y-22400D02*
X33956Y-22231D01*
X32578Y-22400D02*
X33786Y-22400D01*
X32538Y-22440D02*
X32578Y-22400D01*
X33576Y-28739D02*
X32283Y-28739D01*
X33759Y-28556D02*
X33576Y-28739D01*
X34619Y-28556D02*
X33759Y-28556D01*
X35176Y-29114D02*
X34619Y-28556D01*
X35176Y-33268D02*
X35176Y-29114D01*
X34448Y-33996D02*
X35176Y-33268D01*
X25627Y-22244D02*
X25634Y-22251D01*
X25196Y-22244D02*
X25627Y-22244D01*
X27312Y-34258D02*
X26574Y-34996D01*
X27312Y-30100D02*
X27312Y-34258D01*
X26757Y-29545D02*
X27312Y-30100D01*
X26510Y-29545D02*
X26757Y-29545D01*
X25593Y-28627D02*
X26510Y-29545D01*
X25573Y-28627D02*
X25593Y-28627D01*
X25489Y-28543D02*
X25573Y-28627D01*
X25196Y-28543D02*
X25489Y-28543D01*
X33581Y-22244D02*
X33681Y-22145D01*
X32283Y-22244D02*
X33581Y-22244D01*
X32283Y-28543D02*
X32538Y-28543D01*
X32788Y-28543D02*
X32538Y-28543D01*
X33297Y-28034D02*
X32788Y-28543D01*
X33297Y-27698D02*
X33297Y-28034D01*
X33437Y-27559D02*
X33297Y-27698D01*
X34623Y-27559D02*
X33437Y-27559D01*
X35316Y-28251D02*
X34623Y-27559D01*
X35316Y-34128D02*
X35316Y-28251D01*
X34448Y-34996D02*
X35316Y-34128D01*
X31988Y-27657D02*
X31988Y-27402D01*
X24905Y-21354D02*
X24901Y-21358D01*
X25175Y-21354D02*
X24905Y-21354D01*
X31867Y-27281D02*
X31716Y-27281D01*
X31988Y-27402D02*
X31867Y-27281D01*
X32085Y-21103D02*
X31988Y-21103D01*
X32412Y-20776D02*
X32085Y-21103D01*
X31988Y-21358D02*
X31988Y-21103D01*
X25330Y-26666D02*
X25330Y-26601D01*
X24901Y-27094D02*
X25330Y-26666D01*
X24901Y-27657D02*
X24901Y-27094D01*
X27138Y-26940D02*
X27417Y-26940D01*
X26864Y-26666D02*
X27138Y-26940D01*
X25330Y-26666D02*
X26864Y-26666D01*
X25518Y-25209D02*
X25518Y-25826D01*
X25395Y-25085D02*
X25518Y-25209D01*
X24857Y-25085D02*
X25395Y-25085D01*
X24721Y-24949D02*
X24857Y-25085D01*
X24721Y-23598D02*
X24721Y-24949D01*
X24704Y-23581D02*
X24721Y-23598D01*
X24704Y-23326D02*
X24704Y-23581D01*
X25157Y-25826D02*
X25518Y-25826D01*
X25853Y-31350D02*
X25853Y-31968D01*
X25794Y-31292D02*
X25853Y-31350D01*
X25243Y-31292D02*
X25794Y-31292D01*
X24704Y-30753D02*
X25243Y-31292D01*
X24704Y-29625D02*
X24704Y-30753D01*
X25492Y-31968D02*
X25853Y-31968D01*
X31003Y-24823D02*
X31003Y-24619D01*
X31791Y-23326D02*
X31791Y-23581D01*
X31791Y-23832D02*
X31791Y-23581D01*
X31003Y-24619D02*
X31791Y-23832D01*
X31791Y-29625D02*
X31791Y-29880D01*
X31791Y-30033D02*
X31791Y-29880D01*
X31102Y-30722D02*
X31791Y-30033D01*
X31102Y-30925D02*
X31102Y-30722D01*
X25157Y-23837D02*
X25157Y-24882D01*
X24901Y-23581D02*
X25157Y-23837D01*
X24901Y-23326D02*
X24901Y-23581D01*
X24901Y-30229D02*
X25492Y-30820D01*
X24901Y-29625D02*
X24901Y-30229D01*
X25492Y-31024D02*
X25492Y-30820D01*
X31003Y-25767D02*
X31365Y-25767D01*
X31988Y-23326D02*
X31988Y-23581D01*
X31365Y-24490D02*
X31365Y-25767D01*
X31988Y-23867D02*
X31365Y-24490D01*
X31988Y-23581D02*
X31988Y-23867D01*
X30741Y-31236D02*
X30741Y-31869D01*
X30783Y-31193D02*
X30741Y-31236D01*
X31363Y-31193D02*
X30783Y-31193D01*
X31968Y-30588D02*
X31363Y-31193D01*
X31968Y-29900D02*
X31968Y-30588D01*
X31988Y-29880D02*
X31968Y-29900D01*
X31988Y-29625D02*
X31988Y-29880D01*
X31102Y-31869D02*
X30741Y-31869D01*
X31004Y-29625D02*
X31004Y-29370D01*
X31299Y-29370D02*
X31004Y-29370D01*
X31299Y-29370D02*
X31397Y-29370D01*
X31397Y-29625D02*
X31397Y-29370D01*
X24179Y-21613D02*
X24114Y-21613D01*
X24212Y-21646D02*
X24179Y-21613D01*
X24114Y-21358D02*
X24114Y-21613D01*
X24212Y-21994D02*
X24212Y-21646D01*
X24310Y-23326D02*
X24310Y-23071D01*
X24212Y-21994D02*
X24212Y-22342D01*
X31299Y-28641D02*
X31299Y-29370D01*
X31265Y-27912D02*
X31201Y-27912D01*
X31299Y-27946D02*
X31265Y-27912D01*
X31299Y-28641D02*
X31299Y-27946D01*
X31265Y-21613D02*
X31201Y-21613D01*
X31299Y-21646D02*
X31265Y-21613D01*
X31299Y-22342D02*
X31299Y-21646D01*
X31201Y-21358D02*
X31201Y-21613D01*
X31299Y-22342D02*
X31299Y-23038D01*
X31397Y-23326D02*
X31397Y-23071D01*
X31332Y-23071D02*
X31397Y-23071D01*
X31299Y-23038D02*
X31332Y-23071D01*
X24244Y-22374D02*
X24212Y-22342D01*
X24244Y-23005D02*
X24244Y-22374D01*
X24179Y-23071D02*
X24244Y-23005D01*
X23917Y-23071D02*
X24179Y-23071D01*
X24244Y-23005D02*
X24310Y-23071D01*
X23917Y-23326D02*
X23917Y-23071D01*
X24015Y-31894D02*
X24015Y-31664D01*
X25492Y-31496D02*
X25131Y-31496D01*
X29724Y-25398D02*
X30054Y-25398D01*
X24003Y-29966D02*
X23917Y-29880D01*
X24003Y-30487D02*
X24003Y-29966D01*
X23677Y-30813D02*
X24003Y-30487D01*
X23677Y-31474D02*
X23677Y-30813D01*
X23867Y-31664D02*
X23677Y-31474D01*
X24015Y-31664D02*
X23867Y-31664D01*
X31402Y-32972D02*
X31402Y-32642D01*
X25157Y-25354D02*
X24796Y-25354D01*
X24901Y-31664D02*
X24015Y-31664D01*
X25069Y-31496D02*
X24901Y-31664D01*
X25131Y-31496D02*
X25069Y-31496D01*
X31003Y-25295D02*
X30642Y-25295D01*
X23917Y-29753D02*
X23917Y-29880D01*
X23917Y-29753D02*
X23917Y-29625D01*
X24212Y-28641D02*
X24212Y-29337D01*
X23917Y-29625D02*
X23917Y-29370D01*
X24179Y-29370D02*
X24212Y-29337D01*
X23917Y-29370D02*
X24179Y-29370D01*
X24310Y-29625D02*
X24310Y-29370D01*
X24245Y-29370D02*
X24310Y-29370D01*
X24212Y-29337D02*
X24245Y-29370D01*
X31265Y-23071D02*
X31299Y-23038D01*
X31004Y-23071D02*
X31265Y-23071D01*
X31004Y-23326D02*
X31004Y-23071D01*
X24732Y-25418D02*
X24227Y-25418D01*
X24796Y-25354D02*
X24732Y-25418D01*
X23897Y-25418D02*
X24227Y-25418D01*
X32374Y-31799D02*
X31733Y-31799D01*
X31402Y-32130D02*
X31402Y-32642D01*
X31733Y-31799D02*
X31402Y-32130D01*
X31463Y-31529D02*
X31463Y-31397D01*
X31733Y-31799D02*
X31463Y-31529D01*
X31102Y-31397D02*
X31463Y-31397D01*
X31004Y-23615D02*
X31004Y-23326D01*
X30458Y-24160D02*
X31004Y-23615D01*
X29852Y-24160D02*
X30458Y-24160D01*
X29394Y-24619D02*
X29852Y-24160D01*
X29394Y-24981D02*
X29394Y-24619D01*
X29580Y-25168D02*
X29394Y-24981D01*
X29724Y-25168D02*
X29580Y-25168D01*
X29724Y-25398D02*
X29724Y-25168D01*
X30539Y-25398D02*
X30642Y-25295D01*
X30054Y-25398D02*
X30539Y-25398D01*
X31201Y-27785D02*
X31201Y-27912D01*
X31201Y-27785D02*
X31201Y-27657D01*
X24179Y-27912D02*
X24212Y-27946D01*
X24114Y-27912D02*
X24179Y-27912D01*
X24212Y-28641D02*
X24212Y-27946D01*
X24114Y-27657D02*
X24114Y-27912D01*
X24171Y-27402D02*
X24440Y-27134D01*
X24114Y-27402D02*
X24171Y-27402D01*
X24227Y-23900D02*
X24227Y-25418D01*
X23917Y-23590D02*
X24227Y-23900D01*
X23917Y-23326D02*
X23917Y-23590D01*
X24114Y-27657D02*
X24114Y-27402D01*
X23897Y-25978D02*
X23897Y-25418D01*
X24145Y-26226D02*
X23897Y-25978D01*
X31201Y-27657D02*
X31201Y-27402D01*
X30945Y-27146D02*
X30238Y-27146D01*
X31201Y-27402D02*
X30945Y-27146D01*
X30055Y-25399D02*
X30055Y-26636D01*
X30054Y-25398D02*
X30055Y-25399D01*
X25937Y-32839D02*
X26061Y-32715D01*
X25890Y-32839D02*
X25937Y-32839D01*
X25890Y-33169D02*
X25890Y-32839D01*
X25890Y-34055D02*
X25660Y-34055D01*
X25451Y-32453D02*
X25451Y-32346D01*
X25051Y-32853D02*
X25451Y-32453D01*
X25051Y-33456D02*
X25051Y-32853D01*
X25320Y-33724D02*
X25051Y-33456D01*
X25474Y-33724D02*
X25320Y-33724D01*
X25660Y-33911D02*
X25474Y-33724D01*
X25660Y-34055D02*
X25660Y-33911D01*
X25890Y-34940D02*
X26120Y-34940D01*
X26120Y-34825D02*
X26120Y-34940D01*
X26450Y-34496D02*
X26120Y-34825D01*
X26691Y-34496D02*
X26450Y-34496D01*
X27156Y-34030D02*
X26691Y-34496D01*
X27156Y-31577D02*
X27156Y-34030D01*
X26574Y-30996D02*
X27156Y-31577D01*
X21517Y-33843D02*
X20669Y-32996D01*
X21517Y-33858D02*
X21517Y-33843D01*
X21747Y-33858D02*
X21517Y-33858D01*
X20861Y-34188D02*
X20669Y-33996D01*
X22761Y-34188D02*
X20861Y-34188D01*
X23091Y-33858D02*
X22761Y-34188D01*
X23322Y-33858D02*
X23091Y-33858D01*
X21517Y-32843D02*
X20669Y-31996D01*
X21517Y-32874D02*
X21517Y-32843D01*
X21747Y-32874D02*
X21517Y-32874D01*
X20822Y-34842D02*
X20669Y-34996D01*
X23322Y-34842D02*
X20822Y-34842D01*
X28492Y-24173D02*
X28543Y-24122D01*
X27859Y-24173D02*
X28492Y-24173D01*
X26988Y-28410D02*
X26574Y-27996D01*
X27259Y-28410D02*
X26988Y-28410D01*
X27259Y-28740D02*
X27259Y-28410D01*
X28526Y-27122D02*
X28543Y-27122D01*
X28089Y-27559D02*
X28526Y-27122D01*
X27859Y-27559D02*
X28089Y-27559D01*
X28370Y-25295D02*
X28543Y-25122D01*
X27859Y-25295D02*
X28370Y-25295D01*
X28188Y-26476D02*
X28543Y-26122D01*
X27859Y-26476D02*
X28188Y-26476D01*
X30122Y-20078D02*
X31823Y-20078D01*
X33991Y-20664D02*
X34448Y-21122D01*
X33991Y-20575D02*
X33991Y-20664D01*
X33661Y-20575D02*
X33991Y-20575D01*
X33991Y-22579D02*
X34448Y-22122D01*
X33991Y-22633D02*
X33991Y-22579D01*
X33661Y-22633D02*
X33991Y-22633D01*
X33488Y-26535D02*
X33719Y-26535D01*
X34448Y-23320D02*
X34448Y-23122D01*
X33991Y-23777D02*
X34448Y-23320D01*
X33991Y-26262D02*
X33991Y-23777D01*
X33719Y-26535D02*
X33991Y-26262D01*
X33213Y-32992D02*
X33443Y-32992D01*
X33443Y-32952D02*
X33443Y-32992D01*
X33779Y-32616D02*
X33443Y-32952D01*
X33779Y-31665D02*
X33779Y-32616D01*
X34448Y-30996D02*
X33779Y-31665D01*
X33174Y-33937D02*
X33404Y-33937D01*
X33404Y-33738D02*
X33404Y-33937D01*
X33802Y-33340D02*
X33404Y-33738D01*
X33802Y-32791D02*
X33802Y-33340D01*
X33942Y-32651D02*
X33802Y-32791D01*
X33942Y-31866D02*
X33942Y-32651D01*
X34312Y-31496D02*
X33942Y-31866D01*
X34560Y-31496D02*
X34312Y-31496D01*
X34894Y-31161D02*
X34560Y-31496D01*
X34894Y-30441D02*
X34894Y-31161D01*
X34448Y-29996D02*
X34894Y-30441D01*
X35035Y-29583D02*
X34448Y-28996D01*
X35035Y-32036D02*
X35035Y-29583D01*
X34576Y-32496D02*
X35035Y-32036D01*
X34340Y-32496D02*
X34576Y-32496D01*
X34012Y-32824D02*
X34340Y-32496D01*
X34012Y-33328D02*
X34012Y-32824D01*
X33555Y-33785D02*
X34012Y-33328D01*
X33555Y-34524D02*
X33555Y-33785D01*
X33449Y-34630D02*
X33555Y-34524D01*
X33449Y-34960D02*
X33449Y-34630D01*
X34311Y-27859D02*
X34448Y-27996D01*
X33661Y-27859D02*
X34311Y-27859D01*
X23226Y-20118D02*
X23128Y-20216D01*
X24148Y-20118D02*
X23226Y-20118D01*
X26618Y-20078D02*
X26574Y-20122D01*
X27259Y-20078D02*
X26618Y-20078D01*
X26594Y-21141D02*
X26574Y-21122D01*
X27259Y-21141D02*
X26594Y-21141D01*
X26618Y-22165D02*
X26574Y-22122D01*
X27259Y-22165D02*
X26618Y-22165D01*
X26602Y-23149D02*
X26574Y-23122D01*
X27259Y-23149D02*
X26602Y-23149D01*
X28566Y-32972D02*
X28543Y-32996D01*
X29227Y-32972D02*
X28566Y-32972D01*
X28582Y-33956D02*
X28543Y-33996D01*
X29325Y-33956D02*
X28582Y-33956D01*
X28638Y-32091D02*
X28543Y-31996D01*
X29429Y-32091D02*
X28638Y-32091D01*
X28598Y-34940D02*
X28543Y-34996D01*
X29325Y-34940D02*
X28598Y-34940D01*
X21542Y-20448D02*
X21420Y-20570D01*
X21550Y-20448D02*
X21542Y-20448D01*
X21550Y-20118D02*
X21550Y-20448D01*
X21198Y-24592D02*
X20669Y-25122D01*
X21198Y-23949D02*
X21198Y-24592D01*
X21392Y-23755D02*
X21198Y-23949D01*
X21392Y-23425D02*
X21392Y-23755D01*
X21023Y-26476D02*
X20669Y-26122D01*
X21451Y-26476D02*
X21023Y-26476D01*
M02*
