M48
;DRILL file {Pcbnew (2013-mar-13)-testing} date Tue 23 Sep 2014 01:04:36 PM PDT
;FORMAT={2:4/ absolute / inch / suppress trailing zeros}
FMAT,2
INCH,LZ
T1C0.020
T2C0.040
%
G90
G05
M72
T1
X021421Y-02057
X021977Y-027561
X022039Y-022649
X022082Y-020569
X022227Y-029267
X022703Y-021864
X022751Y-028393
X022801Y-022245
X023128Y-020216
X023264Y-023582
X023721Y-023754
X023745Y-030079
X024146Y-026226
X02444Y-027134
X024466Y-023705
X024634Y-020984
X024934Y-032317
X025015Y-020988
X025015Y-031911
X025175Y-027678
X025176Y-021355
X02533Y-026601
X025451Y-032346
X025454Y-029587
X025467Y-029978
X025635Y-022252
X025679Y-028373
X025745Y-021878
X025896Y-022632
X025934Y-020758
X026061Y-032716
X026942Y-024622
X026982Y-029391
X027418Y-02694
X027847Y-021597
X027851Y-025754
X029045Y-022846
X029355Y-029544
X029455Y-020831
X029659Y-02999
X0297Y-022414
X029733Y-021275
X029797Y-020644
X029875Y-022066
X030056Y-026636
X030213Y-024957
X030239Y-027146
X030415Y-023764
X030926Y-029998
X031242Y-027051
X031717Y-027282
X031823Y-020079
X032025Y-032283
X032413Y-020776
X032449Y-027223
X032529Y-029725
X032608Y-021435
X032716Y-028255
X032729Y-021835
X032744Y-032443
X03285Y-027885
X033307Y-021986
X033681Y-022145
T2
X020669Y-020122
X020669Y-021122
X020669Y-022122
X020669Y-023122
X020669Y-024122
X020669Y-025122
X020669Y-026122
X020669Y-027122
X020669Y-027996
X020669Y-028996
X020669Y-029996
X020669Y-030996
X020669Y-031996
X020669Y-032996
X020669Y-033996
X020669Y-034996
X021744Y-0245
X021744Y-0255
X021744Y-030799
X021744Y-031799
X022744Y-0245
X022744Y-0255
X022744Y-030799
X022744Y-031799
X026575Y-020122
X026575Y-021122
X026575Y-022122
X026575Y-023122
X026575Y-024122
X026575Y-025122
X026575Y-026122
X026575Y-027122
X026575Y-027996
X026575Y-028996
X026575Y-029996
X026575Y-030996
X026575Y-031996
X026575Y-032996
X026575Y-033996
X026575Y-034996
X028543Y-020122
X028543Y-021122
X028543Y-022122
X028543Y-023122
X028543Y-024122
X028543Y-025122
X028543Y-026122
X028543Y-027122
X028543Y-027996
X028543Y-028996
X028543Y-029996
X028543Y-030996
X028543Y-031996
X028543Y-032996
X028543Y-033996
X028543Y-034996
X032374Y-0245
X032374Y-0255
X032374Y-030799
X032374Y-031799
X033374Y-0245
X033374Y-0255
X033374Y-030799
X033374Y-031799
X034449Y-020122
X034449Y-021122
X034449Y-022122
X034449Y-023122
X034449Y-024122
X034449Y-025122
X034449Y-026122
X034449Y-027122
X034449Y-027996
X034449Y-028996
X034449Y-029996
X034449Y-030996
X034449Y-031996
X034449Y-032996
X034449Y-033996
X034449Y-034996
T0
M30
