G04 (created by PCBNEW (2013-jul-07)-stable) date Sun 20 Sep 2015 10:44:14 PM PDT*
%MOIN*%
G04 Gerber Fmt 3.4, Leading zero omitted, Abs format*
%FSLAX34Y34*%
G01*
G70*
G90*
G04 APERTURE LIST*
%ADD10C,0.00590551*%
%ADD11C,0.145669*%
%ADD12C,0.0472441*%
%ADD13C,0.07*%
%ADD14C,0.1*%
%ADD15C,0.0590551*%
%ADD16C,0.06*%
%ADD17R,0.06X0.06*%
%ADD18C,0.076*%
%ADD19C,0.14*%
%ADD20C,0.16*%
%ADD21C,0.055*%
%ADD22C,0.0787402*%
%ADD23C,0.32*%
%ADD24C,0.2*%
%ADD25C,0.035*%
%ADD26C,0.06*%
%ADD27C,0.025*%
%ADD28C,0.01*%
G04 APERTURE END LIST*
G54D10*
G54D11*
X140899Y-27246D03*
X118100Y-27246D03*
G54D12*
X137750Y-28746D03*
X137250Y-27996D03*
X136750Y-28746D03*
X136250Y-27996D03*
X135750Y-28746D03*
X135250Y-27996D03*
X134750Y-28746D03*
X134250Y-27996D03*
X133750Y-28746D03*
X133250Y-27996D03*
X132750Y-28746D03*
X132250Y-27996D03*
X131750Y-28746D03*
X131250Y-27996D03*
X130750Y-28746D03*
X130250Y-27996D03*
X129750Y-28746D03*
X129250Y-27996D03*
X128750Y-28746D03*
X128250Y-27996D03*
X127750Y-28746D03*
X127250Y-27996D03*
X126750Y-28746D03*
X126250Y-27996D03*
X125750Y-28746D03*
X125250Y-27996D03*
X124750Y-28746D03*
X124250Y-27996D03*
X123750Y-28746D03*
X123250Y-27996D03*
X122750Y-28746D03*
X122250Y-27996D03*
X121750Y-28746D03*
X121250Y-27996D03*
X137750Y-27246D03*
X137250Y-26496D03*
X136750Y-27246D03*
X136250Y-26496D03*
X135750Y-27246D03*
X135250Y-26496D03*
X134750Y-27246D03*
X134250Y-26496D03*
X133750Y-27246D03*
X133250Y-26496D03*
X132750Y-27246D03*
X132250Y-26496D03*
X131750Y-27246D03*
X131250Y-26496D03*
X130750Y-27246D03*
X130250Y-26496D03*
X129750Y-27246D03*
X129250Y-26496D03*
X128750Y-27246D03*
X128250Y-26496D03*
X127750Y-27246D03*
X127250Y-26496D03*
X126750Y-27246D03*
X126250Y-26496D03*
X125750Y-27246D03*
X125250Y-26496D03*
X124750Y-27246D03*
X124250Y-26496D03*
X123750Y-27246D03*
X123250Y-26496D03*
X122750Y-27246D03*
X122250Y-26496D03*
X121750Y-27246D03*
X121250Y-26496D03*
G54D13*
X72177Y-28357D03*
X71192Y-28531D03*
X70207Y-28704D03*
X69222Y-28878D03*
X68237Y-29052D03*
X67253Y-29225D03*
X66268Y-29399D03*
X66962Y-33338D03*
X67947Y-33165D03*
X68932Y-32991D03*
X69917Y-32817D03*
X70902Y-32644D03*
X71886Y-32470D03*
X72871Y-32296D03*
X51565Y-34750D03*
X50699Y-35250D03*
X49833Y-35750D03*
X48967Y-36250D03*
X48101Y-36750D03*
X47235Y-37250D03*
X46369Y-37750D03*
X48369Y-41214D03*
X49235Y-40714D03*
X50101Y-40214D03*
X50967Y-39714D03*
X51833Y-39214D03*
X52699Y-38714D03*
X53565Y-38214D03*
X34384Y-47807D03*
X33741Y-48573D03*
X33098Y-49339D03*
X32455Y-50105D03*
X31813Y-50871D03*
X31170Y-51637D03*
X30527Y-52403D03*
X33591Y-54975D03*
X34234Y-54209D03*
X34877Y-53442D03*
X35520Y-52676D03*
X36162Y-51910D03*
X36805Y-51144D03*
X37448Y-50378D03*
X137295Y-114046D03*
X137637Y-113106D03*
X137979Y-112167D03*
X138321Y-111227D03*
X138663Y-110287D03*
X139005Y-109347D03*
X139347Y-108408D03*
X135588Y-107040D03*
X135246Y-107979D03*
X134904Y-108919D03*
X134562Y-109859D03*
X134220Y-110798D03*
X133878Y-111738D03*
X133536Y-112678D03*
X22704Y-65953D03*
X22362Y-66893D03*
X22020Y-67832D03*
X21678Y-68772D03*
X21336Y-69712D03*
X20994Y-70652D03*
X20652Y-71591D03*
X24411Y-72959D03*
X24753Y-72020D03*
X25095Y-71080D03*
X25437Y-70140D03*
X25779Y-69201D03*
X26121Y-68261D03*
X26463Y-67321D03*
X142064Y-93000D03*
X142064Y-92000D03*
X142064Y-91000D03*
X142064Y-90000D03*
X142064Y-89000D03*
X142064Y-88000D03*
X142064Y-87000D03*
X138064Y-87000D03*
X138064Y-88000D03*
X138064Y-89000D03*
X138064Y-90000D03*
X138064Y-91000D03*
X138064Y-92000D03*
X138064Y-93000D03*
X17935Y-87000D03*
X17935Y-88000D03*
X17935Y-89000D03*
X17935Y-90000D03*
X17935Y-91000D03*
X17935Y-92000D03*
X17935Y-93000D03*
X21935Y-93000D03*
X21935Y-92000D03*
X21935Y-91000D03*
X21935Y-90000D03*
X21935Y-89000D03*
X21935Y-88000D03*
X21935Y-87000D03*
X20652Y-108408D03*
X20994Y-109347D03*
X21336Y-110287D03*
X21678Y-111227D03*
X22020Y-112167D03*
X22362Y-113106D03*
X22704Y-114046D03*
X26463Y-112678D03*
X26121Y-111738D03*
X25779Y-110798D03*
X25437Y-109859D03*
X25095Y-108919D03*
X24753Y-107979D03*
X24411Y-107040D03*
X139347Y-71591D03*
X139005Y-70652D03*
X138663Y-69712D03*
X138321Y-68772D03*
X137979Y-67832D03*
X137637Y-66893D03*
X137295Y-65953D03*
X133536Y-67321D03*
X133878Y-68261D03*
X134220Y-69201D03*
X134562Y-70140D03*
X134904Y-71080D03*
X135246Y-72020D03*
X135588Y-72959D03*
X93731Y-29399D03*
X92746Y-29225D03*
X91762Y-29052D03*
X90777Y-28878D03*
X89792Y-28704D03*
X88807Y-28531D03*
X87822Y-28357D03*
X87128Y-32296D03*
X88113Y-32470D03*
X89097Y-32644D03*
X90082Y-32817D03*
X91067Y-32991D03*
X92052Y-33165D03*
X93037Y-33338D03*
X129472Y-52403D03*
X128829Y-51637D03*
X128186Y-50871D03*
X127543Y-50105D03*
X126901Y-49339D03*
X126258Y-48573D03*
X125615Y-47807D03*
X122551Y-50378D03*
X123194Y-51144D03*
X123836Y-51910D03*
X124479Y-52676D03*
X125122Y-53442D03*
X125765Y-54209D03*
X126408Y-54975D03*
X113630Y-37750D03*
X112764Y-37250D03*
X111898Y-36750D03*
X111032Y-36250D03*
X110166Y-35750D03*
X109300Y-35250D03*
X108434Y-34750D03*
X106434Y-38214D03*
X107300Y-38714D03*
X108166Y-39214D03*
X109032Y-39714D03*
X109898Y-40214D03*
X110764Y-40714D03*
X111630Y-41214D03*
G54D14*
X24370Y-28000D03*
X22500Y-28000D03*
X20630Y-28000D03*
G54D15*
X37669Y-57091D03*
X36161Y-55825D03*
X129114Y-56620D03*
X130622Y-55355D03*
X68726Y-37581D03*
X68384Y-35642D03*
X114736Y-41835D03*
X115720Y-40130D03*
X137569Y-75431D03*
X139418Y-74758D03*
X96168Y-32859D03*
X96509Y-30920D03*
X87334Y-36886D03*
X87676Y-34948D03*
X51477Y-44598D03*
X50493Y-42893D03*
X139079Y-96000D03*
X141048Y-96000D03*
X136924Y-116836D03*
X135075Y-116163D03*
X30335Y-110204D03*
X28485Y-110877D03*
X26419Y-92000D03*
X24451Y-92000D03*
X28967Y-73553D03*
X27117Y-72880D03*
X55656Y-35835D03*
X54672Y-34130D03*
X38598Y-47427D03*
X37090Y-46162D03*
X26535Y-64155D03*
X24685Y-63481D03*
X20919Y-84000D03*
X18951Y-84000D03*
X22430Y-104568D03*
X20580Y-105241D03*
X129664Y-69795D03*
X131514Y-69122D03*
X133579Y-88000D03*
X135548Y-88000D03*
X75649Y-30775D03*
X75307Y-28837D03*
X119759Y-54027D03*
X121266Y-52761D03*
X131032Y-106446D03*
X132882Y-107119D03*
X105057Y-42598D03*
X106042Y-40893D03*
G54D16*
X20000Y-38500D03*
X20000Y-37500D03*
X20000Y-36500D03*
X20000Y-35500D03*
G54D17*
X135064Y-90000D03*
G54D16*
X134064Y-90000D03*
G54D17*
X52467Y-42313D03*
G54D16*
X52967Y-43179D03*
G54D17*
X70438Y-35772D03*
G54D16*
X70612Y-36757D03*
G54D17*
X89561Y-35772D03*
G54D16*
X89387Y-36757D03*
G54D17*
X37818Y-54605D03*
G54D16*
X38584Y-55248D03*
G54D17*
X28256Y-108833D03*
G54D16*
X29196Y-108491D03*
G54D17*
X131743Y-108833D03*
G54D16*
X130803Y-108491D03*
G54D17*
X131743Y-71166D03*
G54D16*
X130803Y-71508D03*
G54D17*
X122181Y-54605D03*
G54D16*
X121415Y-55248D03*
G54D17*
X28256Y-71166D03*
G54D16*
X29196Y-71508D03*
G54D17*
X107532Y-42313D03*
G54D16*
X107032Y-43179D03*
G54D17*
X24935Y-90000D03*
G54D16*
X25935Y-90000D03*
G54D17*
X99407Y-42385D03*
G54D16*
X100273Y-42885D03*
X101139Y-43385D03*
X102005Y-43885D03*
X102871Y-44385D03*
X103737Y-44885D03*
X104603Y-45385D03*
X105469Y-45885D03*
X106335Y-46385D03*
X107201Y-46885D03*
X108067Y-47385D03*
X108933Y-47885D03*
X109799Y-48385D03*
X110665Y-48885D03*
X111531Y-49385D03*
G54D17*
X130261Y-100844D03*
G54D16*
X129919Y-101784D03*
X129577Y-102723D03*
X129235Y-103663D03*
X128893Y-104603D03*
X128551Y-105543D03*
X128209Y-106482D03*
X127867Y-107422D03*
X127525Y-108362D03*
X127183Y-109301D03*
X126841Y-110241D03*
X126499Y-111181D03*
X126157Y-112120D03*
X125815Y-113060D03*
X125473Y-114000D03*
G54D17*
X130939Y-83000D03*
G54D16*
X130939Y-84000D03*
X130939Y-85000D03*
X130939Y-86000D03*
X130939Y-87000D03*
X130939Y-88000D03*
X130939Y-89000D03*
X130939Y-90000D03*
X130939Y-91000D03*
X130939Y-92000D03*
X130939Y-93000D03*
X130939Y-94000D03*
X130939Y-95000D03*
X130939Y-96000D03*
X130939Y-97000D03*
G54D17*
X125473Y-65999D03*
G54D16*
X125815Y-66939D03*
X126157Y-67879D03*
X126499Y-68818D03*
X126841Y-69758D03*
X127183Y-70698D03*
X127525Y-71637D03*
X127867Y-72577D03*
X128209Y-73517D03*
X128551Y-74456D03*
X128893Y-75396D03*
X129235Y-76336D03*
X129577Y-77276D03*
X129919Y-78215D03*
X130261Y-79155D03*
G54D17*
X114522Y-51894D03*
G54D16*
X115164Y-52660D03*
X115807Y-53426D03*
X116450Y-54192D03*
X117093Y-54958D03*
X117736Y-55724D03*
X118378Y-56490D03*
X119021Y-57256D03*
X119664Y-58022D03*
X120307Y-58788D03*
X120950Y-59554D03*
X121592Y-60320D03*
X122235Y-61086D03*
X122878Y-61852D03*
X123521Y-62619D03*
G54D17*
X81952Y-38619D03*
G54D16*
X82936Y-38792D03*
X83921Y-38966D03*
X84906Y-39140D03*
X85891Y-39313D03*
X86876Y-39487D03*
X87860Y-39660D03*
X88845Y-39834D03*
X89830Y-40008D03*
X90815Y-40181D03*
X91800Y-40355D03*
X92784Y-40529D03*
X93769Y-40702D03*
X94754Y-40876D03*
X95739Y-41050D03*
G54D17*
X64260Y-41050D03*
G54D16*
X65245Y-40876D03*
X66230Y-40702D03*
X67215Y-40529D03*
X68199Y-40355D03*
X69184Y-40181D03*
X70169Y-40008D03*
X71154Y-39834D03*
X72139Y-39660D03*
X73123Y-39487D03*
X74108Y-39313D03*
X75093Y-39140D03*
X76078Y-38966D03*
X77063Y-38792D03*
X78047Y-38619D03*
G54D17*
X48468Y-49385D03*
G54D16*
X49334Y-48885D03*
X50200Y-48385D03*
X51066Y-47885D03*
X51932Y-47385D03*
X52798Y-46885D03*
X53664Y-46385D03*
X54530Y-45885D03*
X55396Y-45385D03*
X56262Y-44885D03*
X57128Y-44385D03*
X57994Y-43885D03*
X58860Y-43385D03*
X59726Y-42885D03*
X60592Y-42385D03*
G54D17*
X36478Y-62619D03*
G54D16*
X37121Y-61852D03*
X37764Y-61086D03*
X38407Y-60320D03*
X39049Y-59554D03*
X39692Y-58788D03*
X40335Y-58022D03*
X40978Y-57256D03*
X41621Y-56490D03*
X42263Y-55724D03*
X42906Y-54958D03*
X43549Y-54192D03*
X44192Y-53426D03*
X44835Y-52660D03*
X45477Y-51894D03*
G54D17*
X29738Y-79155D03*
G54D16*
X30080Y-78215D03*
X30422Y-77276D03*
X30764Y-76336D03*
X31106Y-75396D03*
X31448Y-74456D03*
X31790Y-73517D03*
X32132Y-72577D03*
X32474Y-71637D03*
X32816Y-70698D03*
X33158Y-69758D03*
X33500Y-68818D03*
X33842Y-67879D03*
X34184Y-66939D03*
X34526Y-65999D03*
G54D17*
X29060Y-97000D03*
G54D16*
X29060Y-96000D03*
X29060Y-95000D03*
X29060Y-94000D03*
X29060Y-93000D03*
X29060Y-92000D03*
X29060Y-91000D03*
X29060Y-90000D03*
X29060Y-89000D03*
X29060Y-88000D03*
X29060Y-87000D03*
X29060Y-86000D03*
X29060Y-85000D03*
X29060Y-84000D03*
X29060Y-83000D03*
G54D17*
X34526Y-114000D03*
G54D16*
X34184Y-113060D03*
X33842Y-112120D03*
X33500Y-111181D03*
X33158Y-110241D03*
X32816Y-109301D03*
X32474Y-108362D03*
X32132Y-107422D03*
X31790Y-106482D03*
X31448Y-105543D03*
X31106Y-104603D03*
X30764Y-103663D03*
X30422Y-102723D03*
X30080Y-101784D03*
X29738Y-100844D03*
G54D18*
X32500Y-26180D03*
G54D19*
X32500Y-27360D03*
G54D20*
X32500Y-29720D03*
G54D19*
X30730Y-26970D03*
X34270Y-26970D03*
G54D14*
X80000Y-30935D03*
X80000Y-28935D03*
X21832Y-100256D03*
X19863Y-100603D03*
X21832Y-79743D03*
X19863Y-79396D03*
X28848Y-60467D03*
X27116Y-59467D03*
X42034Y-44754D03*
X40748Y-43222D03*
X59798Y-34497D03*
X59114Y-32618D03*
G54D21*
X30051Y-69159D03*
X29111Y-68817D03*
X28341Y-106141D03*
X27401Y-106484D03*
X25935Y-87500D03*
X24935Y-87500D03*
X131658Y-73858D03*
X132598Y-73515D03*
X40191Y-53333D03*
X39425Y-52690D03*
X55133Y-41929D03*
X54633Y-41063D03*
X73073Y-36322D03*
X72900Y-35338D03*
X91850Y-37191D03*
X92023Y-36206D03*
X129948Y-110840D03*
X130888Y-111182D03*
X109197Y-44429D03*
X109697Y-43563D03*
X134064Y-92500D03*
X135064Y-92500D03*
X123022Y-57163D03*
X123788Y-56520D03*
G54D22*
X40523Y-26500D03*
X43476Y-26500D03*
G54D14*
X100201Y-34497D03*
X100885Y-32618D03*
X117965Y-44754D03*
X119251Y-43222D03*
X131151Y-60467D03*
X132883Y-59467D03*
X138167Y-79743D03*
X140136Y-79396D03*
X138167Y-100256D03*
X140136Y-100603D03*
G54D23*
X30000Y-36000D03*
X130000Y-36000D03*
X130000Y-116000D03*
X30000Y-116000D03*
G54D24*
X143600Y-26400D03*
X16400Y-117500D03*
X143600Y-117500D03*
X16400Y-26400D03*
G54D25*
X139538Y-68577D03*
X118067Y-43811D03*
X29933Y-73835D03*
X62376Y-41198D03*
X80575Y-33231D03*
X109885Y-39321D03*
X71733Y-38230D03*
X109892Y-37475D03*
X34657Y-50871D03*
X117826Y-40877D03*
X104663Y-26928D03*
X116732Y-37580D03*
X106050Y-34557D03*
X36354Y-68818D03*
X56291Y-43341D03*
X97568Y-33629D03*
X130571Y-103257D03*
X55407Y-44496D03*
X29054Y-81273D03*
X83720Y-39645D03*
X110665Y-51248D03*
X120870Y-44695D03*
X28982Y-81934D03*
X129962Y-57226D03*
X122617Y-46594D03*
X30984Y-44290D03*
X111030Y-26126D03*
X125169Y-31190D03*
X96046Y-29074D03*
X128663Y-29404D03*
X76759Y-39834D03*
X123183Y-48403D03*
X120739Y-29682D03*
X125513Y-30536D03*
X118393Y-30536D03*
X44667Y-38761D03*
X123744Y-31530D03*
X122989Y-42111D03*
X104542Y-47168D03*
X128298Y-57753D03*
X31807Y-92310D03*
X78505Y-41603D03*
X81427Y-32531D03*
X39241Y-46612D03*
X116534Y-32401D03*
X127152Y-33006D03*
X97547Y-29563D03*
X81621Y-31514D03*
X128212Y-30861D03*
X118068Y-30861D03*
X106002Y-26960D03*
X136938Y-31968D03*
X109072Y-37131D03*
X103859Y-43872D03*
X134200Y-33300D03*
G54D26*
X37303Y-29720D02*
X32500Y-29720D01*
X40523Y-26500D02*
X37303Y-29720D01*
G54D27*
X19524Y-90411D02*
X17935Y-92000D01*
X19524Y-81026D02*
X19524Y-90411D01*
X21227Y-79323D02*
X19524Y-81026D01*
X21227Y-70885D02*
X21227Y-79323D01*
X20994Y-70652D02*
X21227Y-70885D01*
X22979Y-112489D02*
X22362Y-113106D01*
X22979Y-104381D02*
X22979Y-112489D01*
X20588Y-101989D02*
X22979Y-104381D01*
X20588Y-94652D02*
X20588Y-101989D01*
X17935Y-92000D02*
X20588Y-94652D01*
X139222Y-109347D02*
X139005Y-109347D01*
X141569Y-107000D02*
X139222Y-109347D01*
X141569Y-93319D02*
X141569Y-107000D01*
X141489Y-93238D02*
X141569Y-93319D01*
X141489Y-88575D02*
X141489Y-93238D01*
X142064Y-88000D02*
X141489Y-88575D01*
X141472Y-70511D02*
X139538Y-68577D01*
X141472Y-87408D02*
X141472Y-70511D01*
X142064Y-88000D02*
X141472Y-87408D01*
X37175Y-38332D02*
X31384Y-44124D01*
X46602Y-38332D02*
X37175Y-38332D01*
X47235Y-37699D02*
X46602Y-38332D01*
X47235Y-37250D02*
X47235Y-37699D01*
X31384Y-44455D02*
X31384Y-44124D01*
X31170Y-44669D02*
X31384Y-44455D01*
X31170Y-51637D02*
X31170Y-44669D01*
X22759Y-35500D02*
X20000Y-35500D01*
X31384Y-44124D02*
X22759Y-35500D01*
X115942Y-43811D02*
X118067Y-43811D01*
X110491Y-38360D02*
X115942Y-43811D01*
X110491Y-37484D02*
X110491Y-38360D01*
X109300Y-36292D02*
X110491Y-37484D01*
X109300Y-35250D02*
X109300Y-36292D01*
X126949Y-48573D02*
X126258Y-48573D01*
X135412Y-57036D02*
X126949Y-48573D01*
X135412Y-64895D02*
X135412Y-57036D01*
X137410Y-66893D02*
X135412Y-64895D01*
X137637Y-66893D02*
X137410Y-66893D01*
G54D26*
X125473Y-65999D02*
X126173Y-65999D01*
X48468Y-49385D02*
X47768Y-49385D01*
X21184Y-92688D02*
X21872Y-92000D01*
X21184Y-99608D02*
X21184Y-92688D01*
X21832Y-100256D02*
X21184Y-99608D01*
X21872Y-92000D02*
X21935Y-92000D01*
X23660Y-102083D02*
X21832Y-100256D01*
X23660Y-109743D02*
X23660Y-102083D01*
X25655Y-111738D02*
X23660Y-109743D01*
X26121Y-111738D02*
X25655Y-111738D01*
X21832Y-84883D02*
X21832Y-79743D01*
X21185Y-85530D02*
X21832Y-84883D01*
X21185Y-91312D02*
X21185Y-85530D01*
X21872Y-92000D02*
X21185Y-91312D01*
X24289Y-72020D02*
X24329Y-72020D01*
X21832Y-74476D02*
X24289Y-72020D01*
X21832Y-79743D02*
X21832Y-74476D01*
X24329Y-72020D02*
X24753Y-72020D01*
X34103Y-54209D02*
X34234Y-54209D01*
X33289Y-54209D02*
X34103Y-54209D01*
X28848Y-58649D02*
X33289Y-54209D01*
X28848Y-60467D02*
X28848Y-58649D01*
X28848Y-63134D02*
X28848Y-60467D01*
X24329Y-67653D02*
X28848Y-63134D01*
X24329Y-72020D02*
X24329Y-67653D01*
X19297Y-31202D02*
X22500Y-28000D01*
X19297Y-36797D02*
X19297Y-31202D01*
X20000Y-37500D02*
X19297Y-36797D01*
X126173Y-65445D02*
X126173Y-65999D01*
X131151Y-60467D02*
X126173Y-65445D01*
X80000Y-35966D02*
X81952Y-37918D01*
X80000Y-30935D02*
X80000Y-35966D01*
X81952Y-38619D02*
X81952Y-37918D01*
X99407Y-42385D02*
X99407Y-41685D01*
X138167Y-105540D02*
X138167Y-100256D01*
X135727Y-107979D02*
X138167Y-105540D01*
X135246Y-107979D02*
X135727Y-107979D01*
X138823Y-88682D02*
X138141Y-88000D01*
X138823Y-94460D02*
X138823Y-88682D01*
X138167Y-95116D02*
X138823Y-94460D01*
X138167Y-100256D02*
X138167Y-95116D01*
X138141Y-88000D02*
X138064Y-88000D01*
X42034Y-44978D02*
X42034Y-44754D01*
X37559Y-49453D02*
X42034Y-44978D01*
X37313Y-49453D02*
X37559Y-49453D01*
X34103Y-52662D02*
X37313Y-49453D01*
X34103Y-54209D02*
X34103Y-52662D01*
X44337Y-45955D02*
X44337Y-44754D01*
X47768Y-49385D02*
X44337Y-45955D01*
X44337Y-44754D02*
X42034Y-44754D01*
X115896Y-46823D02*
X117965Y-44754D01*
X114522Y-46823D02*
X115896Y-46823D01*
X114522Y-51894D02*
X114522Y-46823D01*
X107300Y-39601D02*
X107300Y-38714D01*
X114522Y-46823D02*
X107300Y-39601D01*
X64260Y-41050D02*
X63560Y-41050D01*
X48060Y-40462D02*
X48983Y-40462D01*
X44337Y-44185D02*
X48060Y-40462D01*
X44337Y-44754D02*
X44337Y-44185D01*
X48983Y-40462D02*
X49235Y-40714D01*
X52000Y-37243D02*
X59798Y-37243D01*
X48983Y-40260D02*
X52000Y-37243D01*
X48983Y-40462D02*
X48983Y-40260D01*
X59798Y-34497D02*
X59798Y-37243D01*
X63560Y-41005D02*
X59798Y-37243D01*
X63560Y-41050D02*
X63560Y-41005D01*
X100201Y-40891D02*
X99407Y-41685D01*
X100201Y-34497D02*
X100201Y-40891D01*
X136339Y-77916D02*
X138167Y-79743D01*
X136339Y-70229D02*
X136339Y-77916D01*
X134372Y-68261D02*
X136339Y-70229D01*
X133878Y-68261D02*
X134372Y-68261D01*
X138820Y-87320D02*
X138141Y-88000D01*
X138820Y-80397D02*
X138820Y-87320D01*
X138167Y-79743D02*
X138820Y-80397D01*
X131151Y-59793D02*
X131151Y-60467D01*
X127176Y-55818D02*
X131151Y-59793D01*
X127176Y-54185D02*
X127176Y-55818D01*
X124135Y-51144D02*
X127176Y-54185D01*
X123194Y-51144D02*
X124135Y-51144D01*
G54D28*
X119438Y-56490D02*
X118378Y-56490D01*
X124579Y-61631D02*
X119438Y-56490D01*
X124579Y-68743D02*
X124579Y-61631D01*
X127473Y-71637D02*
X124579Y-68743D01*
X127525Y-71637D02*
X127473Y-71637D01*
X39519Y-58022D02*
X40335Y-58022D01*
X36013Y-61528D02*
X39519Y-58022D01*
X36013Y-69333D02*
X36013Y-61528D01*
X31829Y-73517D02*
X36013Y-69333D01*
X31790Y-73517D02*
X31829Y-73517D01*
X28540Y-105710D02*
X27845Y-105710D01*
X31192Y-108362D02*
X28540Y-105710D01*
X32474Y-108362D02*
X31192Y-108362D01*
X26218Y-110359D02*
X25779Y-110798D01*
X26218Y-107025D02*
X26218Y-110359D01*
X27533Y-105710D02*
X26218Y-107025D01*
X27845Y-105710D02*
X27533Y-105710D01*
X27845Y-92215D02*
X27845Y-105710D01*
X29060Y-91000D02*
X27845Y-92215D01*
X28384Y-90323D02*
X29060Y-91000D01*
X28384Y-75384D02*
X28384Y-90323D01*
X29933Y-73835D02*
X28384Y-75384D01*
X62376Y-41252D02*
X62376Y-41198D01*
X57243Y-46385D02*
X62376Y-41252D01*
X53664Y-46385D02*
X57243Y-46385D01*
X87325Y-40196D02*
X87860Y-39660D01*
X76660Y-40196D02*
X87325Y-40196D01*
X75617Y-39153D02*
X76660Y-40196D01*
X75617Y-39017D02*
X75617Y-39153D01*
X75022Y-38421D02*
X75617Y-39017D01*
X72304Y-38421D02*
X75022Y-38421D01*
X72158Y-38567D02*
X72304Y-38421D01*
X71501Y-38567D02*
X72158Y-38567D01*
X70169Y-39899D02*
X71501Y-38567D01*
X70169Y-40008D02*
X70169Y-39899D01*
X109230Y-45385D02*
X104603Y-45385D01*
X113976Y-50131D02*
X109230Y-45385D01*
X113976Y-52627D02*
X113976Y-50131D01*
X117839Y-56490D02*
X113976Y-52627D01*
X118378Y-56490D02*
X117839Y-56490D01*
X80575Y-32923D02*
X80575Y-33231D01*
X81292Y-32206D02*
X80575Y-32923D01*
X82542Y-32206D02*
X81292Y-32206D01*
X87107Y-27641D02*
X82542Y-32206D01*
X92782Y-27641D02*
X87107Y-27641D01*
X95031Y-29891D02*
X92782Y-27641D01*
X100455Y-29891D02*
X95031Y-29891D01*
X109885Y-39321D02*
X100455Y-29891D01*
X119917Y-57256D02*
X119021Y-57256D01*
X124379Y-61717D02*
X119917Y-57256D01*
X124379Y-69128D02*
X124379Y-61717D01*
X127828Y-72577D02*
X124379Y-69128D01*
X127867Y-72577D02*
X127828Y-72577D01*
X32178Y-72577D02*
X32132Y-72577D01*
X35798Y-68957D02*
X32178Y-72577D01*
X35798Y-61451D02*
X35798Y-68957D01*
X39993Y-57256D02*
X35798Y-61451D01*
X40978Y-57256D02*
X39993Y-57256D01*
X29510Y-90450D02*
X29060Y-90000D01*
X29510Y-97448D02*
X29510Y-90450D01*
X28063Y-98895D02*
X29510Y-97448D01*
X28063Y-103425D02*
X28063Y-98895D01*
X32060Y-107422D02*
X28063Y-103425D01*
X32132Y-107422D02*
X32060Y-107422D01*
X88082Y-40597D02*
X88845Y-39834D01*
X76190Y-40597D02*
X88082Y-40597D01*
X75989Y-40397D02*
X76190Y-40597D01*
X75712Y-40397D02*
X75989Y-40397D01*
X74633Y-39318D02*
X75712Y-40397D01*
X74633Y-39176D02*
X74633Y-39318D01*
X74283Y-38826D02*
X74633Y-39176D01*
X72607Y-38826D02*
X74283Y-38826D01*
X72274Y-39159D02*
X72607Y-38826D01*
X71829Y-39159D02*
X72274Y-39159D01*
X71154Y-39834D02*
X71829Y-39159D01*
X109447Y-45885D02*
X105469Y-45885D01*
X113761Y-50199D02*
X109447Y-45885D01*
X113761Y-52695D02*
X113761Y-50199D01*
X118323Y-57256D02*
X113761Y-52695D01*
X119021Y-57256D02*
X118323Y-57256D01*
X71798Y-38230D02*
X71733Y-38230D01*
X78981Y-31046D02*
X71798Y-38230D01*
X78981Y-30720D02*
X78981Y-31046D01*
X79638Y-30063D02*
X78981Y-30720D01*
X81965Y-30063D02*
X79638Y-30063D01*
X84987Y-27041D02*
X81965Y-30063D01*
X98075Y-27041D02*
X84987Y-27041D01*
X108509Y-37475D02*
X98075Y-27041D01*
X109892Y-37475D02*
X108509Y-37475D01*
X32516Y-71637D02*
X32474Y-71637D01*
X35589Y-68564D02*
X32516Y-71637D01*
X35589Y-61377D02*
X35589Y-68564D01*
X40476Y-56490D02*
X35589Y-61377D01*
X41621Y-56490D02*
X40476Y-56490D01*
X29710Y-89650D02*
X29060Y-89000D01*
X29710Y-97531D02*
X29710Y-89650D01*
X28264Y-98978D02*
X29710Y-97531D01*
X28264Y-102995D02*
X28264Y-98978D01*
X31751Y-106482D02*
X28264Y-102995D01*
X31790Y-106482D02*
X31751Y-106482D01*
X32423Y-71637D02*
X32474Y-71637D01*
X31183Y-72877D02*
X32423Y-71637D01*
X31183Y-73629D02*
X31183Y-72877D01*
X29273Y-75539D02*
X31183Y-73629D01*
X29273Y-81032D02*
X29273Y-75539D01*
X29379Y-81138D02*
X29273Y-81032D01*
X29379Y-82027D02*
X29379Y-81138D01*
X28597Y-82808D02*
X29379Y-82027D01*
X28597Y-88536D02*
X28597Y-82808D01*
X29060Y-89000D02*
X28597Y-88536D01*
X128158Y-73517D02*
X128209Y-73517D01*
X124178Y-69538D02*
X128158Y-73517D01*
X124178Y-61800D02*
X124178Y-69538D01*
X120400Y-58022D02*
X124178Y-61800D01*
X119664Y-58022D02*
X120400Y-58022D01*
X130486Y-90546D02*
X130939Y-91000D01*
X130486Y-82061D02*
X130486Y-90546D01*
X131721Y-80826D02*
X130486Y-82061D01*
X131721Y-76988D02*
X131721Y-80826D01*
X128249Y-73517D02*
X131721Y-76988D01*
X128209Y-73517D02*
X128249Y-73517D01*
X88840Y-40997D02*
X89830Y-40008D01*
X76024Y-40997D02*
X88840Y-40997D01*
X75832Y-40806D02*
X76024Y-40997D01*
X74963Y-40806D02*
X75832Y-40806D01*
X73648Y-39491D02*
X74963Y-40806D01*
X73648Y-39349D02*
X73648Y-39491D01*
X73334Y-39035D02*
X73648Y-39349D01*
X72764Y-39035D02*
X73334Y-39035D01*
X72139Y-39660D02*
X72764Y-39035D01*
X109664Y-46385D02*
X106335Y-46385D01*
X113539Y-50260D02*
X109664Y-46385D01*
X113539Y-52756D02*
X113539Y-50260D01*
X118806Y-58022D02*
X113539Y-52756D01*
X119664Y-58022D02*
X118806Y-58022D01*
X34657Y-50723D02*
X34657Y-50871D01*
X39092Y-46287D02*
X34657Y-50723D01*
X39290Y-46287D02*
X39092Y-46287D01*
X45765Y-39812D02*
X39290Y-46287D01*
X48365Y-39812D02*
X45765Y-39812D01*
X52221Y-35956D02*
X48365Y-39812D01*
X54214Y-35956D02*
X52221Y-35956D01*
X63930Y-26241D02*
X54214Y-35956D01*
X103190Y-26241D02*
X63930Y-26241D01*
X117826Y-40877D02*
X103190Y-26241D01*
X29911Y-88850D02*
X29060Y-88000D01*
X29911Y-97614D02*
X29911Y-88850D01*
X28464Y-99060D02*
X29911Y-97614D01*
X28464Y-102612D02*
X28464Y-99060D01*
X31395Y-105543D02*
X28464Y-102612D01*
X31448Y-105543D02*
X31395Y-105543D01*
X130285Y-91346D02*
X130939Y-92000D01*
X130285Y-81628D02*
X130285Y-91346D01*
X131520Y-80393D02*
X130285Y-81628D01*
X131520Y-77382D02*
X131520Y-80393D01*
X128595Y-74456D02*
X131520Y-77382D01*
X128551Y-74456D02*
X128595Y-74456D01*
X89799Y-41198D02*
X90815Y-40181D01*
X75941Y-41198D02*
X89799Y-41198D01*
X75775Y-41032D02*
X75941Y-41198D01*
X74668Y-41032D02*
X75775Y-41032D01*
X73123Y-39487D02*
X74668Y-41032D01*
X107355Y-46732D02*
X107201Y-46885D01*
X109728Y-46732D02*
X107355Y-46732D01*
X113280Y-50284D02*
X109728Y-46732D01*
X113280Y-52780D02*
X113280Y-50284D01*
X119289Y-58788D02*
X113280Y-52780D01*
X120307Y-58788D02*
X119289Y-58788D01*
X115315Y-37580D02*
X116732Y-37580D01*
X104663Y-26928D02*
X115315Y-37580D01*
X56855Y-44385D02*
X57128Y-44385D01*
X55559Y-43089D02*
X56855Y-44385D01*
X55559Y-39497D02*
X55559Y-43089D01*
X53774Y-37712D02*
X55559Y-39497D01*
X52259Y-37712D02*
X53774Y-37712D01*
X50101Y-39870D02*
X52259Y-37712D01*
X50101Y-40214D02*
X50101Y-39870D01*
X30129Y-88068D02*
X29060Y-87000D01*
X30129Y-98165D02*
X30129Y-88068D01*
X28665Y-99629D02*
X30129Y-98165D01*
X28665Y-102235D02*
X28665Y-99629D01*
X31032Y-104603D02*
X28665Y-102235D01*
X31106Y-104603D02*
X31032Y-104603D01*
X130082Y-92143D02*
X130939Y-93000D01*
X130082Y-81341D02*
X130082Y-92143D01*
X131320Y-80103D02*
X130082Y-81341D01*
X131320Y-77784D02*
X131320Y-80103D01*
X128932Y-75396D02*
X131320Y-77784D01*
X128893Y-75396D02*
X128932Y-75396D01*
X42758Y-55106D02*
X42906Y-54958D01*
X42758Y-55106D02*
X42758Y-55106D01*
X41577Y-55106D02*
X42758Y-55106D01*
X35389Y-61294D02*
X41577Y-55106D01*
X35389Y-67571D02*
X35389Y-61294D01*
X33202Y-69758D02*
X35389Y-67571D01*
X33158Y-69758D02*
X33202Y-69758D01*
X49735Y-40580D02*
X50101Y-40214D01*
X49735Y-48604D02*
X49735Y-40580D01*
X49787Y-48655D02*
X49735Y-48604D01*
X49787Y-49068D02*
X49787Y-48655D01*
X44979Y-53877D02*
X49787Y-49068D01*
X44000Y-53877D02*
X44979Y-53877D01*
X43849Y-53726D02*
X44000Y-53877D01*
X43369Y-53726D02*
X43849Y-53726D01*
X42906Y-54189D02*
X43369Y-53726D01*
X42906Y-54958D02*
X42906Y-54189D01*
X90997Y-39553D02*
X91800Y-40355D01*
X89641Y-39553D02*
X90997Y-39553D01*
X89370Y-39824D02*
X89641Y-39553D01*
X89370Y-39962D02*
X89370Y-39824D01*
X88534Y-40797D02*
X89370Y-39962D01*
X76107Y-40797D02*
X88534Y-40797D01*
X75907Y-40597D02*
X76107Y-40797D01*
X75392Y-40597D02*
X75907Y-40597D01*
X74108Y-39313D02*
X75392Y-40597D01*
X121649Y-59554D02*
X120950Y-59554D01*
X123971Y-61876D02*
X121649Y-59554D01*
X123971Y-70525D02*
X123971Y-61876D01*
X128842Y-75396D02*
X123971Y-70525D01*
X128893Y-75396D02*
X128842Y-75396D01*
X119758Y-59554D02*
X120950Y-59554D01*
X112375Y-52171D02*
X119758Y-59554D01*
X112375Y-51266D02*
X112375Y-52171D01*
X111076Y-49967D02*
X112375Y-51266D01*
X111076Y-49110D02*
X111076Y-49967D01*
X111121Y-49066D02*
X111076Y-49110D01*
X111121Y-48690D02*
X111121Y-49066D01*
X109815Y-47385D02*
X111121Y-48690D01*
X108067Y-47385D02*
X109815Y-47385D01*
X68580Y-29395D02*
X68237Y-29052D01*
X74115Y-29395D02*
X68580Y-29395D01*
X76669Y-26841D02*
X74115Y-29395D01*
X98334Y-26841D02*
X76669Y-26841D01*
X106050Y-34557D02*
X98334Y-26841D01*
X37571Y-67601D02*
X36354Y-68818D01*
X37571Y-61666D02*
X37571Y-67601D01*
X37308Y-61402D02*
X37571Y-61666D01*
X37308Y-60526D02*
X37308Y-61402D01*
X39504Y-58329D02*
X37308Y-60526D01*
X39982Y-58329D02*
X39504Y-58329D01*
X40145Y-58491D02*
X39982Y-58329D01*
X40524Y-58491D02*
X40145Y-58491D01*
X43549Y-55466D02*
X40524Y-58491D01*
X43549Y-54192D02*
X43549Y-55466D01*
X30722Y-103663D02*
X30764Y-103663D01*
X28882Y-101823D02*
X30722Y-103663D01*
X28882Y-99979D02*
X28882Y-101823D01*
X30329Y-98533D02*
X28882Y-99979D01*
X30329Y-87268D02*
X30329Y-98533D01*
X29060Y-86000D02*
X30329Y-87268D01*
X129861Y-92922D02*
X130939Y-94000D01*
X129861Y-81203D02*
X129861Y-92922D01*
X131112Y-79953D02*
X129861Y-81203D01*
X131112Y-78149D02*
X131112Y-79953D01*
X129299Y-76336D02*
X131112Y-78149D01*
X129235Y-76336D02*
X129299Y-76336D01*
X122110Y-60320D02*
X121592Y-60320D01*
X123340Y-61550D02*
X122110Y-60320D01*
X123340Y-62100D02*
X123340Y-61550D01*
X123062Y-62377D02*
X123340Y-62100D01*
X123062Y-70215D02*
X123062Y-62377D01*
X129183Y-76336D02*
X123062Y-70215D01*
X129235Y-76336D02*
X129183Y-76336D01*
X56537Y-43587D02*
X56291Y-43341D01*
X57994Y-43587D02*
X56537Y-43587D01*
X57994Y-43885D02*
X57994Y-43587D01*
X66408Y-35515D02*
X68932Y-32991D01*
X66408Y-40226D02*
X66408Y-35515D01*
X60726Y-40854D02*
X57994Y-43587D01*
X62498Y-40854D02*
X60726Y-40854D01*
X63144Y-41500D02*
X62498Y-40854D01*
X65263Y-41500D02*
X63144Y-41500D01*
X65695Y-41068D02*
X65263Y-41500D01*
X65695Y-40583D02*
X65695Y-41068D01*
X66052Y-40226D02*
X65695Y-40583D01*
X66408Y-40226D02*
X66052Y-40226D01*
X74579Y-38626D02*
X75093Y-39140D01*
X72524Y-38626D02*
X74579Y-38626D01*
X72194Y-38955D02*
X72524Y-38626D01*
X71396Y-38955D02*
X72194Y-38955D01*
X70686Y-39665D02*
X71396Y-38955D01*
X70686Y-40131D02*
X70686Y-39665D01*
X69796Y-41021D02*
X70686Y-40131D01*
X67067Y-41021D02*
X69796Y-41021D01*
X66690Y-40644D02*
X67067Y-41021D01*
X66690Y-40509D02*
X66690Y-40644D01*
X66408Y-40226D02*
X66690Y-40509D01*
X76351Y-40397D02*
X75093Y-39140D01*
X87778Y-40397D02*
X76351Y-40397D01*
X88321Y-39854D02*
X87778Y-40397D01*
X88321Y-39722D02*
X88321Y-39854D01*
X88690Y-39352D02*
X88321Y-39722D01*
X91608Y-39352D02*
X88690Y-39352D01*
X92784Y-40529D02*
X91608Y-39352D01*
X100020Y-47885D02*
X108933Y-47885D01*
X92784Y-40650D02*
X100020Y-47885D01*
X92784Y-40529D02*
X92784Y-40650D01*
X120241Y-60320D02*
X121592Y-60320D01*
X112175Y-52254D02*
X120241Y-60320D01*
X112175Y-51971D02*
X112175Y-52254D01*
X110207Y-50004D02*
X112175Y-51971D01*
X110207Y-48613D02*
X110207Y-50004D01*
X110251Y-48570D02*
X110207Y-48613D01*
X110251Y-48194D02*
X110251Y-48570D01*
X109941Y-47885D02*
X110251Y-48194D01*
X108933Y-47885D02*
X109941Y-47885D01*
X94716Y-33629D02*
X97568Y-33629D01*
X89792Y-28704D02*
X94716Y-33629D01*
X129661Y-93722D02*
X130939Y-95000D01*
X129661Y-81096D02*
X129661Y-93722D01*
X130912Y-79846D02*
X129661Y-81096D01*
X130912Y-78558D02*
X130912Y-79846D01*
X129629Y-77276D02*
X130912Y-78558D01*
X129577Y-77276D02*
X129629Y-77276D01*
X33886Y-67879D02*
X33842Y-67879D01*
X35189Y-66576D02*
X33886Y-67879D01*
X35189Y-61179D02*
X35189Y-66576D01*
X42941Y-53426D02*
X35189Y-61179D01*
X44192Y-53426D02*
X42941Y-53426D01*
X30352Y-102723D02*
X30422Y-102723D01*
X29082Y-101454D02*
X30352Y-102723D01*
X29082Y-100345D02*
X29082Y-101454D01*
X30529Y-98898D02*
X29082Y-100345D01*
X30529Y-86468D02*
X30529Y-98898D01*
X29060Y-85000D02*
X30529Y-86468D01*
X93769Y-33334D02*
X93769Y-40702D01*
X92741Y-32305D02*
X93769Y-33334D01*
X89436Y-32305D02*
X92741Y-32305D01*
X89097Y-32644D02*
X89436Y-32305D01*
X120724Y-61086D02*
X122235Y-61086D01*
X111974Y-52337D02*
X120724Y-61086D01*
X111974Y-52077D02*
X111974Y-52337D01*
X109799Y-49902D02*
X111974Y-52077D01*
X109799Y-48385D02*
X109799Y-49902D01*
X129461Y-94522D02*
X130939Y-96000D01*
X129461Y-81013D02*
X129461Y-94522D01*
X130711Y-79763D02*
X129461Y-81013D01*
X130711Y-78946D02*
X130711Y-79763D01*
X129981Y-78215D02*
X130711Y-78946D01*
X129919Y-78215D02*
X129981Y-78215D01*
X59726Y-43158D02*
X59726Y-42885D01*
X58038Y-44846D02*
X59726Y-43158D01*
X56869Y-44846D02*
X58038Y-44846D01*
X56457Y-44435D02*
X56869Y-44846D01*
X55468Y-44435D02*
X56457Y-44435D01*
X55407Y-44496D02*
X55468Y-44435D01*
X34229Y-66939D02*
X34184Y-66939D01*
X34989Y-66179D02*
X34229Y-66939D01*
X34989Y-61069D02*
X34989Y-66179D01*
X43398Y-52660D02*
X34989Y-61069D01*
X44835Y-52660D02*
X43398Y-52660D01*
X30041Y-101784D02*
X30080Y-101784D01*
X29283Y-101025D02*
X30041Y-101784D01*
X29283Y-100428D02*
X29283Y-101025D01*
X30729Y-98981D02*
X29283Y-100428D01*
X30729Y-85668D02*
X30729Y-98981D01*
X29060Y-84000D02*
X30729Y-85668D01*
X129890Y-103939D02*
X130571Y-103257D01*
X129890Y-109055D02*
X129890Y-103939D01*
X125884Y-113060D02*
X129890Y-109055D01*
X125815Y-113060D02*
X125884Y-113060D01*
X34133Y-66939D02*
X34184Y-66939D01*
X30759Y-70313D02*
X34133Y-66939D01*
X30759Y-73752D02*
X30759Y-70313D01*
X29054Y-75457D02*
X30759Y-73752D01*
X29054Y-81273D02*
X29054Y-75457D01*
X122878Y-61852D02*
X122862Y-61868D01*
X129860Y-78215D02*
X129919Y-78215D01*
X122862Y-71218D02*
X129860Y-78215D01*
X122862Y-61868D02*
X122862Y-71218D01*
X81931Y-39645D02*
X83720Y-39645D01*
X80447Y-38162D02*
X81931Y-39645D01*
X77693Y-38162D02*
X80447Y-38162D01*
X77063Y-38792D02*
X77693Y-38162D01*
X121223Y-61868D02*
X122862Y-61868D01*
X110665Y-51311D02*
X121223Y-61868D01*
X110665Y-51248D02*
X110665Y-51311D01*
X120414Y-44239D02*
X120870Y-44695D01*
X120414Y-27331D02*
X120414Y-44239D01*
X121250Y-26496D02*
X120414Y-27331D01*
X125355Y-113882D02*
X125473Y-114000D01*
X125355Y-111681D02*
X125355Y-113882D01*
X126322Y-110714D02*
X125355Y-111681D01*
X127007Y-110714D02*
X126322Y-110714D01*
X128319Y-109402D02*
X127007Y-110714D01*
X128319Y-107229D02*
X128319Y-109402D01*
X127744Y-106654D02*
X128319Y-107229D01*
X127744Y-100194D02*
X127744Y-106654D01*
X130939Y-97000D02*
X127744Y-100194D01*
X129261Y-95322D02*
X130939Y-97000D01*
X129261Y-80155D02*
X129261Y-95322D01*
X130261Y-79155D02*
X129261Y-80155D01*
X30929Y-84869D02*
X29060Y-83000D01*
X30929Y-99653D02*
X30929Y-84869D01*
X29738Y-100844D02*
X30929Y-99653D01*
X28729Y-81681D02*
X28982Y-81934D01*
X28729Y-75499D02*
X28729Y-81681D01*
X30276Y-73952D02*
X28729Y-75499D01*
X30276Y-70193D02*
X30276Y-73952D01*
X34470Y-65999D02*
X30276Y-70193D01*
X34526Y-65999D02*
X34470Y-65999D01*
X43881Y-51894D02*
X45477Y-51894D01*
X34526Y-61249D02*
X43881Y-51894D01*
X34526Y-65999D02*
X34526Y-61249D01*
X95437Y-41352D02*
X95739Y-41050D01*
X93775Y-41352D02*
X95437Y-41352D01*
X93261Y-40838D02*
X93775Y-41352D01*
X93261Y-40368D02*
X93261Y-40838D01*
X92045Y-39152D02*
X93261Y-40368D01*
X87715Y-39152D02*
X92045Y-39152D01*
X87400Y-39468D02*
X87715Y-39152D01*
X87400Y-39624D02*
X87400Y-39468D01*
X87049Y-39975D02*
X87400Y-39624D01*
X79404Y-39975D02*
X87049Y-39975D01*
X78047Y-38619D02*
X79404Y-39975D01*
X102190Y-47500D02*
X95739Y-41050D01*
X107308Y-47500D02*
X102190Y-47500D01*
X107876Y-46932D02*
X107308Y-47500D01*
X109645Y-46932D02*
X107876Y-46932D01*
X111531Y-48818D02*
X109645Y-46932D01*
X111531Y-49385D02*
X111531Y-48818D01*
X121875Y-26496D02*
X122250Y-26496D01*
X120661Y-27709D02*
X121875Y-26496D01*
X120661Y-28813D02*
X120661Y-27709D01*
X121064Y-29216D02*
X120661Y-28813D01*
X121064Y-41245D02*
X121064Y-29216D01*
X121791Y-41972D02*
X121064Y-41245D01*
X121791Y-47879D02*
X121791Y-41972D01*
X127926Y-54014D02*
X121791Y-47879D01*
X127926Y-54185D02*
X127926Y-54014D01*
X131762Y-58021D02*
X127926Y-54185D01*
X132950Y-58021D02*
X131762Y-58021D01*
X134537Y-59607D02*
X132950Y-58021D01*
X134537Y-67223D02*
X134537Y-59607D01*
X137672Y-70359D02*
X134537Y-67223D01*
X137672Y-74904D02*
X137672Y-70359D01*
X141048Y-78280D02*
X137672Y-74904D01*
X141048Y-96000D02*
X141048Y-78280D01*
X121431Y-27246D02*
X121750Y-27246D01*
X120863Y-27814D02*
X121431Y-27246D01*
X120863Y-28732D02*
X120863Y-27814D01*
X121359Y-29228D02*
X120863Y-28732D01*
X121359Y-41157D02*
X121359Y-29228D01*
X122617Y-42415D02*
X121359Y-41157D01*
X122617Y-46594D02*
X122617Y-42415D01*
X131457Y-58721D02*
X129962Y-57226D01*
X133067Y-58721D02*
X131457Y-58721D01*
X134036Y-59691D02*
X133067Y-58721D01*
X134036Y-67289D02*
X134036Y-59691D01*
X136839Y-70092D02*
X134036Y-67289D01*
X136839Y-77497D02*
X136839Y-70092D01*
X139532Y-80190D02*
X136839Y-77497D01*
X139532Y-96185D02*
X139532Y-80190D01*
X138817Y-96901D02*
X139532Y-96185D01*
X138817Y-106157D02*
X138817Y-96901D01*
X135075Y-109899D02*
X138817Y-106157D01*
X135075Y-116163D02*
X135075Y-109899D01*
X18951Y-56322D02*
X30984Y-44290D01*
X18951Y-84000D02*
X18951Y-56322D01*
X27771Y-60395D02*
X24685Y-63481D01*
X27771Y-56223D02*
X27771Y-60395D01*
X36463Y-47531D02*
X27771Y-56223D01*
X36463Y-46146D02*
X36463Y-47531D01*
X43477Y-39132D02*
X36463Y-46146D01*
X44772Y-39132D02*
X43477Y-39132D01*
X45265Y-38639D02*
X44772Y-39132D01*
X48406Y-38639D02*
X45265Y-38639D01*
X61605Y-25440D02*
X48406Y-38639D01*
X127194Y-25440D02*
X61605Y-25440D01*
X128250Y-26496D02*
X127194Y-25440D01*
X37090Y-45937D02*
X37090Y-46162D01*
X43214Y-39813D02*
X37090Y-45937D01*
X44651Y-39813D02*
X43214Y-39813D01*
X45367Y-39098D02*
X44651Y-39813D01*
X48230Y-39098D02*
X45367Y-39098D01*
X61688Y-25640D02*
X48230Y-39098D01*
X126394Y-25640D02*
X61688Y-25640D01*
X127250Y-26496D02*
X126394Y-25640D01*
X125632Y-25878D02*
X126250Y-26496D01*
X111278Y-25878D02*
X125632Y-25878D01*
X111030Y-26126D02*
X111278Y-25878D01*
X51477Y-45565D02*
X51477Y-44598D01*
X52798Y-46885D02*
X51477Y-45565D01*
X68726Y-39723D02*
X68726Y-37581D01*
X69184Y-40181D02*
X68726Y-39723D01*
X125169Y-28639D02*
X125169Y-31190D01*
X125659Y-28149D02*
X125169Y-28639D01*
X125659Y-27847D02*
X125659Y-28149D01*
X125418Y-27606D02*
X125659Y-27847D01*
X125055Y-27606D02*
X125418Y-27606D01*
X125014Y-27647D02*
X125055Y-27606D01*
X124589Y-27647D02*
X125014Y-27647D01*
X124250Y-27308D02*
X124589Y-27647D01*
X124250Y-26496D02*
X124250Y-27308D01*
X86876Y-37345D02*
X87334Y-36886D01*
X86876Y-39487D02*
X86876Y-37345D01*
X116802Y-41212D02*
X115720Y-40130D01*
X117985Y-41212D02*
X116802Y-41212D01*
X120176Y-39020D02*
X117985Y-41212D01*
X120176Y-27003D02*
X120176Y-39020D01*
X121075Y-26105D02*
X120176Y-27003D01*
X123407Y-26105D02*
X121075Y-26105D01*
X123750Y-26447D02*
X123407Y-26105D01*
X123750Y-27246D02*
X123750Y-26447D01*
X105057Y-43565D02*
X105057Y-42598D01*
X103737Y-44885D02*
X105057Y-43565D01*
X123250Y-27435D02*
X123250Y-26496D01*
X123649Y-27835D02*
X123250Y-27435D01*
X123649Y-27956D02*
X123649Y-27835D01*
X124167Y-28473D02*
X123649Y-27956D01*
X124167Y-30878D02*
X124167Y-28473D01*
X124912Y-31624D02*
X124167Y-30878D01*
X124912Y-48715D02*
X124912Y-31624D01*
X130622Y-54424D02*
X124912Y-48715D01*
X130622Y-55355D02*
X130622Y-54424D01*
X118061Y-55724D02*
X119759Y-54027D01*
X117736Y-55724D02*
X118061Y-55724D01*
X122750Y-28185D02*
X122750Y-27246D01*
X122351Y-28584D02*
X122750Y-28185D01*
X122351Y-39802D02*
X122351Y-28584D01*
X123881Y-41332D02*
X122351Y-39802D01*
X123881Y-48872D02*
X123881Y-41332D01*
X128390Y-53381D02*
X123881Y-48872D01*
X128390Y-54345D02*
X128390Y-53381D01*
X131611Y-57566D02*
X128390Y-54345D01*
X132796Y-57566D02*
X131611Y-57566D01*
X134837Y-59607D02*
X132796Y-57566D01*
X134837Y-66814D02*
X134837Y-59607D01*
X138187Y-70165D02*
X134837Y-66814D01*
X138187Y-73526D02*
X138187Y-70165D01*
X139418Y-74758D02*
X138187Y-73526D01*
X130439Y-27246D02*
X130750Y-27246D01*
X129679Y-28006D02*
X130439Y-27246D01*
X129679Y-28114D02*
X129679Y-28006D01*
X129250Y-28543D02*
X129679Y-28114D01*
X129250Y-28818D02*
X129250Y-28543D01*
X128663Y-29404D02*
X129250Y-28818D01*
X94414Y-27441D02*
X96046Y-29074D01*
X86772Y-27441D02*
X94414Y-27441D01*
X82370Y-31843D02*
X86772Y-27441D01*
X81486Y-31843D02*
X82370Y-31843D01*
X81214Y-31572D02*
X81486Y-31843D01*
X81214Y-31228D02*
X81214Y-31572D01*
X80272Y-30285D02*
X81214Y-31228D01*
X79699Y-30285D02*
X80272Y-30285D01*
X79189Y-30795D02*
X79699Y-30285D01*
X79189Y-35503D02*
X79189Y-30795D01*
X76605Y-38087D02*
X79189Y-35503D01*
X76605Y-39680D02*
X76605Y-38087D01*
X76759Y-39834D02*
X76605Y-39680D01*
X122136Y-28109D02*
X122250Y-27996D01*
X122136Y-40113D02*
X122136Y-28109D01*
X123332Y-41310D02*
X122136Y-40113D01*
X123332Y-48254D02*
X123332Y-41310D01*
X123183Y-48403D02*
X123332Y-48254D01*
X120739Y-42496D02*
X120739Y-29682D01*
X121195Y-42952D02*
X120739Y-42496D01*
X121195Y-47567D02*
X121195Y-42952D01*
X127626Y-53997D02*
X121195Y-47567D01*
X127626Y-54197D02*
X127626Y-53997D01*
X131850Y-58421D02*
X127626Y-54197D01*
X133050Y-58421D02*
X131850Y-58421D01*
X134237Y-59608D02*
X133050Y-58421D01*
X134237Y-67206D02*
X134237Y-59608D01*
X137040Y-70009D02*
X134237Y-67206D01*
X137040Y-77414D02*
X137040Y-70009D01*
X139733Y-80107D02*
X137040Y-77414D01*
X139733Y-96268D02*
X139733Y-80107D01*
X139017Y-96984D02*
X139733Y-96268D01*
X139017Y-106340D02*
X139017Y-96984D01*
X137801Y-107556D02*
X139017Y-106340D01*
X137801Y-111988D02*
X137801Y-107556D01*
X137979Y-112167D02*
X137801Y-111988D01*
X18449Y-88486D02*
X17935Y-89000D01*
X18449Y-31131D02*
X18449Y-88486D01*
X24340Y-25240D02*
X18449Y-31131D01*
X128542Y-25240D02*
X24340Y-25240D01*
X129750Y-26448D02*
X128542Y-25240D01*
X129750Y-27246D02*
X129750Y-26448D01*
X127363Y-28686D02*
X125513Y-30536D01*
X127363Y-28442D02*
X127363Y-28686D01*
X127820Y-27985D02*
X127363Y-28442D01*
X127820Y-27877D02*
X127820Y-27985D01*
X128452Y-27246D02*
X127820Y-27877D01*
X128750Y-27246D02*
X128452Y-27246D01*
X111372Y-30536D02*
X118393Y-30536D01*
X106676Y-25840D02*
X111372Y-30536D01*
X61771Y-25840D02*
X106676Y-25840D01*
X48208Y-39404D02*
X61771Y-25840D01*
X45516Y-39404D02*
X48208Y-39404D01*
X39033Y-45887D02*
X45516Y-39404D01*
X38856Y-45887D02*
X39033Y-45887D01*
X27971Y-56772D02*
X38856Y-45887D01*
X27971Y-60840D02*
X27971Y-56772D01*
X23993Y-64819D02*
X27971Y-60840D01*
X23114Y-64819D02*
X23993Y-64819D01*
X21855Y-66078D02*
X23114Y-64819D01*
X21855Y-67667D02*
X21855Y-66078D01*
X22020Y-67832D02*
X21855Y-67667D01*
X33707Y-49339D02*
X33098Y-49339D01*
X36251Y-46795D02*
X33707Y-49339D01*
X36251Y-46074D02*
X36251Y-46795D01*
X43564Y-38761D02*
X36251Y-46074D01*
X44667Y-38761D02*
X43564Y-38761D01*
X53419Y-40800D02*
X51833Y-39214D01*
X53419Y-43381D02*
X53419Y-40800D01*
X52823Y-43976D02*
X53419Y-43381D01*
X51464Y-43976D02*
X52823Y-43976D01*
X51028Y-44413D02*
X51464Y-43976D01*
X51028Y-46481D02*
X51028Y-44413D01*
X51932Y-47385D02*
X51028Y-46481D01*
X70902Y-36122D02*
X70902Y-32644D01*
X70759Y-36264D02*
X70902Y-36122D01*
X69411Y-36264D02*
X70759Y-36264D01*
X68199Y-37475D02*
X69411Y-36264D01*
X68199Y-40355D02*
X68199Y-37475D01*
X85891Y-37391D02*
X85891Y-39313D01*
X87048Y-36233D02*
X85891Y-37391D01*
X87679Y-36233D02*
X87048Y-36233D01*
X88661Y-37215D02*
X87679Y-36233D01*
X89757Y-37215D02*
X88661Y-37215D01*
X90305Y-36667D02*
X89757Y-37215D01*
X92217Y-36667D02*
X90305Y-36667D01*
X92476Y-36409D02*
X92217Y-36667D01*
X92476Y-34400D02*
X92476Y-36409D01*
X91067Y-32991D02*
X92476Y-34400D01*
X123750Y-31524D02*
X123744Y-31530D01*
X123750Y-28746D02*
X123750Y-31524D01*
X123250Y-39409D02*
X123250Y-27996D01*
X124712Y-40871D02*
X123250Y-39409D01*
X124712Y-49039D02*
X124712Y-40871D01*
X129909Y-54236D02*
X124712Y-49039D01*
X129909Y-55272D02*
X129909Y-54236D01*
X130458Y-55820D02*
X129909Y-55272D01*
X130817Y-55820D02*
X130458Y-55820D01*
X131088Y-55550D02*
X130817Y-55820D01*
X131088Y-53187D02*
X131088Y-55550D01*
X128772Y-50871D02*
X131088Y-53187D01*
X128186Y-50871D02*
X128772Y-50871D01*
X122750Y-39357D02*
X122750Y-28746D01*
X124181Y-40789D02*
X122750Y-39357D01*
X124181Y-48832D02*
X124181Y-40789D01*
X128590Y-53242D02*
X124181Y-48832D01*
X128590Y-54245D02*
X128590Y-53242D01*
X130871Y-56525D02*
X128590Y-54245D01*
X132065Y-56525D02*
X130871Y-56525D01*
X135137Y-59597D02*
X132065Y-56525D01*
X135137Y-66308D02*
X135137Y-59597D01*
X138541Y-69712D02*
X135137Y-66308D01*
X138663Y-69712D02*
X138541Y-69712D01*
X121250Y-28835D02*
X121250Y-27996D01*
X121559Y-29145D02*
X121250Y-28835D01*
X121559Y-40681D02*
X121559Y-29145D01*
X122989Y-42111D02*
X121559Y-40681D01*
G54D27*
X129752Y-102723D02*
X129577Y-102723D01*
X131477Y-100998D02*
X129752Y-102723D01*
X131477Y-85538D02*
X131477Y-100998D01*
X130939Y-85000D02*
X131477Y-85538D01*
X101139Y-43765D02*
X104542Y-47168D01*
X101139Y-43385D02*
X101139Y-43765D01*
X126157Y-67879D02*
X126157Y-67879D01*
X126001Y-67879D02*
X126157Y-67879D01*
X124926Y-66803D02*
X126001Y-67879D01*
X124926Y-59806D02*
X124926Y-66803D01*
X120664Y-55545D02*
X124926Y-59806D01*
X120664Y-54184D02*
X120664Y-55545D01*
X119906Y-53426D02*
X120664Y-54184D01*
X115807Y-53426D02*
X119906Y-53426D01*
X126245Y-59806D02*
X128298Y-57753D01*
X124926Y-59806D02*
X126245Y-59806D01*
X37764Y-61086D02*
X37846Y-61169D01*
X50200Y-49291D02*
X50200Y-48413D01*
X38321Y-61169D02*
X50200Y-49291D01*
X37846Y-61169D02*
X38321Y-61169D01*
X50200Y-48413D02*
X50200Y-48385D01*
X126317Y-67879D02*
X126157Y-67879D01*
X128499Y-70061D02*
X126317Y-67879D01*
X128499Y-71879D02*
X128499Y-70061D01*
X131999Y-75379D02*
X128499Y-71879D01*
X131999Y-83939D02*
X131999Y-75379D01*
X130939Y-85000D02*
X131999Y-83939D01*
X37846Y-69999D02*
X30496Y-77349D01*
X37846Y-61169D02*
X37846Y-69999D01*
X30496Y-77349D02*
X30422Y-77276D01*
X31807Y-78661D02*
X31807Y-92310D01*
X30496Y-77349D02*
X31807Y-78661D01*
X59231Y-48413D02*
X66230Y-41414D01*
X50200Y-48413D02*
X59231Y-48413D01*
X66230Y-41414D02*
X66230Y-40702D01*
X78375Y-41473D02*
X78505Y-41603D01*
X75827Y-41473D02*
X78375Y-41473D01*
X75768Y-41414D02*
X75827Y-41473D01*
X66230Y-41414D02*
X75768Y-41414D01*
G54D28*
X91363Y-27842D02*
X92746Y-29225D01*
X87290Y-27842D02*
X91363Y-27842D01*
X82600Y-32531D02*
X87290Y-27842D01*
X81427Y-32531D02*
X82600Y-32531D01*
X39248Y-46612D02*
X39241Y-46612D01*
X45848Y-40012D02*
X39248Y-46612D01*
X48521Y-40012D02*
X45848Y-40012D01*
X52129Y-36404D02*
X48521Y-40012D01*
X54409Y-36404D02*
X52129Y-36404D01*
X64372Y-26441D02*
X54409Y-36404D01*
X102304Y-26441D02*
X64372Y-26441D01*
X112764Y-36901D02*
X102304Y-26441D01*
X112764Y-37250D02*
X112764Y-36901D01*
X22475Y-66893D02*
X22362Y-66893D01*
X28171Y-61196D02*
X22475Y-66893D01*
X28171Y-56854D02*
X28171Y-61196D01*
X38939Y-46087D02*
X28171Y-56854D01*
X39116Y-46087D02*
X38939Y-46087D01*
X45599Y-39604D02*
X39116Y-46087D01*
X48291Y-39604D02*
X45599Y-39604D01*
X61854Y-26041D02*
X48291Y-39604D01*
X104610Y-26041D02*
X61854Y-26041D01*
X110970Y-32401D02*
X104610Y-26041D01*
X116534Y-32401D02*
X110970Y-32401D01*
X125112Y-35046D02*
X127152Y-33006D01*
X125112Y-48515D02*
X125112Y-35046D01*
X128235Y-51637D02*
X125112Y-48515D01*
X128829Y-51637D02*
X128235Y-51637D01*
X132439Y-27246D02*
X132750Y-27246D01*
X131679Y-28006D02*
X132439Y-27246D01*
X131679Y-28114D02*
X131679Y-28006D01*
X131250Y-28543D02*
X131679Y-28114D01*
X131250Y-28908D02*
X131250Y-28543D01*
X127152Y-33006D02*
X131250Y-28908D01*
X139164Y-70492D02*
X139005Y-70652D01*
X139164Y-35039D02*
X139164Y-70492D01*
X133351Y-29225D02*
X139164Y-35039D01*
X133351Y-28584D02*
X133351Y-29225D01*
X133847Y-28087D02*
X133351Y-28584D01*
X133847Y-27837D02*
X133847Y-28087D01*
X134152Y-27532D02*
X133847Y-27837D01*
X134152Y-27091D02*
X134152Y-27532D01*
X133916Y-26854D02*
X134152Y-27091D01*
X133595Y-26854D02*
X133916Y-26854D01*
X133553Y-26896D02*
X133595Y-26854D01*
X132961Y-26896D02*
X133553Y-26896D01*
X132560Y-26496D02*
X132961Y-26896D01*
X132250Y-26496D02*
X132560Y-26496D01*
X95226Y-27241D02*
X97547Y-29563D01*
X85894Y-27241D02*
X95226Y-27241D01*
X81621Y-31514D02*
X85894Y-27241D01*
X130214Y-28859D02*
X128212Y-30861D01*
X130214Y-28592D02*
X130214Y-28859D01*
X130750Y-28056D02*
X130214Y-28592D01*
X130750Y-27917D02*
X130750Y-28056D01*
X131421Y-27246D02*
X130750Y-27917D01*
X131750Y-27246D02*
X131421Y-27246D01*
X109903Y-30861D02*
X118068Y-30861D01*
X106002Y-26960D02*
X109903Y-30861D01*
X142571Y-91493D02*
X142064Y-92000D01*
X142571Y-38062D02*
X142571Y-91493D01*
X136293Y-31784D02*
X142571Y-38062D01*
X136293Y-28566D02*
X136293Y-31784D01*
X136652Y-28207D02*
X136293Y-28566D01*
X136652Y-27837D02*
X136652Y-28207D01*
X136250Y-27435D02*
X136652Y-27837D01*
X136250Y-27189D02*
X136250Y-27435D01*
X135914Y-26854D02*
X136250Y-27189D01*
X135595Y-26854D02*
X135914Y-26854D01*
X135553Y-26896D02*
X135595Y-26854D01*
X135088Y-26896D02*
X135553Y-26896D01*
X134750Y-26558D02*
X135088Y-26896D01*
X134750Y-26443D02*
X134750Y-26558D01*
X134404Y-26098D02*
X134750Y-26443D01*
X132101Y-26098D02*
X134404Y-26098D01*
X131750Y-26449D02*
X132101Y-26098D01*
X131750Y-27246D02*
X131750Y-26449D01*
X53619Y-39634D02*
X52699Y-38714D01*
X53619Y-43612D02*
X53619Y-39634D01*
X53196Y-44035D02*
X53619Y-43612D01*
X53196Y-46646D02*
X53196Y-44035D01*
X53267Y-46718D02*
X53196Y-46646D01*
X53267Y-47057D02*
X53267Y-46718D01*
X52440Y-47885D02*
X53267Y-47057D01*
X51066Y-47885D02*
X52440Y-47885D01*
X71524Y-28863D02*
X71192Y-28531D01*
X74363Y-28863D02*
X71524Y-28863D01*
X76586Y-26641D02*
X74363Y-28863D01*
X98594Y-26641D02*
X76586Y-26641D01*
X109072Y-37119D02*
X98594Y-26641D01*
X109072Y-37131D02*
X109072Y-37119D01*
X131848Y-25897D02*
X131250Y-26496D01*
X137199Y-25897D02*
X131848Y-25897D01*
X138212Y-26910D02*
X137199Y-25897D01*
X138212Y-30694D02*
X138212Y-26910D01*
X136938Y-31968D02*
X138212Y-30694D01*
X142771Y-37801D02*
X136938Y-31968D01*
X142771Y-108091D02*
X142771Y-37801D01*
X137756Y-113106D02*
X142771Y-108091D01*
X137637Y-113106D02*
X137756Y-113106D01*
X67498Y-40812D02*
X67215Y-40529D01*
X69194Y-40812D02*
X67498Y-40812D01*
X69645Y-40362D02*
X69194Y-40812D01*
X69645Y-39400D02*
X69645Y-40362D01*
X71887Y-37158D02*
X69645Y-39400D01*
X71887Y-32470D02*
X71887Y-37158D01*
X92676Y-33789D02*
X92052Y-33165D01*
X92676Y-36975D02*
X92676Y-33789D01*
X92031Y-37620D02*
X92676Y-36975D01*
X88742Y-37620D02*
X92031Y-37620D01*
X87555Y-36433D02*
X88742Y-37620D01*
X87131Y-36433D02*
X87555Y-36433D01*
X86412Y-37153D02*
X87131Y-36433D01*
X86412Y-39441D02*
X86412Y-37153D01*
X86083Y-39770D02*
X86412Y-39441D01*
X85537Y-39770D02*
X86083Y-39770D01*
X84906Y-39140D02*
X85537Y-39770D01*
X102018Y-43872D02*
X103859Y-43872D01*
X102005Y-43885D02*
X102018Y-43872D01*
G54D26*
X125615Y-47807D02*
X125615Y-47684D01*
X134200Y-39100D02*
X134200Y-33300D01*
X125615Y-47684D02*
X134200Y-39100D01*
X140899Y-27246D02*
X142753Y-27246D01*
X142753Y-27246D02*
X143600Y-26400D01*
X16400Y-26400D02*
X19030Y-26400D01*
X19030Y-26400D02*
X20630Y-28000D01*
X16400Y-117500D02*
X19251Y-117500D01*
X19251Y-117500D02*
X22704Y-114046D01*
X27116Y-55814D02*
X27116Y-59467D01*
X30527Y-52403D02*
X27116Y-55814D01*
X137998Y-87000D02*
X138064Y-87000D01*
X136791Y-88207D02*
X137998Y-87000D01*
X136791Y-90773D02*
X136791Y-88207D01*
X135064Y-92500D02*
X136791Y-90773D01*
X38313Y-52690D02*
X39425Y-52690D01*
X36029Y-54975D02*
X38313Y-52690D01*
X33591Y-54975D02*
X36029Y-54975D01*
X23260Y-89174D02*
X24935Y-87500D01*
X23260Y-91741D02*
X23260Y-89174D01*
X22002Y-93000D02*
X23260Y-91741D01*
X21935Y-93000D02*
X22002Y-93000D01*
X132883Y-66668D02*
X133536Y-67321D01*
X132883Y-59467D02*
X132883Y-66668D01*
X135030Y-107040D02*
X135588Y-107040D01*
X130888Y-111182D02*
X135030Y-107040D01*
X132598Y-66939D02*
X132598Y-73515D01*
X132612Y-66939D02*
X132598Y-66939D01*
X132883Y-66668D02*
X132612Y-66939D01*
X132598Y-66939D02*
X125815Y-66939D01*
X137250Y-28495D02*
X137250Y-27996D01*
X137001Y-28495D02*
X137250Y-28495D01*
X136750Y-28746D02*
X137001Y-28495D01*
X137498Y-28495D02*
X137750Y-28746D01*
X137250Y-28495D02*
X137498Y-28495D01*
X106434Y-39725D02*
X106434Y-38214D01*
X109697Y-42988D02*
X106434Y-39725D01*
X109697Y-43563D02*
X109697Y-42988D01*
X122421Y-51780D02*
X122421Y-50378D01*
X123788Y-53147D02*
X122421Y-51780D01*
X123788Y-56520D02*
X123788Y-53147D01*
X122421Y-50378D02*
X122551Y-50378D01*
X120616Y-48573D02*
X122421Y-50378D01*
X119251Y-48573D02*
X120616Y-48573D01*
X119251Y-43222D02*
X119251Y-48573D01*
X119251Y-48573D02*
X115164Y-52660D01*
X30000Y-29860D02*
X30000Y-36000D01*
X32500Y-27360D02*
X30000Y-29860D01*
X27401Y-106484D02*
X27401Y-112620D01*
X26521Y-112620D02*
X26463Y-112678D01*
X27401Y-112620D02*
X26521Y-112620D01*
X30390Y-115609D02*
X27401Y-112620D01*
X30000Y-116000D02*
X30390Y-115609D01*
X32939Y-113060D02*
X34184Y-113060D01*
X30390Y-115609D02*
X32939Y-113060D01*
X43476Y-34857D02*
X43476Y-26500D01*
X46369Y-37750D02*
X43476Y-34857D01*
X87128Y-29052D02*
X87128Y-32296D01*
X87822Y-28357D02*
X87128Y-29052D01*
X82936Y-38698D02*
X82936Y-38792D01*
X88091Y-33543D02*
X82936Y-38698D01*
X87128Y-32580D02*
X88091Y-33543D01*
X87128Y-32296D02*
X87128Y-32580D01*
X89698Y-33880D02*
X92023Y-36206D01*
X88428Y-33880D02*
X89698Y-33880D01*
X88091Y-33543D02*
X88428Y-33880D01*
X48369Y-47920D02*
X48369Y-41214D01*
X49334Y-48885D02*
X48369Y-47920D01*
X62807Y-32618D02*
X59114Y-32618D01*
X65245Y-35056D02*
X62807Y-32618D01*
X66962Y-33338D02*
X65245Y-35056D01*
X65245Y-35056D02*
X65245Y-40876D01*
X103335Y-38214D02*
X106434Y-38214D01*
X103335Y-39823D02*
X100273Y-42885D01*
X103335Y-38214D02*
X103335Y-39823D01*
X66962Y-33338D02*
X66962Y-31546D01*
X66962Y-30094D02*
X66268Y-29399D01*
X66962Y-31546D02*
X66962Y-30094D01*
X76958Y-31977D02*
X73637Y-31977D01*
X80000Y-28935D02*
X76958Y-31977D01*
X73206Y-31546D02*
X73637Y-31977D01*
X66962Y-31546D02*
X73206Y-31546D01*
X73637Y-34600D02*
X72900Y-35338D01*
X73637Y-31977D02*
X73637Y-34600D01*
X103335Y-35068D02*
X100885Y-32618D01*
X103335Y-38214D02*
X103335Y-35068D01*
X24969Y-72959D02*
X29111Y-68817D01*
X24411Y-72959D02*
X24969Y-72959D01*
X33591Y-64337D02*
X33591Y-54975D01*
X29111Y-68817D02*
X33591Y-64337D01*
G54D28*
X21917Y-68772D02*
X21678Y-68772D01*
X26535Y-64155D02*
X21917Y-68772D01*
X22430Y-110475D02*
X21678Y-111227D01*
X22430Y-104568D02*
X22430Y-110475D01*
X94757Y-32859D02*
X90777Y-28878D01*
X96168Y-32859D02*
X94757Y-32859D01*
X111032Y-38131D02*
X111032Y-36250D01*
X114736Y-41835D02*
X111032Y-38131D01*
X132175Y-107119D02*
X132882Y-107119D01*
X130803Y-108491D02*
X132175Y-107119D01*
X130803Y-109985D02*
X130803Y-108491D01*
X129948Y-110840D02*
X130803Y-109985D01*
X134064Y-92500D02*
X134064Y-90000D01*
X134064Y-89484D02*
X135548Y-88000D01*
X134064Y-90000D02*
X134064Y-89484D01*
X69917Y-35251D02*
X69917Y-32817D01*
X70438Y-35772D02*
X69917Y-35251D01*
X52467Y-41214D02*
X50967Y-39714D01*
X52467Y-42313D02*
X52467Y-41214D01*
X130803Y-69832D02*
X131514Y-69122D01*
X130803Y-71508D02*
X130803Y-69832D01*
X130803Y-73002D02*
X130803Y-71508D01*
X131658Y-73858D02*
X130803Y-73002D01*
X87676Y-35045D02*
X87676Y-34948D01*
X89387Y-36757D02*
X87676Y-35045D01*
X121415Y-55556D02*
X121415Y-55248D01*
X123022Y-57163D02*
X121415Y-55556D01*
X121415Y-52910D02*
X121266Y-52761D01*
X121415Y-55248D02*
X121415Y-52910D01*
X107032Y-41883D02*
X106042Y-40893D01*
X107032Y-43179D02*
X107032Y-41883D01*
X107947Y-43179D02*
X107032Y-43179D01*
X109197Y-44429D02*
X107947Y-43179D01*
X25935Y-87500D02*
X25935Y-90000D01*
X25935Y-90515D02*
X24451Y-92000D01*
X25935Y-90000D02*
X25935Y-90515D01*
X29196Y-106997D02*
X29196Y-108491D01*
X28341Y-106141D02*
X29196Y-106997D01*
X29196Y-110167D02*
X28485Y-110877D01*
X29196Y-108491D02*
X29196Y-110167D01*
X38584Y-54940D02*
X38584Y-55248D01*
X40191Y-53333D02*
X38584Y-54940D01*
X36739Y-55248D02*
X36161Y-55825D01*
X38584Y-55248D02*
X36739Y-55248D01*
X29196Y-70014D02*
X29196Y-71508D01*
X30051Y-69159D02*
X29196Y-70014D01*
X27824Y-72880D02*
X27117Y-72880D01*
X29196Y-71508D02*
X27824Y-72880D01*
M02*
