G04 (created by PCBNEW (2013-jul-07)-stable) date Sun 20 Sep 2015 10:44:14 PM PDT*
%MOIN*%
G04 Gerber Fmt 3.4, Leading zero omitted, Abs format*
%FSLAX34Y34*%
G01*
G70*
G90*
G04 APERTURE LIST*
%ADD10C,0.00590551*%
%ADD11C,0.145669*%
%ADD12C,0.0472441*%
%ADD13C,0.07*%
%ADD14R,0.0315X0.0394*%
%ADD15R,0.055X0.035*%
%ADD16R,0.035X0.055*%
%ADD17C,0.1*%
%ADD18C,0.0590551*%
%ADD19C,0.06*%
%ADD20R,0.06X0.06*%
%ADD21C,0.076*%
%ADD22C,0.14*%
%ADD23C,0.16*%
%ADD24C,0.055*%
%ADD25C,0.0787402*%
%ADD26C,0.32*%
%ADD27C,0.2*%
%ADD28C,0.035*%
%ADD29C,0.06*%
%ADD30C,0.025*%
%ADD31C,0.01*%
G04 APERTURE END LIST*
G54D10*
G54D11*
X140899Y-27246D03*
X118100Y-27246D03*
G54D12*
X137750Y-28746D03*
X137250Y-27996D03*
X136750Y-28746D03*
X136250Y-27996D03*
X135750Y-28746D03*
X135250Y-27996D03*
X134750Y-28746D03*
X134250Y-27996D03*
X133750Y-28746D03*
X133250Y-27996D03*
X132750Y-28746D03*
X132250Y-27996D03*
X131750Y-28746D03*
X131250Y-27996D03*
X130750Y-28746D03*
X130250Y-27996D03*
X129750Y-28746D03*
X129250Y-27996D03*
X128750Y-28746D03*
X128250Y-27996D03*
X127750Y-28746D03*
X127250Y-27996D03*
X126750Y-28746D03*
X126250Y-27996D03*
X125750Y-28746D03*
X125250Y-27996D03*
X124750Y-28746D03*
X124250Y-27996D03*
X123750Y-28746D03*
X123250Y-27996D03*
X122750Y-28746D03*
X122250Y-27996D03*
X121750Y-28746D03*
X121250Y-27996D03*
X137750Y-27246D03*
X137250Y-26496D03*
X136750Y-27246D03*
X136250Y-26496D03*
X135750Y-27246D03*
X135250Y-26496D03*
X134750Y-27246D03*
X134250Y-26496D03*
X133750Y-27246D03*
X133250Y-26496D03*
X132750Y-27246D03*
X132250Y-26496D03*
X131750Y-27246D03*
X131250Y-26496D03*
X130750Y-27246D03*
X130250Y-26496D03*
X129750Y-27246D03*
X129250Y-26496D03*
X128750Y-27246D03*
X128250Y-26496D03*
X127750Y-27246D03*
X127250Y-26496D03*
X126750Y-27246D03*
X126250Y-26496D03*
X125750Y-27246D03*
X125250Y-26496D03*
X124750Y-27246D03*
X124250Y-26496D03*
X123750Y-27246D03*
X123250Y-26496D03*
X122750Y-27246D03*
X122250Y-26496D03*
X121750Y-27246D03*
X121250Y-26496D03*
G54D13*
X72177Y-28357D03*
X71192Y-28531D03*
X70207Y-28704D03*
X69222Y-28878D03*
X68237Y-29052D03*
X67253Y-29225D03*
X66268Y-29399D03*
X66962Y-33338D03*
X67947Y-33165D03*
X68932Y-32991D03*
X69917Y-32817D03*
X70902Y-32644D03*
X71886Y-32470D03*
X72871Y-32296D03*
X51565Y-34750D03*
X50699Y-35250D03*
X49833Y-35750D03*
X48967Y-36250D03*
X48101Y-36750D03*
X47235Y-37250D03*
X46369Y-37750D03*
X48369Y-41214D03*
X49235Y-40714D03*
X50101Y-40214D03*
X50967Y-39714D03*
X51833Y-39214D03*
X52699Y-38714D03*
X53565Y-38214D03*
X34384Y-47807D03*
X33741Y-48573D03*
X33098Y-49339D03*
X32455Y-50105D03*
X31813Y-50871D03*
X31170Y-51637D03*
X30527Y-52403D03*
X33591Y-54975D03*
X34234Y-54209D03*
X34877Y-53442D03*
X35520Y-52676D03*
X36162Y-51910D03*
X36805Y-51144D03*
X37448Y-50378D03*
X137295Y-114046D03*
X137637Y-113106D03*
X137979Y-112167D03*
X138321Y-111227D03*
X138663Y-110287D03*
X139005Y-109347D03*
X139347Y-108408D03*
X135588Y-107040D03*
X135246Y-107979D03*
X134904Y-108919D03*
X134562Y-109859D03*
X134220Y-110798D03*
X133878Y-111738D03*
X133536Y-112678D03*
X22704Y-65953D03*
X22362Y-66893D03*
X22020Y-67832D03*
X21678Y-68772D03*
X21336Y-69712D03*
X20994Y-70652D03*
X20652Y-71591D03*
X24411Y-72959D03*
X24753Y-72020D03*
X25095Y-71080D03*
X25437Y-70140D03*
X25779Y-69201D03*
X26121Y-68261D03*
X26463Y-67321D03*
X142064Y-93000D03*
X142064Y-92000D03*
X142064Y-91000D03*
X142064Y-90000D03*
X142064Y-89000D03*
X142064Y-88000D03*
X142064Y-87000D03*
X138064Y-87000D03*
X138064Y-88000D03*
X138064Y-89000D03*
X138064Y-90000D03*
X138064Y-91000D03*
X138064Y-92000D03*
X138064Y-93000D03*
X17935Y-87000D03*
X17935Y-88000D03*
X17935Y-89000D03*
X17935Y-90000D03*
X17935Y-91000D03*
X17935Y-92000D03*
X17935Y-93000D03*
X21935Y-93000D03*
X21935Y-92000D03*
X21935Y-91000D03*
X21935Y-90000D03*
X21935Y-89000D03*
X21935Y-88000D03*
X21935Y-87000D03*
X20652Y-108408D03*
X20994Y-109347D03*
X21336Y-110287D03*
X21678Y-111227D03*
X22020Y-112167D03*
X22362Y-113106D03*
X22704Y-114046D03*
X26463Y-112678D03*
X26121Y-111738D03*
X25779Y-110798D03*
X25437Y-109859D03*
X25095Y-108919D03*
X24753Y-107979D03*
X24411Y-107040D03*
X139347Y-71591D03*
X139005Y-70652D03*
X138663Y-69712D03*
X138321Y-68772D03*
X137979Y-67832D03*
X137637Y-66893D03*
X137295Y-65953D03*
X133536Y-67321D03*
X133878Y-68261D03*
X134220Y-69201D03*
X134562Y-70140D03*
X134904Y-71080D03*
X135246Y-72020D03*
X135588Y-72959D03*
X93731Y-29399D03*
X92746Y-29225D03*
X91762Y-29052D03*
X90777Y-28878D03*
X89792Y-28704D03*
X88807Y-28531D03*
X87822Y-28357D03*
X87128Y-32296D03*
X88113Y-32470D03*
X89097Y-32644D03*
X90082Y-32817D03*
X91067Y-32991D03*
X92052Y-33165D03*
X93037Y-33338D03*
X129472Y-52403D03*
X128829Y-51637D03*
X128186Y-50871D03*
X127543Y-50105D03*
X126901Y-49339D03*
X126258Y-48573D03*
X125615Y-47807D03*
X122551Y-50378D03*
X123194Y-51144D03*
X123836Y-51910D03*
X124479Y-52676D03*
X125122Y-53442D03*
X125765Y-54209D03*
X126408Y-54975D03*
X113630Y-37750D03*
X112764Y-37250D03*
X111898Y-36750D03*
X111032Y-36250D03*
X110166Y-35750D03*
X109300Y-35250D03*
X108434Y-34750D03*
X106434Y-38214D03*
X107300Y-38714D03*
X108166Y-39214D03*
X109032Y-39714D03*
X109898Y-40214D03*
X110764Y-40714D03*
X111630Y-41214D03*
G54D14*
X138500Y-50933D03*
X138125Y-50067D03*
X138875Y-50067D03*
G54D15*
X140500Y-48625D03*
X140500Y-49375D03*
G54D16*
X138875Y-47500D03*
X138125Y-47500D03*
G54D17*
X24370Y-28000D03*
X22500Y-28000D03*
X20630Y-28000D03*
G54D18*
X37669Y-57091D03*
X36161Y-55825D03*
X129114Y-56620D03*
X130622Y-55355D03*
X68726Y-37581D03*
X68384Y-35642D03*
X114736Y-41835D03*
X115720Y-40130D03*
X137569Y-75431D03*
X139418Y-74758D03*
X96168Y-32859D03*
X96509Y-30920D03*
X87334Y-36886D03*
X87676Y-34948D03*
X51477Y-44598D03*
X50493Y-42893D03*
X139079Y-96000D03*
X141048Y-96000D03*
X136924Y-116836D03*
X135075Y-116163D03*
X30335Y-110204D03*
X28485Y-110877D03*
X26419Y-92000D03*
X24451Y-92000D03*
X28967Y-73553D03*
X27117Y-72880D03*
X55656Y-35835D03*
X54672Y-34130D03*
X38598Y-47427D03*
X37090Y-46162D03*
X26535Y-64155D03*
X24685Y-63481D03*
X20919Y-84000D03*
X18951Y-84000D03*
X22430Y-104568D03*
X20580Y-105241D03*
X129664Y-69795D03*
X131514Y-69122D03*
X133579Y-88000D03*
X135548Y-88000D03*
X75649Y-30775D03*
X75307Y-28837D03*
X119759Y-54027D03*
X121266Y-52761D03*
X131032Y-106446D03*
X132882Y-107119D03*
X105057Y-42598D03*
X106042Y-40893D03*
G54D19*
X20000Y-38500D03*
X20000Y-37500D03*
X20000Y-36500D03*
X20000Y-35500D03*
G54D20*
X135064Y-90000D03*
G54D19*
X134064Y-90000D03*
G54D20*
X52467Y-42313D03*
G54D19*
X52967Y-43179D03*
G54D20*
X70438Y-35772D03*
G54D19*
X70612Y-36757D03*
G54D20*
X89561Y-35772D03*
G54D19*
X89387Y-36757D03*
G54D20*
X37818Y-54605D03*
G54D19*
X38584Y-55248D03*
G54D20*
X28256Y-108833D03*
G54D19*
X29196Y-108491D03*
G54D20*
X131743Y-108833D03*
G54D19*
X130803Y-108491D03*
G54D20*
X131743Y-71166D03*
G54D19*
X130803Y-71508D03*
G54D20*
X122181Y-54605D03*
G54D19*
X121415Y-55248D03*
G54D20*
X28256Y-71166D03*
G54D19*
X29196Y-71508D03*
G54D20*
X107532Y-42313D03*
G54D19*
X107032Y-43179D03*
G54D20*
X24935Y-90000D03*
G54D19*
X25935Y-90000D03*
G54D20*
X99407Y-42385D03*
G54D19*
X100273Y-42885D03*
X101139Y-43385D03*
X102005Y-43885D03*
X102871Y-44385D03*
X103737Y-44885D03*
X104603Y-45385D03*
X105469Y-45885D03*
X106335Y-46385D03*
X107201Y-46885D03*
X108067Y-47385D03*
X108933Y-47885D03*
X109799Y-48385D03*
X110665Y-48885D03*
X111531Y-49385D03*
G54D20*
X130261Y-100844D03*
G54D19*
X129919Y-101784D03*
X129577Y-102723D03*
X129235Y-103663D03*
X128893Y-104603D03*
X128551Y-105543D03*
X128209Y-106482D03*
X127867Y-107422D03*
X127525Y-108362D03*
X127183Y-109301D03*
X126841Y-110241D03*
X126499Y-111181D03*
X126157Y-112120D03*
X125815Y-113060D03*
X125473Y-114000D03*
G54D20*
X130939Y-83000D03*
G54D19*
X130939Y-84000D03*
X130939Y-85000D03*
X130939Y-86000D03*
X130939Y-87000D03*
X130939Y-88000D03*
X130939Y-89000D03*
X130939Y-90000D03*
X130939Y-91000D03*
X130939Y-92000D03*
X130939Y-93000D03*
X130939Y-94000D03*
X130939Y-95000D03*
X130939Y-96000D03*
X130939Y-97000D03*
G54D20*
X125473Y-65999D03*
G54D19*
X125815Y-66939D03*
X126157Y-67879D03*
X126499Y-68818D03*
X126841Y-69758D03*
X127183Y-70698D03*
X127525Y-71637D03*
X127867Y-72577D03*
X128209Y-73517D03*
X128551Y-74456D03*
X128893Y-75396D03*
X129235Y-76336D03*
X129577Y-77276D03*
X129919Y-78215D03*
X130261Y-79155D03*
G54D20*
X114522Y-51894D03*
G54D19*
X115164Y-52660D03*
X115807Y-53426D03*
X116450Y-54192D03*
X117093Y-54958D03*
X117736Y-55724D03*
X118378Y-56490D03*
X119021Y-57256D03*
X119664Y-58022D03*
X120307Y-58788D03*
X120950Y-59554D03*
X121592Y-60320D03*
X122235Y-61086D03*
X122878Y-61852D03*
X123521Y-62619D03*
G54D20*
X81952Y-38619D03*
G54D19*
X82936Y-38792D03*
X83921Y-38966D03*
X84906Y-39140D03*
X85891Y-39313D03*
X86876Y-39487D03*
X87860Y-39660D03*
X88845Y-39834D03*
X89830Y-40008D03*
X90815Y-40181D03*
X91800Y-40355D03*
X92784Y-40529D03*
X93769Y-40702D03*
X94754Y-40876D03*
X95739Y-41050D03*
G54D20*
X64260Y-41050D03*
G54D19*
X65245Y-40876D03*
X66230Y-40702D03*
X67215Y-40529D03*
X68199Y-40355D03*
X69184Y-40181D03*
X70169Y-40008D03*
X71154Y-39834D03*
X72139Y-39660D03*
X73123Y-39487D03*
X74108Y-39313D03*
X75093Y-39140D03*
X76078Y-38966D03*
X77063Y-38792D03*
X78047Y-38619D03*
G54D20*
X48468Y-49385D03*
G54D19*
X49334Y-48885D03*
X50200Y-48385D03*
X51066Y-47885D03*
X51932Y-47385D03*
X52798Y-46885D03*
X53664Y-46385D03*
X54530Y-45885D03*
X55396Y-45385D03*
X56262Y-44885D03*
X57128Y-44385D03*
X57994Y-43885D03*
X58860Y-43385D03*
X59726Y-42885D03*
X60592Y-42385D03*
G54D20*
X36478Y-62619D03*
G54D19*
X37121Y-61852D03*
X37764Y-61086D03*
X38407Y-60320D03*
X39049Y-59554D03*
X39692Y-58788D03*
X40335Y-58022D03*
X40978Y-57256D03*
X41621Y-56490D03*
X42263Y-55724D03*
X42906Y-54958D03*
X43549Y-54192D03*
X44192Y-53426D03*
X44835Y-52660D03*
X45477Y-51894D03*
G54D20*
X29738Y-79155D03*
G54D19*
X30080Y-78215D03*
X30422Y-77276D03*
X30764Y-76336D03*
X31106Y-75396D03*
X31448Y-74456D03*
X31790Y-73517D03*
X32132Y-72577D03*
X32474Y-71637D03*
X32816Y-70698D03*
X33158Y-69758D03*
X33500Y-68818D03*
X33842Y-67879D03*
X34184Y-66939D03*
X34526Y-65999D03*
G54D20*
X29060Y-97000D03*
G54D19*
X29060Y-96000D03*
X29060Y-95000D03*
X29060Y-94000D03*
X29060Y-93000D03*
X29060Y-92000D03*
X29060Y-91000D03*
X29060Y-90000D03*
X29060Y-89000D03*
X29060Y-88000D03*
X29060Y-87000D03*
X29060Y-86000D03*
X29060Y-85000D03*
X29060Y-84000D03*
X29060Y-83000D03*
G54D20*
X34526Y-114000D03*
G54D19*
X34184Y-113060D03*
X33842Y-112120D03*
X33500Y-111181D03*
X33158Y-110241D03*
X32816Y-109301D03*
X32474Y-108362D03*
X32132Y-107422D03*
X31790Y-106482D03*
X31448Y-105543D03*
X31106Y-104603D03*
X30764Y-103663D03*
X30422Y-102723D03*
X30080Y-101784D03*
X29738Y-100844D03*
G54D21*
X32500Y-26180D03*
G54D22*
X32500Y-27360D03*
G54D23*
X32500Y-29720D03*
G54D22*
X30730Y-26970D03*
X34270Y-26970D03*
G54D17*
X80000Y-30935D03*
X80000Y-28935D03*
X21832Y-100256D03*
X19863Y-100603D03*
X21832Y-79743D03*
X19863Y-79396D03*
X28848Y-60467D03*
X27116Y-59467D03*
X42034Y-44754D03*
X40748Y-43222D03*
X59798Y-34497D03*
X59114Y-32618D03*
G54D24*
X30051Y-69159D03*
X29111Y-68817D03*
X28341Y-106141D03*
X27401Y-106484D03*
X25935Y-87500D03*
X24935Y-87500D03*
X131658Y-73858D03*
X132598Y-73515D03*
X40191Y-53333D03*
X39425Y-52690D03*
X55133Y-41929D03*
X54633Y-41063D03*
X73073Y-36322D03*
X72900Y-35338D03*
X91850Y-37191D03*
X92023Y-36206D03*
X129948Y-110840D03*
X130888Y-111182D03*
X109197Y-44429D03*
X109697Y-43563D03*
X134064Y-92500D03*
X135064Y-92500D03*
X123022Y-57163D03*
X123788Y-56520D03*
G54D25*
X40523Y-26500D03*
X43476Y-26500D03*
G54D17*
X100201Y-34497D03*
X100885Y-32618D03*
X117965Y-44754D03*
X119251Y-43222D03*
X131151Y-60467D03*
X132883Y-59467D03*
X138167Y-79743D03*
X140136Y-79396D03*
X138167Y-100256D03*
X140136Y-100603D03*
G54D26*
X30000Y-36000D03*
X130000Y-36000D03*
X130000Y-116000D03*
X30000Y-116000D03*
G54D27*
X143600Y-26400D03*
X16400Y-117500D03*
X143600Y-117500D03*
X16400Y-26400D03*
G54D28*
X139538Y-68577D03*
X118067Y-43811D03*
X29933Y-73835D03*
X62376Y-41198D03*
X80575Y-33231D03*
X109885Y-39321D03*
X71733Y-38230D03*
X109892Y-37475D03*
X34657Y-50871D03*
X117826Y-40877D03*
X104663Y-26928D03*
X116732Y-37580D03*
X106050Y-34557D03*
X36354Y-68818D03*
X56291Y-43341D03*
X97568Y-33629D03*
X130571Y-103257D03*
X55407Y-44496D03*
X29054Y-81273D03*
X83720Y-39645D03*
X110665Y-51248D03*
X120870Y-44695D03*
X28982Y-81934D03*
X129962Y-57226D03*
X122617Y-46594D03*
X30984Y-44290D03*
X111030Y-26126D03*
X125169Y-31190D03*
X96046Y-29074D03*
X128663Y-29404D03*
X76759Y-39834D03*
X123183Y-48403D03*
X120739Y-29682D03*
X125513Y-30536D03*
X118393Y-30536D03*
X44667Y-38761D03*
X123744Y-31530D03*
X122989Y-42111D03*
X104542Y-47168D03*
X128298Y-57753D03*
X31807Y-92310D03*
X78505Y-41603D03*
X81427Y-32531D03*
X39241Y-46612D03*
X116534Y-32401D03*
X127152Y-33006D03*
X97547Y-29563D03*
X81621Y-31514D03*
X128212Y-30861D03*
X118068Y-30861D03*
X106002Y-26960D03*
X136938Y-31968D03*
X109072Y-37131D03*
X103859Y-43872D03*
X134200Y-33300D03*
G54D29*
X26090Y-29720D02*
X24370Y-28000D01*
X32500Y-29720D02*
X26090Y-29720D01*
G54D30*
X137854Y-66893D02*
X137637Y-66893D01*
X139538Y-68577D02*
X137854Y-66893D01*
X20743Y-70401D02*
X20994Y-70652D01*
X20743Y-64458D02*
X20743Y-70401D01*
X31170Y-54032D02*
X20743Y-64458D01*
X31170Y-51637D02*
X31170Y-54032D01*
X87662Y-29675D02*
X88807Y-28531D01*
X79489Y-29675D02*
X87662Y-29675D01*
X77850Y-31314D02*
X79489Y-29675D01*
X69177Y-31314D02*
X77850Y-31314D01*
X67253Y-29390D02*
X69177Y-31314D01*
X64951Y-31691D02*
X67253Y-29390D01*
X59009Y-31691D02*
X64951Y-31691D01*
X58262Y-32439D02*
X59009Y-31691D01*
X58262Y-33964D02*
X58262Y-32439D01*
X54879Y-37347D02*
X58262Y-33964D01*
X47332Y-37347D02*
X54879Y-37347D01*
X47235Y-37250D02*
X47332Y-37347D01*
X67253Y-29390D02*
X67253Y-29225D01*
X88807Y-28573D02*
X88807Y-28531D01*
X92106Y-31872D02*
X88807Y-28573D01*
X106371Y-31872D02*
X92106Y-31872D01*
X109300Y-34801D02*
X106371Y-31872D01*
X109300Y-35250D02*
X109300Y-34801D01*
X118551Y-44295D02*
X118067Y-43811D01*
X121166Y-44295D02*
X118551Y-44295D01*
X125444Y-48573D02*
X121166Y-44295D01*
X126258Y-48573D02*
X125444Y-48573D01*
G54D29*
X131550Y-100256D02*
X130961Y-100844D01*
X138167Y-100256D02*
X131550Y-100256D01*
X130261Y-100844D02*
X130961Y-100844D01*
X28450Y-79743D02*
X29038Y-79155D01*
X21832Y-79743D02*
X28450Y-79743D01*
X29738Y-79155D02*
X29038Y-79155D01*
X67947Y-33444D02*
X67947Y-33165D01*
X66894Y-34497D02*
X59798Y-34497D01*
X67947Y-33444D02*
X66894Y-34497D01*
X115971Y-51144D02*
X115222Y-51894D01*
X123194Y-51144D02*
X115971Y-51144D01*
X114522Y-51894D02*
X115222Y-51894D01*
X134895Y-79743D02*
X131639Y-83000D01*
X138167Y-79743D02*
X134895Y-79743D01*
X130939Y-83000D02*
X131639Y-83000D01*
X32239Y-114000D02*
X34526Y-114000D01*
X29978Y-111738D02*
X32239Y-114000D01*
X26121Y-111738D02*
X29978Y-111738D01*
X36478Y-62619D02*
X35778Y-62619D01*
X129238Y-65999D02*
X125473Y-65999D01*
X131500Y-68261D02*
X129238Y-65999D01*
X133878Y-68261D02*
X131500Y-68261D01*
X104670Y-38966D02*
X100201Y-34497D01*
X107048Y-38966D02*
X104670Y-38966D01*
X107300Y-38714D02*
X107048Y-38966D01*
X25104Y-100256D02*
X28360Y-97000D01*
X21832Y-100256D02*
X25104Y-100256D01*
X29060Y-97000D02*
X28360Y-97000D01*
X82696Y-37874D02*
X81952Y-38619D01*
X96824Y-37874D02*
X82696Y-37874D01*
X100201Y-34497D02*
X96824Y-37874D01*
X33627Y-60467D02*
X35778Y-62619D01*
X28848Y-60467D02*
X33627Y-60467D01*
X41923Y-44865D02*
X42034Y-44754D01*
X27365Y-44865D02*
X41923Y-44865D01*
X20000Y-37500D02*
X27365Y-44865D01*
X77192Y-33743D02*
X80000Y-30935D01*
X68246Y-33743D02*
X77192Y-33743D01*
X67947Y-33444D02*
X68246Y-33743D01*
X88112Y-32216D02*
X88112Y-32470D01*
X86832Y-30935D02*
X88112Y-32216D01*
X80000Y-30935D02*
X86832Y-30935D01*
G54D31*
X58792Y-46327D02*
X61950Y-43170D01*
X35245Y-71004D02*
X39490Y-66760D01*
X39490Y-66760D02*
X39490Y-65630D01*
X39490Y-65630D02*
X58792Y-46327D01*
X137750Y-27246D02*
X137750Y-28075D01*
X83103Y-36295D02*
X91465Y-36295D01*
X91465Y-36295D02*
X91826Y-36656D01*
X91826Y-36656D02*
X95961Y-36656D01*
X95961Y-36656D02*
X98788Y-33829D01*
X98788Y-33829D02*
X106258Y-33829D01*
X106258Y-33829D02*
X109474Y-37046D01*
X109474Y-37046D02*
X109474Y-37533D01*
X109474Y-37533D02*
X110823Y-38881D01*
X110823Y-38881D02*
X129609Y-38881D01*
X129609Y-38881D02*
X135482Y-33008D01*
X135482Y-33008D02*
X135482Y-31928D01*
X135482Y-31928D02*
X137200Y-30211D01*
X137200Y-30211D02*
X137200Y-28625D01*
X137200Y-28625D02*
X137750Y-28075D01*
X35245Y-71004D02*
X35245Y-71006D01*
X82014Y-36295D02*
X83103Y-36295D01*
X75140Y-43170D02*
X82014Y-36295D01*
X61950Y-43170D02*
X75140Y-43170D01*
X35245Y-114094D02*
X35245Y-99945D01*
X34883Y-114456D02*
X35245Y-114094D01*
X32860Y-114456D02*
X34883Y-114456D01*
X30717Y-114242D02*
X30931Y-114456D01*
X26970Y-114242D02*
X30717Y-114242D01*
X26648Y-114565D02*
X26970Y-114242D01*
X22475Y-114565D02*
X26648Y-114565D01*
X21843Y-113933D02*
X22475Y-114565D01*
X21843Y-112343D02*
X21843Y-113933D01*
X22020Y-112167D02*
X21843Y-112343D01*
X30931Y-114456D02*
X32860Y-114456D01*
X35245Y-71006D02*
X35245Y-71006D01*
X34280Y-71971D02*
X35245Y-71006D01*
X34280Y-98980D02*
X34280Y-71971D01*
X35245Y-99945D02*
X34280Y-98980D01*
X35245Y-71006D02*
X35245Y-71006D01*
X130271Y-88332D02*
X130939Y-89000D01*
X130271Y-82033D02*
X130271Y-88332D01*
X130915Y-81389D02*
X130271Y-82033D01*
X130915Y-74986D02*
X130915Y-81389D01*
X127567Y-71637D02*
X130915Y-74986D01*
X127525Y-71637D02*
X127567Y-71637D01*
X53664Y-46950D02*
X53664Y-46385D01*
X42591Y-58022D02*
X53664Y-46950D01*
X40335Y-58022D02*
X42591Y-58022D01*
X31472Y-73835D02*
X29933Y-73835D01*
X31790Y-73517D02*
X31472Y-73835D01*
X69874Y-39712D02*
X70169Y-40008D01*
X63861Y-39712D02*
X69874Y-39712D01*
X62376Y-41198D02*
X63861Y-39712D01*
X131800Y-89861D02*
X130939Y-89000D01*
X131800Y-93788D02*
X131800Y-89861D01*
X131088Y-94500D02*
X131800Y-93788D01*
X130798Y-94500D02*
X131088Y-94500D01*
X127896Y-97402D02*
X130798Y-94500D01*
X127896Y-106169D02*
X127896Y-97402D01*
X128209Y-106482D02*
X127896Y-106169D01*
X104439Y-45549D02*
X104603Y-45385D01*
X97954Y-45549D02*
X104439Y-45549D01*
X93245Y-40840D02*
X97954Y-45549D01*
X93245Y-40352D02*
X93245Y-40840D01*
X92221Y-39329D02*
X93245Y-40352D01*
X88192Y-39329D02*
X92221Y-39329D01*
X87860Y-39660D02*
X88192Y-39329D01*
X76847Y-36960D02*
X80575Y-33231D01*
X71335Y-36960D02*
X76847Y-36960D01*
X70146Y-38148D02*
X71335Y-36960D01*
X59801Y-38148D02*
X70146Y-38148D01*
X54909Y-43041D02*
X59801Y-38148D01*
X54031Y-43041D02*
X54909Y-43041D01*
X50935Y-46137D02*
X54031Y-43041D01*
X38362Y-46137D02*
X50935Y-46137D01*
X37585Y-46913D02*
X38362Y-46137D01*
X34248Y-46913D02*
X37585Y-46913D01*
X17415Y-63746D02*
X34248Y-46913D01*
X17415Y-90480D02*
X17415Y-63746D01*
X17935Y-91000D02*
X17415Y-90480D01*
X137595Y-26150D02*
X137250Y-26496D01*
X141358Y-26150D02*
X137595Y-26150D01*
X142001Y-26793D02*
X141358Y-26150D01*
X142001Y-27685D02*
X142001Y-26793D01*
X130183Y-39503D02*
X142001Y-27685D01*
X110067Y-39503D02*
X130183Y-39503D01*
X109885Y-39321D02*
X110067Y-39503D01*
X28060Y-91000D02*
X21935Y-91000D01*
X29060Y-90000D02*
X28060Y-91000D01*
X32255Y-72699D02*
X32132Y-72577D01*
X32255Y-74297D02*
X32255Y-72699D01*
X31622Y-74929D02*
X32255Y-74297D01*
X30930Y-74929D02*
X31622Y-74929D01*
X30649Y-75211D02*
X30930Y-74929D01*
X30649Y-75576D02*
X30649Y-75211D01*
X31234Y-76161D02*
X30649Y-75576D01*
X31234Y-78481D02*
X31234Y-76161D01*
X25385Y-84330D02*
X31234Y-78481D01*
X25385Y-87713D02*
X25385Y-84330D01*
X25149Y-87950D02*
X25385Y-87713D01*
X23621Y-87950D02*
X25149Y-87950D01*
X22159Y-86488D02*
X23621Y-87950D01*
X21735Y-86488D02*
X22159Y-86488D01*
X21422Y-86800D02*
X21735Y-86488D01*
X21422Y-90487D02*
X21422Y-86800D01*
X21935Y-91000D02*
X21422Y-90487D01*
X130067Y-89127D02*
X130939Y-90000D01*
X130067Y-81362D02*
X130067Y-89127D01*
X130714Y-80715D02*
X130067Y-81362D01*
X130714Y-75097D02*
X130714Y-80715D01*
X128194Y-72577D02*
X130714Y-75097D01*
X127867Y-72577D02*
X128194Y-72577D01*
X131599Y-90660D02*
X130939Y-90000D01*
X131599Y-92989D02*
X131599Y-90660D01*
X131088Y-93500D02*
X131599Y-92989D01*
X130799Y-93500D02*
X131088Y-93500D01*
X127480Y-96819D02*
X130799Y-93500D01*
X127480Y-107035D02*
X127480Y-96819D01*
X127867Y-107422D02*
X127480Y-107035D01*
X53525Y-45885D02*
X54530Y-45885D01*
X53206Y-46204D02*
X53525Y-45885D01*
X53206Y-46657D02*
X53206Y-46204D01*
X53249Y-46700D02*
X53206Y-46657D01*
X53249Y-47075D02*
X53249Y-46700D01*
X43068Y-57256D02*
X53249Y-47075D01*
X40978Y-57256D02*
X43068Y-57256D01*
X69462Y-41526D02*
X71154Y-39834D01*
X60080Y-41526D02*
X69462Y-41526D01*
X58379Y-43227D02*
X60080Y-41526D01*
X58379Y-43633D02*
X58379Y-43227D01*
X58457Y-43711D02*
X58379Y-43633D01*
X58457Y-44087D02*
X58457Y-43711D01*
X56659Y-45885D02*
X58457Y-44087D01*
X54530Y-45885D02*
X56659Y-45885D01*
X97504Y-45885D02*
X105469Y-45885D01*
X92267Y-40648D02*
X97504Y-45885D01*
X92267Y-40185D02*
X92267Y-40648D01*
X91612Y-39529D02*
X92267Y-40185D01*
X89150Y-39529D02*
X91612Y-39529D01*
X88845Y-39834D02*
X89150Y-39529D01*
X136750Y-28075D02*
X136750Y-27246D01*
X136147Y-28678D02*
X136750Y-28075D01*
X136147Y-28895D02*
X136147Y-28678D01*
X131889Y-33153D02*
X136147Y-28895D01*
X130237Y-33153D02*
X131889Y-33153D01*
X124727Y-38663D02*
X130237Y-33153D01*
X111080Y-38663D02*
X124727Y-38663D01*
X109892Y-37475D02*
X111080Y-38663D01*
X71265Y-38698D02*
X71733Y-38230D01*
X60427Y-38698D02*
X71265Y-38698D01*
X55239Y-43886D02*
X60427Y-38698D01*
X53789Y-43886D02*
X55239Y-43886D01*
X50955Y-46720D02*
X53789Y-43886D01*
X40160Y-46720D02*
X50955Y-46720D01*
X29242Y-57637D02*
X40160Y-46720D01*
X28017Y-57637D02*
X29242Y-57637D01*
X25736Y-59918D02*
X28017Y-57637D01*
X25736Y-65430D02*
X25736Y-59918D01*
X21454Y-69712D02*
X25736Y-65430D01*
X21336Y-69712D02*
X21454Y-69712D01*
X106174Y-46547D02*
X106335Y-46385D01*
X97354Y-46547D02*
X106174Y-46547D01*
X91282Y-40474D02*
X97354Y-46547D01*
X91282Y-39982D02*
X91282Y-40474D01*
X91030Y-39729D02*
X91282Y-39982D01*
X90109Y-39729D02*
X91030Y-39729D01*
X89830Y-40008D02*
X90109Y-39729D01*
X24930Y-70915D02*
X25095Y-71080D01*
X24930Y-67863D02*
X24930Y-70915D01*
X26174Y-66618D02*
X24930Y-67863D01*
X26764Y-66618D02*
X26174Y-66618D01*
X27166Y-67021D02*
X26764Y-66618D01*
X27166Y-67514D02*
X27166Y-67021D01*
X30253Y-70601D02*
X27166Y-67514D01*
X31437Y-70601D02*
X30253Y-70601D01*
X32474Y-71637D02*
X31437Y-70601D01*
X127066Y-107903D02*
X127525Y-108362D01*
X127066Y-96230D02*
X127066Y-107903D01*
X130796Y-92500D02*
X127066Y-96230D01*
X131080Y-92500D02*
X130796Y-92500D01*
X131399Y-92180D02*
X131080Y-92500D01*
X131399Y-91460D02*
X131399Y-92180D01*
X130939Y-91000D02*
X131399Y-91460D01*
X53659Y-45385D02*
X55396Y-45385D01*
X52330Y-46714D02*
X53659Y-45385D01*
X52330Y-47146D02*
X52330Y-46714D01*
X52401Y-47218D02*
X52330Y-47146D01*
X52401Y-47560D02*
X52401Y-47218D01*
X43471Y-56490D02*
X52401Y-47560D01*
X41621Y-56490D02*
X43471Y-56490D01*
X71646Y-39168D02*
X72139Y-39660D01*
X61688Y-39168D02*
X71646Y-39168D01*
X56660Y-44196D02*
X61688Y-39168D01*
X56660Y-44646D02*
X56660Y-44196D01*
X56731Y-44718D02*
X56660Y-44646D01*
X56731Y-45052D02*
X56731Y-44718D01*
X56399Y-45385D02*
X56731Y-45052D01*
X55396Y-45385D02*
X56399Y-45385D01*
X31813Y-50871D02*
X34657Y-50871D01*
X136795Y-25950D02*
X136250Y-26496D01*
X141441Y-25950D02*
X136795Y-25950D01*
X142222Y-26731D02*
X141441Y-25950D01*
X142222Y-27754D02*
X142222Y-26731D01*
X129099Y-40877D02*
X142222Y-27754D01*
X117826Y-40877D02*
X129099Y-40877D01*
X107159Y-46843D02*
X107201Y-46885D01*
X97357Y-46843D02*
X107159Y-46843D01*
X90815Y-40301D02*
X97357Y-46843D01*
X90815Y-40181D02*
X90815Y-40301D01*
X32939Y-70821D02*
X32816Y-70698D01*
X32939Y-80757D02*
X32939Y-70821D01*
X29197Y-84500D02*
X32939Y-80757D01*
X28914Y-84500D02*
X29197Y-84500D01*
X28404Y-85009D02*
X28914Y-84500D01*
X28404Y-87343D02*
X28404Y-85009D01*
X29060Y-88000D02*
X28404Y-87343D01*
X41750Y-55724D02*
X42263Y-55724D01*
X39874Y-57600D02*
X41750Y-55724D01*
X35716Y-53442D02*
X34877Y-53442D01*
X39874Y-57600D02*
X35716Y-53442D01*
X32492Y-70374D02*
X32816Y-70698D01*
X32492Y-67078D02*
X32492Y-70374D01*
X34649Y-64922D02*
X32492Y-67078D01*
X34990Y-64922D02*
X34649Y-64922D01*
X40147Y-59764D02*
X34990Y-64922D01*
X40147Y-58601D02*
X40147Y-59764D01*
X39874Y-58327D02*
X40147Y-58601D01*
X39874Y-57600D02*
X39874Y-58327D01*
X128512Y-74456D02*
X128551Y-74456D01*
X122410Y-68355D02*
X128512Y-74456D01*
X122410Y-61581D02*
X122410Y-68355D01*
X122698Y-61294D02*
X122410Y-61581D01*
X122698Y-60652D02*
X122698Y-61294D01*
X120834Y-58788D02*
X122698Y-60652D01*
X120307Y-58788D02*
X120834Y-58788D01*
X126866Y-108984D02*
X127183Y-109301D01*
X126866Y-96073D02*
X126866Y-108984D01*
X130939Y-92000D02*
X126866Y-96073D01*
X53783Y-44885D02*
X56262Y-44885D01*
X51464Y-47204D02*
X53783Y-44885D01*
X51464Y-47646D02*
X51464Y-47204D01*
X51535Y-47718D02*
X51464Y-47646D01*
X51535Y-48055D02*
X51535Y-47718D01*
X43867Y-55724D02*
X51535Y-48055D01*
X42263Y-55724D02*
X43867Y-55724D01*
X72604Y-38967D02*
X73123Y-39487D01*
X61601Y-38967D02*
X72604Y-38967D01*
X56262Y-44307D02*
X61601Y-38967D01*
X56262Y-44885D02*
X56262Y-44307D01*
X135750Y-28185D02*
X135750Y-27246D01*
X135179Y-28756D02*
X135750Y-28185D01*
X135179Y-28864D02*
X135179Y-28756D01*
X131625Y-32418D02*
X135179Y-28864D01*
X130549Y-32418D02*
X131625Y-32418D01*
X125387Y-37580D02*
X130549Y-32418D01*
X116732Y-37580D02*
X125387Y-37580D01*
X48101Y-36392D02*
X48101Y-36750D01*
X50252Y-34241D02*
X48101Y-36392D01*
X52899Y-34241D02*
X50252Y-34241D01*
X53233Y-34575D02*
X52899Y-34241D01*
X54869Y-34575D02*
X53233Y-34575D01*
X62517Y-26928D02*
X54869Y-34575D01*
X104663Y-26928D02*
X62517Y-26928D01*
X91800Y-40468D02*
X91800Y-40355D01*
X97670Y-46338D02*
X91800Y-40468D01*
X105736Y-46338D02*
X97670Y-46338D01*
X106151Y-45923D02*
X105736Y-46338D01*
X106880Y-45923D02*
X106151Y-45923D01*
X108067Y-47110D02*
X106880Y-45923D01*
X108067Y-47385D02*
X108067Y-47110D01*
X33497Y-70097D02*
X33158Y-69758D01*
X33497Y-82563D02*
X33497Y-70097D01*
X29060Y-87000D02*
X33497Y-82563D01*
X73293Y-40129D02*
X74108Y-39313D01*
X71966Y-40129D02*
X73293Y-40129D01*
X71678Y-39841D02*
X71966Y-40129D01*
X71678Y-39708D02*
X71678Y-39841D01*
X71346Y-39375D02*
X71678Y-39708D01*
X61858Y-39375D02*
X71346Y-39375D01*
X57128Y-44105D02*
X61858Y-39375D01*
X57128Y-44385D02*
X57128Y-44105D01*
X126915Y-110241D02*
X126841Y-110241D01*
X127997Y-109159D02*
X126915Y-110241D01*
X127997Y-108197D02*
X127997Y-109159D01*
X127266Y-107466D02*
X127997Y-108197D01*
X127266Y-96672D02*
X127266Y-107466D01*
X130939Y-93000D02*
X127266Y-96672D01*
X135560Y-26496D02*
X135250Y-26496D01*
X135961Y-26896D02*
X135560Y-26496D01*
X136553Y-26896D02*
X135961Y-26896D01*
X136595Y-26854D02*
X136553Y-26896D01*
X137062Y-26854D02*
X136595Y-26854D01*
X137092Y-26885D02*
X137062Y-26854D01*
X137564Y-26885D02*
X137092Y-26885D01*
X138098Y-26351D02*
X137564Y-26885D01*
X141275Y-26351D02*
X138098Y-26351D01*
X141794Y-26869D02*
X141275Y-26351D01*
X141794Y-27609D02*
X141794Y-26869D01*
X130100Y-39303D02*
X141794Y-27609D01*
X110678Y-39303D02*
X130100Y-39303D01*
X106050Y-34675D02*
X110678Y-39303D01*
X106050Y-34557D02*
X106050Y-34675D01*
X33500Y-68818D02*
X33725Y-68818D01*
X33725Y-68818D02*
X36354Y-68818D01*
X28605Y-86455D02*
X29060Y-86000D01*
X28605Y-87184D02*
X28605Y-86455D01*
X28887Y-87467D02*
X28605Y-87184D01*
X29255Y-87467D02*
X28887Y-87467D01*
X33725Y-82996D02*
X29255Y-87467D01*
X33725Y-68818D02*
X33725Y-82996D01*
X55546Y-44086D02*
X56291Y-43341D01*
X53872Y-44086D02*
X55546Y-44086D01*
X50024Y-47935D02*
X53872Y-44086D01*
X49968Y-47935D02*
X50024Y-47935D01*
X49732Y-48172D02*
X49968Y-47935D01*
X49732Y-48646D02*
X49732Y-48172D01*
X49803Y-48718D02*
X49732Y-48646D01*
X49803Y-49052D02*
X49803Y-48718D01*
X48840Y-50016D02*
X49803Y-49052D01*
X46689Y-50016D02*
X48840Y-50016D01*
X43549Y-53156D02*
X46689Y-50016D01*
X43549Y-54192D02*
X43549Y-53156D01*
X126539Y-111181D02*
X126499Y-111181D01*
X128320Y-109400D02*
X126539Y-111181D01*
X128320Y-107238D02*
X128320Y-109400D01*
X127694Y-106612D02*
X128320Y-107238D01*
X127694Y-97244D02*
X127694Y-106612D01*
X130939Y-94000D02*
X127694Y-97244D01*
X134750Y-28185D02*
X134750Y-27246D01*
X134179Y-28756D02*
X134750Y-28185D01*
X134179Y-28864D02*
X134179Y-28756D01*
X132578Y-30465D02*
X134179Y-28864D01*
X131943Y-30465D02*
X132578Y-30465D01*
X125674Y-36733D02*
X131943Y-30465D01*
X116461Y-36733D02*
X125674Y-36733D01*
X114738Y-38457D02*
X116461Y-36733D01*
X112002Y-38457D02*
X114738Y-38457D01*
X110696Y-37150D02*
X112002Y-38457D01*
X109972Y-37150D02*
X110696Y-37150D01*
X106451Y-33629D02*
X109972Y-37150D01*
X97568Y-33629D02*
X106451Y-33629D01*
X87239Y-34502D02*
X89097Y-32644D01*
X80542Y-34502D02*
X87239Y-34502D01*
X76078Y-38966D02*
X80542Y-34502D01*
X32693Y-68914D02*
X33728Y-67879D01*
X32693Y-69929D02*
X32693Y-68914D01*
X33284Y-70520D02*
X32693Y-69929D01*
X33284Y-80776D02*
X33284Y-70520D01*
X29060Y-85000D02*
X33284Y-80776D01*
X33728Y-67879D02*
X33842Y-67879D01*
X129505Y-77276D02*
X129577Y-77276D01*
X122210Y-69981D02*
X129505Y-77276D01*
X122210Y-61111D02*
X122210Y-69981D01*
X122235Y-61086D02*
X122210Y-61111D01*
X126221Y-112120D02*
X126157Y-112120D01*
X128670Y-109671D02*
X126221Y-112120D01*
X128670Y-106307D02*
X128670Y-109671D01*
X128100Y-105737D02*
X128670Y-106307D01*
X128100Y-97838D02*
X128100Y-105737D01*
X130939Y-95000D02*
X128100Y-97838D01*
X58860Y-43967D02*
X58860Y-43385D01*
X37705Y-65122D02*
X58860Y-43967D01*
X34750Y-65122D02*
X37705Y-65122D01*
X33728Y-66144D02*
X34750Y-65122D01*
X33728Y-67879D02*
X33728Y-66144D01*
X73318Y-41726D02*
X76078Y-38966D01*
X60246Y-41726D02*
X73318Y-41726D01*
X58860Y-43112D02*
X60246Y-41726D01*
X58860Y-43385D02*
X58860Y-43112D01*
X109799Y-48114D02*
X109799Y-48385D01*
X108379Y-46694D02*
X109799Y-48114D01*
X108096Y-46694D02*
X108379Y-46694D01*
X106410Y-45008D02*
X108096Y-46694D01*
X106410Y-44925D02*
X106410Y-45008D01*
X104426Y-44925D02*
X106410Y-44925D01*
X104003Y-45349D02*
X104426Y-44925D01*
X98416Y-45349D02*
X104003Y-45349D01*
X93769Y-40702D02*
X98416Y-45349D01*
X134250Y-27435D02*
X134250Y-26496D01*
X133679Y-28006D02*
X134250Y-27435D01*
X133679Y-28114D02*
X133679Y-28006D01*
X133250Y-28543D02*
X133679Y-28114D01*
X133250Y-28792D02*
X133250Y-28543D01*
X125508Y-36533D02*
X133250Y-28792D01*
X115554Y-36533D02*
X125508Y-36533D01*
X113831Y-38256D02*
X115554Y-36533D01*
X112326Y-38256D02*
X113831Y-38256D01*
X110166Y-36096D02*
X112326Y-38256D01*
X110166Y-35750D02*
X110166Y-36096D01*
X53816Y-44496D02*
X55407Y-44496D01*
X50606Y-47706D02*
X53816Y-44496D01*
X50606Y-48154D02*
X50606Y-47706D01*
X50669Y-48218D02*
X50606Y-48154D01*
X50669Y-48586D02*
X50669Y-48218D01*
X46596Y-52660D02*
X50669Y-48586D01*
X44835Y-52660D02*
X46596Y-52660D01*
X130571Y-103081D02*
X130571Y-103257D01*
X129469Y-101979D02*
X130571Y-103081D01*
X129469Y-97470D02*
X129469Y-101979D01*
X130939Y-96000D02*
X129469Y-97470D01*
X28600Y-81726D02*
X29054Y-81273D01*
X28600Y-83539D02*
X28600Y-81726D01*
X29060Y-84000D02*
X28600Y-83539D01*
X59726Y-42614D02*
X59726Y-42885D01*
X60413Y-41926D02*
X59726Y-42614D01*
X73924Y-41926D02*
X60413Y-41926D01*
X77058Y-38792D02*
X73924Y-41926D01*
X77063Y-38792D02*
X77058Y-38792D01*
X92892Y-39014D02*
X94754Y-40876D01*
X86705Y-39014D02*
X92892Y-39014D01*
X86415Y-39304D02*
X86705Y-39014D01*
X86415Y-39436D02*
X86415Y-39304D01*
X86073Y-39779D02*
X86415Y-39436D01*
X83853Y-39779D02*
X86073Y-39779D01*
X83720Y-39645D02*
X83853Y-39779D01*
X110665Y-48581D02*
X110665Y-48885D01*
X106495Y-44410D02*
X110665Y-48581D01*
X103529Y-44410D02*
X106495Y-44410D01*
X103096Y-44843D02*
X103529Y-44410D01*
X102290Y-44843D02*
X103096Y-44843D01*
X101405Y-43958D02*
X102290Y-44843D01*
X101405Y-43849D02*
X101405Y-43958D01*
X97727Y-43849D02*
X101405Y-43849D01*
X94754Y-40876D02*
X97727Y-43849D01*
X107792Y-39588D02*
X108166Y-39214D01*
X105665Y-39588D02*
X107792Y-39588D01*
X101405Y-43849D02*
X105665Y-39588D01*
X110665Y-48885D02*
X110665Y-51248D01*
X121177Y-44695D02*
X120870Y-44695D01*
X125821Y-49339D02*
X121177Y-44695D01*
X126901Y-49339D02*
X125821Y-49339D01*
X130383Y-79033D02*
X130261Y-79155D01*
X130383Y-75050D02*
X130383Y-79033D01*
X128369Y-73036D02*
X130383Y-75050D01*
X127663Y-73036D02*
X128369Y-73036D01*
X123521Y-68894D02*
X127663Y-73036D01*
X123521Y-62619D02*
X123521Y-68894D01*
X123836Y-50951D02*
X123836Y-51910D01*
X122270Y-49385D02*
X123836Y-50951D01*
X111531Y-49385D02*
X122270Y-49385D01*
X124455Y-51910D02*
X123836Y-51910D01*
X126911Y-54366D02*
X124455Y-51910D01*
X126911Y-55181D02*
X126911Y-54366D01*
X126230Y-55861D02*
X126911Y-55181D01*
X123800Y-55861D02*
X126230Y-55861D01*
X123331Y-56330D02*
X123800Y-55861D01*
X123331Y-56700D02*
X123331Y-56330D01*
X123521Y-56889D02*
X123331Y-56700D01*
X123521Y-62619D02*
X123521Y-56889D01*
X29060Y-82012D02*
X28982Y-81934D01*
X29060Y-83000D02*
X29060Y-82012D01*
X60592Y-42671D02*
X60592Y-42385D01*
X37264Y-65999D02*
X60592Y-42671D01*
X34526Y-65999D02*
X37264Y-65999D01*
X60592Y-42385D02*
X60592Y-42385D01*
X73748Y-42385D02*
X60592Y-42385D01*
X76712Y-39420D02*
X73748Y-42385D01*
X77246Y-39420D02*
X76712Y-39420D01*
X78047Y-38619D02*
X77246Y-39420D01*
X17009Y-101670D02*
X20580Y-105241D01*
X17009Y-63579D02*
X17009Y-101670D01*
X35184Y-45405D02*
X17009Y-63579D01*
X42326Y-45405D02*
X35184Y-45405D01*
X42696Y-45034D02*
X42326Y-45405D01*
X42696Y-44464D02*
X42696Y-45034D01*
X42125Y-43892D02*
X42696Y-44464D01*
X40484Y-43892D02*
X42125Y-43892D01*
X40096Y-43504D02*
X40484Y-43892D01*
X40096Y-42872D02*
X40096Y-43504D01*
X57462Y-25506D02*
X40096Y-42872D01*
X127836Y-25506D02*
X57462Y-25506D01*
X128750Y-26420D02*
X127836Y-25506D01*
X128750Y-26559D02*
X128750Y-26420D01*
X129090Y-26900D02*
X128750Y-26559D01*
X129535Y-26900D02*
X129090Y-26900D01*
X129939Y-26496D02*
X129535Y-26900D01*
X130250Y-26496D02*
X129939Y-26496D01*
X31238Y-109301D02*
X30335Y-110204D01*
X32816Y-109301D02*
X31238Y-109301D01*
X130939Y-88000D02*
X133579Y-88000D01*
X129076Y-57226D02*
X129962Y-57226D01*
X127343Y-55493D02*
X129076Y-57226D01*
X127343Y-51321D02*
X127343Y-55493D01*
X122617Y-46594D02*
X127343Y-51321D01*
X129454Y-106446D02*
X131032Y-106446D01*
X128551Y-105543D02*
X129454Y-106446D01*
X128060Y-25306D02*
X129250Y-26496D01*
X49967Y-25306D02*
X128060Y-25306D01*
X30984Y-44290D02*
X49967Y-25306D01*
X29060Y-92000D02*
X26419Y-92000D01*
X29870Y-74456D02*
X28967Y-73553D01*
X31448Y-74456D02*
X29870Y-74456D01*
X39367Y-58788D02*
X37669Y-57091D01*
X39692Y-58788D02*
X39367Y-58788D01*
X62675Y-26126D02*
X111030Y-26126D01*
X54672Y-34130D02*
X62675Y-26126D01*
X76491Y-27652D02*
X75307Y-28837D01*
X90932Y-27652D02*
X76491Y-27652D01*
X90956Y-27677D02*
X90932Y-27652D01*
X115711Y-27677D02*
X90956Y-27677D01*
X117281Y-26107D02*
X115711Y-27677D01*
X124861Y-26107D02*
X117281Y-26107D01*
X125250Y-26496D02*
X124861Y-26107D01*
X96779Y-31190D02*
X125169Y-31190D01*
X96509Y-30920D02*
X96779Y-31190D01*
X128762Y-70698D02*
X129664Y-69795D01*
X127183Y-70698D02*
X128762Y-70698D01*
X33925Y-72060D02*
X33925Y-71904D01*
X73958Y-42635D02*
X76759Y-39834D01*
X63333Y-42635D02*
X73958Y-42635D01*
X128060Y-30008D02*
X128663Y-29404D01*
X120605Y-30008D02*
X128060Y-30008D01*
X119671Y-29074D02*
X120605Y-30008D01*
X96046Y-29074D02*
X119671Y-29074D01*
X61824Y-42635D02*
X63333Y-42635D01*
X39180Y-65280D02*
X61824Y-42635D01*
X39180Y-66650D02*
X39180Y-65280D01*
X33925Y-71904D02*
X39180Y-66650D01*
X21336Y-110287D02*
X23715Y-107908D01*
X23715Y-107908D02*
X23715Y-107005D01*
X23715Y-107005D02*
X24185Y-106534D01*
X24185Y-106534D02*
X25027Y-106534D01*
X25027Y-106534D02*
X25439Y-106947D01*
X25439Y-106947D02*
X27590Y-106947D01*
X27590Y-106947D02*
X27856Y-106680D01*
X27856Y-106680D02*
X27856Y-100011D01*
X27856Y-100011D02*
X29519Y-98349D01*
X29519Y-98349D02*
X29519Y-95822D01*
X29519Y-95822D02*
X29197Y-95500D01*
X29197Y-95500D02*
X28895Y-95500D01*
X28895Y-95500D02*
X28606Y-95211D01*
X28606Y-95211D02*
X28606Y-94792D01*
X28606Y-94792D02*
X28899Y-94500D01*
X28899Y-94500D02*
X29229Y-94500D01*
X29229Y-94500D02*
X31448Y-92280D01*
X31448Y-92280D02*
X31448Y-86569D01*
X31448Y-86569D02*
X33925Y-84092D01*
X33925Y-84092D02*
X33925Y-72060D01*
X33925Y-72060D02*
X33925Y-72043D01*
X25985Y-108029D02*
X25095Y-108919D01*
X29375Y-108029D02*
X25985Y-108029D01*
X29885Y-108539D02*
X29375Y-108029D01*
X29885Y-110395D02*
X29885Y-108539D01*
X30154Y-110664D02*
X29885Y-110395D01*
X32736Y-110664D02*
X30154Y-110664D01*
X33158Y-110241D02*
X32736Y-110664D01*
X142569Y-90494D02*
X142064Y-91000D01*
X142569Y-68225D02*
X142569Y-90494D01*
X132452Y-58109D02*
X142569Y-68225D01*
X128174Y-58109D02*
X132452Y-58109D01*
X127143Y-57079D02*
X128174Y-58109D01*
X127143Y-52363D02*
X127143Y-57079D01*
X123183Y-48403D02*
X127143Y-52363D01*
X135244Y-91000D02*
X138064Y-91000D01*
X134613Y-90369D02*
X135244Y-91000D01*
X134613Y-88402D02*
X134613Y-90369D01*
X133211Y-87000D02*
X134613Y-88402D01*
X130939Y-87000D02*
X133211Y-87000D01*
X120813Y-29682D02*
X120739Y-29682D01*
X121750Y-28746D02*
X120813Y-29682D01*
X133781Y-110359D02*
X134220Y-110798D01*
X133781Y-110359D02*
X133781Y-110359D01*
X132452Y-110359D02*
X133781Y-110359D01*
X131293Y-109200D02*
X132452Y-110359D01*
X131293Y-107106D02*
X131293Y-109200D01*
X131684Y-106714D02*
X131293Y-107106D01*
X131684Y-106174D02*
X131684Y-106714D01*
X130113Y-104603D02*
X131684Y-106174D01*
X128893Y-104603D02*
X130113Y-104603D01*
X29517Y-92543D02*
X29060Y-93000D01*
X29517Y-89819D02*
X29517Y-92543D01*
X29197Y-89499D02*
X29517Y-89819D01*
X22435Y-89499D02*
X29197Y-89499D01*
X21935Y-89000D02*
X22435Y-89499D01*
X118393Y-30536D02*
X125513Y-30536D01*
X25614Y-69036D02*
X25779Y-69201D01*
X25614Y-67462D02*
X25614Y-69036D01*
X26257Y-66819D02*
X25614Y-67462D01*
X26681Y-66819D02*
X26257Y-66819D01*
X26965Y-67102D02*
X26681Y-66819D01*
X26965Y-67623D02*
X26965Y-67102D01*
X30979Y-71637D02*
X26965Y-67623D01*
X31838Y-71637D02*
X30979Y-71637D01*
X32590Y-72390D02*
X31838Y-71637D01*
X32590Y-74259D02*
X32590Y-72390D01*
X31453Y-75396D02*
X32590Y-74259D01*
X31106Y-75396D02*
X31453Y-75396D01*
X127750Y-26448D02*
X127750Y-27246D01*
X127008Y-25706D02*
X127750Y-26448D01*
X57674Y-25706D02*
X127008Y-25706D01*
X44667Y-38714D02*
X57674Y-25706D01*
X44667Y-38761D02*
X44667Y-38714D01*
X35569Y-51910D02*
X36162Y-51910D01*
X33082Y-54397D02*
X35569Y-51910D01*
X33082Y-55197D02*
X33082Y-54397D01*
X37440Y-59554D02*
X33082Y-55197D01*
X39050Y-59554D02*
X37440Y-59554D01*
X49862Y-35779D02*
X49833Y-35750D01*
X54532Y-35779D02*
X49862Y-35779D01*
X62884Y-27428D02*
X54532Y-35779D01*
X90990Y-27428D02*
X62884Y-27428D01*
X91015Y-27453D02*
X90990Y-27428D01*
X110414Y-27453D02*
X91015Y-27453D01*
X111960Y-25907D02*
X110414Y-27453D01*
X125211Y-25907D02*
X111960Y-25907D01*
X125750Y-26446D02*
X125211Y-25907D01*
X125750Y-26558D02*
X125750Y-26446D01*
X126437Y-27246D02*
X125750Y-26558D01*
X126750Y-27246D02*
X126437Y-27246D01*
X125439Y-27246D02*
X125750Y-27246D01*
X125038Y-26845D02*
X125439Y-27246D01*
X124446Y-26845D02*
X125038Y-26845D01*
X124404Y-26887D02*
X124446Y-26845D01*
X123937Y-26887D02*
X124404Y-26887D01*
X123907Y-26857D02*
X123937Y-26887D01*
X123435Y-26857D02*
X123907Y-26857D01*
X123404Y-26887D02*
X123435Y-26857D01*
X122937Y-26887D02*
X123404Y-26887D01*
X122907Y-26857D02*
X122937Y-26887D01*
X122435Y-26857D02*
X122907Y-26857D01*
X122404Y-26887D02*
X122435Y-26857D01*
X121937Y-26887D02*
X122404Y-26887D01*
X121907Y-26857D02*
X121937Y-26887D01*
X121435Y-26857D02*
X121907Y-26857D01*
X120163Y-28128D02*
X121435Y-26857D01*
X89923Y-28128D02*
X120163Y-28128D01*
X89647Y-27853D02*
X89923Y-28128D01*
X79186Y-27853D02*
X89647Y-27853D01*
X77729Y-29310D02*
X79186Y-27853D01*
X70813Y-29310D02*
X77729Y-29310D01*
X70207Y-28704D02*
X70813Y-29310D01*
X124329Y-27246D02*
X124750Y-27246D01*
X123925Y-27650D02*
X124329Y-27246D01*
X123450Y-27650D02*
X123925Y-27650D01*
X123407Y-27607D02*
X123450Y-27650D01*
X122935Y-27607D02*
X123407Y-27607D01*
X122904Y-27637D02*
X122935Y-27607D01*
X122437Y-27637D02*
X122904Y-27637D01*
X122407Y-27607D02*
X122437Y-27637D01*
X121935Y-27607D02*
X122407Y-27607D01*
X121904Y-27637D02*
X121935Y-27607D01*
X121437Y-27637D02*
X121904Y-27637D01*
X121407Y-27607D02*
X121437Y-27637D01*
X120968Y-27607D02*
X121407Y-27607D01*
X120069Y-28506D02*
X120968Y-27607D01*
X92308Y-28506D02*
X120069Y-28506D01*
X91762Y-29052D02*
X92308Y-28506D01*
X116935Y-31530D02*
X123744Y-31530D01*
X111898Y-36567D02*
X116935Y-31530D01*
X111898Y-36750D02*
X111898Y-36567D01*
X103709Y-43547D02*
X102871Y-44385D01*
X104723Y-43547D02*
X103709Y-43547D01*
X104826Y-43650D02*
X104723Y-43547D01*
X107204Y-43650D02*
X104826Y-43650D01*
X109898Y-40956D02*
X107204Y-43650D01*
X109898Y-40214D02*
X109898Y-40956D01*
X122856Y-55708D02*
X125122Y-53442D01*
X120413Y-55708D02*
X122856Y-55708D01*
X119663Y-54958D02*
X120413Y-55708D01*
X117093Y-54958D02*
X119663Y-54958D01*
X134015Y-71970D02*
X134904Y-71080D01*
X130626Y-71970D02*
X134015Y-71970D01*
X130305Y-71648D02*
X130626Y-71970D01*
X130305Y-69794D02*
X130305Y-71648D01*
X129841Y-69331D02*
X130305Y-69794D01*
X127268Y-69331D02*
X129841Y-69331D01*
X126841Y-69758D02*
X127268Y-69331D01*
X134311Y-42111D02*
X140500Y-48299D01*
X122989Y-42111D02*
X134311Y-42111D01*
X140500Y-48625D02*
X140500Y-48299D01*
G54D30*
X131296Y-57753D02*
X138117Y-50932D01*
X128298Y-57753D02*
X131296Y-57753D01*
X138500Y-50932D02*
X138117Y-50932D01*
X34035Y-99917D02*
X29118Y-95000D01*
X34035Y-111928D02*
X34035Y-99917D01*
X33842Y-112120D02*
X34035Y-111928D01*
X31807Y-92310D02*
X29118Y-95000D01*
X29118Y-95000D02*
X29060Y-95000D01*
X110801Y-53426D02*
X115807Y-53426D01*
X104542Y-47168D02*
X110801Y-53426D01*
X101139Y-43004D02*
X101139Y-43385D01*
X96740Y-38606D02*
X101139Y-43004D01*
X84281Y-38606D02*
X96740Y-38606D01*
X83921Y-38966D02*
X84281Y-38606D01*
X81196Y-41603D02*
X78505Y-41603D01*
X83833Y-38966D02*
X81196Y-41603D01*
X83921Y-38966D02*
X83833Y-38966D01*
G54D31*
X79903Y-32531D02*
X81427Y-32531D01*
X77544Y-34891D02*
X79903Y-32531D01*
X70613Y-34891D02*
X77544Y-34891D01*
X70491Y-35013D02*
X70613Y-34891D01*
X62654Y-35013D02*
X70491Y-35013D01*
X55160Y-42506D02*
X62654Y-35013D01*
X54282Y-42506D02*
X55160Y-42506D01*
X50852Y-45937D02*
X54282Y-42506D01*
X37996Y-45937D02*
X50852Y-45937D01*
X37220Y-46713D02*
X37996Y-45937D01*
X34159Y-46713D02*
X37220Y-46713D01*
X17209Y-63662D02*
X34159Y-46713D01*
X17209Y-99861D02*
X17209Y-63662D01*
X21152Y-103804D02*
X17209Y-99861D01*
X21152Y-109189D02*
X21152Y-103804D01*
X20994Y-109347D02*
X21152Y-109189D01*
X133750Y-26448D02*
X133750Y-27246D01*
X133405Y-26103D02*
X133750Y-26448D01*
X131072Y-26103D02*
X133405Y-26103D01*
X130750Y-26426D02*
X131072Y-26103D01*
X130750Y-26685D02*
X130750Y-26426D01*
X130363Y-27071D02*
X130750Y-26685D01*
X130363Y-27321D02*
X130363Y-27071D01*
X129679Y-28006D02*
X130363Y-27321D01*
X129679Y-28114D02*
X129679Y-28006D01*
X129406Y-28387D02*
X129679Y-28114D01*
X128937Y-28387D02*
X129406Y-28387D01*
X128907Y-28357D02*
X128937Y-28387D01*
X128435Y-28357D02*
X128907Y-28357D01*
X128404Y-28387D02*
X128435Y-28357D01*
X127937Y-28387D02*
X128404Y-28387D01*
X127907Y-28357D02*
X127937Y-28387D01*
X127435Y-28357D02*
X127907Y-28357D01*
X127404Y-28387D02*
X127435Y-28357D01*
X126937Y-28387D02*
X127404Y-28387D01*
X126907Y-28357D02*
X126937Y-28387D01*
X126435Y-28357D02*
X126907Y-28357D01*
X126404Y-28387D02*
X126435Y-28357D01*
X125937Y-28387D02*
X126404Y-28387D01*
X125907Y-28357D02*
X125937Y-28387D01*
X125435Y-28357D02*
X125907Y-28357D01*
X125404Y-28387D02*
X125435Y-28357D01*
X124937Y-28387D02*
X125404Y-28387D01*
X124907Y-28357D02*
X124937Y-28387D01*
X124435Y-28357D02*
X124907Y-28357D01*
X124404Y-28387D02*
X124435Y-28357D01*
X123937Y-28387D02*
X124404Y-28387D01*
X123907Y-28357D02*
X123937Y-28387D01*
X123435Y-28357D02*
X123907Y-28357D01*
X123404Y-28387D02*
X123435Y-28357D01*
X122937Y-28387D02*
X123404Y-28387D01*
X122907Y-28357D02*
X122937Y-28387D01*
X122435Y-28357D02*
X122907Y-28357D01*
X122404Y-28387D02*
X122435Y-28357D01*
X121937Y-28387D02*
X122404Y-28387D01*
X121907Y-28357D02*
X121937Y-28387D01*
X121435Y-28357D02*
X121907Y-28357D01*
X121050Y-28741D02*
X121435Y-28357D01*
X93231Y-28741D02*
X121050Y-28741D01*
X92746Y-29225D02*
X93231Y-28741D01*
X24906Y-107826D02*
X24753Y-107979D01*
X29622Y-107826D02*
X24906Y-107826D01*
X30608Y-108812D02*
X29622Y-107826D01*
X32976Y-108812D02*
X30608Y-108812D01*
X33614Y-109450D02*
X32976Y-108812D01*
X33614Y-111067D02*
X33614Y-109450D01*
X33500Y-111181D02*
X33614Y-111067D01*
X135200Y-92000D02*
X138064Y-92000D01*
X131700Y-88500D02*
X135200Y-92000D01*
X130798Y-88500D02*
X131700Y-88500D01*
X130471Y-88173D02*
X130798Y-88500D01*
X130471Y-86467D02*
X130471Y-88173D01*
X130939Y-86000D02*
X130471Y-86467D01*
X133410Y-111738D02*
X133878Y-111738D01*
X130347Y-108675D02*
X133410Y-111738D01*
X130347Y-107768D02*
X130347Y-108675D01*
X131484Y-106632D02*
X130347Y-107768D01*
X131484Y-106266D02*
X131484Y-106632D01*
X131175Y-105957D02*
X131484Y-106266D01*
X129602Y-105957D02*
X131175Y-105957D01*
X128443Y-104798D02*
X129602Y-105957D01*
X128443Y-104406D02*
X128443Y-104798D01*
X129185Y-103663D02*
X128443Y-104406D01*
X129235Y-103663D02*
X129185Y-103663D01*
X18505Y-87430D02*
X17935Y-88000D01*
X18505Y-62979D02*
X18505Y-87430D01*
X34371Y-47113D02*
X18505Y-62979D01*
X37668Y-47113D02*
X34371Y-47113D01*
X38169Y-46612D02*
X37668Y-47113D01*
X39241Y-46612D02*
X38169Y-46612D01*
X116455Y-33559D02*
X112764Y-37250D01*
X116455Y-33559D02*
X116455Y-33559D01*
X127070Y-33559D02*
X116455Y-33559D01*
X131179Y-29450D02*
X127070Y-33559D01*
X131179Y-28756D02*
X131179Y-29450D01*
X131750Y-28185D02*
X131179Y-28756D01*
X131750Y-27841D02*
X131750Y-28185D01*
X132214Y-27376D02*
X131750Y-27841D01*
X132214Y-27220D02*
X132214Y-27376D01*
X132939Y-26496D02*
X132214Y-27220D01*
X133250Y-26496D02*
X132939Y-26496D01*
X29738Y-93322D02*
X29060Y-94000D01*
X29738Y-89039D02*
X29738Y-93322D01*
X29198Y-88499D02*
X29738Y-89039D01*
X22435Y-88499D02*
X29198Y-88499D01*
X21935Y-88000D02*
X22435Y-88499D01*
X126548Y-32401D02*
X127152Y-33006D01*
X116534Y-32401D02*
X126548Y-32401D01*
X26166Y-68261D02*
X26121Y-68261D01*
X28706Y-70801D02*
X26166Y-68261D01*
X28706Y-72408D02*
X28706Y-70801D01*
X28513Y-72601D02*
X28706Y-72408D01*
X28513Y-74085D02*
X28513Y-72601D01*
X30764Y-76336D02*
X28513Y-74085D01*
X81752Y-31645D02*
X81621Y-31514D01*
X81752Y-32666D02*
X81752Y-31645D01*
X76601Y-37817D02*
X81752Y-32666D01*
X71408Y-37817D02*
X76601Y-37817D01*
X70877Y-38348D02*
X71408Y-37817D01*
X60211Y-38348D02*
X70877Y-38348D01*
X55319Y-43241D02*
X60211Y-38348D01*
X54117Y-43241D02*
X55319Y-43241D01*
X51021Y-46337D02*
X54117Y-43241D01*
X40218Y-46337D02*
X51021Y-46337D01*
X39615Y-46940D02*
X40218Y-46337D01*
X38125Y-46940D02*
X39615Y-46940D01*
X36491Y-48573D02*
X38125Y-46940D01*
X33741Y-48573D02*
X36491Y-48573D01*
X131937Y-26496D02*
X132250Y-26496D01*
X131250Y-27183D02*
X131937Y-26496D01*
X131250Y-27448D02*
X131250Y-27183D01*
X130820Y-27877D02*
X131250Y-27448D01*
X130820Y-27985D02*
X130820Y-27877D01*
X130250Y-28556D02*
X130820Y-27985D01*
X130250Y-28808D02*
X130250Y-28556D01*
X128850Y-30208D02*
X130250Y-28808D01*
X98192Y-30208D02*
X128850Y-30208D01*
X97547Y-29563D02*
X98192Y-30208D01*
X36039Y-51144D02*
X36805Y-51144D01*
X32877Y-54307D02*
X36039Y-51144D01*
X32877Y-55284D02*
X32877Y-54307D01*
X37913Y-60320D02*
X32877Y-55284D01*
X38407Y-60320D02*
X37913Y-60320D01*
X50729Y-35280D02*
X50699Y-35250D01*
X54738Y-35280D02*
X50729Y-35280D01*
X62790Y-27228D02*
X54738Y-35280D01*
X91073Y-27228D02*
X62790Y-27228D01*
X91098Y-27253D02*
X91073Y-27228D01*
X105709Y-27253D02*
X91098Y-27253D01*
X106002Y-26960D02*
X105709Y-27253D01*
X128212Y-30861D02*
X118068Y-30861D01*
X129803Y-39103D02*
X136938Y-31968D01*
X110761Y-39103D02*
X129803Y-39103D01*
X109072Y-37414D02*
X110761Y-39103D01*
X109072Y-37131D02*
X109072Y-37414D01*
X107606Y-43872D02*
X103859Y-43872D01*
X110764Y-40714D02*
X107606Y-43872D01*
X125063Y-54209D02*
X125765Y-54209D01*
X123363Y-55909D02*
X125063Y-54209D01*
X118936Y-55909D02*
X123363Y-55909D01*
X118300Y-55273D02*
X118936Y-55909D01*
X117415Y-55273D02*
X118300Y-55273D01*
X117279Y-55408D02*
X117415Y-55273D01*
X116906Y-55408D02*
X117279Y-55408D01*
X116450Y-54952D02*
X116906Y-55408D01*
X116450Y-54192D02*
X116450Y-54952D01*
X135096Y-72170D02*
X135246Y-72020D01*
X130254Y-72170D02*
X135096Y-72170D01*
X129243Y-71158D02*
X130254Y-72170D01*
X126979Y-71158D02*
X129243Y-71158D01*
X126391Y-70569D02*
X126979Y-71158D01*
X126391Y-68926D02*
X126391Y-70569D01*
X126499Y-68818D02*
X126391Y-68926D01*
G54D29*
X134200Y-32500D02*
X134200Y-31800D01*
X134200Y-33300D02*
X134200Y-32500D01*
X134200Y-31800D02*
X134200Y-32000D01*
X134200Y-32000D02*
X134200Y-31800D01*
X119251Y-43222D02*
X121030Y-43222D01*
X121030Y-43222D02*
X125615Y-47807D01*
X109697Y-43563D02*
X111536Y-43563D01*
X111877Y-43222D02*
X119251Y-43222D01*
X111536Y-43563D02*
X111877Y-43222D01*
X139347Y-108408D02*
X141208Y-108408D01*
X143600Y-110800D02*
X143600Y-117500D01*
X141208Y-108408D02*
X143600Y-110800D01*
G54D30*
X138125Y-47500D02*
X138125Y-50067D01*
X125615Y-47807D02*
X136182Y-47807D01*
X136182Y-47807D02*
X136490Y-47500D01*
X136490Y-47500D02*
X138125Y-47500D01*
G54D29*
X29060Y-96000D02*
X24466Y-96000D01*
X24466Y-96000D02*
X19863Y-100603D01*
X19863Y-75117D02*
X22020Y-72959D01*
X19863Y-79396D02*
X19863Y-75117D01*
X22020Y-72959D02*
X20652Y-71591D01*
X43430Y-48685D02*
X39425Y-52690D01*
X49134Y-48685D02*
X43430Y-48685D01*
X49334Y-48885D02*
X49134Y-48685D01*
X135927Y-67321D02*
X137295Y-65953D01*
X133536Y-67321D02*
X135927Y-67321D01*
X24466Y-95531D02*
X21935Y-93000D01*
X24466Y-96000D02*
X24466Y-95531D01*
X21935Y-93000D02*
X17935Y-93000D01*
X24411Y-72959D02*
X22020Y-72959D01*
X29667Y-78215D02*
X30080Y-78215D01*
X24411Y-72959D02*
X29667Y-78215D01*
X139399Y-28746D02*
X140899Y-27246D01*
X137750Y-28746D02*
X139399Y-28746D01*
X25095Y-114046D02*
X22704Y-114046D01*
X26463Y-112678D02*
X25095Y-114046D01*
X97762Y-32618D02*
X100885Y-32618D01*
X94174Y-36206D02*
X97762Y-32618D01*
X92023Y-36206D02*
X94174Y-36206D01*
X126735Y-59467D02*
X132883Y-59467D01*
X123788Y-56520D02*
X126735Y-59467D01*
X87244Y-28935D02*
X87822Y-28357D01*
X80000Y-28935D02*
X87244Y-28935D01*
X130888Y-115111D02*
X130000Y-116000D01*
X130888Y-111182D02*
X130888Y-115111D01*
X133215Y-73515D02*
X132598Y-73515D01*
X139445Y-79745D02*
X133215Y-73515D01*
X139794Y-79396D02*
X139445Y-79745D01*
X140136Y-79396D02*
X139794Y-79396D01*
X138064Y-87000D02*
X142064Y-87000D01*
X138064Y-86873D02*
X135191Y-84000D01*
X138064Y-87000D02*
X138064Y-86873D01*
X139445Y-79745D02*
X135191Y-84000D01*
X135191Y-84000D02*
X130939Y-84000D01*
X30000Y-36000D02*
X20704Y-36000D01*
X20204Y-36500D02*
X20704Y-36000D01*
X20000Y-36500D02*
X20204Y-36500D01*
X20704Y-28074D02*
X20630Y-28000D01*
X20704Y-36000D02*
X20704Y-28074D01*
X58787Y-32945D02*
X59114Y-32618D01*
X58787Y-36908D02*
X58787Y-32945D01*
X54633Y-41063D02*
X58787Y-36908D01*
X54221Y-41474D02*
X54633Y-41063D01*
X48629Y-41474D02*
X54221Y-41474D01*
X48369Y-41214D02*
X48629Y-41474D01*
X46708Y-39553D02*
X48369Y-41214D01*
X43040Y-43222D02*
X46708Y-39553D01*
X40748Y-43222D02*
X43040Y-43222D01*
X46708Y-38089D02*
X46369Y-37750D01*
X46708Y-39553D02*
X46708Y-38089D01*
X136750Y-29250D02*
X136750Y-28746D01*
X134200Y-31800D02*
X136750Y-29250D01*
X130000Y-36000D02*
X134200Y-31800D01*
X24935Y-84468D02*
X19863Y-79396D01*
X24935Y-87500D02*
X24935Y-84468D01*
X25743Y-106484D02*
X19863Y-100603D01*
X27401Y-106484D02*
X25743Y-106484D01*
X106301Y-32618D02*
X100885Y-32618D01*
X108434Y-34750D02*
X106301Y-32618D01*
X27927Y-67633D02*
X27927Y-59567D01*
X29111Y-68817D02*
X27927Y-67633D01*
X27216Y-59567D02*
X27927Y-59567D01*
X27116Y-59467D02*
X27216Y-59567D01*
X34836Y-59567D02*
X37121Y-61852D01*
X27927Y-59567D02*
X34836Y-59567D01*
X33215Y-28075D02*
X32500Y-27360D01*
X41901Y-28075D02*
X33215Y-28075D01*
X43476Y-26500D02*
X41901Y-28075D01*
X135175Y-107040D02*
X135588Y-107040D01*
X129919Y-101784D02*
X135175Y-107040D01*
X135588Y-107040D02*
X137979Y-107040D01*
X137979Y-107040D02*
X139347Y-108408D01*
X139752Y-100603D02*
X140136Y-100603D01*
X139752Y-100218D02*
X139752Y-100603D01*
X135064Y-95530D02*
X139752Y-100218D01*
X135064Y-92500D02*
X135064Y-95530D01*
X139752Y-105267D02*
X137979Y-107040D01*
X139752Y-100603D02*
X139752Y-105267D01*
G54D31*
X138486Y-111392D02*
X138321Y-111227D01*
X138486Y-115275D02*
X138486Y-111392D01*
X136924Y-116836D02*
X138486Y-115275D01*
X20919Y-87015D02*
X17935Y-90000D01*
X20919Y-84000D02*
X20919Y-87015D01*
X35920Y-50105D02*
X32455Y-50105D01*
X38598Y-47427D02*
X35920Y-50105D01*
X48991Y-36274D02*
X48967Y-36250D01*
X55217Y-36274D02*
X48991Y-36274D01*
X55656Y-35835D02*
X55217Y-36274D01*
X138875Y-47500D02*
X138875Y-47925D01*
X140500Y-49375D02*
X140500Y-49049D01*
X138875Y-50067D02*
X139182Y-50067D01*
X139182Y-49867D02*
X139182Y-50067D01*
X139999Y-49049D02*
X139182Y-49867D01*
X138875Y-47925D02*
X139999Y-49049D01*
X139999Y-49049D02*
X140500Y-49049D01*
X137569Y-69524D02*
X138321Y-68772D01*
X137569Y-75431D02*
X137569Y-69524D01*
X127543Y-55049D02*
X127543Y-50105D01*
X129114Y-56620D02*
X127543Y-55049D01*
X71119Y-30775D02*
X69222Y-28878D01*
X75649Y-30775D02*
X71119Y-30775D01*
X133986Y-70716D02*
X134562Y-70140D01*
X131743Y-70716D02*
X133986Y-70716D01*
X131743Y-71166D02*
X131743Y-70716D01*
X122632Y-54524D02*
X124479Y-52676D01*
X122632Y-54605D02*
X122632Y-54524D01*
X122181Y-54605D02*
X122632Y-54605D01*
X107532Y-41214D02*
X109032Y-39714D01*
X107532Y-42313D02*
X107532Y-41214D01*
X90082Y-35251D02*
X90082Y-32817D01*
X89561Y-35772D02*
X90082Y-35251D01*
X37368Y-54524D02*
X35520Y-52676D01*
X37368Y-54605D02*
X37368Y-54524D01*
X37818Y-54605D02*
X37368Y-54605D01*
X26463Y-71166D02*
X25437Y-70140D01*
X28256Y-71166D02*
X26463Y-71166D01*
X24935Y-90000D02*
X21935Y-90000D01*
X26013Y-109283D02*
X25437Y-109859D01*
X28256Y-109283D02*
X26013Y-109283D01*
X28256Y-108833D02*
X28256Y-109283D01*
X89822Y-37191D02*
X89387Y-36757D01*
X91850Y-37191D02*
X89822Y-37191D01*
X71046Y-36322D02*
X70612Y-36757D01*
X73073Y-36322D02*
X71046Y-36322D01*
X69499Y-36757D02*
X68384Y-35642D01*
X70612Y-36757D02*
X69499Y-36757D01*
X50779Y-43179D02*
X50493Y-42893D01*
X52967Y-43179D02*
X50779Y-43179D01*
X54217Y-41929D02*
X52967Y-43179D01*
X55133Y-41929D02*
X54217Y-41929D01*
X135064Y-90000D02*
X138064Y-90000D01*
X133536Y-108833D02*
X134562Y-109859D01*
X131743Y-108833D02*
X133536Y-108833D01*
X139079Y-92984D02*
X142064Y-90000D01*
X139079Y-96000D02*
X139079Y-92984D01*
M02*
