G04 (created by PCBNEW (2013-jul-07)-stable) date Sun 20 Sep 2015 10:44:14 PM PDT*
%MOIN*%
G04 Gerber Fmt 3.4, Leading zero omitted, Abs format*
%FSLAX34Y34*%
G01*
G70*
G90*
G04 APERTURE LIST*
%ADD10C,0.00590551*%
%ADD11C,0.145669*%
%ADD12C,0.0472441*%
%ADD13C,0.07*%
%ADD14C,0.1*%
%ADD15C,0.0590551*%
%ADD16C,0.06*%
%ADD17R,0.06X0.06*%
%ADD18C,0.076*%
%ADD19C,0.14*%
%ADD20C,0.16*%
%ADD21C,0.055*%
%ADD22C,0.0787402*%
%ADD23C,0.32*%
%ADD24C,0.2*%
G04 APERTURE END LIST*
G54D10*
G54D11*
X140899Y-27246D03*
X118100Y-27246D03*
G54D12*
X137750Y-28746D03*
X137250Y-27996D03*
X136750Y-28746D03*
X136250Y-27996D03*
X135750Y-28746D03*
X135250Y-27996D03*
X134750Y-28746D03*
X134250Y-27996D03*
X133750Y-28746D03*
X133250Y-27996D03*
X132750Y-28746D03*
X132250Y-27996D03*
X131750Y-28746D03*
X131250Y-27996D03*
X130750Y-28746D03*
X130250Y-27996D03*
X129750Y-28746D03*
X129250Y-27996D03*
X128750Y-28746D03*
X128250Y-27996D03*
X127750Y-28746D03*
X127250Y-27996D03*
X126750Y-28746D03*
X126250Y-27996D03*
X125750Y-28746D03*
X125250Y-27996D03*
X124750Y-28746D03*
X124250Y-27996D03*
X123750Y-28746D03*
X123250Y-27996D03*
X122750Y-28746D03*
X122250Y-27996D03*
X121750Y-28746D03*
X121250Y-27996D03*
X137750Y-27246D03*
X137250Y-26496D03*
X136750Y-27246D03*
X136250Y-26496D03*
X135750Y-27246D03*
X135250Y-26496D03*
X134750Y-27246D03*
X134250Y-26496D03*
X133750Y-27246D03*
X133250Y-26496D03*
X132750Y-27246D03*
X132250Y-26496D03*
X131750Y-27246D03*
X131250Y-26496D03*
X130750Y-27246D03*
X130250Y-26496D03*
X129750Y-27246D03*
X129250Y-26496D03*
X128750Y-27246D03*
X128250Y-26496D03*
X127750Y-27246D03*
X127250Y-26496D03*
X126750Y-27246D03*
X126250Y-26496D03*
X125750Y-27246D03*
X125250Y-26496D03*
X124750Y-27246D03*
X124250Y-26496D03*
X123750Y-27246D03*
X123250Y-26496D03*
X122750Y-27246D03*
X122250Y-26496D03*
X121750Y-27246D03*
X121250Y-26496D03*
G54D13*
X72177Y-28357D03*
X71192Y-28531D03*
X70207Y-28704D03*
X69222Y-28878D03*
X68237Y-29052D03*
X67253Y-29225D03*
X66268Y-29399D03*
X66962Y-33338D03*
X67947Y-33165D03*
X68932Y-32991D03*
X69917Y-32817D03*
X70902Y-32644D03*
X71886Y-32470D03*
X72871Y-32296D03*
X51565Y-34750D03*
X50699Y-35250D03*
X49833Y-35750D03*
X48967Y-36250D03*
X48101Y-36750D03*
X47235Y-37250D03*
X46369Y-37750D03*
X48369Y-41214D03*
X49235Y-40714D03*
X50101Y-40214D03*
X50967Y-39714D03*
X51833Y-39214D03*
X52699Y-38714D03*
X53565Y-38214D03*
X34384Y-47807D03*
X33741Y-48573D03*
X33098Y-49339D03*
X32455Y-50105D03*
X31813Y-50871D03*
X31170Y-51637D03*
X30527Y-52403D03*
X33591Y-54975D03*
X34234Y-54209D03*
X34877Y-53442D03*
X35520Y-52676D03*
X36162Y-51910D03*
X36805Y-51144D03*
X37448Y-50378D03*
X137295Y-114046D03*
X137637Y-113106D03*
X137979Y-112167D03*
X138321Y-111227D03*
X138663Y-110287D03*
X139005Y-109347D03*
X139347Y-108408D03*
X135588Y-107040D03*
X135246Y-107979D03*
X134904Y-108919D03*
X134562Y-109859D03*
X134220Y-110798D03*
X133878Y-111738D03*
X133536Y-112678D03*
X22704Y-65953D03*
X22362Y-66893D03*
X22020Y-67832D03*
X21678Y-68772D03*
X21336Y-69712D03*
X20994Y-70652D03*
X20652Y-71591D03*
X24411Y-72959D03*
X24753Y-72020D03*
X25095Y-71080D03*
X25437Y-70140D03*
X25779Y-69201D03*
X26121Y-68261D03*
X26463Y-67321D03*
X142064Y-93000D03*
X142064Y-92000D03*
X142064Y-91000D03*
X142064Y-90000D03*
X142064Y-89000D03*
X142064Y-88000D03*
X142064Y-87000D03*
X138064Y-87000D03*
X138064Y-88000D03*
X138064Y-89000D03*
X138064Y-90000D03*
X138064Y-91000D03*
X138064Y-92000D03*
X138064Y-93000D03*
X17935Y-87000D03*
X17935Y-88000D03*
X17935Y-89000D03*
X17935Y-90000D03*
X17935Y-91000D03*
X17935Y-92000D03*
X17935Y-93000D03*
X21935Y-93000D03*
X21935Y-92000D03*
X21935Y-91000D03*
X21935Y-90000D03*
X21935Y-89000D03*
X21935Y-88000D03*
X21935Y-87000D03*
X20652Y-108408D03*
X20994Y-109347D03*
X21336Y-110287D03*
X21678Y-111227D03*
X22020Y-112167D03*
X22362Y-113106D03*
X22704Y-114046D03*
X26463Y-112678D03*
X26121Y-111738D03*
X25779Y-110798D03*
X25437Y-109859D03*
X25095Y-108919D03*
X24753Y-107979D03*
X24411Y-107040D03*
X139347Y-71591D03*
X139005Y-70652D03*
X138663Y-69712D03*
X138321Y-68772D03*
X137979Y-67832D03*
X137637Y-66893D03*
X137295Y-65953D03*
X133536Y-67321D03*
X133878Y-68261D03*
X134220Y-69201D03*
X134562Y-70140D03*
X134904Y-71080D03*
X135246Y-72020D03*
X135588Y-72959D03*
X93731Y-29399D03*
X92746Y-29225D03*
X91762Y-29052D03*
X90777Y-28878D03*
X89792Y-28704D03*
X88807Y-28531D03*
X87822Y-28357D03*
X87128Y-32296D03*
X88113Y-32470D03*
X89097Y-32644D03*
X90082Y-32817D03*
X91067Y-32991D03*
X92052Y-33165D03*
X93037Y-33338D03*
X129472Y-52403D03*
X128829Y-51637D03*
X128186Y-50871D03*
X127543Y-50105D03*
X126901Y-49339D03*
X126258Y-48573D03*
X125615Y-47807D03*
X122551Y-50378D03*
X123194Y-51144D03*
X123836Y-51910D03*
X124479Y-52676D03*
X125122Y-53442D03*
X125765Y-54209D03*
X126408Y-54975D03*
X113630Y-37750D03*
X112764Y-37250D03*
X111898Y-36750D03*
X111032Y-36250D03*
X110166Y-35750D03*
X109300Y-35250D03*
X108434Y-34750D03*
X106434Y-38214D03*
X107300Y-38714D03*
X108166Y-39214D03*
X109032Y-39714D03*
X109898Y-40214D03*
X110764Y-40714D03*
X111630Y-41214D03*
G54D14*
X24370Y-28000D03*
X22500Y-28000D03*
X20630Y-28000D03*
G54D15*
X37669Y-57091D03*
X36161Y-55825D03*
X129114Y-56620D03*
X130622Y-55355D03*
X68726Y-37581D03*
X68384Y-35642D03*
X114736Y-41835D03*
X115720Y-40130D03*
X137569Y-75431D03*
X139418Y-74758D03*
X96168Y-32859D03*
X96509Y-30920D03*
X87334Y-36886D03*
X87676Y-34948D03*
X51477Y-44598D03*
X50493Y-42893D03*
X139079Y-96000D03*
X141048Y-96000D03*
X136924Y-116836D03*
X135075Y-116163D03*
X30335Y-110204D03*
X28485Y-110877D03*
X26419Y-92000D03*
X24451Y-92000D03*
X28967Y-73553D03*
X27117Y-72880D03*
X55656Y-35835D03*
X54672Y-34130D03*
X38598Y-47427D03*
X37090Y-46162D03*
X26535Y-64155D03*
X24685Y-63481D03*
X20919Y-84000D03*
X18951Y-84000D03*
X22430Y-104568D03*
X20580Y-105241D03*
X129664Y-69795D03*
X131514Y-69122D03*
X133579Y-88000D03*
X135548Y-88000D03*
X75649Y-30775D03*
X75307Y-28837D03*
X119759Y-54027D03*
X121266Y-52761D03*
X131032Y-106446D03*
X132882Y-107119D03*
X105057Y-42598D03*
X106042Y-40893D03*
G54D16*
X20000Y-38500D03*
X20000Y-37500D03*
X20000Y-36500D03*
X20000Y-35500D03*
G54D17*
X135064Y-90000D03*
G54D16*
X134064Y-90000D03*
G54D17*
X52467Y-42313D03*
G54D16*
X52967Y-43179D03*
G54D17*
X70438Y-35772D03*
G54D16*
X70612Y-36757D03*
G54D17*
X89561Y-35772D03*
G54D16*
X89387Y-36757D03*
G54D17*
X37818Y-54605D03*
G54D16*
X38584Y-55248D03*
G54D17*
X28256Y-108833D03*
G54D16*
X29196Y-108491D03*
G54D17*
X131743Y-108833D03*
G54D16*
X130803Y-108491D03*
G54D17*
X131743Y-71166D03*
G54D16*
X130803Y-71508D03*
G54D17*
X122181Y-54605D03*
G54D16*
X121415Y-55248D03*
G54D17*
X28256Y-71166D03*
G54D16*
X29196Y-71508D03*
G54D17*
X107532Y-42313D03*
G54D16*
X107032Y-43179D03*
G54D17*
X24935Y-90000D03*
G54D16*
X25935Y-90000D03*
G54D17*
X99407Y-42385D03*
G54D16*
X100273Y-42885D03*
X101139Y-43385D03*
X102005Y-43885D03*
X102871Y-44385D03*
X103737Y-44885D03*
X104603Y-45385D03*
X105469Y-45885D03*
X106335Y-46385D03*
X107201Y-46885D03*
X108067Y-47385D03*
X108933Y-47885D03*
X109799Y-48385D03*
X110665Y-48885D03*
X111531Y-49385D03*
G54D17*
X130261Y-100844D03*
G54D16*
X129919Y-101784D03*
X129577Y-102723D03*
X129235Y-103663D03*
X128893Y-104603D03*
X128551Y-105543D03*
X128209Y-106482D03*
X127867Y-107422D03*
X127525Y-108362D03*
X127183Y-109301D03*
X126841Y-110241D03*
X126499Y-111181D03*
X126157Y-112120D03*
X125815Y-113060D03*
X125473Y-114000D03*
G54D17*
X130939Y-83000D03*
G54D16*
X130939Y-84000D03*
X130939Y-85000D03*
X130939Y-86000D03*
X130939Y-87000D03*
X130939Y-88000D03*
X130939Y-89000D03*
X130939Y-90000D03*
X130939Y-91000D03*
X130939Y-92000D03*
X130939Y-93000D03*
X130939Y-94000D03*
X130939Y-95000D03*
X130939Y-96000D03*
X130939Y-97000D03*
G54D17*
X125473Y-65999D03*
G54D16*
X125815Y-66939D03*
X126157Y-67879D03*
X126499Y-68818D03*
X126841Y-69758D03*
X127183Y-70698D03*
X127525Y-71637D03*
X127867Y-72577D03*
X128209Y-73517D03*
X128551Y-74456D03*
X128893Y-75396D03*
X129235Y-76336D03*
X129577Y-77276D03*
X129919Y-78215D03*
X130261Y-79155D03*
G54D17*
X114522Y-51894D03*
G54D16*
X115164Y-52660D03*
X115807Y-53426D03*
X116450Y-54192D03*
X117093Y-54958D03*
X117736Y-55724D03*
X118378Y-56490D03*
X119021Y-57256D03*
X119664Y-58022D03*
X120307Y-58788D03*
X120950Y-59554D03*
X121592Y-60320D03*
X122235Y-61086D03*
X122878Y-61852D03*
X123521Y-62619D03*
G54D17*
X81952Y-38619D03*
G54D16*
X82936Y-38792D03*
X83921Y-38966D03*
X84906Y-39140D03*
X85891Y-39313D03*
X86876Y-39487D03*
X87860Y-39660D03*
X88845Y-39834D03*
X89830Y-40008D03*
X90815Y-40181D03*
X91800Y-40355D03*
X92784Y-40529D03*
X93769Y-40702D03*
X94754Y-40876D03*
X95739Y-41050D03*
G54D17*
X64260Y-41050D03*
G54D16*
X65245Y-40876D03*
X66230Y-40702D03*
X67215Y-40529D03*
X68199Y-40355D03*
X69184Y-40181D03*
X70169Y-40008D03*
X71154Y-39834D03*
X72139Y-39660D03*
X73123Y-39487D03*
X74108Y-39313D03*
X75093Y-39140D03*
X76078Y-38966D03*
X77063Y-38792D03*
X78047Y-38619D03*
G54D17*
X48468Y-49385D03*
G54D16*
X49334Y-48885D03*
X50200Y-48385D03*
X51066Y-47885D03*
X51932Y-47385D03*
X52798Y-46885D03*
X53664Y-46385D03*
X54530Y-45885D03*
X55396Y-45385D03*
X56262Y-44885D03*
X57128Y-44385D03*
X57994Y-43885D03*
X58860Y-43385D03*
X59726Y-42885D03*
X60592Y-42385D03*
G54D17*
X36478Y-62619D03*
G54D16*
X37121Y-61852D03*
X37764Y-61086D03*
X38407Y-60320D03*
X39049Y-59554D03*
X39692Y-58788D03*
X40335Y-58022D03*
X40978Y-57256D03*
X41621Y-56490D03*
X42263Y-55724D03*
X42906Y-54958D03*
X43549Y-54192D03*
X44192Y-53426D03*
X44835Y-52660D03*
X45477Y-51894D03*
G54D17*
X29738Y-79155D03*
G54D16*
X30080Y-78215D03*
X30422Y-77276D03*
X30764Y-76336D03*
X31106Y-75396D03*
X31448Y-74456D03*
X31790Y-73517D03*
X32132Y-72577D03*
X32474Y-71637D03*
X32816Y-70698D03*
X33158Y-69758D03*
X33500Y-68818D03*
X33842Y-67879D03*
X34184Y-66939D03*
X34526Y-65999D03*
G54D17*
X29060Y-97000D03*
G54D16*
X29060Y-96000D03*
X29060Y-95000D03*
X29060Y-94000D03*
X29060Y-93000D03*
X29060Y-92000D03*
X29060Y-91000D03*
X29060Y-90000D03*
X29060Y-89000D03*
X29060Y-88000D03*
X29060Y-87000D03*
X29060Y-86000D03*
X29060Y-85000D03*
X29060Y-84000D03*
X29060Y-83000D03*
G54D17*
X34526Y-114000D03*
G54D16*
X34184Y-113060D03*
X33842Y-112120D03*
X33500Y-111181D03*
X33158Y-110241D03*
X32816Y-109301D03*
X32474Y-108362D03*
X32132Y-107422D03*
X31790Y-106482D03*
X31448Y-105543D03*
X31106Y-104603D03*
X30764Y-103663D03*
X30422Y-102723D03*
X30080Y-101784D03*
X29738Y-100844D03*
G54D18*
X32500Y-26180D03*
G54D19*
X32500Y-27360D03*
G54D20*
X32500Y-29720D03*
G54D19*
X30730Y-26970D03*
X34270Y-26970D03*
G54D14*
X80000Y-30935D03*
X80000Y-28935D03*
X21832Y-100256D03*
X19863Y-100603D03*
X21832Y-79743D03*
X19863Y-79396D03*
X28848Y-60467D03*
X27116Y-59467D03*
X42034Y-44754D03*
X40748Y-43222D03*
X59798Y-34497D03*
X59114Y-32618D03*
G54D21*
X30051Y-69159D03*
X29111Y-68817D03*
X28341Y-106141D03*
X27401Y-106484D03*
X25935Y-87500D03*
X24935Y-87500D03*
X131658Y-73858D03*
X132598Y-73515D03*
X40191Y-53333D03*
X39425Y-52690D03*
X55133Y-41929D03*
X54633Y-41063D03*
X73073Y-36322D03*
X72900Y-35338D03*
X91850Y-37191D03*
X92023Y-36206D03*
X129948Y-110840D03*
X130888Y-111182D03*
X109197Y-44429D03*
X109697Y-43563D03*
X134064Y-92500D03*
X135064Y-92500D03*
X123022Y-57163D03*
X123788Y-56520D03*
G54D22*
X40523Y-26500D03*
X43476Y-26500D03*
G54D14*
X100201Y-34497D03*
X100885Y-32618D03*
X117965Y-44754D03*
X119251Y-43222D03*
X131151Y-60467D03*
X132883Y-59467D03*
X138167Y-79743D03*
X140136Y-79396D03*
X138167Y-100256D03*
X140136Y-100603D03*
G54D23*
X30000Y-36000D03*
X130000Y-36000D03*
X130000Y-116000D03*
X30000Y-116000D03*
G54D24*
X143600Y-26400D03*
X16400Y-117500D03*
X143600Y-117500D03*
X16400Y-26400D03*
M02*
