M48
;DRILL file {Pcbnew (2013-jul-07)-stable} date Tue 07 Apr 2015 07:12:07 PM PDT
;FORMAT={-:-/ absolute / inch / decimal}
FMAT,2
INCH,TZ
T1C0.020
T2C0.040
%
G90
G05
M72
T1
X2.1547Y-2.0782
X2.201Y-2.7756
X2.2196Y-3.2393
X2.2275Y-2.2083
X2.2373Y-2.2775
X2.2384Y-3.1269
X2.253Y-2.0586
X2.261Y-2.874
X2.2623Y-2.0118
X2.2763Y-2.2509
X2.2765Y-3.3585
X2.2772Y-2.8379
X2.2954Y-2.9832
X2.3146Y-2.3327
X2.3218Y-2.5812
X2.3333Y-2.3669
X2.3626Y-3.0047
X2.3633Y-3.195
X2.3696Y-3.0474
X2.3947Y-2.6008
X2.4482Y-2.583
X2.4566Y-2.0678
X2.4875Y-2.719
X2.5176Y-2.767
X2.5181Y-2.1383
X2.5248Y-3.0706
X2.5408Y-2.1084
X2.5571Y-2.1626
X2.5671Y-2.0597
X2.5712Y-2.2181
X2.5725Y-2.8957
X2.5743Y-2.8217
X2.5824Y-2.2563
X2.5826Y-2.9432
X2.5826Y-3.0322
X2.5865Y-2.3247
X2.5881Y-2.1169
X2.6159Y-3.3584
X2.6197Y-2.9438
X2.6248Y-2.6534
X2.7339Y-2.1654
X2.7539Y-2.361
X2.7801Y-2.9341
X2.8029Y-2.484
X2.8101Y-2.2585
X2.9118Y-2.3783
X2.9295Y-2.2605
X2.9581Y-2.8958
X2.9582Y-2.2865
X2.9641Y-2.5232
X2.9816Y-2.207
X2.9915Y-2.8394
X3.0156Y-2.1065
X3.0406Y-2.5762
X3.0702Y-2.0045
X3.0786Y-2.3769
X3.0865Y-2.9999
X3.1201Y-2.7235
X3.1409Y-2.5803
X3.1647Y-2.0874
X3.1737Y-2.6208
X3.1762Y-2.0311
X3.2263Y-2.704
X3.2661Y-2.174
X3.2701Y-2.8399
X3.2822Y-3.2376
X3.2912Y-2.8085
X3.2938Y-2.9238
X3.2985Y-2.2039
X3.3059Y-2.2836
X3.3059Y-2.4029
X3.3356Y-2.1441
T2
X2.0669Y-2.0177
X2.0669Y-2.1161
X2.0669Y-2.2146
X2.0669Y-2.313
X2.0669Y-2.4114
X2.0669Y-2.5098
X2.0669Y-2.6083
X2.0669Y-2.7067
X2.0669Y-2.8051
X2.0669Y-2.9035
X2.0669Y-3.002
X2.0669Y-3.1004
X2.0669Y-3.1988
X2.0669Y-3.2972
X2.0669Y-3.3957
X2.0669Y-3.4941
X2.1744Y-2.45
X2.1744Y-2.55
X2.1744Y-3.0799
X2.1744Y-3.1799
X2.2744Y-2.45
X2.2744Y-2.55
X2.2744Y-3.0799
X2.2744Y-3.1799
X2.6575Y-2.0177
X2.6575Y-2.1161
X2.6575Y-2.2146
X2.6575Y-2.313
X2.6575Y-2.4114
X2.6575Y-2.5098
X2.6575Y-2.6083
X2.6575Y-2.7067
X2.6575Y-2.8051
X2.6575Y-2.9035
X2.6575Y-3.002
X2.6575Y-3.1004
X2.6575Y-3.1988
X2.6575Y-3.2972
X2.6575Y-3.3957
X2.6575Y-3.4941
X2.8543Y-2.0177
X2.8543Y-2.1161
X2.8543Y-2.2146
X2.8543Y-2.313
X2.8543Y-2.4114
X2.8543Y-2.5098
X2.8543Y-2.6083
X2.8543Y-2.7067
X2.8543Y-2.8051
X2.8543Y-2.9035
X2.8543Y-3.002
X2.8543Y-3.1004
X2.8543Y-3.1988
X2.8543Y-3.2972
X2.8543Y-3.3957
X2.8543Y-3.4941
X3.2374Y-2.45
X3.2374Y-2.55
X3.2374Y-3.0799
X3.2374Y-3.1799
X3.3374Y-2.45
X3.3374Y-2.55
X3.3374Y-3.0799
X3.3374Y-3.1799
X3.4449Y-2.0177
X3.4449Y-2.1161
X3.4449Y-2.2146
X3.4449Y-2.313
X3.4449Y-2.4114
X3.4449Y-2.5098
X3.4449Y-2.6083
X3.4449Y-2.7067
X3.4449Y-2.8051
X3.4449Y-2.9035
X3.4449Y-3.002
X3.4449Y-3.1004
X3.4449Y-3.1988
X3.4449Y-3.2972
X3.4449Y-3.3957
X3.4449Y-3.4941
T0
M30
