G04 (created by PCBNEW (2013-mar-13)-testing) date Mon 26 Aug 2013 07:22:46 AM PDT*
%MOIN*%
G04 Gerber Fmt 3.4, Leading zero omitted, Abs format*
%FSLAX34Y34*%
G01*
G70*
G90*
G04 APERTURE LIST*
%ADD10C,0.005906*%
%ADD11R,0.060000X0.060000*%
%ADD12C,0.060000*%
G04 APERTURE END LIST*
G54D10*
G54D11*
X20559Y-33425D03*
G54D12*
X21559Y-33425D03*
X22559Y-33425D03*
X23559Y-33425D03*
X24559Y-33425D03*
X25559Y-33425D03*
X26559Y-33425D03*
X27559Y-33425D03*
X28559Y-33425D03*
X29559Y-33425D03*
X30559Y-33425D03*
X31559Y-33425D03*
X32559Y-33425D03*
X33559Y-33425D03*
X34559Y-33425D03*
G54D11*
X20559Y-22893D03*
G54D12*
X21559Y-22893D03*
X22559Y-22893D03*
X23559Y-22893D03*
X24559Y-22893D03*
X25559Y-22893D03*
X26559Y-22893D03*
X27559Y-22893D03*
X28559Y-22893D03*
X29559Y-22893D03*
X30559Y-22893D03*
X31559Y-22893D03*
X32559Y-22893D03*
X33559Y-22893D03*
X34559Y-22893D03*
G54D11*
X21834Y-28059D03*
G54D12*
X21834Y-27059D03*
X22834Y-28059D03*
X22834Y-27059D03*
X23834Y-28059D03*
X23834Y-27059D03*
G54D11*
X31283Y-28059D03*
G54D12*
X31283Y-27059D03*
X32283Y-28059D03*
X32283Y-27059D03*
X33283Y-28059D03*
X33283Y-27059D03*
M02*
