G04 (created by PCBNEW-RS274X (2011-aug-04)-testing) date Sun 07 Apr 2013 12:34:02 PM PDT*
G01*
G70*
G90*
%MOIN*%
G04 Gerber Fmt 3.4, Leading zero omitted, Abs format*
%FSLAX34Y34*%
G04 APERTURE LIST*
%ADD10C,0.006000*%
%ADD11C,0.012000*%
G04 APERTURE END LIST*
G54D10*
G54D11*
X27685Y-44605D02*
X27599Y-44643D01*
X27571Y-44681D01*
X27542Y-44757D01*
X27542Y-44871D01*
X27571Y-44948D01*
X27599Y-44986D01*
X27657Y-45024D01*
X27885Y-45024D01*
X27885Y-44224D01*
X27685Y-44224D01*
X27628Y-44262D01*
X27599Y-44300D01*
X27571Y-44376D01*
X27571Y-44452D01*
X27599Y-44529D01*
X27628Y-44567D01*
X27685Y-44605D01*
X27885Y-44605D01*
X27171Y-44224D02*
X27057Y-44224D01*
X26999Y-44262D01*
X26942Y-44338D01*
X26914Y-44490D01*
X26914Y-44757D01*
X26942Y-44910D01*
X26999Y-44986D01*
X27057Y-45024D01*
X27171Y-45024D01*
X27228Y-44986D01*
X27285Y-44910D01*
X27314Y-44757D01*
X27314Y-44490D01*
X27285Y-44338D01*
X27228Y-44262D01*
X27171Y-44224D01*
X26742Y-44224D02*
X26399Y-44224D01*
X26570Y-45024D02*
X26570Y-44224D01*
X26285Y-44224D02*
X25942Y-44224D01*
X26113Y-45024D02*
X26113Y-44224D01*
X25628Y-44224D02*
X25514Y-44224D01*
X25456Y-44262D01*
X25399Y-44338D01*
X25371Y-44490D01*
X25371Y-44757D01*
X25399Y-44910D01*
X25456Y-44986D01*
X25514Y-45024D01*
X25628Y-45024D01*
X25685Y-44986D01*
X25742Y-44910D01*
X25771Y-44757D01*
X25771Y-44490D01*
X25742Y-44338D01*
X25685Y-44262D01*
X25628Y-44224D01*
X25113Y-45024D02*
X25113Y-44224D01*
X24913Y-44795D01*
X24713Y-44224D01*
X24713Y-45024D01*
X27085Y-20224D02*
X26742Y-20224D01*
X26913Y-21024D02*
X26913Y-20224D01*
X26428Y-20224D02*
X26314Y-20224D01*
X26256Y-20262D01*
X26199Y-20338D01*
X26171Y-20490D01*
X26171Y-20757D01*
X26199Y-20910D01*
X26256Y-20986D01*
X26314Y-21024D01*
X26428Y-21024D01*
X26485Y-20986D01*
X26542Y-20910D01*
X26571Y-20757D01*
X26571Y-20490D01*
X26542Y-20338D01*
X26485Y-20262D01*
X26428Y-20224D01*
X25913Y-21024D02*
X25913Y-20224D01*
X25685Y-20224D01*
X25627Y-20262D01*
X25599Y-20300D01*
X25570Y-20376D01*
X25570Y-20490D01*
X25599Y-20567D01*
X25627Y-20605D01*
X25685Y-20643D01*
X25913Y-20643D01*
G54D10*
X30900Y-36300D02*
X31900Y-36300D01*
X31900Y-36300D02*
X31900Y-34300D01*
X31900Y-34300D02*
X30900Y-34300D01*
X30900Y-34300D02*
X30900Y-36300D01*
X31521Y-33678D02*
X31221Y-33678D01*
X31221Y-33793D01*
X31236Y-33821D01*
X31250Y-33836D01*
X31279Y-33850D01*
X31321Y-33850D01*
X31350Y-33836D01*
X31364Y-33821D01*
X31379Y-33793D01*
X31379Y-33678D01*
X31221Y-33950D02*
X31221Y-34136D01*
X31336Y-34036D01*
X31336Y-34078D01*
X31350Y-34107D01*
X31364Y-34121D01*
X31393Y-34136D01*
X31464Y-34136D01*
X31493Y-34121D01*
X31507Y-34107D01*
X31521Y-34078D01*
X31521Y-33993D01*
X31507Y-33964D01*
X31493Y-33950D01*
M02*
