G04 (created by PCBNEW (2013-jul-07)-stable) date Tue 18 Aug 2015 02:36:46 PM PDT*
%MOIN*%
G04 Gerber Fmt 3.4, Leading zero omitted, Abs format*
%FSLAX34Y34*%
G01*
G70*
G90*
G04 APERTURE LIST*
%ADD10C,0.00590551*%
%ADD11C,0.2*%
%ADD12C,0.1811*%
%ADD13R,0.07X0.07*%
%ADD14C,0.07*%
%ADD15R,0.06X0.06*%
%ADD16C,0.06*%
%ADD17C,0.035*%
%ADD18C,0.025*%
G04 APERTURE END LIST*
G54D10*
G54D11*
X21890Y-29985D03*
G54D12*
X21890Y-32347D03*
G54D13*
X27965Y-30350D03*
G54D14*
X26965Y-30350D03*
X27965Y-29350D03*
X26965Y-29350D03*
X27965Y-28350D03*
X26965Y-28350D03*
G54D15*
X20559Y-22913D03*
G54D16*
X21559Y-22913D03*
X22559Y-22913D03*
X23559Y-22913D03*
X24559Y-22913D03*
X25559Y-22913D03*
X26559Y-22913D03*
X27559Y-22913D03*
X28559Y-22913D03*
X29559Y-22913D03*
X30559Y-22913D03*
X31559Y-22913D03*
X32559Y-22913D03*
X33559Y-22913D03*
X34559Y-22913D03*
G54D15*
X33770Y-33060D03*
G54D16*
X33770Y-32060D03*
G54D15*
X33810Y-30010D03*
G54D16*
X33810Y-29010D03*
X33810Y-28010D03*
X33810Y-27010D03*
X33810Y-26010D03*
X33810Y-25010D03*
G54D17*
X27047Y-26592D03*
G54D18*
X21890Y-24794D02*
X20559Y-23463D01*
X21890Y-29985D02*
X21890Y-24794D01*
X20559Y-22913D02*
X20559Y-23463D01*
X23559Y-23103D02*
X27047Y-26592D01*
X23559Y-22913D02*
X23559Y-23103D01*
X27980Y-28334D02*
X22559Y-22913D01*
X31305Y-25010D02*
X27980Y-28334D01*
X33810Y-25010D02*
X31305Y-25010D01*
X27980Y-28334D02*
X27965Y-28350D01*
X33810Y-30010D02*
X33260Y-30010D01*
X21559Y-22944D02*
X26965Y-28350D01*
X21559Y-22913D02*
X21559Y-22944D01*
X24621Y-32347D02*
X21890Y-32347D01*
X26378Y-30589D02*
X24621Y-32347D01*
X26714Y-30925D02*
X26378Y-30589D01*
X32344Y-30925D02*
X26714Y-30925D01*
X33260Y-30010D02*
X32344Y-30925D01*
X26378Y-28936D02*
X26965Y-28350D01*
X26378Y-30589D02*
X26378Y-28936D01*
M02*
