M48
;DRILL file {Pcbnew (2013-mar-13)-testing} date Tue 12 Nov 2013 05:23:00 PM PST
;FORMAT={2:4/ absolute / inch / suppress trailing zeros}
FMAT,2
INCH,LZ
T1C0.025
T2C0.040
T3C0.120
%
G90
G05
M72
T1
X021648Y-042645
X021953Y-043228
X022883Y-043218
X023232Y-051533
X023233Y-046468
X023359Y-038469
X023647Y-055256
X024217Y-038481
X024573Y-039837
X024929Y-040837
X025078Y-033063
X0251Y-034971
X025589Y-027615
X026073Y-036781
X026163Y-036216
X026665Y-035917
X027714Y-036389
X030062Y-046194
X030217Y-063358
X030403Y-02671
X030929Y-051424
X030968Y-044299
X032883Y-050281
X033145Y-063387
X033813Y-051044
T2
X020669Y-020122
X020669Y-021122
X020669Y-022122
X020669Y-023122
X020669Y-024122
X020669Y-025122
X020669Y-026122
X020669Y-027122
X020669Y-027996
X020669Y-028996
X020669Y-029996
X020669Y-030996
X020669Y-031996
X020669Y-032996
X020669Y-033996
X020669Y-034996
X020669Y-037839
X020669Y-038839
X020669Y-039839
X020669Y-040839
X020669Y-041839
X020669Y-042839
X020669Y-043839
X020669Y-044839
X020669Y-045713
X020669Y-046713
X020669Y-047713
X020669Y-048713
X020669Y-049713
X020669Y-050713
X020669Y-051713
X020669Y-052713
X021122Y-057087
X021122Y-061024
X021154Y-067224
X021154Y-06939
X022122Y-057087
X022122Y-061024
X022154Y-067224
X022154Y-06939
X023122Y-040339
X023122Y-041339
X023122Y-042339
X023122Y-048213
X023122Y-049213
X023122Y-050213
X023122Y-057087
X023122Y-061024
X024122Y-040339
X024122Y-041339
X024122Y-042339
X024122Y-048213
X024122Y-049213
X024122Y-050213
X024122Y-057087
X024122Y-061024
X025091Y-067224
X025091Y-06939
X025122Y-057087
X025122Y-061024
X026091Y-067224
X026091Y-06939
X026122Y-057087
X026122Y-061024
X026575Y-020122
X026575Y-021122
X026575Y-022122
X026575Y-023122
X026575Y-024122
X026575Y-025122
X026575Y-026122
X026575Y-027122
X026575Y-027996
X026575Y-028996
X026575Y-029996
X026575Y-030996
X026575Y-031996
X026575Y-032996
X026575Y-033996
X026575Y-034996
X026575Y-037839
X026575Y-038839
X026575Y-039839
X026575Y-040839
X026575Y-041839
X026575Y-042839
X026575Y-043839
X026575Y-044839
X026575Y-045713
X026575Y-046713
X026575Y-047713
X026575Y-048713
X026575Y-049713
X026575Y-050713
X026575Y-051713
X026575Y-052713
X028543Y-020122
X028543Y-021122
X028543Y-022122
X028543Y-023122
X028543Y-024122
X028543Y-025122
X028543Y-026122
X028543Y-027122
X028543Y-027996
X028543Y-028996
X028543Y-029996
X028543Y-030996
X028543Y-031996
X028543Y-032996
X028543Y-033996
X028543Y-034996
X028543Y-037839
X028543Y-038839
X028543Y-039839
X028543Y-040839
X028543Y-041839
X028543Y-042839
X028543Y-043839
X028543Y-044839
X028543Y-045713
X028543Y-046713
X028543Y-047713
X028543Y-048713
X028543Y-049713
X028543Y-050713
X028543Y-051713
X028543Y-052713
X028996Y-057087
X028996Y-061024
X029996Y-057087
X029996Y-061024
X030496Y-067807
X030496Y-068807
X030996Y-040339
X030996Y-041339
X030996Y-042339
X030996Y-048213
X030996Y-049213
X030996Y-050213
X030996Y-057087
X030996Y-061024
X031496Y-067807
X031496Y-068807
X031996Y-040339
X031996Y-041339
X031996Y-042339
X031996Y-048213
X031996Y-049213
X031996Y-050213
X031996Y-057087
X031996Y-061024
X032496Y-067807
X032496Y-068807
X032996Y-057087
X032996Y-061024
X033996Y-057087
X033996Y-061024
X034449Y-020122
X034449Y-021122
X034449Y-022122
X034449Y-023122
X034449Y-024122
X034449Y-025122
X034449Y-026122
X034449Y-027122
X034449Y-027996
X034449Y-028996
X034449Y-029996
X034449Y-030996
X034449Y-031996
X034449Y-032996
X034449Y-033996
X034449Y-034996
X034449Y-037839
X034449Y-038839
X034449Y-039839
X034449Y-040839
X034449Y-041839
X034449Y-042839
X034449Y-043839
X034449Y-044839
X034449Y-045713
X034449Y-046713
X034449Y-047713
X034449Y-048713
X034449Y-049713
X034449Y-050713
X034449Y-051713
X034449Y-052713
T3
X018701Y-018701
X018701Y-07185
X036417Y-018701
X036417Y-07185
T0
M30
