G04 (created by PCBNEW (2013-mar-13)-testing) date Tue 12 Nov 2013 05:22:57 PM PST*
%MOIN*%
G04 Gerber Fmt 3.4, Leading zero omitted, Abs format*
%FSLAX34Y34*%
G01*
G70*
G90*
G04 APERTURE LIST*
%ADD10C,0.005906*%
%ADD11C,0.065000*%
%ADD12R,0.060000X0.060000*%
%ADD13C,0.060000*%
%ADD14R,0.070000X0.070000*%
%ADD15C,0.070000*%
%ADD16C,0.135000*%
%ADD17C,0.035000*%
%ADD18C,0.015000*%
G04 APERTURE END LIST*
G54D10*
G54D11*
X20669Y-37838D03*
X20669Y-38838D03*
X20669Y-39838D03*
X20669Y-40838D03*
X20669Y-41838D03*
X20669Y-42838D03*
X20669Y-43838D03*
X20669Y-44838D03*
X26574Y-44838D03*
X26574Y-43838D03*
X26574Y-42838D03*
X26574Y-41838D03*
X26574Y-40838D03*
X26574Y-39838D03*
X26574Y-38838D03*
X26574Y-37838D03*
X20669Y-45712D03*
X20669Y-46712D03*
X20669Y-47712D03*
X20669Y-48712D03*
X20669Y-49712D03*
X20669Y-50712D03*
X20669Y-51712D03*
X20669Y-52712D03*
X26574Y-52712D03*
X26574Y-51712D03*
X26574Y-50712D03*
X26574Y-49712D03*
X26574Y-48712D03*
X26574Y-47712D03*
X26574Y-46712D03*
X26574Y-45712D03*
X28543Y-37838D03*
X28543Y-38838D03*
X28543Y-39838D03*
X28543Y-40838D03*
X28543Y-41838D03*
X28543Y-42838D03*
X28543Y-43838D03*
X28543Y-44838D03*
X34448Y-44838D03*
X34448Y-43838D03*
X34448Y-42838D03*
X34448Y-41838D03*
X34448Y-40838D03*
X34448Y-39838D03*
X34448Y-38838D03*
X34448Y-37838D03*
X28543Y-45712D03*
X28543Y-46712D03*
X28543Y-47712D03*
X28543Y-48712D03*
X28543Y-49712D03*
X28543Y-50712D03*
X28543Y-51712D03*
X28543Y-52712D03*
X34448Y-52712D03*
X34448Y-51712D03*
X34448Y-50712D03*
X34448Y-49712D03*
X34448Y-48712D03*
X34448Y-47712D03*
X34448Y-46712D03*
X34448Y-45712D03*
X20669Y-20122D03*
X20669Y-21122D03*
X20669Y-22122D03*
X20669Y-23122D03*
X20669Y-24122D03*
X20669Y-25122D03*
X20669Y-26122D03*
X20669Y-27122D03*
X26574Y-27122D03*
X26574Y-26122D03*
X26574Y-25122D03*
X26574Y-24122D03*
X26574Y-23122D03*
X26574Y-22122D03*
X26574Y-21122D03*
X26574Y-20122D03*
X20669Y-27996D03*
X20669Y-28996D03*
X20669Y-29996D03*
X20669Y-30996D03*
X20669Y-31996D03*
X20669Y-32996D03*
X20669Y-33996D03*
X20669Y-34996D03*
X26574Y-34996D03*
X26574Y-33996D03*
X26574Y-32996D03*
X26574Y-31996D03*
X26574Y-30996D03*
X26574Y-29996D03*
X26574Y-28996D03*
X26574Y-27996D03*
X28543Y-20122D03*
X28543Y-21122D03*
X28543Y-22122D03*
X28543Y-23122D03*
X28543Y-24122D03*
X28543Y-25122D03*
X28543Y-26122D03*
X28543Y-27122D03*
X34448Y-27122D03*
X34448Y-26122D03*
X34448Y-25122D03*
X34448Y-24122D03*
X34448Y-23122D03*
X34448Y-22122D03*
X34448Y-21122D03*
X34448Y-20122D03*
X28543Y-27996D03*
X28543Y-28996D03*
X28543Y-29996D03*
X28543Y-30996D03*
X28543Y-31996D03*
X28543Y-32996D03*
X28543Y-33996D03*
X28543Y-34996D03*
X34448Y-34996D03*
X34448Y-33996D03*
X34448Y-32996D03*
X34448Y-31996D03*
X34448Y-30996D03*
X34448Y-29996D03*
X34448Y-28996D03*
X34448Y-27996D03*
G54D12*
X21153Y-67224D03*
G54D13*
X22153Y-67224D03*
G54D12*
X21122Y-57086D03*
G54D13*
X22122Y-57086D03*
X23122Y-57086D03*
X24122Y-57086D03*
X25122Y-57086D03*
X26122Y-57086D03*
G54D12*
X25090Y-67224D03*
G54D13*
X26090Y-67224D03*
G54D12*
X21122Y-61023D03*
G54D13*
X22122Y-61023D03*
X23122Y-61023D03*
X24122Y-61023D03*
X25122Y-61023D03*
X26122Y-61023D03*
G54D12*
X25090Y-69389D03*
G54D13*
X26090Y-69389D03*
G54D12*
X28996Y-57086D03*
G54D13*
X29996Y-57086D03*
X30996Y-57086D03*
X31996Y-57086D03*
X32996Y-57086D03*
X33996Y-57086D03*
G54D12*
X21153Y-69389D03*
G54D13*
X22153Y-69389D03*
G54D12*
X28996Y-61023D03*
G54D13*
X29996Y-61023D03*
X30996Y-61023D03*
X31996Y-61023D03*
X32996Y-61023D03*
X33996Y-61023D03*
G54D14*
X30496Y-68807D03*
G54D15*
X30496Y-67807D03*
X31496Y-68807D03*
X31496Y-67807D03*
X32496Y-68807D03*
X32496Y-67807D03*
G54D14*
X31996Y-50212D03*
G54D15*
X30996Y-50212D03*
X31996Y-49212D03*
X30996Y-49212D03*
X31996Y-48212D03*
X30996Y-48212D03*
G54D14*
X31996Y-42338D03*
G54D15*
X30996Y-42338D03*
X31996Y-41338D03*
X30996Y-41338D03*
X31996Y-40338D03*
X30996Y-40338D03*
G54D14*
X24122Y-50212D03*
G54D15*
X23122Y-50212D03*
X24122Y-49212D03*
X23122Y-49212D03*
X24122Y-48212D03*
X23122Y-48212D03*
G54D14*
X24122Y-42338D03*
G54D15*
X23122Y-42338D03*
X24122Y-41338D03*
X23122Y-41338D03*
X24122Y-40338D03*
X23122Y-40338D03*
G54D16*
X18700Y-18700D03*
X36417Y-18700D03*
X36417Y-71850D03*
X18700Y-71850D03*
G54D17*
X32882Y-50280D03*
X23232Y-46467D03*
X24216Y-38480D03*
X26072Y-36781D03*
X30062Y-46193D03*
X26664Y-35916D03*
X24573Y-39836D03*
X26162Y-36216D03*
X27713Y-36389D03*
X33144Y-63386D03*
X30216Y-63357D03*
X30967Y-44299D03*
X30403Y-26710D03*
X30929Y-51424D03*
X25078Y-33062D03*
X22882Y-43218D03*
X23232Y-51532D03*
X21647Y-42644D03*
X23646Y-55255D03*
X33813Y-51043D03*
X24929Y-40837D03*
X21953Y-43227D03*
X23358Y-38468D03*
X25100Y-34970D03*
X25588Y-27615D03*
G54D18*
X25090Y-69389D02*
X24615Y-69389D01*
X21153Y-69389D02*
X21628Y-69389D01*
X21153Y-68150D02*
X21153Y-67224D01*
X21917Y-68914D02*
X21153Y-68150D01*
X24140Y-68914D02*
X21917Y-68914D01*
X24615Y-69389D02*
X24140Y-68914D01*
X21628Y-69203D02*
X21628Y-69389D01*
X21917Y-68914D02*
X21628Y-69203D01*
X23232Y-42449D02*
X23122Y-42338D01*
X23232Y-46467D02*
X23232Y-42449D01*
X24615Y-66274D02*
X25090Y-66749D01*
X24615Y-56409D02*
X24615Y-66274D01*
X23997Y-55790D02*
X24615Y-56409D01*
X23997Y-51087D02*
X23997Y-55790D01*
X23122Y-50212D02*
X23997Y-51087D01*
X25090Y-67224D02*
X25090Y-66749D01*
X30570Y-67732D02*
X30496Y-67807D01*
X30570Y-62367D02*
X30570Y-67732D01*
X30518Y-62316D02*
X30570Y-62367D01*
X30518Y-50689D02*
X30518Y-62316D01*
X30996Y-50212D02*
X30518Y-50689D01*
X30617Y-42716D02*
X30996Y-42338D01*
X30617Y-44472D02*
X30617Y-42716D01*
X30737Y-44593D02*
X30617Y-44472D01*
X30737Y-46125D02*
X30737Y-44593D01*
X32882Y-48269D02*
X30737Y-46125D01*
X32882Y-50280D02*
X32882Y-48269D01*
X24216Y-25479D02*
X24216Y-38480D01*
X26574Y-23122D02*
X24216Y-25479D01*
X26072Y-48210D02*
X26574Y-48712D01*
X26072Y-36781D02*
X26072Y-48210D01*
X26072Y-36781D02*
X26072Y-36781D01*
X35718Y-24391D02*
X34448Y-23122D01*
X35718Y-35835D02*
X35718Y-24391D01*
X33940Y-37613D02*
X35718Y-35835D01*
X33940Y-40329D02*
X33940Y-37613D01*
X34448Y-40838D02*
X33940Y-40329D01*
X34448Y-48518D02*
X34448Y-48712D01*
X33187Y-47257D02*
X34448Y-48518D01*
X33187Y-36994D02*
X33187Y-47257D01*
X34950Y-35232D02*
X33187Y-36994D01*
X34950Y-31497D02*
X34950Y-35232D01*
X34448Y-30996D02*
X34950Y-31497D01*
X22174Y-23627D02*
X20669Y-22122D01*
X22174Y-35620D02*
X22174Y-23627D01*
X21192Y-36602D02*
X22174Y-35620D01*
X20826Y-36602D02*
X21192Y-36602D01*
X19917Y-37511D02*
X20826Y-36602D01*
X19917Y-39086D02*
X19917Y-37511D01*
X20669Y-39838D02*
X19917Y-39086D01*
X30062Y-31514D02*
X28543Y-29996D01*
X30062Y-46193D02*
X30062Y-31514D01*
X21924Y-24377D02*
X20669Y-23122D01*
X21924Y-35516D02*
X21924Y-24377D01*
X21088Y-36352D02*
X21924Y-35516D01*
X20723Y-36352D02*
X21088Y-36352D01*
X19667Y-37408D02*
X20723Y-36352D01*
X19667Y-39836D02*
X19667Y-37408D01*
X20669Y-40838D02*
X19667Y-39836D01*
X27326Y-45960D02*
X26574Y-46712D01*
X27326Y-37300D02*
X27326Y-45960D01*
X27088Y-37062D02*
X27326Y-37300D01*
X27088Y-29509D02*
X27088Y-37062D01*
X26574Y-28996D02*
X27088Y-29509D01*
X33697Y-28244D02*
X34448Y-28996D01*
X33697Y-19812D02*
X33697Y-28244D01*
X34151Y-19357D02*
X33697Y-19812D01*
X34747Y-19357D02*
X34151Y-19357D01*
X36477Y-21088D02*
X34747Y-19357D01*
X36477Y-44683D02*
X36477Y-21088D01*
X34448Y-46712D02*
X36477Y-44683D01*
X26664Y-36992D02*
X26664Y-35916D01*
X27076Y-37403D02*
X26664Y-36992D01*
X27076Y-45210D02*
X27076Y-37403D01*
X26574Y-45712D02*
X27076Y-45210D01*
X33688Y-44951D02*
X34448Y-45712D01*
X33688Y-37251D02*
X33688Y-44951D01*
X35468Y-35471D02*
X33688Y-37251D01*
X35468Y-29015D02*
X35468Y-35471D01*
X34448Y-27996D02*
X35468Y-29015D01*
X21424Y-27877D02*
X20669Y-27122D01*
X21424Y-35309D02*
X21424Y-27877D01*
X20881Y-35852D02*
X21424Y-35309D01*
X20502Y-35852D02*
X20881Y-35852D01*
X19142Y-37211D02*
X20502Y-35852D01*
X19142Y-43312D02*
X19142Y-37211D01*
X20669Y-44838D02*
X19142Y-43312D01*
X29059Y-44322D02*
X28543Y-44838D01*
X29059Y-36596D02*
X29059Y-44322D01*
X27793Y-35330D02*
X29059Y-36596D01*
X27793Y-27872D02*
X27793Y-35330D01*
X28543Y-27122D02*
X27793Y-27872D01*
X24573Y-36781D02*
X24573Y-39836D01*
X24470Y-36679D02*
X24573Y-36781D01*
X24470Y-26226D02*
X24470Y-36679D01*
X26574Y-24122D02*
X24470Y-26226D01*
X25822Y-48960D02*
X26574Y-49712D01*
X25822Y-37026D02*
X25822Y-48960D01*
X25722Y-36926D02*
X25822Y-37026D01*
X25722Y-36636D02*
X25722Y-36926D01*
X26142Y-36216D02*
X25722Y-36636D01*
X26162Y-36216D02*
X26142Y-36216D01*
X33892Y-49156D02*
X34448Y-49712D01*
X33892Y-48389D02*
X33892Y-49156D01*
X32937Y-47434D02*
X33892Y-48389D01*
X32937Y-33507D02*
X32937Y-47434D01*
X34448Y-31996D02*
X32937Y-33507D01*
X22674Y-22127D02*
X20669Y-20122D01*
X22674Y-35833D02*
X22674Y-22127D01*
X20669Y-37838D02*
X22674Y-35833D01*
X18880Y-43923D02*
X20669Y-45712D01*
X18880Y-37118D02*
X18880Y-43923D01*
X20501Y-35496D02*
X18880Y-37118D01*
X20883Y-35496D02*
X20501Y-35496D01*
X21174Y-35205D02*
X20883Y-35496D01*
X21174Y-28500D02*
X21174Y-35205D01*
X20669Y-27996D02*
X21174Y-28500D01*
X27713Y-44882D02*
X28543Y-45712D01*
X27713Y-36389D02*
X27713Y-44882D01*
X29314Y-50941D02*
X28543Y-51712D01*
X29314Y-45254D02*
X29314Y-50941D01*
X29559Y-45008D02*
X29314Y-45254D01*
X29559Y-35012D02*
X29559Y-45008D01*
X28543Y-33996D02*
X29559Y-35012D01*
X22424Y-22877D02*
X20669Y-21122D01*
X22424Y-35723D02*
X22424Y-22877D01*
X21295Y-36852D02*
X22424Y-35723D01*
X20930Y-36852D02*
X21295Y-36852D01*
X20167Y-37615D02*
X20930Y-36852D01*
X20167Y-38337D02*
X20167Y-37615D01*
X20669Y-38838D02*
X20167Y-38337D01*
X27788Y-47467D02*
X28543Y-46712D01*
X27788Y-53736D02*
X27788Y-47467D01*
X29471Y-55419D02*
X27788Y-53736D01*
X29471Y-62612D02*
X29471Y-55419D01*
X30216Y-63357D02*
X29471Y-62612D01*
X36727Y-59803D02*
X33144Y-63386D01*
X36727Y-20984D02*
X36727Y-59803D01*
X34851Y-19107D02*
X36727Y-20984D01*
X34047Y-19107D02*
X34851Y-19107D01*
X33421Y-19733D02*
X34047Y-19107D01*
X33421Y-24187D02*
X33421Y-19733D01*
X28613Y-28996D02*
X33421Y-24187D01*
X28543Y-28996D02*
X28613Y-28996D01*
X21674Y-25127D02*
X20669Y-24122D01*
X21674Y-35413D02*
X21674Y-25127D01*
X20984Y-36102D02*
X21674Y-35413D01*
X20617Y-36102D02*
X20984Y-36102D01*
X19398Y-37321D02*
X20617Y-36102D01*
X19398Y-40567D02*
X19398Y-37321D01*
X20669Y-41838D02*
X19398Y-40567D01*
X27542Y-25122D02*
X28543Y-24122D01*
X27542Y-35723D02*
X27542Y-25122D01*
X28063Y-36244D02*
X27542Y-35723D01*
X28063Y-36534D02*
X28063Y-36244D01*
X28038Y-36559D02*
X28063Y-36534D01*
X28038Y-41334D02*
X28038Y-36559D01*
X28543Y-41838D02*
X28038Y-41334D01*
X29059Y-49196D02*
X28543Y-49712D01*
X29059Y-44978D02*
X29059Y-49196D01*
X29309Y-44728D02*
X29059Y-44978D01*
X29309Y-36492D02*
X29309Y-44728D01*
X28043Y-35226D02*
X29309Y-36492D01*
X28043Y-32496D02*
X28043Y-35226D01*
X28543Y-31996D02*
X28043Y-32496D01*
X18626Y-48670D02*
X20669Y-50712D01*
X18626Y-35038D02*
X18626Y-48670D01*
X20669Y-32996D02*
X18626Y-35038D01*
X31996Y-42338D02*
X31996Y-42863D01*
X30967Y-43891D02*
X30967Y-44299D01*
X31996Y-42863D02*
X30967Y-43891D01*
X28815Y-25122D02*
X28543Y-25122D01*
X30403Y-26710D02*
X28815Y-25122D01*
X31996Y-50212D02*
X31996Y-50737D01*
X29811Y-34264D02*
X28543Y-32996D01*
X29811Y-45286D02*
X29811Y-34264D01*
X29564Y-45534D02*
X29811Y-45286D01*
X29564Y-52428D02*
X29564Y-45534D01*
X28777Y-53214D02*
X29564Y-52428D01*
X28335Y-53214D02*
X28777Y-53214D01*
X28038Y-52918D02*
X28335Y-53214D01*
X28038Y-51217D02*
X28038Y-52918D01*
X28543Y-50712D02*
X28038Y-51217D01*
X31615Y-50737D02*
X30929Y-51424D01*
X31996Y-50737D02*
X31615Y-50737D01*
X25078Y-27618D02*
X25078Y-33062D01*
X26574Y-26122D02*
X25078Y-27618D01*
X22590Y-42925D02*
X22882Y-43218D01*
X22590Y-41870D02*
X22590Y-42925D01*
X23122Y-41338D02*
X22590Y-41870D01*
X27094Y-52232D02*
X26574Y-51712D01*
X27094Y-52912D02*
X27094Y-52232D01*
X26791Y-53215D02*
X27094Y-52912D01*
X26367Y-53215D02*
X26791Y-53215D01*
X25322Y-52170D02*
X26367Y-53215D01*
X25322Y-37233D02*
X25322Y-52170D01*
X25222Y-37133D02*
X25322Y-37233D01*
X25222Y-35348D02*
X25222Y-37133D01*
X26574Y-33996D02*
X25222Y-35348D01*
X22577Y-50878D02*
X23232Y-51532D01*
X22577Y-49757D02*
X22577Y-50878D01*
X23122Y-49212D02*
X22577Y-49757D01*
X21647Y-38307D02*
X21647Y-42644D01*
X23210Y-36744D02*
X21647Y-38307D01*
X23210Y-22772D02*
X23210Y-36744D01*
X26361Y-19620D02*
X23210Y-22772D01*
X26788Y-19620D02*
X26361Y-19620D01*
X27098Y-19930D02*
X26788Y-19620D01*
X27098Y-26598D02*
X27098Y-19930D01*
X26574Y-27122D02*
X27098Y-26598D01*
X23646Y-60548D02*
X23646Y-55255D01*
X24122Y-61023D02*
X23646Y-60548D01*
X25572Y-51710D02*
X26574Y-52712D01*
X25572Y-37130D02*
X25572Y-51710D01*
X25472Y-37029D02*
X25572Y-37130D01*
X25472Y-36098D02*
X25472Y-37029D01*
X26574Y-34996D02*
X25472Y-36098D01*
X33947Y-26620D02*
X34448Y-27122D01*
X33947Y-19915D02*
X33947Y-26620D01*
X34254Y-19608D02*
X33947Y-19915D01*
X34644Y-19608D02*
X34254Y-19608D01*
X36227Y-21191D02*
X34644Y-19608D01*
X36227Y-43059D02*
X36227Y-21191D01*
X34448Y-44838D02*
X36227Y-43059D01*
X33813Y-52077D02*
X33813Y-51043D01*
X34448Y-52712D02*
X33813Y-52077D01*
X24720Y-26976D02*
X26574Y-25122D01*
X24720Y-35265D02*
X24720Y-26976D01*
X24929Y-35474D02*
X24720Y-35265D01*
X24929Y-40837D02*
X24929Y-35474D01*
X22009Y-39817D02*
X23358Y-38468D01*
X22009Y-43170D02*
X22009Y-39817D01*
X21953Y-43227D02*
X22009Y-43170D01*
X25100Y-34470D02*
X25100Y-34970D01*
X26574Y-32996D02*
X25100Y-34470D01*
X25588Y-29010D02*
X25588Y-27615D01*
X26574Y-29996D02*
X25588Y-29010D01*
X35969Y-23643D02*
X34448Y-22122D01*
X35969Y-38317D02*
X35969Y-23643D01*
X34448Y-39838D02*
X35969Y-38317D01*
X34951Y-48215D02*
X34448Y-47712D01*
X34951Y-59067D02*
X34951Y-48215D01*
X32996Y-61023D02*
X34951Y-59067D01*
X33438Y-46701D02*
X34448Y-47712D01*
X33438Y-37137D02*
X33438Y-46701D01*
X35209Y-35366D02*
X33438Y-37137D01*
X35209Y-30756D02*
X35209Y-35366D01*
X34448Y-29996D02*
X35209Y-30756D01*
X28450Y-66761D02*
X30496Y-68807D01*
X28450Y-59414D02*
X28450Y-66761D01*
X26122Y-57086D02*
X28450Y-59414D01*
X24122Y-40534D02*
X24122Y-40338D01*
X24897Y-41309D02*
X24122Y-40534D01*
X24897Y-53157D02*
X24897Y-41309D01*
X26122Y-54382D02*
X24897Y-53157D01*
X26122Y-57086D02*
X26122Y-54382D01*
X26122Y-65380D02*
X26122Y-61023D01*
X30073Y-69332D02*
X26122Y-65380D01*
X30970Y-69332D02*
X30073Y-69332D01*
X31496Y-68807D02*
X30970Y-69332D01*
X25622Y-60523D02*
X26122Y-61023D01*
X25622Y-56031D02*
X25622Y-60523D01*
X24647Y-55056D02*
X25622Y-56031D01*
X24647Y-48737D02*
X24647Y-55056D01*
X24122Y-48212D02*
X24647Y-48737D01*
X33463Y-56553D02*
X33996Y-57086D01*
X33463Y-48313D02*
X33463Y-56553D01*
X32655Y-47505D02*
X33463Y-48313D01*
X32655Y-40997D02*
X32655Y-47505D01*
X31996Y-40338D02*
X32655Y-40997D01*
X32772Y-66530D02*
X32772Y-61501D01*
X31496Y-67807D02*
X32772Y-66530D01*
X32496Y-61225D02*
X32772Y-61501D01*
X32496Y-53770D02*
X32496Y-61225D01*
X32521Y-53745D02*
X32496Y-53770D01*
X32521Y-48737D02*
X32521Y-53745D01*
X31996Y-48212D02*
X32521Y-48737D01*
X33518Y-61501D02*
X33996Y-61023D01*
X32772Y-61501D02*
X33518Y-61501D01*
X21122Y-57086D02*
X21597Y-57086D01*
X22122Y-49212D02*
X22122Y-57086D01*
X23122Y-48212D02*
X22122Y-49212D01*
X22122Y-57086D02*
X21597Y-57086D01*
X22340Y-47430D02*
X23122Y-48212D01*
X22340Y-41120D02*
X22340Y-47430D01*
X23122Y-40338D02*
X22340Y-41120D01*
X21122Y-61023D02*
X21597Y-61023D01*
X22122Y-61023D02*
X22122Y-57086D01*
X22122Y-61023D02*
X21597Y-61023D01*
X29996Y-57086D02*
X29996Y-61023D01*
X29996Y-49212D02*
X30996Y-48212D01*
X29996Y-57086D02*
X29996Y-49212D01*
X30367Y-40967D02*
X30996Y-40338D01*
X30367Y-44576D02*
X30367Y-40967D01*
X30487Y-44696D02*
X30367Y-44576D01*
X30487Y-47704D02*
X30487Y-44696D01*
X30996Y-48212D02*
X30487Y-47704D01*
X25615Y-67699D02*
X26090Y-67224D01*
X24696Y-67699D02*
X25615Y-67699D01*
X23122Y-66124D02*
X24696Y-67699D01*
X23122Y-61023D02*
X23122Y-66124D01*
X22622Y-66755D02*
X22153Y-67224D01*
X22622Y-57586D02*
X22622Y-66755D01*
X23122Y-57086D02*
X22622Y-57586D01*
M02*
