G04 (created by PCBNEW-RS274X (2011-aug-04)-testing) date Wed 17 Apr 2013 04:19:54 PM PDT*
G01*
G70*
G90*
%MOIN*%
G04 Gerber Fmt 3.4, Leading zero omitted, Abs format*
%FSLAX34Y34*%
G04 APERTURE LIST*
%ADD10C,0.006000*%
%ADD11R,0.080000X0.080000*%
%ADD12C,0.080000*%
G04 APERTURE END LIST*
G54D10*
G54D11*
X22799Y-39398D03*
G54D12*
X22799Y-38398D03*
X23799Y-39398D03*
X23799Y-38398D03*
X24799Y-39398D03*
X24799Y-38398D03*
X25799Y-39398D03*
X25799Y-38398D03*
X26799Y-39398D03*
X26799Y-38398D03*
X27799Y-39398D03*
X27799Y-38398D03*
X28799Y-39398D03*
X28799Y-38398D03*
X29799Y-39398D03*
X29799Y-38398D03*
G54D11*
X22799Y-26799D03*
G54D12*
X22799Y-25799D03*
X23799Y-26799D03*
X23799Y-25799D03*
X24799Y-26799D03*
X24799Y-25799D03*
X25799Y-26799D03*
X25799Y-25799D03*
X26799Y-26799D03*
X26799Y-25799D03*
X27799Y-26799D03*
X27799Y-25799D03*
X28799Y-26799D03*
X28799Y-25799D03*
X29799Y-26799D03*
X29799Y-25799D03*
X31023Y-29800D03*
X31023Y-28800D03*
X31023Y-27800D03*
X31023Y-26800D03*
X31023Y-25800D03*
X31023Y-24800D03*
X31023Y-23800D03*
X31023Y-22800D03*
G54D11*
X21574Y-22800D03*
G54D12*
X21574Y-23800D03*
X21574Y-24800D03*
X21574Y-25800D03*
X21574Y-26800D03*
X21574Y-27800D03*
X21574Y-28800D03*
X21574Y-29800D03*
M02*
