M48
;DRILL file {PCBnew (2011-aug-04)-testing} date Wed 17 Apr 2013 04:19:57 PM PDT
;FORMAT={2:4/ absolute / inch / suppress trailing zeros}
FMAT,2
INCH,LZ
T1C0.040
%
G90
G05
M72
T1
X021574Y-0228
X021574Y-0238
X021574Y-0248
X021574Y-0258
X021574Y-0268
X021574Y-0278
X021574Y-0288
X021574Y-0298
X022799Y-025799
X022799Y-026799
X022799Y-038398
X022799Y-039398
X023799Y-025799
X023799Y-026799
X023799Y-038398
X023799Y-039398
X024799Y-025799
X024799Y-026799
X024799Y-038398
X024799Y-039398
X025799Y-025799
X025799Y-026799
X025799Y-038398
X025799Y-039398
X026799Y-025799
X026799Y-026799
X026799Y-038398
X026799Y-039398
X027799Y-025799
X027799Y-026799
X027799Y-038398
X027799Y-039398
X028799Y-025799
X028799Y-026799
X028799Y-038398
X028799Y-039398
X029799Y-025799
X029799Y-026799
X029799Y-038398
X029799Y-039398
X031023Y-0228
X031023Y-0238
X031023Y-0248
X031023Y-0258
X031023Y-0268
X031023Y-0278
X031023Y-0288
X031023Y-0298
T0
M30
