G04 (created by PCBNEW-RS274X (2011-aug-04)-testing) date Wed 17 Apr 2013 04:19:54 PM PDT*
G01*
G70*
G90*
%MOIN*%
G04 Gerber Fmt 3.4, Leading zero omitted, Abs format*
%FSLAX34Y34*%
G04 APERTURE LIST*
%ADD10C,0.006000*%
%ADD11R,0.060000X0.060000*%
%ADD12C,0.060000*%
%ADD13R,0.045000X0.025000*%
%ADD14C,0.008000*%
G04 APERTURE END LIST*
G54D10*
G54D11*
X22799Y-39398D03*
G54D12*
X22799Y-38398D03*
X23799Y-39398D03*
X23799Y-38398D03*
X24799Y-39398D03*
X24799Y-38398D03*
X25799Y-39398D03*
X25799Y-38398D03*
X26799Y-39398D03*
X26799Y-38398D03*
X27799Y-39398D03*
X27799Y-38398D03*
X28799Y-39398D03*
X28799Y-38398D03*
X29799Y-39398D03*
X29799Y-38398D03*
G54D11*
X22799Y-26799D03*
G54D12*
X22799Y-25799D03*
X23799Y-26799D03*
X23799Y-25799D03*
X24799Y-26799D03*
X24799Y-25799D03*
X25799Y-26799D03*
X25799Y-25799D03*
X26799Y-26799D03*
X26799Y-25799D03*
X27799Y-26799D03*
X27799Y-25799D03*
X28799Y-26799D03*
X28799Y-25799D03*
X29799Y-26799D03*
X29799Y-25799D03*
X31023Y-29800D03*
X31023Y-28800D03*
X31023Y-27800D03*
X31023Y-26800D03*
X31023Y-25800D03*
X31023Y-24800D03*
X31023Y-23800D03*
X31023Y-22800D03*
G54D11*
X21574Y-22800D03*
G54D12*
X21574Y-23800D03*
X21574Y-24800D03*
X21574Y-25800D03*
X21574Y-26800D03*
X21574Y-27800D03*
X21574Y-28800D03*
X21574Y-29800D03*
G54D13*
X28800Y-40700D03*
X28800Y-41300D03*
X28800Y-28100D03*
X28800Y-28700D03*
X23800Y-40700D03*
X23800Y-41300D03*
X23800Y-28100D03*
X23800Y-28700D03*
X23800Y-37100D03*
X23800Y-36500D03*
X23800Y-24500D03*
X23800Y-23900D03*
X26800Y-37100D03*
X26800Y-36500D03*
X26800Y-24500D03*
X26800Y-23900D03*
X24800Y-37100D03*
X24800Y-36500D03*
X24800Y-24500D03*
X24800Y-23900D03*
X27800Y-40700D03*
X27800Y-41300D03*
X27800Y-28100D03*
X27800Y-28700D03*
X29800Y-40700D03*
X29800Y-41300D03*
X29800Y-28100D03*
X29800Y-28700D03*
X29800Y-37100D03*
X29800Y-36500D03*
X29800Y-24500D03*
X29800Y-23900D03*
G54D14*
X28799Y-40432D02*
X28799Y-39398D01*
X28800Y-40432D02*
X28799Y-40432D01*
X28800Y-40700D02*
X28800Y-40432D01*
X23799Y-27832D02*
X23799Y-26799D01*
X23800Y-27832D02*
X23799Y-27832D01*
X23800Y-28100D02*
X23800Y-27832D01*
X23799Y-24768D02*
X23799Y-25799D01*
X23800Y-24768D02*
X23799Y-24768D01*
X23800Y-24500D02*
X23800Y-24768D01*
X26799Y-24768D02*
X26799Y-25799D01*
X26800Y-24768D02*
X26799Y-24768D01*
X26800Y-24500D02*
X26800Y-24768D01*
X24799Y-24768D02*
X24799Y-25799D01*
X24800Y-24768D02*
X24799Y-24768D01*
X24800Y-24500D02*
X24800Y-24768D01*
X27799Y-27832D02*
X27799Y-26799D01*
X27800Y-27832D02*
X27799Y-27832D01*
X27800Y-28100D02*
X27800Y-27832D01*
X29799Y-27832D02*
X29799Y-26799D01*
X29800Y-27832D02*
X29799Y-27832D01*
X29800Y-28100D02*
X29800Y-27832D01*
X29799Y-24768D02*
X29799Y-25799D01*
X29800Y-24768D02*
X29799Y-24768D01*
X29800Y-24500D02*
X29800Y-24768D01*
X23799Y-40432D02*
X23799Y-39398D01*
X23800Y-40432D02*
X23799Y-40432D01*
X23800Y-40700D02*
X23800Y-40432D01*
X23799Y-37368D02*
X23799Y-38398D01*
X23800Y-37368D02*
X23799Y-37368D01*
X23800Y-37100D02*
X23800Y-37368D01*
X26799Y-37368D02*
X26799Y-38398D01*
X26800Y-37368D02*
X26799Y-37368D01*
X26800Y-37100D02*
X26800Y-37368D01*
X24799Y-37368D02*
X24799Y-38398D01*
X24800Y-37368D02*
X24799Y-37368D01*
X24800Y-37100D02*
X24800Y-37368D01*
X27799Y-40432D02*
X27799Y-39398D01*
X27800Y-40432D02*
X27799Y-40432D01*
X27800Y-40700D02*
X27800Y-40432D01*
X29799Y-40432D02*
X29799Y-39398D01*
X29800Y-40432D02*
X29799Y-40432D01*
X29800Y-40700D02*
X29800Y-40432D01*
X29799Y-37368D02*
X29799Y-38398D01*
X29800Y-37368D02*
X29799Y-37368D01*
X29800Y-37100D02*
X29800Y-37368D01*
X28799Y-27832D02*
X28799Y-26799D01*
X28800Y-27832D02*
X28799Y-27832D01*
X28800Y-28100D02*
X28800Y-27832D01*
X20744Y-36343D02*
X22799Y-38398D01*
X20744Y-24630D02*
X20744Y-36343D01*
X21574Y-23800D02*
X20744Y-24630D01*
X24799Y-29158D02*
X24799Y-26799D01*
X24343Y-29614D02*
X24799Y-29158D01*
X24343Y-38942D02*
X24343Y-29614D01*
X24799Y-39398D02*
X24343Y-38942D01*
X23800Y-23900D02*
X23800Y-24168D01*
X22131Y-25800D02*
X21574Y-25800D01*
X22131Y-25243D02*
X22131Y-25800D01*
X23206Y-24168D02*
X22131Y-25243D01*
X23800Y-24168D02*
X23206Y-24168D01*
X23800Y-29768D02*
X23800Y-36500D01*
X24186Y-29382D02*
X23800Y-29768D01*
X24186Y-28452D02*
X24186Y-29382D01*
X24147Y-28413D02*
X24186Y-28452D01*
X23112Y-28413D02*
X24147Y-28413D01*
X22131Y-27432D02*
X23112Y-28413D01*
X22131Y-25800D02*
X22131Y-27432D01*
X29800Y-23900D02*
X29800Y-23632D01*
X30191Y-23632D02*
X30897Y-22926D01*
X29800Y-23632D02*
X30191Y-23632D01*
X30897Y-22926D02*
X31023Y-22800D01*
X29800Y-36500D02*
X29800Y-36232D01*
X32277Y-24306D02*
X30897Y-22926D01*
X32277Y-33755D02*
X32277Y-24306D01*
X29800Y-36232D02*
X32277Y-33755D01*
X29800Y-28700D02*
X29800Y-28432D01*
X29800Y-41300D02*
X29800Y-41032D01*
X31445Y-25344D02*
X30252Y-25344D01*
X32002Y-25901D02*
X31445Y-25344D01*
X32002Y-32690D02*
X32002Y-25901D01*
X29345Y-35347D02*
X32002Y-32690D01*
X29345Y-40845D02*
X29345Y-35347D01*
X29532Y-41032D02*
X29345Y-40845D01*
X29800Y-41032D02*
X29532Y-41032D01*
X30252Y-24571D02*
X30252Y-25344D01*
X31023Y-23800D02*
X30252Y-24571D01*
X30068Y-28432D02*
X29800Y-28432D01*
X30252Y-28248D02*
X30068Y-28432D01*
X30252Y-25344D02*
X30252Y-28248D01*
X27800Y-28700D02*
X27800Y-28968D01*
X28188Y-35263D02*
X28188Y-29356D01*
X27299Y-36152D02*
X28188Y-35263D01*
X27299Y-40799D02*
X27299Y-36152D01*
X27532Y-41032D02*
X27299Y-40799D01*
X27800Y-41032D02*
X27532Y-41032D01*
X27800Y-28968D02*
X28188Y-29356D01*
X31544Y-28321D02*
X31023Y-27800D01*
X31544Y-29223D02*
X31544Y-28321D01*
X31411Y-29356D02*
X31544Y-29223D01*
X28188Y-29356D02*
X31411Y-29356D01*
X27800Y-41300D02*
X27800Y-41032D01*
X26800Y-23900D02*
X26800Y-24168D01*
X26800Y-36500D02*
X26800Y-36232D01*
X27299Y-24399D02*
X27299Y-28400D01*
X27068Y-24168D02*
X27299Y-24399D01*
X26800Y-24168D02*
X27068Y-24168D01*
X27299Y-35733D02*
X26800Y-36232D01*
X27299Y-28400D02*
X27299Y-35733D01*
X28147Y-28400D02*
X27299Y-28400D01*
X28411Y-28664D02*
X28147Y-28400D01*
X28411Y-28947D02*
X28411Y-28664D01*
X28637Y-29173D02*
X28411Y-28947D01*
X30650Y-29173D02*
X28637Y-29173D01*
X31023Y-28800D02*
X30650Y-29173D01*
X23800Y-41300D02*
X23800Y-41032D01*
X22462Y-28256D02*
X23353Y-29147D01*
X21174Y-28256D02*
X22462Y-28256D01*
X20928Y-28010D02*
X21174Y-28256D01*
X20928Y-25446D02*
X20928Y-28010D01*
X21574Y-24800D02*
X20928Y-25446D01*
X23532Y-28968D02*
X23353Y-29147D01*
X23800Y-28968D02*
X23532Y-28968D01*
X23532Y-41032D02*
X23800Y-41032D01*
X23353Y-40853D02*
X23532Y-41032D01*
X23353Y-29147D02*
X23353Y-40853D01*
X23800Y-28700D02*
X23800Y-28968D01*
X28800Y-28700D02*
X28800Y-28968D01*
X30467Y-28671D02*
X30467Y-27318D01*
X30170Y-28968D02*
X30467Y-28671D01*
X28800Y-28968D02*
X30170Y-28968D01*
X30467Y-26356D02*
X31023Y-25800D01*
X30467Y-27318D02*
X30467Y-26356D01*
X28532Y-41032D02*
X28800Y-41032D01*
X28343Y-40843D02*
X28532Y-41032D01*
X28343Y-35369D02*
X28343Y-40843D01*
X31728Y-31984D02*
X28343Y-35369D01*
X31728Y-27583D02*
X31728Y-31984D01*
X31463Y-27318D02*
X31728Y-27583D01*
X30467Y-27318D02*
X31463Y-27318D01*
X28800Y-41300D02*
X28800Y-41032D01*
X21112Y-27338D02*
X21574Y-27800D01*
X21112Y-25523D02*
X21112Y-27338D01*
X21335Y-25300D02*
X21112Y-25523D01*
X21809Y-25300D02*
X21335Y-25300D01*
X23477Y-23632D02*
X21809Y-25300D01*
X24800Y-23632D02*
X23477Y-23632D01*
X24800Y-23900D02*
X24800Y-23632D01*
X25068Y-24168D02*
X24800Y-24168D01*
X25255Y-24355D02*
X25068Y-24168D01*
X25255Y-35777D02*
X25255Y-24355D01*
X24800Y-36232D02*
X25255Y-35777D01*
X24800Y-36500D02*
X24800Y-36232D01*
X24800Y-23900D02*
X24800Y-24168D01*
M02*
