G04 (created by PCBNEW-RS274X (2011-aug-04)-testing) date Wed 17 Apr 2013 04:19:54 PM PDT*
G01*
G70*
G90*
%MOIN*%
G04 Gerber Fmt 3.4, Leading zero omitted, Abs format*
%FSLAX34Y34*%
G04 APERTURE LIST*
%ADD10C,0.006000*%
%ADD11R,0.060000X0.060000*%
%ADD12C,0.060000*%
%ADD13C,0.008000*%
G04 APERTURE END LIST*
G54D10*
G54D11*
X22799Y-39398D03*
G54D12*
X22799Y-38398D03*
X23799Y-39398D03*
X23799Y-38398D03*
X24799Y-39398D03*
X24799Y-38398D03*
X25799Y-39398D03*
X25799Y-38398D03*
X26799Y-39398D03*
X26799Y-38398D03*
X27799Y-39398D03*
X27799Y-38398D03*
X28799Y-39398D03*
X28799Y-38398D03*
X29799Y-39398D03*
X29799Y-38398D03*
G54D11*
X22799Y-26799D03*
G54D12*
X22799Y-25799D03*
X23799Y-26799D03*
X23799Y-25799D03*
X24799Y-26799D03*
X24799Y-25799D03*
X25799Y-26799D03*
X25799Y-25799D03*
X26799Y-26799D03*
X26799Y-25799D03*
X27799Y-26799D03*
X27799Y-25799D03*
X28799Y-26799D03*
X28799Y-25799D03*
X29799Y-26799D03*
X29799Y-25799D03*
X31023Y-29800D03*
X31023Y-28800D03*
X31023Y-27800D03*
X31023Y-26800D03*
X31023Y-25800D03*
X31023Y-24800D03*
X31023Y-23800D03*
X31023Y-22800D03*
G54D11*
X21574Y-22800D03*
G54D12*
X21574Y-23800D03*
X21574Y-24800D03*
X21574Y-25800D03*
X21574Y-26800D03*
X21574Y-27800D03*
X21574Y-28800D03*
X21574Y-29800D03*
G54D13*
X31023Y-29800D02*
X27299Y-29800D01*
X27299Y-27299D02*
X27299Y-29800D01*
X26799Y-26799D02*
X27299Y-27299D01*
X27299Y-38898D02*
X26799Y-39398D01*
X27299Y-29800D02*
X27299Y-38898D01*
X29798Y-24800D02*
X31023Y-24800D01*
X28799Y-25799D02*
X29798Y-24800D01*
X32109Y-35088D02*
X28799Y-38398D01*
X32109Y-25886D02*
X32109Y-35088D01*
X31023Y-24800D02*
X32109Y-25886D01*
X25799Y-32099D02*
X25799Y-38398D01*
X23500Y-29800D02*
X25799Y-32099D01*
X21574Y-29800D02*
X23500Y-29800D01*
X26299Y-26299D02*
X25799Y-25799D01*
X26299Y-27001D02*
X26299Y-26299D01*
X23500Y-29800D02*
X26299Y-27001D01*
X30522Y-26299D02*
X31023Y-26800D01*
X28299Y-26299D02*
X30522Y-26299D01*
X27799Y-25799D02*
X28299Y-26299D01*
X31548Y-34649D02*
X27799Y-38398D01*
X31548Y-27325D02*
X31548Y-34649D01*
X31023Y-26800D02*
X31548Y-27325D01*
X22799Y-26799D02*
X22799Y-26577D01*
X22799Y-39398D02*
X22799Y-38955D01*
X21574Y-22800D02*
X21574Y-23243D01*
X21131Y-23265D02*
X21131Y-26344D01*
X21153Y-23243D02*
X21131Y-23265D01*
X21574Y-23243D02*
X21153Y-23243D01*
X22566Y-26344D02*
X21131Y-26344D01*
X22799Y-26577D02*
X22566Y-26344D01*
X22356Y-38955D02*
X22799Y-38955D01*
X20802Y-37401D02*
X22356Y-38955D01*
X20802Y-26673D02*
X20802Y-37401D01*
X21131Y-26344D02*
X20802Y-26673D01*
X23798Y-28800D02*
X21574Y-28800D01*
X25799Y-26799D02*
X23798Y-28800D01*
X25299Y-38898D02*
X25799Y-39398D01*
X25299Y-37404D02*
X25299Y-38898D01*
X20992Y-33097D02*
X25299Y-37404D01*
X20992Y-29382D02*
X20992Y-33097D01*
X21574Y-28800D02*
X20992Y-29382D01*
X22799Y-25025D02*
X22799Y-25799D01*
X21574Y-23800D02*
X22799Y-25025D01*
X24134Y-27464D02*
X24799Y-26799D01*
X22238Y-27464D02*
X24134Y-27464D01*
X21574Y-26800D02*
X22238Y-27464D01*
M02*
