G04 (created by PCBNEW-RS274X (2011-aug-04)-testing) date Wed 17 Apr 2013 04:19:54 PM PDT*
G01*
G70*
G90*
%MOIN*%
G04 Gerber Fmt 3.4, Leading zero omitted, Abs format*
%FSLAX34Y34*%
G04 APERTURE LIST*
%ADD10C,0.006000*%
%ADD11C,0.005000*%
%ADD12C,0.008000*%
%ADD13C,0.004500*%
G04 APERTURE END LIST*
G54D10*
G54D11*
X29050Y-40550D02*
X29050Y-41450D01*
X29050Y-41450D02*
X28550Y-41450D01*
X28550Y-41450D02*
X28550Y-40550D01*
X28550Y-40550D02*
X29050Y-40550D01*
X29050Y-27950D02*
X29050Y-28850D01*
X29050Y-28850D02*
X28550Y-28850D01*
X28550Y-28850D02*
X28550Y-27950D01*
X28550Y-27950D02*
X29050Y-27950D01*
X24050Y-40550D02*
X24050Y-41450D01*
X24050Y-41450D02*
X23550Y-41450D01*
X23550Y-41450D02*
X23550Y-40550D01*
X23550Y-40550D02*
X24050Y-40550D01*
X24050Y-27950D02*
X24050Y-28850D01*
X24050Y-28850D02*
X23550Y-28850D01*
X23550Y-28850D02*
X23550Y-27950D01*
X23550Y-27950D02*
X24050Y-27950D01*
X23550Y-37250D02*
X23550Y-36350D01*
X23550Y-36350D02*
X24050Y-36350D01*
X24050Y-36350D02*
X24050Y-37250D01*
X24050Y-37250D02*
X23550Y-37250D01*
X23550Y-24650D02*
X23550Y-23750D01*
X23550Y-23750D02*
X24050Y-23750D01*
X24050Y-23750D02*
X24050Y-24650D01*
X24050Y-24650D02*
X23550Y-24650D01*
X26550Y-37250D02*
X26550Y-36350D01*
X26550Y-36350D02*
X27050Y-36350D01*
X27050Y-36350D02*
X27050Y-37250D01*
X27050Y-37250D02*
X26550Y-37250D01*
X26550Y-24650D02*
X26550Y-23750D01*
X26550Y-23750D02*
X27050Y-23750D01*
X27050Y-23750D02*
X27050Y-24650D01*
X27050Y-24650D02*
X26550Y-24650D01*
X24550Y-37250D02*
X24550Y-36350D01*
X24550Y-36350D02*
X25050Y-36350D01*
X25050Y-36350D02*
X25050Y-37250D01*
X25050Y-37250D02*
X24550Y-37250D01*
X24550Y-24650D02*
X24550Y-23750D01*
X24550Y-23750D02*
X25050Y-23750D01*
X25050Y-23750D02*
X25050Y-24650D01*
X25050Y-24650D02*
X24550Y-24650D01*
X28050Y-40550D02*
X28050Y-41450D01*
X28050Y-41450D02*
X27550Y-41450D01*
X27550Y-41450D02*
X27550Y-40550D01*
X27550Y-40550D02*
X28050Y-40550D01*
X28050Y-27950D02*
X28050Y-28850D01*
X28050Y-28850D02*
X27550Y-28850D01*
X27550Y-28850D02*
X27550Y-27950D01*
X27550Y-27950D02*
X28050Y-27950D01*
X30050Y-40550D02*
X30050Y-41450D01*
X30050Y-41450D02*
X29550Y-41450D01*
X29550Y-41450D02*
X29550Y-40550D01*
X29550Y-40550D02*
X30050Y-40550D01*
X30050Y-27950D02*
X30050Y-28850D01*
X30050Y-28850D02*
X29550Y-28850D01*
X29550Y-28850D02*
X29550Y-27950D01*
X29550Y-27950D02*
X30050Y-27950D01*
X29550Y-37250D02*
X29550Y-36350D01*
X29550Y-36350D02*
X30050Y-36350D01*
X30050Y-36350D02*
X30050Y-37250D01*
X30050Y-37250D02*
X29550Y-37250D01*
X29550Y-24650D02*
X29550Y-23750D01*
X29550Y-23750D02*
X30050Y-23750D01*
X30050Y-23750D02*
X30050Y-24650D01*
X30050Y-24650D02*
X29550Y-24650D01*
G54D12*
X25904Y-37760D02*
X25904Y-37360D01*
X26057Y-37360D01*
X26095Y-37379D01*
X26114Y-37398D01*
X26133Y-37436D01*
X26133Y-37493D01*
X26114Y-37531D01*
X26095Y-37550D01*
X26057Y-37569D01*
X25904Y-37569D01*
X26514Y-37760D02*
X26285Y-37760D01*
X26399Y-37760D02*
X26399Y-37360D01*
X26361Y-37417D01*
X26323Y-37455D01*
X26285Y-37474D01*
X25071Y-40322D02*
X25052Y-40341D01*
X24995Y-40360D01*
X24957Y-40360D01*
X24899Y-40341D01*
X24861Y-40303D01*
X24842Y-40265D01*
X24823Y-40188D01*
X24823Y-40131D01*
X24842Y-40055D01*
X24861Y-40017D01*
X24899Y-39979D01*
X24957Y-39960D01*
X24995Y-39960D01*
X25052Y-39979D01*
X25071Y-39998D01*
X25318Y-39960D02*
X25395Y-39960D01*
X25433Y-39979D01*
X25471Y-40017D01*
X25490Y-40093D01*
X25490Y-40227D01*
X25471Y-40303D01*
X25433Y-40341D01*
X25395Y-40360D01*
X25318Y-40360D01*
X25280Y-40341D01*
X25242Y-40303D01*
X25223Y-40227D01*
X25223Y-40093D01*
X25242Y-40017D01*
X25280Y-39979D01*
X25318Y-39960D01*
X25661Y-40360D02*
X25661Y-39960D01*
X25890Y-40360D01*
X25890Y-39960D01*
X26080Y-40360D02*
X26080Y-39960D01*
X26309Y-40360D01*
X26309Y-39960D01*
X26404Y-40398D02*
X26709Y-40398D01*
X26861Y-40131D02*
X26823Y-40112D01*
X26804Y-40093D01*
X26785Y-40055D01*
X26785Y-40036D01*
X26804Y-39998D01*
X26823Y-39979D01*
X26861Y-39960D01*
X26938Y-39960D01*
X26976Y-39979D01*
X26995Y-39998D01*
X27014Y-40036D01*
X27014Y-40055D01*
X26995Y-40093D01*
X26976Y-40112D01*
X26938Y-40131D01*
X26861Y-40131D01*
X26823Y-40150D01*
X26804Y-40169D01*
X26785Y-40208D01*
X26785Y-40284D01*
X26804Y-40322D01*
X26823Y-40341D01*
X26861Y-40360D01*
X26938Y-40360D01*
X26976Y-40341D01*
X26995Y-40322D01*
X27014Y-40284D01*
X27014Y-40208D01*
X26995Y-40169D01*
X26976Y-40150D01*
X26938Y-40131D01*
X27147Y-39960D02*
X27414Y-40360D01*
X27414Y-39960D02*
X27147Y-40360D01*
X27547Y-39998D02*
X27566Y-39979D01*
X27604Y-39960D01*
X27700Y-39960D01*
X27738Y-39979D01*
X27757Y-39998D01*
X27776Y-40036D01*
X27776Y-40074D01*
X27757Y-40131D01*
X27528Y-40360D01*
X27776Y-40360D01*
X25985Y-25232D02*
X25985Y-24832D01*
X26138Y-24832D01*
X26176Y-24851D01*
X26195Y-24870D01*
X26214Y-24908D01*
X26214Y-24965D01*
X26195Y-25003D01*
X26176Y-25022D01*
X26138Y-25041D01*
X25985Y-25041D01*
X26366Y-24870D02*
X26385Y-24851D01*
X26423Y-24832D01*
X26519Y-24832D01*
X26557Y-24851D01*
X26576Y-24870D01*
X26595Y-24908D01*
X26595Y-24946D01*
X26576Y-25003D01*
X26347Y-25232D01*
X26595Y-25232D01*
X23939Y-22962D02*
X23748Y-22962D01*
X23748Y-22562D01*
X24072Y-22752D02*
X24206Y-22752D01*
X24263Y-22962D02*
X24072Y-22962D01*
X24072Y-22562D01*
X24263Y-22562D01*
X24434Y-22962D02*
X24434Y-22562D01*
X24529Y-22562D01*
X24587Y-22581D01*
X24625Y-22619D01*
X24644Y-22657D01*
X24663Y-22733D01*
X24663Y-22790D01*
X24644Y-22867D01*
X24625Y-22905D01*
X24587Y-22943D01*
X24529Y-22962D01*
X24434Y-22962D01*
X24834Y-22810D02*
X25139Y-22810D01*
X25329Y-22962D02*
X25329Y-22562D01*
X25463Y-22848D01*
X25596Y-22562D01*
X25596Y-22962D01*
X25767Y-22848D02*
X25958Y-22848D01*
X25729Y-22962D02*
X25862Y-22562D01*
X25996Y-22962D01*
X26072Y-22562D02*
X26301Y-22562D01*
X26186Y-22962D02*
X26186Y-22562D01*
X26663Y-22962D02*
X26529Y-22771D01*
X26434Y-22962D02*
X26434Y-22562D01*
X26587Y-22562D01*
X26625Y-22581D01*
X26644Y-22600D01*
X26663Y-22638D01*
X26663Y-22695D01*
X26644Y-22733D01*
X26625Y-22752D01*
X26587Y-22771D01*
X26434Y-22771D01*
X26834Y-22962D02*
X26834Y-22562D01*
X26986Y-22562D02*
X27253Y-22962D01*
X27253Y-22562D02*
X26986Y-22962D01*
X27405Y-22810D02*
X27710Y-22810D01*
X27957Y-22733D02*
X27919Y-22714D01*
X27900Y-22695D01*
X27881Y-22657D01*
X27881Y-22638D01*
X27900Y-22600D01*
X27919Y-22581D01*
X27957Y-22562D01*
X28034Y-22562D01*
X28072Y-22581D01*
X28091Y-22600D01*
X28110Y-22638D01*
X28110Y-22657D01*
X28091Y-22695D01*
X28072Y-22714D01*
X28034Y-22733D01*
X27957Y-22733D01*
X27919Y-22752D01*
X27900Y-22771D01*
X27881Y-22810D01*
X27881Y-22886D01*
X27900Y-22924D01*
X27919Y-22943D01*
X27957Y-22962D01*
X28034Y-22962D01*
X28072Y-22943D01*
X28091Y-22924D01*
X28110Y-22886D01*
X28110Y-22810D01*
X28091Y-22771D01*
X28072Y-22752D01*
X28034Y-22733D01*
X28243Y-22562D02*
X28510Y-22962D01*
X28510Y-22562D02*
X28243Y-22962D01*
X28719Y-22733D02*
X28681Y-22714D01*
X28662Y-22695D01*
X28643Y-22657D01*
X28643Y-22638D01*
X28662Y-22600D01*
X28681Y-22581D01*
X28719Y-22562D01*
X28796Y-22562D01*
X28834Y-22581D01*
X28853Y-22600D01*
X28872Y-22638D01*
X28872Y-22657D01*
X28853Y-22695D01*
X28834Y-22714D01*
X28796Y-22733D01*
X28719Y-22733D01*
X28681Y-22752D01*
X28662Y-22771D01*
X28643Y-22810D01*
X28643Y-22886D01*
X28662Y-22924D01*
X28681Y-22943D01*
X28719Y-22962D01*
X28796Y-22962D01*
X28834Y-22943D01*
X28853Y-22924D01*
X28872Y-22886D01*
X28872Y-22810D01*
X28853Y-22771D01*
X28834Y-22752D01*
X28796Y-22733D01*
G54D13*
X28913Y-41132D02*
X28633Y-41132D01*
X28633Y-41089D01*
X28647Y-41064D01*
X28673Y-41046D01*
X28700Y-41038D01*
X28753Y-41029D01*
X28793Y-41029D01*
X28847Y-41038D01*
X28873Y-41046D01*
X28900Y-41064D01*
X28913Y-41089D01*
X28913Y-41132D01*
X28913Y-40858D02*
X28913Y-40961D01*
X28913Y-40909D02*
X28633Y-40909D01*
X28673Y-40926D01*
X28700Y-40944D01*
X28713Y-40961D01*
X28913Y-28532D02*
X28633Y-28532D01*
X28633Y-28489D01*
X28647Y-28464D01*
X28673Y-28446D01*
X28700Y-28438D01*
X28753Y-28429D01*
X28793Y-28429D01*
X28847Y-28438D01*
X28873Y-28446D01*
X28900Y-28464D01*
X28913Y-28489D01*
X28913Y-28532D01*
X28660Y-28361D02*
X28647Y-28352D01*
X28633Y-28335D01*
X28633Y-28292D01*
X28647Y-28275D01*
X28660Y-28266D01*
X28687Y-28258D01*
X28713Y-28258D01*
X28753Y-28266D01*
X28913Y-28369D01*
X28913Y-28258D01*
X23913Y-41132D02*
X23633Y-41132D01*
X23633Y-41089D01*
X23647Y-41064D01*
X23673Y-41046D01*
X23700Y-41038D01*
X23753Y-41029D01*
X23793Y-41029D01*
X23847Y-41038D01*
X23873Y-41046D01*
X23900Y-41064D01*
X23913Y-41089D01*
X23913Y-41132D01*
X23633Y-40969D02*
X23633Y-40858D01*
X23740Y-40918D01*
X23740Y-40892D01*
X23753Y-40875D01*
X23767Y-40866D01*
X23793Y-40858D01*
X23860Y-40858D01*
X23887Y-40866D01*
X23900Y-40875D01*
X23913Y-40892D01*
X23913Y-40944D01*
X23900Y-40961D01*
X23887Y-40969D01*
X23913Y-28532D02*
X23633Y-28532D01*
X23633Y-28489D01*
X23647Y-28464D01*
X23673Y-28446D01*
X23700Y-28438D01*
X23753Y-28429D01*
X23793Y-28429D01*
X23847Y-28438D01*
X23873Y-28446D01*
X23900Y-28464D01*
X23913Y-28489D01*
X23913Y-28532D01*
X23727Y-28275D02*
X23913Y-28275D01*
X23620Y-28318D02*
X23820Y-28361D01*
X23820Y-28249D01*
X23913Y-36932D02*
X23633Y-36932D01*
X23633Y-36889D01*
X23647Y-36864D01*
X23673Y-36846D01*
X23700Y-36838D01*
X23753Y-36829D01*
X23793Y-36829D01*
X23847Y-36838D01*
X23873Y-36846D01*
X23900Y-36864D01*
X23913Y-36889D01*
X23913Y-36932D01*
X23633Y-36666D02*
X23633Y-36752D01*
X23767Y-36761D01*
X23753Y-36752D01*
X23740Y-36735D01*
X23740Y-36692D01*
X23753Y-36675D01*
X23767Y-36666D01*
X23793Y-36658D01*
X23860Y-36658D01*
X23887Y-36666D01*
X23900Y-36675D01*
X23913Y-36692D01*
X23913Y-36735D01*
X23900Y-36752D01*
X23887Y-36761D01*
X23913Y-24332D02*
X23633Y-24332D01*
X23633Y-24289D01*
X23647Y-24264D01*
X23673Y-24246D01*
X23700Y-24238D01*
X23753Y-24229D01*
X23793Y-24229D01*
X23847Y-24238D01*
X23873Y-24246D01*
X23900Y-24264D01*
X23913Y-24289D01*
X23913Y-24332D01*
X23633Y-24075D02*
X23633Y-24109D01*
X23647Y-24126D01*
X23660Y-24135D01*
X23700Y-24152D01*
X23753Y-24161D01*
X23860Y-24161D01*
X23887Y-24152D01*
X23900Y-24144D01*
X23913Y-24126D01*
X23913Y-24092D01*
X23900Y-24075D01*
X23887Y-24066D01*
X23860Y-24058D01*
X23793Y-24058D01*
X23767Y-24066D01*
X23753Y-24075D01*
X23740Y-24092D01*
X23740Y-24126D01*
X23753Y-24144D01*
X23767Y-24152D01*
X23793Y-24161D01*
X26913Y-36932D02*
X26633Y-36932D01*
X26633Y-36889D01*
X26647Y-36864D01*
X26673Y-36846D01*
X26700Y-36838D01*
X26753Y-36829D01*
X26793Y-36829D01*
X26847Y-36838D01*
X26873Y-36846D01*
X26900Y-36864D01*
X26913Y-36889D01*
X26913Y-36932D01*
X26633Y-36769D02*
X26633Y-36649D01*
X26913Y-36726D01*
X26913Y-24332D02*
X26633Y-24332D01*
X26633Y-24289D01*
X26647Y-24264D01*
X26673Y-24246D01*
X26700Y-24238D01*
X26753Y-24229D01*
X26793Y-24229D01*
X26847Y-24238D01*
X26873Y-24246D01*
X26900Y-24264D01*
X26913Y-24289D01*
X26913Y-24332D01*
X26753Y-24126D02*
X26740Y-24144D01*
X26727Y-24152D01*
X26700Y-24161D01*
X26687Y-24161D01*
X26660Y-24152D01*
X26647Y-24144D01*
X26633Y-24126D01*
X26633Y-24092D01*
X26647Y-24075D01*
X26660Y-24066D01*
X26687Y-24058D01*
X26700Y-24058D01*
X26727Y-24066D01*
X26740Y-24075D01*
X26753Y-24092D01*
X26753Y-24126D01*
X26767Y-24144D01*
X26780Y-24152D01*
X26807Y-24161D01*
X26860Y-24161D01*
X26887Y-24152D01*
X26900Y-24144D01*
X26913Y-24126D01*
X26913Y-24092D01*
X26900Y-24075D01*
X26887Y-24066D01*
X26860Y-24058D01*
X26807Y-24058D01*
X26780Y-24066D01*
X26767Y-24075D01*
X26753Y-24092D01*
X24913Y-36932D02*
X24633Y-36932D01*
X24633Y-36889D01*
X24647Y-36864D01*
X24673Y-36846D01*
X24700Y-36838D01*
X24753Y-36829D01*
X24793Y-36829D01*
X24847Y-36838D01*
X24873Y-36846D01*
X24900Y-36864D01*
X24913Y-36889D01*
X24913Y-36932D01*
X24913Y-36744D02*
X24913Y-36709D01*
X24900Y-36692D01*
X24887Y-36684D01*
X24847Y-36666D01*
X24793Y-36658D01*
X24687Y-36658D01*
X24660Y-36666D01*
X24647Y-36675D01*
X24633Y-36692D01*
X24633Y-36726D01*
X24647Y-36744D01*
X24660Y-36752D01*
X24687Y-36761D01*
X24753Y-36761D01*
X24780Y-36752D01*
X24793Y-36744D01*
X24807Y-36726D01*
X24807Y-36692D01*
X24793Y-36675D01*
X24780Y-36666D01*
X24753Y-36658D01*
X24913Y-24418D02*
X24633Y-24418D01*
X24633Y-24375D01*
X24647Y-24350D01*
X24673Y-24332D01*
X24700Y-24324D01*
X24753Y-24315D01*
X24793Y-24315D01*
X24847Y-24324D01*
X24873Y-24332D01*
X24900Y-24350D01*
X24913Y-24375D01*
X24913Y-24418D01*
X24913Y-24144D02*
X24913Y-24247D01*
X24913Y-24195D02*
X24633Y-24195D01*
X24673Y-24212D01*
X24700Y-24230D01*
X24713Y-24247D01*
X24633Y-24033D02*
X24633Y-24016D01*
X24647Y-23999D01*
X24660Y-23990D01*
X24687Y-23981D01*
X24740Y-23973D01*
X24807Y-23973D01*
X24860Y-23981D01*
X24887Y-23990D01*
X24900Y-23999D01*
X24913Y-24016D01*
X24913Y-24033D01*
X24900Y-24050D01*
X24887Y-24059D01*
X24860Y-24067D01*
X24807Y-24076D01*
X24740Y-24076D01*
X24687Y-24067D01*
X24660Y-24059D01*
X24647Y-24050D01*
X24633Y-24033D01*
X27913Y-41218D02*
X27633Y-41218D01*
X27633Y-41175D01*
X27647Y-41150D01*
X27673Y-41132D01*
X27700Y-41124D01*
X27753Y-41115D01*
X27793Y-41115D01*
X27847Y-41124D01*
X27873Y-41132D01*
X27900Y-41150D01*
X27913Y-41175D01*
X27913Y-41218D01*
X27913Y-40944D02*
X27913Y-41047D01*
X27913Y-40995D02*
X27633Y-40995D01*
X27673Y-41012D01*
X27700Y-41030D01*
X27713Y-41047D01*
X27913Y-40773D02*
X27913Y-40876D01*
X27913Y-40824D02*
X27633Y-40824D01*
X27673Y-40841D01*
X27700Y-40859D01*
X27713Y-40876D01*
X27913Y-28618D02*
X27633Y-28618D01*
X27633Y-28575D01*
X27647Y-28550D01*
X27673Y-28532D01*
X27700Y-28524D01*
X27753Y-28515D01*
X27793Y-28515D01*
X27847Y-28524D01*
X27873Y-28532D01*
X27900Y-28550D01*
X27913Y-28575D01*
X27913Y-28618D01*
X27913Y-28344D02*
X27913Y-28447D01*
X27913Y-28395D02*
X27633Y-28395D01*
X27673Y-28412D01*
X27700Y-28430D01*
X27713Y-28447D01*
X27660Y-28276D02*
X27647Y-28267D01*
X27633Y-28250D01*
X27633Y-28207D01*
X27647Y-28190D01*
X27660Y-28181D01*
X27687Y-28173D01*
X27713Y-28173D01*
X27753Y-28181D01*
X27913Y-28284D01*
X27913Y-28173D01*
X29913Y-41218D02*
X29633Y-41218D01*
X29633Y-41175D01*
X29647Y-41150D01*
X29673Y-41132D01*
X29700Y-41124D01*
X29753Y-41115D01*
X29793Y-41115D01*
X29847Y-41124D01*
X29873Y-41132D01*
X29900Y-41150D01*
X29913Y-41175D01*
X29913Y-41218D01*
X29913Y-40944D02*
X29913Y-41047D01*
X29913Y-40995D02*
X29633Y-40995D01*
X29673Y-41012D01*
X29700Y-41030D01*
X29713Y-41047D01*
X29633Y-40884D02*
X29633Y-40773D01*
X29740Y-40833D01*
X29740Y-40807D01*
X29753Y-40790D01*
X29767Y-40781D01*
X29793Y-40773D01*
X29860Y-40773D01*
X29887Y-40781D01*
X29900Y-40790D01*
X29913Y-40807D01*
X29913Y-40859D01*
X29900Y-40876D01*
X29887Y-40884D01*
X29913Y-28618D02*
X29633Y-28618D01*
X29633Y-28575D01*
X29647Y-28550D01*
X29673Y-28532D01*
X29700Y-28524D01*
X29753Y-28515D01*
X29793Y-28515D01*
X29847Y-28524D01*
X29873Y-28532D01*
X29900Y-28550D01*
X29913Y-28575D01*
X29913Y-28618D01*
X29913Y-28344D02*
X29913Y-28447D01*
X29913Y-28395D02*
X29633Y-28395D01*
X29673Y-28412D01*
X29700Y-28430D01*
X29713Y-28447D01*
X29727Y-28190D02*
X29913Y-28190D01*
X29620Y-28233D02*
X29820Y-28276D01*
X29820Y-28164D01*
X29913Y-37018D02*
X29633Y-37018D01*
X29633Y-36975D01*
X29647Y-36950D01*
X29673Y-36932D01*
X29700Y-36924D01*
X29753Y-36915D01*
X29793Y-36915D01*
X29847Y-36924D01*
X29873Y-36932D01*
X29900Y-36950D01*
X29913Y-36975D01*
X29913Y-37018D01*
X29913Y-36744D02*
X29913Y-36847D01*
X29913Y-36795D02*
X29633Y-36795D01*
X29673Y-36812D01*
X29700Y-36830D01*
X29713Y-36847D01*
X29633Y-36581D02*
X29633Y-36667D01*
X29767Y-36676D01*
X29753Y-36667D01*
X29740Y-36650D01*
X29740Y-36607D01*
X29753Y-36590D01*
X29767Y-36581D01*
X29793Y-36573D01*
X29860Y-36573D01*
X29887Y-36581D01*
X29900Y-36590D01*
X29913Y-36607D01*
X29913Y-36650D01*
X29900Y-36667D01*
X29887Y-36676D01*
X29913Y-24418D02*
X29633Y-24418D01*
X29633Y-24375D01*
X29647Y-24350D01*
X29673Y-24332D01*
X29700Y-24324D01*
X29753Y-24315D01*
X29793Y-24315D01*
X29847Y-24324D01*
X29873Y-24332D01*
X29900Y-24350D01*
X29913Y-24375D01*
X29913Y-24418D01*
X29913Y-24144D02*
X29913Y-24247D01*
X29913Y-24195D02*
X29633Y-24195D01*
X29673Y-24212D01*
X29700Y-24230D01*
X29713Y-24247D01*
X29633Y-23990D02*
X29633Y-24024D01*
X29647Y-24041D01*
X29660Y-24050D01*
X29700Y-24067D01*
X29753Y-24076D01*
X29860Y-24076D01*
X29887Y-24067D01*
X29900Y-24059D01*
X29913Y-24041D01*
X29913Y-24007D01*
X29900Y-23990D01*
X29887Y-23981D01*
X29860Y-23973D01*
X29793Y-23973D01*
X29767Y-23981D01*
X29753Y-23990D01*
X29740Y-24007D01*
X29740Y-24041D01*
X29753Y-24059D01*
X29767Y-24067D01*
X29793Y-24076D01*
M02*
