G04 (created by PCBNEW (2013-mar-13)-testing) date Mon 26 Aug 2013 07:22:46 AM PDT*
%MOIN*%
G04 Gerber Fmt 3.4, Leading zero omitted, Abs format*
%FSLAX34Y34*%
G01*
G70*
G90*
G04 APERTURE LIST*
%ADD10C,0.005906*%
%ADD11C,0.015000*%
%ADD12C,0.004700*%
%ADD13C,0.005000*%
%ADD14C,0.006000*%
%ADD15C,0.008000*%
%ADD16C,0.004500*%
G04 APERTURE END LIST*
G54D10*
G54D11*
X35059Y-35425D02*
X35059Y-32925D01*
X33609Y-35425D02*
X35059Y-35425D01*
X33609Y-32925D02*
X35009Y-32925D01*
X35009Y-32925D02*
X35059Y-32925D01*
X21559Y-32925D02*
X20059Y-32925D01*
X20059Y-32925D02*
X20059Y-35425D01*
X20059Y-35425D02*
X22059Y-35425D01*
X21559Y-32925D02*
X33559Y-32925D01*
X21559Y-35425D02*
X33559Y-35425D01*
X33559Y-19693D02*
X35059Y-19693D01*
X35059Y-19693D02*
X35059Y-19993D01*
X21559Y-19693D02*
X20059Y-19693D01*
X20059Y-19693D02*
X20059Y-19893D01*
X21559Y-23393D02*
X20059Y-23393D01*
X20059Y-23393D02*
X20059Y-19893D01*
X33559Y-23393D02*
X35059Y-23393D01*
X35059Y-23393D02*
X35059Y-19893D01*
X33559Y-23393D02*
X21559Y-23393D01*
X21559Y-19693D02*
X33559Y-19693D01*
G54D12*
X21141Y-32539D02*
X21416Y-32539D01*
X20747Y-32539D02*
X20472Y-32539D01*
X21141Y-32027D02*
X21416Y-32027D01*
X20472Y-32027D02*
X20747Y-32027D01*
X21416Y-32033D02*
X21416Y-32533D01*
X20472Y-32533D02*
X20472Y-32033D01*
X23967Y-29506D02*
X24242Y-29506D01*
X23573Y-29506D02*
X23298Y-29506D01*
X23967Y-28994D02*
X24242Y-28994D01*
X23298Y-28994D02*
X23573Y-28994D01*
X24242Y-29000D02*
X24242Y-29500D01*
X23298Y-29500D02*
X23298Y-29000D01*
G54D13*
X26942Y-23880D02*
X26942Y-24780D01*
X26942Y-24780D02*
X26442Y-24780D01*
X26442Y-24780D02*
X26442Y-23880D01*
X26442Y-23880D02*
X26942Y-23880D01*
G54D14*
X29539Y-29239D02*
X29089Y-29239D01*
X29539Y-27059D02*
X29099Y-27059D01*
X29539Y-29239D02*
X29539Y-27059D01*
X28659Y-29709D02*
X28659Y-30139D01*
X26449Y-29719D02*
X26449Y-30139D01*
X26439Y-30139D02*
X28659Y-30149D01*
X26459Y-26169D02*
X28629Y-26159D01*
X26029Y-26859D02*
X26029Y-29689D01*
X28639Y-26169D02*
X28639Y-26579D01*
X26279Y-26619D02*
X29059Y-26619D01*
X29079Y-29699D02*
X29079Y-26659D01*
X26029Y-29699D02*
X29029Y-29699D01*
X25579Y-27029D02*
X25579Y-29249D01*
X25579Y-29249D02*
X26029Y-29249D01*
X26033Y-26849D02*
X26263Y-26619D01*
X25581Y-27029D02*
X26033Y-27029D01*
X26459Y-26619D02*
X26459Y-26167D01*
X26629Y-27023D02*
G75*
G03X26629Y-27023I-188J0D01*
G74*
G01*
G54D13*
X22795Y-32558D02*
X23073Y-32558D01*
X23073Y-32558D02*
X23073Y-32008D01*
X23073Y-32008D02*
X22795Y-32008D01*
X22123Y-32558D02*
X22401Y-32558D01*
X22123Y-32558D02*
X22123Y-32008D01*
X22123Y-32008D02*
X22401Y-32008D01*
X32323Y-29803D02*
X32323Y-30081D01*
X32323Y-30081D02*
X32873Y-30081D01*
X32873Y-30081D02*
X32873Y-29803D01*
X32323Y-29131D02*
X32323Y-29409D01*
X32323Y-29131D02*
X32873Y-29131D01*
X32873Y-29131D02*
X32873Y-29409D01*
X33425Y-29803D02*
X33425Y-30081D01*
X33425Y-30081D02*
X33975Y-30081D01*
X33975Y-30081D02*
X33975Y-29803D01*
X33425Y-29131D02*
X33425Y-29409D01*
X33425Y-29131D02*
X33975Y-29131D01*
X33975Y-29131D02*
X33975Y-29409D01*
G54D15*
X24554Y-30111D02*
X24554Y-31449D01*
X24554Y-31449D02*
X23846Y-31449D01*
X23846Y-31449D02*
X23846Y-30111D01*
X23846Y-30111D02*
X24554Y-30111D01*
X24334Y-28559D02*
X21334Y-28559D01*
X21334Y-26559D02*
X24334Y-26559D01*
X24334Y-26559D02*
X24334Y-28559D01*
X21334Y-28559D02*
X21334Y-26559D01*
X33783Y-28559D02*
X30783Y-28559D01*
X30783Y-26559D02*
X33783Y-26559D01*
X33783Y-26559D02*
X33783Y-28559D01*
X30783Y-28559D02*
X30783Y-26559D01*
X20344Y-35145D02*
X20344Y-34745D01*
X20497Y-34745D01*
X20535Y-34765D01*
X20554Y-34784D01*
X20573Y-34822D01*
X20573Y-34879D01*
X20554Y-34917D01*
X20535Y-34936D01*
X20497Y-34955D01*
X20344Y-34955D01*
X20954Y-35145D02*
X20725Y-35145D01*
X20840Y-35145D02*
X20840Y-34745D01*
X20801Y-34803D01*
X20763Y-34841D01*
X20725Y-34860D01*
X20354Y-20290D02*
X20354Y-19890D01*
X20507Y-19890D01*
X20545Y-19910D01*
X20564Y-19929D01*
X20583Y-19967D01*
X20583Y-20024D01*
X20564Y-20062D01*
X20545Y-20081D01*
X20507Y-20100D01*
X20354Y-20100D01*
X20735Y-19929D02*
X20754Y-19910D01*
X20792Y-19890D01*
X20888Y-19890D01*
X20926Y-19910D01*
X20945Y-19929D01*
X20964Y-19967D01*
X20964Y-20005D01*
X20945Y-20062D01*
X20716Y-20290D01*
X20964Y-20290D01*
G54D16*
X21016Y-32313D02*
X21025Y-32322D01*
X21035Y-32347D01*
X21035Y-32364D01*
X21025Y-32390D01*
X21006Y-32407D01*
X20987Y-32416D01*
X20949Y-32424D01*
X20921Y-32424D01*
X20882Y-32416D01*
X20863Y-32407D01*
X20844Y-32390D01*
X20835Y-32364D01*
X20835Y-32347D01*
X20844Y-32322D01*
X20854Y-32313D01*
X21035Y-32142D02*
X21035Y-32244D01*
X21035Y-32193D02*
X20835Y-32193D01*
X20863Y-32210D01*
X20882Y-32227D01*
X20892Y-32244D01*
X20185Y-32579D02*
X20185Y-32562D01*
X20194Y-32544D01*
X20204Y-32536D01*
X20223Y-32527D01*
X20261Y-32519D01*
X20309Y-32519D01*
X20347Y-32527D01*
X20366Y-32536D01*
X20375Y-32544D01*
X20385Y-32562D01*
X20385Y-32579D01*
X20375Y-32596D01*
X20366Y-32604D01*
X20347Y-32613D01*
X20309Y-32622D01*
X20261Y-32622D01*
X20223Y-32613D01*
X20204Y-32604D01*
X20194Y-32596D01*
X20185Y-32579D01*
X20366Y-32442D02*
X20375Y-32433D01*
X20385Y-32442D01*
X20375Y-32450D01*
X20366Y-32442D01*
X20385Y-32442D01*
X20385Y-32262D02*
X20385Y-32364D01*
X20385Y-32313D02*
X20185Y-32313D01*
X20213Y-32330D01*
X20232Y-32347D01*
X20242Y-32364D01*
X20252Y-32107D02*
X20385Y-32107D01*
X20252Y-32184D02*
X20356Y-32184D01*
X20375Y-32176D01*
X20385Y-32159D01*
X20385Y-32133D01*
X20375Y-32116D01*
X20366Y-32107D01*
X20280Y-31962D02*
X20280Y-32022D01*
X20385Y-32022D02*
X20185Y-32022D01*
X20185Y-31936D01*
X23841Y-29280D02*
X23850Y-29288D01*
X23860Y-29314D01*
X23860Y-29331D01*
X23850Y-29357D01*
X23831Y-29374D01*
X23812Y-29382D01*
X23774Y-29391D01*
X23746Y-29391D01*
X23708Y-29382D01*
X23689Y-29374D01*
X23670Y-29357D01*
X23660Y-29331D01*
X23660Y-29314D01*
X23670Y-29288D01*
X23679Y-29280D01*
X23679Y-29211D02*
X23670Y-29202D01*
X23660Y-29185D01*
X23660Y-29142D01*
X23670Y-29125D01*
X23679Y-29117D01*
X23698Y-29108D01*
X23717Y-29108D01*
X23746Y-29117D01*
X23860Y-29220D01*
X23860Y-29108D01*
X23010Y-29545D02*
X23010Y-29528D01*
X23020Y-29511D01*
X23029Y-29502D01*
X23048Y-29494D01*
X23086Y-29485D01*
X23134Y-29485D01*
X23172Y-29494D01*
X23191Y-29502D01*
X23200Y-29511D01*
X23210Y-29528D01*
X23210Y-29545D01*
X23200Y-29562D01*
X23191Y-29571D01*
X23172Y-29580D01*
X23134Y-29588D01*
X23086Y-29588D01*
X23048Y-29580D01*
X23029Y-29571D01*
X23020Y-29562D01*
X23010Y-29545D01*
X23191Y-29408D02*
X23200Y-29399D01*
X23210Y-29408D01*
X23200Y-29417D01*
X23191Y-29408D01*
X23210Y-29408D01*
X23210Y-29228D02*
X23210Y-29331D01*
X23210Y-29280D02*
X23010Y-29280D01*
X23039Y-29297D01*
X23058Y-29314D01*
X23067Y-29331D01*
X23077Y-29074D02*
X23210Y-29074D01*
X23077Y-29151D02*
X23181Y-29151D01*
X23200Y-29142D01*
X23210Y-29125D01*
X23210Y-29099D01*
X23200Y-29082D01*
X23191Y-29074D01*
X23105Y-28928D02*
X23105Y-28988D01*
X23210Y-28988D02*
X23010Y-28988D01*
X23010Y-28902D01*
X26783Y-24463D02*
X26583Y-24463D01*
X26583Y-24420D01*
X26592Y-24394D01*
X26611Y-24377D01*
X26631Y-24369D01*
X26669Y-24360D01*
X26697Y-24360D01*
X26735Y-24369D01*
X26754Y-24377D01*
X26773Y-24394D01*
X26783Y-24420D01*
X26783Y-24463D01*
X26783Y-24189D02*
X26783Y-24292D01*
X26783Y-24240D02*
X26583Y-24240D01*
X26611Y-24257D01*
X26631Y-24274D01*
X26640Y-24292D01*
G54D15*
X25229Y-26295D02*
X25229Y-25895D01*
X25648Y-26257D02*
X25629Y-26276D01*
X25572Y-26295D01*
X25534Y-26295D01*
X25477Y-26276D01*
X25439Y-26238D01*
X25420Y-26200D01*
X25400Y-26124D01*
X25400Y-26067D01*
X25420Y-25991D01*
X25439Y-25953D01*
X25477Y-25915D01*
X25534Y-25895D01*
X25572Y-25895D01*
X25629Y-25915D01*
X25648Y-25934D01*
X26010Y-25895D02*
X25820Y-25895D01*
X25800Y-26086D01*
X25820Y-26067D01*
X25858Y-26048D01*
X25953Y-26048D01*
X25991Y-26067D01*
X26010Y-26086D01*
X26029Y-26124D01*
X26029Y-26219D01*
X26010Y-26257D01*
X25991Y-26276D01*
X25953Y-26295D01*
X25858Y-26295D01*
X25820Y-26276D01*
X25800Y-26257D01*
G54D16*
X22662Y-32338D02*
X22568Y-32398D01*
X22662Y-32441D02*
X22465Y-32441D01*
X22465Y-32372D01*
X22474Y-32355D01*
X22484Y-32347D01*
X22503Y-32338D01*
X22531Y-32338D01*
X22549Y-32347D01*
X22559Y-32355D01*
X22568Y-32372D01*
X22568Y-32441D01*
X22465Y-32175D02*
X22465Y-32261D01*
X22559Y-32269D01*
X22549Y-32261D01*
X22540Y-32244D01*
X22540Y-32201D01*
X22549Y-32184D01*
X22559Y-32175D01*
X22578Y-32167D01*
X22625Y-32167D01*
X22643Y-32175D01*
X22653Y-32184D01*
X22662Y-32201D01*
X22662Y-32244D01*
X22653Y-32261D01*
X22643Y-32269D01*
X23357Y-32304D02*
X23357Y-32407D01*
X23357Y-32356D02*
X23157Y-32356D01*
X23186Y-32373D01*
X23205Y-32390D01*
X23215Y-32407D01*
X23357Y-32227D02*
X23157Y-32227D01*
X23281Y-32210D02*
X23357Y-32159D01*
X23224Y-32159D02*
X23300Y-32227D01*
X32543Y-29670D02*
X32483Y-29576D01*
X32440Y-29670D02*
X32440Y-29473D01*
X32509Y-29473D01*
X32526Y-29482D01*
X32534Y-29492D01*
X32543Y-29510D01*
X32543Y-29539D01*
X32534Y-29557D01*
X32526Y-29567D01*
X32509Y-29576D01*
X32440Y-29576D01*
X32697Y-29473D02*
X32663Y-29473D01*
X32646Y-29482D01*
X32637Y-29492D01*
X32620Y-29520D01*
X32611Y-29557D01*
X32611Y-29632D01*
X32620Y-29651D01*
X32629Y-29661D01*
X32646Y-29670D01*
X32680Y-29670D01*
X32697Y-29661D01*
X32706Y-29651D01*
X32714Y-29632D01*
X32714Y-29585D01*
X32706Y-29567D01*
X32697Y-29557D01*
X32680Y-29548D01*
X32646Y-29548D01*
X32629Y-29557D01*
X32620Y-29567D01*
X32611Y-29585D01*
X32474Y-30184D02*
X32482Y-30175D01*
X32499Y-30165D01*
X32542Y-30165D01*
X32559Y-30175D01*
X32568Y-30184D01*
X32576Y-30203D01*
X32576Y-30222D01*
X32568Y-30251D01*
X32465Y-30365D01*
X32576Y-30365D01*
X32654Y-30365D02*
X32654Y-30165D01*
X32671Y-30289D02*
X32722Y-30365D01*
X32722Y-30232D02*
X32654Y-30308D01*
X33645Y-29670D02*
X33585Y-29576D01*
X33542Y-29670D02*
X33542Y-29473D01*
X33611Y-29473D01*
X33628Y-29482D01*
X33637Y-29492D01*
X33645Y-29510D01*
X33645Y-29539D01*
X33637Y-29557D01*
X33628Y-29567D01*
X33611Y-29576D01*
X33542Y-29576D01*
X33705Y-29473D02*
X33825Y-29473D01*
X33748Y-29670D01*
X33576Y-30184D02*
X33585Y-30175D01*
X33602Y-30165D01*
X33645Y-30165D01*
X33662Y-30175D01*
X33670Y-30184D01*
X33679Y-30203D01*
X33679Y-30222D01*
X33670Y-30251D01*
X33567Y-30365D01*
X33679Y-30365D01*
X33756Y-30365D02*
X33756Y-30165D01*
X33773Y-30289D02*
X33825Y-30365D01*
X33825Y-30232D02*
X33756Y-30308D01*
G54D15*
X24846Y-31103D02*
X25246Y-30837D01*
X24846Y-30837D02*
X25246Y-31103D01*
X24846Y-30494D02*
X24846Y-30684D01*
X25037Y-30703D01*
X25018Y-30684D01*
X24999Y-30646D01*
X24999Y-30551D01*
X25018Y-30513D01*
X25037Y-30494D01*
X25075Y-30475D01*
X25170Y-30475D01*
X25208Y-30494D01*
X25227Y-30513D01*
X25246Y-30551D01*
X25246Y-30646D01*
X25227Y-30684D01*
X25208Y-30703D01*
X22539Y-26240D02*
X22539Y-25840D01*
X22691Y-25840D01*
X22729Y-25859D01*
X22748Y-25878D01*
X22767Y-25916D01*
X22767Y-25973D01*
X22748Y-26011D01*
X22729Y-26030D01*
X22691Y-26049D01*
X22539Y-26049D01*
X22901Y-25840D02*
X23148Y-25840D01*
X23015Y-25992D01*
X23072Y-25992D01*
X23110Y-26011D01*
X23129Y-26030D01*
X23148Y-26068D01*
X23148Y-26163D01*
X23129Y-26201D01*
X23110Y-26220D01*
X23072Y-26240D01*
X22958Y-26240D01*
X22920Y-26220D01*
X22901Y-26201D01*
X31988Y-26240D02*
X31988Y-25840D01*
X32140Y-25840D01*
X32178Y-25859D01*
X32197Y-25878D01*
X32216Y-25916D01*
X32216Y-25973D01*
X32197Y-26011D01*
X32178Y-26030D01*
X32140Y-26049D01*
X31988Y-26049D01*
X32559Y-25973D02*
X32559Y-26240D01*
X32464Y-25820D02*
X32369Y-26106D01*
X32616Y-26106D01*
M02*
