M48
;DRILL file {Pcbnew (2013-mar-13)-testing} date Mon 26 Aug 2013 07:22:49 AM PDT
;FORMAT={2:4/ absolute / inch / suppress trailing zeros}
FMAT,2
INCH,LZ
T1C0.025
T2C0.040
%
G90
G05
M72
T1
X02572Y-030385
X027413Y-025539
X027757Y-030714
T2
X020559Y-022894
X020559Y-033425
X021559Y-022894
X021559Y-033425
X021835Y-027059
X021835Y-028059
X022559Y-022894
X022559Y-033425
X022835Y-027059
X022835Y-028059
X023559Y-022894
X023559Y-033425
X023835Y-027059
X023835Y-028059
X024559Y-022894
X024559Y-033425
X025559Y-022894
X025559Y-033425
X026559Y-022894
X026559Y-033425
X027559Y-022894
X027559Y-033425
X028559Y-022894
X028559Y-033425
X029559Y-022894
X029559Y-033425
X030559Y-022894
X030559Y-033425
X031283Y-027059
X031283Y-028059
X031559Y-022894
X031559Y-033425
X032283Y-027059
X032283Y-028059
X032559Y-022894
X032559Y-033425
X033283Y-027059
X033283Y-028059
X033559Y-022894
X033559Y-033425
X034559Y-022894
X034559Y-033425
T0
M30
