G04 (created by PCBNEW (2013-mar-13)-testing) date Tue 05 Aug 2014 04:20:57 PM PDT*
%MOIN*%
G04 Gerber Fmt 3.4, Leading zero omitted, Abs format*
%FSLAX34Y34*%
G01*
G70*
G90*
G04 APERTURE LIST*
%ADD10C,0.005906*%
%ADD11R,0.060000X0.060000*%
%ADD12C,0.060000*%
%ADD13R,0.070000X0.070000*%
%ADD14C,0.070000*%
%ADD15C,0.200000*%
%ADD16C,0.181100*%
%ADD17R,0.062000X0.090000*%
%ADD18O,0.062000X0.090000*%
%ADD19C,0.015000*%
G04 APERTURE END LIST*
G54D10*
G54D11*
X21744Y-24500D03*
G54D12*
X22744Y-24500D03*
X21744Y-25500D03*
X22744Y-25500D03*
G54D11*
X21744Y-30799D03*
G54D12*
X22744Y-30799D03*
X21744Y-31799D03*
X22744Y-31799D03*
G54D11*
X32374Y-24500D03*
G54D12*
X33374Y-24500D03*
X32374Y-25500D03*
X33374Y-25500D03*
G54D11*
X32374Y-30799D03*
G54D12*
X33374Y-30799D03*
X32374Y-31799D03*
X33374Y-31799D03*
G54D13*
X23212Y-48531D03*
G54D14*
X23212Y-47531D03*
X24212Y-48531D03*
X24212Y-47531D03*
X25212Y-48531D03*
X25212Y-47531D03*
G54D15*
X32874Y-45669D03*
G54D16*
X32874Y-48031D03*
G54D17*
X34011Y-39444D03*
G54D18*
X33011Y-39444D03*
X32011Y-39444D03*
X31011Y-39444D03*
X30011Y-39444D03*
X29011Y-39444D03*
X28011Y-39444D03*
X27011Y-39444D03*
X27011Y-42444D03*
X28011Y-42444D03*
X29011Y-42444D03*
X30011Y-42444D03*
X31011Y-42444D03*
X32011Y-42444D03*
X33011Y-42444D03*
X34011Y-42444D03*
G54D17*
X24137Y-39444D03*
G54D18*
X23137Y-39444D03*
X22137Y-39444D03*
X21137Y-39444D03*
X21137Y-42444D03*
X22137Y-42444D03*
X23137Y-42444D03*
X24137Y-42444D03*
G54D19*
X27011Y-42444D02*
X26526Y-42444D01*
X21744Y-24500D02*
X22219Y-24500D01*
X34060Y-46844D02*
X32874Y-48031D01*
X34060Y-43119D02*
X34060Y-46844D01*
X34011Y-43070D02*
X34060Y-43119D01*
X34011Y-42444D02*
X34011Y-43070D01*
X26526Y-28605D02*
X26526Y-42444D01*
X22896Y-24975D02*
X26526Y-28605D01*
X22545Y-24975D02*
X22896Y-24975D01*
X22219Y-24648D02*
X22545Y-24975D01*
X22219Y-24500D02*
X22219Y-24648D01*
X22779Y-24500D02*
X22744Y-24500D01*
X27511Y-29232D02*
X22779Y-24500D01*
X27511Y-39779D02*
X27511Y-29232D01*
X27806Y-40073D02*
X27511Y-39779D01*
X29231Y-40073D02*
X27806Y-40073D01*
X29526Y-39778D02*
X29231Y-40073D01*
X29526Y-39444D02*
X29526Y-39778D01*
X30011Y-39444D02*
X29526Y-39444D01*
X28011Y-29862D02*
X32374Y-25500D01*
X28011Y-39444D02*
X28011Y-29862D01*
X23137Y-39444D02*
X23637Y-39444D01*
X23637Y-39444D02*
X24137Y-39444D01*
X25741Y-48002D02*
X25212Y-48531D01*
X25741Y-47246D02*
X25741Y-48002D01*
X23637Y-45142D02*
X25741Y-47246D01*
X23637Y-39444D02*
X23637Y-45142D01*
X24622Y-27378D02*
X22744Y-25500D01*
X24622Y-42444D02*
X24622Y-27378D01*
X24137Y-42444D02*
X24622Y-42444D01*
X22652Y-31890D02*
X22744Y-31799D01*
X22652Y-42444D02*
X22652Y-31890D01*
X23137Y-42444D02*
X22652Y-42444D01*
X32849Y-26024D02*
X33374Y-25500D01*
X32849Y-38607D02*
X32849Y-26024D01*
X32496Y-38959D02*
X32849Y-38607D01*
X32496Y-39444D02*
X32496Y-38959D01*
X32011Y-39444D02*
X32496Y-39444D01*
X32225Y-31274D02*
X32374Y-31274D01*
X31011Y-32488D02*
X32225Y-31274D01*
X31011Y-39444D02*
X31011Y-32488D01*
X32374Y-30799D02*
X32374Y-31274D01*
X22219Y-25975D02*
X21744Y-25500D01*
X22219Y-33194D02*
X22219Y-25975D01*
X21637Y-33775D02*
X22219Y-33194D01*
X21637Y-47913D02*
X21637Y-33775D01*
X22781Y-49056D02*
X21637Y-47913D01*
X23687Y-49056D02*
X22781Y-49056D01*
X24212Y-48531D02*
X23687Y-49056D01*
X31511Y-32661D02*
X32374Y-31799D01*
X31511Y-44307D02*
X31511Y-32661D01*
X32874Y-45669D02*
X31511Y-44307D01*
M02*
