M48
;DRILL file {Pcbnew (2013-mar-13)-testing} date Tue 05 Aug 2014 04:20:53 PM PDT
;FORMAT={2:4/ absolute / inch / suppress trailing zeros}
FMAT,2
INCH,LZ
T1C0.032
T2C0.040
T3C0.102
T4C0.118
%
G90
G05
M72
T1
X021138Y-039445
X021138Y-042445
X022138Y-039445
X022138Y-042445
X023138Y-039445
X023138Y-042445
X024138Y-039445
X024138Y-042445
X027012Y-039445
X027012Y-042445
X028012Y-039445
X028012Y-042445
X029012Y-039445
X029012Y-042445
X030012Y-039445
X030012Y-042445
X031012Y-039445
X031012Y-042445
X032012Y-039445
X032012Y-042445
X033012Y-039445
X033012Y-042445
X034012Y-039445
X034012Y-042445
T2
X021744Y-0245
X021744Y-0255
X021744Y-030799
X021744Y-031799
X022744Y-0245
X022744Y-0255
X022744Y-030799
X022744Y-031799
X023213Y-047531
X023213Y-048531
X024213Y-047531
X024213Y-048531
X025213Y-047531
X025213Y-048531
X032374Y-0245
X032374Y-0255
X032374Y-030799
X032374Y-031799
X033374Y-0245
X033374Y-0255
X033374Y-030799
X033374Y-031799
T3
X032874Y-048031
T4
X032874Y-045669
T0
M30
