M48
;DRILL file {Pcbnew (2013-mar-13)-testing} date Wed 23 Jul 2014 10:48:30 AM PDT
;FORMAT={2:4/ absolute / inch / suppress trailing zeros}
FMAT,2
INCH,LZ
T1C0.032
T2C0.040
T3C0.102
T4C0.118
%
G90
G05
M72
T1
X021638Y-039445
X021638Y-042445
X022638Y-039445
X022638Y-042445
X023638Y-039445
X023638Y-042445
X026815Y-039445
X026815Y-042445
X027815Y-039445
X027815Y-042445
X028815Y-039445
X028815Y-042445
X029815Y-039445
X029815Y-042445
X030815Y-039445
X030815Y-042445
X031815Y-039445
X031815Y-042445
X032815Y-039445
X032815Y-042445
X033815Y-039445
X033815Y-042445
T2
X021744Y-0245
X021744Y-0255
X021744Y-030799
X021744Y-031799
X022744Y-0245
X022744Y-0255
X022744Y-030799
X022744Y-031799
X023213Y-047531
X023213Y-048531
X024213Y-047531
X024213Y-048531
X025213Y-047531
X025213Y-048531
X032374Y-0245
X032374Y-0255
X032374Y-030799
X032374Y-031799
X033374Y-0245
X033374Y-0255
X033374Y-030799
X033374Y-031799
T3
X032874Y-048031
T4
X032874Y-045669
T0
M30
