G04 (created by PCBNEW (2013-mar-13)-testing) date Tue 12 Nov 2013 05:41:53 PM PST*
%MOIN*%
G04 Gerber Fmt 3.4, Leading zero omitted, Abs format*
%FSLAX34Y34*%
G01*
G70*
G90*
G04 APERTURE LIST*
%ADD10C,0.005906*%
%ADD11C,0.200000*%
%ADD12C,0.181100*%
%ADD13R,0.060000X0.060000*%
%ADD14C,0.060000*%
%ADD15R,0.070000X0.070000*%
%ADD16C,0.070000*%
%ADD17C,0.035000*%
%ADD18C,0.020000*%
G04 APERTURE END LIST*
G54D10*
G54D11*
X37800Y-38450D03*
G54D12*
X40162Y-38450D03*
G54D13*
X21834Y-28059D03*
G54D14*
X21834Y-27059D03*
X22834Y-28059D03*
X22834Y-27059D03*
X23834Y-28059D03*
X23834Y-27059D03*
G54D13*
X31283Y-28059D03*
G54D14*
X31283Y-27059D03*
X32283Y-28059D03*
X32283Y-27059D03*
X33283Y-28059D03*
X33283Y-27059D03*
G54D15*
X41051Y-22653D03*
G54D16*
X40051Y-22653D03*
X41051Y-21653D03*
X40051Y-21653D03*
X41051Y-20653D03*
X40051Y-20653D03*
G54D13*
X40248Y-34448D03*
G54D14*
X41248Y-34448D03*
G54D15*
X41051Y-29937D03*
G54D16*
X40051Y-29937D03*
X41051Y-28937D03*
X40051Y-28937D03*
X41051Y-27937D03*
X40051Y-27937D03*
G54D17*
X31496Y-24606D03*
X32677Y-24704D03*
G54D18*
X32793Y-28569D02*
X32283Y-28059D01*
X33648Y-28569D02*
X32793Y-28569D01*
X34831Y-27386D02*
X33648Y-28569D01*
X40501Y-27386D02*
X34831Y-27386D01*
X41051Y-27937D02*
X40501Y-27386D01*
X33730Y-30506D02*
X31283Y-28059D01*
X41466Y-30506D02*
X33730Y-30506D01*
X41601Y-30371D02*
X41466Y-30506D01*
X41601Y-29487D02*
X41601Y-30371D01*
X41051Y-28937D02*
X41601Y-29487D01*
X23366Y-25527D02*
X21834Y-27059D01*
X38177Y-25527D02*
X23366Y-25527D01*
X41051Y-22653D02*
X38177Y-25527D01*
X23626Y-26267D02*
X22834Y-27059D01*
X38426Y-26267D02*
X23626Y-26267D01*
X41601Y-23092D02*
X38426Y-26267D01*
X41601Y-22203D02*
X41601Y-23092D01*
X41051Y-21653D02*
X41601Y-22203D01*
X41051Y-20653D02*
X41051Y-20480D01*
X36122Y-19980D02*
X31496Y-24606D01*
X40551Y-19980D02*
X36122Y-19980D01*
X41051Y-20480D02*
X40551Y-19980D01*
X35728Y-21653D02*
X40051Y-21653D01*
X32677Y-24704D02*
X35728Y-21653D01*
X38330Y-36618D02*
X40162Y-38450D01*
X31394Y-36618D02*
X38330Y-36618D01*
X22834Y-28059D02*
X31394Y-36618D01*
M02*
