M48
;DRILL file {Pcbnew (2013-jul-07)-stable} date Tue 18 Aug 2015 02:36:50 PM PDT
;FORMAT={-:-/ absolute / inch / decimal}
FMAT,2
INCH,TZ
T1C0.025
T2C0.040
T3C0.102
T4C0.118
%
G90
G05
M72
T1
X2.7048Y-2.6592
T2
X2.0559Y-2.2913
X2.1559Y-2.2913
X2.2559Y-2.2913
X2.3559Y-2.2913
X2.4559Y-2.2913
X2.5559Y-2.2913
X2.6559Y-2.2913
X2.6965Y-2.835
X2.6965Y-2.935
X2.6965Y-3.035
X2.7559Y-2.2913
X2.7965Y-2.835
X2.7965Y-2.935
X2.7965Y-3.035
X2.8559Y-2.2913
X2.9559Y-2.2913
X3.0559Y-2.2913
X3.1559Y-2.2913
X3.2559Y-2.2913
X3.3559Y-2.2913
X3.377Y-3.206
X3.377Y-3.306
X3.381Y-2.501
X3.381Y-2.601
X3.381Y-2.701
X3.381Y-2.801
X3.381Y-2.901
X3.381Y-3.001
X3.4559Y-2.2913
T3
X2.189Y-3.2347
T4
X2.189Y-2.9985
T0
M30
