G04 (created by PCBNEW (2013-jul-07)-stable) date Tue 18 Aug 2015 02:36:46 PM PDT*
%MOIN*%
G04 Gerber Fmt 3.4, Leading zero omitted, Abs format*
%FSLAX34Y34*%
G01*
G70*
G90*
G04 APERTURE LIST*
%ADD10C,0.00590551*%
%ADD11C,0.01*%
%ADD12C,0.015*%
%ADD13C,0.006*%
%ADD14C,0.012*%
G04 APERTURE END LIST*
G54D10*
G54D11*
X24605Y-33934D02*
X24605Y-34267D01*
X24486Y-33743D02*
X24367Y-34100D01*
X24677Y-34100D01*
X24820Y-34267D02*
X25081Y-33934D01*
X24820Y-33934D02*
X25081Y-34267D01*
X25248Y-33815D02*
X25272Y-33791D01*
X25320Y-33767D01*
X25439Y-33767D01*
X25486Y-33791D01*
X25510Y-33815D01*
X25534Y-33862D01*
X25534Y-33910D01*
X25510Y-33981D01*
X25224Y-34267D01*
X25534Y-34267D01*
X25843Y-33767D02*
X25891Y-33767D01*
X25939Y-33791D01*
X25962Y-33815D01*
X25986Y-33862D01*
X26010Y-33957D01*
X26010Y-34076D01*
X25986Y-34172D01*
X25962Y-34219D01*
X25939Y-34243D01*
X25891Y-34267D01*
X25843Y-34267D01*
X25796Y-34243D01*
X25772Y-34219D01*
X25748Y-34172D01*
X25724Y-34076D01*
X25724Y-33957D01*
X25748Y-33862D01*
X25772Y-33815D01*
X25796Y-33791D01*
X25843Y-33767D01*
X26224Y-34267D02*
X26224Y-33934D01*
X26224Y-33981D02*
X26248Y-33957D01*
X26296Y-33934D01*
X26367Y-33934D01*
X26415Y-33957D01*
X26439Y-34005D01*
X26439Y-34267D01*
X26439Y-34005D02*
X26462Y-33957D01*
X26510Y-33934D01*
X26581Y-33934D01*
X26629Y-33957D01*
X26653Y-34005D01*
X26653Y-34267D01*
X26891Y-34267D02*
X26891Y-33934D01*
X26891Y-33981D02*
X26915Y-33957D01*
X26962Y-33934D01*
X27034Y-33934D01*
X27081Y-33957D01*
X27105Y-34005D01*
X27105Y-34267D01*
X27105Y-34005D02*
X27129Y-33957D01*
X27177Y-33934D01*
X27248Y-33934D01*
X27296Y-33957D01*
X27320Y-34005D01*
X27320Y-34267D01*
X28153Y-34267D02*
X28153Y-34005D01*
X28129Y-33957D01*
X28081Y-33934D01*
X27986Y-33934D01*
X27939Y-33957D01*
X28153Y-34243D02*
X28105Y-34267D01*
X27986Y-34267D01*
X27939Y-34243D01*
X27915Y-34195D01*
X27915Y-34148D01*
X27939Y-34100D01*
X27986Y-34076D01*
X28105Y-34076D01*
X28153Y-34053D01*
X28320Y-33934D02*
X28510Y-33934D01*
X28391Y-33767D02*
X28391Y-34195D01*
X28415Y-34243D01*
X28462Y-34267D01*
X28510Y-34267D01*
X28677Y-34267D02*
X28677Y-33934D01*
X28677Y-33981D02*
X28700Y-33957D01*
X28748Y-33934D01*
X28820Y-33934D01*
X28867Y-33957D01*
X28891Y-34005D01*
X28891Y-34267D01*
X28891Y-34005D02*
X28915Y-33957D01*
X28962Y-33934D01*
X29034Y-33934D01*
X29081Y-33957D01*
X29105Y-34005D01*
X29105Y-34267D01*
X29534Y-34243D02*
X29486Y-34267D01*
X29391Y-34267D01*
X29343Y-34243D01*
X29320Y-34195D01*
X29320Y-34005D01*
X29343Y-33957D01*
X29391Y-33934D01*
X29486Y-33934D01*
X29534Y-33957D01*
X29558Y-34005D01*
X29558Y-34053D01*
X29320Y-34100D01*
X29986Y-33934D02*
X29986Y-34338D01*
X29962Y-34386D01*
X29939Y-34410D01*
X29891Y-34434D01*
X29819Y-34434D01*
X29772Y-34410D01*
X29986Y-34243D02*
X29939Y-34267D01*
X29843Y-34267D01*
X29796Y-34243D01*
X29772Y-34219D01*
X29748Y-34172D01*
X29748Y-34029D01*
X29772Y-33981D01*
X29796Y-33957D01*
X29843Y-33934D01*
X29939Y-33934D01*
X29986Y-33957D01*
X30439Y-34267D02*
X30439Y-34005D01*
X30415Y-33957D01*
X30367Y-33934D01*
X30272Y-33934D01*
X30224Y-33957D01*
X30439Y-34243D02*
X30391Y-34267D01*
X30272Y-34267D01*
X30224Y-34243D01*
X30200Y-34195D01*
X30200Y-34148D01*
X30224Y-34100D01*
X30272Y-34076D01*
X30391Y-34076D01*
X30439Y-34053D01*
X30629Y-33767D02*
X30939Y-33767D01*
X30772Y-33957D01*
X30843Y-33957D01*
X30891Y-33981D01*
X30915Y-34005D01*
X30939Y-34053D01*
X30939Y-34172D01*
X30915Y-34219D01*
X30891Y-34243D01*
X30843Y-34267D01*
X30700Y-34267D01*
X30653Y-34243D01*
X30629Y-34219D01*
X31129Y-33815D02*
X31153Y-33791D01*
X31200Y-33767D01*
X31320Y-33767D01*
X31367Y-33791D01*
X31391Y-33815D01*
X31415Y-33862D01*
X31415Y-33910D01*
X31391Y-33981D01*
X31105Y-34267D01*
X31415Y-34267D01*
X31700Y-33981D02*
X31653Y-33957D01*
X31629Y-33934D01*
X31605Y-33886D01*
X31605Y-33862D01*
X31629Y-33815D01*
X31653Y-33791D01*
X31700Y-33767D01*
X31796Y-33767D01*
X31843Y-33791D01*
X31867Y-33815D01*
X31891Y-33862D01*
X31891Y-33886D01*
X31867Y-33934D01*
X31843Y-33957D01*
X31796Y-33981D01*
X31700Y-33981D01*
X31653Y-34005D01*
X31629Y-34029D01*
X31605Y-34076D01*
X31605Y-34172D01*
X31629Y-34219D01*
X31653Y-34243D01*
X31700Y-34267D01*
X31796Y-34267D01*
X31843Y-34243D01*
X31867Y-34219D01*
X31891Y-34172D01*
X31891Y-34076D01*
X31867Y-34029D01*
X31843Y-34005D01*
X31796Y-33981D01*
X24129Y-35043D02*
X24081Y-35067D01*
X23986Y-35067D01*
X23939Y-35043D01*
X23915Y-35019D01*
X23891Y-34972D01*
X23891Y-34829D01*
X23915Y-34781D01*
X23939Y-34757D01*
X23986Y-34734D01*
X24081Y-34734D01*
X24129Y-34757D01*
X24415Y-35067D02*
X24367Y-35043D01*
X24343Y-35019D01*
X24320Y-34972D01*
X24320Y-34829D01*
X24343Y-34781D01*
X24367Y-34757D01*
X24415Y-34734D01*
X24486Y-34734D01*
X24534Y-34757D01*
X24558Y-34781D01*
X24581Y-34829D01*
X24581Y-34972D01*
X24558Y-35019D01*
X24534Y-35043D01*
X24486Y-35067D01*
X24415Y-35067D01*
X24796Y-35067D02*
X24796Y-34734D01*
X24796Y-34781D02*
X24820Y-34757D01*
X24867Y-34734D01*
X24939Y-34734D01*
X24986Y-34757D01*
X25010Y-34805D01*
X25010Y-35067D01*
X25010Y-34805D02*
X25034Y-34757D01*
X25081Y-34734D01*
X25153Y-34734D01*
X25200Y-34757D01*
X25224Y-34805D01*
X25224Y-35067D01*
X25462Y-35067D02*
X25462Y-34734D01*
X25462Y-34781D02*
X25486Y-34757D01*
X25534Y-34734D01*
X25605Y-34734D01*
X25653Y-34757D01*
X25677Y-34805D01*
X25677Y-35067D01*
X25677Y-34805D02*
X25700Y-34757D01*
X25748Y-34734D01*
X25820Y-34734D01*
X25867Y-34757D01*
X25891Y-34805D01*
X25891Y-35067D01*
X26510Y-34734D02*
X26510Y-35234D01*
X26510Y-34757D02*
X26558Y-34734D01*
X26653Y-34734D01*
X26700Y-34757D01*
X26724Y-34781D01*
X26748Y-34829D01*
X26748Y-34972D01*
X26724Y-35019D01*
X26700Y-35043D01*
X26653Y-35067D01*
X26558Y-35067D01*
X26510Y-35043D01*
X26962Y-35067D02*
X26962Y-34734D01*
X26962Y-34829D02*
X26986Y-34781D01*
X27010Y-34757D01*
X27058Y-34734D01*
X27105Y-34734D01*
X27343Y-35067D02*
X27296Y-35043D01*
X27272Y-35019D01*
X27248Y-34972D01*
X27248Y-34829D01*
X27272Y-34781D01*
X27296Y-34757D01*
X27343Y-34734D01*
X27415Y-34734D01*
X27462Y-34757D01*
X27486Y-34781D01*
X27510Y-34829D01*
X27510Y-34972D01*
X27486Y-35019D01*
X27462Y-35043D01*
X27415Y-35067D01*
X27343Y-35067D01*
X27939Y-34734D02*
X27939Y-35138D01*
X27915Y-35186D01*
X27891Y-35210D01*
X27843Y-35234D01*
X27772Y-35234D01*
X27724Y-35210D01*
X27939Y-35043D02*
X27891Y-35067D01*
X27796Y-35067D01*
X27748Y-35043D01*
X27724Y-35019D01*
X27700Y-34972D01*
X27700Y-34829D01*
X27724Y-34781D01*
X27748Y-34757D01*
X27796Y-34734D01*
X27891Y-34734D01*
X27939Y-34757D01*
X28177Y-35067D02*
X28177Y-34734D01*
X28177Y-34829D02*
X28200Y-34781D01*
X28224Y-34757D01*
X28272Y-34734D01*
X28320Y-34734D01*
X28700Y-35067D02*
X28700Y-34805D01*
X28677Y-34757D01*
X28629Y-34734D01*
X28534Y-34734D01*
X28486Y-34757D01*
X28700Y-35043D02*
X28653Y-35067D01*
X28534Y-35067D01*
X28486Y-35043D01*
X28462Y-34995D01*
X28462Y-34948D01*
X28486Y-34900D01*
X28534Y-34876D01*
X28653Y-34876D01*
X28700Y-34853D01*
X28939Y-35067D02*
X28939Y-34734D01*
X28939Y-34781D02*
X28962Y-34757D01*
X29010Y-34734D01*
X29081Y-34734D01*
X29129Y-34757D01*
X29153Y-34805D01*
X29153Y-35067D01*
X29153Y-34805D02*
X29177Y-34757D01*
X29224Y-34734D01*
X29296Y-34734D01*
X29343Y-34757D01*
X29367Y-34805D01*
X29367Y-35067D01*
X29605Y-35067D02*
X29605Y-34734D01*
X29605Y-34781D02*
X29629Y-34757D01*
X29677Y-34734D01*
X29748Y-34734D01*
X29796Y-34757D01*
X29820Y-34805D01*
X29820Y-35067D01*
X29820Y-34805D02*
X29843Y-34757D01*
X29891Y-34734D01*
X29962Y-34734D01*
X30010Y-34757D01*
X30034Y-34805D01*
X30034Y-35067D01*
X30462Y-35043D02*
X30415Y-35067D01*
X30320Y-35067D01*
X30272Y-35043D01*
X30248Y-34995D01*
X30248Y-34805D01*
X30272Y-34757D01*
X30320Y-34734D01*
X30415Y-34734D01*
X30462Y-34757D01*
X30486Y-34805D01*
X30486Y-34853D01*
X30248Y-34900D01*
X30700Y-35067D02*
X30700Y-34734D01*
X30700Y-34829D02*
X30724Y-34781D01*
X30748Y-34757D01*
X30796Y-34734D01*
X30843Y-34734D01*
X31343Y-34734D02*
X31462Y-35067D01*
X31581Y-34734D01*
X31867Y-34567D02*
X31915Y-34567D01*
X31962Y-34591D01*
X31986Y-34615D01*
X32010Y-34662D01*
X32034Y-34757D01*
X32034Y-34876D01*
X32010Y-34972D01*
X31986Y-35019D01*
X31962Y-35043D01*
X31915Y-35067D01*
X31867Y-35067D01*
X31819Y-35043D01*
X31796Y-35019D01*
X31772Y-34972D01*
X31748Y-34876D01*
X31748Y-34757D01*
X31772Y-34662D01*
X31796Y-34615D01*
X31819Y-34591D01*
X31867Y-34567D01*
X32248Y-35019D02*
X32272Y-35043D01*
X32248Y-35067D01*
X32224Y-35043D01*
X32248Y-35019D01*
X32248Y-35067D01*
X32439Y-34567D02*
X32748Y-34567D01*
X32581Y-34757D01*
X32653Y-34757D01*
X32700Y-34781D01*
X32724Y-34805D01*
X32748Y-34853D01*
X32748Y-34972D01*
X32724Y-35019D01*
X32700Y-35043D01*
X32653Y-35067D01*
X32510Y-35067D01*
X32462Y-35043D01*
X32439Y-35019D01*
X32532Y-34227D02*
X32937Y-34227D01*
X32984Y-34203D01*
X33008Y-34179D01*
X33032Y-34131D01*
X33032Y-34036D01*
X33008Y-33989D01*
X32984Y-33965D01*
X32937Y-33941D01*
X32532Y-33941D01*
X33008Y-33727D02*
X33032Y-33655D01*
X33032Y-33536D01*
X33008Y-33489D01*
X32984Y-33465D01*
X32937Y-33441D01*
X32889Y-33441D01*
X32841Y-33465D01*
X32818Y-33489D01*
X32794Y-33536D01*
X32770Y-33631D01*
X32746Y-33679D01*
X32722Y-33703D01*
X32675Y-33727D01*
X32627Y-33727D01*
X32580Y-33703D01*
X32556Y-33679D01*
X32532Y-33631D01*
X32532Y-33512D01*
X32556Y-33441D01*
X32770Y-33060D02*
X32794Y-32989D01*
X32818Y-32965D01*
X32865Y-32941D01*
X32937Y-32941D01*
X32984Y-32965D01*
X33008Y-32989D01*
X33032Y-33036D01*
X33032Y-33227D01*
X32532Y-33227D01*
X32532Y-33060D01*
X32556Y-33012D01*
X32580Y-32989D01*
X32627Y-32965D01*
X32675Y-32965D01*
X32722Y-32989D01*
X32746Y-33012D01*
X32770Y-33060D01*
X32770Y-33227D01*
X33032Y-32346D02*
X32532Y-32346D01*
X32532Y-32155D01*
X32556Y-32108D01*
X32580Y-32084D01*
X32627Y-32060D01*
X32699Y-32060D01*
X32746Y-32084D01*
X32770Y-32108D01*
X32794Y-32155D01*
X32794Y-32346D01*
X32532Y-31893D02*
X33032Y-31774D01*
X32675Y-31679D01*
X33032Y-31584D01*
X32532Y-31465D01*
X33032Y-30989D02*
X32794Y-31155D01*
X33032Y-31274D02*
X32532Y-31274D01*
X32532Y-31084D01*
X32556Y-31036D01*
X32580Y-31012D01*
X32627Y-30989D01*
X32699Y-30989D01*
X32746Y-31012D01*
X32770Y-31036D01*
X32794Y-31084D01*
X32794Y-31274D01*
X31958Y-28785D02*
X31982Y-28713D01*
X31982Y-28594D01*
X31958Y-28547D01*
X31934Y-28523D01*
X31887Y-28499D01*
X31839Y-28499D01*
X31791Y-28523D01*
X31768Y-28547D01*
X31744Y-28594D01*
X31720Y-28689D01*
X31696Y-28737D01*
X31672Y-28761D01*
X31625Y-28785D01*
X31577Y-28785D01*
X31530Y-28761D01*
X31506Y-28737D01*
X31482Y-28689D01*
X31482Y-28570D01*
X31506Y-28499D01*
X31720Y-28285D02*
X31720Y-28118D01*
X31982Y-28047D02*
X31982Y-28285D01*
X31482Y-28285D01*
X31482Y-28047D01*
X31982Y-27547D02*
X31744Y-27713D01*
X31982Y-27832D02*
X31482Y-27832D01*
X31482Y-27642D01*
X31506Y-27594D01*
X31530Y-27570D01*
X31577Y-27547D01*
X31649Y-27547D01*
X31696Y-27570D01*
X31720Y-27594D01*
X31744Y-27642D01*
X31744Y-27832D01*
X31982Y-27332D02*
X31482Y-27332D01*
X31839Y-27118D02*
X31839Y-26880D01*
X31982Y-27166D02*
X31482Y-26999D01*
X31982Y-26832D01*
X31982Y-26428D02*
X31982Y-26666D01*
X31482Y-26666D01*
X32782Y-29844D02*
X32282Y-29844D01*
X32282Y-29654D01*
X32306Y-29606D01*
X32330Y-29582D01*
X32377Y-29559D01*
X32449Y-29559D01*
X32496Y-29582D01*
X32520Y-29606D01*
X32544Y-29654D01*
X32544Y-29844D01*
X32782Y-29059D02*
X32544Y-29225D01*
X32782Y-29344D02*
X32282Y-29344D01*
X32282Y-29154D01*
X32306Y-29106D01*
X32330Y-29082D01*
X32377Y-29059D01*
X32449Y-29059D01*
X32496Y-29082D01*
X32520Y-29106D01*
X32544Y-29154D01*
X32544Y-29344D01*
X32282Y-28749D02*
X32282Y-28654D01*
X32306Y-28606D01*
X32353Y-28559D01*
X32449Y-28535D01*
X32615Y-28535D01*
X32710Y-28559D01*
X32758Y-28606D01*
X32782Y-28654D01*
X32782Y-28749D01*
X32758Y-28797D01*
X32710Y-28844D01*
X32615Y-28868D01*
X32449Y-28868D01*
X32353Y-28844D01*
X32306Y-28797D01*
X32282Y-28749D01*
X32306Y-28059D02*
X32282Y-28106D01*
X32282Y-28178D01*
X32306Y-28249D01*
X32353Y-28297D01*
X32401Y-28320D01*
X32496Y-28344D01*
X32568Y-28344D01*
X32663Y-28320D01*
X32710Y-28297D01*
X32758Y-28249D01*
X32782Y-28178D01*
X32782Y-28130D01*
X32758Y-28059D01*
X32734Y-28035D01*
X32568Y-28035D01*
X32568Y-28130D01*
X32782Y-27535D02*
X32544Y-27701D01*
X32782Y-27820D02*
X32282Y-27820D01*
X32282Y-27630D01*
X32306Y-27582D01*
X32330Y-27559D01*
X32377Y-27535D01*
X32449Y-27535D01*
X32496Y-27559D01*
X32520Y-27582D01*
X32544Y-27630D01*
X32544Y-27820D01*
X32639Y-27344D02*
X32639Y-27106D01*
X32782Y-27392D02*
X32282Y-27225D01*
X32782Y-27059D01*
X32782Y-26892D02*
X32282Y-26892D01*
X32639Y-26725D01*
X32282Y-26559D01*
X32782Y-26559D01*
X32782Y-26320D02*
X32282Y-26320D01*
X32639Y-26154D01*
X32282Y-25987D01*
X32782Y-25987D01*
X32520Y-25749D02*
X32520Y-25582D01*
X32782Y-25511D02*
X32782Y-25749D01*
X32282Y-25749D01*
X32282Y-25511D01*
X32782Y-25011D02*
X32544Y-25178D01*
X32782Y-25297D02*
X32282Y-25297D01*
X32282Y-25106D01*
X32306Y-25059D01*
X32330Y-25035D01*
X32377Y-25011D01*
X32449Y-25011D01*
X32496Y-25035D01*
X32520Y-25059D01*
X32544Y-25106D01*
X32544Y-25297D01*
X24984Y-30320D02*
X24984Y-30082D01*
X25127Y-30368D02*
X24627Y-30201D01*
X25127Y-30034D01*
X24627Y-29939D02*
X25127Y-29772D01*
X24627Y-29606D01*
X25127Y-29153D02*
X24889Y-29320D01*
X25127Y-29439D02*
X24627Y-29439D01*
X24627Y-29249D01*
X24651Y-29201D01*
X24675Y-29177D01*
X24722Y-29153D01*
X24794Y-29153D01*
X24841Y-29177D01*
X24865Y-29201D01*
X24889Y-29249D01*
X24889Y-29439D01*
X25127Y-28939D02*
X24627Y-28939D01*
X25103Y-28725D02*
X25127Y-28653D01*
X25127Y-28534D01*
X25103Y-28487D01*
X25079Y-28463D01*
X25032Y-28439D01*
X24984Y-28439D01*
X24936Y-28463D01*
X24913Y-28487D01*
X24889Y-28534D01*
X24865Y-28630D01*
X24841Y-28677D01*
X24817Y-28701D01*
X24770Y-28725D01*
X24722Y-28725D01*
X24675Y-28701D01*
X24651Y-28677D01*
X24627Y-28630D01*
X24627Y-28510D01*
X24651Y-28439D01*
X25127Y-28225D02*
X24627Y-28225D01*
X24627Y-28034D01*
X24651Y-27987D01*
X24675Y-27963D01*
X24722Y-27939D01*
X24794Y-27939D01*
X24841Y-27963D01*
X24865Y-27987D01*
X24889Y-28034D01*
X24889Y-28225D01*
G54D12*
X22953Y-29985D02*
X23662Y-29985D01*
X23662Y-29985D02*
X23662Y-35418D01*
X23662Y-35418D02*
X20158Y-35418D01*
X20158Y-35418D02*
X20118Y-35418D01*
X20118Y-35418D02*
X20118Y-29985D01*
X20118Y-29985D02*
X20827Y-29985D01*
X29365Y-32350D02*
X29365Y-26350D01*
X25565Y-32350D02*
X25565Y-26350D01*
X25565Y-26350D02*
X29365Y-26350D01*
X29365Y-32350D02*
X25565Y-32350D01*
X30339Y-31067D02*
X30339Y-29885D01*
X29626Y-30462D02*
X30326Y-31062D01*
X30325Y-29862D02*
X29625Y-30462D01*
X33559Y-19713D02*
X35059Y-19713D01*
X35059Y-19713D02*
X35059Y-20013D01*
X21559Y-19713D02*
X20059Y-19713D01*
X20059Y-19713D02*
X20059Y-19913D01*
X21559Y-23413D02*
X20059Y-23413D01*
X20059Y-23413D02*
X20059Y-19913D01*
X33559Y-23413D02*
X35059Y-23413D01*
X35059Y-23413D02*
X35059Y-19913D01*
X33559Y-23413D02*
X21559Y-23413D01*
X21559Y-19713D02*
X33559Y-19713D01*
G54D13*
X34270Y-33560D02*
X33270Y-33560D01*
X33270Y-33560D02*
X33270Y-31560D01*
X33270Y-31560D02*
X34270Y-31560D01*
X34270Y-31560D02*
X34270Y-33560D01*
G54D14*
X34310Y-30510D02*
X33310Y-30510D01*
X33310Y-30510D02*
X33310Y-24510D01*
X33310Y-24510D02*
X34310Y-24510D01*
X34310Y-24510D02*
X34310Y-30510D01*
X34310Y-29510D02*
X33310Y-29510D01*
G54D11*
X23480Y-29702D02*
X23480Y-29202D01*
X23671Y-29202D01*
X23719Y-29226D01*
X23742Y-29250D01*
X23766Y-29297D01*
X23766Y-29369D01*
X23742Y-29416D01*
X23719Y-29440D01*
X23671Y-29464D01*
X23480Y-29464D01*
X24242Y-29702D02*
X23957Y-29702D01*
X24100Y-29702D02*
X24100Y-29202D01*
X24052Y-29273D01*
X24004Y-29321D01*
X23957Y-29345D01*
X26147Y-25799D02*
X25647Y-25799D01*
X25647Y-25608D01*
X25671Y-25560D01*
X25695Y-25537D01*
X25742Y-25513D01*
X25814Y-25513D01*
X25861Y-25537D01*
X25885Y-25560D01*
X25909Y-25608D01*
X25909Y-25799D01*
X25695Y-25322D02*
X25671Y-25299D01*
X25647Y-25251D01*
X25647Y-25132D01*
X25671Y-25084D01*
X25695Y-25060D01*
X25742Y-25037D01*
X25790Y-25037D01*
X25861Y-25060D01*
X26147Y-25346D01*
X26147Y-25037D01*
X28567Y-28230D02*
X28567Y-28469D01*
X28805Y-28492D01*
X28781Y-28469D01*
X28757Y-28421D01*
X28757Y-28302D01*
X28781Y-28254D01*
X28805Y-28230D01*
X28853Y-28207D01*
X28972Y-28207D01*
X29019Y-28230D01*
X29043Y-28254D01*
X29067Y-28302D01*
X29067Y-28421D01*
X29043Y-28469D01*
X29019Y-28492D01*
X25867Y-28254D02*
X25867Y-28350D01*
X25891Y-28397D01*
X25915Y-28421D01*
X25986Y-28469D01*
X26081Y-28492D01*
X26272Y-28492D01*
X26319Y-28469D01*
X26343Y-28445D01*
X26367Y-28397D01*
X26367Y-28302D01*
X26343Y-28254D01*
X26319Y-28230D01*
X26272Y-28207D01*
X26153Y-28207D01*
X26105Y-28230D01*
X26081Y-28254D01*
X26057Y-28302D01*
X26057Y-28397D01*
X26081Y-28445D01*
X26105Y-28469D01*
X26153Y-28492D01*
X25915Y-30492D02*
X25891Y-30469D01*
X25867Y-30421D01*
X25867Y-30302D01*
X25891Y-30254D01*
X25915Y-30230D01*
X25962Y-30207D01*
X26010Y-30207D01*
X26081Y-30230D01*
X26367Y-30516D01*
X26367Y-30207D01*
X20182Y-24237D02*
X20182Y-23737D01*
X20372Y-23737D01*
X20420Y-23761D01*
X20444Y-23785D01*
X20467Y-23833D01*
X20467Y-23904D01*
X20444Y-23952D01*
X20420Y-23975D01*
X20372Y-23999D01*
X20182Y-23999D01*
X20634Y-23737D02*
X20944Y-23737D01*
X20777Y-23928D01*
X20848Y-23928D01*
X20896Y-23952D01*
X20920Y-23975D01*
X20944Y-24023D01*
X20944Y-24142D01*
X20920Y-24190D01*
X20896Y-24214D01*
X20848Y-24237D01*
X20705Y-24237D01*
X20658Y-24214D01*
X20634Y-24190D01*
X34982Y-33629D02*
X34482Y-33629D01*
X34482Y-33438D01*
X34506Y-33390D01*
X34530Y-33367D01*
X34577Y-33343D01*
X34649Y-33343D01*
X34696Y-33367D01*
X34720Y-33390D01*
X34744Y-33438D01*
X34744Y-33629D01*
X34649Y-32914D02*
X34982Y-32914D01*
X34458Y-33033D02*
X34815Y-33152D01*
X34815Y-32843D01*
X35067Y-30339D02*
X34567Y-30339D01*
X34567Y-30148D01*
X34591Y-30100D01*
X34615Y-30077D01*
X34662Y-30053D01*
X34734Y-30053D01*
X34781Y-30077D01*
X34805Y-30100D01*
X34829Y-30148D01*
X34829Y-30339D01*
X34567Y-29600D02*
X34567Y-29839D01*
X34805Y-29862D01*
X34781Y-29839D01*
X34757Y-29791D01*
X34757Y-29672D01*
X34781Y-29624D01*
X34805Y-29600D01*
X34853Y-29577D01*
X34972Y-29577D01*
X35019Y-29600D01*
X35043Y-29624D01*
X35067Y-29672D01*
X35067Y-29791D01*
X35043Y-29839D01*
X35019Y-29862D01*
M02*
