M48
; DRILL file {KiCad 5.1.6} date Tue Sep  8 13:51:50 2020
; FORMAT={2:4/ absolute / inch / keep zeros}
; #@! TF.CreationDate,2020-09-08T13:51:50-04:00
; #@! TF.GenerationSoftware,Kicad,Pcbnew,5.1.6
FMAT,2
INCH
T1C0.0400
%
G90
G05
T1
X020559Y-033346
X021559Y-033346
X022559Y-033346
X023559Y-033346
X024559Y-033346
X025559Y-033346
X026559Y-033346
X027559Y-033346
X028559Y-033346
X029559Y-033346
X030559Y-033346
X031559Y-033346
X032559Y-033346
X033559Y-033346
X034559Y-033346
X020559Y-023130
X021559Y-023130
X022559Y-023130
X023559Y-023130
X024559Y-023130
X025559Y-023130
X026559Y-023130
X027559Y-023130
X028559Y-023130
X029559Y-023130
X030559Y-023130
X031559Y-023130
X032559Y-023130
X033559Y-023130
X034559Y-023130
T0
M30
