G04 (created by PCBNEW (2013-mar-13)-testing) date Wed 08 Oct 2014 05:14:40 PM PDT*
%MOIN*%
G04 Gerber Fmt 3.4, Leading zero omitted, Abs format*
%FSLAX34Y34*%
G01*
G70*
G90*
G04 APERTURE LIST*
%ADD10C,0.005906*%
%ADD11C,0.100000*%
%ADD12R,0.060000X0.060000*%
%ADD13C,0.060000*%
%ADD14C,0.130000*%
%ADD15C,0.145669*%
%ADD16C,0.047244*%
%ADD17C,0.076000*%
%ADD18C,0.140000*%
%ADD19C,0.160000*%
G04 APERTURE END LIST*
G54D10*
G54D11*
X29559Y-27137D03*
X31559Y-27137D03*
X45700Y-27137D03*
X47700Y-27137D03*
X61448Y-27137D03*
X63448Y-27137D03*
X77590Y-27137D03*
X79590Y-27137D03*
X92944Y-27137D03*
X94944Y-27137D03*
G54D12*
X38527Y-35208D03*
G54D13*
X38527Y-34208D03*
X43527Y-35208D03*
X39527Y-34208D03*
X44527Y-35208D03*
X40527Y-34208D03*
X45527Y-35208D03*
X41527Y-34208D03*
X46527Y-35208D03*
X42527Y-34208D03*
X47527Y-35208D03*
X43527Y-34208D03*
X48527Y-35208D03*
X44527Y-34208D03*
X49527Y-35208D03*
X45527Y-34208D03*
X50527Y-35208D03*
X46527Y-34208D03*
X51527Y-35208D03*
X47527Y-34208D03*
X52527Y-35208D03*
X48527Y-34208D03*
X53527Y-35208D03*
X49527Y-34208D03*
X50527Y-34208D03*
X54527Y-35208D03*
X51527Y-34208D03*
X53527Y-34208D03*
X54527Y-34208D03*
X55527Y-34208D03*
X56527Y-34208D03*
X55527Y-35208D03*
X56527Y-35208D03*
X39527Y-35208D03*
X40527Y-35208D03*
X41527Y-35208D03*
X42527Y-35208D03*
X57527Y-35208D03*
X57527Y-34208D03*
X52527Y-34208D03*
G54D12*
X20460Y-22874D03*
G54D13*
X21460Y-22874D03*
X22460Y-22874D03*
X23460Y-22874D03*
X24460Y-22874D03*
X25460Y-22874D03*
X26460Y-22874D03*
X27460Y-22874D03*
X28460Y-22874D03*
X29460Y-22874D03*
X30460Y-22874D03*
X31460Y-22874D03*
X32460Y-22874D03*
X33460Y-22874D03*
X34460Y-22874D03*
G54D12*
X36248Y-22874D03*
G54D13*
X37248Y-22874D03*
X38248Y-22874D03*
X39248Y-22874D03*
X40248Y-22874D03*
X41248Y-22874D03*
X42248Y-22874D03*
X43248Y-22874D03*
X44248Y-22874D03*
X45248Y-22874D03*
X46248Y-22874D03*
X47248Y-22874D03*
X48248Y-22874D03*
X49248Y-22874D03*
X50248Y-22874D03*
G54D12*
X52035Y-22874D03*
G54D13*
X53035Y-22874D03*
X54035Y-22874D03*
X55035Y-22874D03*
X56035Y-22874D03*
X57035Y-22874D03*
X58035Y-22874D03*
X59035Y-22874D03*
X60035Y-22874D03*
X61035Y-22874D03*
X62035Y-22874D03*
X63035Y-22874D03*
X64035Y-22874D03*
X65035Y-22874D03*
X66035Y-22874D03*
G54D12*
X67822Y-22874D03*
G54D13*
X68822Y-22874D03*
X69822Y-22874D03*
X70822Y-22874D03*
X71822Y-22874D03*
X72822Y-22874D03*
X73822Y-22874D03*
X74822Y-22874D03*
X75822Y-22874D03*
X76822Y-22874D03*
X77822Y-22874D03*
X78822Y-22874D03*
X79822Y-22874D03*
X80822Y-22874D03*
X81822Y-22874D03*
G54D12*
X83610Y-22874D03*
G54D13*
X84610Y-22874D03*
X85610Y-22874D03*
X86610Y-22874D03*
X87610Y-22874D03*
X88610Y-22874D03*
X89610Y-22874D03*
X90610Y-22874D03*
X91610Y-22874D03*
X92610Y-22874D03*
X93610Y-22874D03*
X94610Y-22874D03*
X95610Y-22874D03*
X96610Y-22874D03*
X97610Y-22874D03*
G54D12*
X99397Y-22874D03*
G54D13*
X100397Y-22874D03*
X101397Y-22874D03*
X102397Y-22874D03*
X103397Y-22874D03*
X104397Y-22874D03*
X105397Y-22874D03*
X106397Y-22874D03*
X107397Y-22874D03*
X108397Y-22874D03*
X109397Y-22874D03*
X110397Y-22874D03*
X111397Y-22874D03*
X112397Y-22874D03*
X113397Y-22874D03*
G54D14*
X117125Y-25590D03*
X16732Y-38385D03*
X117125Y-38385D03*
X66929Y-25590D03*
X66929Y-38385D03*
X16732Y-25590D03*
G54D15*
X90765Y-37163D03*
X113564Y-37163D03*
G54D16*
X93915Y-35663D03*
X94415Y-36413D03*
X94915Y-35663D03*
X95415Y-36413D03*
X95915Y-35663D03*
X96415Y-36413D03*
X96915Y-35663D03*
X97415Y-36413D03*
X97915Y-35663D03*
X98415Y-36413D03*
X98915Y-35663D03*
X99415Y-36413D03*
X99915Y-35663D03*
X100415Y-36413D03*
X100915Y-35663D03*
X101415Y-36413D03*
X101915Y-35663D03*
X102415Y-36413D03*
X102915Y-35663D03*
X103415Y-36413D03*
X103915Y-35663D03*
X104415Y-36413D03*
X104915Y-35663D03*
X105415Y-36413D03*
X105915Y-35663D03*
X106415Y-36413D03*
X106915Y-35663D03*
X107415Y-36413D03*
X107915Y-35663D03*
X108415Y-36413D03*
X108915Y-35663D03*
X109415Y-36413D03*
X109915Y-35663D03*
X110415Y-36413D03*
X93915Y-37163D03*
X94415Y-37913D03*
X94915Y-37163D03*
X95415Y-37913D03*
X95915Y-37163D03*
X96415Y-37913D03*
X96915Y-37163D03*
X97415Y-37913D03*
X97915Y-37163D03*
X98415Y-37913D03*
X98915Y-37163D03*
X99415Y-37913D03*
X99915Y-37163D03*
X100415Y-37913D03*
X100915Y-37163D03*
X101415Y-37913D03*
X101915Y-37163D03*
X102415Y-37913D03*
X102915Y-37163D03*
X103415Y-37913D03*
X103915Y-37163D03*
X104415Y-37913D03*
X104915Y-37163D03*
X105415Y-37913D03*
X105915Y-37163D03*
X106415Y-37913D03*
X106915Y-37163D03*
X107415Y-37913D03*
X107915Y-37163D03*
X108415Y-37913D03*
X108915Y-37163D03*
X109415Y-37913D03*
X109915Y-37163D03*
X110415Y-37913D03*
G54D17*
X22637Y-38178D03*
G54D18*
X22637Y-36998D03*
G54D19*
X22637Y-34638D03*
G54D18*
X24407Y-37388D03*
X20867Y-37388D03*
G54D11*
X29480Y-36377D03*
X31350Y-36377D03*
X33220Y-36377D03*
G54D12*
X63011Y-35137D03*
G54D13*
X63011Y-34137D03*
X68011Y-35137D03*
X64011Y-34137D03*
X69011Y-35137D03*
X65011Y-34137D03*
X70011Y-35137D03*
X66011Y-34137D03*
X71011Y-35137D03*
X67011Y-34137D03*
X72011Y-35137D03*
X68011Y-34137D03*
X73011Y-35137D03*
X69011Y-34137D03*
X74011Y-35137D03*
X70011Y-34137D03*
X75011Y-35137D03*
X71011Y-34137D03*
X76011Y-35137D03*
X72011Y-34137D03*
X77011Y-35137D03*
X73011Y-34137D03*
X78011Y-35137D03*
X74011Y-34137D03*
X75011Y-34137D03*
X79011Y-35137D03*
X76011Y-34137D03*
X78011Y-34137D03*
X79011Y-34137D03*
X80011Y-34137D03*
X81011Y-34137D03*
X80011Y-35137D03*
X81011Y-35137D03*
X64011Y-35137D03*
X65011Y-35137D03*
X66011Y-35137D03*
X67011Y-35137D03*
X82011Y-35137D03*
X82011Y-34137D03*
X77011Y-34137D03*
M02*
