%TF.GenerationSoftware,KiCad,Pcbnew,7.0.2-6a45011f42~172~ubuntu22.04.1*%
%TF.CreationDate,2023-05-29T22:59:09-07:00*%
%TF.ProjectId,comm_v0p5,636f6d6d-5f76-4307-9035-2e6b69636164,rev?*%
%TF.SameCoordinates,Original*%
%TF.FileFunction,Copper,L4,Bot*%
%TF.FilePolarity,Positive*%
%FSLAX46Y46*%
G04 Gerber Fmt 4.6, Leading zero omitted, Abs format (unit mm)*
G04 Created by KiCad (PCBNEW 7.0.2-6a45011f42~172~ubuntu22.04.1) date 2023-05-29 22:59:09*
%MOMM*%
%LPD*%
G01*
G04 APERTURE LIST*
G04 Aperture macros list*
%AMRoundRect*
0 Rectangle with rounded corners*
0 $1 Rounding radius*
0 $2 $3 $4 $5 $6 $7 $8 $9 X,Y pos of 4 corners*
0 Add a 4 corners polygon primitive as box body*
4,1,4,$2,$3,$4,$5,$6,$7,$8,$9,$2,$3,0*
0 Add four circle primitives for the rounded corners*
1,1,$1+$1,$2,$3*
1,1,$1+$1,$4,$5*
1,1,$1+$1,$6,$7*
1,1,$1+$1,$8,$9*
0 Add four rect primitives between the rounded corners*
20,1,$1+$1,$2,$3,$4,$5,0*
20,1,$1+$1,$4,$5,$6,$7,0*
20,1,$1+$1,$6,$7,$8,$9,0*
20,1,$1+$1,$8,$9,$2,$3,0*%
G04 Aperture macros list end*
%TA.AperFunction,ComponentPad*%
%ADD10R,1.700000X1.700000*%
%TD*%
%TA.AperFunction,ComponentPad*%
%ADD11O,1.700000X1.700000*%
%TD*%
%TA.AperFunction,SMDPad,CuDef*%
%ADD12R,2.000000X1.500000*%
%TD*%
%TA.AperFunction,SMDPad,CuDef*%
%ADD13R,2.000000X3.800000*%
%TD*%
%TA.AperFunction,SMDPad,CuDef*%
%ADD14RoundRect,0.250000X-1.075000X-0.550000X1.075000X-0.550000X1.075000X0.550000X-1.075000X0.550000X0*%
%TD*%
%TA.AperFunction,ViaPad*%
%ADD15C,0.600000*%
%TD*%
%TA.AperFunction,ViaPad*%
%ADD16C,1.000000*%
%TD*%
%TA.AperFunction,Conductor*%
%ADD17C,0.200000*%
%TD*%
%TA.AperFunction,Conductor*%
%ADD18C,0.300000*%
%TD*%
%TA.AperFunction,Conductor*%
%ADD19C,0.800000*%
%TD*%
G04 APERTURE END LIST*
D10*
%TO.P,J4,1,Pin_1*%
%TO.N,+5V*%
X55230000Y-62230000D03*
D11*
%TO.P,J4,2,Pin_2*%
%TO.N,/B1_CS0*%
X57770000Y-62230000D03*
%TO.P,J4,3,Pin_3*%
%TO.N,/B1_SCK*%
X55230000Y-64770000D03*
%TO.P,J4,4,Pin_4*%
%TO.N,/RESET_DRV0*%
X57770000Y-64770000D03*
%TD*%
D10*
%TO.P,J6,1,Pin_1*%
%TO.N,/B1_MOSI*%
X82230000Y-62230000D03*
D11*
%TO.P,J6,2,Pin_2*%
%TO.N,unconnected-(J6-Pin_2-Pad2)*%
X84770000Y-62230000D03*
%TO.P,J6,3,Pin_3*%
%TO.N,/B1_CS2*%
X82230000Y-64770000D03*
%TO.P,J6,4,Pin_4*%
%TO.N,/RESET_DRV2*%
X84770000Y-64770000D03*
%TD*%
D10*
%TO.P,J5,1,Pin_1*%
%TO.N,/B1_MISO*%
X55230000Y-78230000D03*
D11*
%TO.P,J5,2,Pin_2*%
%TO.N,/B1_CS1*%
X57770000Y-78230000D03*
%TO.P,J5,3,Pin_3*%
%TO.N,unconnected-(J5-Pin_3-Pad3)*%
X55230000Y-80770000D03*
%TO.P,J5,4,Pin_4*%
%TO.N,/RESET_DRV1*%
X57770000Y-80770000D03*
%TD*%
D10*
%TO.P,J7,1,Pin_1*%
%TO.N,/RESET_DRV3*%
X82230000Y-78230000D03*
D11*
%TO.P,J7,2,Pin_2*%
%TO.N,/B1_CS3*%
X84770000Y-78230000D03*
%TO.P,J7,3,Pin_3*%
%TO.N,GND*%
X82230000Y-80770000D03*
%TO.P,J7,4,Pin_4*%
%TO.N,unconnected-(J7-Pin_4-Pad4)*%
X84770000Y-80770000D03*
%TD*%
D10*
%TO.P,J1,1,Pin_1*%
%TO.N,/EXT_INT0*%
X87780000Y-84700000D03*
D11*
%TO.P,J1,2,Pin_2*%
%TO.N,/B0_CS7*%
X85240000Y-84700000D03*
%TO.P,J1,3,Pin_3*%
%TO.N,/B0_CS6*%
X82700000Y-84700000D03*
%TO.P,J1,4,Pin_4*%
%TO.N,/B0_CS5*%
X80160000Y-84700000D03*
%TO.P,J1,5,Pin_5*%
%TO.N,/B0_CS4*%
X77620000Y-84700000D03*
%TO.P,J1,6,Pin_6*%
%TO.N,/B0_CS3*%
X75080000Y-84700000D03*
%TO.P,J1,7,Pin_7*%
%TO.N,/B0_CS2*%
X72540000Y-84700000D03*
%TO.P,J1,8,Pin_8*%
%TO.N,/B0_CS1*%
X70000000Y-84700000D03*
%TO.P,J1,9,Pin_9*%
%TO.N,/B0_CS0*%
X67460000Y-84700000D03*
%TO.P,J1,10,Pin_10*%
%TO.N,/B0_MISO*%
X64920000Y-84700000D03*
%TO.P,J1,11,Pin_11*%
%TO.N,/B0_MOSI*%
X62380000Y-84700000D03*
%TO.P,J1,12,Pin_12*%
%TO.N,/B0_SCK*%
X59840000Y-84700000D03*
%TO.P,J1,13,Pin_13*%
%TO.N,/RESET_MSTR*%
X57300000Y-84700000D03*
%TO.P,J1,14,Pin_14*%
%TO.N,GND*%
X54760000Y-84700000D03*
%TO.P,J1,15,Pin_15*%
%TO.N,/VIN*%
X52220000Y-84700000D03*
%TD*%
D10*
%TO.P,J2,1,Pin_1*%
%TO.N,/EXT_INT0*%
X87780000Y-58750000D03*
D11*
%TO.P,J2,2,Pin_2*%
%TO.N,unconnected-(J2-Pin_2-Pad2)*%
X85240000Y-58750000D03*
%TO.P,J2,3,Pin_3*%
%TO.N,/B0_CS7*%
X82700000Y-58750000D03*
%TO.P,J2,4,Pin_4*%
%TO.N,/B0_CS6*%
X80160000Y-58750000D03*
%TO.P,J2,5,Pin_5*%
%TO.N,/B0_CS5*%
X77620000Y-58750000D03*
%TO.P,J2,6,Pin_6*%
%TO.N,/B0_CS4*%
X75080000Y-58750000D03*
%TO.P,J2,7,Pin_7*%
%TO.N,/B0_CS3*%
X72540000Y-58750000D03*
%TO.P,J2,8,Pin_8*%
%TO.N,/B0_CS2*%
X70000000Y-58750000D03*
%TO.P,J2,9,Pin_9*%
%TO.N,/B0_CS1*%
X67460000Y-58750000D03*
%TO.P,J2,10,Pin_10*%
%TO.N,/B0_MISO*%
X64920000Y-58750000D03*
%TO.P,J2,11,Pin_11*%
%TO.N,/B0_MOSI*%
X62380000Y-58750000D03*
%TO.P,J2,12,Pin_12*%
%TO.N,/B0_SCK*%
X59840000Y-58750000D03*
%TO.P,J2,13,Pin_13*%
%TO.N,/RESET_MSTR*%
X57300000Y-58750000D03*
%TO.P,J2,14,Pin_14*%
%TO.N,GND*%
X54760000Y-58750000D03*
%TO.P,J2,15,Pin_15*%
%TO.N,/VIN*%
X52220000Y-58750000D03*
%TD*%
D12*
%TO.P,U2,1,GND*%
%TO.N,GND*%
X56286000Y-73928000D03*
%TO.P,U2,2,VO*%
%TO.N,+5V*%
X56286000Y-71628000D03*
D13*
X62586000Y-71628000D03*
D12*
%TO.P,U2,3,VI*%
%TO.N,/VIN*%
X56286000Y-69328000D03*
%TD*%
D14*
%TO.P,C3,1*%
%TO.N,/VIN*%
X62333000Y-65024000D03*
%TO.P,C3,2*%
%TO.N,GND*%
X65683000Y-65024000D03*
%TD*%
%TO.P,C4,1*%
%TO.N,+5V*%
X62333000Y-78232000D03*
%TO.P,C4,2*%
%TO.N,GND*%
X65683000Y-78232000D03*
%TD*%
D15*
%TO.N,+5V*%
X78892400Y-76750400D03*
X72999600Y-69062600D03*
%TO.N,/B0_CS0*%
X73812400Y-75971400D03*
%TO.N,/B0_CS1*%
X71367200Y-67400500D03*
X70542100Y-72324500D03*
%TO.N,/B0_CS2*%
X79556400Y-73156800D03*
%TO.N,/B0_MISO*%
X65693300Y-63276500D03*
X65239300Y-73834600D03*
%TO.N,/B0_MOSI*%
X65693300Y-72250400D03*
X62821800Y-63101400D03*
%TO.N,/B1_CS2*%
X72161400Y-74269600D03*
X78613000Y-67868800D03*
%TO.N,/B1_CS3*%
X72923400Y-74904600D03*
X77791300Y-78276700D03*
%TO.N,/B1_MISO*%
X72669400Y-66852800D03*
X77722300Y-70026800D03*
%TO.N,/RESET_DRV0*%
X79047300Y-74370200D03*
%TO.N,/RESET_DRV3*%
X82143600Y-67894200D03*
%TO.N,/RESET_MSTR*%
X76252300Y-65746000D03*
X79918587Y-69122439D03*
D16*
%TO.N,GND*%
X67970400Y-65024000D03*
D15*
X72415400Y-69646800D03*
X79527400Y-76022200D03*
D16*
X54051200Y-73914000D03*
X68249800Y-78232000D03*
D15*
X71196200Y-70383400D03*
D16*
%TO.N,/VIN*%
X54051200Y-69316600D03*
%TD*%
D17*
%TO.N,+5V*%
X70358000Y-71628000D02*
X70323800Y-71628000D01*
D18*
X78884000Y-76750400D02*
X73761600Y-71628000D01*
X78892400Y-76750400D02*
X78884000Y-76750400D01*
D17*
X70323800Y-71628000D02*
X69799200Y-71628000D01*
D19*
X62586000Y-71628000D02*
X62586000Y-77979000D01*
X53289200Y-71628000D02*
X52700000Y-71038800D01*
D17*
X71212000Y-71628000D02*
X70510400Y-71628000D01*
D19*
X56286000Y-71628000D02*
X53289200Y-71628000D01*
D18*
X71212000Y-71628000D02*
X70510400Y-71628000D01*
X62586000Y-71628000D02*
X69799200Y-71628000D01*
X73761600Y-71628000D02*
X71212000Y-71628000D01*
X69799200Y-71628000D02*
X70323800Y-71628000D01*
D19*
X52700000Y-64080000D02*
X54550000Y-62230000D01*
X54550000Y-62230000D02*
X55230000Y-62230000D01*
X52700000Y-71038800D02*
X52700000Y-64080000D01*
D17*
X70358000Y-71628000D02*
X70323800Y-71628000D01*
D19*
X56286000Y-71628000D02*
X62586000Y-71628000D01*
D17*
X72999600Y-69840400D02*
X71212000Y-71628000D01*
X70510400Y-71628000D02*
X70358000Y-71628000D01*
D19*
X62586000Y-77979000D02*
X62333000Y-78232000D01*
D17*
X72999600Y-69062600D02*
X72999600Y-69840400D01*
%TO.N,/B0_CS0*%
X73812400Y-76957600D02*
X73812400Y-75971400D01*
X67460000Y-83310000D02*
X73812400Y-76957600D01*
X67460000Y-84700000D02*
X67460000Y-83310000D01*
%TO.N,/B0_CS1*%
X71450200Y-75615800D02*
X73050400Y-75615800D01*
X67460000Y-59850100D02*
X71367200Y-63757300D01*
X73050400Y-75615800D02*
X73301900Y-75364300D01*
X73301900Y-75364300D02*
X74309200Y-75364300D01*
X70542100Y-74707700D02*
X71450200Y-75615800D01*
X74661300Y-75716400D02*
X74661300Y-78938600D01*
X71367200Y-63757300D02*
X71367200Y-67400500D01*
X67460000Y-58750000D02*
X67460000Y-59850100D01*
X74309200Y-75364300D02*
X74661300Y-75716400D01*
X70542100Y-72324500D02*
X70542100Y-74707700D01*
X74661300Y-78938600D02*
X70000000Y-83599900D01*
X70000000Y-83599900D02*
X70000000Y-84700000D01*
%TO.N,/B0_CS2*%
X76039600Y-66743200D02*
X79556400Y-70260000D01*
X70000000Y-61182107D02*
X75561093Y-66743200D01*
X75561093Y-66743200D02*
X76039600Y-66743200D01*
X70000000Y-58750000D02*
X70000000Y-61182107D01*
X79556400Y-70260000D02*
X79556400Y-73156800D01*
%TO.N,/B0_CS3*%
X81407000Y-75743000D02*
X81407000Y-69857767D01*
X81407000Y-69857767D02*
X80391000Y-68841767D01*
X80391000Y-67581000D02*
X72540000Y-59730000D01*
X72540000Y-59730000D02*
X72540000Y-58750000D01*
X75080000Y-84700000D02*
X75080000Y-82070000D01*
X80391000Y-68841767D02*
X80391000Y-67581000D01*
X75080000Y-82070000D02*
X81407000Y-75743000D01*
%TO.N,/B0_CS4*%
X77620000Y-84700000D02*
X77620000Y-81710000D01*
X82240000Y-75570000D02*
X82240000Y-69850000D01*
X75080000Y-61250000D02*
X75080000Y-58750000D01*
X77620000Y-81710000D02*
X79420000Y-79910000D01*
X80741000Y-68351000D02*
X80741000Y-66911000D01*
X79420000Y-79910000D02*
X79420000Y-78390000D01*
X80741000Y-66911000D02*
X75080000Y-61250000D01*
X82240000Y-69850000D02*
X80741000Y-68351000D01*
X79420000Y-78390000D02*
X82240000Y-75570000D01*
%TO.N,/B0_CS5*%
X81110200Y-67810200D02*
X83130000Y-69830000D01*
X77620000Y-58750000D02*
X77620000Y-62690000D01*
X83130000Y-69830000D02*
X83130000Y-75174974D01*
X80160000Y-78144974D02*
X80160000Y-84700000D01*
X83130000Y-75174974D02*
X80160000Y-78144974D01*
X81110200Y-66180200D02*
X81110200Y-67810200D01*
X77620000Y-62690000D02*
X81110200Y-66180200D01*
%TO.N,/B0_CS6*%
X83670000Y-82030000D02*
X83670000Y-77774365D01*
X80160000Y-64500000D02*
X80160000Y-58750000D01*
X83670000Y-77774365D02*
X85242400Y-76201965D01*
X82700000Y-83000000D02*
X83670000Y-82030000D01*
X85242400Y-69582400D02*
X80160000Y-64500000D01*
X85242400Y-76201965D02*
X85242400Y-69582400D01*
X82700000Y-84700000D02*
X82700000Y-83000000D01*
%TO.N,/B0_CS7*%
X86588600Y-69746800D02*
X86588600Y-82251300D01*
X85240000Y-83599900D02*
X85240000Y-84700000D01*
X83477900Y-60628000D02*
X83477900Y-66636100D01*
X83477900Y-66636100D02*
X86588600Y-69746800D01*
X86588600Y-82251300D02*
X85240000Y-83599900D01*
X82700000Y-59850100D02*
X83477900Y-60628000D01*
X82700000Y-58750000D02*
X82700000Y-59850100D01*
%TO.N,/B0_MISO*%
X64920000Y-62503200D02*
X64920000Y-58750000D01*
X69052800Y-77648100D02*
X65239300Y-73834600D01*
X64920000Y-84700000D02*
X64920000Y-83355100D01*
X65693300Y-63276500D02*
X64920000Y-62503200D01*
X64920000Y-83355100D02*
X69052800Y-79222300D01*
X69052800Y-79222300D02*
X69052800Y-77648100D01*
%TO.N,/B0_MOSI*%
X62380000Y-62659600D02*
X62821800Y-63101400D01*
X62380000Y-83599900D02*
X64106900Y-81873000D01*
X64106900Y-73836800D02*
X65693300Y-72250400D01*
X62380000Y-84700000D02*
X62380000Y-83599900D01*
X62380000Y-58750000D02*
X62380000Y-62659600D01*
X64106900Y-81873000D02*
X64106900Y-73836800D01*
%TO.N,/B0_SCK*%
X59840000Y-84700000D02*
X59840000Y-76970000D01*
X59430000Y-60600000D02*
X59840000Y-60190000D01*
X53780000Y-60600000D02*
X59430000Y-60600000D01*
X58990000Y-76120000D02*
X52890000Y-76120000D01*
X51740000Y-62640000D02*
X53780000Y-60600000D01*
X59840000Y-76970000D02*
X58990000Y-76120000D01*
X51740000Y-74970000D02*
X51740000Y-62640000D01*
X52890000Y-76120000D02*
X51740000Y-74970000D01*
X59840000Y-60190000D02*
X59840000Y-58750000D01*
%TO.N,/B1_CS2*%
X78595600Y-68638800D02*
X80645000Y-70688200D01*
X78212700Y-77303800D02*
X75194700Y-74285800D01*
X72177600Y-74285800D02*
X72161400Y-74269600D01*
X80645000Y-70688200D02*
X80645000Y-75861500D01*
X80645000Y-75861500D02*
X79202700Y-77303800D01*
X79202700Y-77303800D02*
X78212700Y-77303800D01*
X78613000Y-67868800D02*
X78595600Y-67886200D01*
X78595600Y-67886200D02*
X78595600Y-68638800D01*
X75194700Y-74285800D02*
X72177600Y-74285800D01*
%TO.N,/B1_CS3*%
X74419200Y-74904600D02*
X77791300Y-78276700D01*
X72923400Y-74904600D02*
X74419200Y-74904600D01*
%TO.N,/B1_MISO*%
X74548300Y-66852800D02*
X77722300Y-70026800D01*
X72669400Y-66852800D02*
X74548300Y-66852800D01*
%TO.N,/EXT_INT0*%
X87780000Y-58750000D02*
X87780000Y-84700000D01*
%TO.N,/RESET_DRV0*%
X66793100Y-68504000D02*
X73265000Y-68504000D01*
X64007900Y-64349400D02*
X64007900Y-65718800D01*
X73265000Y-68504000D02*
X79047300Y-74286300D01*
X79047300Y-74286300D02*
X79047300Y-74370200D01*
X58870100Y-64770000D02*
X59667300Y-63972800D01*
X64007900Y-65718800D02*
X66793100Y-68504000D01*
X57770000Y-64770000D02*
X58870100Y-64770000D01*
X63631300Y-63972800D02*
X64007900Y-64349400D01*
X59667300Y-63972800D02*
X63631300Y-63972800D01*
%TO.N,/RESET_DRV3*%
X82143600Y-67894200D02*
X84048600Y-69799200D01*
X84048600Y-69799200D02*
X84048600Y-75311300D01*
X82230000Y-77129900D02*
X82230000Y-78230000D01*
X84048600Y-75311300D02*
X82230000Y-77129900D01*
%TO.N,/RESET_MSTR*%
X50970000Y-61600000D02*
X52700000Y-59870000D01*
X57300000Y-84700000D02*
X57300000Y-83570000D01*
X56970000Y-83240000D02*
X53110000Y-83240000D01*
X56790000Y-59870000D02*
X57300000Y-59360000D01*
X57300000Y-83570000D02*
X56970000Y-83240000D01*
X53110000Y-83240000D02*
X50970000Y-81100000D01*
X57300000Y-59360000D02*
X57300000Y-58750000D01*
X77658600Y-65746000D02*
X76252300Y-65746000D01*
X52700000Y-59870000D02*
X56790000Y-59870000D01*
X79908400Y-69112252D02*
X79908400Y-67995800D01*
X79908400Y-67995800D02*
X77658600Y-65746000D01*
X79918587Y-69122439D02*
X79908400Y-69112252D01*
X50970000Y-81100000D02*
X50970000Y-61600000D01*
D19*
%TO.N,GND*%
X65683000Y-65024000D02*
X67970400Y-65024000D01*
X65683000Y-78232000D02*
X68249800Y-78232000D01*
X56286000Y-73928000D02*
X54065200Y-73928000D01*
X54065200Y-73928000D02*
X54051200Y-73914000D01*
%TO.N,/VIN*%
X56286000Y-69328000D02*
X59145200Y-69328000D01*
X59145200Y-69328000D02*
X62333000Y-66140200D01*
X54062600Y-69328000D02*
X54051200Y-69316600D01*
X56286000Y-69328000D02*
X54062600Y-69328000D01*
X62333000Y-66140200D02*
X62333000Y-65024000D01*
%TD*%
M02*
