%TF.GenerationSoftware,KiCad,Pcbnew,7.0.8-7.0.8~ubuntu22.04.1*%
%TF.CreationDate,2023-11-12T15:46:43-08:00*%
%TF.ProjectId,comm_v0p6,636f6d6d-5f76-4307-9036-2e6b69636164,rev?*%
%TF.SameCoordinates,Original*%
%TF.FileFunction,Copper,L3,Inr*%
%TF.FilePolarity,Positive*%
%FSLAX46Y46*%
G04 Gerber Fmt 4.6, Leading zero omitted, Abs format (unit mm)*
G04 Created by KiCad (PCBNEW 7.0.8-7.0.8~ubuntu22.04.1) date 2023-11-12 15:46:43*
%MOMM*%
%LPD*%
G01*
G04 APERTURE LIST*
%TA.AperFunction,ComponentPad*%
%ADD10R,1.700000X1.700000*%
%TD*%
%TA.AperFunction,ComponentPad*%
%ADD11O,1.700000X1.700000*%
%TD*%
%TA.AperFunction,ViaPad*%
%ADD12C,0.600000*%
%TD*%
%TA.AperFunction,ViaPad*%
%ADD13C,1.000000*%
%TD*%
G04 APERTURE END LIST*
D10*
%TO.N,+5V*%
%TO.C,J4*%
X55230000Y-62230000D03*
D11*
%TO.N,/B1_CS0*%
X57770000Y-62230000D03*
%TO.N,/B1_SCK*%
X55230000Y-64770000D03*
%TO.N,/RESET_DRV0*%
X57770000Y-64770000D03*
%TD*%
D10*
%TO.N,/B1_MOSI*%
%TO.C,J6*%
X82230000Y-62230000D03*
D11*
%TO.N,unconnected-(J6-Pin_2-Pad2)*%
X84770000Y-62230000D03*
%TO.N,/B1_CS2*%
X82230000Y-64770000D03*
%TO.N,/RESET_DRV2*%
X84770000Y-64770000D03*
%TD*%
D10*
%TO.N,/B1_MISO*%
%TO.C,J5*%
X55230000Y-78230000D03*
D11*
%TO.N,/B1_CS1*%
X57770000Y-78230000D03*
%TO.N,unconnected-(J5-Pin_3-Pad3)*%
X55230000Y-80770000D03*
%TO.N,/RESET_DRV1*%
X57770000Y-80770000D03*
%TD*%
D10*
%TO.N,/RESET_DRV3*%
%TO.C,J7*%
X82230000Y-78230000D03*
D11*
%TO.N,/B1_CS3*%
X84770000Y-78230000D03*
%TO.N,GND*%
X82230000Y-80770000D03*
%TO.N,unconnected-(J7-Pin_4-Pad4)*%
X84770000Y-80770000D03*
%TD*%
%TO.N,+5V*%
%TO.C,J1*%
X52220000Y-84700000D03*
%TO.N,GND*%
X54760000Y-84700000D03*
%TO.N,/RESET_MSTR*%
X57300000Y-84700000D03*
%TO.N,/B0_SCK*%
X59840000Y-84700000D03*
%TO.N,/B0_MOSI*%
X62380000Y-84700000D03*
%TO.N,/B0_MISO*%
X64920000Y-84700000D03*
%TO.N,/B0_CS0*%
X67460000Y-84700000D03*
%TO.N,/B0_CS1*%
X70000000Y-84700000D03*
%TO.N,/B0_CS2*%
X72540000Y-84700000D03*
%TO.N,/B0_CS3*%
X75080000Y-84700000D03*
%TO.N,/B0_CS4*%
X77620000Y-84700000D03*
%TO.N,/B0_CS5*%
X80160000Y-84700000D03*
%TO.N,/B0_CS6*%
X82700000Y-84700000D03*
%TO.N,/B0_CS7*%
X85240000Y-84700000D03*
D10*
%TO.N,/EXT_INT0*%
X87780000Y-84700000D03*
%TD*%
%TO.N,/EXT_INT0*%
%TO.C,J2*%
X87780000Y-58750000D03*
D11*
%TO.N,unconnected-(J2-Pin_2-Pad2)*%
X85240000Y-58750000D03*
%TO.N,/B0_CS7*%
X82700000Y-58750000D03*
%TO.N,/B0_CS6*%
X80160000Y-58750000D03*
%TO.N,/B0_CS5*%
X77620000Y-58750000D03*
%TO.N,/B0_CS4*%
X75080000Y-58750000D03*
%TO.N,/B0_CS3*%
X72540000Y-58750000D03*
%TO.N,/B0_CS2*%
X70000000Y-58750000D03*
%TO.N,/B0_CS1*%
X67460000Y-58750000D03*
%TO.N,/B0_MISO*%
X64920000Y-58750000D03*
%TO.N,/B0_MOSI*%
X62380000Y-58750000D03*
%TO.N,/B0_SCK*%
X59840000Y-58750000D03*
%TO.N,/RESET_MSTR*%
X57300000Y-58750000D03*
%TO.N,GND*%
X54760000Y-58750000D03*
%TO.N,+5V*%
X52220000Y-58750000D03*
%TD*%
D12*
%TO.N,+5V*%
X67995800Y-67808700D03*
D13*
X53924200Y-71628000D03*
D12*
X73710800Y-75514200D03*
%TO.N,/B0_CS0*%
X66497200Y-79451200D03*
%TO.N,/B1_CS2*%
X67173537Y-73488410D03*
X74761800Y-70731500D03*
%TO.N,/B1_CS3*%
X73126600Y-79502000D03*
X65303400Y-78486000D03*
%TO.N,/B1_MISO*%
X72446600Y-68779500D03*
X64055100Y-70131200D03*
%TO.N,/B1_SCK*%
X68148200Y-64566800D03*
X69231300Y-67520500D03*
%TO.N,/RESET_DRV0*%
X65328800Y-63398400D03*
X73985900Y-73268300D03*
%TO.N,/RESET_MSTR*%
X72062400Y-65557400D03*
X74345800Y-67843400D03*
%TO.N,GND*%
X72898000Y-65354200D03*
X64643000Y-79070200D03*
X74786900Y-73609200D03*
X72542400Y-80137000D03*
X67843400Y-65354200D03*
X64643000Y-64008000D03*
X74396600Y-74803000D03*
X64185800Y-71018400D03*
D13*
X58978800Y-71628000D03*
D12*
X75260200Y-69926200D03*
X65862200Y-80010000D03*
X66446400Y-73914000D03*
X75189144Y-67609656D03*
X66167000Y-69215000D03*
X73098294Y-68160406D03*
X67310000Y-68478400D03*
%TD*%
%TA.AperFunction,Conductor*%
%TO.N,GND*%
G36*
X89443039Y-54019685D02*
G01*
X89488794Y-54072489D01*
X89500000Y-54124000D01*
X89500000Y-87876000D01*
X89480315Y-87943039D01*
X89427511Y-87988794D01*
X89376000Y-88000000D01*
X50624000Y-88000000D01*
X50556961Y-87980315D01*
X50511206Y-87927511D01*
X50500000Y-87876000D01*
X50500000Y-84700000D01*
X51110768Y-84700000D01*
X51129654Y-84903816D01*
X51185673Y-85100704D01*
X51276912Y-85283935D01*
X51400269Y-85447287D01*
X51551537Y-85585185D01*
X51551539Y-85585187D01*
X51725569Y-85692942D01*
X51725575Y-85692945D01*
X51766010Y-85708609D01*
X51916444Y-85766888D01*
X52117653Y-85804500D01*
X52117656Y-85804500D01*
X52322344Y-85804500D01*
X52322347Y-85804500D01*
X52523556Y-85766888D01*
X52714427Y-85692944D01*
X52888462Y-85585186D01*
X53039732Y-85447285D01*
X53163088Y-85283935D01*
X53248380Y-85112645D01*
X53295883Y-85061408D01*
X53363545Y-85043987D01*
X53429886Y-85065912D01*
X53473841Y-85120224D01*
X53479155Y-85135823D01*
X53486567Y-85163485D01*
X53486570Y-85163492D01*
X53586399Y-85377578D01*
X53721894Y-85571082D01*
X53888917Y-85738105D01*
X54082421Y-85873600D01*
X54296507Y-85973429D01*
X54296516Y-85973433D01*
X54510000Y-86030634D01*
X54510000Y-85135501D01*
X54617685Y-85184680D01*
X54724237Y-85200000D01*
X54795763Y-85200000D01*
X54902315Y-85184680D01*
X55010000Y-85135501D01*
X55010000Y-86030633D01*
X55223483Y-85973433D01*
X55223492Y-85973429D01*
X55437578Y-85873600D01*
X55631082Y-85738105D01*
X55798105Y-85571082D01*
X55933600Y-85377578D01*
X56033429Y-85163492D01*
X56033435Y-85163478D01*
X56040844Y-85135826D01*
X56077207Y-85076165D01*
X56140054Y-85045634D01*
X56209429Y-85053928D01*
X56263308Y-85098412D01*
X56271619Y-85112645D01*
X56356912Y-85283935D01*
X56480269Y-85447287D01*
X56631537Y-85585185D01*
X56631539Y-85585187D01*
X56805569Y-85692942D01*
X56805575Y-85692945D01*
X56846010Y-85708609D01*
X56996444Y-85766888D01*
X57197653Y-85804500D01*
X57197656Y-85804500D01*
X57402344Y-85804500D01*
X57402347Y-85804500D01*
X57603556Y-85766888D01*
X57794427Y-85692944D01*
X57968462Y-85585186D01*
X58119732Y-85447285D01*
X58243088Y-85283935D01*
X58334328Y-85100701D01*
X58390345Y-84903821D01*
X58409232Y-84700000D01*
X58730768Y-84700000D01*
X58749654Y-84903816D01*
X58805673Y-85100704D01*
X58896912Y-85283935D01*
X59020269Y-85447287D01*
X59171537Y-85585185D01*
X59171539Y-85585187D01*
X59345569Y-85692942D01*
X59345575Y-85692945D01*
X59386010Y-85708609D01*
X59536444Y-85766888D01*
X59737653Y-85804500D01*
X59737656Y-85804500D01*
X59942344Y-85804500D01*
X59942347Y-85804500D01*
X60143556Y-85766888D01*
X60334427Y-85692944D01*
X60508462Y-85585186D01*
X60659732Y-85447285D01*
X60783088Y-85283935D01*
X60874328Y-85100701D01*
X60930345Y-84903821D01*
X60949232Y-84700000D01*
X61270768Y-84700000D01*
X61289654Y-84903816D01*
X61345673Y-85100704D01*
X61436912Y-85283935D01*
X61560269Y-85447287D01*
X61711537Y-85585185D01*
X61711539Y-85585187D01*
X61885569Y-85692942D01*
X61885575Y-85692945D01*
X61926010Y-85708609D01*
X62076444Y-85766888D01*
X62277653Y-85804500D01*
X62277656Y-85804500D01*
X62482344Y-85804500D01*
X62482347Y-85804500D01*
X62683556Y-85766888D01*
X62874427Y-85692944D01*
X63048462Y-85585186D01*
X63199732Y-85447285D01*
X63323088Y-85283935D01*
X63414328Y-85100701D01*
X63470345Y-84903821D01*
X63489232Y-84700000D01*
X63810768Y-84700000D01*
X63829654Y-84903816D01*
X63885673Y-85100704D01*
X63976912Y-85283935D01*
X64100269Y-85447287D01*
X64251537Y-85585185D01*
X64251539Y-85585187D01*
X64425569Y-85692942D01*
X64425575Y-85692945D01*
X64466010Y-85708609D01*
X64616444Y-85766888D01*
X64817653Y-85804500D01*
X64817656Y-85804500D01*
X65022344Y-85804500D01*
X65022347Y-85804500D01*
X65223556Y-85766888D01*
X65414427Y-85692944D01*
X65588462Y-85585186D01*
X65739732Y-85447285D01*
X65863088Y-85283935D01*
X65954328Y-85100701D01*
X66010345Y-84903821D01*
X66029232Y-84700000D01*
X66350768Y-84700000D01*
X66369654Y-84903816D01*
X66425673Y-85100704D01*
X66516912Y-85283935D01*
X66640269Y-85447287D01*
X66791537Y-85585185D01*
X66791539Y-85585187D01*
X66965569Y-85692942D01*
X66965575Y-85692945D01*
X67006010Y-85708609D01*
X67156444Y-85766888D01*
X67357653Y-85804500D01*
X67357656Y-85804500D01*
X67562344Y-85804500D01*
X67562347Y-85804500D01*
X67763556Y-85766888D01*
X67954427Y-85692944D01*
X68128462Y-85585186D01*
X68279732Y-85447285D01*
X68403088Y-85283935D01*
X68494328Y-85100701D01*
X68550345Y-84903821D01*
X68569232Y-84700000D01*
X68890768Y-84700000D01*
X68909654Y-84903816D01*
X68965673Y-85100704D01*
X69056912Y-85283935D01*
X69180269Y-85447287D01*
X69331537Y-85585185D01*
X69331539Y-85585187D01*
X69505569Y-85692942D01*
X69505575Y-85692945D01*
X69546010Y-85708609D01*
X69696444Y-85766888D01*
X69897653Y-85804500D01*
X69897656Y-85804500D01*
X70102344Y-85804500D01*
X70102347Y-85804500D01*
X70303556Y-85766888D01*
X70494427Y-85692944D01*
X70668462Y-85585186D01*
X70819732Y-85447285D01*
X70943088Y-85283935D01*
X71034328Y-85100701D01*
X71090345Y-84903821D01*
X71109232Y-84700000D01*
X71430768Y-84700000D01*
X71449654Y-84903816D01*
X71505673Y-85100704D01*
X71596912Y-85283935D01*
X71720269Y-85447287D01*
X71871537Y-85585185D01*
X71871539Y-85585187D01*
X72045569Y-85692942D01*
X72045575Y-85692945D01*
X72086010Y-85708609D01*
X72236444Y-85766888D01*
X72437653Y-85804500D01*
X72437656Y-85804500D01*
X72642344Y-85804500D01*
X72642347Y-85804500D01*
X72843556Y-85766888D01*
X73034427Y-85692944D01*
X73208462Y-85585186D01*
X73359732Y-85447285D01*
X73483088Y-85283935D01*
X73574328Y-85100701D01*
X73630345Y-84903821D01*
X73649232Y-84700000D01*
X73970768Y-84700000D01*
X73989654Y-84903816D01*
X74045673Y-85100704D01*
X74136912Y-85283935D01*
X74260269Y-85447287D01*
X74411537Y-85585185D01*
X74411539Y-85585187D01*
X74585569Y-85692942D01*
X74585575Y-85692945D01*
X74626010Y-85708609D01*
X74776444Y-85766888D01*
X74977653Y-85804500D01*
X74977656Y-85804500D01*
X75182344Y-85804500D01*
X75182347Y-85804500D01*
X75383556Y-85766888D01*
X75574427Y-85692944D01*
X75748462Y-85585186D01*
X75899732Y-85447285D01*
X76023088Y-85283935D01*
X76114328Y-85100701D01*
X76170345Y-84903821D01*
X76189232Y-84700000D01*
X76510768Y-84700000D01*
X76529654Y-84903816D01*
X76585673Y-85100704D01*
X76676912Y-85283935D01*
X76800269Y-85447287D01*
X76951537Y-85585185D01*
X76951539Y-85585187D01*
X77125569Y-85692942D01*
X77125575Y-85692945D01*
X77166010Y-85708609D01*
X77316444Y-85766888D01*
X77517653Y-85804500D01*
X77517656Y-85804500D01*
X77722344Y-85804500D01*
X77722347Y-85804500D01*
X77923556Y-85766888D01*
X78114427Y-85692944D01*
X78288462Y-85585186D01*
X78439732Y-85447285D01*
X78563088Y-85283935D01*
X78654328Y-85100701D01*
X78710345Y-84903821D01*
X78729232Y-84700000D01*
X79050768Y-84700000D01*
X79069654Y-84903816D01*
X79125673Y-85100704D01*
X79216912Y-85283935D01*
X79340269Y-85447287D01*
X79491537Y-85585185D01*
X79491539Y-85585187D01*
X79665569Y-85692942D01*
X79665575Y-85692945D01*
X79706010Y-85708609D01*
X79856444Y-85766888D01*
X80057653Y-85804500D01*
X80057656Y-85804500D01*
X80262344Y-85804500D01*
X80262347Y-85804500D01*
X80463556Y-85766888D01*
X80654427Y-85692944D01*
X80828462Y-85585186D01*
X80979732Y-85447285D01*
X81103088Y-85283935D01*
X81194328Y-85100701D01*
X81250345Y-84903821D01*
X81269232Y-84700000D01*
X81590768Y-84700000D01*
X81609654Y-84903816D01*
X81665673Y-85100704D01*
X81756912Y-85283935D01*
X81880269Y-85447287D01*
X82031537Y-85585185D01*
X82031539Y-85585187D01*
X82205569Y-85692942D01*
X82205575Y-85692945D01*
X82246010Y-85708609D01*
X82396444Y-85766888D01*
X82597653Y-85804500D01*
X82597656Y-85804500D01*
X82802344Y-85804500D01*
X82802347Y-85804500D01*
X83003556Y-85766888D01*
X83194427Y-85692944D01*
X83368462Y-85585186D01*
X83519732Y-85447285D01*
X83643088Y-85283935D01*
X83734328Y-85100701D01*
X83790345Y-84903821D01*
X83809232Y-84700000D01*
X84130768Y-84700000D01*
X84149654Y-84903816D01*
X84205673Y-85100704D01*
X84296912Y-85283935D01*
X84420269Y-85447287D01*
X84571537Y-85585185D01*
X84571539Y-85585187D01*
X84745569Y-85692942D01*
X84745575Y-85692945D01*
X84786010Y-85708609D01*
X84936444Y-85766888D01*
X85137653Y-85804500D01*
X85137656Y-85804500D01*
X85342344Y-85804500D01*
X85342347Y-85804500D01*
X85543556Y-85766888D01*
X85734427Y-85692944D01*
X85908462Y-85585186D01*
X85919566Y-85575063D01*
X86675500Y-85575063D01*
X86690266Y-85649301D01*
X86746515Y-85733484D01*
X86780234Y-85756014D01*
X86830699Y-85789734D01*
X86830702Y-85789734D01*
X86830703Y-85789735D01*
X86855666Y-85794700D01*
X86904933Y-85804500D01*
X88655066Y-85804499D01*
X88729301Y-85789734D01*
X88813484Y-85733484D01*
X88869734Y-85649301D01*
X88884500Y-85575067D01*
X88884499Y-83824934D01*
X88869734Y-83750699D01*
X88840571Y-83707054D01*
X88813484Y-83666515D01*
X88763019Y-83632796D01*
X88729301Y-83610266D01*
X88729299Y-83610265D01*
X88729296Y-83610264D01*
X88655069Y-83595500D01*
X86904936Y-83595500D01*
X86830698Y-83610266D01*
X86746515Y-83666515D01*
X86690266Y-83750699D01*
X86690264Y-83750703D01*
X86675500Y-83824928D01*
X86675500Y-85575063D01*
X85919566Y-85575063D01*
X86059732Y-85447285D01*
X86183088Y-85283935D01*
X86274328Y-85100701D01*
X86330345Y-84903821D01*
X86349232Y-84700000D01*
X86330345Y-84496179D01*
X86274328Y-84299299D01*
X86183088Y-84116065D01*
X86059732Y-83952715D01*
X86059730Y-83952712D01*
X85908462Y-83814814D01*
X85908460Y-83814812D01*
X85734430Y-83707057D01*
X85734424Y-83707054D01*
X85583993Y-83648777D01*
X85543556Y-83633112D01*
X85342347Y-83595500D01*
X85137653Y-83595500D01*
X84936444Y-83633112D01*
X84936441Y-83633112D01*
X84936441Y-83633113D01*
X84745575Y-83707054D01*
X84745569Y-83707057D01*
X84571539Y-83814812D01*
X84571537Y-83814814D01*
X84420269Y-83952712D01*
X84296912Y-84116064D01*
X84205673Y-84299295D01*
X84149654Y-84496183D01*
X84130768Y-84699999D01*
X84130768Y-84700000D01*
X83809232Y-84700000D01*
X83790345Y-84496179D01*
X83734328Y-84299299D01*
X83643088Y-84116065D01*
X83519732Y-83952715D01*
X83519730Y-83952712D01*
X83368462Y-83814814D01*
X83368460Y-83814812D01*
X83194430Y-83707057D01*
X83194424Y-83707054D01*
X83043993Y-83648777D01*
X83003556Y-83633112D01*
X82802347Y-83595500D01*
X82597653Y-83595500D01*
X82396444Y-83633112D01*
X82396441Y-83633112D01*
X82396441Y-83633113D01*
X82205575Y-83707054D01*
X82205569Y-83707057D01*
X82031539Y-83814812D01*
X82031537Y-83814814D01*
X81880269Y-83952712D01*
X81756912Y-84116064D01*
X81665673Y-84299295D01*
X81609654Y-84496183D01*
X81590768Y-84699999D01*
X81590768Y-84700000D01*
X81269232Y-84700000D01*
X81250345Y-84496179D01*
X81194328Y-84299299D01*
X81103088Y-84116065D01*
X80979732Y-83952715D01*
X80979730Y-83952712D01*
X80828462Y-83814814D01*
X80828460Y-83814812D01*
X80654430Y-83707057D01*
X80654424Y-83707054D01*
X80503993Y-83648777D01*
X80463556Y-83633112D01*
X80262347Y-83595500D01*
X80057653Y-83595500D01*
X79856444Y-83633112D01*
X79856441Y-83633112D01*
X79856441Y-83633113D01*
X79665575Y-83707054D01*
X79665569Y-83707057D01*
X79491539Y-83814812D01*
X79491537Y-83814814D01*
X79340269Y-83952712D01*
X79216912Y-84116064D01*
X79125673Y-84299295D01*
X79069654Y-84496183D01*
X79050768Y-84699999D01*
X79050768Y-84700000D01*
X78729232Y-84700000D01*
X78710345Y-84496179D01*
X78654328Y-84299299D01*
X78563088Y-84116065D01*
X78439732Y-83952715D01*
X78439730Y-83952712D01*
X78288462Y-83814814D01*
X78288460Y-83814812D01*
X78114430Y-83707057D01*
X78114424Y-83707054D01*
X77963993Y-83648777D01*
X77923556Y-83633112D01*
X77722347Y-83595500D01*
X77517653Y-83595500D01*
X77316444Y-83633112D01*
X77316441Y-83633112D01*
X77316441Y-83633113D01*
X77125575Y-83707054D01*
X77125569Y-83707057D01*
X76951539Y-83814812D01*
X76951537Y-83814814D01*
X76800269Y-83952712D01*
X76676912Y-84116064D01*
X76585673Y-84299295D01*
X76529654Y-84496183D01*
X76510768Y-84699999D01*
X76510768Y-84700000D01*
X76189232Y-84700000D01*
X76170345Y-84496179D01*
X76114328Y-84299299D01*
X76023088Y-84116065D01*
X75899732Y-83952715D01*
X75899730Y-83952712D01*
X75748462Y-83814814D01*
X75748460Y-83814812D01*
X75574430Y-83707057D01*
X75574424Y-83707054D01*
X75423993Y-83648777D01*
X75383556Y-83633112D01*
X75182347Y-83595500D01*
X74977653Y-83595500D01*
X74776444Y-83633112D01*
X74776441Y-83633112D01*
X74776441Y-83633113D01*
X74585575Y-83707054D01*
X74585569Y-83707057D01*
X74411539Y-83814812D01*
X74411537Y-83814814D01*
X74260269Y-83952712D01*
X74136912Y-84116064D01*
X74045673Y-84299295D01*
X73989654Y-84496183D01*
X73970768Y-84699999D01*
X73970768Y-84700000D01*
X73649232Y-84700000D01*
X73630345Y-84496179D01*
X73574328Y-84299299D01*
X73483088Y-84116065D01*
X73359732Y-83952715D01*
X73359730Y-83952712D01*
X73208462Y-83814814D01*
X73208460Y-83814812D01*
X73034430Y-83707057D01*
X73034424Y-83707054D01*
X72883993Y-83648777D01*
X72843556Y-83633112D01*
X72642347Y-83595500D01*
X72437653Y-83595500D01*
X72236444Y-83633112D01*
X72236441Y-83633112D01*
X72236441Y-83633113D01*
X72045575Y-83707054D01*
X72045569Y-83707057D01*
X71871539Y-83814812D01*
X71871537Y-83814814D01*
X71720269Y-83952712D01*
X71596912Y-84116064D01*
X71505673Y-84299295D01*
X71449654Y-84496183D01*
X71430768Y-84699999D01*
X71430768Y-84700000D01*
X71109232Y-84700000D01*
X71090345Y-84496179D01*
X71034328Y-84299299D01*
X70943088Y-84116065D01*
X70819732Y-83952715D01*
X70819730Y-83952712D01*
X70668462Y-83814814D01*
X70668460Y-83814812D01*
X70494430Y-83707057D01*
X70494424Y-83707054D01*
X70343993Y-83648777D01*
X70303556Y-83633112D01*
X70102347Y-83595500D01*
X69897653Y-83595500D01*
X69696444Y-83633112D01*
X69696441Y-83633112D01*
X69696441Y-83633113D01*
X69505575Y-83707054D01*
X69505569Y-83707057D01*
X69331539Y-83814812D01*
X69331537Y-83814814D01*
X69180269Y-83952712D01*
X69056912Y-84116064D01*
X68965673Y-84299295D01*
X68909654Y-84496183D01*
X68890768Y-84699999D01*
X68890768Y-84700000D01*
X68569232Y-84700000D01*
X68550345Y-84496179D01*
X68494328Y-84299299D01*
X68403088Y-84116065D01*
X68279732Y-83952715D01*
X68279730Y-83952712D01*
X68128462Y-83814814D01*
X68128460Y-83814812D01*
X67954430Y-83707057D01*
X67954424Y-83707054D01*
X67803993Y-83648777D01*
X67763556Y-83633112D01*
X67562347Y-83595500D01*
X67357653Y-83595500D01*
X67156444Y-83633112D01*
X67156441Y-83633112D01*
X67156441Y-83633113D01*
X66965575Y-83707054D01*
X66965569Y-83707057D01*
X66791539Y-83814812D01*
X66791537Y-83814814D01*
X66640269Y-83952712D01*
X66516912Y-84116064D01*
X66425673Y-84299295D01*
X66369654Y-84496183D01*
X66350768Y-84699999D01*
X66350768Y-84700000D01*
X66029232Y-84700000D01*
X66010345Y-84496179D01*
X65954328Y-84299299D01*
X65863088Y-84116065D01*
X65739732Y-83952715D01*
X65739730Y-83952712D01*
X65588462Y-83814814D01*
X65588460Y-83814812D01*
X65414430Y-83707057D01*
X65414424Y-83707054D01*
X65263993Y-83648777D01*
X65223556Y-83633112D01*
X65022347Y-83595500D01*
X64817653Y-83595500D01*
X64616444Y-83633112D01*
X64616441Y-83633112D01*
X64616441Y-83633113D01*
X64425575Y-83707054D01*
X64425569Y-83707057D01*
X64251539Y-83814812D01*
X64251537Y-83814814D01*
X64100269Y-83952712D01*
X63976912Y-84116064D01*
X63885673Y-84299295D01*
X63829654Y-84496183D01*
X63810768Y-84699999D01*
X63810768Y-84700000D01*
X63489232Y-84700000D01*
X63470345Y-84496179D01*
X63414328Y-84299299D01*
X63323088Y-84116065D01*
X63199732Y-83952715D01*
X63199730Y-83952712D01*
X63048462Y-83814814D01*
X63048460Y-83814812D01*
X62874430Y-83707057D01*
X62874424Y-83707054D01*
X62723993Y-83648777D01*
X62683556Y-83633112D01*
X62482347Y-83595500D01*
X62277653Y-83595500D01*
X62076444Y-83633112D01*
X62076441Y-83633112D01*
X62076441Y-83633113D01*
X61885575Y-83707054D01*
X61885569Y-83707057D01*
X61711539Y-83814812D01*
X61711537Y-83814814D01*
X61560269Y-83952712D01*
X61436912Y-84116064D01*
X61345673Y-84299295D01*
X61289654Y-84496183D01*
X61270768Y-84699999D01*
X61270768Y-84700000D01*
X60949232Y-84700000D01*
X60930345Y-84496179D01*
X60874328Y-84299299D01*
X60783088Y-84116065D01*
X60659732Y-83952715D01*
X60659730Y-83952712D01*
X60508462Y-83814814D01*
X60508460Y-83814812D01*
X60334430Y-83707057D01*
X60334424Y-83707054D01*
X60183993Y-83648777D01*
X60143556Y-83633112D01*
X59942347Y-83595500D01*
X59737653Y-83595500D01*
X59536444Y-83633112D01*
X59536441Y-83633112D01*
X59536441Y-83633113D01*
X59345575Y-83707054D01*
X59345569Y-83707057D01*
X59171539Y-83814812D01*
X59171537Y-83814814D01*
X59020269Y-83952712D01*
X58896912Y-84116064D01*
X58805673Y-84299295D01*
X58749654Y-84496183D01*
X58730768Y-84699999D01*
X58730768Y-84700000D01*
X58409232Y-84700000D01*
X58390345Y-84496179D01*
X58334328Y-84299299D01*
X58243088Y-84116065D01*
X58119732Y-83952715D01*
X58119730Y-83952712D01*
X57968462Y-83814814D01*
X57968460Y-83814812D01*
X57794430Y-83707057D01*
X57794424Y-83707054D01*
X57643993Y-83648777D01*
X57603556Y-83633112D01*
X57402347Y-83595500D01*
X57197653Y-83595500D01*
X56996444Y-83633112D01*
X56996441Y-83633112D01*
X56996441Y-83633113D01*
X56805575Y-83707054D01*
X56805569Y-83707057D01*
X56631539Y-83814812D01*
X56631537Y-83814814D01*
X56480269Y-83952712D01*
X56356912Y-84116064D01*
X56271619Y-84287354D01*
X56224116Y-84338591D01*
X56156453Y-84356012D01*
X56090112Y-84334086D01*
X56046158Y-84279775D01*
X56040844Y-84264174D01*
X56033434Y-84236518D01*
X56033429Y-84236507D01*
X55933600Y-84022422D01*
X55933599Y-84022420D01*
X55798113Y-83828926D01*
X55798108Y-83828920D01*
X55631082Y-83661894D01*
X55437578Y-83526399D01*
X55223492Y-83426570D01*
X55223486Y-83426567D01*
X55010000Y-83369364D01*
X55010000Y-84264498D01*
X54902315Y-84215320D01*
X54795763Y-84200000D01*
X54724237Y-84200000D01*
X54617685Y-84215320D01*
X54510000Y-84264498D01*
X54510000Y-83369364D01*
X54509999Y-83369364D01*
X54296513Y-83426567D01*
X54296507Y-83426570D01*
X54082422Y-83526399D01*
X54082420Y-83526400D01*
X53888926Y-83661886D01*
X53888920Y-83661891D01*
X53721891Y-83828920D01*
X53721886Y-83828926D01*
X53586400Y-84022420D01*
X53586399Y-84022422D01*
X53486570Y-84236507D01*
X53486564Y-84236522D01*
X53479154Y-84264177D01*
X53442788Y-84323837D01*
X53379941Y-84354365D01*
X53310566Y-84346070D01*
X53256688Y-84301583D01*
X53248380Y-84287354D01*
X53236838Y-84264174D01*
X53163088Y-84116065D01*
X53039732Y-83952715D01*
X53039730Y-83952712D01*
X52888462Y-83814814D01*
X52888460Y-83814812D01*
X52714430Y-83707057D01*
X52714424Y-83707054D01*
X52563993Y-83648777D01*
X52523556Y-83633112D01*
X52322347Y-83595500D01*
X52117653Y-83595500D01*
X51916444Y-83633112D01*
X51916441Y-83633112D01*
X51916441Y-83633113D01*
X51725575Y-83707054D01*
X51725569Y-83707057D01*
X51551539Y-83814812D01*
X51551537Y-83814814D01*
X51400269Y-83952712D01*
X51276912Y-84116064D01*
X51185673Y-84299295D01*
X51129654Y-84496183D01*
X51110768Y-84699999D01*
X51110768Y-84700000D01*
X50500000Y-84700000D01*
X50500000Y-80770000D01*
X54120768Y-80770000D01*
X54139654Y-80973816D01*
X54195673Y-81170704D01*
X54286912Y-81353935D01*
X54410269Y-81517287D01*
X54561537Y-81655185D01*
X54561539Y-81655187D01*
X54735569Y-81762942D01*
X54735575Y-81762945D01*
X54776010Y-81778609D01*
X54926444Y-81836888D01*
X55127653Y-81874500D01*
X55127656Y-81874500D01*
X55332344Y-81874500D01*
X55332347Y-81874500D01*
X55533556Y-81836888D01*
X55724427Y-81762944D01*
X55898462Y-81655186D01*
X56049732Y-81517285D01*
X56173088Y-81353935D01*
X56264328Y-81170701D01*
X56320345Y-80973821D01*
X56339232Y-80770000D01*
X56660768Y-80770000D01*
X56679654Y-80973816D01*
X56735673Y-81170704D01*
X56826912Y-81353935D01*
X56950269Y-81517287D01*
X57101537Y-81655185D01*
X57101539Y-81655187D01*
X57275569Y-81762942D01*
X57275575Y-81762945D01*
X57316010Y-81778609D01*
X57466444Y-81836888D01*
X57667653Y-81874500D01*
X57667656Y-81874500D01*
X57872344Y-81874500D01*
X57872347Y-81874500D01*
X58073556Y-81836888D01*
X58264427Y-81762944D01*
X58438462Y-81655186D01*
X58589732Y-81517285D01*
X58713088Y-81353935D01*
X58804328Y-81170701D01*
X58847206Y-81020000D01*
X80899364Y-81020000D01*
X80956567Y-81233486D01*
X80956570Y-81233492D01*
X81056399Y-81447578D01*
X81191894Y-81641082D01*
X81358917Y-81808105D01*
X81552421Y-81943600D01*
X81766507Y-82043429D01*
X81766516Y-82043433D01*
X81980000Y-82100634D01*
X81980000Y-81205501D01*
X82087685Y-81254680D01*
X82194237Y-81270000D01*
X82265763Y-81270000D01*
X82372315Y-81254680D01*
X82480000Y-81205501D01*
X82480000Y-82100633D01*
X82693483Y-82043433D01*
X82693492Y-82043429D01*
X82907578Y-81943600D01*
X83101082Y-81808105D01*
X83268105Y-81641082D01*
X83403600Y-81447578D01*
X83503429Y-81233492D01*
X83503435Y-81233478D01*
X83510844Y-81205826D01*
X83547207Y-81146165D01*
X83610054Y-81115634D01*
X83679429Y-81123928D01*
X83733308Y-81168412D01*
X83741619Y-81182645D01*
X83826912Y-81353935D01*
X83950269Y-81517287D01*
X84101537Y-81655185D01*
X84101539Y-81655187D01*
X84275569Y-81762942D01*
X84275575Y-81762945D01*
X84316010Y-81778609D01*
X84466444Y-81836888D01*
X84667653Y-81874500D01*
X84667656Y-81874500D01*
X84872344Y-81874500D01*
X84872347Y-81874500D01*
X85073556Y-81836888D01*
X85264427Y-81762944D01*
X85438462Y-81655186D01*
X85589732Y-81517285D01*
X85713088Y-81353935D01*
X85804328Y-81170701D01*
X85860345Y-80973821D01*
X85879232Y-80770000D01*
X85860345Y-80566179D01*
X85804328Y-80369299D01*
X85713088Y-80186065D01*
X85589732Y-80022715D01*
X85589730Y-80022712D01*
X85438462Y-79884814D01*
X85438460Y-79884812D01*
X85264430Y-79777057D01*
X85264424Y-79777054D01*
X85113993Y-79718777D01*
X85073556Y-79703112D01*
X84872347Y-79665500D01*
X84667653Y-79665500D01*
X84466444Y-79703112D01*
X84466441Y-79703112D01*
X84466441Y-79703113D01*
X84275575Y-79777054D01*
X84275569Y-79777057D01*
X84101539Y-79884812D01*
X84101537Y-79884814D01*
X83950269Y-80022712D01*
X83826912Y-80186064D01*
X83741619Y-80357354D01*
X83694116Y-80408591D01*
X83626453Y-80426012D01*
X83560112Y-80404086D01*
X83516158Y-80349775D01*
X83510844Y-80334174D01*
X83503434Y-80306518D01*
X83503429Y-80306507D01*
X83403600Y-80092422D01*
X83403599Y-80092420D01*
X83268113Y-79898926D01*
X83268108Y-79898920D01*
X83101082Y-79731894D01*
X82907578Y-79596399D01*
X82852853Y-79570881D01*
X82800414Y-79524709D01*
X82781262Y-79457515D01*
X82801478Y-79390634D01*
X82854643Y-79345299D01*
X82905257Y-79334499D01*
X83105066Y-79334499D01*
X83179301Y-79319734D01*
X83263484Y-79263484D01*
X83319734Y-79179301D01*
X83334500Y-79105067D01*
X83334499Y-78230000D01*
X83660768Y-78230000D01*
X83679654Y-78433816D01*
X83679654Y-78433818D01*
X83679655Y-78433821D01*
X83735672Y-78630701D01*
X83735673Y-78630704D01*
X83826912Y-78813935D01*
X83950269Y-78977287D01*
X84101537Y-79115185D01*
X84101539Y-79115187D01*
X84275569Y-79222942D01*
X84275575Y-79222945D01*
X84316010Y-79238609D01*
X84466444Y-79296888D01*
X84667653Y-79334500D01*
X84667656Y-79334500D01*
X84872344Y-79334500D01*
X84872347Y-79334500D01*
X85073556Y-79296888D01*
X85264427Y-79222944D01*
X85438462Y-79115186D01*
X85589732Y-78977285D01*
X85713088Y-78813935D01*
X85804328Y-78630701D01*
X85860345Y-78433821D01*
X85879232Y-78230000D01*
X85860345Y-78026179D01*
X85804328Y-77829299D01*
X85713088Y-77646065D01*
X85589732Y-77482715D01*
X85589730Y-77482712D01*
X85438462Y-77344814D01*
X85438460Y-77344812D01*
X85264430Y-77237057D01*
X85264424Y-77237054D01*
X85113993Y-77178777D01*
X85073556Y-77163112D01*
X84872347Y-77125500D01*
X84667653Y-77125500D01*
X84466444Y-77163112D01*
X84466441Y-77163112D01*
X84466441Y-77163113D01*
X84275575Y-77237054D01*
X84275569Y-77237057D01*
X84101539Y-77344812D01*
X84101537Y-77344814D01*
X83950269Y-77482712D01*
X83826912Y-77646064D01*
X83735673Y-77829295D01*
X83679654Y-78026183D01*
X83660768Y-78229999D01*
X83660768Y-78230000D01*
X83334499Y-78230000D01*
X83334499Y-77354934D01*
X83319734Y-77280699D01*
X83290571Y-77237054D01*
X83263484Y-77196515D01*
X83213019Y-77162796D01*
X83179301Y-77140266D01*
X83179299Y-77140265D01*
X83179296Y-77140264D01*
X83105069Y-77125500D01*
X81354936Y-77125500D01*
X81280698Y-77140266D01*
X81196515Y-77196515D01*
X81140266Y-77280699D01*
X81140264Y-77280703D01*
X81125500Y-77354928D01*
X81125500Y-79105063D01*
X81140266Y-79179301D01*
X81196515Y-79263484D01*
X81230234Y-79286014D01*
X81280699Y-79319734D01*
X81280702Y-79319734D01*
X81280703Y-79319735D01*
X81305666Y-79324700D01*
X81354933Y-79334500D01*
X81554742Y-79334499D01*
X81621779Y-79354183D01*
X81667534Y-79406987D01*
X81677478Y-79476145D01*
X81648453Y-79539701D01*
X81607146Y-79570880D01*
X81552427Y-79596396D01*
X81552420Y-79596400D01*
X81358926Y-79731886D01*
X81358920Y-79731891D01*
X81191891Y-79898920D01*
X81191886Y-79898926D01*
X81056400Y-80092420D01*
X81056399Y-80092422D01*
X80956570Y-80306507D01*
X80956567Y-80306513D01*
X80899364Y-80519999D01*
X80899364Y-80520000D01*
X81796314Y-80520000D01*
X81770507Y-80560156D01*
X81730000Y-80698111D01*
X81730000Y-80841889D01*
X81770507Y-80979844D01*
X81796314Y-81020000D01*
X80899364Y-81020000D01*
X58847206Y-81020000D01*
X58860345Y-80973821D01*
X58879232Y-80770000D01*
X58860345Y-80566179D01*
X58804328Y-80369299D01*
X58713088Y-80186065D01*
X58589732Y-80022715D01*
X58589730Y-80022712D01*
X58438462Y-79884814D01*
X58438460Y-79884812D01*
X58264430Y-79777057D01*
X58264424Y-79777054D01*
X58113993Y-79718777D01*
X58073556Y-79703112D01*
X57872347Y-79665500D01*
X57667653Y-79665500D01*
X57466444Y-79703112D01*
X57466441Y-79703112D01*
X57466441Y-79703113D01*
X57275575Y-79777054D01*
X57275569Y-79777057D01*
X57101539Y-79884812D01*
X57101537Y-79884814D01*
X56950269Y-80022712D01*
X56826912Y-80186064D01*
X56735673Y-80369295D01*
X56679654Y-80566183D01*
X56660768Y-80769999D01*
X56660768Y-80770000D01*
X56339232Y-80770000D01*
X56320345Y-80566179D01*
X56264328Y-80369299D01*
X56173088Y-80186065D01*
X56049732Y-80022715D01*
X56049730Y-80022712D01*
X55898462Y-79884814D01*
X55898460Y-79884812D01*
X55724430Y-79777057D01*
X55724424Y-79777054D01*
X55573993Y-79718777D01*
X55533556Y-79703112D01*
X55332347Y-79665500D01*
X55127653Y-79665500D01*
X54926444Y-79703112D01*
X54926441Y-79703112D01*
X54926441Y-79703113D01*
X54735575Y-79777054D01*
X54735569Y-79777057D01*
X54561539Y-79884812D01*
X54561537Y-79884814D01*
X54410269Y-80022712D01*
X54286912Y-80186064D01*
X54195673Y-80369295D01*
X54139654Y-80566183D01*
X54120768Y-80769999D01*
X54120768Y-80770000D01*
X50500000Y-80770000D01*
X50500000Y-79451201D01*
X65937915Y-79451201D01*
X65956971Y-79595952D01*
X65956973Y-79595957D01*
X66012842Y-79730838D01*
X66012845Y-79730844D01*
X66101725Y-79846673D01*
X66101726Y-79846674D01*
X66217555Y-79935554D01*
X66217561Y-79935557D01*
X66285001Y-79963491D01*
X66352446Y-79991428D01*
X66424823Y-80000956D01*
X66497199Y-80010485D01*
X66497200Y-80010485D01*
X66497201Y-80010485D01*
X66545451Y-80004132D01*
X66641954Y-79991428D01*
X66776843Y-79935555D01*
X66892674Y-79846674D01*
X66981555Y-79730843D01*
X67037428Y-79595954D01*
X67049797Y-79502001D01*
X72567315Y-79502001D01*
X72586371Y-79646752D01*
X72586373Y-79646757D01*
X72642242Y-79781638D01*
X72642245Y-79781644D01*
X72731125Y-79897473D01*
X72731126Y-79897474D01*
X72846955Y-79986354D01*
X72846961Y-79986357D01*
X72859199Y-79991426D01*
X72981846Y-80042228D01*
X73054223Y-80051756D01*
X73126599Y-80061285D01*
X73126600Y-80061285D01*
X73126601Y-80061285D01*
X73174851Y-80054932D01*
X73271354Y-80042228D01*
X73406243Y-79986355D01*
X73522074Y-79897474D01*
X73610955Y-79781643D01*
X73666828Y-79646754D01*
X73685885Y-79502000D01*
X73666828Y-79357246D01*
X73610955Y-79222358D01*
X73522074Y-79106526D01*
X73406243Y-79017645D01*
X73406240Y-79017644D01*
X73406238Y-79017642D01*
X73271357Y-78961773D01*
X73271352Y-78961771D01*
X73126601Y-78942715D01*
X73126599Y-78942715D01*
X72981847Y-78961771D01*
X72981845Y-78961772D01*
X72846961Y-79017643D01*
X72846958Y-79017644D01*
X72846958Y-79017645D01*
X72797330Y-79055726D01*
X72731126Y-79106526D01*
X72642243Y-79222361D01*
X72586372Y-79357245D01*
X72586371Y-79357247D01*
X72567315Y-79501998D01*
X72567315Y-79502001D01*
X67049797Y-79502001D01*
X67056485Y-79451200D01*
X67048511Y-79390634D01*
X67041121Y-79334499D01*
X67037428Y-79306446D01*
X66981555Y-79171558D01*
X66892674Y-79055726D01*
X66776843Y-78966845D01*
X66776840Y-78966844D01*
X66776838Y-78966842D01*
X66641957Y-78910973D01*
X66641952Y-78910971D01*
X66497201Y-78891915D01*
X66497199Y-78891915D01*
X66352447Y-78910971D01*
X66352445Y-78910972D01*
X66217561Y-78966843D01*
X66217558Y-78966844D01*
X66217558Y-78966845D01*
X66101726Y-79055726D01*
X66063869Y-79105063D01*
X66012843Y-79171561D01*
X65956972Y-79306445D01*
X65956971Y-79306447D01*
X65937915Y-79451198D01*
X65937915Y-79451201D01*
X50500000Y-79451201D01*
X50500000Y-79105063D01*
X54125500Y-79105063D01*
X54140266Y-79179301D01*
X54196515Y-79263484D01*
X54230234Y-79286014D01*
X54280699Y-79319734D01*
X54280702Y-79319734D01*
X54280703Y-79319735D01*
X54305666Y-79324700D01*
X54354933Y-79334500D01*
X56105066Y-79334499D01*
X56179301Y-79319734D01*
X56263484Y-79263484D01*
X56319734Y-79179301D01*
X56334500Y-79105067D01*
X56334499Y-78230000D01*
X56660768Y-78230000D01*
X56679654Y-78433816D01*
X56679654Y-78433818D01*
X56679655Y-78433821D01*
X56735672Y-78630701D01*
X56735673Y-78630704D01*
X56826912Y-78813935D01*
X56950269Y-78977287D01*
X57101537Y-79115185D01*
X57101539Y-79115187D01*
X57275569Y-79222942D01*
X57275575Y-79222945D01*
X57316010Y-79238609D01*
X57466444Y-79296888D01*
X57667653Y-79334500D01*
X57667656Y-79334500D01*
X57872344Y-79334500D01*
X57872347Y-79334500D01*
X58073556Y-79296888D01*
X58264427Y-79222944D01*
X58438462Y-79115186D01*
X58589732Y-78977285D01*
X58713088Y-78813935D01*
X58804328Y-78630701D01*
X58845499Y-78486001D01*
X64744115Y-78486001D01*
X64763171Y-78630752D01*
X64763173Y-78630757D01*
X64819042Y-78765638D01*
X64819045Y-78765644D01*
X64907925Y-78881473D01*
X64907926Y-78881474D01*
X65023755Y-78970354D01*
X65023761Y-78970357D01*
X65040487Y-78977285D01*
X65158646Y-79026228D01*
X65231023Y-79035756D01*
X65303399Y-79045285D01*
X65303400Y-79045285D01*
X65303401Y-79045285D01*
X65351651Y-79038932D01*
X65448154Y-79026228D01*
X65583043Y-78970355D01*
X65698874Y-78881474D01*
X65787755Y-78765643D01*
X65843628Y-78630754D01*
X65862685Y-78486000D01*
X65843628Y-78341246D01*
X65787755Y-78206358D01*
X65698874Y-78090526D01*
X65583043Y-78001645D01*
X65583040Y-78001644D01*
X65583038Y-78001642D01*
X65448157Y-77945773D01*
X65448152Y-77945771D01*
X65303401Y-77926715D01*
X65303399Y-77926715D01*
X65158647Y-77945771D01*
X65158645Y-77945772D01*
X65023761Y-78001643D01*
X65023758Y-78001644D01*
X65023758Y-78001645D01*
X64907929Y-78090524D01*
X64907926Y-78090526D01*
X64819043Y-78206361D01*
X64763172Y-78341245D01*
X64763171Y-78341247D01*
X64744115Y-78485998D01*
X64744115Y-78486001D01*
X58845499Y-78486001D01*
X58860345Y-78433821D01*
X58879232Y-78230000D01*
X58860345Y-78026179D01*
X58804328Y-77829299D01*
X58713088Y-77646065D01*
X58589732Y-77482715D01*
X58589730Y-77482712D01*
X58438462Y-77344814D01*
X58438460Y-77344812D01*
X58264430Y-77237057D01*
X58264424Y-77237054D01*
X58113993Y-77178777D01*
X58073556Y-77163112D01*
X57872347Y-77125500D01*
X57667653Y-77125500D01*
X57466444Y-77163112D01*
X57466441Y-77163112D01*
X57466441Y-77163113D01*
X57275575Y-77237054D01*
X57275569Y-77237057D01*
X57101539Y-77344812D01*
X57101537Y-77344814D01*
X56950269Y-77482712D01*
X56826912Y-77646064D01*
X56735673Y-77829295D01*
X56679654Y-78026183D01*
X56660768Y-78229999D01*
X56660768Y-78230000D01*
X56334499Y-78230000D01*
X56334499Y-77354934D01*
X56319734Y-77280699D01*
X56290571Y-77237054D01*
X56263484Y-77196515D01*
X56213019Y-77162796D01*
X56179301Y-77140266D01*
X56179299Y-77140265D01*
X56179296Y-77140264D01*
X56105069Y-77125500D01*
X54354936Y-77125500D01*
X54280698Y-77140266D01*
X54196515Y-77196515D01*
X54140266Y-77280699D01*
X54140264Y-77280703D01*
X54125500Y-77354928D01*
X54125500Y-79105063D01*
X50500000Y-79105063D01*
X50500000Y-75514201D01*
X73151515Y-75514201D01*
X73170571Y-75658952D01*
X73170573Y-75658957D01*
X73226442Y-75793838D01*
X73226445Y-75793844D01*
X73315325Y-75909673D01*
X73315326Y-75909674D01*
X73431155Y-75998554D01*
X73431161Y-75998557D01*
X73498601Y-76026491D01*
X73566046Y-76054428D01*
X73638423Y-76063956D01*
X73710799Y-76073485D01*
X73710800Y-76073485D01*
X73710801Y-76073485D01*
X73759051Y-76067132D01*
X73855554Y-76054428D01*
X73990443Y-75998555D01*
X74106274Y-75909674D01*
X74195155Y-75793843D01*
X74251028Y-75658954D01*
X74270085Y-75514200D01*
X74251028Y-75369446D01*
X74195155Y-75234558D01*
X74106274Y-75118726D01*
X73990443Y-75029845D01*
X73990440Y-75029844D01*
X73990438Y-75029842D01*
X73855557Y-74973973D01*
X73855552Y-74973971D01*
X73710801Y-74954915D01*
X73710799Y-74954915D01*
X73566047Y-74973971D01*
X73566045Y-74973972D01*
X73431161Y-75029843D01*
X73315326Y-75118726D01*
X73226443Y-75234561D01*
X73170572Y-75369445D01*
X73170571Y-75369447D01*
X73151515Y-75514198D01*
X73151515Y-75514201D01*
X50500000Y-75514201D01*
X50500000Y-73488411D01*
X66614252Y-73488411D01*
X66633308Y-73633162D01*
X66633310Y-73633167D01*
X66689179Y-73768048D01*
X66689182Y-73768054D01*
X66778062Y-73883883D01*
X66778063Y-73883884D01*
X66893892Y-73972764D01*
X66893898Y-73972767D01*
X66961338Y-74000701D01*
X67028783Y-74028638D01*
X67101160Y-74038166D01*
X67173536Y-74047695D01*
X67173537Y-74047695D01*
X67173538Y-74047695D01*
X67221788Y-74041342D01*
X67318291Y-74028638D01*
X67453180Y-73972765D01*
X67569011Y-73883884D01*
X67657892Y-73768053D01*
X67713765Y-73633164D01*
X67732822Y-73488410D01*
X67713765Y-73343656D01*
X67682552Y-73268301D01*
X73426615Y-73268301D01*
X73445671Y-73413052D01*
X73445673Y-73413057D01*
X73501542Y-73547938D01*
X73501545Y-73547944D01*
X73590425Y-73663773D01*
X73590426Y-73663774D01*
X73706255Y-73752654D01*
X73706261Y-73752657D01*
X73743419Y-73768048D01*
X73841146Y-73808528D01*
X73913523Y-73818056D01*
X73985899Y-73827585D01*
X73985900Y-73827585D01*
X73985901Y-73827585D01*
X74034151Y-73821232D01*
X74130654Y-73808528D01*
X74265543Y-73752655D01*
X74381374Y-73663774D01*
X74470255Y-73547943D01*
X74526128Y-73413054D01*
X74545185Y-73268300D01*
X74526128Y-73123546D01*
X74470255Y-72988658D01*
X74381374Y-72872826D01*
X74265543Y-72783945D01*
X74265540Y-72783944D01*
X74265538Y-72783942D01*
X74130657Y-72728073D01*
X74130652Y-72728071D01*
X73985901Y-72709015D01*
X73985899Y-72709015D01*
X73841147Y-72728071D01*
X73841145Y-72728072D01*
X73706261Y-72783943D01*
X73706258Y-72783944D01*
X73706258Y-72783945D01*
X73590426Y-72872826D01*
X73532604Y-72948182D01*
X73501543Y-72988661D01*
X73445672Y-73123545D01*
X73445671Y-73123547D01*
X73426615Y-73268298D01*
X73426615Y-73268301D01*
X67682552Y-73268301D01*
X67657892Y-73208768D01*
X67569011Y-73092936D01*
X67453180Y-73004055D01*
X67453177Y-73004054D01*
X67453175Y-73004052D01*
X67318294Y-72948183D01*
X67318289Y-72948181D01*
X67173538Y-72929125D01*
X67173536Y-72929125D01*
X67028784Y-72948181D01*
X67028782Y-72948182D01*
X66893898Y-73004053D01*
X66778063Y-73092936D01*
X66689180Y-73208771D01*
X66633309Y-73343655D01*
X66633308Y-73343657D01*
X66614252Y-73488408D01*
X66614252Y-73488411D01*
X50500000Y-73488411D01*
X50500000Y-71628002D01*
X53164926Y-71628002D01*
X53183961Y-71796951D01*
X53226637Y-71918912D01*
X53240118Y-71957437D01*
X53330576Y-72101400D01*
X53450800Y-72221624D01*
X53594763Y-72312082D01*
X53716721Y-72354756D01*
X53755248Y-72368238D01*
X53924197Y-72387274D01*
X53924200Y-72387274D01*
X53924203Y-72387274D01*
X54093151Y-72368238D01*
X54093154Y-72368237D01*
X54253637Y-72312082D01*
X54397600Y-72221624D01*
X54517824Y-72101400D01*
X54608282Y-71957437D01*
X54664437Y-71796954D01*
X54664437Y-71796953D01*
X54664438Y-71796951D01*
X54683474Y-71628002D01*
X54683474Y-71627997D01*
X54664438Y-71459048D01*
X54650956Y-71420521D01*
X54608282Y-71298563D01*
X54517824Y-71154600D01*
X54397600Y-71034376D01*
X54253637Y-70943918D01*
X54215112Y-70930437D01*
X54093151Y-70887761D01*
X53924203Y-70868726D01*
X53924197Y-70868726D01*
X53755248Y-70887761D01*
X53594760Y-70943919D01*
X53450799Y-71034376D01*
X53330576Y-71154599D01*
X53240119Y-71298560D01*
X53183961Y-71459048D01*
X53164926Y-71627997D01*
X53164926Y-71628002D01*
X50500000Y-71628002D01*
X50500000Y-70731501D01*
X74202515Y-70731501D01*
X74221571Y-70876252D01*
X74221573Y-70876257D01*
X74277442Y-71011138D01*
X74277445Y-71011144D01*
X74366325Y-71126973D01*
X74366326Y-71126974D01*
X74482155Y-71215854D01*
X74482161Y-71215857D01*
X74549601Y-71243791D01*
X74617046Y-71271728D01*
X74689423Y-71281256D01*
X74761799Y-71290785D01*
X74761800Y-71290785D01*
X74761801Y-71290785D01*
X74810051Y-71284432D01*
X74906554Y-71271728D01*
X75041443Y-71215855D01*
X75157274Y-71126974D01*
X75246155Y-71011143D01*
X75302028Y-70876254D01*
X75321085Y-70731500D01*
X75313176Y-70671428D01*
X75302028Y-70586747D01*
X75302028Y-70586746D01*
X75246155Y-70451858D01*
X75157274Y-70336026D01*
X75041443Y-70247145D01*
X75041440Y-70247144D01*
X75041438Y-70247142D01*
X74906557Y-70191273D01*
X74906552Y-70191271D01*
X74761801Y-70172215D01*
X74761799Y-70172215D01*
X74617047Y-70191271D01*
X74617045Y-70191272D01*
X74482161Y-70247143D01*
X74482158Y-70247144D01*
X74482158Y-70247145D01*
X74366329Y-70336024D01*
X74366326Y-70336026D01*
X74277443Y-70451861D01*
X74221572Y-70586745D01*
X74221571Y-70586747D01*
X74202515Y-70731498D01*
X74202515Y-70731501D01*
X50500000Y-70731501D01*
X50500000Y-70131201D01*
X63495815Y-70131201D01*
X63514871Y-70275952D01*
X63514873Y-70275957D01*
X63570742Y-70410838D01*
X63570745Y-70410844D01*
X63659625Y-70526673D01*
X63659626Y-70526674D01*
X63775455Y-70615554D01*
X63775461Y-70615557D01*
X63842901Y-70643491D01*
X63910346Y-70671428D01*
X63982723Y-70680956D01*
X64055099Y-70690485D01*
X64055100Y-70690485D01*
X64055101Y-70690485D01*
X64103351Y-70684132D01*
X64199854Y-70671428D01*
X64334743Y-70615555D01*
X64450574Y-70526674D01*
X64539455Y-70410843D01*
X64595328Y-70275954D01*
X64614385Y-70131200D01*
X64595328Y-69986446D01*
X64539455Y-69851558D01*
X64450574Y-69735726D01*
X64334743Y-69646845D01*
X64334740Y-69646844D01*
X64334738Y-69646842D01*
X64199857Y-69590973D01*
X64199852Y-69590971D01*
X64055101Y-69571915D01*
X64055099Y-69571915D01*
X63910347Y-69590971D01*
X63910345Y-69590972D01*
X63775461Y-69646843D01*
X63659626Y-69735726D01*
X63570743Y-69851561D01*
X63514872Y-69986445D01*
X63514871Y-69986447D01*
X63495815Y-70131198D01*
X63495815Y-70131201D01*
X50500000Y-70131201D01*
X50500000Y-68779501D01*
X71887315Y-68779501D01*
X71906371Y-68924252D01*
X71906373Y-68924257D01*
X71962242Y-69059138D01*
X71962245Y-69059144D01*
X72051125Y-69174973D01*
X72051126Y-69174974D01*
X72166955Y-69263854D01*
X72166961Y-69263857D01*
X72234401Y-69291791D01*
X72301846Y-69319728D01*
X72374223Y-69329256D01*
X72446599Y-69338785D01*
X72446600Y-69338785D01*
X72446601Y-69338785D01*
X72494851Y-69332432D01*
X72591354Y-69319728D01*
X72726243Y-69263855D01*
X72842074Y-69174974D01*
X72930955Y-69059143D01*
X72986828Y-68924254D01*
X73005885Y-68779500D01*
X72986828Y-68634746D01*
X72930955Y-68499858D01*
X72842074Y-68384026D01*
X72726243Y-68295145D01*
X72726240Y-68295144D01*
X72726238Y-68295142D01*
X72591357Y-68239273D01*
X72591352Y-68239271D01*
X72446601Y-68220215D01*
X72446599Y-68220215D01*
X72301847Y-68239271D01*
X72301845Y-68239272D01*
X72166961Y-68295143D01*
X72051126Y-68384026D01*
X71962243Y-68499861D01*
X71906372Y-68634745D01*
X71906371Y-68634747D01*
X71887315Y-68779498D01*
X71887315Y-68779501D01*
X50500000Y-68779501D01*
X50500000Y-67808701D01*
X67436515Y-67808701D01*
X67455571Y-67953452D01*
X67455573Y-67953457D01*
X67511442Y-68088338D01*
X67511445Y-68088344D01*
X67600325Y-68204173D01*
X67600326Y-68204174D01*
X67716155Y-68293054D01*
X67716161Y-68293057D01*
X67783601Y-68320991D01*
X67851046Y-68348928D01*
X67923423Y-68358456D01*
X67995799Y-68367985D01*
X67995800Y-68367985D01*
X67995801Y-68367985D01*
X68044051Y-68361632D01*
X68140554Y-68348928D01*
X68275443Y-68293055D01*
X68391274Y-68204174D01*
X68480155Y-68088343D01*
X68536028Y-67953454D01*
X68545069Y-67884775D01*
X68573335Y-67820881D01*
X68631659Y-67782409D01*
X68701524Y-67781577D01*
X68760748Y-67818649D01*
X68766383Y-67825475D01*
X68835825Y-67915973D01*
X68835826Y-67915974D01*
X68951655Y-68004854D01*
X68951661Y-68004857D01*
X69019101Y-68032791D01*
X69086546Y-68060728D01*
X69158923Y-68070256D01*
X69231299Y-68079785D01*
X69231300Y-68079785D01*
X69231301Y-68079785D01*
X69279551Y-68073432D01*
X69376054Y-68060728D01*
X69510943Y-68004855D01*
X69626774Y-67915974D01*
X69682462Y-67843401D01*
X73786515Y-67843401D01*
X73805571Y-67988152D01*
X73805573Y-67988157D01*
X73861442Y-68123038D01*
X73861445Y-68123044D01*
X73950325Y-68238873D01*
X73950326Y-68238874D01*
X74066155Y-68327754D01*
X74066161Y-68327757D01*
X74117268Y-68348926D01*
X74201046Y-68383628D01*
X74273423Y-68393156D01*
X74345799Y-68402685D01*
X74345800Y-68402685D01*
X74345801Y-68402685D01*
X74394051Y-68396332D01*
X74490554Y-68383628D01*
X74625443Y-68327755D01*
X74741274Y-68238874D01*
X74830155Y-68123043D01*
X74886028Y-67988154D01*
X74905085Y-67843400D01*
X74902120Y-67820881D01*
X74886028Y-67698647D01*
X74886028Y-67698646D01*
X74830155Y-67563758D01*
X74741274Y-67447926D01*
X74625443Y-67359045D01*
X74625440Y-67359044D01*
X74625438Y-67359042D01*
X74490557Y-67303173D01*
X74490552Y-67303171D01*
X74345801Y-67284115D01*
X74345799Y-67284115D01*
X74201047Y-67303171D01*
X74201045Y-67303172D01*
X74066161Y-67359043D01*
X73950326Y-67447926D01*
X73861443Y-67563761D01*
X73805572Y-67698645D01*
X73805571Y-67698647D01*
X73786515Y-67843398D01*
X73786515Y-67843401D01*
X69682462Y-67843401D01*
X69715655Y-67800143D01*
X69771528Y-67665254D01*
X69790585Y-67520500D01*
X69788376Y-67503724D01*
X69771528Y-67375747D01*
X69771528Y-67375746D01*
X69715655Y-67240858D01*
X69626774Y-67125026D01*
X69510943Y-67036145D01*
X69510940Y-67036144D01*
X69510938Y-67036142D01*
X69376057Y-66980273D01*
X69376052Y-66980271D01*
X69231301Y-66961215D01*
X69231299Y-66961215D01*
X69086547Y-66980271D01*
X69086545Y-66980272D01*
X68951661Y-67036143D01*
X68835826Y-67125026D01*
X68746943Y-67240861D01*
X68691072Y-67375745D01*
X68691072Y-67375747D01*
X68682030Y-67444424D01*
X68653763Y-67508321D01*
X68595438Y-67546791D01*
X68525573Y-67547622D01*
X68466350Y-67510549D01*
X68460722Y-67503733D01*
X68391274Y-67413226D01*
X68275443Y-67324345D01*
X68275440Y-67324344D01*
X68275438Y-67324342D01*
X68140557Y-67268473D01*
X68140552Y-67268471D01*
X67995801Y-67249415D01*
X67995799Y-67249415D01*
X67851047Y-67268471D01*
X67851045Y-67268472D01*
X67716161Y-67324343D01*
X67716158Y-67324344D01*
X67716158Y-67324345D01*
X67600326Y-67413226D01*
X67518014Y-67520498D01*
X67511443Y-67529061D01*
X67455572Y-67663945D01*
X67455571Y-67663947D01*
X67436515Y-67808698D01*
X67436515Y-67808701D01*
X50500000Y-67808701D01*
X50500000Y-64770000D01*
X54120768Y-64770000D01*
X54139654Y-64973816D01*
X54139654Y-64973818D01*
X54139655Y-64973821D01*
X54161659Y-65051157D01*
X54195673Y-65170704D01*
X54286912Y-65353935D01*
X54410269Y-65517287D01*
X54561537Y-65655185D01*
X54561539Y-65655187D01*
X54735569Y-65762942D01*
X54735575Y-65762945D01*
X54776010Y-65778609D01*
X54926444Y-65836888D01*
X55127653Y-65874500D01*
X55127656Y-65874500D01*
X55332344Y-65874500D01*
X55332347Y-65874500D01*
X55533556Y-65836888D01*
X55724427Y-65762944D01*
X55898462Y-65655186D01*
X56049732Y-65517285D01*
X56173088Y-65353935D01*
X56264328Y-65170701D01*
X56320345Y-64973821D01*
X56339232Y-64770000D01*
X56660768Y-64770000D01*
X56679654Y-64973816D01*
X56679654Y-64973818D01*
X56679655Y-64973821D01*
X56701659Y-65051157D01*
X56735673Y-65170704D01*
X56826912Y-65353935D01*
X56950269Y-65517287D01*
X57101537Y-65655185D01*
X57101539Y-65655187D01*
X57275569Y-65762942D01*
X57275575Y-65762945D01*
X57316010Y-65778609D01*
X57466444Y-65836888D01*
X57667653Y-65874500D01*
X57667656Y-65874500D01*
X57872344Y-65874500D01*
X57872347Y-65874500D01*
X58073556Y-65836888D01*
X58264427Y-65762944D01*
X58438462Y-65655186D01*
X58545727Y-65557401D01*
X71503115Y-65557401D01*
X71522171Y-65702152D01*
X71522173Y-65702157D01*
X71578042Y-65837038D01*
X71578045Y-65837044D01*
X71666925Y-65952873D01*
X71666926Y-65952874D01*
X71782755Y-66041754D01*
X71782761Y-66041757D01*
X71850201Y-66069691D01*
X71917646Y-66097628D01*
X71990023Y-66107156D01*
X72062399Y-66116685D01*
X72062400Y-66116685D01*
X72062401Y-66116685D01*
X72110651Y-66110332D01*
X72207154Y-66097628D01*
X72342043Y-66041755D01*
X72457874Y-65952874D01*
X72546755Y-65837043D01*
X72602628Y-65702154D01*
X72621685Y-65557400D01*
X72602628Y-65412646D01*
X72546755Y-65277758D01*
X72457874Y-65161926D01*
X72342043Y-65073045D01*
X72342040Y-65073044D01*
X72342038Y-65073042D01*
X72207157Y-65017173D01*
X72207152Y-65017171D01*
X72062401Y-64998115D01*
X72062399Y-64998115D01*
X71917647Y-65017171D01*
X71917645Y-65017172D01*
X71782761Y-65073043D01*
X71782758Y-65073044D01*
X71782758Y-65073045D01*
X71713635Y-65126085D01*
X71666926Y-65161926D01*
X71578043Y-65277761D01*
X71522172Y-65412645D01*
X71522171Y-65412647D01*
X71503115Y-65557398D01*
X71503115Y-65557401D01*
X58545727Y-65557401D01*
X58589732Y-65517285D01*
X58713088Y-65353935D01*
X58804328Y-65170701D01*
X58860345Y-64973821D01*
X58879232Y-64770000D01*
X58860403Y-64566801D01*
X67588915Y-64566801D01*
X67607971Y-64711552D01*
X67607973Y-64711557D01*
X67663842Y-64846438D01*
X67663845Y-64846444D01*
X67752725Y-64962273D01*
X67752726Y-64962274D01*
X67868555Y-65051154D01*
X67868561Y-65051157D01*
X67921397Y-65073042D01*
X68003446Y-65107028D01*
X68075823Y-65116556D01*
X68148199Y-65126085D01*
X68148200Y-65126085D01*
X68148201Y-65126085D01*
X68196451Y-65119732D01*
X68292954Y-65107028D01*
X68427843Y-65051155D01*
X68543674Y-64962274D01*
X68632555Y-64846443D01*
X68664219Y-64770000D01*
X81120768Y-64770000D01*
X81139654Y-64973816D01*
X81139654Y-64973818D01*
X81139655Y-64973821D01*
X81161659Y-65051157D01*
X81195673Y-65170704D01*
X81286912Y-65353935D01*
X81410269Y-65517287D01*
X81561537Y-65655185D01*
X81561539Y-65655187D01*
X81735569Y-65762942D01*
X81735575Y-65762945D01*
X81776010Y-65778609D01*
X81926444Y-65836888D01*
X82127653Y-65874500D01*
X82127656Y-65874500D01*
X82332344Y-65874500D01*
X82332347Y-65874500D01*
X82533556Y-65836888D01*
X82724427Y-65762944D01*
X82898462Y-65655186D01*
X83049732Y-65517285D01*
X83173088Y-65353935D01*
X83264328Y-65170701D01*
X83320345Y-64973821D01*
X83339232Y-64770000D01*
X83660768Y-64770000D01*
X83679654Y-64973816D01*
X83679654Y-64973818D01*
X83679655Y-64973821D01*
X83701659Y-65051157D01*
X83735673Y-65170704D01*
X83826912Y-65353935D01*
X83950269Y-65517287D01*
X84101537Y-65655185D01*
X84101539Y-65655187D01*
X84275569Y-65762942D01*
X84275575Y-65762945D01*
X84316010Y-65778609D01*
X84466444Y-65836888D01*
X84667653Y-65874500D01*
X84667656Y-65874500D01*
X84872344Y-65874500D01*
X84872347Y-65874500D01*
X85073556Y-65836888D01*
X85264427Y-65762944D01*
X85438462Y-65655186D01*
X85589732Y-65517285D01*
X85713088Y-65353935D01*
X85804328Y-65170701D01*
X85860345Y-64973821D01*
X85879232Y-64770000D01*
X85860345Y-64566179D01*
X85804328Y-64369299D01*
X85713088Y-64186065D01*
X85634836Y-64082442D01*
X85589730Y-64022712D01*
X85438462Y-63884814D01*
X85438460Y-63884812D01*
X85264430Y-63777057D01*
X85264424Y-63777054D01*
X85113993Y-63718777D01*
X85073556Y-63703112D01*
X84872347Y-63665500D01*
X84667653Y-63665500D01*
X84466444Y-63703112D01*
X84466441Y-63703112D01*
X84466441Y-63703113D01*
X84275575Y-63777054D01*
X84275569Y-63777057D01*
X84101539Y-63884812D01*
X84101537Y-63884814D01*
X83950269Y-64022712D01*
X83826912Y-64186064D01*
X83735673Y-64369295D01*
X83679654Y-64566183D01*
X83660768Y-64769999D01*
X83660768Y-64770000D01*
X83339232Y-64770000D01*
X83320345Y-64566179D01*
X83264328Y-64369299D01*
X83173088Y-64186065D01*
X83094836Y-64082442D01*
X83049730Y-64022712D01*
X82898462Y-63884814D01*
X82898460Y-63884812D01*
X82724430Y-63777057D01*
X82724424Y-63777054D01*
X82573993Y-63718777D01*
X82533556Y-63703112D01*
X82332347Y-63665500D01*
X82127653Y-63665500D01*
X81926444Y-63703112D01*
X81926441Y-63703112D01*
X81926441Y-63703113D01*
X81735575Y-63777054D01*
X81735569Y-63777057D01*
X81561539Y-63884812D01*
X81561537Y-63884814D01*
X81410269Y-64022712D01*
X81286912Y-64186064D01*
X81195673Y-64369295D01*
X81139654Y-64566183D01*
X81120768Y-64769999D01*
X81120768Y-64770000D01*
X68664219Y-64770000D01*
X68688428Y-64711554D01*
X68707485Y-64566800D01*
X68707403Y-64566179D01*
X68688428Y-64422047D01*
X68688428Y-64422046D01*
X68632555Y-64287158D01*
X68543674Y-64171326D01*
X68427843Y-64082445D01*
X68427840Y-64082444D01*
X68427838Y-64082442D01*
X68292957Y-64026573D01*
X68292952Y-64026571D01*
X68148201Y-64007515D01*
X68148199Y-64007515D01*
X68003447Y-64026571D01*
X68003445Y-64026572D01*
X67868561Y-64082443D01*
X67752726Y-64171326D01*
X67663843Y-64287161D01*
X67607972Y-64422045D01*
X67607971Y-64422047D01*
X67588915Y-64566798D01*
X67588915Y-64566801D01*
X58860403Y-64566801D01*
X58860345Y-64566179D01*
X58804328Y-64369299D01*
X58713088Y-64186065D01*
X58634836Y-64082442D01*
X58589730Y-64022712D01*
X58438462Y-63884814D01*
X58438460Y-63884812D01*
X58264430Y-63777057D01*
X58264424Y-63777054D01*
X58113993Y-63718777D01*
X58073556Y-63703112D01*
X57872347Y-63665500D01*
X57667653Y-63665500D01*
X57466444Y-63703112D01*
X57466441Y-63703112D01*
X57466441Y-63703113D01*
X57275575Y-63777054D01*
X57275569Y-63777057D01*
X57101539Y-63884812D01*
X57101537Y-63884814D01*
X56950269Y-64022712D01*
X56826912Y-64186064D01*
X56735673Y-64369295D01*
X56679654Y-64566183D01*
X56660768Y-64769999D01*
X56660768Y-64770000D01*
X56339232Y-64770000D01*
X56320345Y-64566179D01*
X56264328Y-64369299D01*
X56173088Y-64186065D01*
X56094836Y-64082442D01*
X56049730Y-64022712D01*
X55898462Y-63884814D01*
X55898460Y-63884812D01*
X55724430Y-63777057D01*
X55724424Y-63777054D01*
X55573993Y-63718777D01*
X55533556Y-63703112D01*
X55332347Y-63665500D01*
X55127653Y-63665500D01*
X54926444Y-63703112D01*
X54926441Y-63703112D01*
X54926441Y-63703113D01*
X54735575Y-63777054D01*
X54735569Y-63777057D01*
X54561539Y-63884812D01*
X54561537Y-63884814D01*
X54410269Y-64022712D01*
X54286912Y-64186064D01*
X54195673Y-64369295D01*
X54139654Y-64566183D01*
X54120768Y-64769999D01*
X54120768Y-64770000D01*
X50500000Y-64770000D01*
X50500000Y-63398401D01*
X64769515Y-63398401D01*
X64788571Y-63543152D01*
X64788573Y-63543157D01*
X64844442Y-63678038D01*
X64844445Y-63678044D01*
X64933325Y-63793873D01*
X64933326Y-63793874D01*
X65049155Y-63882754D01*
X65049161Y-63882757D01*
X65116601Y-63910691D01*
X65184046Y-63938628D01*
X65256423Y-63948156D01*
X65328799Y-63957685D01*
X65328800Y-63957685D01*
X65328801Y-63957685D01*
X65377051Y-63951332D01*
X65473554Y-63938628D01*
X65608443Y-63882755D01*
X65724274Y-63793874D01*
X65813155Y-63678043D01*
X65869028Y-63543154D01*
X65888085Y-63398400D01*
X65869028Y-63253646D01*
X65813155Y-63118758D01*
X65802646Y-63105063D01*
X81125500Y-63105063D01*
X81140266Y-63179301D01*
X81196515Y-63263484D01*
X81230234Y-63286014D01*
X81280699Y-63319734D01*
X81280702Y-63319734D01*
X81280703Y-63319735D01*
X81305666Y-63324700D01*
X81354933Y-63334500D01*
X83105066Y-63334499D01*
X83179301Y-63319734D01*
X83263484Y-63263484D01*
X83319734Y-63179301D01*
X83334500Y-63105067D01*
X83334499Y-62230000D01*
X83660768Y-62230000D01*
X83679654Y-62433816D01*
X83735673Y-62630704D01*
X83826912Y-62813935D01*
X83950269Y-62977287D01*
X84101537Y-63115185D01*
X84101539Y-63115187D01*
X84275569Y-63222942D01*
X84275575Y-63222945D01*
X84316010Y-63238609D01*
X84466444Y-63296888D01*
X84667653Y-63334500D01*
X84667656Y-63334500D01*
X84872344Y-63334500D01*
X84872347Y-63334500D01*
X85073556Y-63296888D01*
X85264427Y-63222944D01*
X85438462Y-63115186D01*
X85589732Y-62977285D01*
X85713088Y-62813935D01*
X85804328Y-62630701D01*
X85860345Y-62433821D01*
X85879232Y-62230000D01*
X85860345Y-62026179D01*
X85804328Y-61829299D01*
X85713088Y-61646065D01*
X85589732Y-61482715D01*
X85589730Y-61482712D01*
X85438462Y-61344814D01*
X85438460Y-61344812D01*
X85264430Y-61237057D01*
X85264424Y-61237054D01*
X85113993Y-61178777D01*
X85073556Y-61163112D01*
X84872347Y-61125500D01*
X84667653Y-61125500D01*
X84466444Y-61163112D01*
X84466441Y-61163112D01*
X84466441Y-61163113D01*
X84275575Y-61237054D01*
X84275569Y-61237057D01*
X84101539Y-61344812D01*
X84101537Y-61344814D01*
X83950269Y-61482712D01*
X83826912Y-61646064D01*
X83735673Y-61829295D01*
X83679654Y-62026183D01*
X83660768Y-62229999D01*
X83660768Y-62230000D01*
X83334499Y-62230000D01*
X83334499Y-61354934D01*
X83319734Y-61280699D01*
X83290571Y-61237054D01*
X83263484Y-61196515D01*
X83213019Y-61162796D01*
X83179301Y-61140266D01*
X83179299Y-61140265D01*
X83179296Y-61140264D01*
X83105069Y-61125500D01*
X81354936Y-61125500D01*
X81280698Y-61140266D01*
X81196515Y-61196515D01*
X81140266Y-61280699D01*
X81140264Y-61280703D01*
X81125500Y-61354928D01*
X81125500Y-63105063D01*
X65802646Y-63105063D01*
X65724274Y-63002926D01*
X65608443Y-62914045D01*
X65608440Y-62914044D01*
X65608438Y-62914042D01*
X65473557Y-62858173D01*
X65473552Y-62858171D01*
X65328801Y-62839115D01*
X65328799Y-62839115D01*
X65184047Y-62858171D01*
X65184045Y-62858172D01*
X65049161Y-62914043D01*
X65049158Y-62914044D01*
X65049158Y-62914045D01*
X64933326Y-63002926D01*
X64854948Y-63105071D01*
X64844443Y-63118761D01*
X64788572Y-63253645D01*
X64788571Y-63253647D01*
X64769515Y-63398398D01*
X64769515Y-63398401D01*
X50500000Y-63398401D01*
X50500000Y-63105063D01*
X54125500Y-63105063D01*
X54140266Y-63179301D01*
X54196515Y-63263484D01*
X54230234Y-63286014D01*
X54280699Y-63319734D01*
X54280702Y-63319734D01*
X54280703Y-63319735D01*
X54305666Y-63324700D01*
X54354933Y-63334500D01*
X56105066Y-63334499D01*
X56179301Y-63319734D01*
X56263484Y-63263484D01*
X56319734Y-63179301D01*
X56334500Y-63105067D01*
X56334499Y-62230000D01*
X56660768Y-62230000D01*
X56679654Y-62433816D01*
X56735673Y-62630704D01*
X56826912Y-62813935D01*
X56950269Y-62977287D01*
X57101537Y-63115185D01*
X57101539Y-63115187D01*
X57275569Y-63222942D01*
X57275575Y-63222945D01*
X57316010Y-63238609D01*
X57466444Y-63296888D01*
X57667653Y-63334500D01*
X57667656Y-63334500D01*
X57872344Y-63334500D01*
X57872347Y-63334500D01*
X58073556Y-63296888D01*
X58264427Y-63222944D01*
X58438462Y-63115186D01*
X58589732Y-62977285D01*
X58713088Y-62813935D01*
X58804328Y-62630701D01*
X58860345Y-62433821D01*
X58879232Y-62230000D01*
X58860345Y-62026179D01*
X58804328Y-61829299D01*
X58713088Y-61646065D01*
X58589732Y-61482715D01*
X58589730Y-61482712D01*
X58438462Y-61344814D01*
X58438460Y-61344812D01*
X58264430Y-61237057D01*
X58264424Y-61237054D01*
X58113993Y-61178777D01*
X58073556Y-61163112D01*
X57872347Y-61125500D01*
X57667653Y-61125500D01*
X57466444Y-61163112D01*
X57466441Y-61163112D01*
X57466441Y-61163113D01*
X57275575Y-61237054D01*
X57275569Y-61237057D01*
X57101539Y-61344812D01*
X57101537Y-61344814D01*
X56950269Y-61482712D01*
X56826912Y-61646064D01*
X56735673Y-61829295D01*
X56679654Y-62026183D01*
X56660768Y-62229999D01*
X56660768Y-62230000D01*
X56334499Y-62230000D01*
X56334499Y-61354934D01*
X56319734Y-61280699D01*
X56290571Y-61237054D01*
X56263484Y-61196515D01*
X56213019Y-61162796D01*
X56179301Y-61140266D01*
X56179299Y-61140265D01*
X56179296Y-61140264D01*
X56105069Y-61125500D01*
X54354936Y-61125500D01*
X54280698Y-61140266D01*
X54196515Y-61196515D01*
X54140266Y-61280699D01*
X54140264Y-61280703D01*
X54125500Y-61354928D01*
X54125500Y-63105063D01*
X50500000Y-63105063D01*
X50500000Y-58750000D01*
X51110768Y-58750000D01*
X51129654Y-58953816D01*
X51185673Y-59150704D01*
X51276912Y-59333935D01*
X51400269Y-59497287D01*
X51551537Y-59635185D01*
X51551539Y-59635187D01*
X51725569Y-59742942D01*
X51725575Y-59742945D01*
X51766010Y-59758609D01*
X51916444Y-59816888D01*
X52117653Y-59854500D01*
X52117656Y-59854500D01*
X52322344Y-59854500D01*
X52322347Y-59854500D01*
X52523556Y-59816888D01*
X52714427Y-59742944D01*
X52888462Y-59635186D01*
X53039732Y-59497285D01*
X53163088Y-59333935D01*
X53248380Y-59162645D01*
X53295883Y-59111408D01*
X53363545Y-59093987D01*
X53429886Y-59115912D01*
X53473841Y-59170224D01*
X53479155Y-59185823D01*
X53486567Y-59213485D01*
X53486570Y-59213492D01*
X53586399Y-59427578D01*
X53721894Y-59621082D01*
X53888917Y-59788105D01*
X54082421Y-59923600D01*
X54296507Y-60023429D01*
X54296516Y-60023433D01*
X54510000Y-60080634D01*
X54510000Y-59185501D01*
X54617685Y-59234680D01*
X54724237Y-59250000D01*
X54795763Y-59250000D01*
X54902315Y-59234680D01*
X55010000Y-59185501D01*
X55010000Y-60080633D01*
X55223483Y-60023433D01*
X55223492Y-60023429D01*
X55437578Y-59923600D01*
X55631082Y-59788105D01*
X55798105Y-59621082D01*
X55933600Y-59427578D01*
X56033429Y-59213492D01*
X56033435Y-59213478D01*
X56040844Y-59185826D01*
X56077207Y-59126165D01*
X56140054Y-59095634D01*
X56209429Y-59103928D01*
X56263308Y-59148412D01*
X56271619Y-59162645D01*
X56356912Y-59333935D01*
X56480269Y-59497287D01*
X56631537Y-59635185D01*
X56631539Y-59635187D01*
X56805569Y-59742942D01*
X56805575Y-59742945D01*
X56846010Y-59758609D01*
X56996444Y-59816888D01*
X57197653Y-59854500D01*
X57197656Y-59854500D01*
X57402344Y-59854500D01*
X57402347Y-59854500D01*
X57603556Y-59816888D01*
X57794427Y-59742944D01*
X57968462Y-59635186D01*
X58119732Y-59497285D01*
X58243088Y-59333935D01*
X58334328Y-59150701D01*
X58390345Y-58953821D01*
X58409232Y-58750000D01*
X58730768Y-58750000D01*
X58749654Y-58953816D01*
X58805673Y-59150704D01*
X58896912Y-59333935D01*
X59020269Y-59497287D01*
X59171537Y-59635185D01*
X59171539Y-59635187D01*
X59345569Y-59742942D01*
X59345575Y-59742945D01*
X59386010Y-59758609D01*
X59536444Y-59816888D01*
X59737653Y-59854500D01*
X59737656Y-59854500D01*
X59942344Y-59854500D01*
X59942347Y-59854500D01*
X60143556Y-59816888D01*
X60334427Y-59742944D01*
X60508462Y-59635186D01*
X60659732Y-59497285D01*
X60783088Y-59333935D01*
X60874328Y-59150701D01*
X60930345Y-58953821D01*
X60949232Y-58750000D01*
X61270768Y-58750000D01*
X61289654Y-58953816D01*
X61345673Y-59150704D01*
X61436912Y-59333935D01*
X61560269Y-59497287D01*
X61711537Y-59635185D01*
X61711539Y-59635187D01*
X61885569Y-59742942D01*
X61885575Y-59742945D01*
X61926010Y-59758609D01*
X62076444Y-59816888D01*
X62277653Y-59854500D01*
X62277656Y-59854500D01*
X62482344Y-59854500D01*
X62482347Y-59854500D01*
X62683556Y-59816888D01*
X62874427Y-59742944D01*
X63048462Y-59635186D01*
X63199732Y-59497285D01*
X63323088Y-59333935D01*
X63414328Y-59150701D01*
X63470345Y-58953821D01*
X63489232Y-58750000D01*
X63810768Y-58750000D01*
X63829654Y-58953816D01*
X63885673Y-59150704D01*
X63976912Y-59333935D01*
X64100269Y-59497287D01*
X64251537Y-59635185D01*
X64251539Y-59635187D01*
X64425569Y-59742942D01*
X64425575Y-59742945D01*
X64466010Y-59758609D01*
X64616444Y-59816888D01*
X64817653Y-59854500D01*
X64817656Y-59854500D01*
X65022344Y-59854500D01*
X65022347Y-59854500D01*
X65223556Y-59816888D01*
X65414427Y-59742944D01*
X65588462Y-59635186D01*
X65739732Y-59497285D01*
X65863088Y-59333935D01*
X65954328Y-59150701D01*
X66010345Y-58953821D01*
X66029232Y-58750000D01*
X66350768Y-58750000D01*
X66369654Y-58953816D01*
X66425673Y-59150704D01*
X66516912Y-59333935D01*
X66640269Y-59497287D01*
X66791537Y-59635185D01*
X66791539Y-59635187D01*
X66965569Y-59742942D01*
X66965575Y-59742945D01*
X67006010Y-59758609D01*
X67156444Y-59816888D01*
X67357653Y-59854500D01*
X67357656Y-59854500D01*
X67562344Y-59854500D01*
X67562347Y-59854500D01*
X67763556Y-59816888D01*
X67954427Y-59742944D01*
X68128462Y-59635186D01*
X68279732Y-59497285D01*
X68403088Y-59333935D01*
X68494328Y-59150701D01*
X68550345Y-58953821D01*
X68569232Y-58750000D01*
X68890768Y-58750000D01*
X68909654Y-58953816D01*
X68965673Y-59150704D01*
X69056912Y-59333935D01*
X69180269Y-59497287D01*
X69331537Y-59635185D01*
X69331539Y-59635187D01*
X69505569Y-59742942D01*
X69505575Y-59742945D01*
X69546010Y-59758609D01*
X69696444Y-59816888D01*
X69897653Y-59854500D01*
X69897656Y-59854500D01*
X70102344Y-59854500D01*
X70102347Y-59854500D01*
X70303556Y-59816888D01*
X70494427Y-59742944D01*
X70668462Y-59635186D01*
X70819732Y-59497285D01*
X70943088Y-59333935D01*
X71034328Y-59150701D01*
X71090345Y-58953821D01*
X71109232Y-58750000D01*
X71430768Y-58750000D01*
X71449654Y-58953816D01*
X71505673Y-59150704D01*
X71596912Y-59333935D01*
X71720269Y-59497287D01*
X71871537Y-59635185D01*
X71871539Y-59635187D01*
X72045569Y-59742942D01*
X72045575Y-59742945D01*
X72086010Y-59758609D01*
X72236444Y-59816888D01*
X72437653Y-59854500D01*
X72437656Y-59854500D01*
X72642344Y-59854500D01*
X72642347Y-59854500D01*
X72843556Y-59816888D01*
X73034427Y-59742944D01*
X73208462Y-59635186D01*
X73359732Y-59497285D01*
X73483088Y-59333935D01*
X73574328Y-59150701D01*
X73630345Y-58953821D01*
X73649232Y-58750000D01*
X73970768Y-58750000D01*
X73989654Y-58953816D01*
X74045673Y-59150704D01*
X74136912Y-59333935D01*
X74260269Y-59497287D01*
X74411537Y-59635185D01*
X74411539Y-59635187D01*
X74585569Y-59742942D01*
X74585575Y-59742945D01*
X74626010Y-59758609D01*
X74776444Y-59816888D01*
X74977653Y-59854500D01*
X74977656Y-59854500D01*
X75182344Y-59854500D01*
X75182347Y-59854500D01*
X75383556Y-59816888D01*
X75574427Y-59742944D01*
X75748462Y-59635186D01*
X75899732Y-59497285D01*
X76023088Y-59333935D01*
X76114328Y-59150701D01*
X76170345Y-58953821D01*
X76189232Y-58750000D01*
X76510768Y-58750000D01*
X76529654Y-58953816D01*
X76585673Y-59150704D01*
X76676912Y-59333935D01*
X76800269Y-59497287D01*
X76951537Y-59635185D01*
X76951539Y-59635187D01*
X77125569Y-59742942D01*
X77125575Y-59742945D01*
X77166010Y-59758609D01*
X77316444Y-59816888D01*
X77517653Y-59854500D01*
X77517656Y-59854500D01*
X77722344Y-59854500D01*
X77722347Y-59854500D01*
X77923556Y-59816888D01*
X78114427Y-59742944D01*
X78288462Y-59635186D01*
X78439732Y-59497285D01*
X78563088Y-59333935D01*
X78654328Y-59150701D01*
X78710345Y-58953821D01*
X78729232Y-58750000D01*
X79050768Y-58750000D01*
X79069654Y-58953816D01*
X79125673Y-59150704D01*
X79216912Y-59333935D01*
X79340269Y-59497287D01*
X79491537Y-59635185D01*
X79491539Y-59635187D01*
X79665569Y-59742942D01*
X79665575Y-59742945D01*
X79706010Y-59758609D01*
X79856444Y-59816888D01*
X80057653Y-59854500D01*
X80057656Y-59854500D01*
X80262344Y-59854500D01*
X80262347Y-59854500D01*
X80463556Y-59816888D01*
X80654427Y-59742944D01*
X80828462Y-59635186D01*
X80979732Y-59497285D01*
X81103088Y-59333935D01*
X81194328Y-59150701D01*
X81250345Y-58953821D01*
X81269232Y-58750000D01*
X81590768Y-58750000D01*
X81609654Y-58953816D01*
X81665673Y-59150704D01*
X81756912Y-59333935D01*
X81880269Y-59497287D01*
X82031537Y-59635185D01*
X82031539Y-59635187D01*
X82205569Y-59742942D01*
X82205575Y-59742945D01*
X82246010Y-59758609D01*
X82396444Y-59816888D01*
X82597653Y-59854500D01*
X82597656Y-59854500D01*
X82802344Y-59854500D01*
X82802347Y-59854500D01*
X83003556Y-59816888D01*
X83194427Y-59742944D01*
X83368462Y-59635186D01*
X83519732Y-59497285D01*
X83643088Y-59333935D01*
X83734328Y-59150701D01*
X83790345Y-58953821D01*
X83809232Y-58750000D01*
X84130768Y-58750000D01*
X84149654Y-58953816D01*
X84205673Y-59150704D01*
X84296912Y-59333935D01*
X84420269Y-59497287D01*
X84571537Y-59635185D01*
X84571539Y-59635187D01*
X84745569Y-59742942D01*
X84745575Y-59742945D01*
X84786010Y-59758609D01*
X84936444Y-59816888D01*
X85137653Y-59854500D01*
X85137656Y-59854500D01*
X85342344Y-59854500D01*
X85342347Y-59854500D01*
X85543556Y-59816888D01*
X85734427Y-59742944D01*
X85908462Y-59635186D01*
X85919566Y-59625063D01*
X86675500Y-59625063D01*
X86690266Y-59699301D01*
X86746515Y-59783484D01*
X86780234Y-59806014D01*
X86830699Y-59839734D01*
X86830702Y-59839734D01*
X86830703Y-59839735D01*
X86855666Y-59844700D01*
X86904933Y-59854500D01*
X88655066Y-59854499D01*
X88729301Y-59839734D01*
X88813484Y-59783484D01*
X88869734Y-59699301D01*
X88884500Y-59625067D01*
X88884499Y-57874934D01*
X88869734Y-57800699D01*
X88840571Y-57757054D01*
X88813484Y-57716515D01*
X88763019Y-57682796D01*
X88729301Y-57660266D01*
X88729299Y-57660265D01*
X88729296Y-57660264D01*
X88655069Y-57645500D01*
X86904936Y-57645500D01*
X86830698Y-57660266D01*
X86746515Y-57716515D01*
X86690266Y-57800699D01*
X86690264Y-57800703D01*
X86675500Y-57874928D01*
X86675500Y-59625063D01*
X85919566Y-59625063D01*
X86059732Y-59497285D01*
X86183088Y-59333935D01*
X86274328Y-59150701D01*
X86330345Y-58953821D01*
X86349232Y-58750000D01*
X86330345Y-58546179D01*
X86274328Y-58349299D01*
X86183088Y-58166065D01*
X86059732Y-58002715D01*
X86059730Y-58002712D01*
X85908462Y-57864814D01*
X85908460Y-57864812D01*
X85734430Y-57757057D01*
X85734424Y-57757054D01*
X85583993Y-57698777D01*
X85543556Y-57683112D01*
X85342347Y-57645500D01*
X85137653Y-57645500D01*
X84936444Y-57683112D01*
X84936441Y-57683112D01*
X84936441Y-57683113D01*
X84745575Y-57757054D01*
X84745569Y-57757057D01*
X84571539Y-57864812D01*
X84571537Y-57864814D01*
X84420269Y-58002712D01*
X84296912Y-58166064D01*
X84205673Y-58349295D01*
X84149654Y-58546183D01*
X84130768Y-58749999D01*
X84130768Y-58750000D01*
X83809232Y-58750000D01*
X83790345Y-58546179D01*
X83734328Y-58349299D01*
X83643088Y-58166065D01*
X83519732Y-58002715D01*
X83519730Y-58002712D01*
X83368462Y-57864814D01*
X83368460Y-57864812D01*
X83194430Y-57757057D01*
X83194424Y-57757054D01*
X83043993Y-57698777D01*
X83003556Y-57683112D01*
X82802347Y-57645500D01*
X82597653Y-57645500D01*
X82396444Y-57683112D01*
X82396441Y-57683112D01*
X82396441Y-57683113D01*
X82205575Y-57757054D01*
X82205569Y-57757057D01*
X82031539Y-57864812D01*
X82031537Y-57864814D01*
X81880269Y-58002712D01*
X81756912Y-58166064D01*
X81665673Y-58349295D01*
X81609654Y-58546183D01*
X81590768Y-58749999D01*
X81590768Y-58750000D01*
X81269232Y-58750000D01*
X81250345Y-58546179D01*
X81194328Y-58349299D01*
X81103088Y-58166065D01*
X80979732Y-58002715D01*
X80979730Y-58002712D01*
X80828462Y-57864814D01*
X80828460Y-57864812D01*
X80654430Y-57757057D01*
X80654424Y-57757054D01*
X80503993Y-57698777D01*
X80463556Y-57683112D01*
X80262347Y-57645500D01*
X80057653Y-57645500D01*
X79856444Y-57683112D01*
X79856441Y-57683112D01*
X79856441Y-57683113D01*
X79665575Y-57757054D01*
X79665569Y-57757057D01*
X79491539Y-57864812D01*
X79491537Y-57864814D01*
X79340269Y-58002712D01*
X79216912Y-58166064D01*
X79125673Y-58349295D01*
X79069654Y-58546183D01*
X79050768Y-58749999D01*
X79050768Y-58750000D01*
X78729232Y-58750000D01*
X78710345Y-58546179D01*
X78654328Y-58349299D01*
X78563088Y-58166065D01*
X78439732Y-58002715D01*
X78439730Y-58002712D01*
X78288462Y-57864814D01*
X78288460Y-57864812D01*
X78114430Y-57757057D01*
X78114424Y-57757054D01*
X77963993Y-57698777D01*
X77923556Y-57683112D01*
X77722347Y-57645500D01*
X77517653Y-57645500D01*
X77316444Y-57683112D01*
X77316441Y-57683112D01*
X77316441Y-57683113D01*
X77125575Y-57757054D01*
X77125569Y-57757057D01*
X76951539Y-57864812D01*
X76951537Y-57864814D01*
X76800269Y-58002712D01*
X76676912Y-58166064D01*
X76585673Y-58349295D01*
X76529654Y-58546183D01*
X76510768Y-58749999D01*
X76510768Y-58750000D01*
X76189232Y-58750000D01*
X76170345Y-58546179D01*
X76114328Y-58349299D01*
X76023088Y-58166065D01*
X75899732Y-58002715D01*
X75899730Y-58002712D01*
X75748462Y-57864814D01*
X75748460Y-57864812D01*
X75574430Y-57757057D01*
X75574424Y-57757054D01*
X75423993Y-57698777D01*
X75383556Y-57683112D01*
X75182347Y-57645500D01*
X74977653Y-57645500D01*
X74776444Y-57683112D01*
X74776441Y-57683112D01*
X74776441Y-57683113D01*
X74585575Y-57757054D01*
X74585569Y-57757057D01*
X74411539Y-57864812D01*
X74411537Y-57864814D01*
X74260269Y-58002712D01*
X74136912Y-58166064D01*
X74045673Y-58349295D01*
X73989654Y-58546183D01*
X73970768Y-58749999D01*
X73970768Y-58750000D01*
X73649232Y-58750000D01*
X73630345Y-58546179D01*
X73574328Y-58349299D01*
X73483088Y-58166065D01*
X73359732Y-58002715D01*
X73359730Y-58002712D01*
X73208462Y-57864814D01*
X73208460Y-57864812D01*
X73034430Y-57757057D01*
X73034424Y-57757054D01*
X72883993Y-57698777D01*
X72843556Y-57683112D01*
X72642347Y-57645500D01*
X72437653Y-57645500D01*
X72236444Y-57683112D01*
X72236441Y-57683112D01*
X72236441Y-57683113D01*
X72045575Y-57757054D01*
X72045569Y-57757057D01*
X71871539Y-57864812D01*
X71871537Y-57864814D01*
X71720269Y-58002712D01*
X71596912Y-58166064D01*
X71505673Y-58349295D01*
X71449654Y-58546183D01*
X71430768Y-58749999D01*
X71430768Y-58750000D01*
X71109232Y-58750000D01*
X71090345Y-58546179D01*
X71034328Y-58349299D01*
X70943088Y-58166065D01*
X70819732Y-58002715D01*
X70819730Y-58002712D01*
X70668462Y-57864814D01*
X70668460Y-57864812D01*
X70494430Y-57757057D01*
X70494424Y-57757054D01*
X70343993Y-57698777D01*
X70303556Y-57683112D01*
X70102347Y-57645500D01*
X69897653Y-57645500D01*
X69696444Y-57683112D01*
X69696441Y-57683112D01*
X69696441Y-57683113D01*
X69505575Y-57757054D01*
X69505569Y-57757057D01*
X69331539Y-57864812D01*
X69331537Y-57864814D01*
X69180269Y-58002712D01*
X69056912Y-58166064D01*
X68965673Y-58349295D01*
X68909654Y-58546183D01*
X68890768Y-58749999D01*
X68890768Y-58750000D01*
X68569232Y-58750000D01*
X68550345Y-58546179D01*
X68494328Y-58349299D01*
X68403088Y-58166065D01*
X68279732Y-58002715D01*
X68279730Y-58002712D01*
X68128462Y-57864814D01*
X68128460Y-57864812D01*
X67954430Y-57757057D01*
X67954424Y-57757054D01*
X67803993Y-57698777D01*
X67763556Y-57683112D01*
X67562347Y-57645500D01*
X67357653Y-57645500D01*
X67156444Y-57683112D01*
X67156441Y-57683112D01*
X67156441Y-57683113D01*
X66965575Y-57757054D01*
X66965569Y-57757057D01*
X66791539Y-57864812D01*
X66791537Y-57864814D01*
X66640269Y-58002712D01*
X66516912Y-58166064D01*
X66425673Y-58349295D01*
X66369654Y-58546183D01*
X66350768Y-58749999D01*
X66350768Y-58750000D01*
X66029232Y-58750000D01*
X66010345Y-58546179D01*
X65954328Y-58349299D01*
X65863088Y-58166065D01*
X65739732Y-58002715D01*
X65739730Y-58002712D01*
X65588462Y-57864814D01*
X65588460Y-57864812D01*
X65414430Y-57757057D01*
X65414424Y-57757054D01*
X65263993Y-57698777D01*
X65223556Y-57683112D01*
X65022347Y-57645500D01*
X64817653Y-57645500D01*
X64616444Y-57683112D01*
X64616441Y-57683112D01*
X64616441Y-57683113D01*
X64425575Y-57757054D01*
X64425569Y-57757057D01*
X64251539Y-57864812D01*
X64251537Y-57864814D01*
X64100269Y-58002712D01*
X63976912Y-58166064D01*
X63885673Y-58349295D01*
X63829654Y-58546183D01*
X63810768Y-58749999D01*
X63810768Y-58750000D01*
X63489232Y-58750000D01*
X63470345Y-58546179D01*
X63414328Y-58349299D01*
X63323088Y-58166065D01*
X63199732Y-58002715D01*
X63199730Y-58002712D01*
X63048462Y-57864814D01*
X63048460Y-57864812D01*
X62874430Y-57757057D01*
X62874424Y-57757054D01*
X62723993Y-57698777D01*
X62683556Y-57683112D01*
X62482347Y-57645500D01*
X62277653Y-57645500D01*
X62076444Y-57683112D01*
X62076441Y-57683112D01*
X62076441Y-57683113D01*
X61885575Y-57757054D01*
X61885569Y-57757057D01*
X61711539Y-57864812D01*
X61711537Y-57864814D01*
X61560269Y-58002712D01*
X61436912Y-58166064D01*
X61345673Y-58349295D01*
X61289654Y-58546183D01*
X61270768Y-58749999D01*
X61270768Y-58750000D01*
X60949232Y-58750000D01*
X60930345Y-58546179D01*
X60874328Y-58349299D01*
X60783088Y-58166065D01*
X60659732Y-58002715D01*
X60659730Y-58002712D01*
X60508462Y-57864814D01*
X60508460Y-57864812D01*
X60334430Y-57757057D01*
X60334424Y-57757054D01*
X60183993Y-57698777D01*
X60143556Y-57683112D01*
X59942347Y-57645500D01*
X59737653Y-57645500D01*
X59536444Y-57683112D01*
X59536441Y-57683112D01*
X59536441Y-57683113D01*
X59345575Y-57757054D01*
X59345569Y-57757057D01*
X59171539Y-57864812D01*
X59171537Y-57864814D01*
X59020269Y-58002712D01*
X58896912Y-58166064D01*
X58805673Y-58349295D01*
X58749654Y-58546183D01*
X58730768Y-58749999D01*
X58730768Y-58750000D01*
X58409232Y-58750000D01*
X58390345Y-58546179D01*
X58334328Y-58349299D01*
X58243088Y-58166065D01*
X58119732Y-58002715D01*
X58119730Y-58002712D01*
X57968462Y-57864814D01*
X57968460Y-57864812D01*
X57794430Y-57757057D01*
X57794424Y-57757054D01*
X57643993Y-57698777D01*
X57603556Y-57683112D01*
X57402347Y-57645500D01*
X57197653Y-57645500D01*
X56996444Y-57683112D01*
X56996441Y-57683112D01*
X56996441Y-57683113D01*
X56805575Y-57757054D01*
X56805569Y-57757057D01*
X56631539Y-57864812D01*
X56631537Y-57864814D01*
X56480269Y-58002712D01*
X56356912Y-58166064D01*
X56271619Y-58337354D01*
X56224116Y-58388591D01*
X56156453Y-58406012D01*
X56090112Y-58384086D01*
X56046158Y-58329775D01*
X56040844Y-58314174D01*
X56033434Y-58286518D01*
X56033429Y-58286507D01*
X55933600Y-58072422D01*
X55933599Y-58072420D01*
X55798113Y-57878926D01*
X55798108Y-57878920D01*
X55631082Y-57711894D01*
X55437578Y-57576399D01*
X55223492Y-57476570D01*
X55223486Y-57476567D01*
X55010000Y-57419364D01*
X55010000Y-58314498D01*
X54902315Y-58265320D01*
X54795763Y-58250000D01*
X54724237Y-58250000D01*
X54617685Y-58265320D01*
X54510000Y-58314498D01*
X54510000Y-57419364D01*
X54509999Y-57419364D01*
X54296513Y-57476567D01*
X54296507Y-57476570D01*
X54082422Y-57576399D01*
X54082420Y-57576400D01*
X53888926Y-57711886D01*
X53888920Y-57711891D01*
X53721891Y-57878920D01*
X53721886Y-57878926D01*
X53586400Y-58072420D01*
X53586399Y-58072422D01*
X53486570Y-58286507D01*
X53486564Y-58286522D01*
X53479154Y-58314177D01*
X53442788Y-58373837D01*
X53379941Y-58404365D01*
X53310566Y-58396070D01*
X53256688Y-58351583D01*
X53248380Y-58337354D01*
X53236838Y-58314174D01*
X53163088Y-58166065D01*
X53039732Y-58002715D01*
X53039730Y-58002712D01*
X52888462Y-57864814D01*
X52888460Y-57864812D01*
X52714430Y-57757057D01*
X52714424Y-57757054D01*
X52563993Y-57698777D01*
X52523556Y-57683112D01*
X52322347Y-57645500D01*
X52117653Y-57645500D01*
X51916444Y-57683112D01*
X51916441Y-57683112D01*
X51916441Y-57683113D01*
X51725575Y-57757054D01*
X51725569Y-57757057D01*
X51551539Y-57864812D01*
X51551537Y-57864814D01*
X51400269Y-58002712D01*
X51276912Y-58166064D01*
X51185673Y-58349295D01*
X51129654Y-58546183D01*
X51110768Y-58749999D01*
X51110768Y-58750000D01*
X50500000Y-58750000D01*
X50500000Y-54124000D01*
X50519685Y-54056961D01*
X50572489Y-54011206D01*
X50624000Y-54000000D01*
X89376000Y-54000000D01*
X89443039Y-54019685D01*
G37*
%TD.AperFunction*%
%TD*%
M02*
