%TF.GenerationSoftware,KiCad,Pcbnew,7.0.2-6a45011f42~172~ubuntu22.04.1*%
%TF.CreationDate,2023-05-29T22:59:09-07:00*%
%TF.ProjectId,comm_v0p5,636f6d6d-5f76-4307-9035-2e6b69636164,rev?*%
%TF.SameCoordinates,Original*%
%TF.FileFunction,Legend,Bot*%
%TF.FilePolarity,Positive*%
%FSLAX46Y46*%
G04 Gerber Fmt 4.6, Leading zero omitted, Abs format (unit mm)*
G04 Created by KiCad (PCBNEW 7.0.2-6a45011f42~172~ubuntu22.04.1) date 2023-05-29 22:59:09*
%MOMM*%
%LPD*%
G01*
G04 APERTURE LIST*
G04 Aperture macros list*
%AMRoundRect*
0 Rectangle with rounded corners*
0 $1 Rounding radius*
0 $2 $3 $4 $5 $6 $7 $8 $9 X,Y pos of 4 corners*
0 Add a 4 corners polygon primitive as box body*
4,1,4,$2,$3,$4,$5,$6,$7,$8,$9,$2,$3,0*
0 Add four circle primitives for the rounded corners*
1,1,$1+$1,$2,$3*
1,1,$1+$1,$4,$5*
1,1,$1+$1,$6,$7*
1,1,$1+$1,$8,$9*
0 Add four rect primitives between the rounded corners*
20,1,$1+$1,$2,$3,$4,$5,0*
20,1,$1+$1,$4,$5,$6,$7,0*
20,1,$1+$1,$6,$7,$8,$9,0*
20,1,$1+$1,$8,$9,$2,$3,0*%
G04 Aperture macros list end*
%ADD10C,0.203200*%
%ADD11C,0.150000*%
%ADD12C,0.120000*%
%ADD13R,1.700000X1.700000*%
%ADD14O,1.700000X1.700000*%
%ADD15R,2.000000X1.500000*%
%ADD16R,2.000000X3.800000*%
%ADD17RoundRect,0.250000X-1.075000X-0.550000X1.075000X-0.550000X1.075000X0.550000X-1.075000X0.550000X0*%
G04 APERTURE END LIST*
D10*
X87746666Y-88637830D02*
X87601523Y-88686211D01*
X87601523Y-88686211D02*
X87553142Y-88734592D01*
X87553142Y-88734592D02*
X87504761Y-88831354D01*
X87504761Y-88831354D02*
X87504761Y-88976497D01*
X87504761Y-88976497D02*
X87553142Y-89073259D01*
X87553142Y-89073259D02*
X87601523Y-89121640D01*
X87601523Y-89121640D02*
X87698285Y-89170020D01*
X87698285Y-89170020D02*
X88085333Y-89170020D01*
X88085333Y-89170020D02*
X88085333Y-88154020D01*
X88085333Y-88154020D02*
X87746666Y-88154020D01*
X87746666Y-88154020D02*
X87649904Y-88202401D01*
X87649904Y-88202401D02*
X87601523Y-88250782D01*
X87601523Y-88250782D02*
X87553142Y-88347544D01*
X87553142Y-88347544D02*
X87553142Y-88444306D01*
X87553142Y-88444306D02*
X87601523Y-88541068D01*
X87601523Y-88541068D02*
X87649904Y-88589449D01*
X87649904Y-88589449D02*
X87746666Y-88637830D01*
X87746666Y-88637830D02*
X88085333Y-88637830D01*
X86875809Y-88154020D02*
X86682285Y-88154020D01*
X86682285Y-88154020D02*
X86585523Y-88202401D01*
X86585523Y-88202401D02*
X86488761Y-88299163D01*
X86488761Y-88299163D02*
X86440380Y-88492687D01*
X86440380Y-88492687D02*
X86440380Y-88831354D01*
X86440380Y-88831354D02*
X86488761Y-89024878D01*
X86488761Y-89024878D02*
X86585523Y-89121640D01*
X86585523Y-89121640D02*
X86682285Y-89170020D01*
X86682285Y-89170020D02*
X86875809Y-89170020D01*
X86875809Y-89170020D02*
X86972571Y-89121640D01*
X86972571Y-89121640D02*
X87069333Y-89024878D01*
X87069333Y-89024878D02*
X87117714Y-88831354D01*
X87117714Y-88831354D02*
X87117714Y-88492687D01*
X87117714Y-88492687D02*
X87069333Y-88299163D01*
X87069333Y-88299163D02*
X86972571Y-88202401D01*
X86972571Y-88202401D02*
X86875809Y-88154020D01*
X86150095Y-88154020D02*
X85569523Y-88154020D01*
X85859809Y-89170020D02*
X85859809Y-88154020D01*
X76959580Y-52029601D02*
X77056342Y-51981220D01*
X77056342Y-51981220D02*
X77201485Y-51981220D01*
X77201485Y-51981220D02*
X77346628Y-52029601D01*
X77346628Y-52029601D02*
X77443390Y-52126363D01*
X77443390Y-52126363D02*
X77491771Y-52223125D01*
X77491771Y-52223125D02*
X77540152Y-52416649D01*
X77540152Y-52416649D02*
X77540152Y-52561792D01*
X77540152Y-52561792D02*
X77491771Y-52755316D01*
X77491771Y-52755316D02*
X77443390Y-52852078D01*
X77443390Y-52852078D02*
X77346628Y-52948840D01*
X77346628Y-52948840D02*
X77201485Y-52997220D01*
X77201485Y-52997220D02*
X77104723Y-52997220D01*
X77104723Y-52997220D02*
X76959580Y-52948840D01*
X76959580Y-52948840D02*
X76911199Y-52900459D01*
X76911199Y-52900459D02*
X76911199Y-52561792D01*
X76911199Y-52561792D02*
X77104723Y-52561792D01*
X76040342Y-52319887D02*
X76040342Y-52997220D01*
X76282247Y-51932840D02*
X76524152Y-52658554D01*
X76524152Y-52658554D02*
X75895199Y-52658554D01*
X74153485Y-52900459D02*
X74201866Y-52948840D01*
X74201866Y-52948840D02*
X74347009Y-52997220D01*
X74347009Y-52997220D02*
X74443771Y-52997220D01*
X74443771Y-52997220D02*
X74588914Y-52948840D01*
X74588914Y-52948840D02*
X74685676Y-52852078D01*
X74685676Y-52852078D02*
X74734057Y-52755316D01*
X74734057Y-52755316D02*
X74782438Y-52561792D01*
X74782438Y-52561792D02*
X74782438Y-52416649D01*
X74782438Y-52416649D02*
X74734057Y-52223125D01*
X74734057Y-52223125D02*
X74685676Y-52126363D01*
X74685676Y-52126363D02*
X74588914Y-52029601D01*
X74588914Y-52029601D02*
X74443771Y-51981220D01*
X74443771Y-51981220D02*
X74347009Y-51981220D01*
X74347009Y-51981220D02*
X74201866Y-52029601D01*
X74201866Y-52029601D02*
X74153485Y-52077982D01*
X73572914Y-52997220D02*
X73669676Y-52948840D01*
X73669676Y-52948840D02*
X73718057Y-52900459D01*
X73718057Y-52900459D02*
X73766438Y-52803697D01*
X73766438Y-52803697D02*
X73766438Y-52513411D01*
X73766438Y-52513411D02*
X73718057Y-52416649D01*
X73718057Y-52416649D02*
X73669676Y-52368268D01*
X73669676Y-52368268D02*
X73572914Y-52319887D01*
X73572914Y-52319887D02*
X73427771Y-52319887D01*
X73427771Y-52319887D02*
X73331009Y-52368268D01*
X73331009Y-52368268D02*
X73282628Y-52416649D01*
X73282628Y-52416649D02*
X73234247Y-52513411D01*
X73234247Y-52513411D02*
X73234247Y-52803697D01*
X73234247Y-52803697D02*
X73282628Y-52900459D01*
X73282628Y-52900459D02*
X73331009Y-52948840D01*
X73331009Y-52948840D02*
X73427771Y-52997220D01*
X73427771Y-52997220D02*
X73572914Y-52997220D01*
X72798819Y-52997220D02*
X72798819Y-52319887D01*
X72798819Y-52416649D02*
X72750438Y-52368268D01*
X72750438Y-52368268D02*
X72653676Y-52319887D01*
X72653676Y-52319887D02*
X72508533Y-52319887D01*
X72508533Y-52319887D02*
X72411771Y-52368268D01*
X72411771Y-52368268D02*
X72363390Y-52465030D01*
X72363390Y-52465030D02*
X72363390Y-52997220D01*
X72363390Y-52465030D02*
X72315009Y-52368268D01*
X72315009Y-52368268D02*
X72218247Y-52319887D01*
X72218247Y-52319887D02*
X72073104Y-52319887D01*
X72073104Y-52319887D02*
X71976343Y-52368268D01*
X71976343Y-52368268D02*
X71927962Y-52465030D01*
X71927962Y-52465030D02*
X71927962Y-52997220D01*
X71444152Y-52997220D02*
X71444152Y-52319887D01*
X71444152Y-52416649D02*
X71395771Y-52368268D01*
X71395771Y-52368268D02*
X71299009Y-52319887D01*
X71299009Y-52319887D02*
X71153866Y-52319887D01*
X71153866Y-52319887D02*
X71057104Y-52368268D01*
X71057104Y-52368268D02*
X71008723Y-52465030D01*
X71008723Y-52465030D02*
X71008723Y-52997220D01*
X71008723Y-52465030D02*
X70960342Y-52368268D01*
X70960342Y-52368268D02*
X70863580Y-52319887D01*
X70863580Y-52319887D02*
X70718437Y-52319887D01*
X70718437Y-52319887D02*
X70621676Y-52368268D01*
X70621676Y-52368268D02*
X70573295Y-52465030D01*
X70573295Y-52465030D02*
X70573295Y-52997220D01*
X69460533Y-51981220D02*
X69121866Y-52997220D01*
X69121866Y-52997220D02*
X68783199Y-51981220D01*
X68251009Y-51981220D02*
X68154247Y-51981220D01*
X68154247Y-51981220D02*
X68057485Y-52029601D01*
X68057485Y-52029601D02*
X68009104Y-52077982D01*
X68009104Y-52077982D02*
X67960723Y-52174744D01*
X67960723Y-52174744D02*
X67912342Y-52368268D01*
X67912342Y-52368268D02*
X67912342Y-52610173D01*
X67912342Y-52610173D02*
X67960723Y-52803697D01*
X67960723Y-52803697D02*
X68009104Y-52900459D01*
X68009104Y-52900459D02*
X68057485Y-52948840D01*
X68057485Y-52948840D02*
X68154247Y-52997220D01*
X68154247Y-52997220D02*
X68251009Y-52997220D01*
X68251009Y-52997220D02*
X68347771Y-52948840D01*
X68347771Y-52948840D02*
X68396152Y-52900459D01*
X68396152Y-52900459D02*
X68444533Y-52803697D01*
X68444533Y-52803697D02*
X68492914Y-52610173D01*
X68492914Y-52610173D02*
X68492914Y-52368268D01*
X68492914Y-52368268D02*
X68444533Y-52174744D01*
X68444533Y-52174744D02*
X68396152Y-52077982D01*
X68396152Y-52077982D02*
X68347771Y-52029601D01*
X68347771Y-52029601D02*
X68251009Y-51981220D01*
X67476914Y-52900459D02*
X67428533Y-52948840D01*
X67428533Y-52948840D02*
X67476914Y-52997220D01*
X67476914Y-52997220D02*
X67525295Y-52948840D01*
X67525295Y-52948840D02*
X67476914Y-52900459D01*
X67476914Y-52900459D02*
X67476914Y-52997220D01*
X66509294Y-51981220D02*
X66993104Y-51981220D01*
X66993104Y-51981220D02*
X67041485Y-52465030D01*
X67041485Y-52465030D02*
X66993104Y-52416649D01*
X66993104Y-52416649D02*
X66896342Y-52368268D01*
X66896342Y-52368268D02*
X66654437Y-52368268D01*
X66654437Y-52368268D02*
X66557675Y-52416649D01*
X66557675Y-52416649D02*
X66509294Y-52465030D01*
X66509294Y-52465030D02*
X66460913Y-52561792D01*
X66460913Y-52561792D02*
X66460913Y-52803697D01*
X66460913Y-52803697D02*
X66509294Y-52900459D01*
X66509294Y-52900459D02*
X66557675Y-52948840D01*
X66557675Y-52948840D02*
X66654437Y-52997220D01*
X66654437Y-52997220D02*
X66896342Y-52997220D01*
X66896342Y-52997220D02*
X66993104Y-52948840D01*
X66993104Y-52948840D02*
X67041485Y-52900459D01*
X64670818Y-52997220D02*
X65009485Y-52513411D01*
X65251390Y-52997220D02*
X65251390Y-51981220D01*
X65251390Y-51981220D02*
X64864342Y-51981220D01*
X64864342Y-51981220D02*
X64767580Y-52029601D01*
X64767580Y-52029601D02*
X64719199Y-52077982D01*
X64719199Y-52077982D02*
X64670818Y-52174744D01*
X64670818Y-52174744D02*
X64670818Y-52319887D01*
X64670818Y-52319887D02*
X64719199Y-52416649D01*
X64719199Y-52416649D02*
X64767580Y-52465030D01*
X64767580Y-52465030D02*
X64864342Y-52513411D01*
X64864342Y-52513411D02*
X65251390Y-52513411D01*
X63848342Y-52948840D02*
X63945104Y-52997220D01*
X63945104Y-52997220D02*
X64138628Y-52997220D01*
X64138628Y-52997220D02*
X64235390Y-52948840D01*
X64235390Y-52948840D02*
X64283771Y-52852078D01*
X64283771Y-52852078D02*
X64283771Y-52465030D01*
X64283771Y-52465030D02*
X64235390Y-52368268D01*
X64235390Y-52368268D02*
X64138628Y-52319887D01*
X64138628Y-52319887D02*
X63945104Y-52319887D01*
X63945104Y-52319887D02*
X63848342Y-52368268D01*
X63848342Y-52368268D02*
X63799961Y-52465030D01*
X63799961Y-52465030D02*
X63799961Y-52561792D01*
X63799961Y-52561792D02*
X64283771Y-52658554D01*
X63461295Y-52319887D02*
X63219390Y-52997220D01*
X63219390Y-52997220D02*
X62977485Y-52319887D01*
X62058247Y-52997220D02*
X62638819Y-52997220D01*
X62348533Y-52997220D02*
X62348533Y-51981220D01*
X62348533Y-51981220D02*
X62445295Y-52126363D01*
X62445295Y-52126363D02*
X62542057Y-52223125D01*
X62542057Y-52223125D02*
X62638819Y-52271506D01*
X88130476Y-50754020D02*
X87549904Y-50754020D01*
X87840190Y-51770020D02*
X87840190Y-50754020D01*
X87017714Y-50754020D02*
X86824190Y-50754020D01*
X86824190Y-50754020D02*
X86727428Y-50802401D01*
X86727428Y-50802401D02*
X86630666Y-50899163D01*
X86630666Y-50899163D02*
X86582285Y-51092687D01*
X86582285Y-51092687D02*
X86582285Y-51431354D01*
X86582285Y-51431354D02*
X86630666Y-51624878D01*
X86630666Y-51624878D02*
X86727428Y-51721640D01*
X86727428Y-51721640D02*
X86824190Y-51770020D01*
X86824190Y-51770020D02*
X87017714Y-51770020D01*
X87017714Y-51770020D02*
X87114476Y-51721640D01*
X87114476Y-51721640D02*
X87211238Y-51624878D01*
X87211238Y-51624878D02*
X87259619Y-51431354D01*
X87259619Y-51431354D02*
X87259619Y-51092687D01*
X87259619Y-51092687D02*
X87211238Y-50899163D01*
X87211238Y-50899163D02*
X87114476Y-50802401D01*
X87114476Y-50802401D02*
X87017714Y-50754020D01*
X86146857Y-51770020D02*
X86146857Y-50754020D01*
X86146857Y-50754020D02*
X85759809Y-50754020D01*
X85759809Y-50754020D02*
X85663047Y-50802401D01*
X85663047Y-50802401D02*
X85614666Y-50850782D01*
X85614666Y-50850782D02*
X85566285Y-50947544D01*
X85566285Y-50947544D02*
X85566285Y-51092687D01*
X85566285Y-51092687D02*
X85614666Y-51189449D01*
X85614666Y-51189449D02*
X85663047Y-51237830D01*
X85663047Y-51237830D02*
X85759809Y-51286211D01*
X85759809Y-51286211D02*
X86146857Y-51286211D01*
D11*
%TO.C,U2*%
X60197904Y-75590619D02*
X60197904Y-76400142D01*
X60197904Y-76400142D02*
X60150285Y-76495380D01*
X60150285Y-76495380D02*
X60102666Y-76543000D01*
X60102666Y-76543000D02*
X60007428Y-76590619D01*
X60007428Y-76590619D02*
X59816952Y-76590619D01*
X59816952Y-76590619D02*
X59721714Y-76543000D01*
X59721714Y-76543000D02*
X59674095Y-76495380D01*
X59674095Y-76495380D02*
X59626476Y-76400142D01*
X59626476Y-76400142D02*
X59626476Y-75590619D01*
X59197904Y-75685857D02*
X59150285Y-75638238D01*
X59150285Y-75638238D02*
X59055047Y-75590619D01*
X59055047Y-75590619D02*
X58816952Y-75590619D01*
X58816952Y-75590619D02*
X58721714Y-75638238D01*
X58721714Y-75638238D02*
X58674095Y-75685857D01*
X58674095Y-75685857D02*
X58626476Y-75781095D01*
X58626476Y-75781095D02*
X58626476Y-75876333D01*
X58626476Y-75876333D02*
X58674095Y-76019190D01*
X58674095Y-76019190D02*
X59245523Y-76590619D01*
X59245523Y-76590619D02*
X58626476Y-76590619D01*
%TO.C,C3*%
X64479466Y-62292580D02*
X64527085Y-62340200D01*
X64527085Y-62340200D02*
X64669942Y-62387819D01*
X64669942Y-62387819D02*
X64765180Y-62387819D01*
X64765180Y-62387819D02*
X64908037Y-62340200D01*
X64908037Y-62340200D02*
X65003275Y-62244961D01*
X65003275Y-62244961D02*
X65050894Y-62149723D01*
X65050894Y-62149723D02*
X65098513Y-61959247D01*
X65098513Y-61959247D02*
X65098513Y-61816390D01*
X65098513Y-61816390D02*
X65050894Y-61625914D01*
X65050894Y-61625914D02*
X65003275Y-61530676D01*
X65003275Y-61530676D02*
X64908037Y-61435438D01*
X64908037Y-61435438D02*
X64765180Y-61387819D01*
X64765180Y-61387819D02*
X64669942Y-61387819D01*
X64669942Y-61387819D02*
X64527085Y-61435438D01*
X64527085Y-61435438D02*
X64479466Y-61483057D01*
X64146132Y-61387819D02*
X63527085Y-61387819D01*
X63527085Y-61387819D02*
X63860418Y-61768771D01*
X63860418Y-61768771D02*
X63717561Y-61768771D01*
X63717561Y-61768771D02*
X63622323Y-61816390D01*
X63622323Y-61816390D02*
X63574704Y-61864009D01*
X63574704Y-61864009D02*
X63527085Y-61959247D01*
X63527085Y-61959247D02*
X63527085Y-62197342D01*
X63527085Y-62197342D02*
X63574704Y-62292580D01*
X63574704Y-62292580D02*
X63622323Y-62340200D01*
X63622323Y-62340200D02*
X63717561Y-62387819D01*
X63717561Y-62387819D02*
X64003275Y-62387819D01*
X64003275Y-62387819D02*
X64098513Y-62340200D01*
X64098513Y-62340200D02*
X64146132Y-62292580D01*
%TO.C,C4*%
X64377866Y-81901380D02*
X64425485Y-81949000D01*
X64425485Y-81949000D02*
X64568342Y-81996619D01*
X64568342Y-81996619D02*
X64663580Y-81996619D01*
X64663580Y-81996619D02*
X64806437Y-81949000D01*
X64806437Y-81949000D02*
X64901675Y-81853761D01*
X64901675Y-81853761D02*
X64949294Y-81758523D01*
X64949294Y-81758523D02*
X64996913Y-81568047D01*
X64996913Y-81568047D02*
X64996913Y-81425190D01*
X64996913Y-81425190D02*
X64949294Y-81234714D01*
X64949294Y-81234714D02*
X64901675Y-81139476D01*
X64901675Y-81139476D02*
X64806437Y-81044238D01*
X64806437Y-81044238D02*
X64663580Y-80996619D01*
X64663580Y-80996619D02*
X64568342Y-80996619D01*
X64568342Y-80996619D02*
X64425485Y-81044238D01*
X64425485Y-81044238D02*
X64377866Y-81091857D01*
X63520723Y-81329952D02*
X63520723Y-81996619D01*
X63758818Y-80949000D02*
X63996913Y-81663285D01*
X63996913Y-81663285D02*
X63377866Y-81663285D01*
D12*
%TO.C,U2*%
X55336000Y-75038000D02*
X61346000Y-75038000D01*
X57586000Y-68218000D02*
X61346000Y-68218000D01*
X61346000Y-68218000D02*
X61346000Y-69478000D01*
X61346000Y-75038000D02*
X61346000Y-73778000D01*
%TO.C,C3*%
X61748000Y-63828437D02*
X61748000Y-63964000D01*
X61748000Y-63828437D02*
X62812437Y-62764000D01*
X61748000Y-66219563D02*
X61748000Y-66084000D01*
X61748000Y-66219563D02*
X62812437Y-67284000D01*
X62812437Y-62764000D02*
X66268000Y-62764000D01*
X62812437Y-67284000D02*
X66268000Y-67284000D01*
X66268000Y-62764000D02*
X66268000Y-63964000D01*
X66268000Y-67284000D02*
X66268000Y-66084000D01*
%TO.C,C4*%
X61748000Y-77036437D02*
X61748000Y-77172000D01*
X61748000Y-77036437D02*
X62812437Y-75972000D01*
X61748000Y-79427563D02*
X61748000Y-79292000D01*
X61748000Y-79427563D02*
X62812437Y-80492000D01*
X62812437Y-75972000D02*
X66268000Y-75972000D01*
X62812437Y-80492000D02*
X66268000Y-80492000D01*
X66268000Y-75972000D02*
X66268000Y-77172000D01*
X66268000Y-80492000D02*
X66268000Y-79292000D01*
%TD*%
%LPC*%
D13*
%TO.C,J4*%
X55230000Y-62230000D03*
D14*
X57770000Y-62230000D03*
X55230000Y-64770000D03*
X57770000Y-64770000D03*
%TD*%
D13*
%TO.C,J6*%
X82230000Y-62230000D03*
D14*
X84770000Y-62230000D03*
X82230000Y-64770000D03*
X84770000Y-64770000D03*
%TD*%
D13*
%TO.C,J5*%
X55230000Y-78230000D03*
D14*
X57770000Y-78230000D03*
X55230000Y-80770000D03*
X57770000Y-80770000D03*
%TD*%
D13*
%TO.C,J7*%
X82230000Y-78230000D03*
D14*
X84770000Y-78230000D03*
X82230000Y-80770000D03*
X84770000Y-80770000D03*
%TD*%
D13*
%TO.C,J1*%
X87780000Y-84700000D03*
D14*
X85240000Y-84700000D03*
X82700000Y-84700000D03*
X80160000Y-84700000D03*
X77620000Y-84700000D03*
X75080000Y-84700000D03*
X72540000Y-84700000D03*
X70000000Y-84700000D03*
X67460000Y-84700000D03*
X64920000Y-84700000D03*
X62380000Y-84700000D03*
X59840000Y-84700000D03*
X57300000Y-84700000D03*
X54760000Y-84700000D03*
X52220000Y-84700000D03*
%TD*%
D13*
%TO.C,J2*%
X87780000Y-58750000D03*
D14*
X85240000Y-58750000D03*
X82700000Y-58750000D03*
X80160000Y-58750000D03*
X77620000Y-58750000D03*
X75080000Y-58750000D03*
X72540000Y-58750000D03*
X70000000Y-58750000D03*
X67460000Y-58750000D03*
X64920000Y-58750000D03*
X62380000Y-58750000D03*
X59840000Y-58750000D03*
X57300000Y-58750000D03*
X54760000Y-58750000D03*
X52220000Y-58750000D03*
%TD*%
D15*
%TO.C,U2*%
X56286000Y-73928000D03*
X56286000Y-71628000D03*
D16*
X62586000Y-71628000D03*
D15*
X56286000Y-69328000D03*
%TD*%
D17*
%TO.C,C3*%
X62333000Y-65024000D03*
X65683000Y-65024000D03*
%TD*%
%TO.C,C4*%
X62333000Y-78232000D03*
X65683000Y-78232000D03*
%TD*%
%LPD*%
M02*
