%TF.GenerationSoftware,KiCad,Pcbnew,7.0.8-7.0.8~ubuntu22.04.1*%
%TF.CreationDate,2023-11-12T15:46:43-08:00*%
%TF.ProjectId,comm_v0p6,636f6d6d-5f76-4307-9036-2e6b69636164,rev?*%
%TF.SameCoordinates,Original*%
%TF.FileFunction,Copper,L1,Top*%
%TF.FilePolarity,Positive*%
%FSLAX46Y46*%
G04 Gerber Fmt 4.6, Leading zero omitted, Abs format (unit mm)*
G04 Created by KiCad (PCBNEW 7.0.8-7.0.8~ubuntu22.04.1) date 2023-11-12 15:46:43*
%MOMM*%
%LPD*%
G01*
G04 APERTURE LIST*
G04 Aperture macros list*
%AMRoundRect*
0 Rectangle with rounded corners*
0 $1 Rounding radius*
0 $2 $3 $4 $5 $6 $7 $8 $9 X,Y pos of 4 corners*
0 Add a 4 corners polygon primitive as box body*
4,1,4,$2,$3,$4,$5,$6,$7,$8,$9,$2,$3,0*
0 Add four circle primitives for the rounded corners*
1,1,$1+$1,$2,$3*
1,1,$1+$1,$4,$5*
1,1,$1+$1,$6,$7*
1,1,$1+$1,$8,$9*
0 Add four rect primitives between the rounded corners*
20,1,$1+$1,$2,$3,$4,$5,0*
20,1,$1+$1,$4,$5,$6,$7,0*
20,1,$1+$1,$6,$7,$8,$9,0*
20,1,$1+$1,$8,$9,$2,$3,0*%
%AMRotRect*
0 Rectangle, with rotation*
0 The origin of the aperture is its center*
0 $1 length*
0 $2 width*
0 $3 Rotation angle, in degrees counterclockwise*
0 Add horizontal line*
21,1,$1,$2,0,0,$3*%
G04 Aperture macros list end*
%TA.AperFunction,SMDPad,CuDef*%
%ADD10RoundRect,0.250000X-0.250000X-0.475000X0.250000X-0.475000X0.250000X0.475000X-0.250000X0.475000X0*%
%TD*%
%TA.AperFunction,ComponentPad*%
%ADD11R,1.700000X1.700000*%
%TD*%
%TA.AperFunction,ComponentPad*%
%ADD12O,1.700000X1.700000*%
%TD*%
%TA.AperFunction,SMDPad,CuDef*%
%ADD13RoundRect,0.200000X0.200000X0.275000X-0.200000X0.275000X-0.200000X-0.275000X0.200000X-0.275000X0*%
%TD*%
%TA.AperFunction,SMDPad,CuDef*%
%ADD14RoundRect,0.140000X0.021213X-0.219203X0.219203X-0.021213X-0.021213X0.219203X-0.219203X0.021213X0*%
%TD*%
%TA.AperFunction,SMDPad,CuDef*%
%ADD15RoundRect,0.062500X-0.309359X0.220971X0.220971X-0.309359X0.309359X-0.220971X-0.220971X0.309359X0*%
%TD*%
%TA.AperFunction,SMDPad,CuDef*%
%ADD16RoundRect,0.062500X-0.309359X-0.220971X-0.220971X-0.309359X0.309359X0.220971X0.220971X0.309359X0*%
%TD*%
%TA.AperFunction,SMDPad,CuDef*%
%ADD17RotRect,3.100000X3.100000X315.000000*%
%TD*%
%TA.AperFunction,SMDPad,CuDef*%
%ADD18RoundRect,0.140000X-0.021213X0.219203X-0.219203X0.021213X0.021213X-0.219203X0.219203X-0.021213X0*%
%TD*%
%TA.AperFunction,SMDPad,CuDef*%
%ADD19RotRect,0.400000X1.900000X225.000000*%
%TD*%
%TA.AperFunction,ViaPad*%
%ADD20C,0.600000*%
%TD*%
%TA.AperFunction,ViaPad*%
%ADD21C,1.000000*%
%TD*%
%TA.AperFunction,Conductor*%
%ADD22C,0.200000*%
%TD*%
%TA.AperFunction,Conductor*%
%ADD23C,0.800000*%
%TD*%
%TA.AperFunction,Conductor*%
%ADD24C,0.400000*%
%TD*%
G04 APERTURE END LIST*
D10*
%TO.P,C3,1*%
%TO.N,+5V*%
X55529400Y-71628000D03*
%TO.P,C3,2*%
%TO.N,GND*%
X57429400Y-71628000D03*
%TD*%
D11*
%TO.P,J4,1,Pin_1*%
%TO.N,+5V*%
X55230000Y-62230000D03*
D12*
%TO.P,J4,2,Pin_2*%
%TO.N,/B1_CS0*%
X57770000Y-62230000D03*
%TO.P,J4,3,Pin_3*%
%TO.N,/B1_SCK*%
X55230000Y-64770000D03*
%TO.P,J4,4,Pin_4*%
%TO.N,/RESET_DRV0*%
X57770000Y-64770000D03*
%TD*%
D11*
%TO.P,J6,1,Pin_1*%
%TO.N,/B1_MOSI*%
X82230000Y-62230000D03*
D12*
%TO.P,J6,2,Pin_2*%
%TO.N,unconnected-(J6-Pin_2-Pad2)*%
X84770000Y-62230000D03*
%TO.P,J6,3,Pin_3*%
%TO.N,/B1_CS2*%
X82230000Y-64770000D03*
%TO.P,J6,4,Pin_4*%
%TO.N,/RESET_DRV2*%
X84770000Y-64770000D03*
%TD*%
D11*
%TO.P,J5,1,Pin_1*%
%TO.N,/B1_MISO*%
X55230000Y-78230000D03*
D12*
%TO.P,J5,2,Pin_2*%
%TO.N,/B1_CS1*%
X57770000Y-78230000D03*
%TO.P,J5,3,Pin_3*%
%TO.N,unconnected-(J5-Pin_3-Pad3)*%
X55230000Y-80770000D03*
%TO.P,J5,4,Pin_4*%
%TO.N,/RESET_DRV1*%
X57770000Y-80770000D03*
%TD*%
D11*
%TO.P,J7,1,Pin_1*%
%TO.N,/RESET_DRV3*%
X82230000Y-78230000D03*
D12*
%TO.P,J7,2,Pin_2*%
%TO.N,/B1_CS3*%
X84770000Y-78230000D03*
%TO.P,J7,3,Pin_3*%
%TO.N,GND*%
X82230000Y-80770000D03*
%TO.P,J7,4,Pin_4*%
%TO.N,unconnected-(J7-Pin_4-Pad4)*%
X84770000Y-80770000D03*
%TD*%
D13*
%TO.P,R5,1*%
%TO.N,/RESET_MSTR*%
X72161400Y-63347600D03*
%TO.P,R5,2*%
%TO.N,+5V*%
X70511400Y-63347600D03*
%TD*%
D12*
%TO.P,J1,15,Pin_15*%
%TO.N,+5V*%
X52220000Y-84700000D03*
%TO.P,J1,14,Pin_14*%
%TO.N,GND*%
X54760000Y-84700000D03*
%TO.P,J1,13,Pin_13*%
%TO.N,/RESET_MSTR*%
X57300000Y-84700000D03*
%TO.P,J1,12,Pin_12*%
%TO.N,/B0_SCK*%
X59840000Y-84700000D03*
%TO.P,J1,11,Pin_11*%
%TO.N,/B0_MOSI*%
X62380000Y-84700000D03*
%TO.P,J1,10,Pin_10*%
%TO.N,/B0_MISO*%
X64920000Y-84700000D03*
%TO.P,J1,9,Pin_9*%
%TO.N,/B0_CS0*%
X67460000Y-84700000D03*
%TO.P,J1,8,Pin_8*%
%TO.N,/B0_CS1*%
X70000000Y-84700000D03*
%TO.P,J1,7,Pin_7*%
%TO.N,/B0_CS2*%
X72540000Y-84700000D03*
%TO.P,J1,6,Pin_6*%
%TO.N,/B0_CS3*%
X75080000Y-84700000D03*
%TO.P,J1,5,Pin_5*%
%TO.N,/B0_CS4*%
X77620000Y-84700000D03*
%TO.P,J1,4,Pin_4*%
%TO.N,/B0_CS5*%
X80160000Y-84700000D03*
%TO.P,J1,3,Pin_3*%
%TO.N,/B0_CS6*%
X82700000Y-84700000D03*
%TO.P,J1,2,Pin_2*%
%TO.N,/B0_CS7*%
X85240000Y-84700000D03*
D11*
%TO.P,J1,1,Pin_1*%
%TO.N,/EXT_INT0*%
X87780000Y-84700000D03*
%TD*%
D14*
%TO.P,C2,1*%
%TO.N,+5V*%
X73093089Y-74862611D03*
%TO.P,C2,2*%
%TO.N,GND*%
X73771911Y-74183789D03*
%TD*%
D11*
%TO.P,J2,1,Pin_1*%
%TO.N,/EXT_INT0*%
X87780000Y-58750000D03*
D12*
%TO.P,J2,2,Pin_2*%
%TO.N,unconnected-(J2-Pin_2-Pad2)*%
X85240000Y-58750000D03*
%TO.P,J2,3,Pin_3*%
%TO.N,/B0_CS7*%
X82700000Y-58750000D03*
%TO.P,J2,4,Pin_4*%
%TO.N,/B0_CS6*%
X80160000Y-58750000D03*
%TO.P,J2,5,Pin_5*%
%TO.N,/B0_CS5*%
X77620000Y-58750000D03*
%TO.P,J2,6,Pin_6*%
%TO.N,/B0_CS4*%
X75080000Y-58750000D03*
%TO.P,J2,7,Pin_7*%
%TO.N,/B0_CS3*%
X72540000Y-58750000D03*
%TO.P,J2,8,Pin_8*%
%TO.N,/B0_CS2*%
X70000000Y-58750000D03*
%TO.P,J2,9,Pin_9*%
%TO.N,/B0_CS1*%
X67460000Y-58750000D03*
%TO.P,J2,10,Pin_10*%
%TO.N,/B0_MISO*%
X64920000Y-58750000D03*
%TO.P,J2,11,Pin_11*%
%TO.N,/B0_MOSI*%
X62380000Y-58750000D03*
%TO.P,J2,12,Pin_12*%
%TO.N,/B0_SCK*%
X59840000Y-58750000D03*
%TO.P,J2,13,Pin_13*%
%TO.N,/RESET_MSTR*%
X57300000Y-58750000D03*
%TO.P,J2,14,Pin_14*%
%TO.N,GND*%
X54760000Y-58750000D03*
%TO.P,J2,15,Pin_15*%
%TO.N,+5V*%
X52220000Y-58750000D03*
%TD*%
D15*
%TO.P,U1,1,PD3*%
%TO.N,/B1_CS0*%
X70235764Y-68811090D03*
%TO.P,U1,2,PD4*%
%TO.N,/B1_SCK*%
X69882211Y-69164644D03*
%TO.P,U1,3,PE0*%
%TO.N,unconnected-(U1-PE0-Pad3)*%
X69528657Y-69518197D03*
%TO.P,U1,4,VCC*%
%TO.N,+5V*%
X69175104Y-69871751D03*
%TO.P,U1,5,GND*%
%TO.N,GND*%
X68821551Y-70225304D03*
%TO.P,U1,6,PE1*%
%TO.N,unconnected-(U1-PE1-Pad6)*%
X68467997Y-70578857D03*
%TO.P,U1,7,XTAL1/PB6*%
%TO.N,/XTAL1*%
X68114444Y-70932411D03*
%TO.P,U1,8,XTAL2/PB7*%
%TO.N,/XTAL2*%
X67760890Y-71285964D03*
D16*
%TO.P,U1,9,PD5*%
%TO.N,/B1_CS1*%
X67760890Y-72258236D03*
%TO.P,U1,10,PD6*%
%TO.N,/B1_CS2*%
X68114444Y-72611789D03*
%TO.P,U1,11,PD7*%
%TO.N,/B1_CS3*%
X68467997Y-72965343D03*
%TO.P,U1,12,PB0*%
%TO.N,unconnected-(U1-PB0-Pad12)*%
X68821551Y-73318896D03*
%TO.P,U1,13,PB1*%
%TO.N,unconnected-(U1-PB1-Pad13)*%
X69175104Y-73672449D03*
%TO.P,U1,14,PB2*%
%TO.N,/B0_CS0*%
X69528657Y-74026003D03*
%TO.P,U1,15,PB3*%
%TO.N,/B0_MOSI*%
X69882211Y-74379556D03*
%TO.P,U1,16,PB4*%
%TO.N,/B0_MISO*%
X70235764Y-74733110D03*
D15*
%TO.P,U1,17,PB5*%
%TO.N,/B0_SCK*%
X71208036Y-74733110D03*
%TO.P,U1,18,AVCC*%
%TO.N,+5V*%
X71561589Y-74379556D03*
%TO.P,U1,19,PE2*%
%TO.N,unconnected-(U1-PE2-Pad19)*%
X71915143Y-74026003D03*
%TO.P,U1,20,AREF*%
%TO.N,+5V*%
X72268696Y-73672449D03*
%TO.P,U1,21,GND*%
%TO.N,GND*%
X72622249Y-73318896D03*
%TO.P,U1,22,PE3*%
%TO.N,unconnected-(U1-PE3-Pad22)*%
X72975803Y-72965343D03*
%TO.P,U1,23,PC0*%
%TO.N,/RESET_DRV0*%
X73329356Y-72611789D03*
%TO.P,U1,24,PC1*%
%TO.N,/RESET_DRV1*%
X73682910Y-72258236D03*
D16*
%TO.P,U1,25,PC2*%
%TO.N,/RESET_DRV2*%
X73682910Y-71285964D03*
%TO.P,U1,26,PC3*%
%TO.N,/RESET_DRV3*%
X73329356Y-70932411D03*
%TO.P,U1,27,PC4*%
%TO.N,unconnected-(U1-PC4-Pad27)*%
X72975803Y-70578857D03*
%TO.P,U1,28,PC5*%
%TO.N,unconnected-(U1-PC5-Pad28)*%
X72622249Y-70225304D03*
%TO.P,U1,29,~{RESET}/PC6*%
%TO.N,/RESET_MSTR*%
X72268696Y-69871751D03*
%TO.P,U1,30,PD0*%
%TO.N,/B1_MISO*%
X71915143Y-69518197D03*
%TO.P,U1,31,PD1*%
%TO.N,/B1_MOSI*%
X71561589Y-69164644D03*
%TO.P,U1,32,PD2*%
%TO.N,/EXT_INT0*%
X71208036Y-68811090D03*
D17*
%TO.P,U1,33,GND*%
%TO.N,GND*%
X70721900Y-71772100D03*
%TD*%
D18*
%TO.P,C1,1*%
%TO.N,+5V*%
X68391911Y-68724389D03*
%TO.P,C1,2*%
%TO.N,GND*%
X67713089Y-69403211D03*
%TD*%
D19*
%TO.P,Y1,1,1*%
%TO.N,/XTAL1*%
X65818328Y-67167172D03*
%TO.P,Y1,2,2*%
%TO.N,GND*%
X64969800Y-68015700D03*
%TO.P,Y1,3,3*%
%TO.N,/XTAL2*%
X64121272Y-68864228D03*
%TD*%
D20*
%TO.N,+5V*%
X67995800Y-67808700D03*
D21*
X53924200Y-71628000D03*
D20*
X73710800Y-75514200D03*
%TO.N,/B0_CS0*%
X66497200Y-79451200D03*
%TO.N,/B1_CS2*%
X67173537Y-73488410D03*
X74761800Y-70731500D03*
%TO.N,/B1_CS3*%
X73126600Y-79502000D03*
X65303400Y-78486000D03*
%TO.N,/B1_MISO*%
X72446600Y-68779500D03*
X64055100Y-70131200D03*
%TO.N,/B1_SCK*%
X68148200Y-64566800D03*
X69231300Y-67520500D03*
%TO.N,/RESET_DRV0*%
X65328800Y-63398400D03*
X73985900Y-73268300D03*
%TO.N,/RESET_MSTR*%
X72062400Y-65557400D03*
X74345800Y-67843400D03*
%TO.N,GND*%
X72898000Y-65354200D03*
X64643000Y-79070200D03*
X74786900Y-73609200D03*
X72542400Y-80137000D03*
X67843400Y-65354200D03*
X64643000Y-64008000D03*
X74396600Y-74803000D03*
X64185800Y-71018400D03*
D21*
X58978800Y-71628000D03*
D20*
X75260200Y-69926200D03*
X65862200Y-80010000D03*
X66446400Y-73914000D03*
X75189144Y-67609656D03*
X66167000Y-69215000D03*
X73098294Y-68160406D03*
X67310000Y-68478400D03*
%TD*%
D22*
%TO.N,/B0_MISO*%
X64920000Y-84700000D02*
X64920000Y-83543000D01*
X64920000Y-83543000D02*
X70235800Y-78227200D01*
X70235800Y-78227200D02*
X70235800Y-74733100D01*
%TO.N,/RESET_MSTR*%
X57300000Y-58750000D02*
X57300000Y-59865400D01*
X57300000Y-59865400D02*
X57785000Y-60350400D01*
X57785000Y-60350400D02*
X69164200Y-60350400D01*
X69164200Y-60350400D02*
X72161400Y-63347600D01*
%TO.N,/RESET_DRV3*%
X82230000Y-78230000D02*
X82230000Y-76088200D01*
X80838000Y-63423800D02*
X73329400Y-70932400D01*
X82230000Y-76088200D02*
X86309200Y-72009000D01*
X86309200Y-72009000D02*
X86309200Y-64541400D01*
X86309200Y-64541400D02*
X85191600Y-63423800D01*
X85191600Y-63423800D02*
X80838000Y-63423800D01*
%TO.N,/RESET_DRV2*%
X84770000Y-64770000D02*
X84770000Y-67960200D01*
X84770000Y-67960200D02*
X81444200Y-71286000D01*
X81444200Y-71286000D02*
X73682900Y-71286000D01*
%TO.N,/B1_MISO*%
X64055100Y-70131200D02*
X62228200Y-70131200D01*
X62228200Y-70131200D02*
X55230000Y-77129400D01*
X55230000Y-77129400D02*
X55230000Y-78230000D01*
%TO.N,+5V*%
X72268700Y-73672400D02*
X72644000Y-74047800D01*
X68391900Y-68724400D02*
X68783200Y-69115700D01*
D23*
X52220000Y-58750000D02*
X52220000Y-84700000D01*
D22*
X68368800Y-68724400D02*
X68391900Y-68724400D01*
X67995800Y-67808700D02*
X67995800Y-68351400D01*
X68253700Y-67550800D02*
X68288400Y-67550800D01*
X72644000Y-74047800D02*
X72644000Y-74413500D01*
X68783200Y-69115700D02*
X68783200Y-69494400D01*
X67995800Y-67808700D02*
X68253700Y-67550800D01*
X68288400Y-67550800D02*
X70511400Y-65327800D01*
X71561600Y-74379600D02*
X71829900Y-74647900D01*
X72644000Y-74413500D02*
X72652500Y-74422000D01*
X67995800Y-68351400D02*
X68368800Y-68724400D01*
D23*
X55230000Y-62230000D02*
X52220000Y-62230000D01*
D22*
X68783200Y-69494400D02*
X69160600Y-69871800D01*
X72426600Y-74647900D02*
X72652500Y-74422000D01*
X73093100Y-74896500D02*
X73093100Y-74862600D01*
X71829900Y-74647900D02*
X72426600Y-74647900D01*
X69160600Y-69871800D02*
X69175100Y-69871800D01*
D24*
X53924200Y-71628000D02*
X52423200Y-71628000D01*
D22*
X70511400Y-65327800D02*
X70511400Y-63347600D01*
D24*
X55529400Y-71628000D02*
X53924200Y-71628000D01*
D22*
X73710800Y-75514200D02*
X73093100Y-74896500D01*
X72652500Y-74422000D02*
X73093100Y-74862600D01*
%TO.N,/B0_CS0*%
X66497200Y-79451200D02*
X66497200Y-77057500D01*
X66497200Y-77057500D02*
X69528700Y-74026000D01*
%TO.N,/B0_MISO*%
X65151000Y-84469000D02*
X64920000Y-84700000D01*
%TO.N,/B0_MOSI*%
X64058800Y-82016600D02*
X65201800Y-82016600D01*
X62380000Y-84700000D02*
X62391400Y-84700000D01*
X62380000Y-83695400D02*
X64058800Y-82016600D01*
X68961000Y-78257400D02*
X68961000Y-75300767D01*
X69882200Y-74379600D02*
X69566700Y-74695100D01*
X65201800Y-82016600D02*
X68961000Y-78257400D01*
X62380000Y-84700000D02*
X62380000Y-83695400D01*
X68961000Y-75300767D02*
X69882211Y-74379556D01*
%TO.N,/B0_SCK*%
X61881000Y-86741000D02*
X65557400Y-86741000D01*
X59840000Y-84700000D02*
X61881000Y-86741000D01*
X65557400Y-86741000D02*
X66190000Y-86108400D01*
X66190000Y-86108400D02*
X66190000Y-83797000D01*
X66190000Y-83797000D02*
X71208000Y-78779000D01*
X71208000Y-78779000D02*
X71208000Y-74733100D01*
%TO.N,/B1_CS0*%
X58870100Y-62230000D02*
X70533500Y-62230000D01*
X70533500Y-62230000D02*
X71191800Y-62888300D01*
X71191800Y-67855100D02*
X70235800Y-68811100D01*
X57770000Y-62230000D02*
X58870100Y-62230000D01*
X71191800Y-62888300D02*
X71191800Y-67855100D01*
%TO.N,/B1_CS1*%
X58870100Y-78230000D02*
X64841900Y-72258200D01*
X57770000Y-78230000D02*
X58870100Y-78230000D01*
X64841900Y-72258200D02*
X67760900Y-72258200D01*
%TO.N,/B1_CS2*%
X68114400Y-72611800D02*
X67237790Y-73488410D01*
X82219800Y-64770000D02*
X76258300Y-70731500D01*
X82230000Y-64770000D02*
X82219800Y-64770000D01*
X76258300Y-70731500D02*
X74761800Y-70731500D01*
X67237790Y-73488410D02*
X67173537Y-73488410D01*
%TO.N,/B1_CS3*%
X67723537Y-73716228D02*
X67723537Y-73709763D01*
X67723537Y-73709763D02*
X68468000Y-72965300D01*
X84505800Y-79502000D02*
X84770000Y-79237800D01*
X73126600Y-79502000D02*
X84505800Y-79502000D01*
X65303400Y-76136365D02*
X67723537Y-73716228D01*
X65303400Y-78486000D02*
X65303400Y-76136365D01*
X84770000Y-79237800D02*
X84770000Y-78230000D01*
%TO.N,/B1_MISO*%
X71915100Y-69518200D02*
X72446600Y-68986700D01*
X72446600Y-68986700D02*
X72446600Y-68779500D01*
%TO.N,/B1_MOSI*%
X82230000Y-62230000D02*
X81129900Y-62230000D01*
X71561600Y-69164600D02*
X71896500Y-68829700D01*
X78183200Y-62230000D02*
X81129900Y-62230000D01*
X71896500Y-68829700D02*
X71896500Y-68516700D01*
X71896500Y-68516700D02*
X78183200Y-62230000D01*
%TO.N,/B1_SCK*%
X58826400Y-66522600D02*
X55981600Y-66522600D01*
X68148200Y-64566800D02*
X68139400Y-64558000D01*
X55981600Y-66522600D02*
X55230000Y-65771000D01*
X69231300Y-68513700D02*
X69882200Y-69164600D01*
X60791000Y-64558000D02*
X58826400Y-66522600D01*
X69231300Y-67520500D02*
X69231300Y-68513700D01*
X55230000Y-65771000D02*
X55230000Y-64770000D01*
X68139400Y-64558000D02*
X60791000Y-64558000D01*
%TO.N,/EXT_INT0*%
X87780000Y-60147200D02*
X87780000Y-59946400D01*
X87780000Y-59946400D02*
X87780000Y-58750000D01*
X71546500Y-68458300D02*
X71546500Y-67652850D01*
X71208036Y-68811090D02*
X71208036Y-68796764D01*
X71208036Y-68796764D02*
X71546500Y-68458300D01*
X71546500Y-67652850D02*
X79052150Y-60147200D01*
X87780000Y-84700000D02*
X87780000Y-60147200D01*
X79052150Y-60147200D02*
X87780000Y-60147200D01*
X87780000Y-58750000D02*
X87652800Y-58877200D01*
%TO.N,/RESET_DRV0*%
X58877200Y-64770000D02*
X57770000Y-64770000D01*
X65328800Y-63398400D02*
X60248800Y-63398400D01*
X73329400Y-72611800D02*
X73985900Y-73268300D01*
X60248800Y-63398400D02*
X58877200Y-64770000D01*
%TO.N,/RESET_DRV1*%
X75336900Y-76097900D02*
X68730000Y-82704800D01*
X74213718Y-72258200D02*
X75336900Y-73381382D01*
X58547900Y-85598900D02*
X58547900Y-82648000D01*
X58547900Y-82648000D02*
X57770000Y-81870100D01*
X68730000Y-82704800D02*
X68730000Y-85600400D01*
X68730000Y-85600400D02*
X66979800Y-87350600D01*
X66979800Y-87350600D02*
X60299600Y-87350600D01*
X57770000Y-81870100D02*
X57770000Y-80770000D01*
X60299600Y-87350600D02*
X58547900Y-85598900D01*
X73682900Y-72258200D02*
X74213718Y-72258200D01*
X75336900Y-73381382D02*
X75336900Y-76097900D01*
%TO.N,/RESET_MSTR*%
X72062400Y-63446600D02*
X72161400Y-63347600D01*
X74297100Y-67843400D02*
X72268700Y-69871800D01*
X72062400Y-65557400D02*
X72062400Y-63446600D01*
X74345800Y-67843400D02*
X74297100Y-67843400D01*
%TO.N,/XTAL1*%
X68114400Y-70932400D02*
X66700400Y-69518400D01*
X66700400Y-69518400D02*
X66700400Y-69459418D01*
X66700400Y-68970582D02*
X66700400Y-68049300D01*
X66717000Y-68987182D02*
X66700400Y-68970582D01*
X66700400Y-68049300D02*
X65818300Y-67167200D01*
X66700400Y-69459418D02*
X66717000Y-69442818D01*
X66717000Y-69442818D02*
X66717000Y-68987182D01*
%TO.N,/XTAL2*%
X66426500Y-69951600D02*
X67760900Y-71286000D01*
X64121300Y-68864200D02*
X65208600Y-69951600D01*
X65208600Y-69951600D02*
X66426500Y-69951600D01*
%TO.N,GND*%
X72633100Y-73318900D02*
X73126600Y-73812400D01*
X73400500Y-73812400D02*
X73771900Y-74183800D01*
X68402200Y-69824600D02*
X68097400Y-69824600D01*
X66167000Y-69215000D02*
X64969800Y-68017800D01*
X68821600Y-70225300D02*
X68802900Y-70225300D01*
X72622200Y-73318900D02*
X72348200Y-73044900D01*
X67310000Y-69011800D02*
X67701400Y-69403200D01*
X68097400Y-69824600D02*
X67713100Y-69440300D01*
X67701400Y-69403200D02*
X67713100Y-69403200D01*
X72622200Y-73318900D02*
X72633100Y-73318900D01*
X68802900Y-70225300D02*
X68402200Y-69824600D01*
D24*
X57429400Y-71628000D02*
X58978800Y-71628000D01*
D22*
X67310000Y-68478400D02*
X67310000Y-69011800D01*
X73777400Y-74183800D02*
X74396600Y-74803000D01*
X70721900Y-71772100D02*
X71994800Y-73044900D01*
X72348200Y-73044900D02*
X71994800Y-73044900D01*
X67713100Y-69440300D02*
X67713100Y-69403200D01*
X64969800Y-68017800D02*
X64969800Y-68015700D01*
X73771900Y-74183800D02*
X73777400Y-74183800D01*
X73126600Y-73812400D02*
X73400500Y-73812400D01*
%TD*%
M02*
