M48
; DRILL file {KiCad 7.0.8-7.0.8~ubuntu22.04.1} date Sun 12 Nov 2023 03:46:48 PM PST
; FORMAT={-:-/ absolute / metric / decimal}
; #@! TF.CreationDate,2023-11-12T15:46:48-08:00
; #@! TF.GenerationSoftware,Kicad,Pcbnew,7.0.8-7.0.8~ubuntu22.04.1
; #@! TF.FileFunction,Plated,1,4,PTH
FMAT,2
METRIC
; #@! TA.AperFunction,Plated,PTH,ViaDrill
T1C0.300
; #@! TA.AperFunction,Plated,PTH,ViaDrill
T2C0.600
; #@! TA.AperFunction,Plated,PTH,ComponentDrill
T3C1.000
%
G90
G05
T1
X64.055Y-70.131
X64.186Y-71.018
X64.643Y-64.008
X64.643Y-79.07
X65.303Y-78.486
X65.329Y-63.398
X65.862Y-80.01
X66.167Y-69.215
X66.446Y-73.914
X66.497Y-79.451
X67.174Y-73.488
X67.31Y-68.478
X67.843Y-65.354
X67.996Y-67.809
X68.148Y-64.567
X69.231Y-67.52
X72.062Y-65.557
X72.447Y-68.779
X72.542Y-80.137
X72.898Y-65.354
X73.098Y-68.16
X73.127Y-79.502
X73.711Y-75.514
X73.986Y-73.268
X74.346Y-67.843
X74.397Y-74.803
X74.762Y-70.731
X74.787Y-73.609
X75.189Y-67.61
X75.26Y-69.926
T2
X53.924Y-71.628
X58.979Y-71.628
T3
X52.22Y-58.75
X52.22Y-84.7
X54.76Y-58.75
X54.76Y-84.7
X55.23Y-62.23
X55.23Y-64.77
X55.23Y-78.23
X55.23Y-80.77
X57.3Y-58.75
X57.3Y-84.7
X57.77Y-62.23
X57.77Y-64.77
X57.77Y-78.23
X57.77Y-80.77
X59.84Y-58.75
X59.84Y-84.7
X62.38Y-58.75
X62.38Y-84.7
X64.92Y-58.75
X64.92Y-84.7
X67.46Y-58.75
X67.46Y-84.7
X70.0Y-58.75
X70.0Y-84.7
X72.54Y-58.75
X72.54Y-84.7
X75.08Y-58.75
X75.08Y-84.7
X77.62Y-58.75
X77.62Y-84.7
X80.16Y-58.75
X80.16Y-84.7
X82.23Y-62.23
X82.23Y-64.77
X82.23Y-78.23
X82.23Y-80.77
X82.7Y-58.75
X82.7Y-84.7
X84.77Y-62.23
X84.77Y-64.77
X84.77Y-78.23
X84.77Y-80.77
X85.24Y-58.75
X85.24Y-84.7
X87.78Y-58.75
X87.78Y-84.7
T0
M30
