%TF.GenerationSoftware,KiCad,Pcbnew,7.0.8-7.0.8~ubuntu22.04.1*%
%TF.CreationDate,2023-11-12T15:46:43-08:00*%
%TF.ProjectId,comm_v0p6,636f6d6d-5f76-4307-9036-2e6b69636164,rev?*%
%TF.SameCoordinates,Original*%
%TF.FileFunction,Paste,Top*%
%TF.FilePolarity,Positive*%
%FSLAX46Y46*%
G04 Gerber Fmt 4.6, Leading zero omitted, Abs format (unit mm)*
G04 Created by KiCad (PCBNEW 7.0.8-7.0.8~ubuntu22.04.1) date 2023-11-12 15:46:43*
%MOMM*%
%LPD*%
G01*
G04 APERTURE LIST*
G04 Aperture macros list*
%AMRoundRect*
0 Rectangle with rounded corners*
0 $1 Rounding radius*
0 $2 $3 $4 $5 $6 $7 $8 $9 X,Y pos of 4 corners*
0 Add a 4 corners polygon primitive as box body*
4,1,4,$2,$3,$4,$5,$6,$7,$8,$9,$2,$3,0*
0 Add four circle primitives for the rounded corners*
1,1,$1+$1,$2,$3*
1,1,$1+$1,$4,$5*
1,1,$1+$1,$6,$7*
1,1,$1+$1,$8,$9*
0 Add four rect primitives between the rounded corners*
20,1,$1+$1,$2,$3,$4,$5,0*
20,1,$1+$1,$4,$5,$6,$7,0*
20,1,$1+$1,$6,$7,$8,$9,0*
20,1,$1+$1,$8,$9,$2,$3,0*%
%AMRotRect*
0 Rectangle, with rotation*
0 The origin of the aperture is its center*
0 $1 length*
0 $2 width*
0 $3 Rotation angle, in degrees counterclockwise*
0 Add horizontal line*
21,1,$1,$2,0,0,$3*%
G04 Aperture macros list end*
%ADD10RoundRect,0.250000X-0.250000X-0.475000X0.250000X-0.475000X0.250000X0.475000X-0.250000X0.475000X0*%
%ADD11RoundRect,0.200000X0.200000X0.275000X-0.200000X0.275000X-0.200000X-0.275000X0.200000X-0.275000X0*%
%ADD12RoundRect,0.140000X0.021213X-0.219203X0.219203X-0.021213X-0.021213X0.219203X-0.219203X0.021213X0*%
%ADD13RoundRect,0.207500X-0.293449X0.000000X0.000000X-0.293449X0.293449X0.000000X0.000000X0.293449X0*%
%ADD14RoundRect,0.062500X-0.309359X0.220971X0.220971X-0.309359X0.309359X-0.220971X-0.220971X0.309359X0*%
%ADD15RoundRect,0.062500X-0.309359X-0.220971X-0.220971X-0.309359X0.309359X0.220971X0.220971X0.309359X0*%
%ADD16RoundRect,0.140000X-0.021213X0.219203X-0.219203X0.021213X0.021213X-0.219203X0.219203X-0.021213X0*%
%ADD17RotRect,0.400000X1.900000X225.000000*%
G04 APERTURE END LIST*
D10*
%TO.C,C3*%
X55529400Y-71628000D03*
X57429400Y-71628000D03*
%TD*%
D11*
%TO.C,R5*%
X72161400Y-63347600D03*
X70511400Y-63347600D03*
%TD*%
D12*
%TO.C,C2*%
X73093089Y-74862611D03*
X73771911Y-74183789D03*
%TD*%
D13*
%TO.C,U1*%
X70721900Y-70315460D03*
X69993580Y-71043780D03*
X69265260Y-71772100D03*
X71450220Y-71043780D03*
X70721900Y-71772100D03*
X69993580Y-72500420D03*
X72178540Y-71772100D03*
X71450220Y-72500420D03*
X70721900Y-73228740D03*
D14*
X70235764Y-68811090D03*
X69882211Y-69164644D03*
X69528657Y-69518197D03*
X69175104Y-69871751D03*
X68821551Y-70225304D03*
X68467997Y-70578857D03*
X68114444Y-70932411D03*
X67760890Y-71285964D03*
D15*
X67760890Y-72258236D03*
X68114444Y-72611789D03*
X68467997Y-72965343D03*
X68821551Y-73318896D03*
X69175104Y-73672449D03*
X69528657Y-74026003D03*
X69882211Y-74379556D03*
X70235764Y-74733110D03*
D14*
X71208036Y-74733110D03*
X71561589Y-74379556D03*
X71915143Y-74026003D03*
X72268696Y-73672449D03*
X72622249Y-73318896D03*
X72975803Y-72965343D03*
X73329356Y-72611789D03*
X73682910Y-72258236D03*
D15*
X73682910Y-71285964D03*
X73329356Y-70932411D03*
X72975803Y-70578857D03*
X72622249Y-70225304D03*
X72268696Y-69871751D03*
X71915143Y-69518197D03*
X71561589Y-69164644D03*
X71208036Y-68811090D03*
%TD*%
D16*
%TO.C,C1*%
X68391911Y-68724389D03*
X67713089Y-69403211D03*
%TD*%
D17*
%TO.C,Y1*%
X65818328Y-67167172D03*
X64969800Y-68015700D03*
X64121272Y-68864228D03*
%TD*%
M02*
