G04 (created by PCBNEW (2013-jul-07)-stable) date Mon 30 Nov 2015 09:20:55 AM PST*
%MOIN*%
G04 Gerber Fmt 3.4, Leading zero omitted, Abs format*
%FSLAX34Y34*%
G01*
G70*
G90*
G04 APERTURE LIST*
%ADD10C,0.00590551*%
%ADD11C,0.145669*%
%ADD12C,0.0472441*%
%ADD13C,0.1*%
%ADD14C,0.0590551*%
%ADD15R,0.06X0.06*%
%ADD16C,0.06*%
%ADD17C,0.076*%
%ADD18C,0.14*%
%ADD19C,0.16*%
%ADD20C,0.055*%
%ADD21C,0.0787402*%
%ADD22C,0.32*%
%ADD23C,0.2*%
%ADD24C,0.035*%
%ADD25C,0.06*%
%ADD26C,0.01*%
%ADD27C,0.025*%
G04 APERTURE END LIST*
G54D10*
G54D11*
X140899Y-27246D03*
X118100Y-27246D03*
G54D12*
X137750Y-28746D03*
X137250Y-27996D03*
X136750Y-28746D03*
X136250Y-27996D03*
X135750Y-28746D03*
X135250Y-27996D03*
X134750Y-28746D03*
X134250Y-27996D03*
X133750Y-28746D03*
X133250Y-27996D03*
X132750Y-28746D03*
X132250Y-27996D03*
X131750Y-28746D03*
X131250Y-27996D03*
X130750Y-28746D03*
X130250Y-27996D03*
X129750Y-28746D03*
X129250Y-27996D03*
X128750Y-28746D03*
X128250Y-27996D03*
X127750Y-28746D03*
X127250Y-27996D03*
X126750Y-28746D03*
X126250Y-27996D03*
X125750Y-28746D03*
X125250Y-27996D03*
X124750Y-28746D03*
X124250Y-27996D03*
X123750Y-28746D03*
X123250Y-27996D03*
X122750Y-28746D03*
X122250Y-27996D03*
X121750Y-28746D03*
X121250Y-27996D03*
X137750Y-27246D03*
X137250Y-26496D03*
X136750Y-27246D03*
X136250Y-26496D03*
X135750Y-27246D03*
X135250Y-26496D03*
X134750Y-27246D03*
X134250Y-26496D03*
X133750Y-27246D03*
X133250Y-26496D03*
X132750Y-27246D03*
X132250Y-26496D03*
X131750Y-27246D03*
X131250Y-26496D03*
X130750Y-27246D03*
X130250Y-26496D03*
X129750Y-27246D03*
X129250Y-26496D03*
X128750Y-27246D03*
X128250Y-26496D03*
X127750Y-27246D03*
X127250Y-26496D03*
X126750Y-27246D03*
X126250Y-26496D03*
X125750Y-27246D03*
X125250Y-26496D03*
X124750Y-27246D03*
X124250Y-26496D03*
X123750Y-27246D03*
X123250Y-26496D03*
X122750Y-27246D03*
X122250Y-26496D03*
X121750Y-27246D03*
X121250Y-26496D03*
G54D13*
X24370Y-28000D03*
X22500Y-28000D03*
X20630Y-28000D03*
G54D14*
X37669Y-57091D03*
X36161Y-55825D03*
X123967Y-53046D03*
X125232Y-54553D03*
X68726Y-37581D03*
X68384Y-35642D03*
X108947Y-40107D03*
X110652Y-41092D03*
X134063Y-70375D03*
X134736Y-72224D03*
X90130Y-33329D03*
X92069Y-33670D03*
X87334Y-36886D03*
X87676Y-34948D03*
X51477Y-44598D03*
X50493Y-42893D03*
X137500Y-90015D03*
X137500Y-91984D03*
X134036Y-109975D03*
X133363Y-111824D03*
X30335Y-110204D03*
X28485Y-110877D03*
X26419Y-92000D03*
X24451Y-92000D03*
X28967Y-73553D03*
X27117Y-72880D03*
X51147Y-40292D03*
X52852Y-39307D03*
X35867Y-53053D03*
X37132Y-51546D03*
X25963Y-70124D03*
X26636Y-68275D03*
X22500Y-89884D03*
X22500Y-87915D03*
X25936Y-109524D03*
X25263Y-107675D03*
X129664Y-69795D03*
X131514Y-69122D03*
X133579Y-88000D03*
X135548Y-88000D03*
X70030Y-33270D03*
X71969Y-32929D03*
X119759Y-54027D03*
X121266Y-52761D03*
X131032Y-106446D03*
X132882Y-107119D03*
X105057Y-42598D03*
X106042Y-40893D03*
G54D15*
X135064Y-90000D03*
G54D16*
X134064Y-90000D03*
G54D15*
X52467Y-42313D03*
G54D16*
X52967Y-43179D03*
G54D15*
X70438Y-35772D03*
G54D16*
X70612Y-36757D03*
G54D15*
X89561Y-35772D03*
G54D16*
X89387Y-36757D03*
G54D15*
X37818Y-54605D03*
G54D16*
X38584Y-55248D03*
G54D15*
X28256Y-108833D03*
G54D16*
X29196Y-108491D03*
G54D15*
X131743Y-108833D03*
G54D16*
X130803Y-108491D03*
G54D15*
X131743Y-71166D03*
G54D16*
X130803Y-71508D03*
G54D15*
X122181Y-54605D03*
G54D16*
X121415Y-55248D03*
G54D15*
X28256Y-71166D03*
G54D16*
X29196Y-71508D03*
G54D15*
X107532Y-42313D03*
G54D16*
X107032Y-43179D03*
G54D15*
X24935Y-90000D03*
G54D16*
X25935Y-90000D03*
G54D15*
X99407Y-42385D03*
G54D16*
X100273Y-42885D03*
X101139Y-43385D03*
X102005Y-43885D03*
X102871Y-44385D03*
X103737Y-44885D03*
X104603Y-45385D03*
X105469Y-45885D03*
X106335Y-46385D03*
X107201Y-46885D03*
X108067Y-47385D03*
X108933Y-47885D03*
X109799Y-48385D03*
X110665Y-48885D03*
X111531Y-49385D03*
G54D15*
X130261Y-100844D03*
G54D16*
X129919Y-101784D03*
X129577Y-102723D03*
X129235Y-103663D03*
X128893Y-104603D03*
X128551Y-105543D03*
X128209Y-106482D03*
X127867Y-107422D03*
X127525Y-108362D03*
X127183Y-109301D03*
X126841Y-110241D03*
X126499Y-111181D03*
X126157Y-112120D03*
X125815Y-113060D03*
X125473Y-114000D03*
G54D15*
X130939Y-83000D03*
G54D16*
X130939Y-84000D03*
X130939Y-85000D03*
X130939Y-86000D03*
X130939Y-87000D03*
X130939Y-88000D03*
X130939Y-89000D03*
X130939Y-90000D03*
X130939Y-91000D03*
X130939Y-92000D03*
X130939Y-93000D03*
X130939Y-94000D03*
X130939Y-95000D03*
X130939Y-96000D03*
X130939Y-97000D03*
G54D15*
X125473Y-65999D03*
G54D16*
X125815Y-66939D03*
X126157Y-67879D03*
X126499Y-68818D03*
X126841Y-69758D03*
X127183Y-70698D03*
X127525Y-71637D03*
X127867Y-72577D03*
X128209Y-73517D03*
X128551Y-74456D03*
X128893Y-75396D03*
X129235Y-76336D03*
X129577Y-77276D03*
X129919Y-78215D03*
X130261Y-79155D03*
G54D15*
X114522Y-51894D03*
G54D16*
X115164Y-52660D03*
X115807Y-53426D03*
X116450Y-54192D03*
X117093Y-54958D03*
X117736Y-55724D03*
X118378Y-56490D03*
X119021Y-57256D03*
X119664Y-58022D03*
X120307Y-58788D03*
X120950Y-59554D03*
X121592Y-60320D03*
X122235Y-61086D03*
X122878Y-61852D03*
X123521Y-62619D03*
G54D15*
X81952Y-38619D03*
G54D16*
X82936Y-38792D03*
X83921Y-38966D03*
X84906Y-39140D03*
X85891Y-39313D03*
X86876Y-39487D03*
X87860Y-39660D03*
X88845Y-39834D03*
X89830Y-40008D03*
X90815Y-40181D03*
X91800Y-40355D03*
X92784Y-40529D03*
X93769Y-40702D03*
X94754Y-40876D03*
X95739Y-41050D03*
G54D15*
X64260Y-41050D03*
G54D16*
X65245Y-40876D03*
X66230Y-40702D03*
X67215Y-40529D03*
X68199Y-40355D03*
X69184Y-40181D03*
X70169Y-40008D03*
X71154Y-39834D03*
X72139Y-39660D03*
X73123Y-39487D03*
X74108Y-39313D03*
X75093Y-39140D03*
X76078Y-38966D03*
X77063Y-38792D03*
X78047Y-38619D03*
G54D15*
X48468Y-49385D03*
G54D16*
X49334Y-48885D03*
X50200Y-48385D03*
X51066Y-47885D03*
X51932Y-47385D03*
X52798Y-46885D03*
X53664Y-46385D03*
X54530Y-45885D03*
X55396Y-45385D03*
X56262Y-44885D03*
X57128Y-44385D03*
X57994Y-43885D03*
X58860Y-43385D03*
X59726Y-42885D03*
X60592Y-42385D03*
G54D15*
X36478Y-62619D03*
G54D16*
X37121Y-61852D03*
X37764Y-61086D03*
X38407Y-60320D03*
X39049Y-59554D03*
X39692Y-58788D03*
X40335Y-58022D03*
X40978Y-57256D03*
X41621Y-56490D03*
X42263Y-55724D03*
X42906Y-54958D03*
X43549Y-54192D03*
X44192Y-53426D03*
X44835Y-52660D03*
X45477Y-51894D03*
G54D15*
X29738Y-79155D03*
G54D16*
X30080Y-78215D03*
X30422Y-77276D03*
X30764Y-76336D03*
X31106Y-75396D03*
X31448Y-74456D03*
X31790Y-73517D03*
X32132Y-72577D03*
X32474Y-71637D03*
X32816Y-70698D03*
X33158Y-69758D03*
X33500Y-68818D03*
X33842Y-67879D03*
X34184Y-66939D03*
X34526Y-65999D03*
G54D15*
X29060Y-97000D03*
G54D16*
X29060Y-96000D03*
X29060Y-95000D03*
X29060Y-94000D03*
X29060Y-93000D03*
X29060Y-92000D03*
X29060Y-91000D03*
X29060Y-90000D03*
X29060Y-89000D03*
X29060Y-88000D03*
X29060Y-87000D03*
X29060Y-86000D03*
X29060Y-85000D03*
X29060Y-84000D03*
X29060Y-83000D03*
G54D15*
X34526Y-114000D03*
G54D16*
X34184Y-113060D03*
X33842Y-112120D03*
X33500Y-111181D03*
X33158Y-110241D03*
X32816Y-109301D03*
X32474Y-108362D03*
X32132Y-107422D03*
X31790Y-106482D03*
X31448Y-105543D03*
X31106Y-104603D03*
X30764Y-103663D03*
X30422Y-102723D03*
X30080Y-101784D03*
X29738Y-100844D03*
G54D17*
X32500Y-26180D03*
G54D18*
X32500Y-27360D03*
G54D19*
X32500Y-29720D03*
G54D18*
X30730Y-26970D03*
X34270Y-26970D03*
G54D13*
X80000Y-30935D03*
X80000Y-28935D03*
X21832Y-100256D03*
X19863Y-100603D03*
X21832Y-79743D03*
X19863Y-79396D03*
X28848Y-60467D03*
X27116Y-59467D03*
X42034Y-44754D03*
X40748Y-43222D03*
X59798Y-34497D03*
X59114Y-32618D03*
G54D20*
X30051Y-69159D03*
X29111Y-68817D03*
X28341Y-106141D03*
X27401Y-106484D03*
X25935Y-87500D03*
X24935Y-87500D03*
X131658Y-73858D03*
X132598Y-73515D03*
X40191Y-53333D03*
X39425Y-52690D03*
X55133Y-41929D03*
X54633Y-41063D03*
X73073Y-36322D03*
X72900Y-35338D03*
X91850Y-37191D03*
X92023Y-36206D03*
X129948Y-110840D03*
X130888Y-111182D03*
X109197Y-44429D03*
X109697Y-43563D03*
X134064Y-92500D03*
X135064Y-92500D03*
X123022Y-57163D03*
X123788Y-56520D03*
G54D21*
X40523Y-26500D03*
X43476Y-26500D03*
G54D13*
X100201Y-34497D03*
X100885Y-32618D03*
X117965Y-44754D03*
X119251Y-43222D03*
X131151Y-60467D03*
X132883Y-59467D03*
X138167Y-79743D03*
X140136Y-79396D03*
X138167Y-100256D03*
X140136Y-100603D03*
G54D22*
X30000Y-36000D03*
X130000Y-36000D03*
X130000Y-116000D03*
X30000Y-116000D03*
G54D23*
X143600Y-26400D03*
X16400Y-117500D03*
X143600Y-117500D03*
X16400Y-26400D03*
G54D20*
X18750Y-82750D03*
X17750Y-82750D03*
X140500Y-91000D03*
X141500Y-91000D03*
X95000Y-29000D03*
X95000Y-28000D03*
X18750Y-88750D03*
X17750Y-88750D03*
X140500Y-93000D03*
X141500Y-93000D03*
X97000Y-29000D03*
X97000Y-28000D03*
X18750Y-86750D03*
X17750Y-86750D03*
X140500Y-95000D03*
X141500Y-95000D03*
X99000Y-29000D03*
X99000Y-28000D03*
X18750Y-84750D03*
X17750Y-84750D03*
X140500Y-97000D03*
X141500Y-97000D03*
X101000Y-29000D03*
X101000Y-28000D03*
X18750Y-90750D03*
X17750Y-90750D03*
X140500Y-83000D03*
X141500Y-83000D03*
X87000Y-29000D03*
X87000Y-28000D03*
X18750Y-96750D03*
X17750Y-96750D03*
X140500Y-85000D03*
X141500Y-85000D03*
X89000Y-29000D03*
X89000Y-28000D03*
X18750Y-94750D03*
X17750Y-94750D03*
X140500Y-87000D03*
X141500Y-87000D03*
X91000Y-29000D03*
X91000Y-28000D03*
X18750Y-92750D03*
X17750Y-92750D03*
X140500Y-89000D03*
X141500Y-89000D03*
X93000Y-29000D03*
X93000Y-28000D03*
G54D24*
X98168Y-40284D03*
X97842Y-39864D03*
X97343Y-39487D03*
X96765Y-39427D03*
X96816Y-40078D03*
X128344Y-44140D03*
X111531Y-45284D03*
X115951Y-30003D03*
X121462Y-45854D03*
X124897Y-45713D03*
X95410Y-41935D03*
X29759Y-83596D03*
X88320Y-35267D03*
X37183Y-68305D03*
X94205Y-37312D03*
X125091Y-32913D03*
X125173Y-33904D03*
X88393Y-33956D03*
X123447Y-43806D03*
X121466Y-44683D03*
X82243Y-40775D03*
X66126Y-39155D03*
X29919Y-82959D03*
X60184Y-43826D03*
X100414Y-43826D03*
X104467Y-42174D03*
X39957Y-59617D03*
X120808Y-38859D03*
X72917Y-38514D03*
X127496Y-31166D03*
G54D25*
X37303Y-29720D02*
X32500Y-29720D01*
X40523Y-26500D02*
X37303Y-29720D01*
X99407Y-42385D02*
X99407Y-41685D01*
X43136Y-44754D02*
X47768Y-49385D01*
X42034Y-44754D02*
X43136Y-44754D01*
X48468Y-49385D02*
X47768Y-49385D01*
X80000Y-35966D02*
X81952Y-37918D01*
X80000Y-30935D02*
X80000Y-35966D01*
X81952Y-38619D02*
X81952Y-37918D01*
X64260Y-41050D02*
X64260Y-40350D01*
X21832Y-63441D02*
X21832Y-79743D01*
X26709Y-58565D02*
X21832Y-63441D01*
X27491Y-58565D02*
X26709Y-58565D01*
X28848Y-59923D02*
X27491Y-58565D01*
X28848Y-60467D02*
X28848Y-59923D01*
X130261Y-100844D02*
X130261Y-100144D01*
X130939Y-83000D02*
X131639Y-83000D01*
X132969Y-84330D02*
X131639Y-83000D01*
X137556Y-79743D02*
X132969Y-84330D01*
X138167Y-79743D02*
X137556Y-79743D01*
X132882Y-84417D02*
X132882Y-97749D01*
X132969Y-84330D02*
X132882Y-84417D01*
X135660Y-97749D02*
X132882Y-97749D01*
X138167Y-100256D02*
X135660Y-97749D01*
X132656Y-97749D02*
X130261Y-100144D01*
X132882Y-97749D02*
X132656Y-97749D01*
X100201Y-34497D02*
X100201Y-41001D01*
X100090Y-41001D02*
X99407Y-41685D01*
X100201Y-41001D02*
X100090Y-41001D01*
X114522Y-51894D02*
X114522Y-51194D01*
X117965Y-44754D02*
X114076Y-48643D01*
X114522Y-49088D02*
X114076Y-48643D01*
X114522Y-51194D02*
X114522Y-49088D01*
X102477Y-41001D02*
X100201Y-41001D01*
X106620Y-45144D02*
X102477Y-41001D01*
X110578Y-45144D02*
X106620Y-45144D01*
X114076Y-48643D02*
X110578Y-45144D01*
X126173Y-65445D02*
X126173Y-65999D01*
X131151Y-60467D02*
X126173Y-65445D01*
X125473Y-65999D02*
X126173Y-65999D01*
X64260Y-38959D02*
X59798Y-34497D01*
X64260Y-40350D02*
X64260Y-38959D01*
G54D26*
X139486Y-28982D02*
X137750Y-27246D01*
X139486Y-81986D02*
X139486Y-28982D01*
X140500Y-83000D02*
X139486Y-81986D01*
X32432Y-108362D02*
X32474Y-108362D01*
X27874Y-103803D02*
X32432Y-108362D01*
X27874Y-99179D02*
X27874Y-103803D01*
X29511Y-97542D02*
X27874Y-99179D01*
X29511Y-91451D02*
X29511Y-97542D01*
X29060Y-91000D02*
X29511Y-91451D01*
X31913Y-73639D02*
X31790Y-73517D01*
X31913Y-77019D02*
X31913Y-73639D01*
X30247Y-78685D02*
X31913Y-77019D01*
X29387Y-78685D02*
X30247Y-78685D01*
X27167Y-80905D02*
X29387Y-78685D01*
X27167Y-89106D02*
X27167Y-80905D01*
X29060Y-91000D02*
X27167Y-89106D01*
X40335Y-59858D02*
X40335Y-58022D01*
X36781Y-63412D02*
X40335Y-59858D01*
X34478Y-63412D02*
X36781Y-63412D01*
X31648Y-66242D02*
X34478Y-63412D01*
X31648Y-73375D02*
X31648Y-66242D01*
X31790Y-73517D02*
X31648Y-73375D01*
X117843Y-56490D02*
X118378Y-56490D01*
X113922Y-52568D02*
X117843Y-56490D01*
X113922Y-49152D02*
X113922Y-52568D01*
X110404Y-45635D02*
X113922Y-49152D01*
X105919Y-45635D02*
X110404Y-45635D01*
X105669Y-45385D02*
X105919Y-45635D01*
X104603Y-45385D02*
X105669Y-45385D01*
X127201Y-71637D02*
X127525Y-71637D01*
X123983Y-68419D02*
X127201Y-71637D01*
X123983Y-64648D02*
X123983Y-68419D01*
X124793Y-63837D02*
X123983Y-64648D01*
X124793Y-61854D02*
X124793Y-63837D01*
X119429Y-56490D02*
X124793Y-61854D01*
X118378Y-56490D02*
X119429Y-56490D01*
X98168Y-42955D02*
X98168Y-40284D01*
X100599Y-45385D02*
X98168Y-42955D01*
X104603Y-45385D02*
X100599Y-45385D01*
X127875Y-106149D02*
X128209Y-106482D01*
X127875Y-96422D02*
X127875Y-106149D01*
X130798Y-93500D02*
X127875Y-96422D01*
X131093Y-93500D02*
X130798Y-93500D01*
X131593Y-93000D02*
X131093Y-93500D01*
X131593Y-89654D02*
X131593Y-93000D01*
X130939Y-89000D02*
X131593Y-89654D01*
X129654Y-87715D02*
X130939Y-89000D01*
X129654Y-82043D02*
X129654Y-87715D01*
X131554Y-80143D02*
X129654Y-82043D01*
X131554Y-75690D02*
X131554Y-80143D01*
X128508Y-72644D02*
X131554Y-75690D01*
X128508Y-72572D02*
X128508Y-72644D01*
X127573Y-71637D02*
X128508Y-72572D01*
X127525Y-71637D02*
X127573Y-71637D01*
X88645Y-38876D02*
X87860Y-39660D01*
X88645Y-34712D02*
X88645Y-38876D01*
X88721Y-34636D02*
X88645Y-34712D01*
X88721Y-30721D02*
X88721Y-34636D01*
X87000Y-29000D02*
X88721Y-30721D01*
X136033Y-25279D02*
X137250Y-26496D01*
X121040Y-25279D02*
X136033Y-25279D01*
X119073Y-27245D02*
X121040Y-25279D01*
X119073Y-27523D02*
X119073Y-27245D01*
X116250Y-30346D02*
X119073Y-27523D01*
X104816Y-30346D02*
X116250Y-30346D01*
X101598Y-27129D02*
X104816Y-30346D01*
X90870Y-27129D02*
X101598Y-27129D01*
X89000Y-29000D02*
X90870Y-27129D01*
X32245Y-72689D02*
X32132Y-72577D01*
X32245Y-77480D02*
X32245Y-72689D01*
X27389Y-82335D02*
X32245Y-77480D01*
X27389Y-88329D02*
X27389Y-82335D01*
X29060Y-90000D02*
X27389Y-88329D01*
X29712Y-90651D02*
X29060Y-90000D01*
X29712Y-97810D02*
X29712Y-90651D01*
X28081Y-99441D02*
X29712Y-97810D01*
X28081Y-103423D02*
X28081Y-99441D01*
X32080Y-107422D02*
X28081Y-103423D01*
X32132Y-107422D02*
X32080Y-107422D01*
X40978Y-59498D02*
X40978Y-57256D01*
X36864Y-63612D02*
X40978Y-59498D01*
X34563Y-63612D02*
X36864Y-63612D01*
X32019Y-66156D02*
X34563Y-63612D01*
X32019Y-72464D02*
X32019Y-66156D01*
X32132Y-72577D02*
X32019Y-72464D01*
X118326Y-57256D02*
X119021Y-57256D01*
X113592Y-52522D02*
X118326Y-57256D01*
X113592Y-49106D02*
X113592Y-52522D01*
X110371Y-45885D02*
X113592Y-49106D01*
X105469Y-45885D02*
X110371Y-45885D01*
X127793Y-72577D02*
X127867Y-72577D01*
X123783Y-68566D02*
X127793Y-72577D01*
X123783Y-64565D02*
X123783Y-68566D01*
X124593Y-63755D02*
X123783Y-64565D01*
X124593Y-61937D02*
X124593Y-63755D01*
X119912Y-57256D02*
X124593Y-61937D01*
X119021Y-57256D02*
X119912Y-57256D01*
X97842Y-42915D02*
X97842Y-39864D01*
X100812Y-45885D02*
X97842Y-42915D01*
X105469Y-45885D02*
X100812Y-45885D01*
X127906Y-72577D02*
X127867Y-72577D01*
X131354Y-76025D02*
X127906Y-72577D01*
X131354Y-79653D02*
X131354Y-76025D01*
X129454Y-81553D02*
X131354Y-79653D01*
X129454Y-88514D02*
X129454Y-81553D01*
X130939Y-90000D02*
X129454Y-88514D01*
X127451Y-107006D02*
X127867Y-107422D01*
X127451Y-95847D02*
X127451Y-107006D01*
X130799Y-92500D02*
X127451Y-95847D01*
X131082Y-92500D02*
X130799Y-92500D01*
X131393Y-92188D02*
X131082Y-92500D01*
X131393Y-90454D02*
X131393Y-92188D01*
X130939Y-90000D02*
X131393Y-90454D01*
X71154Y-39952D02*
X71154Y-39834D01*
X69406Y-41700D02*
X71154Y-39952D01*
X62915Y-41700D02*
X69406Y-41700D01*
X62546Y-41332D02*
X62915Y-41700D01*
X58803Y-41332D02*
X62546Y-41332D01*
X54530Y-45605D02*
X58803Y-41332D01*
X54530Y-45885D02*
X54530Y-45605D01*
X89000Y-34740D02*
X89000Y-29000D01*
X88845Y-34895D02*
X89000Y-34740D01*
X88845Y-39834D02*
X88845Y-34895D01*
X90615Y-39223D02*
X89830Y-40008D01*
X90615Y-29384D02*
X90615Y-39223D01*
X91000Y-29000D02*
X90615Y-29384D01*
X136750Y-26449D02*
X136750Y-27246D01*
X135780Y-25479D02*
X136750Y-26449D01*
X121123Y-25479D02*
X135780Y-25479D01*
X119325Y-27277D02*
X121123Y-25479D01*
X119325Y-27554D02*
X119325Y-27277D01*
X116325Y-30554D02*
X119325Y-27554D01*
X104675Y-30554D02*
X116325Y-30554D01*
X101450Y-27329D02*
X104675Y-30554D01*
X92670Y-27329D02*
X101450Y-27329D01*
X91000Y-29000D02*
X92670Y-27329D01*
X29912Y-89851D02*
X29060Y-89000D01*
X29912Y-97893D02*
X29912Y-89851D01*
X28281Y-99524D02*
X29912Y-97893D01*
X28281Y-103036D02*
X28281Y-99524D01*
X31728Y-106482D02*
X28281Y-103036D01*
X31790Y-106482D02*
X31728Y-106482D01*
X32584Y-71747D02*
X32474Y-71637D01*
X32584Y-77424D02*
X32584Y-71747D01*
X27590Y-82418D02*
X32584Y-77424D01*
X27590Y-87529D02*
X27590Y-82418D01*
X29060Y-89000D02*
X27590Y-87529D01*
X41621Y-53954D02*
X41621Y-56490D01*
X45140Y-50434D02*
X41621Y-53954D01*
X50619Y-50434D02*
X45140Y-50434D01*
X55396Y-45657D02*
X50619Y-50434D01*
X55396Y-45385D02*
X55396Y-45657D01*
X41621Y-59138D02*
X41621Y-56490D01*
X36634Y-64125D02*
X41621Y-59138D01*
X34333Y-64125D02*
X36634Y-64125D01*
X32361Y-66097D02*
X34333Y-64125D01*
X32361Y-71524D02*
X32361Y-66097D01*
X32474Y-71637D02*
X32361Y-71524D01*
X118809Y-58022D02*
X119664Y-58022D01*
X113392Y-52605D02*
X118809Y-58022D01*
X113392Y-49189D02*
X113392Y-52605D01*
X110588Y-46385D02*
X113392Y-49189D01*
X106335Y-46385D02*
X110588Y-46385D01*
X128164Y-73517D02*
X128209Y-73517D01*
X123583Y-68936D02*
X128164Y-73517D01*
X123583Y-64025D02*
X123583Y-68936D01*
X124390Y-63218D02*
X123583Y-64025D01*
X124390Y-62025D02*
X124390Y-63218D01*
X120388Y-58022D02*
X124390Y-62025D01*
X119664Y-58022D02*
X120388Y-58022D01*
X97508Y-39652D02*
X97343Y-39487D01*
X97508Y-42890D02*
X97508Y-39652D01*
X101004Y-46385D02*
X97508Y-42890D01*
X106335Y-46385D02*
X101004Y-46385D01*
X128272Y-73517D02*
X128209Y-73517D01*
X131140Y-76384D02*
X128272Y-73517D01*
X131140Y-79584D02*
X131140Y-76384D01*
X129254Y-81470D02*
X131140Y-79584D01*
X129254Y-89314D02*
X129254Y-81470D01*
X130939Y-91000D02*
X129254Y-89314D01*
X69899Y-41900D02*
X72139Y-39660D01*
X62732Y-41900D02*
X69899Y-41900D01*
X62364Y-41532D02*
X62732Y-41900D01*
X58977Y-41532D02*
X62364Y-41532D01*
X55396Y-45113D02*
X58977Y-41532D01*
X55396Y-45385D02*
X55396Y-45113D01*
X42263Y-53595D02*
X42263Y-55724D01*
X45224Y-50634D02*
X42263Y-53595D01*
X50793Y-50634D02*
X45224Y-50634D01*
X56262Y-45165D02*
X50793Y-50634D01*
X56262Y-44885D02*
X56262Y-45165D01*
X90815Y-31184D02*
X90815Y-40181D01*
X93000Y-29000D02*
X90815Y-31184D01*
X32946Y-70827D02*
X32816Y-70698D01*
X32946Y-77345D02*
X32946Y-70827D01*
X27792Y-82499D02*
X32946Y-77345D01*
X27792Y-86731D02*
X27792Y-82499D01*
X29060Y-88000D02*
X27792Y-86731D01*
X30112Y-89051D02*
X29060Y-88000D01*
X30112Y-97976D02*
X30112Y-89051D01*
X28483Y-99605D02*
X30112Y-97976D01*
X28483Y-102625D02*
X28483Y-99605D01*
X31401Y-105543D02*
X28483Y-102625D01*
X31448Y-105543D02*
X31401Y-105543D01*
X42263Y-58779D02*
X42263Y-55724D01*
X36717Y-64325D02*
X42263Y-58779D01*
X34420Y-64325D02*
X36717Y-64325D01*
X32704Y-66040D02*
X34420Y-64325D01*
X32704Y-70586D02*
X32704Y-66040D01*
X32816Y-70698D02*
X32704Y-70586D01*
X110802Y-46885D02*
X107201Y-46885D01*
X113151Y-49234D02*
X110802Y-46885D01*
X113151Y-52647D02*
X113151Y-49234D01*
X119292Y-58788D02*
X113151Y-52647D01*
X120307Y-58788D02*
X119292Y-58788D01*
X97308Y-39971D02*
X96765Y-39427D01*
X97308Y-42973D02*
X97308Y-39971D01*
X101220Y-46885D02*
X97308Y-42973D01*
X107201Y-46885D02*
X101220Y-46885D01*
X128500Y-74456D02*
X128551Y-74456D01*
X123383Y-69339D02*
X128500Y-74456D01*
X123383Y-63942D02*
X123383Y-69339D01*
X124190Y-63135D02*
X123383Y-63942D01*
X124190Y-62108D02*
X124190Y-63135D01*
X120871Y-58788D02*
X124190Y-62108D01*
X120307Y-58788D02*
X120871Y-58788D01*
X129041Y-90101D02*
X130939Y-92000D01*
X129041Y-81338D02*
X129041Y-90101D01*
X130918Y-79461D02*
X129041Y-81338D01*
X130918Y-76785D02*
X130918Y-79461D01*
X128590Y-74456D02*
X130918Y-76785D01*
X128551Y-74456D02*
X128590Y-74456D01*
X127051Y-109170D02*
X127183Y-109301D01*
X127051Y-95887D02*
X127051Y-109170D01*
X130939Y-92000D02*
X127051Y-95887D01*
X70510Y-42100D02*
X73123Y-39487D01*
X62649Y-42100D02*
X70510Y-42100D01*
X62281Y-41732D02*
X62649Y-42100D01*
X59143Y-41732D02*
X62281Y-41732D01*
X56262Y-44613D02*
X59143Y-41732D01*
X56262Y-44885D02*
X56262Y-44613D01*
X57128Y-44677D02*
X57128Y-44385D01*
X50868Y-50936D02*
X57128Y-44677D01*
X45205Y-50936D02*
X50868Y-50936D01*
X42906Y-53235D02*
X45205Y-50936D01*
X42906Y-54958D02*
X42906Y-53235D01*
X33284Y-69884D02*
X33158Y-69758D01*
X33284Y-77289D02*
X33284Y-69884D01*
X28000Y-82573D02*
X33284Y-77289D01*
X28000Y-85939D02*
X28000Y-82573D01*
X29060Y-87000D02*
X28000Y-85939D01*
X30312Y-88251D02*
X29060Y-87000D01*
X30312Y-98059D02*
X30312Y-88251D01*
X28683Y-99687D02*
X30312Y-98059D01*
X28683Y-102250D02*
X28683Y-99687D01*
X31036Y-104603D02*
X28683Y-102250D01*
X31106Y-104603D02*
X31036Y-104603D01*
X42906Y-58419D02*
X42906Y-54958D01*
X36800Y-64525D02*
X42906Y-58419D01*
X34503Y-64525D02*
X36800Y-64525D01*
X33045Y-65983D02*
X34503Y-64525D01*
X33045Y-69645D02*
X33045Y-65983D01*
X33158Y-69758D02*
X33045Y-69645D01*
X111018Y-47385D02*
X108067Y-47385D01*
X112951Y-49317D02*
X111018Y-47385D01*
X112951Y-52732D02*
X112951Y-49317D01*
X119773Y-59554D02*
X112951Y-52732D01*
X120950Y-59554D02*
X119773Y-59554D01*
X128219Y-44015D02*
X128344Y-44140D01*
X128219Y-35283D02*
X128219Y-44015D01*
X133035Y-30467D02*
X128219Y-35283D01*
X133575Y-30467D02*
X133035Y-30467D01*
X135179Y-28864D02*
X133575Y-30467D01*
X135179Y-28756D02*
X135179Y-28864D01*
X135750Y-28185D02*
X135179Y-28756D01*
X135750Y-27246D02*
X135750Y-28185D01*
X97016Y-40278D02*
X96816Y-40078D01*
X97016Y-42963D02*
X97016Y-40278D01*
X101437Y-47385D02*
X97016Y-42963D01*
X108067Y-47385D02*
X101437Y-47385D01*
X126707Y-110107D02*
X126841Y-110241D01*
X126707Y-83389D02*
X126707Y-110107D01*
X130715Y-79381D02*
X126707Y-83389D01*
X130715Y-77166D02*
X130715Y-79381D01*
X128944Y-75396D02*
X130715Y-77166D01*
X128893Y-75396D02*
X128944Y-75396D01*
X126880Y-110241D02*
X126841Y-110241D01*
X128318Y-108803D02*
X126880Y-110241D01*
X128318Y-107237D02*
X128318Y-108803D01*
X127660Y-106578D02*
X128318Y-107237D01*
X127660Y-96279D02*
X127660Y-106578D01*
X130939Y-93000D02*
X127660Y-96279D01*
X95000Y-37155D02*
X95000Y-29000D01*
X91800Y-40355D02*
X95000Y-37155D01*
X71121Y-42301D02*
X74108Y-39313D01*
X62566Y-42301D02*
X71121Y-42301D01*
X62198Y-41932D02*
X62566Y-42301D01*
X59310Y-41932D02*
X62198Y-41932D01*
X57128Y-44114D02*
X59310Y-41932D01*
X57128Y-44385D02*
X57128Y-44114D01*
X33613Y-68931D02*
X33500Y-68818D01*
X33613Y-77243D02*
X33613Y-68931D01*
X28201Y-82656D02*
X33613Y-77243D01*
X28201Y-85140D02*
X28201Y-82656D01*
X29060Y-86000D02*
X28201Y-85140D01*
X30512Y-87451D02*
X29060Y-86000D01*
X30512Y-98142D02*
X30512Y-87451D01*
X28884Y-99770D02*
X30512Y-98142D01*
X28884Y-101823D02*
X28884Y-99770D01*
X30724Y-103663D02*
X28884Y-101823D01*
X30764Y-103663D02*
X30724Y-103663D01*
X43549Y-58059D02*
X43549Y-54192D01*
X36883Y-64725D02*
X43549Y-58059D01*
X34586Y-64725D02*
X36883Y-64725D01*
X33388Y-65923D02*
X34586Y-64725D01*
X33388Y-68706D02*
X33388Y-65923D01*
X33500Y-68818D02*
X33388Y-68706D01*
X129192Y-76336D02*
X129235Y-76336D01*
X123182Y-70327D02*
X129192Y-76336D01*
X123182Y-63859D02*
X123182Y-70327D01*
X123990Y-63052D02*
X123182Y-63859D01*
X123990Y-62201D02*
X123990Y-63052D01*
X122110Y-60320D02*
X123990Y-62201D01*
X121592Y-60320D02*
X122110Y-60320D01*
X111235Y-47885D02*
X108933Y-47885D01*
X112550Y-49200D02*
X111235Y-47885D01*
X112550Y-52615D02*
X112550Y-49200D01*
X120256Y-60320D02*
X112550Y-52615D01*
X121592Y-60320D02*
X120256Y-60320D01*
X96574Y-29425D02*
X97000Y-29000D01*
X96574Y-36739D02*
X96574Y-29425D01*
X92784Y-40529D02*
X96574Y-36739D01*
X101645Y-47885D02*
X108933Y-47885D01*
X96816Y-43056D02*
X101645Y-47885D01*
X96816Y-40542D02*
X96816Y-43056D01*
X96438Y-40165D02*
X96816Y-40542D01*
X96438Y-38573D02*
X96438Y-40165D01*
X98338Y-36674D02*
X96438Y-38573D01*
X98338Y-33469D02*
X98338Y-36674D01*
X99425Y-32382D02*
X98338Y-33469D01*
X99425Y-28812D02*
X99425Y-32382D01*
X99186Y-28574D02*
X99425Y-28812D01*
X97425Y-28574D02*
X99186Y-28574D01*
X97000Y-29000D02*
X97425Y-28574D01*
X126538Y-111181D02*
X126499Y-111181D01*
X128661Y-109057D02*
X126538Y-111181D01*
X128661Y-106298D02*
X128661Y-109057D01*
X128096Y-105733D02*
X128661Y-106298D01*
X128096Y-96842D02*
X128096Y-105733D01*
X130939Y-94000D02*
X128096Y-96842D01*
X58860Y-43656D02*
X58860Y-43385D01*
X51281Y-51235D02*
X58860Y-43656D01*
X45190Y-51235D02*
X51281Y-51235D01*
X44192Y-52232D02*
X45190Y-51235D01*
X44192Y-53426D02*
X44192Y-52232D01*
X33966Y-68002D02*
X33842Y-67879D01*
X33966Y-77173D02*
X33966Y-68002D01*
X28408Y-82731D02*
X33966Y-77173D01*
X28408Y-84348D02*
X28408Y-82731D01*
X29060Y-85000D02*
X28408Y-84348D01*
X30712Y-86652D02*
X29060Y-85000D01*
X30712Y-98225D02*
X30712Y-86652D01*
X29084Y-99853D02*
X30712Y-98225D01*
X29084Y-101459D02*
X29084Y-99853D01*
X30348Y-102723D02*
X29084Y-101459D01*
X30422Y-102723D02*
X30348Y-102723D01*
X44192Y-57699D02*
X44192Y-53426D01*
X36966Y-64925D02*
X44192Y-57699D01*
X34668Y-64925D02*
X36966Y-64925D01*
X33729Y-65865D02*
X34668Y-64925D01*
X33729Y-67765D02*
X33729Y-65865D01*
X33842Y-67879D02*
X33729Y-67765D01*
X126032Y-111995D02*
X126157Y-112120D01*
X126032Y-80821D02*
X126032Y-111995D01*
X129577Y-77276D02*
X126032Y-80821D01*
X111452Y-48385D02*
X109799Y-48385D01*
X112250Y-49183D02*
X111452Y-48385D01*
X112250Y-52599D02*
X112250Y-49183D01*
X120738Y-61086D02*
X112250Y-52599D01*
X122235Y-61086D02*
X120738Y-61086D01*
X94959Y-39512D02*
X93769Y-40702D01*
X95146Y-39512D02*
X94959Y-39512D01*
X97011Y-37648D02*
X95146Y-39512D01*
X97011Y-30988D02*
X97011Y-37648D01*
X99000Y-29000D02*
X97011Y-30988D01*
X101862Y-48385D02*
X109799Y-48385D01*
X96440Y-42963D02*
X101862Y-48385D01*
X96440Y-40806D02*
X96440Y-42963D01*
X95146Y-39512D02*
X96440Y-40806D01*
X128377Y-97561D02*
X130939Y-95000D01*
X128377Y-104732D02*
X128377Y-97561D01*
X129014Y-105369D02*
X128377Y-104732D01*
X129014Y-109339D02*
X129014Y-105369D01*
X126233Y-112120D02*
X129014Y-109339D01*
X126157Y-112120D02*
X126233Y-112120D01*
X44835Y-51873D02*
X44835Y-52660D01*
X45272Y-51435D02*
X44835Y-51873D01*
X51447Y-51435D02*
X45272Y-51435D01*
X59726Y-43156D02*
X51447Y-51435D01*
X59726Y-42885D02*
X59726Y-43156D01*
X101000Y-29000D02*
X101450Y-28549D01*
X133445Y-25691D02*
X134250Y-26496D01*
X121194Y-25691D02*
X133445Y-25691D01*
X119657Y-27228D02*
X121194Y-25691D01*
X119657Y-27506D02*
X119657Y-27228D01*
X116408Y-30755D02*
X119657Y-27506D01*
X103655Y-30755D02*
X116408Y-30755D01*
X101450Y-28549D02*
X103655Y-30755D01*
X34308Y-67063D02*
X34184Y-66939D01*
X34308Y-77114D02*
X34308Y-67063D01*
X28610Y-82812D02*
X34308Y-77114D01*
X28610Y-83549D02*
X28610Y-82812D01*
X29060Y-84000D02*
X28610Y-83549D01*
X30912Y-85852D02*
X29060Y-84000D01*
X30912Y-99009D02*
X30912Y-85852D01*
X29284Y-100637D02*
X30912Y-99009D01*
X29284Y-101027D02*
X29284Y-100637D01*
X30041Y-101784D02*
X29284Y-101027D01*
X30080Y-101784D02*
X30041Y-101784D01*
X111669Y-48885D02*
X110665Y-48885D01*
X111986Y-49202D02*
X111669Y-48885D01*
X111986Y-52628D02*
X111986Y-49202D01*
X121211Y-61852D02*
X111986Y-52628D01*
X122878Y-61852D02*
X121211Y-61852D01*
X44835Y-57339D02*
X44835Y-52660D01*
X37049Y-65125D02*
X44835Y-57339D01*
X34751Y-65125D02*
X37049Y-65125D01*
X34072Y-65805D02*
X34751Y-65125D01*
X34072Y-66826D02*
X34072Y-65805D01*
X34184Y-66939D02*
X34072Y-66826D01*
X94456Y-41174D02*
X94754Y-40876D01*
X92780Y-41174D02*
X94456Y-41174D01*
X92311Y-40705D02*
X92780Y-41174D01*
X92311Y-40348D02*
X92311Y-40705D01*
X96174Y-36485D02*
X92311Y-40348D01*
X96174Y-29223D02*
X96174Y-36485D01*
X96898Y-28500D02*
X96174Y-29223D01*
X97150Y-28500D02*
X96898Y-28500D01*
X98114Y-27536D02*
X97150Y-28500D01*
X101211Y-27536D02*
X98114Y-27536D01*
X101450Y-27774D02*
X101211Y-27536D01*
X101450Y-28549D02*
X101450Y-27774D01*
X102079Y-48885D02*
X110665Y-48885D01*
X96213Y-43019D02*
X102079Y-48885D01*
X96213Y-40884D02*
X96213Y-43019D01*
X95915Y-40585D02*
X96213Y-40884D01*
X95045Y-40585D02*
X95915Y-40585D01*
X94754Y-40876D02*
X95045Y-40585D01*
X34634Y-66107D02*
X34526Y-65999D01*
X29060Y-83363D02*
X29060Y-83000D01*
X31112Y-85415D02*
X29060Y-83363D01*
X31112Y-99470D02*
X31112Y-85415D01*
X29738Y-100844D02*
X31112Y-99470D01*
X45477Y-56980D02*
X45477Y-51894D01*
X36350Y-66107D02*
X45477Y-56980D01*
X34634Y-66107D02*
X36350Y-66107D01*
X34634Y-77425D02*
X29060Y-83000D01*
X34634Y-66107D02*
X34634Y-77425D01*
X110198Y-43951D02*
X111531Y-45284D01*
X110198Y-37547D02*
X110198Y-43951D01*
X121250Y-26496D02*
X110198Y-37547D01*
X121680Y-62619D02*
X122982Y-62619D01*
X111531Y-52470D02*
X121680Y-62619D01*
X111531Y-49385D02*
X111531Y-52470D01*
X122982Y-62619D02*
X123521Y-62619D01*
X122982Y-70746D02*
X129051Y-76815D01*
X122982Y-62619D02*
X122982Y-70746D01*
X128779Y-99159D02*
X130939Y-97000D01*
X128779Y-103853D02*
X128779Y-99159D01*
X129361Y-104435D02*
X128779Y-103853D01*
X129361Y-109556D02*
X129361Y-104435D01*
X126154Y-112763D02*
X129361Y-109556D01*
X125707Y-112315D02*
X126154Y-112763D01*
X125707Y-80160D02*
X125707Y-112315D01*
X129051Y-76815D02*
X125707Y-80160D01*
X125544Y-114000D02*
X125473Y-114000D01*
X126289Y-113255D02*
X125544Y-114000D01*
X126289Y-112897D02*
X126289Y-113255D01*
X126154Y-112763D02*
X126289Y-112897D01*
X130386Y-79030D02*
X130261Y-79155D01*
X130386Y-77437D02*
X130386Y-79030D01*
X129764Y-76815D02*
X130386Y-77437D01*
X129051Y-76815D02*
X129764Y-76815D01*
X102296Y-49385D02*
X111531Y-49385D01*
X95739Y-42828D02*
X102296Y-49385D01*
X95739Y-41050D02*
X95739Y-42828D01*
X60592Y-42385D02*
X60592Y-42530D01*
X51357Y-51894D02*
X45477Y-51894D01*
X60592Y-42659D02*
X51357Y-51894D01*
X60592Y-42530D02*
X60592Y-42659D01*
X74136Y-42530D02*
X78047Y-38619D01*
X60592Y-42530D02*
X74136Y-42530D01*
X112870Y-26922D02*
X115951Y-30003D01*
X56127Y-26922D02*
X112870Y-26922D01*
X21180Y-61869D02*
X56127Y-26922D01*
X21180Y-86596D02*
X21180Y-61869D01*
X22500Y-87915D02*
X21180Y-86596D01*
X122645Y-26100D02*
X122250Y-26496D01*
X132432Y-26100D02*
X122645Y-26100D01*
X132750Y-26418D02*
X132432Y-26100D01*
X132750Y-26558D02*
X132750Y-26418D01*
X133088Y-26896D02*
X132750Y-26558D01*
X133553Y-26896D02*
X133088Y-26896D01*
X133595Y-26854D02*
X133553Y-26896D01*
X134062Y-26854D02*
X133595Y-26854D01*
X134092Y-26885D02*
X134062Y-26854D01*
X134564Y-26885D02*
X134092Y-26885D01*
X134595Y-26854D02*
X134564Y-26885D01*
X135062Y-26854D02*
X134595Y-26854D01*
X135092Y-26885D02*
X135062Y-26854D01*
X135564Y-26885D02*
X135092Y-26885D01*
X135595Y-26854D02*
X135564Y-26885D01*
X135929Y-26854D02*
X135595Y-26854D01*
X136241Y-27166D02*
X135929Y-26854D01*
X136241Y-27299D02*
X136241Y-27166D01*
X136578Y-27636D02*
X136241Y-27299D01*
X136907Y-27636D02*
X136578Y-27636D01*
X136949Y-27594D02*
X136907Y-27636D01*
X137401Y-27594D02*
X136949Y-27594D01*
X138832Y-29025D02*
X137401Y-27594D01*
X138832Y-90651D02*
X138832Y-29025D01*
X137500Y-91984D02*
X138832Y-90651D01*
X121133Y-45525D02*
X121462Y-45854D01*
X121133Y-38441D02*
X121133Y-45525D01*
X120848Y-38156D02*
X121133Y-38441D01*
X120848Y-27827D02*
X120848Y-38156D01*
X121430Y-27246D02*
X120848Y-27827D01*
X121750Y-27246D02*
X121430Y-27246D01*
X123355Y-27246D02*
X123750Y-27246D01*
X122951Y-26841D02*
X123355Y-27246D01*
X122450Y-26841D02*
X122951Y-26841D01*
X122404Y-26887D02*
X122450Y-26841D01*
X121937Y-26887D02*
X122404Y-26887D01*
X121907Y-26857D02*
X121937Y-26887D01*
X121536Y-26857D02*
X121907Y-26857D01*
X110652Y-37740D02*
X121536Y-26857D01*
X110652Y-41092D02*
X110652Y-37740D01*
X125232Y-34438D02*
X125232Y-54553D01*
X124344Y-33550D02*
X125232Y-34438D01*
X124344Y-28497D02*
X124344Y-33550D01*
X124642Y-28199D02*
X124344Y-28497D01*
X124642Y-27733D02*
X124642Y-28199D01*
X124308Y-27399D02*
X124642Y-27733D01*
X124308Y-27244D02*
X124308Y-27399D01*
X123560Y-26496D02*
X124308Y-27244D01*
X123250Y-26496D02*
X123560Y-26496D01*
X124144Y-44961D02*
X124897Y-45713D01*
X124144Y-28579D02*
X124144Y-44961D01*
X123750Y-28185D02*
X124144Y-28579D01*
X123750Y-27923D02*
X123750Y-28185D01*
X123072Y-27246D02*
X123750Y-27923D01*
X122750Y-27246D02*
X123072Y-27246D01*
X93145Y-44199D02*
X95410Y-41935D01*
X61122Y-44199D02*
X93145Y-44199D01*
X43935Y-61386D02*
X61122Y-44199D01*
X43935Y-62024D02*
X43935Y-61386D01*
X35962Y-69997D02*
X43935Y-62024D01*
X35962Y-77624D02*
X35962Y-69997D01*
X34076Y-79510D02*
X35962Y-77624D01*
X34076Y-109323D02*
X34076Y-79510D01*
X33158Y-110241D02*
X34076Y-109323D01*
X30245Y-83110D02*
X29759Y-83596D01*
X30245Y-82493D02*
X30245Y-83110D01*
X35035Y-77702D02*
X30245Y-82493D01*
X35035Y-69437D02*
X35035Y-77702D01*
X61520Y-42952D02*
X35035Y-69437D01*
X80572Y-42952D02*
X61520Y-42952D01*
X84414Y-39110D02*
X80572Y-42952D01*
X84414Y-38992D02*
X84414Y-39110D01*
X84716Y-38689D02*
X84414Y-38992D01*
X85092Y-38689D02*
X84716Y-38689D01*
X85366Y-38963D02*
X85092Y-38689D01*
X85366Y-39436D02*
X85366Y-38963D01*
X85696Y-39766D02*
X85366Y-39436D01*
X86087Y-39766D02*
X85696Y-39766D01*
X86419Y-39434D02*
X86087Y-39766D01*
X86419Y-37167D02*
X86419Y-39434D01*
X88320Y-35267D02*
X86419Y-37167D01*
X130079Y-86140D02*
X130939Y-87000D01*
X130079Y-82467D02*
X130079Y-86140D01*
X131956Y-80590D02*
X130079Y-82467D01*
X131956Y-75156D02*
X131956Y-80590D01*
X129047Y-72247D02*
X131956Y-75156D01*
X129047Y-71922D02*
X129047Y-72247D01*
X127363Y-70238D02*
X129047Y-71922D01*
X126666Y-70238D02*
X127363Y-70238D01*
X124396Y-67969D02*
X126666Y-70238D01*
X124396Y-64836D02*
X124396Y-67969D01*
X125202Y-64030D02*
X124396Y-64836D01*
X125202Y-60990D02*
X125202Y-64030D01*
X124414Y-60201D02*
X125202Y-60990D01*
X124414Y-52830D02*
X124414Y-60201D01*
X122250Y-50665D02*
X124414Y-52830D01*
X122250Y-27996D02*
X122250Y-50665D01*
X128578Y-104288D02*
X128893Y-104603D01*
X128578Y-97719D02*
X128578Y-104288D01*
X130798Y-95500D02*
X128578Y-97719D01*
X131094Y-95500D02*
X130798Y-95500D01*
X131793Y-94800D02*
X131094Y-95500D01*
X131793Y-89188D02*
X131793Y-94800D01*
X131155Y-88549D02*
X131793Y-89188D01*
X130850Y-88549D02*
X131155Y-88549D01*
X129869Y-87569D02*
X130850Y-88549D01*
X129869Y-82394D02*
X129869Y-87569D01*
X131755Y-80508D02*
X129869Y-82394D01*
X131755Y-75591D02*
X131755Y-80508D01*
X128847Y-72682D02*
X131755Y-75591D01*
X128847Y-72307D02*
X128847Y-72682D01*
X127710Y-71171D02*
X128847Y-72307D01*
X127017Y-71171D02*
X127710Y-71171D01*
X124183Y-68336D02*
X127017Y-71171D01*
X124183Y-64749D02*
X124183Y-68336D01*
X125002Y-63930D02*
X124183Y-64749D01*
X125002Y-61216D02*
X125002Y-63930D01*
X120811Y-57025D02*
X125002Y-61216D01*
X120811Y-52283D02*
X120811Y-57025D01*
X122030Y-51064D02*
X120811Y-52283D01*
X122030Y-29026D02*
X122030Y-51064D01*
X121750Y-28746D02*
X122030Y-29026D01*
X37183Y-67855D02*
X37183Y-68305D01*
X61039Y-43999D02*
X37183Y-67855D01*
X87655Y-43999D02*
X61039Y-43999D01*
X91339Y-40315D02*
X87655Y-43999D01*
X91339Y-40178D02*
X91339Y-40315D01*
X94205Y-37312D02*
X91339Y-40178D01*
X126172Y-31832D02*
X125091Y-32913D01*
X126172Y-28621D02*
X126172Y-31832D01*
X126679Y-28114D02*
X126172Y-28621D01*
X126679Y-28006D02*
X126679Y-28114D01*
X127439Y-27246D02*
X126679Y-28006D01*
X127750Y-27246D02*
X127439Y-27246D01*
X124755Y-33487D02*
X125173Y-33904D01*
X124755Y-29287D02*
X124755Y-33487D01*
X125179Y-28864D02*
X124755Y-29287D01*
X125179Y-28613D02*
X125179Y-28864D01*
X125750Y-28042D02*
X125179Y-28613D01*
X125750Y-27246D02*
X125750Y-28042D01*
X88014Y-33956D02*
X88393Y-33956D01*
X85891Y-36080D02*
X88014Y-33956D01*
X85891Y-39313D02*
X85891Y-36080D01*
X123750Y-43503D02*
X123750Y-28746D01*
X123447Y-43806D02*
X123750Y-43503D01*
X122939Y-27996D02*
X123250Y-27996D01*
X122552Y-27609D02*
X122939Y-27996D01*
X122081Y-27609D02*
X122552Y-27609D01*
X121750Y-27940D02*
X122081Y-27609D01*
X121750Y-28185D02*
X121750Y-27940D01*
X121349Y-28585D02*
X121750Y-28185D01*
X121349Y-31641D02*
X121349Y-28585D01*
X121797Y-32088D02*
X121349Y-31641D01*
X121797Y-50254D02*
X121797Y-32088D01*
X117093Y-54958D02*
X121797Y-50254D01*
X122750Y-50263D02*
X122750Y-28746D01*
X124614Y-52127D02*
X122750Y-50263D01*
X124614Y-60119D02*
X124614Y-52127D01*
X125403Y-60907D02*
X124614Y-60119D01*
X125403Y-64195D02*
X125403Y-60907D01*
X124603Y-64995D02*
X125403Y-64195D01*
X124603Y-67845D02*
X124603Y-64995D01*
X126515Y-69758D02*
X124603Y-67845D01*
X126841Y-69758D02*
X126515Y-69758D01*
X121466Y-38176D02*
X121466Y-44683D01*
X121149Y-37859D02*
X121466Y-38176D01*
X121149Y-28096D02*
X121149Y-37859D01*
X121250Y-27996D02*
X121149Y-28096D01*
G54D27*
X28986Y-95000D02*
X29060Y-95000D01*
X28825Y-95160D02*
X28986Y-95000D01*
X37764Y-57821D02*
X37764Y-61086D01*
X38190Y-57395D02*
X37764Y-57821D01*
X38190Y-56992D02*
X38190Y-57395D01*
X45269Y-49912D02*
X38190Y-56992D01*
X49069Y-49912D02*
X45269Y-49912D01*
X50200Y-48782D02*
X49069Y-49912D01*
X50200Y-48385D02*
X50200Y-48782D01*
X25898Y-92232D02*
X28825Y-95160D01*
X25898Y-91191D02*
X25898Y-92232D01*
X26714Y-90374D02*
X25898Y-91191D01*
X26714Y-80835D02*
X26714Y-90374D01*
X30273Y-77276D02*
X26714Y-80835D01*
X30422Y-77276D02*
X30273Y-77276D01*
X33682Y-112120D02*
X33842Y-112120D01*
X31949Y-110388D02*
X33682Y-112120D01*
X31949Y-109043D02*
X31949Y-110388D01*
X27599Y-104692D02*
X31949Y-109043D01*
X27599Y-96387D02*
X27599Y-104692D01*
X28825Y-95160D02*
X27599Y-96387D01*
X132269Y-86329D02*
X130939Y-85000D01*
X132269Y-97006D02*
X132269Y-86329D01*
X129380Y-99894D02*
X132269Y-97006D01*
X129380Y-102527D02*
X129380Y-99894D01*
X129577Y-102723D02*
X129380Y-102527D01*
X83565Y-39322D02*
X82243Y-39322D01*
X83921Y-38966D02*
X83565Y-39322D01*
X82243Y-39322D02*
X82243Y-40775D01*
X81029Y-39322D02*
X82243Y-39322D01*
X79138Y-37431D02*
X81029Y-39322D01*
X69742Y-37431D02*
X79138Y-37431D01*
X69354Y-37043D02*
X69742Y-37431D01*
X68445Y-37043D02*
X69354Y-37043D01*
X66230Y-39259D02*
X68445Y-37043D01*
X66126Y-39155D02*
X66230Y-39259D01*
X66230Y-39259D02*
X66230Y-40702D01*
G54D26*
X33424Y-111181D02*
X33500Y-111181D01*
X32703Y-110459D02*
X33424Y-111181D01*
X32703Y-110052D02*
X32703Y-110459D01*
X33382Y-109372D02*
X32703Y-110052D01*
X33382Y-79779D02*
X33382Y-109372D01*
X35241Y-77920D02*
X33382Y-79779D01*
X35241Y-69514D02*
X35241Y-77920D01*
X61498Y-43257D02*
X35241Y-69514D01*
X80788Y-43257D02*
X61498Y-43257D01*
X80788Y-43257D02*
X80788Y-43257D01*
X84906Y-39140D02*
X80788Y-43257D01*
X100473Y-43885D02*
X102005Y-43885D01*
X100414Y-43826D02*
X100473Y-43885D01*
X104467Y-41805D02*
X104467Y-42174D01*
X114615Y-31657D02*
X104467Y-41805D01*
X115788Y-31657D02*
X114615Y-31657D01*
X120289Y-27156D02*
X115788Y-31657D01*
X120289Y-26879D02*
X120289Y-27156D01*
X121277Y-25891D02*
X120289Y-26879D01*
X132645Y-25891D02*
X121277Y-25891D01*
X133250Y-26496D02*
X132645Y-25891D01*
X34835Y-69175D02*
X60184Y-43826D01*
X34835Y-77619D02*
X34835Y-69175D01*
X29919Y-82535D02*
X34835Y-77619D01*
X29919Y-82959D02*
X29919Y-82535D01*
X39957Y-59953D02*
X39957Y-59617D01*
X36769Y-63141D02*
X39957Y-59953D01*
X34436Y-63141D02*
X36769Y-63141D01*
X30656Y-66922D02*
X34436Y-63141D01*
X30656Y-76228D02*
X30656Y-66922D01*
X30764Y-76336D02*
X30656Y-76228D01*
X120808Y-49834D02*
X116450Y-54192D01*
X120808Y-38859D02*
X120808Y-49834D01*
X126428Y-68818D02*
X126499Y-68818D01*
X125020Y-67410D02*
X126428Y-68818D01*
X125020Y-65432D02*
X125020Y-67410D01*
X125994Y-64459D02*
X125020Y-65432D01*
X125994Y-36117D02*
X125994Y-64459D01*
X130167Y-31944D02*
X125994Y-36117D01*
X130167Y-28639D02*
X130167Y-31944D01*
X130820Y-27985D02*
X130167Y-28639D01*
X130820Y-27877D02*
X130820Y-27985D01*
X131250Y-27448D02*
X130820Y-27877D01*
X131250Y-27183D02*
X131250Y-27448D01*
X131937Y-26496D02*
X131250Y-27183D01*
X132250Y-26496D02*
X131937Y-26496D01*
X130479Y-85540D02*
X130939Y-86000D01*
X130479Y-82632D02*
X130479Y-85540D01*
X133535Y-79577D02*
X130479Y-82632D01*
X133535Y-58366D02*
X133535Y-79577D01*
X128019Y-52850D02*
X133535Y-58366D01*
X128019Y-34486D02*
X128019Y-52850D01*
X131250Y-31255D02*
X128019Y-34486D01*
X131250Y-28556D02*
X131250Y-31255D01*
X131750Y-28056D02*
X131250Y-28556D01*
X131750Y-27246D02*
X131750Y-28056D01*
X71810Y-38514D02*
X72917Y-38514D01*
X70635Y-39689D02*
X71810Y-38514D01*
X70635Y-40182D02*
X70635Y-39689D01*
X69317Y-41500D02*
X70635Y-40182D01*
X63529Y-41500D02*
X69317Y-41500D01*
X63137Y-41108D02*
X63529Y-41500D01*
X58650Y-41108D02*
X63137Y-41108D01*
X54062Y-45696D02*
X58650Y-41108D01*
X54062Y-46146D02*
X54062Y-45696D01*
X54133Y-46218D02*
X54062Y-46146D01*
X54133Y-46585D02*
X54133Y-46218D01*
X52833Y-47885D02*
X54133Y-46585D01*
X51066Y-47885D02*
X52833Y-47885D01*
X129179Y-29484D02*
X127496Y-31166D01*
X129179Y-28756D02*
X129179Y-29484D01*
X129750Y-28185D02*
X129179Y-28756D01*
X129750Y-27793D02*
X129750Y-28185D01*
X130179Y-27364D02*
X129750Y-27793D01*
X130179Y-27256D02*
X130179Y-27364D01*
X130939Y-26496D02*
X130179Y-27256D01*
X131250Y-26496D02*
X130939Y-26496D01*
X129105Y-103533D02*
X129235Y-103663D01*
X129105Y-99780D02*
X129105Y-103533D01*
X131994Y-96892D02*
X129105Y-99780D01*
X131994Y-87400D02*
X131994Y-96892D01*
X131094Y-86500D02*
X131994Y-87400D01*
X130798Y-86500D02*
X131094Y-86500D01*
X130279Y-85981D02*
X130798Y-86500D01*
X130279Y-82550D02*
X130279Y-85981D01*
X132156Y-80672D02*
X130279Y-82550D01*
X132156Y-75073D02*
X132156Y-80672D01*
X129247Y-72164D02*
X132156Y-75073D01*
X129247Y-71504D02*
X129247Y-72164D01*
X127031Y-69288D02*
X129247Y-71504D01*
X126328Y-69288D02*
X127031Y-69288D01*
X124820Y-67780D02*
X126328Y-69288D01*
X124820Y-65191D02*
X124820Y-67780D01*
X125794Y-64217D02*
X124820Y-65191D01*
X125794Y-32869D02*
X125794Y-64217D01*
X127496Y-31166D02*
X125794Y-32869D01*
X29060Y-92000D02*
X26419Y-92000D01*
X51477Y-45565D02*
X51477Y-44598D01*
X52798Y-46885D02*
X51477Y-45565D01*
X68726Y-39723D02*
X68726Y-37581D01*
X69184Y-40181D02*
X68726Y-39723D01*
X87334Y-39028D02*
X87334Y-36886D01*
X86876Y-39487D02*
X87334Y-39028D01*
X118061Y-55724D02*
X119759Y-54027D01*
X117736Y-55724D02*
X118061Y-55724D01*
G54D25*
X141500Y-87000D02*
X141500Y-85000D01*
X17750Y-94750D02*
X17750Y-92750D01*
X17750Y-92750D02*
X17750Y-90750D01*
X17750Y-86750D02*
X17750Y-84750D01*
X17750Y-94750D02*
X17750Y-96750D01*
X22490Y-29860D02*
X20630Y-28000D01*
X30000Y-29860D02*
X22490Y-29860D01*
X30000Y-29860D02*
X32500Y-27360D01*
X30000Y-29860D02*
X30000Y-36000D01*
X100800Y-32618D02*
X100885Y-32618D01*
X141500Y-95000D02*
X141500Y-97000D01*
X17750Y-98490D02*
X19863Y-100603D01*
X17750Y-96750D02*
X17750Y-98490D01*
X49334Y-48885D02*
X49334Y-44235D01*
X52522Y-41063D02*
X54633Y-41063D01*
X51725Y-41859D02*
X52522Y-41063D01*
X51725Y-42675D02*
X51725Y-41859D01*
X50165Y-44235D02*
X51725Y-42675D01*
X49334Y-44235D02*
X50165Y-44235D01*
X94268Y-28731D02*
X93731Y-28731D01*
X95000Y-28000D02*
X94268Y-28731D01*
X93000Y-28000D02*
X93731Y-28731D01*
X93731Y-34498D02*
X92023Y-36206D01*
X93731Y-28731D02*
X93731Y-34498D01*
X99610Y-28000D02*
X100305Y-28694D01*
X99000Y-28000D02*
X99610Y-28000D01*
X101000Y-28000D02*
X100305Y-28694D01*
X100305Y-32122D02*
X100800Y-32618D01*
X100305Y-28694D02*
X100305Y-32122D01*
X141500Y-89000D02*
X141500Y-87000D01*
X130888Y-115555D02*
X130888Y-111182D01*
X130444Y-115555D02*
X130888Y-115555D01*
X130000Y-116000D02*
X130444Y-115555D01*
X141655Y-115555D02*
X143600Y-117500D01*
X130888Y-115555D02*
X141655Y-115555D01*
X23302Y-117500D02*
X27401Y-113401D01*
X16400Y-117500D02*
X23302Y-117500D01*
X27401Y-106484D02*
X27401Y-113401D01*
X141500Y-89000D02*
X141500Y-91000D01*
X17750Y-81509D02*
X17750Y-82750D01*
X19863Y-79396D02*
X17750Y-81509D01*
X17750Y-82750D02*
X17750Y-84750D01*
X86684Y-28000D02*
X82936Y-31747D01*
X87000Y-28000D02*
X86684Y-28000D01*
X82936Y-38792D02*
X82936Y-31747D01*
X80125Y-28935D02*
X80000Y-28935D01*
X82936Y-31747D02*
X80125Y-28935D01*
X19030Y-26400D02*
X20630Y-28000D01*
X16400Y-26400D02*
X19030Y-26400D01*
X27401Y-113401D02*
X30000Y-116000D01*
X32939Y-113060D02*
X34184Y-113060D01*
X30000Y-116000D02*
X32939Y-113060D01*
X40748Y-43222D02*
X41258Y-43732D01*
X48830Y-43732D02*
X41258Y-43732D01*
X49334Y-44235D02*
X48830Y-43732D01*
X39425Y-45565D02*
X39425Y-52690D01*
X41258Y-43732D02*
X39425Y-45565D01*
X17750Y-86750D02*
X17750Y-88750D01*
X23899Y-87500D02*
X24935Y-87500D01*
X21968Y-89431D02*
X23899Y-87500D01*
X17750Y-89431D02*
X21968Y-89431D01*
X17750Y-88750D02*
X17750Y-89431D01*
X17750Y-89431D02*
X17750Y-90750D01*
X36964Y-54293D02*
X36964Y-61695D01*
X38567Y-52690D02*
X36964Y-54293D01*
X39425Y-52690D02*
X38567Y-52690D01*
X36964Y-61695D02*
X37121Y-61852D01*
X29111Y-68817D02*
X29111Y-61695D01*
X36964Y-61695D02*
X29111Y-61695D01*
X27116Y-60012D02*
X27116Y-59467D01*
X28799Y-61695D02*
X27116Y-60012D01*
X29111Y-61695D02*
X28799Y-61695D01*
X98788Y-34630D02*
X100800Y-32618D01*
X98788Y-40493D02*
X98788Y-34630D01*
X98705Y-40577D02*
X98788Y-40493D01*
X98705Y-42855D02*
X98705Y-40577D01*
X98935Y-43085D02*
X98705Y-42855D01*
X100073Y-43085D02*
X98935Y-43085D01*
X100273Y-42885D02*
X100073Y-43085D01*
X136750Y-29250D02*
X136750Y-28746D01*
X130000Y-36000D02*
X136750Y-29250D01*
X119251Y-48573D02*
X115164Y-52660D01*
X119251Y-43222D02*
X119251Y-48573D01*
X141500Y-99240D02*
X140136Y-100603D01*
X141500Y-97000D02*
X141500Y-99240D01*
X138597Y-102142D02*
X130277Y-102142D01*
X140136Y-100603D02*
X138597Y-102142D01*
X130277Y-103802D02*
X130277Y-102142D01*
X130085Y-103994D02*
X130277Y-103802D01*
X130085Y-109997D02*
X130085Y-103994D01*
X130888Y-110800D02*
X130085Y-109997D01*
X130888Y-111182D02*
X130888Y-110800D01*
X130277Y-102142D02*
X129919Y-101784D01*
X54633Y-37099D02*
X59114Y-32618D01*
X54633Y-41063D02*
X54633Y-37099D01*
X59216Y-32618D02*
X64960Y-38362D01*
X59114Y-32618D02*
X59216Y-32618D01*
X64960Y-40591D02*
X65245Y-40876D01*
X64960Y-38362D02*
X64960Y-40591D01*
X73597Y-35338D02*
X72900Y-35338D01*
X80000Y-28935D02*
X73597Y-35338D01*
X66964Y-36359D02*
X64960Y-38362D01*
X68651Y-36359D02*
X66964Y-36359D01*
X69951Y-35059D02*
X68651Y-36359D01*
X72621Y-35059D02*
X69951Y-35059D01*
X72900Y-35338D02*
X72621Y-35059D01*
X141500Y-80759D02*
X141500Y-83000D01*
X140136Y-79396D02*
X141500Y-80759D01*
X141500Y-83000D02*
X141500Y-85000D01*
X141500Y-91000D02*
X141500Y-93000D01*
X136251Y-93687D02*
X135064Y-92500D01*
X141500Y-93687D02*
X136251Y-93687D01*
X141500Y-93000D02*
X141500Y-93687D01*
X141500Y-93687D02*
X141500Y-95000D01*
X132883Y-64371D02*
X130315Y-66939D01*
X132883Y-59467D02*
X132883Y-64371D01*
X132598Y-69222D02*
X130315Y-66939D01*
X132598Y-73515D02*
X132598Y-69222D01*
X130315Y-66939D02*
X125815Y-66939D01*
G54D26*
X107982Y-41073D02*
X108947Y-40107D01*
X107982Y-42313D02*
X107982Y-41073D01*
X107532Y-42313D02*
X107982Y-42313D01*
X122632Y-54381D02*
X123967Y-53046D01*
X122632Y-54605D02*
X122632Y-54381D01*
X122181Y-54605D02*
X122632Y-54605D01*
X90130Y-35203D02*
X90130Y-33329D01*
X89561Y-35772D02*
X90130Y-35203D01*
X27824Y-72880D02*
X27117Y-72880D01*
X29196Y-71508D02*
X27824Y-72880D01*
X30051Y-70653D02*
X29196Y-71508D01*
X30051Y-69159D02*
X30051Y-70653D01*
X25935Y-90515D02*
X24451Y-92000D01*
X25935Y-90000D02*
X25935Y-90515D01*
X29196Y-106997D02*
X29196Y-108491D01*
X28341Y-106141D02*
X29196Y-106997D01*
X29196Y-110167D02*
X28485Y-110877D01*
X29196Y-108491D02*
X29196Y-110167D01*
X132175Y-107119D02*
X132882Y-107119D01*
X130803Y-108491D02*
X132175Y-107119D01*
X121415Y-55556D02*
X121415Y-55248D01*
X123022Y-57163D02*
X121415Y-55556D01*
X107032Y-41883D02*
X106042Y-40893D01*
X107032Y-43179D02*
X107032Y-41883D01*
X134064Y-92500D02*
X134064Y-90000D01*
X134064Y-89484D02*
X135548Y-88000D01*
X134064Y-90000D02*
X134064Y-89484D01*
X130803Y-73002D02*
X130803Y-71508D01*
X131658Y-73858D02*
X130803Y-73002D01*
X130803Y-69832D02*
X131514Y-69122D01*
X130803Y-71508D02*
X130803Y-69832D01*
M02*
