G04 (created by PCBNEW (2013-jul-07)-stable) date Mon 30 Nov 2015 09:20:55 AM PST*
%MOIN*%
G04 Gerber Fmt 3.4, Leading zero omitted, Abs format*
%FSLAX34Y34*%
G01*
G70*
G90*
G04 APERTURE LIST*
%ADD10C,0.00590551*%
%ADD11C,0.145669*%
%ADD12C,0.0472441*%
%ADD13C,0.1*%
%ADD14C,0.0590551*%
%ADD15R,0.06X0.06*%
%ADD16C,0.06*%
%ADD17C,0.076*%
%ADD18C,0.14*%
%ADD19C,0.16*%
%ADD20C,0.055*%
%ADD21C,0.0787402*%
%ADD22C,0.32*%
%ADD23C,0.2*%
G04 APERTURE END LIST*
G54D10*
G54D11*
X140899Y-27246D03*
X118100Y-27246D03*
G54D12*
X137750Y-28746D03*
X137250Y-27996D03*
X136750Y-28746D03*
X136250Y-27996D03*
X135750Y-28746D03*
X135250Y-27996D03*
X134750Y-28746D03*
X134250Y-27996D03*
X133750Y-28746D03*
X133250Y-27996D03*
X132750Y-28746D03*
X132250Y-27996D03*
X131750Y-28746D03*
X131250Y-27996D03*
X130750Y-28746D03*
X130250Y-27996D03*
X129750Y-28746D03*
X129250Y-27996D03*
X128750Y-28746D03*
X128250Y-27996D03*
X127750Y-28746D03*
X127250Y-27996D03*
X126750Y-28746D03*
X126250Y-27996D03*
X125750Y-28746D03*
X125250Y-27996D03*
X124750Y-28746D03*
X124250Y-27996D03*
X123750Y-28746D03*
X123250Y-27996D03*
X122750Y-28746D03*
X122250Y-27996D03*
X121750Y-28746D03*
X121250Y-27996D03*
X137750Y-27246D03*
X137250Y-26496D03*
X136750Y-27246D03*
X136250Y-26496D03*
X135750Y-27246D03*
X135250Y-26496D03*
X134750Y-27246D03*
X134250Y-26496D03*
X133750Y-27246D03*
X133250Y-26496D03*
X132750Y-27246D03*
X132250Y-26496D03*
X131750Y-27246D03*
X131250Y-26496D03*
X130750Y-27246D03*
X130250Y-26496D03*
X129750Y-27246D03*
X129250Y-26496D03*
X128750Y-27246D03*
X128250Y-26496D03*
X127750Y-27246D03*
X127250Y-26496D03*
X126750Y-27246D03*
X126250Y-26496D03*
X125750Y-27246D03*
X125250Y-26496D03*
X124750Y-27246D03*
X124250Y-26496D03*
X123750Y-27246D03*
X123250Y-26496D03*
X122750Y-27246D03*
X122250Y-26496D03*
X121750Y-27246D03*
X121250Y-26496D03*
G54D13*
X24370Y-28000D03*
X22500Y-28000D03*
X20630Y-28000D03*
G54D14*
X37669Y-57091D03*
X36161Y-55825D03*
X123967Y-53046D03*
X125232Y-54553D03*
X68726Y-37581D03*
X68384Y-35642D03*
X108947Y-40107D03*
X110652Y-41092D03*
X134063Y-70375D03*
X134736Y-72224D03*
X90130Y-33329D03*
X92069Y-33670D03*
X87334Y-36886D03*
X87676Y-34948D03*
X51477Y-44598D03*
X50493Y-42893D03*
X137500Y-90015D03*
X137500Y-91984D03*
X134036Y-109975D03*
X133363Y-111824D03*
X30335Y-110204D03*
X28485Y-110877D03*
X26419Y-92000D03*
X24451Y-92000D03*
X28967Y-73553D03*
X27117Y-72880D03*
X51147Y-40292D03*
X52852Y-39307D03*
X35867Y-53053D03*
X37132Y-51546D03*
X25963Y-70124D03*
X26636Y-68275D03*
X22500Y-89884D03*
X22500Y-87915D03*
X25936Y-109524D03*
X25263Y-107675D03*
X129664Y-69795D03*
X131514Y-69122D03*
X133579Y-88000D03*
X135548Y-88000D03*
X70030Y-33270D03*
X71969Y-32929D03*
X119759Y-54027D03*
X121266Y-52761D03*
X131032Y-106446D03*
X132882Y-107119D03*
X105057Y-42598D03*
X106042Y-40893D03*
G54D15*
X135064Y-90000D03*
G54D16*
X134064Y-90000D03*
G54D15*
X52467Y-42313D03*
G54D16*
X52967Y-43179D03*
G54D15*
X70438Y-35772D03*
G54D16*
X70612Y-36757D03*
G54D15*
X89561Y-35772D03*
G54D16*
X89387Y-36757D03*
G54D15*
X37818Y-54605D03*
G54D16*
X38584Y-55248D03*
G54D15*
X28256Y-108833D03*
G54D16*
X29196Y-108491D03*
G54D15*
X131743Y-108833D03*
G54D16*
X130803Y-108491D03*
G54D15*
X131743Y-71166D03*
G54D16*
X130803Y-71508D03*
G54D15*
X122181Y-54605D03*
G54D16*
X121415Y-55248D03*
G54D15*
X28256Y-71166D03*
G54D16*
X29196Y-71508D03*
G54D15*
X107532Y-42313D03*
G54D16*
X107032Y-43179D03*
G54D15*
X24935Y-90000D03*
G54D16*
X25935Y-90000D03*
G54D15*
X99407Y-42385D03*
G54D16*
X100273Y-42885D03*
X101139Y-43385D03*
X102005Y-43885D03*
X102871Y-44385D03*
X103737Y-44885D03*
X104603Y-45385D03*
X105469Y-45885D03*
X106335Y-46385D03*
X107201Y-46885D03*
X108067Y-47385D03*
X108933Y-47885D03*
X109799Y-48385D03*
X110665Y-48885D03*
X111531Y-49385D03*
G54D15*
X130261Y-100844D03*
G54D16*
X129919Y-101784D03*
X129577Y-102723D03*
X129235Y-103663D03*
X128893Y-104603D03*
X128551Y-105543D03*
X128209Y-106482D03*
X127867Y-107422D03*
X127525Y-108362D03*
X127183Y-109301D03*
X126841Y-110241D03*
X126499Y-111181D03*
X126157Y-112120D03*
X125815Y-113060D03*
X125473Y-114000D03*
G54D15*
X130939Y-83000D03*
G54D16*
X130939Y-84000D03*
X130939Y-85000D03*
X130939Y-86000D03*
X130939Y-87000D03*
X130939Y-88000D03*
X130939Y-89000D03*
X130939Y-90000D03*
X130939Y-91000D03*
X130939Y-92000D03*
X130939Y-93000D03*
X130939Y-94000D03*
X130939Y-95000D03*
X130939Y-96000D03*
X130939Y-97000D03*
G54D15*
X125473Y-65999D03*
G54D16*
X125815Y-66939D03*
X126157Y-67879D03*
X126499Y-68818D03*
X126841Y-69758D03*
X127183Y-70698D03*
X127525Y-71637D03*
X127867Y-72577D03*
X128209Y-73517D03*
X128551Y-74456D03*
X128893Y-75396D03*
X129235Y-76336D03*
X129577Y-77276D03*
X129919Y-78215D03*
X130261Y-79155D03*
G54D15*
X114522Y-51894D03*
G54D16*
X115164Y-52660D03*
X115807Y-53426D03*
X116450Y-54192D03*
X117093Y-54958D03*
X117736Y-55724D03*
X118378Y-56490D03*
X119021Y-57256D03*
X119664Y-58022D03*
X120307Y-58788D03*
X120950Y-59554D03*
X121592Y-60320D03*
X122235Y-61086D03*
X122878Y-61852D03*
X123521Y-62619D03*
G54D15*
X81952Y-38619D03*
G54D16*
X82936Y-38792D03*
X83921Y-38966D03*
X84906Y-39140D03*
X85891Y-39313D03*
X86876Y-39487D03*
X87860Y-39660D03*
X88845Y-39834D03*
X89830Y-40008D03*
X90815Y-40181D03*
X91800Y-40355D03*
X92784Y-40529D03*
X93769Y-40702D03*
X94754Y-40876D03*
X95739Y-41050D03*
G54D15*
X64260Y-41050D03*
G54D16*
X65245Y-40876D03*
X66230Y-40702D03*
X67215Y-40529D03*
X68199Y-40355D03*
X69184Y-40181D03*
X70169Y-40008D03*
X71154Y-39834D03*
X72139Y-39660D03*
X73123Y-39487D03*
X74108Y-39313D03*
X75093Y-39140D03*
X76078Y-38966D03*
X77063Y-38792D03*
X78047Y-38619D03*
G54D15*
X48468Y-49385D03*
G54D16*
X49334Y-48885D03*
X50200Y-48385D03*
X51066Y-47885D03*
X51932Y-47385D03*
X52798Y-46885D03*
X53664Y-46385D03*
X54530Y-45885D03*
X55396Y-45385D03*
X56262Y-44885D03*
X57128Y-44385D03*
X57994Y-43885D03*
X58860Y-43385D03*
X59726Y-42885D03*
X60592Y-42385D03*
G54D15*
X36478Y-62619D03*
G54D16*
X37121Y-61852D03*
X37764Y-61086D03*
X38407Y-60320D03*
X39049Y-59554D03*
X39692Y-58788D03*
X40335Y-58022D03*
X40978Y-57256D03*
X41621Y-56490D03*
X42263Y-55724D03*
X42906Y-54958D03*
X43549Y-54192D03*
X44192Y-53426D03*
X44835Y-52660D03*
X45477Y-51894D03*
G54D15*
X29738Y-79155D03*
G54D16*
X30080Y-78215D03*
X30422Y-77276D03*
X30764Y-76336D03*
X31106Y-75396D03*
X31448Y-74456D03*
X31790Y-73517D03*
X32132Y-72577D03*
X32474Y-71637D03*
X32816Y-70698D03*
X33158Y-69758D03*
X33500Y-68818D03*
X33842Y-67879D03*
X34184Y-66939D03*
X34526Y-65999D03*
G54D15*
X29060Y-97000D03*
G54D16*
X29060Y-96000D03*
X29060Y-95000D03*
X29060Y-94000D03*
X29060Y-93000D03*
X29060Y-92000D03*
X29060Y-91000D03*
X29060Y-90000D03*
X29060Y-89000D03*
X29060Y-88000D03*
X29060Y-87000D03*
X29060Y-86000D03*
X29060Y-85000D03*
X29060Y-84000D03*
X29060Y-83000D03*
G54D15*
X34526Y-114000D03*
G54D16*
X34184Y-113060D03*
X33842Y-112120D03*
X33500Y-111181D03*
X33158Y-110241D03*
X32816Y-109301D03*
X32474Y-108362D03*
X32132Y-107422D03*
X31790Y-106482D03*
X31448Y-105543D03*
X31106Y-104603D03*
X30764Y-103663D03*
X30422Y-102723D03*
X30080Y-101784D03*
X29738Y-100844D03*
G54D17*
X32500Y-26180D03*
G54D18*
X32500Y-27360D03*
G54D19*
X32500Y-29720D03*
G54D18*
X30730Y-26970D03*
X34270Y-26970D03*
G54D13*
X80000Y-30935D03*
X80000Y-28935D03*
X21832Y-100256D03*
X19863Y-100603D03*
X21832Y-79743D03*
X19863Y-79396D03*
X28848Y-60467D03*
X27116Y-59467D03*
X42034Y-44754D03*
X40748Y-43222D03*
X59798Y-34497D03*
X59114Y-32618D03*
G54D20*
X30051Y-69159D03*
X29111Y-68817D03*
X28341Y-106141D03*
X27401Y-106484D03*
X25935Y-87500D03*
X24935Y-87500D03*
X131658Y-73858D03*
X132598Y-73515D03*
X40191Y-53333D03*
X39425Y-52690D03*
X55133Y-41929D03*
X54633Y-41063D03*
X73073Y-36322D03*
X72900Y-35338D03*
X91850Y-37191D03*
X92023Y-36206D03*
X129948Y-110840D03*
X130888Y-111182D03*
X109197Y-44429D03*
X109697Y-43563D03*
X134064Y-92500D03*
X135064Y-92500D03*
X123022Y-57163D03*
X123788Y-56520D03*
G54D21*
X40523Y-26500D03*
X43476Y-26500D03*
G54D13*
X100201Y-34497D03*
X100885Y-32618D03*
X117965Y-44754D03*
X119251Y-43222D03*
X131151Y-60467D03*
X132883Y-59467D03*
X138167Y-79743D03*
X140136Y-79396D03*
X138167Y-100256D03*
X140136Y-100603D03*
G54D22*
X30000Y-36000D03*
X130000Y-36000D03*
X130000Y-116000D03*
X30000Y-116000D03*
G54D23*
X143600Y-26400D03*
X16400Y-117500D03*
X143600Y-117500D03*
X16400Y-26400D03*
G54D20*
X18750Y-82750D03*
X17750Y-82750D03*
X140500Y-91000D03*
X141500Y-91000D03*
X95000Y-29000D03*
X95000Y-28000D03*
X18750Y-88750D03*
X17750Y-88750D03*
X140500Y-93000D03*
X141500Y-93000D03*
X97000Y-29000D03*
X97000Y-28000D03*
X18750Y-86750D03*
X17750Y-86750D03*
X140500Y-95000D03*
X141500Y-95000D03*
X99000Y-29000D03*
X99000Y-28000D03*
X18750Y-84750D03*
X17750Y-84750D03*
X140500Y-97000D03*
X141500Y-97000D03*
X101000Y-29000D03*
X101000Y-28000D03*
X18750Y-90750D03*
X17750Y-90750D03*
X140500Y-83000D03*
X141500Y-83000D03*
X87000Y-29000D03*
X87000Y-28000D03*
X18750Y-96750D03*
X17750Y-96750D03*
X140500Y-85000D03*
X141500Y-85000D03*
X89000Y-29000D03*
X89000Y-28000D03*
X18750Y-94750D03*
X17750Y-94750D03*
X140500Y-87000D03*
X141500Y-87000D03*
X91000Y-29000D03*
X91000Y-28000D03*
X18750Y-92750D03*
X17750Y-92750D03*
X140500Y-89000D03*
X141500Y-89000D03*
X93000Y-29000D03*
X93000Y-28000D03*
M02*
