G04 (created by PCBNEW (2013-jul-07)-stable) date Mon 30 Nov 2015 09:20:55 AM PST*
%MOIN*%
G04 Gerber Fmt 3.4, Leading zero omitted, Abs format*
%FSLAX34Y34*%
G01*
G70*
G90*
G04 APERTURE LIST*
%ADD10C,0.00590551*%
%ADD11C,0.145669*%
%ADD12C,0.0472441*%
%ADD13R,0.0315X0.0394*%
%ADD14R,0.055X0.035*%
%ADD15R,0.035X0.055*%
%ADD16C,0.1*%
%ADD17C,0.0590551*%
%ADD18R,0.06X0.06*%
%ADD19C,0.06*%
%ADD20C,0.076*%
%ADD21C,0.14*%
%ADD22C,0.16*%
%ADD23C,0.055*%
%ADD24C,0.0787402*%
%ADD25C,0.32*%
%ADD26C,0.2*%
%ADD27C,0.035*%
%ADD28C,0.06*%
%ADD29C,0.01*%
%ADD30C,0.025*%
G04 APERTURE END LIST*
G54D10*
G54D11*
X140899Y-27246D03*
X118100Y-27246D03*
G54D12*
X137750Y-28746D03*
X137250Y-27996D03*
X136750Y-28746D03*
X136250Y-27996D03*
X135750Y-28746D03*
X135250Y-27996D03*
X134750Y-28746D03*
X134250Y-27996D03*
X133750Y-28746D03*
X133250Y-27996D03*
X132750Y-28746D03*
X132250Y-27996D03*
X131750Y-28746D03*
X131250Y-27996D03*
X130750Y-28746D03*
X130250Y-27996D03*
X129750Y-28746D03*
X129250Y-27996D03*
X128750Y-28746D03*
X128250Y-27996D03*
X127750Y-28746D03*
X127250Y-27996D03*
X126750Y-28746D03*
X126250Y-27996D03*
X125750Y-28746D03*
X125250Y-27996D03*
X124750Y-28746D03*
X124250Y-27996D03*
X123750Y-28746D03*
X123250Y-27996D03*
X122750Y-28746D03*
X122250Y-27996D03*
X121750Y-28746D03*
X121250Y-27996D03*
X137750Y-27246D03*
X137250Y-26496D03*
X136750Y-27246D03*
X136250Y-26496D03*
X135750Y-27246D03*
X135250Y-26496D03*
X134750Y-27246D03*
X134250Y-26496D03*
X133750Y-27246D03*
X133250Y-26496D03*
X132750Y-27246D03*
X132250Y-26496D03*
X131750Y-27246D03*
X131250Y-26496D03*
X130750Y-27246D03*
X130250Y-26496D03*
X129750Y-27246D03*
X129250Y-26496D03*
X128750Y-27246D03*
X128250Y-26496D03*
X127750Y-27246D03*
X127250Y-26496D03*
X126750Y-27246D03*
X126250Y-26496D03*
X125750Y-27246D03*
X125250Y-26496D03*
X124750Y-27246D03*
X124250Y-26496D03*
X123750Y-27246D03*
X123250Y-26496D03*
X122750Y-27246D03*
X122250Y-26496D03*
X121750Y-27246D03*
X121250Y-26496D03*
G54D13*
X135750Y-47683D03*
X135375Y-46817D03*
X136125Y-46817D03*
G54D14*
X137750Y-45375D03*
X137750Y-46125D03*
G54D15*
X136125Y-44250D03*
X135375Y-44250D03*
G54D16*
X24370Y-28000D03*
X22500Y-28000D03*
X20630Y-28000D03*
G54D17*
X37669Y-57091D03*
X36161Y-55825D03*
X123967Y-53046D03*
X125232Y-54553D03*
X68726Y-37581D03*
X68384Y-35642D03*
X108947Y-40107D03*
X110652Y-41092D03*
X134063Y-70375D03*
X134736Y-72224D03*
X90130Y-33329D03*
X92069Y-33670D03*
X87334Y-36886D03*
X87676Y-34948D03*
X51477Y-44598D03*
X50493Y-42893D03*
X137500Y-90015D03*
X137500Y-91984D03*
X134036Y-109975D03*
X133363Y-111824D03*
X30335Y-110204D03*
X28485Y-110877D03*
X26419Y-92000D03*
X24451Y-92000D03*
X28967Y-73553D03*
X27117Y-72880D03*
X51147Y-40292D03*
X52852Y-39307D03*
X35867Y-53053D03*
X37132Y-51546D03*
X25963Y-70124D03*
X26636Y-68275D03*
X22500Y-89884D03*
X22500Y-87915D03*
X25936Y-109524D03*
X25263Y-107675D03*
X129664Y-69795D03*
X131514Y-69122D03*
X133579Y-88000D03*
X135548Y-88000D03*
X70030Y-33270D03*
X71969Y-32929D03*
X119759Y-54027D03*
X121266Y-52761D03*
X131032Y-106446D03*
X132882Y-107119D03*
X105057Y-42598D03*
X106042Y-40893D03*
G54D18*
X135064Y-90000D03*
G54D19*
X134064Y-90000D03*
G54D18*
X52467Y-42313D03*
G54D19*
X52967Y-43179D03*
G54D18*
X70438Y-35772D03*
G54D19*
X70612Y-36757D03*
G54D18*
X89561Y-35772D03*
G54D19*
X89387Y-36757D03*
G54D18*
X37818Y-54605D03*
G54D19*
X38584Y-55248D03*
G54D18*
X28256Y-108833D03*
G54D19*
X29196Y-108491D03*
G54D18*
X131743Y-108833D03*
G54D19*
X130803Y-108491D03*
G54D18*
X131743Y-71166D03*
G54D19*
X130803Y-71508D03*
G54D18*
X122181Y-54605D03*
G54D19*
X121415Y-55248D03*
G54D18*
X28256Y-71166D03*
G54D19*
X29196Y-71508D03*
G54D18*
X107532Y-42313D03*
G54D19*
X107032Y-43179D03*
G54D18*
X24935Y-90000D03*
G54D19*
X25935Y-90000D03*
G54D18*
X99407Y-42385D03*
G54D19*
X100273Y-42885D03*
X101139Y-43385D03*
X102005Y-43885D03*
X102871Y-44385D03*
X103737Y-44885D03*
X104603Y-45385D03*
X105469Y-45885D03*
X106335Y-46385D03*
X107201Y-46885D03*
X108067Y-47385D03*
X108933Y-47885D03*
X109799Y-48385D03*
X110665Y-48885D03*
X111531Y-49385D03*
G54D18*
X130261Y-100844D03*
G54D19*
X129919Y-101784D03*
X129577Y-102723D03*
X129235Y-103663D03*
X128893Y-104603D03*
X128551Y-105543D03*
X128209Y-106482D03*
X127867Y-107422D03*
X127525Y-108362D03*
X127183Y-109301D03*
X126841Y-110241D03*
X126499Y-111181D03*
X126157Y-112120D03*
X125815Y-113060D03*
X125473Y-114000D03*
G54D18*
X130939Y-83000D03*
G54D19*
X130939Y-84000D03*
X130939Y-85000D03*
X130939Y-86000D03*
X130939Y-87000D03*
X130939Y-88000D03*
X130939Y-89000D03*
X130939Y-90000D03*
X130939Y-91000D03*
X130939Y-92000D03*
X130939Y-93000D03*
X130939Y-94000D03*
X130939Y-95000D03*
X130939Y-96000D03*
X130939Y-97000D03*
G54D18*
X125473Y-65999D03*
G54D19*
X125815Y-66939D03*
X126157Y-67879D03*
X126499Y-68818D03*
X126841Y-69758D03*
X127183Y-70698D03*
X127525Y-71637D03*
X127867Y-72577D03*
X128209Y-73517D03*
X128551Y-74456D03*
X128893Y-75396D03*
X129235Y-76336D03*
X129577Y-77276D03*
X129919Y-78215D03*
X130261Y-79155D03*
G54D18*
X114522Y-51894D03*
G54D19*
X115164Y-52660D03*
X115807Y-53426D03*
X116450Y-54192D03*
X117093Y-54958D03*
X117736Y-55724D03*
X118378Y-56490D03*
X119021Y-57256D03*
X119664Y-58022D03*
X120307Y-58788D03*
X120950Y-59554D03*
X121592Y-60320D03*
X122235Y-61086D03*
X122878Y-61852D03*
X123521Y-62619D03*
G54D18*
X81952Y-38619D03*
G54D19*
X82936Y-38792D03*
X83921Y-38966D03*
X84906Y-39140D03*
X85891Y-39313D03*
X86876Y-39487D03*
X87860Y-39660D03*
X88845Y-39834D03*
X89830Y-40008D03*
X90815Y-40181D03*
X91800Y-40355D03*
X92784Y-40529D03*
X93769Y-40702D03*
X94754Y-40876D03*
X95739Y-41050D03*
G54D18*
X64260Y-41050D03*
G54D19*
X65245Y-40876D03*
X66230Y-40702D03*
X67215Y-40529D03*
X68199Y-40355D03*
X69184Y-40181D03*
X70169Y-40008D03*
X71154Y-39834D03*
X72139Y-39660D03*
X73123Y-39487D03*
X74108Y-39313D03*
X75093Y-39140D03*
X76078Y-38966D03*
X77063Y-38792D03*
X78047Y-38619D03*
G54D18*
X48468Y-49385D03*
G54D19*
X49334Y-48885D03*
X50200Y-48385D03*
X51066Y-47885D03*
X51932Y-47385D03*
X52798Y-46885D03*
X53664Y-46385D03*
X54530Y-45885D03*
X55396Y-45385D03*
X56262Y-44885D03*
X57128Y-44385D03*
X57994Y-43885D03*
X58860Y-43385D03*
X59726Y-42885D03*
X60592Y-42385D03*
G54D18*
X36478Y-62619D03*
G54D19*
X37121Y-61852D03*
X37764Y-61086D03*
X38407Y-60320D03*
X39049Y-59554D03*
X39692Y-58788D03*
X40335Y-58022D03*
X40978Y-57256D03*
X41621Y-56490D03*
X42263Y-55724D03*
X42906Y-54958D03*
X43549Y-54192D03*
X44192Y-53426D03*
X44835Y-52660D03*
X45477Y-51894D03*
G54D18*
X29738Y-79155D03*
G54D19*
X30080Y-78215D03*
X30422Y-77276D03*
X30764Y-76336D03*
X31106Y-75396D03*
X31448Y-74456D03*
X31790Y-73517D03*
X32132Y-72577D03*
X32474Y-71637D03*
X32816Y-70698D03*
X33158Y-69758D03*
X33500Y-68818D03*
X33842Y-67879D03*
X34184Y-66939D03*
X34526Y-65999D03*
G54D18*
X29060Y-97000D03*
G54D19*
X29060Y-96000D03*
X29060Y-95000D03*
X29060Y-94000D03*
X29060Y-93000D03*
X29060Y-92000D03*
X29060Y-91000D03*
X29060Y-90000D03*
X29060Y-89000D03*
X29060Y-88000D03*
X29060Y-87000D03*
X29060Y-86000D03*
X29060Y-85000D03*
X29060Y-84000D03*
X29060Y-83000D03*
G54D18*
X34526Y-114000D03*
G54D19*
X34184Y-113060D03*
X33842Y-112120D03*
X33500Y-111181D03*
X33158Y-110241D03*
X32816Y-109301D03*
X32474Y-108362D03*
X32132Y-107422D03*
X31790Y-106482D03*
X31448Y-105543D03*
X31106Y-104603D03*
X30764Y-103663D03*
X30422Y-102723D03*
X30080Y-101784D03*
X29738Y-100844D03*
G54D20*
X32500Y-26180D03*
G54D21*
X32500Y-27360D03*
G54D22*
X32500Y-29720D03*
G54D21*
X30730Y-26970D03*
X34270Y-26970D03*
G54D16*
X80000Y-30935D03*
X80000Y-28935D03*
X21832Y-100256D03*
X19863Y-100603D03*
X21832Y-79743D03*
X19863Y-79396D03*
X28848Y-60467D03*
X27116Y-59467D03*
X42034Y-44754D03*
X40748Y-43222D03*
X59798Y-34497D03*
X59114Y-32618D03*
G54D23*
X30051Y-69159D03*
X29111Y-68817D03*
X28341Y-106141D03*
X27401Y-106484D03*
X25935Y-87500D03*
X24935Y-87500D03*
X131658Y-73858D03*
X132598Y-73515D03*
X40191Y-53333D03*
X39425Y-52690D03*
X55133Y-41929D03*
X54633Y-41063D03*
X73073Y-36322D03*
X72900Y-35338D03*
X91850Y-37191D03*
X92023Y-36206D03*
X129948Y-110840D03*
X130888Y-111182D03*
X109197Y-44429D03*
X109697Y-43563D03*
X134064Y-92500D03*
X135064Y-92500D03*
X123022Y-57163D03*
X123788Y-56520D03*
G54D24*
X40523Y-26500D03*
X43476Y-26500D03*
G54D16*
X100201Y-34497D03*
X100885Y-32618D03*
X117965Y-44754D03*
X119251Y-43222D03*
X131151Y-60467D03*
X132883Y-59467D03*
X138167Y-79743D03*
X140136Y-79396D03*
X138167Y-100256D03*
X140136Y-100603D03*
G54D25*
X30000Y-36000D03*
X130000Y-36000D03*
X130000Y-116000D03*
X30000Y-116000D03*
G54D26*
X143600Y-26400D03*
X16400Y-117500D03*
X143600Y-117500D03*
X16400Y-26400D03*
G54D23*
X18750Y-82750D03*
X17750Y-82750D03*
X140500Y-91000D03*
X141500Y-91000D03*
X95000Y-29000D03*
X95000Y-28000D03*
X18750Y-88750D03*
X17750Y-88750D03*
X140500Y-93000D03*
X141500Y-93000D03*
X97000Y-29000D03*
X97000Y-28000D03*
X18750Y-86750D03*
X17750Y-86750D03*
X140500Y-95000D03*
X141500Y-95000D03*
X99000Y-29000D03*
X99000Y-28000D03*
X18750Y-84750D03*
X17750Y-84750D03*
X140500Y-97000D03*
X141500Y-97000D03*
X101000Y-29000D03*
X101000Y-28000D03*
X18750Y-90750D03*
X17750Y-90750D03*
X140500Y-83000D03*
X141500Y-83000D03*
X87000Y-29000D03*
X87000Y-28000D03*
X18750Y-96750D03*
X17750Y-96750D03*
X140500Y-85000D03*
X141500Y-85000D03*
X89000Y-29000D03*
X89000Y-28000D03*
X18750Y-94750D03*
X17750Y-94750D03*
X140500Y-87000D03*
X141500Y-87000D03*
X91000Y-29000D03*
X91000Y-28000D03*
X18750Y-92750D03*
X17750Y-92750D03*
X140500Y-89000D03*
X141500Y-89000D03*
X93000Y-29000D03*
X93000Y-28000D03*
G54D27*
X98168Y-40284D03*
X97842Y-39864D03*
X97343Y-39487D03*
X96765Y-39427D03*
X96816Y-40078D03*
X128344Y-44140D03*
X111531Y-45284D03*
X115951Y-30003D03*
X121462Y-45854D03*
X124897Y-45713D03*
X95410Y-41935D03*
X29759Y-83596D03*
X88320Y-35267D03*
X37183Y-68305D03*
X94205Y-37312D03*
X125091Y-32913D03*
X125173Y-33904D03*
X88393Y-33956D03*
X123447Y-43806D03*
X121466Y-44683D03*
X82243Y-40775D03*
X66126Y-39155D03*
X29919Y-82959D03*
X60184Y-43826D03*
X100414Y-43826D03*
X104467Y-42174D03*
X39957Y-59617D03*
X120808Y-38859D03*
X72917Y-38514D03*
X127496Y-31166D03*
G54D28*
X26090Y-29720D02*
X24370Y-28000D01*
X32500Y-29720D02*
X26090Y-29720D01*
X29060Y-97000D02*
X28360Y-97000D01*
X29902Y-105054D02*
X25104Y-100256D01*
X29902Y-109242D02*
X29902Y-105054D01*
X29621Y-109524D02*
X29902Y-109242D01*
X29621Y-110477D02*
X29621Y-109524D01*
X33144Y-114000D02*
X29621Y-110477D01*
X34526Y-114000D02*
X33144Y-114000D01*
X28360Y-97000D02*
X25104Y-100256D01*
X25104Y-100256D02*
X21832Y-100256D01*
X114522Y-51894D02*
X115222Y-51894D01*
X36478Y-62619D02*
X35778Y-62619D01*
X29738Y-79155D02*
X29038Y-79155D01*
X21832Y-79743D02*
X28450Y-79743D01*
X28450Y-79743D02*
X29038Y-79155D01*
X30558Y-81852D02*
X28450Y-79743D01*
X30558Y-95502D02*
X30558Y-81852D01*
X29060Y-97000D02*
X30558Y-95502D01*
X130939Y-83000D02*
X130939Y-82299D01*
X134765Y-62050D02*
X133182Y-60467D01*
X134765Y-70665D02*
X134765Y-62050D01*
X133093Y-72337D02*
X134765Y-70665D01*
X132218Y-72337D02*
X133093Y-72337D01*
X130974Y-73581D02*
X132218Y-72337D01*
X130974Y-74244D02*
X130974Y-73581D01*
X131325Y-74594D02*
X130974Y-74244D01*
X131325Y-81914D02*
X131325Y-74594D01*
X130939Y-82299D02*
X131325Y-81914D01*
X133796Y-59853D02*
X133182Y-60467D01*
X133796Y-59101D02*
X133796Y-59853D01*
X126589Y-51894D02*
X133796Y-59101D01*
X115222Y-51894D02*
X126589Y-51894D01*
X133182Y-60467D02*
X131151Y-60467D01*
X99407Y-42385D02*
X98707Y-42385D01*
X81952Y-38619D02*
X81952Y-39319D01*
X63360Y-30935D02*
X59798Y-34497D01*
X80000Y-30935D02*
X63360Y-30935D01*
X26224Y-31724D02*
X22500Y-28000D01*
X30527Y-31724D02*
X26224Y-31724D01*
X42795Y-43993D02*
X30527Y-31724D01*
X52290Y-34497D02*
X42795Y-43993D01*
X59798Y-34497D02*
X52290Y-34497D01*
X42795Y-43993D02*
X42034Y-44754D01*
X33627Y-60136D02*
X33627Y-60467D01*
X37780Y-55983D02*
X33627Y-60136D01*
X39266Y-55983D02*
X37780Y-55983D01*
X45863Y-49385D02*
X39266Y-55983D01*
X48468Y-49385D02*
X45863Y-49385D01*
X28848Y-60467D02*
X33627Y-60467D01*
X33627Y-60467D02*
X35778Y-62619D01*
X98568Y-42524D02*
X98707Y-42385D01*
X85157Y-42524D02*
X98568Y-42524D01*
X81952Y-39319D02*
X85157Y-42524D01*
G54D29*
X53664Y-46657D02*
X53664Y-46385D01*
X46425Y-53895D02*
X53664Y-46657D01*
X44001Y-53895D02*
X46425Y-53895D01*
X43840Y-53734D02*
X44001Y-53895D01*
X43366Y-53734D02*
X43840Y-53734D01*
X40335Y-56765D02*
X43366Y-53734D01*
X40335Y-58022D02*
X40335Y-56765D01*
X69192Y-40984D02*
X70169Y-40008D01*
X67034Y-40984D02*
X69192Y-40984D01*
X66690Y-40641D02*
X67034Y-40984D01*
X66690Y-40500D02*
X66690Y-40641D01*
X66437Y-40246D02*
X66690Y-40500D01*
X59245Y-40246D02*
X66437Y-40246D01*
X53664Y-45827D02*
X59245Y-40246D01*
X53664Y-46385D02*
X53664Y-45827D01*
X23310Y-96750D02*
X18750Y-96750D01*
X29060Y-91000D02*
X23310Y-96750D01*
X133209Y-89000D02*
X130939Y-89000D01*
X139209Y-83000D02*
X133209Y-89000D01*
X140500Y-83000D02*
X139209Y-83000D01*
X87057Y-38857D02*
X87860Y-39660D01*
X86388Y-38857D02*
X87057Y-38857D01*
X84888Y-37357D02*
X86388Y-38857D01*
X76228Y-37357D02*
X84888Y-37357D01*
X74569Y-39017D02*
X76228Y-37357D01*
X74569Y-39494D02*
X74569Y-39017D01*
X73746Y-40316D02*
X74569Y-39494D01*
X70477Y-40316D02*
X73746Y-40316D01*
X70169Y-40008D02*
X70477Y-40316D01*
X98049Y-40403D02*
X98168Y-40284D01*
X96681Y-40403D02*
X98049Y-40403D01*
X96276Y-39998D02*
X96681Y-40403D01*
X92679Y-39998D02*
X96276Y-39998D01*
X92260Y-40417D02*
X92679Y-39998D01*
X92260Y-40546D02*
X92260Y-40417D01*
X91737Y-41069D02*
X92260Y-40546D01*
X89145Y-41069D02*
X91737Y-41069D01*
X87860Y-39784D02*
X89145Y-41069D01*
X87860Y-39660D02*
X87860Y-39784D01*
X24310Y-94750D02*
X29060Y-90000D01*
X18750Y-94750D02*
X24310Y-94750D01*
X54530Y-46447D02*
X54530Y-45885D01*
X43721Y-57256D02*
X54530Y-46447D01*
X40978Y-57256D02*
X43721Y-57256D01*
X137492Y-85000D02*
X140500Y-85000D01*
X132492Y-90000D02*
X137492Y-85000D01*
X130939Y-90000D02*
X132492Y-90000D01*
X97842Y-39864D02*
X97842Y-39864D01*
X97261Y-39864D02*
X97842Y-39864D01*
X97149Y-39753D02*
X97261Y-39864D01*
X96630Y-39753D02*
X97149Y-39753D01*
X96462Y-39585D02*
X96630Y-39753D01*
X91907Y-39585D02*
X96462Y-39585D01*
X91339Y-40153D02*
X91907Y-39585D01*
X91339Y-40319D02*
X91339Y-40153D01*
X90996Y-40662D02*
X91339Y-40319D01*
X89546Y-40662D02*
X90996Y-40662D01*
X88845Y-39961D02*
X89546Y-40662D01*
X88845Y-39834D02*
X88845Y-39961D01*
X71435Y-40116D02*
X71154Y-39834D01*
X73131Y-40116D02*
X71435Y-40116D01*
X73591Y-39656D02*
X73131Y-40116D01*
X73591Y-39184D02*
X73591Y-39656D01*
X75827Y-36948D02*
X73591Y-39184D01*
X85387Y-36948D02*
X75827Y-36948D01*
X86769Y-38330D02*
X85387Y-36948D01*
X87460Y-38330D02*
X86769Y-38330D01*
X88845Y-39715D02*
X87460Y-38330D01*
X88845Y-39834D02*
X88845Y-39715D01*
X24742Y-92750D02*
X18750Y-92750D01*
X28492Y-89000D02*
X24742Y-92750D01*
X29060Y-89000D02*
X28492Y-89000D01*
X140500Y-87000D02*
X140114Y-87385D01*
X135400Y-87385D02*
X140114Y-87385D01*
X131785Y-91000D02*
X135400Y-87385D01*
X130939Y-91000D02*
X131785Y-91000D01*
X128014Y-107872D02*
X127525Y-108362D01*
X131477Y-107872D02*
X128014Y-107872D01*
X140940Y-98409D02*
X131477Y-107872D01*
X140940Y-88210D02*
X140940Y-98409D01*
X140114Y-87385D02*
X140940Y-88210D01*
X89830Y-39511D02*
X89830Y-40008D01*
X90248Y-39092D02*
X89830Y-39511D01*
X96949Y-39092D02*
X90248Y-39092D01*
X97343Y-39487D02*
X96949Y-39092D01*
X72231Y-39660D02*
X72139Y-39660D01*
X73308Y-38583D02*
X72231Y-39660D01*
X73461Y-38583D02*
X73308Y-38583D01*
X75497Y-36548D02*
X73461Y-38583D01*
X85552Y-36548D02*
X75497Y-36548D01*
X86935Y-37930D02*
X85552Y-36548D01*
X87740Y-37930D02*
X86935Y-37930D01*
X88307Y-38497D02*
X87740Y-37930D01*
X88816Y-38497D02*
X88307Y-38497D01*
X89830Y-39511D02*
X88816Y-38497D01*
X26310Y-90750D02*
X18750Y-90750D01*
X29060Y-88000D02*
X26310Y-90750D01*
X134356Y-89000D02*
X140500Y-89000D01*
X131356Y-92000D02*
X134356Y-89000D01*
X130939Y-92000D02*
X131356Y-92000D01*
X96694Y-39357D02*
X96765Y-39427D01*
X91640Y-39357D02*
X96694Y-39357D01*
X90815Y-40181D02*
X91640Y-39357D01*
X73123Y-39368D02*
X73123Y-39487D01*
X75744Y-36748D02*
X73123Y-39368D01*
X85469Y-36748D02*
X75744Y-36748D01*
X86852Y-38130D02*
X85469Y-36748D01*
X87657Y-38130D02*
X86852Y-38130D01*
X88224Y-38697D02*
X87657Y-38130D01*
X88362Y-38697D02*
X88224Y-38697D01*
X89334Y-39668D02*
X88362Y-38697D01*
X89334Y-40148D02*
X89334Y-39668D01*
X89647Y-40462D02*
X89334Y-40148D01*
X90534Y-40462D02*
X89647Y-40462D01*
X90815Y-40181D02*
X90534Y-40462D01*
X96700Y-25299D02*
X93000Y-29000D01*
X135053Y-25299D02*
X96700Y-25299D01*
X136250Y-26496D02*
X135053Y-25299D01*
X20500Y-87000D02*
X18750Y-88750D01*
X29060Y-87000D02*
X20500Y-87000D01*
X121522Y-59554D02*
X120950Y-59554D01*
X124191Y-62224D02*
X121522Y-59554D01*
X124191Y-70769D02*
X124191Y-62224D01*
X128818Y-75396D02*
X124191Y-70769D01*
X128893Y-75396D02*
X128818Y-75396D01*
X121220Y-44140D02*
X128344Y-44140D01*
X121184Y-44104D02*
X121220Y-44140D01*
X111349Y-44104D02*
X121184Y-44104D01*
X108067Y-47385D02*
X111349Y-44104D01*
X132939Y-91000D02*
X130939Y-93000D01*
X140500Y-91000D02*
X132939Y-91000D01*
X92370Y-39785D02*
X91800Y-40355D01*
X96380Y-39785D02*
X92370Y-39785D01*
X96672Y-40078D02*
X96380Y-39785D01*
X96816Y-40078D02*
X96672Y-40078D01*
X91286Y-40869D02*
X91800Y-40355D01*
X89241Y-40869D02*
X91286Y-40869D01*
X88319Y-39947D02*
X89241Y-40869D01*
X88319Y-39483D02*
X88319Y-39947D01*
X87367Y-38530D02*
X88319Y-39483D01*
X86545Y-38530D02*
X87367Y-38530D01*
X85162Y-37148D02*
X86545Y-38530D01*
X76148Y-37148D02*
X85162Y-37148D01*
X74108Y-39188D02*
X76148Y-37148D01*
X74108Y-39313D02*
X74108Y-39188D01*
X19500Y-86000D02*
X18750Y-86750D01*
X29060Y-86000D02*
X19500Y-86000D01*
X55889Y-43885D02*
X57994Y-43885D01*
X54064Y-45710D02*
X55889Y-43885D01*
X54064Y-46149D02*
X54064Y-45710D01*
X54117Y-46201D02*
X54064Y-46149D01*
X54117Y-46577D02*
X54117Y-46201D01*
X46502Y-54192D02*
X54117Y-46577D01*
X43549Y-54192D02*
X46502Y-54192D01*
X75093Y-39271D02*
X75093Y-39140D01*
X72834Y-41530D02*
X75093Y-39271D01*
X60072Y-41530D02*
X72834Y-41530D01*
X57994Y-43608D02*
X60072Y-41530D01*
X57994Y-43885D02*
X57994Y-43608D01*
X139500Y-94000D02*
X140500Y-93000D01*
X130939Y-94000D02*
X139500Y-94000D01*
X129811Y-92871D02*
X130939Y-94000D01*
X129811Y-78968D02*
X129811Y-92871D01*
X130389Y-78390D02*
X129811Y-78968D01*
X130389Y-77434D02*
X130389Y-78390D01*
X129291Y-76336D02*
X130389Y-77434D01*
X129235Y-76336D02*
X129291Y-76336D01*
X92044Y-41269D02*
X92784Y-40529D01*
X88017Y-41269D02*
X92044Y-41269D01*
X86408Y-39660D02*
X88017Y-41269D01*
X86408Y-39176D02*
X86408Y-39660D01*
X84790Y-37557D02*
X86408Y-39176D01*
X76675Y-37557D02*
X84790Y-37557D01*
X75093Y-39140D02*
X76675Y-37557D01*
X97482Y-28517D02*
X97000Y-29000D01*
X101884Y-28517D02*
X97482Y-28517D01*
X104902Y-25499D02*
X101884Y-28517D01*
X134253Y-25499D02*
X104902Y-25499D01*
X135250Y-26496D02*
X134253Y-25499D01*
X28810Y-84750D02*
X18750Y-84750D01*
X29060Y-85000D02*
X28810Y-84750D01*
X140500Y-95000D02*
X130939Y-95000D01*
X58860Y-43089D02*
X58860Y-43385D01*
X60143Y-41806D02*
X58860Y-43089D01*
X73238Y-41806D02*
X60143Y-41806D01*
X76078Y-38966D02*
X73238Y-41806D01*
X129531Y-77276D02*
X129577Y-77276D01*
X123991Y-71736D02*
X129531Y-77276D01*
X123991Y-62306D02*
X123991Y-71736D01*
X122771Y-61086D02*
X123991Y-62306D01*
X122235Y-61086D02*
X122771Y-61086D01*
X94048Y-40424D02*
X93769Y-40702D01*
X96054Y-40424D02*
X94048Y-40424D01*
X96451Y-40821D02*
X96054Y-40424D01*
X99718Y-40821D02*
X96451Y-40821D01*
X101078Y-39460D02*
X99718Y-40821D01*
X122609Y-39460D02*
X101078Y-39460D01*
X133250Y-28819D02*
X122609Y-39460D01*
X133250Y-28556D02*
X133250Y-28819D01*
X133820Y-27985D02*
X133250Y-28556D01*
X133820Y-27877D02*
X133820Y-27985D01*
X134452Y-27246D02*
X133820Y-27877D01*
X134750Y-27246D02*
X134452Y-27246D01*
X92803Y-41669D02*
X93769Y-40702D01*
X86793Y-41669D02*
X92803Y-41669D01*
X84381Y-39257D02*
X86793Y-41669D01*
X84381Y-38789D02*
X84381Y-39257D01*
X83350Y-37758D02*
X84381Y-38789D01*
X77286Y-37758D02*
X83350Y-37758D01*
X76078Y-38966D02*
X77286Y-37758D01*
X20000Y-84000D02*
X18750Y-82750D01*
X29060Y-84000D02*
X20000Y-84000D01*
X72970Y-42885D02*
X59726Y-42885D01*
X77063Y-38792D02*
X72970Y-42885D01*
X125692Y-112938D02*
X125815Y-113060D01*
X125692Y-107762D02*
X125692Y-112938D01*
X128392Y-105062D02*
X125692Y-107762D01*
X129077Y-105062D02*
X128392Y-105062D01*
X129700Y-104439D02*
X129077Y-105062D01*
X129700Y-103492D02*
X129700Y-104439D01*
X129123Y-102915D02*
X129700Y-103492D01*
X129123Y-97815D02*
X129123Y-102915D01*
X130939Y-96000D02*
X129123Y-97815D01*
X122878Y-71235D02*
X129858Y-78215D01*
X122878Y-61852D02*
X122878Y-71235D01*
X129858Y-78215D02*
X129919Y-78215D01*
X131939Y-97000D02*
X130939Y-96000D01*
X140500Y-97000D02*
X131939Y-97000D01*
X129588Y-94649D02*
X130939Y-96000D01*
X129588Y-78485D02*
X129588Y-94649D01*
X129858Y-78215D02*
X129588Y-78485D01*
X93761Y-41869D02*
X94754Y-40876D01*
X86181Y-41869D02*
X93761Y-41869D01*
X83432Y-39121D02*
X86181Y-41869D01*
X83432Y-38641D02*
X83432Y-39121D01*
X82755Y-37964D02*
X83432Y-38641D01*
X77891Y-37964D02*
X82755Y-37964D01*
X77063Y-38792D02*
X77891Y-37964D01*
X111531Y-49385D02*
X111531Y-45284D01*
X94719Y-42069D02*
X95739Y-41050D01*
X85577Y-42069D02*
X94719Y-42069D01*
X82470Y-38963D02*
X85577Y-42069D01*
X82470Y-38303D02*
X82470Y-38963D01*
X82331Y-38164D02*
X82470Y-38303D01*
X78502Y-38164D02*
X82331Y-38164D01*
X78047Y-38619D02*
X78502Y-38164D01*
X18323Y-100735D02*
X25263Y-107675D01*
X18323Y-69442D02*
X18323Y-100735D01*
X49803Y-37962D02*
X18323Y-69442D01*
X58134Y-37962D02*
X49803Y-37962D01*
X64046Y-32050D02*
X58134Y-37962D01*
X79920Y-32050D02*
X64046Y-32050D01*
X82371Y-29599D02*
X79920Y-32050D01*
X101462Y-29599D02*
X82371Y-29599D01*
X105362Y-25699D02*
X101462Y-29599D01*
X129453Y-25699D02*
X105362Y-25699D01*
X130250Y-26496D02*
X129453Y-25699D01*
X126040Y-30003D02*
X115951Y-30003D01*
X127179Y-28864D02*
X126040Y-30003D01*
X127179Y-28756D02*
X127179Y-28864D01*
X127750Y-28185D02*
X127179Y-28756D01*
X127750Y-27793D02*
X127750Y-28185D01*
X128179Y-27364D02*
X127750Y-27793D01*
X128179Y-27256D02*
X128179Y-27364D01*
X128939Y-26496D02*
X128179Y-27256D01*
X129250Y-26496D02*
X128939Y-26496D01*
X135218Y-59611D02*
X121462Y-45854D01*
X135218Y-71077D02*
X135218Y-59611D01*
X134287Y-72008D02*
X135218Y-71077D01*
X134287Y-72528D02*
X134287Y-72008D01*
X141933Y-80174D02*
X134287Y-72528D01*
X141933Y-103254D02*
X141933Y-80174D01*
X133363Y-111824D02*
X141933Y-103254D01*
X26636Y-61412D02*
X26636Y-68275D01*
X49607Y-38441D02*
X26636Y-61412D01*
X57965Y-38441D02*
X49607Y-38441D01*
X64068Y-32337D02*
X57965Y-38441D01*
X87828Y-32337D02*
X64068Y-32337D01*
X90166Y-29999D02*
X87828Y-32337D01*
X101345Y-29999D02*
X90166Y-29999D01*
X105445Y-25899D02*
X101345Y-29999D01*
X127653Y-25899D02*
X105445Y-25899D01*
X128250Y-26496D02*
X127653Y-25899D01*
X126939Y-26496D02*
X127250Y-26496D01*
X126179Y-27256D02*
X126939Y-26496D01*
X126179Y-27364D02*
X126179Y-27256D01*
X125750Y-27793D02*
X126179Y-27364D01*
X125750Y-28185D02*
X125750Y-27793D01*
X125179Y-28756D02*
X125750Y-28185D01*
X125179Y-28864D02*
X125179Y-28756D01*
X124665Y-29377D02*
X125179Y-28864D01*
X115465Y-29377D02*
X124665Y-29377D01*
X111478Y-33364D02*
X115465Y-29377D01*
X95898Y-33364D02*
X111478Y-33364D01*
X94727Y-34536D02*
X95898Y-33364D01*
X88229Y-34536D02*
X94727Y-34536D01*
X87990Y-34297D02*
X88229Y-34536D01*
X76050Y-34297D02*
X87990Y-34297D01*
X73079Y-37268D02*
X76050Y-34297D01*
X71166Y-37268D02*
X73079Y-37268D01*
X70069Y-38365D02*
X71166Y-37268D01*
X59298Y-38365D02*
X70069Y-38365D01*
X49228Y-48435D02*
X59298Y-38365D01*
X40243Y-48435D02*
X49228Y-48435D01*
X37132Y-51546D02*
X40243Y-48435D01*
X125939Y-26496D02*
X126250Y-26496D01*
X125179Y-27256D02*
X125939Y-26496D01*
X125179Y-27364D02*
X125179Y-27256D01*
X124750Y-27793D02*
X125179Y-27364D01*
X124750Y-28185D02*
X124750Y-27793D01*
X124179Y-28756D02*
X124750Y-28185D01*
X124179Y-28864D02*
X124179Y-28756D01*
X123865Y-29177D02*
X124179Y-28864D01*
X106156Y-29177D02*
X123865Y-29177D01*
X104334Y-31000D02*
X106156Y-29177D01*
X96667Y-31000D02*
X104334Y-31000D01*
X93333Y-34334D02*
X96667Y-31000D01*
X88310Y-34334D02*
X93333Y-34334D01*
X88073Y-34096D02*
X88310Y-34334D01*
X75912Y-34096D02*
X88073Y-34096D01*
X73197Y-36811D02*
X75912Y-34096D01*
X71284Y-36811D02*
X73197Y-36811D01*
X69934Y-38162D02*
X71284Y-36811D01*
X58754Y-38162D02*
X69934Y-38162D01*
X57608Y-39307D02*
X58754Y-38162D01*
X52852Y-39307D02*
X57608Y-39307D01*
X88473Y-32929D02*
X71969Y-32929D01*
X91102Y-30299D02*
X88473Y-32929D01*
X101397Y-30299D02*
X91102Y-30299D01*
X105595Y-26101D02*
X101397Y-30299D01*
X124855Y-26101D02*
X105595Y-26101D01*
X125250Y-26496D02*
X124855Y-26101D01*
X95222Y-30517D02*
X92069Y-33670D01*
X95222Y-30517D02*
X95222Y-30517D01*
X101683Y-30517D02*
X95222Y-30517D01*
X104057Y-28143D02*
X101683Y-30517D01*
X120149Y-28143D02*
X104057Y-28143D01*
X121435Y-26857D02*
X120149Y-28143D01*
X121907Y-26857D02*
X121435Y-26857D01*
X121937Y-26887D02*
X121907Y-26857D01*
X122404Y-26887D02*
X121937Y-26887D01*
X122435Y-26857D02*
X122404Y-26887D01*
X122907Y-26857D02*
X122435Y-26857D01*
X122950Y-26900D02*
X122907Y-26857D01*
X123535Y-26900D02*
X122950Y-26900D01*
X123939Y-26496D02*
X123535Y-26900D01*
X124250Y-26496D02*
X123939Y-26496D01*
X135418Y-56235D02*
X124897Y-45713D01*
X135418Y-71542D02*
X135418Y-56235D01*
X134736Y-72224D02*
X135418Y-71542D01*
X99209Y-41935D02*
X95410Y-41935D01*
X101484Y-39660D02*
X99209Y-41935D01*
X123407Y-39660D02*
X101484Y-39660D01*
X134250Y-28818D02*
X123407Y-39660D01*
X134250Y-28543D02*
X134250Y-28818D01*
X134679Y-28114D02*
X134250Y-28543D01*
X134679Y-28006D02*
X134679Y-28114D01*
X135152Y-27532D02*
X134679Y-28006D01*
X135152Y-27091D02*
X135152Y-27532D01*
X134916Y-26854D02*
X135152Y-27091D01*
X134595Y-26854D02*
X134916Y-26854D01*
X134564Y-26885D02*
X134595Y-26854D01*
X134092Y-26885D02*
X134564Y-26885D01*
X134062Y-26854D02*
X134092Y-26885D01*
X133595Y-26854D02*
X134062Y-26854D01*
X133564Y-26885D02*
X133595Y-26854D01*
X133092Y-26885D02*
X133564Y-26885D01*
X133062Y-26854D02*
X133092Y-26885D01*
X132595Y-26854D02*
X133062Y-26854D01*
X132564Y-26885D02*
X132595Y-26854D01*
X132092Y-26885D02*
X132564Y-26885D01*
X132049Y-26841D02*
X132092Y-26885D01*
X131560Y-26841D02*
X132049Y-26841D01*
X131156Y-27246D02*
X131560Y-26841D01*
X130750Y-27246D02*
X131156Y-27246D01*
X29759Y-92301D02*
X29060Y-93000D01*
X29759Y-83596D02*
X29759Y-92301D01*
X121787Y-35267D02*
X88320Y-35267D01*
X128250Y-28805D02*
X121787Y-35267D01*
X128250Y-28543D02*
X128250Y-28805D01*
X128850Y-27943D02*
X128250Y-28543D01*
X128850Y-27835D02*
X128850Y-27943D01*
X129439Y-27246D02*
X128850Y-27835D01*
X129750Y-27246D02*
X129439Y-27246D01*
X37183Y-69385D02*
X37183Y-68305D01*
X31172Y-75396D02*
X37183Y-69385D01*
X31106Y-75396D02*
X31172Y-75396D01*
X120025Y-37312D02*
X94205Y-37312D01*
X127697Y-29640D02*
X120025Y-37312D01*
X128410Y-29640D02*
X127697Y-29640D01*
X129250Y-28800D02*
X128410Y-29640D01*
X129250Y-28543D02*
X129250Y-28800D01*
X129679Y-28114D02*
X129250Y-28543D01*
X129679Y-28006D02*
X129679Y-28114D01*
X130152Y-27532D02*
X129679Y-28006D01*
X130152Y-27097D02*
X130152Y-27532D01*
X129896Y-26841D02*
X130152Y-27097D01*
X129560Y-26841D02*
X129896Y-26841D01*
X129156Y-27246D02*
X129560Y-26841D01*
X128750Y-27246D02*
X129156Y-27246D01*
X39312Y-59292D02*
X39050Y-59554D01*
X39843Y-59292D02*
X39312Y-59292D01*
X40156Y-58980D02*
X39843Y-59292D01*
X40156Y-58609D02*
X40156Y-58980D01*
X39862Y-58315D02*
X40156Y-58609D01*
X39862Y-56857D02*
X39862Y-58315D01*
X46413Y-50306D02*
X39862Y-56857D01*
X49679Y-50306D02*
X46413Y-50306D01*
X52401Y-47584D02*
X49679Y-50306D01*
X52401Y-47218D02*
X52401Y-47584D01*
X52330Y-47146D02*
X52401Y-47218D01*
X52330Y-46711D02*
X52330Y-47146D01*
X59078Y-39962D02*
X52330Y-46711D01*
X67164Y-39962D02*
X59078Y-39962D01*
X68162Y-38965D02*
X67164Y-39962D01*
X71441Y-38965D02*
X68162Y-38965D01*
X72623Y-37783D02*
X71441Y-38965D01*
X73130Y-37783D02*
X72623Y-37783D01*
X75165Y-35747D02*
X73130Y-37783D01*
X87439Y-35747D02*
X75165Y-35747D01*
X89328Y-37637D02*
X87439Y-35747D01*
X120367Y-37637D02*
X89328Y-37637D01*
X125091Y-32913D02*
X120367Y-37637D01*
X126750Y-28185D02*
X126750Y-27246D01*
X126179Y-28756D02*
X126750Y-28185D01*
X126179Y-28864D02*
X126179Y-28756D01*
X125400Y-29642D02*
X126179Y-28864D01*
X115583Y-29642D02*
X125400Y-29642D01*
X111596Y-33629D02*
X115583Y-29642D01*
X99327Y-33629D02*
X111596Y-33629D01*
X98209Y-34747D02*
X99327Y-33629D01*
X88157Y-34747D02*
X98209Y-34747D01*
X87907Y-34497D02*
X88157Y-34747D01*
X76133Y-34497D02*
X87907Y-34497D01*
X73047Y-37582D02*
X76133Y-34497D01*
X71654Y-37582D02*
X73047Y-37582D01*
X70672Y-38565D02*
X71654Y-37582D01*
X67955Y-38565D02*
X70672Y-38565D01*
X67039Y-39480D02*
X67955Y-38565D01*
X59277Y-39480D02*
X67039Y-39480D01*
X51932Y-46826D02*
X59277Y-39480D01*
X51932Y-47385D02*
X51932Y-46826D01*
X69189Y-39365D02*
X68199Y-40355D01*
X71606Y-39365D02*
X69189Y-39365D01*
X72789Y-38183D02*
X71606Y-39365D01*
X73295Y-38183D02*
X72789Y-38183D01*
X75331Y-36147D02*
X73295Y-38183D01*
X85845Y-36147D02*
X75331Y-36147D01*
X87157Y-37459D02*
X85845Y-36147D01*
X87885Y-37459D02*
X87157Y-37459D01*
X88464Y-38038D02*
X87885Y-37459D01*
X121039Y-38038D02*
X88464Y-38038D01*
X125173Y-33904D02*
X121039Y-38038D01*
X124439Y-27246D02*
X124750Y-27246D01*
X124035Y-27650D02*
X124439Y-27246D01*
X123450Y-27650D02*
X124035Y-27650D01*
X123407Y-27607D02*
X123450Y-27650D01*
X122935Y-27607D02*
X123407Y-27607D01*
X122904Y-27637D02*
X122935Y-27607D01*
X122437Y-27637D02*
X122904Y-27637D01*
X122407Y-27607D02*
X122437Y-27637D01*
X121935Y-27607D02*
X122407Y-27607D01*
X121904Y-27637D02*
X121935Y-27607D01*
X121437Y-27637D02*
X121904Y-27637D01*
X121407Y-27607D02*
X121437Y-27637D01*
X120968Y-27607D02*
X121407Y-27607D01*
X119844Y-28731D02*
X120968Y-27607D01*
X103752Y-28731D02*
X119844Y-28731D01*
X101683Y-30800D02*
X103752Y-28731D01*
X95848Y-30800D02*
X101683Y-30800D01*
X92514Y-34134D02*
X95848Y-30800D01*
X88570Y-34134D02*
X92514Y-34134D01*
X88393Y-33956D02*
X88570Y-34134D01*
X123349Y-43903D02*
X123447Y-43806D01*
X110895Y-43903D02*
X123349Y-43903D01*
X109884Y-44914D02*
X110895Y-43903D01*
X104391Y-44914D02*
X109884Y-44914D01*
X103967Y-45338D02*
X104391Y-44914D01*
X103550Y-45338D02*
X103967Y-45338D01*
X102871Y-44660D02*
X103550Y-45338D01*
X102871Y-44385D02*
X102871Y-44660D01*
X128428Y-44683D02*
X121466Y-44683D01*
X131011Y-47267D02*
X128428Y-44683D01*
X137272Y-47267D02*
X131011Y-47267D01*
X138175Y-46364D02*
X137272Y-47267D01*
X138175Y-45881D02*
X138175Y-46364D01*
X137993Y-45700D02*
X138175Y-45881D01*
X137750Y-45700D02*
X137993Y-45700D01*
X137750Y-45375D02*
X137750Y-45700D01*
G54D30*
X37764Y-70082D02*
X37764Y-61086D01*
X30570Y-77276D02*
X37764Y-70082D01*
X30422Y-77276D02*
X30570Y-77276D01*
X126364Y-63362D02*
X126364Y-67671D01*
X116427Y-53426D02*
X126364Y-63362D01*
X115807Y-53426D02*
X116427Y-53426D01*
X126364Y-67671D02*
X126157Y-67879D01*
X128281Y-67671D02*
X126364Y-67671D01*
X130185Y-69576D02*
X128281Y-67671D01*
X130185Y-76092D02*
X130185Y-69576D01*
X130800Y-76706D02*
X130185Y-76092D01*
X130800Y-81220D02*
X130800Y-76706D01*
X130414Y-81606D02*
X130800Y-81220D01*
X130414Y-84474D02*
X130414Y-81606D01*
X130939Y-85000D02*
X130414Y-84474D01*
X101117Y-43407D02*
X101117Y-43412D01*
X101139Y-43385D02*
X101117Y-43407D01*
X84879Y-43412D02*
X82243Y-40775D01*
X101117Y-43412D02*
X84879Y-43412D01*
X108852Y-51476D02*
X113994Y-51476D01*
X101117Y-43741D02*
X108852Y-51476D01*
X101117Y-43412D02*
X101117Y-43741D01*
X113994Y-52293D02*
X113994Y-51476D01*
X115127Y-53426D02*
X113994Y-52293D01*
X115807Y-53426D02*
X115127Y-53426D01*
X120168Y-45302D02*
X113994Y-51476D01*
X127259Y-45302D02*
X120168Y-45302D01*
X129639Y-47682D02*
X127259Y-45302D01*
X135750Y-47682D02*
X129639Y-47682D01*
X59030Y-39155D02*
X66126Y-39155D01*
X50200Y-47985D02*
X59030Y-39155D01*
X50200Y-48385D02*
X50200Y-47985D01*
G54D29*
X133439Y-27246D02*
X133750Y-27246D01*
X132679Y-28006D02*
X133439Y-27246D01*
X132679Y-28114D02*
X132679Y-28006D01*
X132250Y-28543D02*
X132679Y-28114D01*
X132250Y-28813D02*
X132250Y-28543D01*
X121802Y-39260D02*
X132250Y-28813D01*
X99668Y-39260D02*
X121802Y-39260D01*
X98307Y-40620D02*
X99668Y-39260D01*
X96534Y-40620D02*
X98307Y-40620D01*
X96121Y-40208D02*
X96534Y-40620D01*
X93610Y-40208D02*
X96121Y-40208D01*
X93309Y-40509D02*
X93610Y-40208D01*
X93309Y-40646D02*
X93309Y-40509D01*
X92486Y-41469D02*
X93309Y-40646D01*
X87235Y-41469D02*
X92486Y-41469D01*
X84906Y-39140D02*
X87235Y-41469D01*
X30096Y-83136D02*
X29919Y-82959D01*
X30096Y-92964D02*
X30096Y-83136D01*
X29060Y-94000D02*
X30096Y-92964D01*
X102756Y-43885D02*
X104467Y-42174D01*
X102005Y-43885D02*
X102756Y-43885D01*
X100414Y-43826D02*
X60184Y-43826D01*
X44981Y-59617D02*
X39957Y-59617D01*
X60566Y-44032D02*
X44981Y-59617D01*
X99531Y-44032D02*
X60566Y-44032D01*
X109690Y-54192D02*
X99531Y-44032D01*
X116450Y-54192D02*
X109690Y-54192D01*
X121188Y-38859D02*
X120808Y-38859D01*
X131250Y-28797D02*
X121188Y-38859D01*
X131250Y-28543D02*
X131250Y-28797D01*
X131679Y-28114D02*
X131250Y-28543D01*
X131679Y-28006D02*
X131679Y-28114D01*
X132439Y-27246D02*
X131679Y-28006D01*
X132750Y-27246D02*
X132439Y-27246D01*
X126445Y-68818D02*
X126499Y-68818D01*
X125023Y-67396D02*
X126445Y-68818D01*
X125023Y-62765D02*
X125023Y-67396D01*
X121361Y-59103D02*
X125023Y-62765D01*
X120758Y-59103D02*
X121361Y-59103D01*
X120604Y-59257D02*
X120758Y-59103D01*
X114021Y-59257D02*
X120604Y-59257D01*
X98996Y-44233D02*
X114021Y-59257D01*
X60759Y-44233D02*
X98996Y-44233D01*
X44671Y-60320D02*
X60759Y-44233D01*
X38407Y-60320D02*
X44671Y-60320D01*
X73049Y-38383D02*
X72917Y-38514D01*
X73378Y-38383D02*
X73049Y-38383D01*
X75414Y-36347D02*
X73378Y-38383D01*
X85635Y-36347D02*
X75414Y-36347D01*
X87018Y-37730D02*
X85635Y-36347D01*
X87873Y-37730D02*
X87018Y-37730D01*
X88391Y-38248D02*
X87873Y-37730D01*
X121329Y-38248D02*
X88391Y-38248D01*
X130179Y-29398D02*
X121329Y-38248D01*
X130179Y-28756D02*
X130179Y-29398D01*
X130850Y-28085D02*
X130179Y-28756D01*
X130850Y-27835D02*
X130850Y-28085D01*
X131439Y-27246D02*
X130850Y-27835D01*
X131750Y-27246D02*
X131439Y-27246D01*
X68578Y-39165D02*
X67215Y-40529D01*
X71523Y-39165D02*
X68578Y-39165D01*
X72706Y-37983D02*
X71523Y-39165D01*
X73213Y-37983D02*
X72706Y-37983D01*
X75248Y-35947D02*
X73213Y-37983D01*
X87356Y-35947D02*
X75248Y-35947D01*
X89246Y-37837D02*
X87356Y-35947D01*
X120780Y-37837D02*
X89246Y-37837D01*
X127451Y-31166D02*
X120780Y-37837D01*
X127496Y-31166D02*
X127451Y-31166D01*
X31238Y-109301D02*
X30335Y-110204D01*
X32816Y-109301D02*
X31238Y-109301D01*
X130939Y-88000D02*
X133579Y-88000D01*
X129454Y-106446D02*
X131032Y-106446D01*
X128551Y-105543D02*
X129454Y-106446D01*
X29870Y-74456D02*
X28967Y-73553D01*
X31448Y-74456D02*
X29870Y-74456D01*
X39367Y-58788D02*
X37669Y-57091D01*
X39692Y-58788D02*
X39367Y-58788D01*
X105057Y-43565D02*
X105057Y-42598D01*
X103737Y-44885D02*
X105057Y-43565D01*
X128086Y-69795D02*
X127183Y-70698D01*
X129664Y-69795D02*
X128086Y-69795D01*
G54D28*
X91000Y-28000D02*
X93000Y-28000D01*
X141745Y-26400D02*
X140899Y-27246D01*
X143600Y-26400D02*
X141745Y-26400D01*
X41906Y-28070D02*
X43476Y-26500D01*
X33210Y-28070D02*
X41906Y-28070D01*
X32500Y-27360D02*
X33210Y-28070D01*
X87000Y-28000D02*
X89000Y-28000D01*
X89000Y-28000D02*
X91000Y-28000D01*
X135375Y-44250D02*
X135087Y-44250D01*
X135087Y-44250D02*
X134799Y-44250D01*
X135087Y-45932D02*
X135375Y-46219D01*
X135087Y-44250D02*
X135087Y-45932D01*
X135375Y-46817D02*
X135375Y-46219D01*
X22862Y-76397D02*
X28262Y-76397D01*
X19863Y-79396D02*
X22862Y-76397D01*
X28262Y-73254D02*
X28262Y-76397D01*
X28807Y-72709D02*
X28262Y-73254D01*
X28985Y-72709D02*
X28807Y-72709D01*
X29900Y-71794D02*
X28985Y-72709D01*
X29900Y-70428D02*
X29900Y-71794D01*
X29111Y-69639D02*
X29900Y-70428D01*
X29111Y-68817D02*
X29111Y-69639D01*
X28262Y-76397D02*
X30080Y-78215D01*
X139399Y-28746D02*
X137750Y-28746D01*
X140899Y-27246D02*
X139399Y-28746D01*
X137750Y-28746D02*
X137250Y-28246D01*
X136750Y-28746D02*
X137250Y-28246D01*
X137250Y-28246D02*
X137250Y-27996D01*
X123749Y-56481D02*
X123788Y-56520D01*
X121026Y-56481D02*
X123749Y-56481D01*
X117205Y-52660D02*
X121026Y-56481D01*
X115164Y-52660D02*
X117205Y-52660D01*
X129935Y-56520D02*
X132883Y-59467D01*
X123788Y-56520D02*
X129935Y-56520D01*
X26781Y-106484D02*
X20542Y-100244D01*
X27401Y-106484D02*
X26781Y-106484D01*
X20183Y-100603D02*
X20542Y-100244D01*
X19863Y-100603D02*
X20183Y-100603D01*
X24786Y-96000D02*
X29060Y-96000D01*
X20542Y-100244D02*
X24786Y-96000D01*
X33526Y-36000D02*
X40748Y-43222D01*
X30000Y-36000D02*
X33526Y-36000D01*
X139580Y-78840D02*
X140136Y-79396D01*
X135936Y-78840D02*
X139580Y-78840D01*
X135936Y-76854D02*
X135936Y-78840D01*
X132598Y-73515D02*
X135936Y-76854D01*
X131107Y-84000D02*
X130939Y-84000D01*
X135936Y-79171D02*
X131107Y-84000D01*
X135936Y-78840D02*
X135936Y-79171D01*
X129896Y-39347D02*
X134799Y-44250D01*
X130000Y-39243D02*
X129896Y-39347D01*
X130000Y-36000D02*
X130000Y-39243D01*
X95000Y-28000D02*
X97000Y-28000D01*
X97000Y-28000D02*
X99000Y-28000D01*
X126021Y-43222D02*
X119251Y-43222D01*
X129896Y-39347D02*
X126021Y-43222D01*
X109773Y-43222D02*
X109697Y-43298D01*
X119251Y-43222D02*
X109773Y-43222D01*
X107997Y-41599D02*
X109697Y-43298D01*
X101559Y-41599D02*
X107997Y-41599D01*
X100273Y-42885D02*
X101559Y-41599D01*
X109697Y-43298D02*
X109697Y-43563D01*
G54D29*
X132894Y-108833D02*
X134036Y-109975D01*
X131743Y-108833D02*
X132894Y-108833D01*
X137484Y-90000D02*
X137500Y-90015D01*
X135064Y-90000D02*
X137484Y-90000D01*
X133271Y-71166D02*
X134063Y-70375D01*
X132193Y-71166D02*
X133271Y-71166D01*
X131743Y-71166D02*
X132193Y-71166D01*
X70438Y-33678D02*
X70030Y-33270D01*
X70438Y-35772D02*
X70438Y-33678D01*
X52017Y-41162D02*
X51147Y-40292D01*
X52017Y-42313D02*
X52017Y-41162D01*
X52467Y-42313D02*
X52017Y-42313D01*
X37368Y-54554D02*
X35867Y-53053D01*
X37368Y-54605D02*
X37368Y-54554D01*
X37818Y-54605D02*
X37368Y-54605D01*
X27005Y-71166D02*
X25963Y-70124D01*
X28256Y-71166D02*
X27005Y-71166D01*
X22615Y-90000D02*
X22500Y-89884D01*
X24935Y-90000D02*
X22615Y-90000D01*
X26628Y-108833D02*
X25936Y-109524D01*
X28256Y-108833D02*
X26628Y-108833D01*
X38584Y-54940D02*
X38584Y-55248D01*
X40191Y-53333D02*
X38584Y-54940D01*
X36739Y-55248D02*
X36161Y-55825D01*
X38584Y-55248D02*
X36739Y-55248D01*
X25935Y-87500D02*
X25935Y-90000D01*
X50779Y-43179D02*
X50493Y-42893D01*
X52967Y-43179D02*
X50779Y-43179D01*
X54217Y-41929D02*
X52967Y-43179D01*
X55133Y-41929D02*
X54217Y-41929D01*
X129948Y-109346D02*
X130803Y-108491D01*
X129948Y-110840D02*
X129948Y-109346D01*
X89350Y-36757D02*
X89387Y-36757D01*
X87676Y-35082D02*
X89350Y-36757D01*
X87676Y-34948D02*
X87676Y-35082D01*
X89822Y-37191D02*
X89387Y-36757D01*
X91850Y-37191D02*
X89822Y-37191D01*
X71046Y-36322D02*
X70612Y-36757D01*
X73073Y-36322D02*
X71046Y-36322D01*
X69499Y-36757D02*
X68384Y-35642D01*
X70612Y-36757D02*
X69499Y-36757D01*
X121415Y-52910D02*
X121266Y-52761D01*
X121415Y-55248D02*
X121415Y-52910D01*
X108282Y-44429D02*
X107032Y-43179D01*
X109197Y-44429D02*
X108282Y-44429D01*
X136125Y-44250D02*
X136125Y-44675D01*
X136125Y-44675D02*
X137195Y-45746D01*
X137371Y-45746D02*
X137195Y-45746D01*
X137750Y-46125D02*
X137371Y-45746D01*
X136432Y-46509D02*
X136432Y-46817D01*
X137195Y-45746D02*
X136432Y-46509D01*
X136125Y-46817D02*
X136432Y-46817D01*
M02*
