M48
;DRILL file {Pcbnew (2013-jul-07)-stable} date Mon 30 Nov 2015 09:21:00 AM PST
;FORMAT={-:-/ absolute / inch / decimal}
FMAT,2
INCH,TZ
T1C0.025
T2C0.031
T3C0.032
T4C0.039
T5C0.040
T6C0.047
T7C0.063
T8C0.070
T9C0.106
T10C0.106
T11C0.124
T12C0.129
T13C0.266
%
G90
G05
M72
T1
X2.9759Y-8.3597
X2.992Y-8.296
X3.7184Y-6.8305
X3.9958Y-5.9618
X6.0184Y-4.3826
X6.6127Y-3.9156
X7.2918Y-3.8515
X8.2243Y-4.0775
X8.832Y-3.5267
X8.8393Y-3.3957
X9.4206Y-3.7312
X9.5411Y-4.1935
X9.6765Y-3.9428
X9.6816Y-4.0078
X9.7344Y-3.9488
X9.7842Y-3.9865
X9.8169Y-4.0285
X10.0414Y-4.3826
X10.4467Y-4.2175
X11.1532Y-4.5285
X11.5951Y-3.0003
X12.0808Y-3.8859
X12.1462Y-4.5854
X12.1467Y-4.4684
X12.3447Y-4.3806
X12.4897Y-4.5714
X12.5091Y-3.2914
X12.5173Y-3.3905
X12.7497Y-3.1167
X12.8345Y-4.414
T2
X12.125Y-2.6496
X12.125Y-2.7996
X12.175Y-2.7246
X12.175Y-2.8746
X12.225Y-2.6496
X12.225Y-2.7996
X12.275Y-2.7246
X12.275Y-2.8746
X12.325Y-2.6496
X12.325Y-2.7996
X12.375Y-2.7246
X12.375Y-2.8746
X12.425Y-2.6496
X12.425Y-2.7996
X12.475Y-2.7246
X12.475Y-2.8746
X12.525Y-2.6496
X12.525Y-2.7996
X12.575Y-2.7246
X12.575Y-2.8746
X12.625Y-2.6496
X12.625Y-2.7996
X12.675Y-2.7246
X12.675Y-2.8746
X12.725Y-2.6496
X12.725Y-2.7996
X12.775Y-2.7246
X12.775Y-2.8746
X12.825Y-2.6496
X12.825Y-2.7996
X12.875Y-2.7246
X12.875Y-2.8746
X12.925Y-2.6496
X12.925Y-2.7996
X12.975Y-2.7246
X12.975Y-2.8746
X13.025Y-2.6496
X13.025Y-2.7996
X13.075Y-2.7246
X13.075Y-2.8746
X13.125Y-2.6496
X13.125Y-2.7996
X13.175Y-2.7246
X13.175Y-2.8746
X13.225Y-2.6496
X13.225Y-2.7996
X13.275Y-2.7246
X13.275Y-2.8746
X13.325Y-2.6496
X13.325Y-2.7996
X13.375Y-2.7246
X13.375Y-2.8746
X13.425Y-2.6496
X13.425Y-2.7996
X13.475Y-2.7246
X13.475Y-2.8746
X13.525Y-2.6496
X13.525Y-2.7996
X13.575Y-2.7246
X13.575Y-2.8746
X13.625Y-2.6496
X13.625Y-2.7996
X13.675Y-2.7246
X13.675Y-2.8746
X13.725Y-2.6496
X13.725Y-2.7996
X13.775Y-2.7246
X13.775Y-2.8746
T3
X1.775Y-8.275
X1.775Y-8.475
X1.775Y-8.675
X1.775Y-8.875
X1.775Y-9.075
X1.775Y-9.275
X1.775Y-9.475
X1.775Y-9.675
X1.875Y-8.275
X1.875Y-8.475
X1.875Y-8.675
X1.875Y-8.875
X1.875Y-9.075
X1.875Y-9.275
X1.875Y-9.475
X1.875Y-9.675
X2.4936Y-8.75
X2.5936Y-8.75
X2.7401Y-10.6484
X2.8341Y-10.6142
X2.9111Y-6.8818
X3.0051Y-6.916
X3.9425Y-5.269
X4.0191Y-5.3333
X5.4633Y-4.1063
X5.5133Y-4.1929
X7.29Y-3.5338
X7.3074Y-3.6323
X8.7Y-2.8
X8.7Y-2.9
X8.9Y-2.8
X8.9Y-2.9
X9.1Y-2.8
X9.1Y-2.9
X9.185Y-3.7191
X9.2024Y-3.6206
X9.3Y-2.8
X9.3Y-2.9
X9.5Y-2.8
X9.5Y-2.9
X9.7Y-2.8
X9.7Y-2.9
X9.9Y-2.8
X9.9Y-2.9
X10.1Y-2.8
X10.1Y-2.9
X10.9197Y-4.4429
X10.9697Y-4.3563
X12.3022Y-5.7163
X12.3789Y-5.652
X12.9949Y-11.084
X13.0888Y-11.1182
X13.1659Y-7.3858
X13.2599Y-7.3516
X13.4064Y-9.25
X13.5064Y-9.25
X14.05Y-8.3
X14.05Y-8.5
X14.05Y-8.7
X14.05Y-8.9
X14.05Y-9.1
X14.05Y-9.3
X14.05Y-9.5
X14.05Y-9.7
X14.15Y-8.3
X14.15Y-8.5
X14.15Y-8.7
X14.15Y-8.9
X14.15Y-9.1
X14.15Y-9.3
X14.15Y-9.5
X14.15Y-9.7
T4
X2.25Y-8.7916
X2.25Y-8.9884
X2.4451Y-9.2
X2.5263Y-10.7675
X2.5937Y-10.9525
X2.5963Y-7.0125
X2.642Y-9.2
X2.6637Y-6.8275
X2.7117Y-7.2881
X2.8485Y-11.0878
X2.8967Y-7.3554
X3.0335Y-11.0205
X3.5867Y-5.3054
X3.6162Y-5.5826
X3.7133Y-5.1546
X3.767Y-5.7091
X5.0494Y-4.2894
X5.1148Y-4.0292
X5.1478Y-4.4598
X5.2852Y-3.9308
X6.8385Y-3.5643
X6.8726Y-3.7581
X7.0031Y-3.3271
X7.1969Y-3.2929
X8.7335Y-3.6887
X8.7676Y-3.4948
X9.0131Y-3.3329
X9.2069Y-3.3671
X10.5058Y-4.2598
X10.6042Y-4.0894
X10.8948Y-4.0108
X11.0652Y-4.1092
X11.9759Y-5.4027
X12.1267Y-5.2762
X12.3967Y-5.3046
X12.5233Y-5.4554
X12.9665Y-6.9795
X13.1033Y-10.6446
X13.1515Y-6.9122
X13.2883Y-10.7119
X13.3363Y-11.1825
X13.358Y-8.8
X13.4037Y-10.9975
X13.4063Y-7.0375
X13.4737Y-7.2225
X13.5548Y-8.8
X13.75Y-9.0016
X13.75Y-9.1984
T5
X1.9863Y-7.9396
X1.9863Y-10.0604
X2.1833Y-7.9744
X2.1833Y-10.0256
X2.4936Y-9.
X2.5936Y-9.
X2.7117Y-5.9468
X2.8256Y-7.1167
X2.8256Y-10.8833
X2.8849Y-6.0468
X2.9061Y-8.3
X2.9061Y-8.4
X2.9061Y-8.5
X2.9061Y-8.6
X2.9061Y-8.7
X2.9061Y-8.8
X2.9061Y-8.9
X2.9061Y-9.
X2.9061Y-9.1
X2.9061Y-9.2
X2.9061Y-9.3
X2.9061Y-9.4
X2.9061Y-9.5
X2.9061Y-9.6
X2.9061Y-9.7
X2.9196Y-7.1509
X2.9196Y-10.8491
X2.9739Y-7.9155
X2.9739Y-10.0845
X3.0081Y-7.8216
X3.0081Y-10.1784
X3.0423Y-7.7276
X3.0423Y-10.2724
X3.0765Y-7.6336
X3.0765Y-10.3664
X3.1107Y-7.5397
X3.1107Y-10.4603
X3.1449Y-7.4457
X3.1449Y-10.5543
X3.1791Y-7.3517
X3.1791Y-10.6483
X3.2133Y-7.2578
X3.2133Y-10.7422
X3.2475Y-7.1638
X3.2475Y-10.8362
X3.2817Y-7.0698
X3.2817Y-10.9302
X3.3159Y-6.9758
X3.3159Y-11.0242
X3.3501Y-6.8819
X3.3501Y-11.1181
X3.3843Y-6.7879
X3.3843Y-11.2121
X3.4185Y-6.6939
X3.4185Y-11.3061
X3.4527Y-6.6
X3.4527Y-11.4
X3.6479Y-6.2619
X3.7122Y-6.1853
X3.7764Y-6.1087
X3.7818Y-5.4605
X3.8407Y-6.0321
X3.8584Y-5.5248
X3.905Y-5.9555
X3.9693Y-5.8789
X4.0336Y-5.8023
X4.0749Y-4.3222
X4.0978Y-5.7257
X4.1621Y-5.6491
X4.2034Y-4.4754
X4.2264Y-5.5725
X4.2907Y-5.4959
X4.3549Y-5.4193
X4.4192Y-5.3426
X4.4835Y-5.266
X4.5478Y-5.1894
X4.8468Y-4.9385
X4.9334Y-4.8885
X5.02Y-4.8385
X5.1066Y-4.7885
X5.1932Y-4.7385
X5.2468Y-4.2313
X5.2798Y-4.6885
X5.2968Y-4.3179
X5.3664Y-4.6385
X5.453Y-4.5885
X5.5396Y-4.5385
X5.6262Y-4.4885
X5.7128Y-4.4385
X5.7994Y-4.3885
X5.886Y-4.3385
X5.9115Y-3.2618
X5.9726Y-4.2885
X5.9799Y-3.4498
X6.0592Y-4.2385
X6.4261Y-4.105
X6.5245Y-4.0877
X6.623Y-4.0703
X6.7215Y-4.0529
X6.82Y-4.0356
X6.9185Y-4.0182
X7.017Y-4.0008
X7.0438Y-3.5772
X7.0612Y-3.6757
X7.1154Y-3.9835
X7.2139Y-3.9661
X7.3124Y-3.9487
X7.4109Y-3.9314
X7.5094Y-3.914
X7.6078Y-3.8966
X7.7063Y-3.8793
X7.8048Y-3.8619
X8.Y-2.8936
X8.Y-3.0936
X8.1952Y-3.8619
X8.2937Y-3.8793
X8.3922Y-3.8966
X8.4906Y-3.914
X8.5891Y-3.9314
X8.6876Y-3.9487
X8.7861Y-3.9661
X8.8846Y-3.9835
X8.9388Y-3.6757
X8.9562Y-3.5772
X8.983Y-4.0008
X9.0815Y-4.0182
X9.18Y-4.0356
X9.2785Y-4.0529
X9.377Y-4.0703
X9.4755Y-4.0877
X9.5739Y-4.105
X9.9408Y-4.2385
X10.0201Y-3.4498
X10.0274Y-4.2885
X10.0885Y-3.2618
X10.114Y-4.3385
X10.2006Y-4.3885
X10.2872Y-4.4385
X10.3738Y-4.4885
X10.4604Y-4.5385
X10.547Y-4.5885
X10.6336Y-4.6385
X10.7032Y-4.3179
X10.7202Y-4.6885
X10.7532Y-4.2313
X10.8068Y-4.7385
X10.8934Y-4.7885
X10.98Y-4.8385
X11.0666Y-4.8885
X11.1532Y-4.9385
X11.4522Y-5.1894
X11.5165Y-5.266
X11.5808Y-5.3426
X11.6451Y-5.4193
X11.7093Y-5.4959
X11.7736Y-5.5725
X11.7966Y-4.4754
X11.8379Y-5.6491
X11.9022Y-5.7257
X11.9251Y-4.3222
X11.9664Y-5.8023
X12.0307Y-5.8789
X12.095Y-5.9555
X12.1416Y-5.5248
X12.1593Y-6.0321
X12.2182Y-5.4605
X12.2236Y-6.1087
X12.2878Y-6.1853
X12.3521Y-6.2619
X12.5473Y-6.6
X12.5473Y-11.4
X12.5815Y-6.6939
X12.5815Y-11.3061
X12.6157Y-6.7879
X12.6157Y-11.2121
X12.6499Y-6.8819
X12.6499Y-11.1181
X12.6841Y-6.9758
X12.6841Y-11.0242
X12.7183Y-7.0698
X12.7183Y-10.9302
X12.7525Y-7.1638
X12.7525Y-10.8362
X12.7867Y-7.2578
X12.7867Y-10.7422
X12.8209Y-7.3517
X12.8209Y-10.6483
X12.8551Y-7.4457
X12.8551Y-10.5543
X12.8893Y-7.5397
X12.8893Y-10.4603
X12.9235Y-7.6336
X12.9235Y-10.3664
X12.9577Y-7.7276
X12.9577Y-10.2724
X12.9919Y-7.8216
X12.9919Y-10.1784
X13.0261Y-7.9155
X13.0261Y-10.0845
X13.0804Y-7.1509
X13.0804Y-10.8491
X13.0939Y-8.3
X13.0939Y-8.4
X13.0939Y-8.5
X13.0939Y-8.6
X13.0939Y-8.7
X13.0939Y-8.8
X13.0939Y-8.9
X13.0939Y-9.
X13.0939Y-9.1
X13.0939Y-9.2
X13.0939Y-9.3
X13.0939Y-9.4
X13.0939Y-9.5
X13.0939Y-9.6
X13.0939Y-9.7
X13.1151Y-6.0468
X13.1743Y-7.1167
X13.1743Y-10.8833
X13.2883Y-5.9468
X13.4064Y-9.
X13.5064Y-9.
X13.8167Y-7.9744
X13.8167Y-10.0256
X14.0137Y-7.9396
X14.0137Y-10.0604
T6
X4.0524Y-2.65
X4.3476Y-2.65
T7
X3.25Y-2.618
T8
X2.063Y-2.8
X2.25Y-2.8
X2.437Y-2.8
T9
X3.073Y-2.697
X3.25Y-2.736
X3.427Y-2.697
T10
X11.81Y-2.7246
X14.09Y-2.7246
T11
X3.25Y-2.972
T12
X1.64Y-2.64
X1.64Y-11.75
X14.36Y-2.64
X14.36Y-11.75
T13
X3.Y-3.6
X3.Y-11.6
X13.Y-3.6
X13.Y-11.6
T0
M30
