M48
; DRILL file {KiCad 5.1.9} date Fri Feb 19 12:46:33 2021
; FORMAT={3:3/ absolute / metric / keep zeros}
; #@! TF.CreationDate,2021-02-19T12:46:33-05:00
; #@! TF.GenerationSoftware,Kicad,Pcbnew,5.1.9
FMAT,2
METRIC
T1C0.813
T2C1.016
T3C3.175
%
G90
G05
T1
X134684Y-081915
X137224Y-081915
X139764Y-081915
X142304Y-081915
X143828Y-130175
X144844Y-081915
X146368Y-130175
X147384Y-081915
X148908Y-130175
X149924Y-081915
X151448Y-130175
X152464Y-081915
X153988Y-130175
X156528Y-081915
X156528Y-130175
X159068Y-081915
X161608Y-081915
X161608Y-130175
X164148Y-081915
X164148Y-130175
X166688Y-081915
X166688Y-130175
X169228Y-081915
X169228Y-130175
X171768Y-081915
X171768Y-130175
X174308Y-081915
X174308Y-130175
T2
X143850Y-098790
X143850Y-103870
X159893Y-102552
X159893Y-105092
X159893Y-107632
X162433Y-102552
X162433Y-105092
X162433Y-107632
T3
X124778Y-130175
X126048Y-081915
X176848Y-097155
X176848Y-125095
T0
M30
