G04 (created by PCBNEW (2013-mar-13)-testing) date Tue 23 Sep 2014 12:36:19 PM PDT*
%MOIN*%
G04 Gerber Fmt 3.4, Leading zero omitted, Abs format*
%FSLAX34Y34*%
G01*
G70*
G90*
G04 APERTURE LIST*
%ADD10C,0.005906*%
%ADD11R,0.060000X0.060000*%
%ADD12C,0.060000*%
%ADD13C,0.133900*%
%ADD14C,0.051000*%
%ADD15C,0.035000*%
%ADD16C,0.025000*%
%ADD17C,0.010000*%
G04 APERTURE END LIST*
G54D10*
G54D11*
X20559Y-33425D03*
G54D12*
X21559Y-33425D03*
X22559Y-33425D03*
X23559Y-33425D03*
X24559Y-33425D03*
X25559Y-33425D03*
X26559Y-33425D03*
X27559Y-33425D03*
X28559Y-33425D03*
X29559Y-33425D03*
X30559Y-33425D03*
X31559Y-33425D03*
X32559Y-33425D03*
X33559Y-33425D03*
X34559Y-33425D03*
G54D11*
X20559Y-22893D03*
G54D12*
X21559Y-22893D03*
X22559Y-22893D03*
X23559Y-22893D03*
X24559Y-22893D03*
X25559Y-22893D03*
X26559Y-22893D03*
X27559Y-22893D03*
X28559Y-22893D03*
X29559Y-22893D03*
X30559Y-22893D03*
X31559Y-22893D03*
X32559Y-22893D03*
X33559Y-22893D03*
X34559Y-22893D03*
G54D11*
X32007Y-27059D03*
G54D12*
X32007Y-28059D03*
G54D13*
X21259Y-27559D03*
X33858Y-27559D03*
G54D11*
X31374Y-30799D03*
G54D12*
X34374Y-30799D03*
X31374Y-31799D03*
X34374Y-31799D03*
G54D14*
X32374Y-30799D03*
X33374Y-30799D03*
X33374Y-31799D03*
X32374Y-31799D03*
G54D11*
X31374Y-24500D03*
G54D12*
X34374Y-24500D03*
X31374Y-25500D03*
X34374Y-25500D03*
G54D14*
X32374Y-24500D03*
X33374Y-24500D03*
X33374Y-25500D03*
X32374Y-25500D03*
G54D11*
X20744Y-30799D03*
G54D12*
X23744Y-30799D03*
X20744Y-31799D03*
X23744Y-31799D03*
G54D14*
X21744Y-30799D03*
X22744Y-30799D03*
X22744Y-31799D03*
X21744Y-31799D03*
G54D11*
X20744Y-24500D03*
G54D12*
X23744Y-24500D03*
X20744Y-25500D03*
X23744Y-25500D03*
G54D14*
X21744Y-24500D03*
X22744Y-24500D03*
X22744Y-25500D03*
X21744Y-25500D03*
G54D15*
X24451Y-25763D03*
X28517Y-31575D03*
X27766Y-30758D03*
X28012Y-25468D03*
X28737Y-27352D03*
X31304Y-26793D03*
X27331Y-26919D03*
G54D16*
X19960Y-23492D02*
X20559Y-22893D01*
X19960Y-24321D02*
X19960Y-23492D01*
G54D17*
X20115Y-24321D02*
X20293Y-24500D01*
X19960Y-24321D02*
X20115Y-24321D01*
X20744Y-24500D02*
X20293Y-24500D01*
G54D16*
X19960Y-32637D02*
X19960Y-24321D01*
X20559Y-33236D02*
X19960Y-32637D01*
X20559Y-33425D02*
X20559Y-33236D01*
G54D17*
X26559Y-32425D02*
X27559Y-33425D01*
X26559Y-22893D02*
X26559Y-32425D01*
X29074Y-32909D02*
X28559Y-33425D01*
X29074Y-27003D02*
X29074Y-32909D01*
X27559Y-25487D02*
X29074Y-27003D01*
X27559Y-22893D02*
X27559Y-25487D01*
X29343Y-33209D02*
X29559Y-33425D01*
X29343Y-23677D02*
X29343Y-33209D01*
X28559Y-22893D02*
X29343Y-23677D01*
X29559Y-32425D02*
X29559Y-22893D01*
X30559Y-33425D02*
X29559Y-32425D01*
X30559Y-32425D02*
X31559Y-33425D01*
X30559Y-22893D02*
X30559Y-32425D01*
X32358Y-33425D02*
X32559Y-33425D01*
X30916Y-31983D02*
X32358Y-33425D01*
X30916Y-23536D02*
X30916Y-31983D01*
X31559Y-22893D02*
X30916Y-23536D01*
X32921Y-32787D02*
X33559Y-33425D01*
X32921Y-23256D02*
X32921Y-32787D01*
X32559Y-22893D02*
X32921Y-23256D01*
X25559Y-22893D02*
X25559Y-33425D01*
X24776Y-23111D02*
X24559Y-22893D01*
X24776Y-33207D02*
X24776Y-23111D01*
X24559Y-33425D02*
X24776Y-33207D01*
X23277Y-33143D02*
X23559Y-33425D01*
X23277Y-23175D02*
X23277Y-33143D01*
X23559Y-22893D02*
X23277Y-23175D01*
X24451Y-25207D02*
X24451Y-25763D01*
X23744Y-24500D02*
X24451Y-25207D01*
X28517Y-31509D02*
X28517Y-31575D01*
X27766Y-30758D02*
X28517Y-31509D01*
X20744Y-30799D02*
X20744Y-30349D01*
X28012Y-22703D02*
X28012Y-25468D01*
X27540Y-22231D02*
X28012Y-22703D01*
X22557Y-22231D02*
X27540Y-22231D01*
X22059Y-22729D02*
X22557Y-22231D01*
X22059Y-23586D02*
X22059Y-22729D01*
X21195Y-24449D02*
X22059Y-23586D01*
X21195Y-26430D02*
X21195Y-24449D01*
X20436Y-27189D02*
X21195Y-26430D01*
X20436Y-30041D02*
X20436Y-27189D01*
X20744Y-30349D02*
X20436Y-30041D01*
X28843Y-27458D02*
X28737Y-27352D01*
X28843Y-31909D02*
X28843Y-27458D01*
X28099Y-32653D02*
X28843Y-31909D01*
X28099Y-33528D02*
X28099Y-32653D01*
X27751Y-33876D02*
X28099Y-33528D01*
X24335Y-33876D02*
X27751Y-33876D01*
X24059Y-33600D02*
X24335Y-33876D01*
X24059Y-32114D02*
X24059Y-33600D01*
X23744Y-31799D02*
X24059Y-32114D01*
X31374Y-30799D02*
X31374Y-30349D01*
X31304Y-30279D02*
X31304Y-26793D01*
X31374Y-30349D02*
X31304Y-30279D01*
X23021Y-22431D02*
X22559Y-22893D01*
X26734Y-22431D02*
X23021Y-22431D01*
X27059Y-22756D02*
X26734Y-22431D01*
X27059Y-26647D02*
X27059Y-22756D01*
X27331Y-26919D02*
X27059Y-26647D01*
X22322Y-33188D02*
X22559Y-33425D01*
X22322Y-23129D02*
X22322Y-33188D01*
X22559Y-22893D02*
X22322Y-23129D01*
X31825Y-28241D02*
X32007Y-28059D01*
X31825Y-31347D02*
X31825Y-28241D01*
X31374Y-31799D02*
X31825Y-31347D01*
X32007Y-28059D02*
X32007Y-27059D01*
M02*
