G04 (created by PCBNEW (2013-mar-13)-testing) date Tue 23 Sep 2014 12:36:19 PM PDT*
%MOIN*%
G04 Gerber Fmt 3.4, Leading zero omitted, Abs format*
%FSLAX34Y34*%
G01*
G70*
G90*
G04 APERTURE LIST*
%ADD10C,0.005906*%
%ADD11C,0.008000*%
G04 APERTURE END LIST*
G54D10*
G54D11*
X32213Y-20594D02*
X32213Y-20860D01*
X32308Y-20441D02*
X32403Y-20727D01*
X32156Y-20727D01*
X32003Y-20708D02*
X31699Y-20708D01*
X31508Y-20860D02*
X31508Y-20460D01*
X31375Y-20746D01*
X31241Y-20460D01*
X31241Y-20860D01*
X30879Y-20860D02*
X30879Y-20651D01*
X30899Y-20613D01*
X30937Y-20594D01*
X31013Y-20594D01*
X31051Y-20613D01*
X30879Y-20841D02*
X30918Y-20860D01*
X31013Y-20860D01*
X31051Y-20841D01*
X31070Y-20803D01*
X31070Y-20765D01*
X31051Y-20727D01*
X31013Y-20708D01*
X30918Y-20708D01*
X30879Y-20689D01*
X30746Y-20594D02*
X30594Y-20594D01*
X30689Y-20460D02*
X30689Y-20803D01*
X30670Y-20841D01*
X30632Y-20860D01*
X30594Y-20860D01*
X30460Y-20860D02*
X30460Y-20594D01*
X30460Y-20670D02*
X30441Y-20632D01*
X30422Y-20613D01*
X30384Y-20594D01*
X30346Y-20594D01*
X30213Y-20860D02*
X30213Y-20594D01*
X30213Y-20460D02*
X30232Y-20480D01*
X30213Y-20499D01*
X30194Y-20480D01*
X30213Y-20460D01*
X30213Y-20499D01*
X30060Y-20860D02*
X29851Y-20594D01*
X30060Y-20594D02*
X29851Y-20860D01*
X29413Y-20746D02*
X29222Y-20746D01*
X29451Y-20860D02*
X29318Y-20460D01*
X29184Y-20860D01*
X29108Y-20594D02*
X28956Y-20594D01*
X29051Y-20460D02*
X29051Y-20803D01*
X29032Y-20841D01*
X28994Y-20860D01*
X28956Y-20860D01*
X28822Y-20860D02*
X28822Y-20594D01*
X28822Y-20632D02*
X28803Y-20613D01*
X28765Y-20594D01*
X28708Y-20594D01*
X28670Y-20613D01*
X28651Y-20651D01*
X28651Y-20860D01*
X28651Y-20651D02*
X28632Y-20613D01*
X28594Y-20594D01*
X28537Y-20594D01*
X28499Y-20613D01*
X28480Y-20651D01*
X28480Y-20860D01*
X28137Y-20841D02*
X28175Y-20860D01*
X28251Y-20860D01*
X28289Y-20841D01*
X28308Y-20803D01*
X28308Y-20651D01*
X28289Y-20613D01*
X28251Y-20594D01*
X28175Y-20594D01*
X28137Y-20613D01*
X28118Y-20651D01*
X28118Y-20689D01*
X28308Y-20727D01*
X27775Y-20594D02*
X27775Y-20918D01*
X27794Y-20956D01*
X27813Y-20975D01*
X27851Y-20994D01*
X27908Y-20994D01*
X27946Y-20975D01*
X27775Y-20841D02*
X27813Y-20860D01*
X27889Y-20860D01*
X27927Y-20841D01*
X27946Y-20822D01*
X27965Y-20784D01*
X27965Y-20670D01*
X27946Y-20632D01*
X27927Y-20613D01*
X27889Y-20594D01*
X27813Y-20594D01*
X27775Y-20613D01*
X27413Y-20860D02*
X27413Y-20651D01*
X27432Y-20613D01*
X27470Y-20594D01*
X27546Y-20594D01*
X27584Y-20613D01*
X27413Y-20841D02*
X27451Y-20860D01*
X27546Y-20860D01*
X27584Y-20841D01*
X27603Y-20803D01*
X27603Y-20765D01*
X27584Y-20727D01*
X27546Y-20708D01*
X27451Y-20708D01*
X27413Y-20689D01*
X27260Y-20460D02*
X27013Y-20460D01*
X27146Y-20613D01*
X27089Y-20613D01*
X27051Y-20632D01*
X27032Y-20651D01*
X27013Y-20689D01*
X27013Y-20784D01*
X27032Y-20822D01*
X27051Y-20841D01*
X27089Y-20860D01*
X27203Y-20860D01*
X27241Y-20841D01*
X27260Y-20822D01*
X26860Y-20499D02*
X26841Y-20480D01*
X26803Y-20460D01*
X26708Y-20460D01*
X26670Y-20480D01*
X26651Y-20499D01*
X26632Y-20537D01*
X26632Y-20575D01*
X26651Y-20632D01*
X26880Y-20860D01*
X26632Y-20860D01*
X26403Y-20632D02*
X26441Y-20613D01*
X26460Y-20594D01*
X26480Y-20556D01*
X26480Y-20537D01*
X26460Y-20499D01*
X26441Y-20480D01*
X26403Y-20460D01*
X26327Y-20460D01*
X26289Y-20480D01*
X26270Y-20499D01*
X26251Y-20537D01*
X26251Y-20556D01*
X26270Y-20594D01*
X26289Y-20613D01*
X26327Y-20632D01*
X26403Y-20632D01*
X26441Y-20651D01*
X26460Y-20670D01*
X26480Y-20708D01*
X26480Y-20784D01*
X26460Y-20822D01*
X26441Y-20841D01*
X26403Y-20860D01*
X26327Y-20860D01*
X26289Y-20841D01*
X26270Y-20822D01*
X26251Y-20784D01*
X26251Y-20708D01*
X26270Y-20670D01*
X26289Y-20651D01*
X26327Y-20632D01*
X25546Y-20822D02*
X25565Y-20841D01*
X25622Y-20860D01*
X25660Y-20860D01*
X25718Y-20841D01*
X25756Y-20803D01*
X25775Y-20765D01*
X25794Y-20689D01*
X25794Y-20632D01*
X25775Y-20556D01*
X25756Y-20518D01*
X25718Y-20480D01*
X25660Y-20460D01*
X25622Y-20460D01*
X25565Y-20480D01*
X25546Y-20499D01*
X25318Y-20860D02*
X25356Y-20841D01*
X25375Y-20822D01*
X25394Y-20784D01*
X25394Y-20670D01*
X25375Y-20632D01*
X25356Y-20613D01*
X25318Y-20594D01*
X25260Y-20594D01*
X25222Y-20613D01*
X25203Y-20632D01*
X25184Y-20670D01*
X25184Y-20784D01*
X25203Y-20822D01*
X25222Y-20841D01*
X25260Y-20860D01*
X25318Y-20860D01*
X25013Y-20860D02*
X25013Y-20594D01*
X25013Y-20632D02*
X24994Y-20613D01*
X24956Y-20594D01*
X24899Y-20594D01*
X24860Y-20613D01*
X24841Y-20651D01*
X24841Y-20860D01*
X24841Y-20651D02*
X24822Y-20613D01*
X24784Y-20594D01*
X24727Y-20594D01*
X24689Y-20613D01*
X24670Y-20651D01*
X24670Y-20860D01*
X24480Y-20860D02*
X24480Y-20594D01*
X24480Y-20632D02*
X24460Y-20613D01*
X24422Y-20594D01*
X24365Y-20594D01*
X24327Y-20613D01*
X24308Y-20651D01*
X24308Y-20860D01*
X24308Y-20651D02*
X24289Y-20613D01*
X24251Y-20594D01*
X24194Y-20594D01*
X24156Y-20613D01*
X24137Y-20651D01*
X24137Y-20860D01*
X23680Y-20594D02*
X23584Y-20860D01*
X23489Y-20594D01*
X23260Y-20460D02*
X23222Y-20460D01*
X23184Y-20480D01*
X23165Y-20499D01*
X23146Y-20537D01*
X23127Y-20613D01*
X23127Y-20708D01*
X23146Y-20784D01*
X23165Y-20822D01*
X23184Y-20841D01*
X23222Y-20860D01*
X23260Y-20860D01*
X23299Y-20841D01*
X23318Y-20822D01*
X23337Y-20784D01*
X23356Y-20708D01*
X23356Y-20613D01*
X23337Y-20537D01*
X23318Y-20499D01*
X23299Y-20480D01*
X23260Y-20460D01*
X22956Y-20822D02*
X22937Y-20841D01*
X22956Y-20860D01*
X22975Y-20841D01*
X22956Y-20822D01*
X22956Y-20860D01*
X22784Y-20499D02*
X22765Y-20480D01*
X22727Y-20460D01*
X22632Y-20460D01*
X22594Y-20480D01*
X22575Y-20499D01*
X22556Y-20537D01*
X22556Y-20575D01*
X22575Y-20632D01*
X22803Y-20860D01*
X22556Y-20860D01*
X29975Y-21234D02*
X29899Y-21500D01*
X29822Y-21310D01*
X29746Y-21500D01*
X29670Y-21234D01*
X29556Y-21234D02*
X29480Y-21500D01*
X29403Y-21310D01*
X29327Y-21500D01*
X29251Y-21234D01*
X29137Y-21234D02*
X29060Y-21500D01*
X28984Y-21310D01*
X28908Y-21500D01*
X28832Y-21234D01*
X28680Y-21462D02*
X28660Y-21481D01*
X28680Y-21500D01*
X28699Y-21481D01*
X28680Y-21462D01*
X28680Y-21500D01*
X28489Y-21500D02*
X28489Y-21234D01*
X28489Y-21100D02*
X28508Y-21120D01*
X28489Y-21139D01*
X28470Y-21120D01*
X28489Y-21100D01*
X28489Y-21139D01*
X28241Y-21500D02*
X28279Y-21481D01*
X28299Y-21462D01*
X28318Y-21424D01*
X28318Y-21310D01*
X28299Y-21272D01*
X28279Y-21253D01*
X28241Y-21234D01*
X28184Y-21234D01*
X28146Y-21253D01*
X28127Y-21272D01*
X28108Y-21310D01*
X28108Y-21424D01*
X28127Y-21462D01*
X28146Y-21481D01*
X28184Y-21500D01*
X28241Y-21500D01*
X27937Y-21500D02*
X27937Y-21234D01*
X27937Y-21310D02*
X27918Y-21272D01*
X27899Y-21253D01*
X27860Y-21234D01*
X27822Y-21234D01*
X27632Y-21500D02*
X27670Y-21481D01*
X27689Y-21462D01*
X27708Y-21424D01*
X27708Y-21310D01*
X27689Y-21272D01*
X27670Y-21253D01*
X27632Y-21234D01*
X27575Y-21234D01*
X27537Y-21253D01*
X27518Y-21272D01*
X27499Y-21310D01*
X27499Y-21424D01*
X27518Y-21462D01*
X27537Y-21481D01*
X27575Y-21500D01*
X27632Y-21500D01*
X27156Y-21500D02*
X27156Y-21100D01*
X27156Y-21481D02*
X27194Y-21500D01*
X27270Y-21500D01*
X27308Y-21481D01*
X27327Y-21462D01*
X27346Y-21424D01*
X27346Y-21310D01*
X27327Y-21272D01*
X27308Y-21253D01*
X27270Y-21234D01*
X27194Y-21234D01*
X27156Y-21253D01*
X26813Y-21481D02*
X26851Y-21500D01*
X26927Y-21500D01*
X26965Y-21481D01*
X26984Y-21443D01*
X26984Y-21291D01*
X26965Y-21253D01*
X26927Y-21234D01*
X26851Y-21234D01*
X26813Y-21253D01*
X26794Y-21291D01*
X26794Y-21329D01*
X26984Y-21367D01*
X26565Y-21500D02*
X26603Y-21481D01*
X26622Y-21462D01*
X26641Y-21424D01*
X26641Y-21310D01*
X26622Y-21272D01*
X26603Y-21253D01*
X26565Y-21234D01*
X26508Y-21234D01*
X26470Y-21253D01*
X26451Y-21272D01*
X26432Y-21310D01*
X26432Y-21424D01*
X26451Y-21462D01*
X26470Y-21481D01*
X26508Y-21500D01*
X26565Y-21500D01*
X26260Y-21462D02*
X26241Y-21481D01*
X26260Y-21500D01*
X26280Y-21481D01*
X26260Y-21462D01*
X26260Y-21500D01*
X25899Y-21481D02*
X25937Y-21500D01*
X26013Y-21500D01*
X26051Y-21481D01*
X26070Y-21462D01*
X26089Y-21424D01*
X26089Y-21310D01*
X26070Y-21272D01*
X26051Y-21253D01*
X26013Y-21234D01*
X25937Y-21234D01*
X25899Y-21253D01*
X25670Y-21500D02*
X25708Y-21481D01*
X25727Y-21462D01*
X25746Y-21424D01*
X25746Y-21310D01*
X25727Y-21272D01*
X25708Y-21253D01*
X25670Y-21234D01*
X25613Y-21234D01*
X25575Y-21253D01*
X25556Y-21272D01*
X25537Y-21310D01*
X25537Y-21424D01*
X25556Y-21462D01*
X25575Y-21481D01*
X25613Y-21500D01*
X25670Y-21500D01*
X25365Y-21500D02*
X25365Y-21234D01*
X25365Y-21272D02*
X25346Y-21253D01*
X25308Y-21234D01*
X25251Y-21234D01*
X25213Y-21253D01*
X25194Y-21291D01*
X25194Y-21500D01*
X25194Y-21291D02*
X25175Y-21253D01*
X25137Y-21234D01*
X25080Y-21234D01*
X25041Y-21253D01*
X25022Y-21291D01*
X25022Y-21500D01*
X34545Y-34892D02*
X34488Y-34911D01*
X34469Y-34930D01*
X34450Y-34968D01*
X34450Y-35026D01*
X34469Y-35064D01*
X34488Y-35083D01*
X34526Y-35102D01*
X34679Y-35102D01*
X34679Y-34702D01*
X34545Y-34702D01*
X34507Y-34721D01*
X34488Y-34740D01*
X34469Y-34778D01*
X34469Y-34816D01*
X34488Y-34854D01*
X34507Y-34873D01*
X34545Y-34892D01*
X34679Y-34892D01*
X34203Y-34702D02*
X34126Y-34702D01*
X34088Y-34721D01*
X34050Y-34759D01*
X34031Y-34835D01*
X34031Y-34968D01*
X34050Y-35045D01*
X34088Y-35083D01*
X34126Y-35102D01*
X34203Y-35102D01*
X34241Y-35083D01*
X34279Y-35045D01*
X34298Y-34968D01*
X34298Y-34835D01*
X34279Y-34759D01*
X34241Y-34721D01*
X34203Y-34702D01*
X33917Y-34702D02*
X33688Y-34702D01*
X33803Y-35102D02*
X33803Y-34702D01*
X34697Y-19977D02*
X34468Y-19977D01*
X34582Y-20377D02*
X34582Y-19977D01*
X34258Y-19977D02*
X34182Y-19977D01*
X34144Y-19996D01*
X34106Y-20034D01*
X34087Y-20111D01*
X34087Y-20244D01*
X34106Y-20320D01*
X34144Y-20358D01*
X34182Y-20377D01*
X34258Y-20377D01*
X34297Y-20358D01*
X34335Y-20320D01*
X34354Y-20244D01*
X34354Y-20111D01*
X34335Y-20034D01*
X34297Y-19996D01*
X34258Y-19977D01*
X33916Y-20377D02*
X33916Y-19977D01*
X33763Y-19977D01*
X33725Y-19996D01*
X33706Y-20015D01*
X33687Y-20053D01*
X33687Y-20111D01*
X33706Y-20149D01*
X33725Y-20168D01*
X33763Y-20187D01*
X33916Y-20187D01*
G54D10*
X32457Y-26559D02*
X32457Y-28559D01*
X32457Y-28559D02*
X28057Y-28559D01*
X28057Y-28559D02*
X28057Y-26559D01*
X28057Y-26559D02*
X32457Y-26559D01*
X31185Y-27268D02*
X30792Y-27268D01*
X30792Y-27418D01*
X30811Y-27455D01*
X30829Y-27474D01*
X30867Y-27493D01*
X30923Y-27493D01*
X30961Y-27474D01*
X30979Y-27455D01*
X30998Y-27418D01*
X30998Y-27268D01*
X30961Y-27718D02*
X30942Y-27680D01*
X30923Y-27662D01*
X30886Y-27643D01*
X30867Y-27643D01*
X30829Y-27662D01*
X30811Y-27680D01*
X30792Y-27718D01*
X30792Y-27793D01*
X30811Y-27830D01*
X30829Y-27849D01*
X30867Y-27868D01*
X30886Y-27868D01*
X30923Y-27849D01*
X30942Y-27830D01*
X30961Y-27793D01*
X30961Y-27718D01*
X30979Y-27680D01*
X30998Y-27662D01*
X31035Y-27643D01*
X31110Y-27643D01*
X31148Y-27662D01*
X31167Y-27680D01*
X31185Y-27718D01*
X31185Y-27793D01*
X31167Y-27830D01*
X31148Y-27849D01*
X31110Y-27868D01*
X31035Y-27868D01*
X30998Y-27849D01*
X30979Y-27830D01*
X30961Y-27793D01*
M02*
