G04 (created by PCBNEW (2013-mar-13)-testing) date Tue 12 Nov 2013 05:22:57 PM PST*
%MOIN*%
G04 Gerber Fmt 3.4, Leading zero omitted, Abs format*
%FSLAX34Y34*%
G01*
G70*
G90*
G04 APERTURE LIST*
%ADD10C,0.005906*%
%ADD11C,0.065000*%
%ADD12R,0.060000X0.060000*%
%ADD13C,0.060000*%
%ADD14R,0.070000X0.070000*%
%ADD15C,0.070000*%
%ADD16C,0.135000*%
%ADD17C,0.035000*%
%ADD18C,0.015000*%
G04 APERTURE END LIST*
G54D10*
G54D11*
X20669Y-37838D03*
X20669Y-38838D03*
X20669Y-39838D03*
X20669Y-40838D03*
X20669Y-41838D03*
X20669Y-42838D03*
X20669Y-43838D03*
X20669Y-44838D03*
X26574Y-44838D03*
X26574Y-43838D03*
X26574Y-42838D03*
X26574Y-41838D03*
X26574Y-40838D03*
X26574Y-39838D03*
X26574Y-38838D03*
X26574Y-37838D03*
X20669Y-45712D03*
X20669Y-46712D03*
X20669Y-47712D03*
X20669Y-48712D03*
X20669Y-49712D03*
X20669Y-50712D03*
X20669Y-51712D03*
X20669Y-52712D03*
X26574Y-52712D03*
X26574Y-51712D03*
X26574Y-50712D03*
X26574Y-49712D03*
X26574Y-48712D03*
X26574Y-47712D03*
X26574Y-46712D03*
X26574Y-45712D03*
X28543Y-37838D03*
X28543Y-38838D03*
X28543Y-39838D03*
X28543Y-40838D03*
X28543Y-41838D03*
X28543Y-42838D03*
X28543Y-43838D03*
X28543Y-44838D03*
X34448Y-44838D03*
X34448Y-43838D03*
X34448Y-42838D03*
X34448Y-41838D03*
X34448Y-40838D03*
X34448Y-39838D03*
X34448Y-38838D03*
X34448Y-37838D03*
X28543Y-45712D03*
X28543Y-46712D03*
X28543Y-47712D03*
X28543Y-48712D03*
X28543Y-49712D03*
X28543Y-50712D03*
X28543Y-51712D03*
X28543Y-52712D03*
X34448Y-52712D03*
X34448Y-51712D03*
X34448Y-50712D03*
X34448Y-49712D03*
X34448Y-48712D03*
X34448Y-47712D03*
X34448Y-46712D03*
X34448Y-45712D03*
X20669Y-20122D03*
X20669Y-21122D03*
X20669Y-22122D03*
X20669Y-23122D03*
X20669Y-24122D03*
X20669Y-25122D03*
X20669Y-26122D03*
X20669Y-27122D03*
X26574Y-27122D03*
X26574Y-26122D03*
X26574Y-25122D03*
X26574Y-24122D03*
X26574Y-23122D03*
X26574Y-22122D03*
X26574Y-21122D03*
X26574Y-20122D03*
X20669Y-27996D03*
X20669Y-28996D03*
X20669Y-29996D03*
X20669Y-30996D03*
X20669Y-31996D03*
X20669Y-32996D03*
X20669Y-33996D03*
X20669Y-34996D03*
X26574Y-34996D03*
X26574Y-33996D03*
X26574Y-32996D03*
X26574Y-31996D03*
X26574Y-30996D03*
X26574Y-29996D03*
X26574Y-28996D03*
X26574Y-27996D03*
X28543Y-20122D03*
X28543Y-21122D03*
X28543Y-22122D03*
X28543Y-23122D03*
X28543Y-24122D03*
X28543Y-25122D03*
X28543Y-26122D03*
X28543Y-27122D03*
X34448Y-27122D03*
X34448Y-26122D03*
X34448Y-25122D03*
X34448Y-24122D03*
X34448Y-23122D03*
X34448Y-22122D03*
X34448Y-21122D03*
X34448Y-20122D03*
X28543Y-27996D03*
X28543Y-28996D03*
X28543Y-29996D03*
X28543Y-30996D03*
X28543Y-31996D03*
X28543Y-32996D03*
X28543Y-33996D03*
X28543Y-34996D03*
X34448Y-34996D03*
X34448Y-33996D03*
X34448Y-32996D03*
X34448Y-31996D03*
X34448Y-30996D03*
X34448Y-29996D03*
X34448Y-28996D03*
X34448Y-27996D03*
G54D12*
X21153Y-67224D03*
G54D13*
X22153Y-67224D03*
G54D12*
X21122Y-57086D03*
G54D13*
X22122Y-57086D03*
X23122Y-57086D03*
X24122Y-57086D03*
X25122Y-57086D03*
X26122Y-57086D03*
G54D12*
X25090Y-67224D03*
G54D13*
X26090Y-67224D03*
G54D12*
X21122Y-61023D03*
G54D13*
X22122Y-61023D03*
X23122Y-61023D03*
X24122Y-61023D03*
X25122Y-61023D03*
X26122Y-61023D03*
G54D12*
X25090Y-69389D03*
G54D13*
X26090Y-69389D03*
G54D12*
X28996Y-57086D03*
G54D13*
X29996Y-57086D03*
X30996Y-57086D03*
X31996Y-57086D03*
X32996Y-57086D03*
X33996Y-57086D03*
G54D12*
X21153Y-69389D03*
G54D13*
X22153Y-69389D03*
G54D12*
X28996Y-61023D03*
G54D13*
X29996Y-61023D03*
X30996Y-61023D03*
X31996Y-61023D03*
X32996Y-61023D03*
X33996Y-61023D03*
G54D14*
X30496Y-68807D03*
G54D15*
X30496Y-67807D03*
X31496Y-68807D03*
X31496Y-67807D03*
X32496Y-68807D03*
X32496Y-67807D03*
G54D14*
X31996Y-50212D03*
G54D15*
X30996Y-50212D03*
X31996Y-49212D03*
X30996Y-49212D03*
X31996Y-48212D03*
X30996Y-48212D03*
G54D14*
X31996Y-42338D03*
G54D15*
X30996Y-42338D03*
X31996Y-41338D03*
X30996Y-41338D03*
X31996Y-40338D03*
X30996Y-40338D03*
G54D14*
X24122Y-50212D03*
G54D15*
X23122Y-50212D03*
X24122Y-49212D03*
X23122Y-49212D03*
X24122Y-48212D03*
X23122Y-48212D03*
G54D14*
X24122Y-42338D03*
G54D15*
X23122Y-42338D03*
X24122Y-41338D03*
X23122Y-41338D03*
X24122Y-40338D03*
X23122Y-40338D03*
G54D16*
X18700Y-18700D03*
X36417Y-18700D03*
X36417Y-71850D03*
X18700Y-71850D03*
G54D17*
X32882Y-50280D03*
X23232Y-46467D03*
X24216Y-38480D03*
X26072Y-36781D03*
X30062Y-46193D03*
X26664Y-35916D03*
X24573Y-39836D03*
X26162Y-36216D03*
X27713Y-36389D03*
X33144Y-63386D03*
X30216Y-63357D03*
X30967Y-44299D03*
X30403Y-26710D03*
X30929Y-51424D03*
X25078Y-33062D03*
X22882Y-43218D03*
X23232Y-51532D03*
X21647Y-42644D03*
X23646Y-55255D03*
X33813Y-51043D03*
X24929Y-40837D03*
X21953Y-43227D03*
X23358Y-38468D03*
X25100Y-34970D03*
X25588Y-27615D03*
G54D18*
X25090Y-67224D02*
X25565Y-67224D01*
X25090Y-68678D02*
X25090Y-69389D01*
X25962Y-67807D02*
X25090Y-68678D01*
X30496Y-67807D02*
X25962Y-67807D01*
X25565Y-67410D02*
X25565Y-67224D01*
X25962Y-67807D02*
X25565Y-67410D01*
X31521Y-50737D02*
X30996Y-50212D01*
X32425Y-50737D02*
X31521Y-50737D01*
X32882Y-50280D02*
X32425Y-50737D01*
X22594Y-47105D02*
X23232Y-46467D01*
X22594Y-49685D02*
X22594Y-47105D01*
X23122Y-50212D02*
X22594Y-49685D01*
X26574Y-40838D02*
X24216Y-38480D01*
X25809Y-36518D02*
X26072Y-36781D01*
X25809Y-31761D02*
X25809Y-36518D01*
X26574Y-30996D02*
X25809Y-31761D01*
X21942Y-31269D02*
X20669Y-29996D01*
X21942Y-35494D02*
X21942Y-31269D01*
X20712Y-36724D02*
X21942Y-35494D01*
X20362Y-36724D02*
X20712Y-36724D01*
X19660Y-37427D02*
X20362Y-36724D01*
X19660Y-46703D02*
X19660Y-37427D01*
X20669Y-47712D02*
X19660Y-46703D01*
X29301Y-22879D02*
X28543Y-22122D01*
X29301Y-29870D02*
X29301Y-22879D01*
X29551Y-30120D02*
X29301Y-29870D01*
X29551Y-36107D02*
X29551Y-30120D01*
X28019Y-37639D02*
X29551Y-36107D01*
X28019Y-39314D02*
X28019Y-37639D01*
X28543Y-39838D02*
X28019Y-39314D01*
X28543Y-47712D02*
X30062Y-46193D01*
X21692Y-32019D02*
X20669Y-30996D01*
X21692Y-35390D02*
X21692Y-32019D01*
X20608Y-36474D02*
X21692Y-35390D01*
X20233Y-36474D02*
X20608Y-36474D01*
X19409Y-37297D02*
X20233Y-36474D01*
X19409Y-47453D02*
X19409Y-37297D01*
X20669Y-48712D02*
X19409Y-47453D01*
X29045Y-40336D02*
X28543Y-40838D01*
X29045Y-38619D02*
X29045Y-40336D01*
X30301Y-37363D02*
X29045Y-38619D01*
X30301Y-29809D02*
X30301Y-37363D01*
X30053Y-29561D02*
X30301Y-29809D01*
X30053Y-20570D02*
X30053Y-29561D01*
X28840Y-19357D02*
X30053Y-20570D01*
X28234Y-19357D02*
X28840Y-19357D01*
X27793Y-19798D02*
X28234Y-19357D01*
X27793Y-22371D02*
X27793Y-19798D01*
X28543Y-23122D02*
X27793Y-22371D01*
X29043Y-31496D02*
X28543Y-30996D01*
X29043Y-35907D02*
X29043Y-31496D01*
X27515Y-37435D02*
X29043Y-35907D01*
X27515Y-39803D02*
X27515Y-37435D01*
X27755Y-40042D02*
X27515Y-39803D01*
X27755Y-43985D02*
X27755Y-40042D01*
X28030Y-44260D02*
X27755Y-43985D01*
X28030Y-47906D02*
X28030Y-44260D01*
X28543Y-48419D02*
X28030Y-47906D01*
X28543Y-48712D02*
X28543Y-48419D01*
X27076Y-21623D02*
X26574Y-21122D01*
X27076Y-22746D02*
X27076Y-21623D01*
X27326Y-22997D02*
X27076Y-22746D01*
X27326Y-35750D02*
X27326Y-22997D01*
X26422Y-36654D02*
X27326Y-35750D01*
X26422Y-36926D02*
X26422Y-36654D01*
X26067Y-37281D02*
X26422Y-36926D01*
X26067Y-38331D02*
X26067Y-37281D01*
X26574Y-38838D02*
X26067Y-38331D01*
X35972Y-22645D02*
X34448Y-21122D01*
X35972Y-35601D02*
X35972Y-22645D01*
X33948Y-37625D02*
X35972Y-35601D01*
X33948Y-38338D02*
X33948Y-37625D01*
X34448Y-38838D02*
X33948Y-38338D01*
X27326Y-20873D02*
X26574Y-20122D01*
X27326Y-22518D02*
X27326Y-20873D01*
X27576Y-22768D02*
X27326Y-22518D01*
X27576Y-35853D02*
X27576Y-22768D01*
X26672Y-36757D02*
X27576Y-35853D01*
X26672Y-37740D02*
X26672Y-36757D01*
X26574Y-37838D02*
X26672Y-37740D01*
X27074Y-35506D02*
X26664Y-35916D01*
X27074Y-28496D02*
X27074Y-35506D01*
X26574Y-27996D02*
X27074Y-28496D01*
X36222Y-21895D02*
X34448Y-20122D01*
X36222Y-36064D02*
X36222Y-21895D01*
X34448Y-37838D02*
X36222Y-36064D01*
X18659Y-50702D02*
X20669Y-52712D01*
X18659Y-36961D02*
X18659Y-50702D01*
X20625Y-34996D02*
X18659Y-36961D01*
X20669Y-34996D02*
X20625Y-34996D01*
X28543Y-36054D02*
X28543Y-34996D01*
X27265Y-37332D02*
X28543Y-36054D01*
X27265Y-40158D02*
X27265Y-37332D01*
X27505Y-40397D02*
X27265Y-40158D01*
X27505Y-44509D02*
X27505Y-40397D01*
X27779Y-44784D02*
X27505Y-44509D01*
X27779Y-48035D02*
X27779Y-44784D01*
X27860Y-48115D02*
X27779Y-48035D01*
X27860Y-52029D02*
X27860Y-48115D01*
X28543Y-52712D02*
X27860Y-52029D01*
X26574Y-41838D02*
X24573Y-39836D01*
X26073Y-32496D02*
X26574Y-31996D01*
X26073Y-36127D02*
X26073Y-32496D01*
X26162Y-36216D02*
X26073Y-36127D01*
X35722Y-25395D02*
X34448Y-24122D01*
X35722Y-35497D02*
X35722Y-25395D01*
X33697Y-37522D02*
X35722Y-35497D01*
X33697Y-41087D02*
X33697Y-37522D01*
X34448Y-41838D02*
X33697Y-41087D01*
X29801Y-36580D02*
X28543Y-37838D01*
X29801Y-30016D02*
X29801Y-36580D01*
X29553Y-29768D02*
X29801Y-30016D01*
X29553Y-21131D02*
X29553Y-29768D01*
X28543Y-20122D02*
X29553Y-21131D01*
X28043Y-36059D02*
X27713Y-36389D01*
X28043Y-28496D02*
X28043Y-36059D01*
X28543Y-27996D02*
X28043Y-28496D01*
X22443Y-27895D02*
X20669Y-26122D01*
X22443Y-35701D02*
X22443Y-27895D01*
X20919Y-37225D02*
X22443Y-35701D01*
X20569Y-37225D02*
X20919Y-37225D01*
X20160Y-37634D02*
X20569Y-37225D01*
X20160Y-43329D02*
X20160Y-37634D01*
X20669Y-43838D02*
X20160Y-43329D01*
X18909Y-49952D02*
X20669Y-51712D01*
X18909Y-37066D02*
X18909Y-49952D01*
X20200Y-35775D02*
X18909Y-37066D01*
X20600Y-35775D02*
X20200Y-35775D01*
X21192Y-35183D02*
X20600Y-35775D01*
X21192Y-34519D02*
X21192Y-35183D01*
X20669Y-33996D02*
X21192Y-34519D01*
X29043Y-26622D02*
X28543Y-26122D01*
X29043Y-30429D02*
X29043Y-26622D01*
X29293Y-30679D02*
X29043Y-30429D01*
X29293Y-36011D02*
X29293Y-30679D01*
X27766Y-37539D02*
X29293Y-36011D01*
X27766Y-39522D02*
X27766Y-37539D01*
X28008Y-39764D02*
X27766Y-39522D01*
X28008Y-43303D02*
X28008Y-39764D01*
X28543Y-43838D02*
X28008Y-43303D01*
X22192Y-30519D02*
X20669Y-28996D01*
X22192Y-35597D02*
X22192Y-30519D01*
X20815Y-36974D02*
X22192Y-35597D01*
X20466Y-36974D02*
X20815Y-36974D01*
X19910Y-37530D02*
X20466Y-36974D01*
X19910Y-45953D02*
X19910Y-37530D01*
X20669Y-46712D02*
X19910Y-45953D01*
X28543Y-38725D02*
X28543Y-38838D01*
X30051Y-37217D02*
X28543Y-38725D01*
X30051Y-29913D02*
X30051Y-37217D01*
X29803Y-29665D02*
X30051Y-29913D01*
X29803Y-20673D02*
X29803Y-29665D01*
X28736Y-19607D02*
X29803Y-20673D01*
X28337Y-19607D02*
X28736Y-19607D01*
X28043Y-19901D02*
X28337Y-19607D01*
X28043Y-20621D02*
X28043Y-19901D01*
X28543Y-21122D02*
X28043Y-20621D01*
X30246Y-63386D02*
X30216Y-63357D01*
X33144Y-63386D02*
X30246Y-63386D01*
X21442Y-32769D02*
X20669Y-31996D01*
X21442Y-35286D02*
X21442Y-32769D01*
X20504Y-36224D02*
X21442Y-35286D01*
X20119Y-36224D02*
X20504Y-36224D01*
X19159Y-37184D02*
X20119Y-36224D01*
X19159Y-48203D02*
X19159Y-37184D01*
X20669Y-49712D02*
X19159Y-48203D01*
X22826Y-42863D02*
X22239Y-42276D01*
X23596Y-42863D02*
X22826Y-42863D01*
X24122Y-42338D02*
X23596Y-42863D01*
X21231Y-42276D02*
X20669Y-42838D01*
X22239Y-42276D02*
X21231Y-42276D01*
X22693Y-27145D02*
X20669Y-25122D01*
X22693Y-35804D02*
X22693Y-27145D01*
X22239Y-36258D02*
X22693Y-35804D01*
X22239Y-42276D02*
X22239Y-36258D01*
X20696Y-50740D02*
X20669Y-50712D01*
X23594Y-50740D02*
X20696Y-50740D01*
X24122Y-50212D02*
X23594Y-50740D01*
X30756Y-44299D02*
X30967Y-44299D01*
X29295Y-42838D02*
X30756Y-44299D01*
X29295Y-42838D02*
X29295Y-42838D01*
X28543Y-42838D02*
X29295Y-42838D01*
X30560Y-26867D02*
X30403Y-26710D01*
X30560Y-37494D02*
X30560Y-26867D01*
X29295Y-38759D02*
X30560Y-37494D01*
X29295Y-42838D02*
X29295Y-38759D01*
X29254Y-51424D02*
X30929Y-51424D01*
X28543Y-50712D02*
X29254Y-51424D01*
X22594Y-40810D02*
X23122Y-41338D01*
X22594Y-37102D02*
X22594Y-40810D01*
X23174Y-36522D02*
X22594Y-37102D01*
X23174Y-34966D02*
X23174Y-36522D01*
X25078Y-33062D02*
X23174Y-34966D01*
X23503Y-43838D02*
X26574Y-43838D01*
X22882Y-43218D02*
X23503Y-43838D01*
X26395Y-51532D02*
X26574Y-51712D01*
X23232Y-51532D02*
X26395Y-51532D01*
X35222Y-26895D02*
X34448Y-26122D01*
X35222Y-35287D02*
X35222Y-26895D01*
X30465Y-40043D02*
X35222Y-35287D01*
X30465Y-40808D02*
X30465Y-40043D01*
X30996Y-41338D02*
X30465Y-40808D01*
X33473Y-42863D02*
X34448Y-43838D01*
X30769Y-42863D02*
X33473Y-42863D01*
X30461Y-42556D02*
X30769Y-42863D01*
X30461Y-41873D02*
X30461Y-42556D01*
X30996Y-41338D02*
X30461Y-41873D01*
X30470Y-48687D02*
X30996Y-49212D01*
X30470Y-45310D02*
X30470Y-48687D01*
X31336Y-44444D02*
X30470Y-45310D01*
X31336Y-44163D02*
X31336Y-44444D01*
X30787Y-43614D02*
X31336Y-44163D01*
X30428Y-43614D02*
X30787Y-43614D01*
X29711Y-42896D02*
X30428Y-43614D01*
X29711Y-38733D02*
X29711Y-42896D01*
X34448Y-33996D02*
X29711Y-38733D01*
X31737Y-51712D02*
X34448Y-51712D01*
X30464Y-50439D02*
X31737Y-51712D01*
X30464Y-49743D02*
X30464Y-50439D01*
X30996Y-49212D02*
X30464Y-49743D01*
X24008Y-44838D02*
X26574Y-44838D01*
X22532Y-43363D02*
X24008Y-44838D01*
X22532Y-43311D02*
X22532Y-43363D01*
X21865Y-42644D02*
X22532Y-43311D01*
X21647Y-42644D02*
X21865Y-42644D01*
X27351Y-53857D02*
X24122Y-57086D01*
X27351Y-48346D02*
X27351Y-53857D01*
X27108Y-48103D02*
X27351Y-48346D01*
X27108Y-45372D02*
X27108Y-48103D01*
X26574Y-44838D02*
X27108Y-45372D01*
X26189Y-52712D02*
X23646Y-55255D01*
X26574Y-52712D02*
X26189Y-52712D01*
X34949Y-54132D02*
X31996Y-57086D01*
X34949Y-45339D02*
X34949Y-54132D01*
X34448Y-44838D02*
X34949Y-45339D01*
X31496Y-55665D02*
X34448Y-52712D01*
X31496Y-60523D02*
X31496Y-55665D01*
X31996Y-61023D02*
X31496Y-60523D01*
X33563Y-50793D02*
X33813Y-51043D01*
X33563Y-46025D02*
X33563Y-50793D01*
X30901Y-43364D02*
X33563Y-46025D01*
X30532Y-43364D02*
X30901Y-43364D01*
X29961Y-42793D02*
X30532Y-43364D01*
X29961Y-39483D02*
X29961Y-42793D01*
X34448Y-34996D02*
X29961Y-39483D01*
X24122Y-41338D02*
X24929Y-41338D01*
X25074Y-41338D02*
X26574Y-42838D01*
X24929Y-41338D02*
X25074Y-41338D01*
X24929Y-41338D02*
X24929Y-40837D01*
X24664Y-45938D02*
X21953Y-43227D01*
X24664Y-49212D02*
X24664Y-45938D01*
X24122Y-49212D02*
X24664Y-49212D01*
X25074Y-49212D02*
X26574Y-50712D01*
X24664Y-49212D02*
X25074Y-49212D01*
X25100Y-36726D02*
X25100Y-34970D01*
X23358Y-38468D02*
X25100Y-36726D01*
X31996Y-41338D02*
X32948Y-41338D01*
X32948Y-41338D02*
X34448Y-42838D01*
X35472Y-26145D02*
X34448Y-25122D01*
X35472Y-35394D02*
X35472Y-26145D01*
X32948Y-37917D02*
X35472Y-35394D01*
X32948Y-41338D02*
X32948Y-37917D01*
X34448Y-50927D02*
X34448Y-50712D01*
X33963Y-51412D02*
X34448Y-50927D01*
X33671Y-51412D02*
X33963Y-51412D01*
X33232Y-50973D02*
X33671Y-51412D01*
X33232Y-50129D02*
X33232Y-50973D01*
X32315Y-49212D02*
X33232Y-50129D01*
X31996Y-49212D02*
X32315Y-49212D01*
X33938Y-50202D02*
X34448Y-50712D01*
X33938Y-46046D02*
X33938Y-50202D01*
X31005Y-43113D02*
X33938Y-46046D01*
X30635Y-43113D02*
X31005Y-43113D01*
X30211Y-42689D02*
X30635Y-43113D01*
X30211Y-39944D02*
X30211Y-42689D01*
X34972Y-35183D02*
X30211Y-39944D01*
X34972Y-33519D02*
X34972Y-35183D01*
X34448Y-32996D02*
X34972Y-33519D01*
X25955Y-22741D02*
X26574Y-22122D01*
X25955Y-27766D02*
X25955Y-22741D01*
X25559Y-28162D02*
X25955Y-27766D01*
X25559Y-38822D02*
X25559Y-28162D01*
X26574Y-39838D02*
X25559Y-38822D01*
X27601Y-54607D02*
X25122Y-57086D01*
X27601Y-48242D02*
X27601Y-54607D01*
X27529Y-48170D02*
X27601Y-48242D01*
X27529Y-45298D02*
X27529Y-48170D01*
X27134Y-44903D02*
X27529Y-45298D01*
X27134Y-40398D02*
X27134Y-44903D01*
X26574Y-39838D02*
X27134Y-40398D01*
X22622Y-59443D02*
X21124Y-57946D01*
X22622Y-61217D02*
X22622Y-59443D01*
X22904Y-61499D02*
X22622Y-61217D01*
X24646Y-61499D02*
X22904Y-61499D01*
X25122Y-61023D02*
X24646Y-61499D01*
X26574Y-47928D02*
X26574Y-47712D01*
X27101Y-48455D02*
X26574Y-47928D01*
X27101Y-52913D02*
X27101Y-48455D01*
X24409Y-55605D02*
X27101Y-52913D01*
X22930Y-55605D02*
X24409Y-55605D01*
X21641Y-56895D02*
X22930Y-55605D01*
X21641Y-57430D02*
X21641Y-56895D01*
X21124Y-57946D02*
X21641Y-57430D01*
X18409Y-55231D02*
X21124Y-57946D01*
X18409Y-21670D02*
X18409Y-55231D01*
X20460Y-19618D02*
X18409Y-21670D01*
X20903Y-19618D02*
X20460Y-19618D01*
X25588Y-24304D02*
X20903Y-19618D01*
X25588Y-27615D02*
X25588Y-24304D01*
X35199Y-40589D02*
X34448Y-39838D01*
X35199Y-54882D02*
X35199Y-40589D01*
X32996Y-57086D02*
X35199Y-54882D01*
X33517Y-67785D02*
X32496Y-68807D01*
X33517Y-57564D02*
X33517Y-67785D01*
X33996Y-57086D02*
X33517Y-57564D01*
X29996Y-57086D02*
X28996Y-57086D01*
X28045Y-57561D02*
X28520Y-57086D01*
X22597Y-57561D02*
X28045Y-57561D01*
X22122Y-57086D02*
X22597Y-57561D01*
X28996Y-57086D02*
X28520Y-57086D01*
X28996Y-61023D02*
X29471Y-61023D01*
X29864Y-65175D02*
X32496Y-67807D01*
X29864Y-61023D02*
X29864Y-65175D01*
X29996Y-61023D02*
X29864Y-61023D01*
X29864Y-61023D02*
X29471Y-61023D01*
X25615Y-69864D02*
X26090Y-69389D01*
X21948Y-69864D02*
X25615Y-69864D01*
X21668Y-69585D02*
X21948Y-69864D01*
X21668Y-66414D02*
X21668Y-69585D01*
X30996Y-57086D02*
X21668Y-66414D01*
X30520Y-60548D02*
X30996Y-61023D01*
X28612Y-60548D02*
X30520Y-60548D01*
X23769Y-65391D02*
X28612Y-60548D01*
X23769Y-67773D02*
X23769Y-65391D01*
X22153Y-69389D02*
X23769Y-67773D01*
M02*
