G04 (created by PCBNEW (2013-mar-13)-testing) date Tue 12 Nov 2013 05:22:57 PM PST*
%MOIN*%
G04 Gerber Fmt 3.4, Leading zero omitted, Abs format*
%FSLAX34Y34*%
G01*
G70*
G90*
G04 APERTURE LIST*
%ADD10C,0.005906*%
%ADD11C,0.065000*%
%ADD12R,0.060000X0.060000*%
%ADD13C,0.060000*%
%ADD14R,0.070000X0.070000*%
%ADD15C,0.070000*%
%ADD16C,0.135000*%
G04 APERTURE END LIST*
G54D10*
G54D11*
X20669Y-37838D03*
X20669Y-38838D03*
X20669Y-39838D03*
X20669Y-40838D03*
X20669Y-41838D03*
X20669Y-42838D03*
X20669Y-43838D03*
X20669Y-44838D03*
X26574Y-44838D03*
X26574Y-43838D03*
X26574Y-42838D03*
X26574Y-41838D03*
X26574Y-40838D03*
X26574Y-39838D03*
X26574Y-38838D03*
X26574Y-37838D03*
X20669Y-45712D03*
X20669Y-46712D03*
X20669Y-47712D03*
X20669Y-48712D03*
X20669Y-49712D03*
X20669Y-50712D03*
X20669Y-51712D03*
X20669Y-52712D03*
X26574Y-52712D03*
X26574Y-51712D03*
X26574Y-50712D03*
X26574Y-49712D03*
X26574Y-48712D03*
X26574Y-47712D03*
X26574Y-46712D03*
X26574Y-45712D03*
X28543Y-37838D03*
X28543Y-38838D03*
X28543Y-39838D03*
X28543Y-40838D03*
X28543Y-41838D03*
X28543Y-42838D03*
X28543Y-43838D03*
X28543Y-44838D03*
X34448Y-44838D03*
X34448Y-43838D03*
X34448Y-42838D03*
X34448Y-41838D03*
X34448Y-40838D03*
X34448Y-39838D03*
X34448Y-38838D03*
X34448Y-37838D03*
X28543Y-45712D03*
X28543Y-46712D03*
X28543Y-47712D03*
X28543Y-48712D03*
X28543Y-49712D03*
X28543Y-50712D03*
X28543Y-51712D03*
X28543Y-52712D03*
X34448Y-52712D03*
X34448Y-51712D03*
X34448Y-50712D03*
X34448Y-49712D03*
X34448Y-48712D03*
X34448Y-47712D03*
X34448Y-46712D03*
X34448Y-45712D03*
X20669Y-20122D03*
X20669Y-21122D03*
X20669Y-22122D03*
X20669Y-23122D03*
X20669Y-24122D03*
X20669Y-25122D03*
X20669Y-26122D03*
X20669Y-27122D03*
X26574Y-27122D03*
X26574Y-26122D03*
X26574Y-25122D03*
X26574Y-24122D03*
X26574Y-23122D03*
X26574Y-22122D03*
X26574Y-21122D03*
X26574Y-20122D03*
X20669Y-27996D03*
X20669Y-28996D03*
X20669Y-29996D03*
X20669Y-30996D03*
X20669Y-31996D03*
X20669Y-32996D03*
X20669Y-33996D03*
X20669Y-34996D03*
X26574Y-34996D03*
X26574Y-33996D03*
X26574Y-32996D03*
X26574Y-31996D03*
X26574Y-30996D03*
X26574Y-29996D03*
X26574Y-28996D03*
X26574Y-27996D03*
X28543Y-20122D03*
X28543Y-21122D03*
X28543Y-22122D03*
X28543Y-23122D03*
X28543Y-24122D03*
X28543Y-25122D03*
X28543Y-26122D03*
X28543Y-27122D03*
X34448Y-27122D03*
X34448Y-26122D03*
X34448Y-25122D03*
X34448Y-24122D03*
X34448Y-23122D03*
X34448Y-22122D03*
X34448Y-21122D03*
X34448Y-20122D03*
X28543Y-27996D03*
X28543Y-28996D03*
X28543Y-29996D03*
X28543Y-30996D03*
X28543Y-31996D03*
X28543Y-32996D03*
X28543Y-33996D03*
X28543Y-34996D03*
X34448Y-34996D03*
X34448Y-33996D03*
X34448Y-32996D03*
X34448Y-31996D03*
X34448Y-30996D03*
X34448Y-29996D03*
X34448Y-28996D03*
X34448Y-27996D03*
G54D12*
X21153Y-67224D03*
G54D13*
X22153Y-67224D03*
G54D12*
X21122Y-57086D03*
G54D13*
X22122Y-57086D03*
X23122Y-57086D03*
X24122Y-57086D03*
X25122Y-57086D03*
X26122Y-57086D03*
G54D12*
X25090Y-67224D03*
G54D13*
X26090Y-67224D03*
G54D12*
X21122Y-61023D03*
G54D13*
X22122Y-61023D03*
X23122Y-61023D03*
X24122Y-61023D03*
X25122Y-61023D03*
X26122Y-61023D03*
G54D12*
X25090Y-69389D03*
G54D13*
X26090Y-69389D03*
G54D12*
X28996Y-57086D03*
G54D13*
X29996Y-57086D03*
X30996Y-57086D03*
X31996Y-57086D03*
X32996Y-57086D03*
X33996Y-57086D03*
G54D12*
X21153Y-69389D03*
G54D13*
X22153Y-69389D03*
G54D12*
X28996Y-61023D03*
G54D13*
X29996Y-61023D03*
X30996Y-61023D03*
X31996Y-61023D03*
X32996Y-61023D03*
X33996Y-61023D03*
G54D14*
X30496Y-68807D03*
G54D15*
X30496Y-67807D03*
X31496Y-68807D03*
X31496Y-67807D03*
X32496Y-68807D03*
X32496Y-67807D03*
G54D14*
X31996Y-50212D03*
G54D15*
X30996Y-50212D03*
X31996Y-49212D03*
X30996Y-49212D03*
X31996Y-48212D03*
X30996Y-48212D03*
G54D14*
X31996Y-42338D03*
G54D15*
X30996Y-42338D03*
X31996Y-41338D03*
X30996Y-41338D03*
X31996Y-40338D03*
X30996Y-40338D03*
G54D14*
X24122Y-50212D03*
G54D15*
X23122Y-50212D03*
X24122Y-49212D03*
X23122Y-49212D03*
X24122Y-48212D03*
X23122Y-48212D03*
G54D14*
X24122Y-42338D03*
G54D15*
X23122Y-42338D03*
X24122Y-41338D03*
X23122Y-41338D03*
X24122Y-40338D03*
X23122Y-40338D03*
G54D16*
X18700Y-18700D03*
X36417Y-18700D03*
X36417Y-71850D03*
X18700Y-71850D03*
M02*
