G04 (created by PCBNEW (2013-mar-13)-testing) date Tue 12 Nov 2013 05:22:57 PM PST*
%MOIN*%
G04 Gerber Fmt 3.4, Leading zero omitted, Abs format*
%FSLAX34Y34*%
G01*
G70*
G90*
G04 APERTURE LIST*
%ADD10C,0.005906*%
%ADD11C,0.010000*%
%ADD12C,0.027559*%
%ADD13C,0.006000*%
%ADD14C,0.012000*%
%ADD15C,0.011811*%
%ADD16C,0.015000*%
%ADD17C,0.008000*%
G04 APERTURE END LIST*
G54D10*
G54D11*
X24390Y-18442D02*
X24486Y-18776D01*
X24581Y-18538D01*
X24676Y-18776D01*
X24771Y-18442D01*
X24914Y-18442D02*
X25010Y-18776D01*
X25105Y-18538D01*
X25200Y-18776D01*
X25295Y-18442D01*
X25438Y-18442D02*
X25533Y-18776D01*
X25629Y-18538D01*
X25724Y-18776D01*
X25819Y-18442D01*
X26010Y-18728D02*
X26033Y-18752D01*
X26010Y-18776D01*
X25986Y-18752D01*
X26010Y-18728D01*
X26010Y-18776D01*
X26248Y-18776D02*
X26248Y-18442D01*
X26248Y-18276D02*
X26224Y-18300D01*
X26248Y-18323D01*
X26271Y-18300D01*
X26248Y-18276D01*
X26248Y-18323D01*
X26557Y-18776D02*
X26510Y-18752D01*
X26486Y-18728D01*
X26462Y-18680D01*
X26462Y-18538D01*
X26486Y-18490D01*
X26510Y-18466D01*
X26557Y-18442D01*
X26629Y-18442D01*
X26676Y-18466D01*
X26700Y-18490D01*
X26724Y-18538D01*
X26724Y-18680D01*
X26700Y-18728D01*
X26676Y-18752D01*
X26629Y-18776D01*
X26557Y-18776D01*
X26938Y-18776D02*
X26938Y-18442D01*
X26938Y-18538D02*
X26962Y-18490D01*
X26986Y-18466D01*
X27033Y-18442D01*
X27081Y-18442D01*
X27319Y-18776D02*
X27271Y-18752D01*
X27248Y-18728D01*
X27224Y-18680D01*
X27224Y-18538D01*
X27248Y-18490D01*
X27271Y-18466D01*
X27319Y-18442D01*
X27390Y-18442D01*
X27438Y-18466D01*
X27462Y-18490D01*
X27486Y-18538D01*
X27486Y-18680D01*
X27462Y-18728D01*
X27438Y-18752D01*
X27390Y-18776D01*
X27319Y-18776D01*
X27914Y-18776D02*
X27914Y-18276D01*
X27914Y-18752D02*
X27867Y-18776D01*
X27771Y-18776D01*
X27724Y-18752D01*
X27700Y-18728D01*
X27676Y-18680D01*
X27676Y-18538D01*
X27700Y-18490D01*
X27724Y-18466D01*
X27771Y-18442D01*
X27867Y-18442D01*
X27914Y-18466D01*
X28343Y-18752D02*
X28295Y-18776D01*
X28200Y-18776D01*
X28152Y-18752D01*
X28129Y-18704D01*
X28129Y-18514D01*
X28152Y-18466D01*
X28200Y-18442D01*
X28295Y-18442D01*
X28343Y-18466D01*
X28367Y-18514D01*
X28367Y-18561D01*
X28129Y-18609D01*
X28652Y-18776D02*
X28605Y-18752D01*
X28581Y-18728D01*
X28557Y-18680D01*
X28557Y-18538D01*
X28581Y-18490D01*
X28605Y-18466D01*
X28652Y-18442D01*
X28724Y-18442D01*
X28771Y-18466D01*
X28795Y-18490D01*
X28819Y-18538D01*
X28819Y-18680D01*
X28795Y-18728D01*
X28771Y-18752D01*
X28724Y-18776D01*
X28652Y-18776D01*
X29033Y-18728D02*
X29057Y-18752D01*
X29033Y-18776D01*
X29010Y-18752D01*
X29033Y-18728D01*
X29033Y-18776D01*
X29486Y-18752D02*
X29438Y-18776D01*
X29343Y-18776D01*
X29295Y-18752D01*
X29271Y-18728D01*
X29248Y-18680D01*
X29248Y-18538D01*
X29271Y-18490D01*
X29295Y-18466D01*
X29343Y-18442D01*
X29438Y-18442D01*
X29486Y-18466D01*
X29771Y-18776D02*
X29724Y-18752D01*
X29700Y-18728D01*
X29676Y-18680D01*
X29676Y-18538D01*
X29700Y-18490D01*
X29724Y-18466D01*
X29771Y-18442D01*
X29843Y-18442D01*
X29890Y-18466D01*
X29914Y-18490D01*
X29938Y-18538D01*
X29938Y-18680D01*
X29914Y-18728D01*
X29890Y-18752D01*
X29843Y-18776D01*
X29771Y-18776D01*
X30152Y-18776D02*
X30152Y-18442D01*
X30152Y-18490D02*
X30176Y-18466D01*
X30224Y-18442D01*
X30295Y-18442D01*
X30343Y-18466D01*
X30367Y-18514D01*
X30367Y-18776D01*
X30367Y-18514D02*
X30390Y-18466D01*
X30438Y-18442D01*
X30510Y-18442D01*
X30557Y-18466D01*
X30581Y-18514D01*
X30581Y-18776D01*
X24380Y-71307D02*
X24380Y-71641D01*
X24261Y-71117D02*
X24142Y-71474D01*
X24452Y-71474D01*
X24595Y-71641D02*
X24856Y-71307D01*
X24595Y-71307D02*
X24856Y-71641D01*
X25023Y-71188D02*
X25047Y-71165D01*
X25095Y-71141D01*
X25214Y-71141D01*
X25261Y-71165D01*
X25285Y-71188D01*
X25309Y-71236D01*
X25309Y-71284D01*
X25285Y-71355D01*
X24999Y-71641D01*
X25309Y-71641D01*
X25618Y-71141D02*
X25666Y-71141D01*
X25714Y-71165D01*
X25737Y-71188D01*
X25761Y-71236D01*
X25785Y-71331D01*
X25785Y-71450D01*
X25761Y-71545D01*
X25737Y-71593D01*
X25714Y-71617D01*
X25666Y-71641D01*
X25618Y-71641D01*
X25571Y-71617D01*
X25547Y-71593D01*
X25523Y-71545D01*
X25499Y-71450D01*
X25499Y-71331D01*
X25523Y-71236D01*
X25547Y-71188D01*
X25571Y-71165D01*
X25618Y-71141D01*
X25999Y-71641D02*
X25999Y-71307D01*
X25999Y-71355D02*
X26023Y-71331D01*
X26071Y-71307D01*
X26142Y-71307D01*
X26190Y-71331D01*
X26214Y-71379D01*
X26214Y-71641D01*
X26214Y-71379D02*
X26237Y-71331D01*
X26285Y-71307D01*
X26356Y-71307D01*
X26404Y-71331D01*
X26428Y-71379D01*
X26428Y-71641D01*
X26666Y-71641D02*
X26666Y-71307D01*
X26666Y-71355D02*
X26690Y-71331D01*
X26737Y-71307D01*
X26809Y-71307D01*
X26856Y-71331D01*
X26880Y-71379D01*
X26880Y-71641D01*
X26880Y-71379D02*
X26904Y-71331D01*
X26952Y-71307D01*
X27023Y-71307D01*
X27071Y-71331D01*
X27095Y-71379D01*
X27095Y-71641D01*
X27928Y-71641D02*
X27928Y-71379D01*
X27904Y-71331D01*
X27856Y-71307D01*
X27761Y-71307D01*
X27714Y-71331D01*
X27928Y-71617D02*
X27880Y-71641D01*
X27761Y-71641D01*
X27714Y-71617D01*
X27690Y-71569D01*
X27690Y-71522D01*
X27714Y-71474D01*
X27761Y-71450D01*
X27880Y-71450D01*
X27928Y-71426D01*
X28095Y-71307D02*
X28285Y-71307D01*
X28166Y-71141D02*
X28166Y-71569D01*
X28190Y-71617D01*
X28237Y-71641D01*
X28285Y-71641D01*
X28452Y-71641D02*
X28452Y-71307D01*
X28452Y-71355D02*
X28475Y-71331D01*
X28523Y-71307D01*
X28595Y-71307D01*
X28642Y-71331D01*
X28666Y-71379D01*
X28666Y-71641D01*
X28666Y-71379D02*
X28690Y-71331D01*
X28737Y-71307D01*
X28809Y-71307D01*
X28856Y-71331D01*
X28880Y-71379D01*
X28880Y-71641D01*
X29309Y-71617D02*
X29261Y-71641D01*
X29166Y-71641D01*
X29118Y-71617D01*
X29095Y-71569D01*
X29095Y-71379D01*
X29118Y-71331D01*
X29166Y-71307D01*
X29261Y-71307D01*
X29309Y-71331D01*
X29333Y-71379D01*
X29333Y-71426D01*
X29095Y-71474D01*
X29761Y-71307D02*
X29761Y-71712D01*
X29737Y-71760D01*
X29714Y-71784D01*
X29666Y-71807D01*
X29594Y-71807D01*
X29547Y-71784D01*
X29761Y-71617D02*
X29714Y-71641D01*
X29618Y-71641D01*
X29571Y-71617D01*
X29547Y-71593D01*
X29523Y-71545D01*
X29523Y-71403D01*
X29547Y-71355D01*
X29571Y-71331D01*
X29618Y-71307D01*
X29714Y-71307D01*
X29761Y-71331D01*
X30214Y-71641D02*
X30214Y-71379D01*
X30190Y-71331D01*
X30142Y-71307D01*
X30047Y-71307D01*
X29999Y-71331D01*
X30214Y-71617D02*
X30166Y-71641D01*
X30047Y-71641D01*
X29999Y-71617D01*
X29975Y-71569D01*
X29975Y-71522D01*
X29999Y-71474D01*
X30047Y-71450D01*
X30166Y-71450D01*
X30214Y-71426D01*
X30404Y-71141D02*
X30714Y-71141D01*
X30547Y-71331D01*
X30618Y-71331D01*
X30666Y-71355D01*
X30690Y-71379D01*
X30714Y-71426D01*
X30714Y-71545D01*
X30690Y-71593D01*
X30666Y-71617D01*
X30618Y-71641D01*
X30475Y-71641D01*
X30428Y-71617D01*
X30404Y-71593D01*
X30904Y-71188D02*
X30928Y-71165D01*
X30975Y-71141D01*
X31095Y-71141D01*
X31142Y-71165D01*
X31166Y-71188D01*
X31190Y-71236D01*
X31190Y-71284D01*
X31166Y-71355D01*
X30880Y-71641D01*
X31190Y-71641D01*
X31475Y-71355D02*
X31428Y-71331D01*
X31404Y-71307D01*
X31380Y-71260D01*
X31380Y-71236D01*
X31404Y-71188D01*
X31428Y-71165D01*
X31475Y-71141D01*
X31571Y-71141D01*
X31618Y-71165D01*
X31642Y-71188D01*
X31666Y-71236D01*
X31666Y-71260D01*
X31642Y-71307D01*
X31618Y-71331D01*
X31571Y-71355D01*
X31475Y-71355D01*
X31428Y-71379D01*
X31404Y-71403D01*
X31380Y-71450D01*
X31380Y-71545D01*
X31404Y-71593D01*
X31428Y-71617D01*
X31475Y-71641D01*
X31571Y-71641D01*
X31618Y-71617D01*
X31642Y-71593D01*
X31666Y-71545D01*
X31666Y-71450D01*
X31642Y-71403D01*
X31618Y-71379D01*
X31571Y-71355D01*
X22356Y-72441D02*
X22356Y-71941D01*
X22475Y-71941D01*
X22547Y-71965D01*
X22595Y-72012D01*
X22618Y-72060D01*
X22642Y-72155D01*
X22642Y-72226D01*
X22618Y-72322D01*
X22595Y-72369D01*
X22547Y-72417D01*
X22475Y-72441D01*
X22356Y-72441D01*
X22856Y-72441D02*
X22856Y-72107D01*
X22856Y-72203D02*
X22880Y-72155D01*
X22904Y-72131D01*
X22952Y-72107D01*
X22999Y-72107D01*
X23166Y-72441D02*
X23166Y-72107D01*
X23166Y-71941D02*
X23142Y-71965D01*
X23166Y-71988D01*
X23190Y-71965D01*
X23166Y-71941D01*
X23166Y-71988D01*
X23356Y-72107D02*
X23475Y-72441D01*
X23595Y-72107D01*
X23975Y-72417D02*
X23928Y-72441D01*
X23833Y-72441D01*
X23785Y-72417D01*
X23761Y-72369D01*
X23761Y-72179D01*
X23785Y-72131D01*
X23833Y-72107D01*
X23928Y-72107D01*
X23975Y-72131D01*
X23999Y-72179D01*
X23999Y-72226D01*
X23761Y-72274D01*
X24214Y-72441D02*
X24214Y-72107D01*
X24214Y-72203D02*
X24237Y-72155D01*
X24261Y-72131D01*
X24309Y-72107D01*
X24356Y-72107D01*
X24904Y-72441D02*
X24904Y-71941D01*
X25094Y-71941D01*
X25142Y-71965D01*
X25166Y-71988D01*
X25190Y-72036D01*
X25190Y-72107D01*
X25166Y-72155D01*
X25142Y-72179D01*
X25094Y-72203D01*
X24904Y-72203D01*
X25404Y-72441D02*
X25404Y-72107D01*
X25404Y-72203D02*
X25428Y-72155D01*
X25452Y-72131D01*
X25499Y-72107D01*
X25547Y-72107D01*
X25785Y-72441D02*
X25737Y-72417D01*
X25714Y-72393D01*
X25690Y-72345D01*
X25690Y-72203D01*
X25714Y-72155D01*
X25737Y-72131D01*
X25785Y-72107D01*
X25856Y-72107D01*
X25904Y-72131D01*
X25928Y-72155D01*
X25952Y-72203D01*
X25952Y-72345D01*
X25928Y-72393D01*
X25904Y-72417D01*
X25856Y-72441D01*
X25785Y-72441D01*
X26380Y-72107D02*
X26380Y-72512D01*
X26356Y-72560D01*
X26333Y-72584D01*
X26285Y-72607D01*
X26214Y-72607D01*
X26166Y-72584D01*
X26380Y-72417D02*
X26333Y-72441D01*
X26237Y-72441D01*
X26190Y-72417D01*
X26166Y-72393D01*
X26142Y-72345D01*
X26142Y-72203D01*
X26166Y-72155D01*
X26190Y-72131D01*
X26237Y-72107D01*
X26333Y-72107D01*
X26380Y-72131D01*
X26618Y-72441D02*
X26618Y-72107D01*
X26618Y-72203D02*
X26642Y-72155D01*
X26666Y-72131D01*
X26714Y-72107D01*
X26761Y-72107D01*
X27142Y-72441D02*
X27142Y-72179D01*
X27118Y-72131D01*
X27071Y-72107D01*
X26975Y-72107D01*
X26928Y-72131D01*
X27142Y-72417D02*
X27094Y-72441D01*
X26975Y-72441D01*
X26928Y-72417D01*
X26904Y-72369D01*
X26904Y-72322D01*
X26928Y-72274D01*
X26975Y-72250D01*
X27094Y-72250D01*
X27142Y-72226D01*
X27380Y-72441D02*
X27380Y-72107D01*
X27380Y-72155D02*
X27404Y-72131D01*
X27452Y-72107D01*
X27523Y-72107D01*
X27571Y-72131D01*
X27595Y-72179D01*
X27595Y-72441D01*
X27595Y-72179D02*
X27618Y-72131D01*
X27666Y-72107D01*
X27737Y-72107D01*
X27785Y-72131D01*
X27809Y-72179D01*
X27809Y-72441D01*
X28047Y-72441D02*
X28047Y-72107D01*
X28047Y-72155D02*
X28071Y-72131D01*
X28118Y-72107D01*
X28190Y-72107D01*
X28237Y-72131D01*
X28261Y-72179D01*
X28261Y-72441D01*
X28261Y-72179D02*
X28285Y-72131D01*
X28333Y-72107D01*
X28404Y-72107D01*
X28452Y-72131D01*
X28475Y-72179D01*
X28475Y-72441D01*
X28904Y-72417D02*
X28856Y-72441D01*
X28761Y-72441D01*
X28714Y-72417D01*
X28690Y-72369D01*
X28690Y-72179D01*
X28714Y-72131D01*
X28761Y-72107D01*
X28856Y-72107D01*
X28904Y-72131D01*
X28928Y-72179D01*
X28928Y-72226D01*
X28690Y-72274D01*
X29142Y-72441D02*
X29142Y-72107D01*
X29142Y-72203D02*
X29166Y-72155D01*
X29190Y-72131D01*
X29237Y-72107D01*
X29285Y-72107D01*
X29833Y-72250D02*
X30214Y-72250D01*
X30761Y-71941D02*
X31047Y-71941D01*
X30904Y-72441D02*
X30904Y-71941D01*
X31285Y-72441D02*
X31237Y-72417D01*
X31214Y-72393D01*
X31190Y-72345D01*
X31190Y-72203D01*
X31214Y-72155D01*
X31237Y-72131D01*
X31285Y-72107D01*
X31356Y-72107D01*
X31404Y-72131D01*
X31428Y-72155D01*
X31452Y-72203D01*
X31452Y-72345D01*
X31428Y-72393D01*
X31404Y-72417D01*
X31356Y-72441D01*
X31285Y-72441D01*
X31666Y-72107D02*
X31666Y-72607D01*
X31666Y-72131D02*
X31714Y-72107D01*
X31809Y-72107D01*
X31856Y-72131D01*
X31880Y-72155D01*
X31904Y-72203D01*
X31904Y-72345D01*
X31880Y-72393D01*
X31856Y-72417D01*
X31809Y-72441D01*
X31714Y-72441D01*
X31666Y-72417D01*
X32452Y-72107D02*
X32571Y-72441D01*
X32690Y-72107D01*
X32975Y-71941D02*
X33023Y-71941D01*
X33071Y-71965D01*
X33094Y-71988D01*
X33118Y-72036D01*
X33142Y-72131D01*
X33142Y-72250D01*
X33118Y-72345D01*
X33094Y-72393D01*
X33071Y-72417D01*
X33023Y-72441D01*
X32975Y-72441D01*
X32928Y-72417D01*
X32904Y-72393D01*
X32880Y-72345D01*
X32856Y-72250D01*
X32856Y-72131D01*
X32880Y-72036D01*
X32904Y-71988D01*
X32928Y-71965D01*
X32975Y-71941D01*
X33356Y-72393D02*
X33380Y-72417D01*
X33356Y-72441D01*
X33333Y-72417D01*
X33356Y-72393D01*
X33356Y-72441D01*
X33856Y-72441D02*
X33571Y-72441D01*
X33714Y-72441D02*
X33714Y-71941D01*
X33666Y-72012D01*
X33618Y-72060D01*
X33571Y-72084D01*
X26344Y-36833D02*
X26582Y-36833D01*
X26296Y-36976D02*
X26463Y-36476D01*
X26630Y-36976D01*
X26725Y-36476D02*
X26892Y-36976D01*
X27058Y-36476D01*
X27511Y-36976D02*
X27344Y-36738D01*
X27225Y-36976D02*
X27225Y-36476D01*
X27415Y-36476D01*
X27463Y-36500D01*
X27487Y-36523D01*
X27511Y-36571D01*
X27511Y-36642D01*
X27487Y-36690D01*
X27463Y-36714D01*
X27415Y-36738D01*
X27225Y-36738D01*
X27725Y-36976D02*
X27725Y-36476D01*
X27939Y-36952D02*
X28011Y-36976D01*
X28130Y-36976D01*
X28177Y-36952D01*
X28201Y-36928D01*
X28225Y-36880D01*
X28225Y-36833D01*
X28201Y-36785D01*
X28177Y-36761D01*
X28130Y-36738D01*
X28035Y-36714D01*
X27987Y-36690D01*
X27963Y-36666D01*
X27939Y-36619D01*
X27939Y-36571D01*
X27963Y-36523D01*
X27987Y-36500D01*
X28035Y-36476D01*
X28154Y-36476D01*
X28225Y-36500D01*
X28439Y-36976D02*
X28439Y-36476D01*
X28630Y-36476D01*
X28677Y-36500D01*
X28701Y-36523D01*
X28725Y-36571D01*
X28725Y-36642D01*
X28701Y-36690D01*
X28677Y-36714D01*
X28630Y-36738D01*
X28439Y-36738D01*
X20602Y-65986D02*
X20602Y-65486D01*
X20792Y-65486D01*
X20840Y-65510D01*
X20864Y-65533D01*
X20888Y-65581D01*
X20888Y-65652D01*
X20864Y-65700D01*
X20840Y-65724D01*
X20792Y-65748D01*
X20602Y-65748D01*
X21197Y-65486D02*
X21292Y-65486D01*
X21340Y-65510D01*
X21388Y-65557D01*
X21411Y-65652D01*
X21411Y-65819D01*
X21388Y-65914D01*
X21340Y-65962D01*
X21292Y-65986D01*
X21197Y-65986D01*
X21149Y-65962D01*
X21102Y-65914D01*
X21078Y-65819D01*
X21078Y-65652D01*
X21102Y-65557D01*
X21149Y-65510D01*
X21197Y-65486D01*
X21578Y-65486D02*
X21697Y-65986D01*
X21792Y-65629D01*
X21888Y-65986D01*
X22007Y-65486D01*
X22197Y-65724D02*
X22364Y-65724D01*
X22435Y-65986D02*
X22197Y-65986D01*
X22197Y-65486D01*
X22435Y-65486D01*
X22935Y-65986D02*
X22769Y-65748D01*
X22650Y-65986D02*
X22650Y-65486D01*
X22840Y-65486D01*
X22888Y-65510D01*
X22911Y-65533D01*
X22935Y-65581D01*
X22935Y-65652D01*
X22911Y-65700D01*
X22888Y-65724D01*
X22840Y-65748D01*
X22650Y-65748D01*
X23673Y-65486D02*
X23673Y-65843D01*
X23650Y-65914D01*
X23602Y-65962D01*
X23530Y-65986D01*
X23483Y-65986D01*
X23911Y-65486D02*
X23911Y-65890D01*
X23935Y-65938D01*
X23959Y-65962D01*
X24007Y-65986D01*
X24102Y-65986D01*
X24150Y-65962D01*
X24173Y-65938D01*
X24197Y-65890D01*
X24197Y-65486D01*
X24435Y-65986D02*
X24435Y-65486D01*
X24602Y-65843D01*
X24769Y-65486D01*
X24769Y-65986D01*
X25007Y-65986D02*
X25007Y-65486D01*
X25197Y-65486D01*
X25245Y-65510D01*
X25269Y-65533D01*
X25292Y-65581D01*
X25292Y-65652D01*
X25269Y-65700D01*
X25245Y-65724D01*
X25197Y-65748D01*
X25007Y-65748D01*
X25507Y-65724D02*
X25673Y-65724D01*
X25745Y-65986D02*
X25507Y-65986D01*
X25507Y-65486D01*
X25745Y-65486D01*
X26245Y-65986D02*
X26078Y-65748D01*
X25959Y-65986D02*
X25959Y-65486D01*
X26150Y-65486D01*
X26197Y-65510D01*
X26221Y-65533D01*
X26245Y-65581D01*
X26245Y-65652D01*
X26221Y-65700D01*
X26197Y-65724D01*
X26150Y-65748D01*
X25959Y-65748D01*
X26435Y-65962D02*
X26507Y-65986D01*
X26626Y-65986D01*
X26673Y-65962D01*
X26697Y-65938D01*
X26721Y-65890D01*
X26721Y-65843D01*
X26697Y-65795D01*
X26673Y-65771D01*
X26626Y-65748D01*
X26530Y-65724D01*
X26483Y-65700D01*
X26459Y-65676D01*
X26435Y-65629D01*
X26435Y-65581D01*
X26459Y-65533D01*
X26483Y-65510D01*
X26530Y-65486D01*
X26650Y-65486D01*
X26721Y-65510D01*
G54D12*
X27559Y-64960D02*
X27559Y-70866D01*
G54D11*
X23876Y-55922D02*
X23948Y-55946D01*
X24067Y-55946D01*
X24115Y-55922D01*
X24138Y-55898D01*
X24162Y-55850D01*
X24162Y-55803D01*
X24138Y-55755D01*
X24115Y-55731D01*
X24067Y-55708D01*
X23972Y-55684D01*
X23924Y-55660D01*
X23900Y-55636D01*
X23876Y-55589D01*
X23876Y-55541D01*
X23900Y-55493D01*
X23924Y-55470D01*
X23972Y-55446D01*
X24091Y-55446D01*
X24162Y-55470D01*
X24376Y-55684D02*
X24543Y-55684D01*
X24615Y-55946D02*
X24376Y-55946D01*
X24376Y-55446D01*
X24615Y-55446D01*
X25115Y-55946D02*
X24948Y-55708D01*
X24829Y-55946D02*
X24829Y-55446D01*
X25019Y-55446D01*
X25067Y-55470D01*
X25091Y-55493D01*
X25115Y-55541D01*
X25115Y-55612D01*
X25091Y-55660D01*
X25067Y-55684D01*
X25019Y-55708D01*
X24829Y-55708D01*
X25329Y-55946D02*
X25329Y-55446D01*
X25543Y-55803D02*
X25781Y-55803D01*
X25495Y-55946D02*
X25662Y-55446D01*
X25829Y-55946D01*
X26234Y-55946D02*
X25995Y-55946D01*
X25995Y-55446D01*
X26781Y-55946D02*
X26781Y-55446D01*
X26972Y-55446D01*
X27019Y-55470D01*
X27043Y-55493D01*
X27067Y-55541D01*
X27067Y-55612D01*
X27043Y-55660D01*
X27019Y-55684D01*
X26972Y-55708D01*
X26781Y-55708D01*
X27567Y-55946D02*
X27400Y-55708D01*
X27281Y-55946D02*
X27281Y-55446D01*
X27472Y-55446D01*
X27519Y-55470D01*
X27543Y-55493D01*
X27567Y-55541D01*
X27567Y-55612D01*
X27543Y-55660D01*
X27519Y-55684D01*
X27472Y-55708D01*
X27281Y-55708D01*
X27876Y-55446D02*
X27972Y-55446D01*
X28019Y-55470D01*
X28067Y-55517D01*
X28091Y-55612D01*
X28091Y-55779D01*
X28067Y-55874D01*
X28019Y-55922D01*
X27972Y-55946D01*
X27876Y-55946D01*
X27829Y-55922D01*
X27781Y-55874D01*
X27757Y-55779D01*
X27757Y-55612D01*
X27781Y-55517D01*
X27829Y-55470D01*
X27876Y-55446D01*
X28567Y-55470D02*
X28519Y-55446D01*
X28448Y-55446D01*
X28376Y-55470D01*
X28329Y-55517D01*
X28305Y-55565D01*
X28281Y-55660D01*
X28281Y-55731D01*
X28305Y-55827D01*
X28329Y-55874D01*
X28376Y-55922D01*
X28448Y-55946D01*
X28495Y-55946D01*
X28567Y-55922D01*
X28591Y-55898D01*
X28591Y-55731D01*
X28495Y-55731D01*
X29091Y-55946D02*
X28924Y-55708D01*
X28805Y-55946D02*
X28805Y-55446D01*
X28995Y-55446D01*
X29043Y-55470D01*
X29067Y-55493D01*
X29091Y-55541D01*
X29091Y-55612D01*
X29067Y-55660D01*
X29043Y-55684D01*
X28995Y-55708D01*
X28805Y-55708D01*
X29281Y-55803D02*
X29519Y-55803D01*
X29234Y-55946D02*
X29400Y-55446D01*
X29567Y-55946D01*
X29734Y-55946D02*
X29734Y-55446D01*
X29900Y-55803D01*
X30067Y-55446D01*
X30067Y-55946D01*
X30305Y-55946D02*
X30305Y-55446D01*
X30543Y-55946D02*
X30543Y-55446D01*
X30829Y-55946D01*
X30829Y-55446D01*
X31329Y-55470D02*
X31281Y-55446D01*
X31210Y-55446D01*
X31138Y-55470D01*
X31091Y-55517D01*
X31067Y-55565D01*
X31043Y-55660D01*
X31043Y-55731D01*
X31067Y-55827D01*
X31091Y-55874D01*
X31138Y-55922D01*
X31210Y-55946D01*
X31257Y-55946D01*
X31329Y-55922D01*
X31353Y-55898D01*
X31353Y-55731D01*
X31257Y-55731D01*
X29087Y-65941D02*
X29087Y-65441D01*
X29277Y-65441D01*
X29325Y-65465D01*
X29349Y-65488D01*
X29373Y-65536D01*
X29373Y-65607D01*
X29349Y-65655D01*
X29325Y-65679D01*
X29277Y-65703D01*
X29087Y-65703D01*
X29682Y-65441D02*
X29777Y-65441D01*
X29825Y-65465D01*
X29873Y-65512D01*
X29896Y-65607D01*
X29896Y-65774D01*
X29873Y-65869D01*
X29825Y-65917D01*
X29777Y-65941D01*
X29682Y-65941D01*
X29634Y-65917D01*
X29587Y-65869D01*
X29563Y-65774D01*
X29563Y-65607D01*
X29587Y-65512D01*
X29634Y-65465D01*
X29682Y-65441D01*
X30063Y-65441D02*
X30182Y-65941D01*
X30277Y-65584D01*
X30373Y-65941D01*
X30492Y-65441D01*
X30682Y-65679D02*
X30849Y-65679D01*
X30920Y-65941D02*
X30682Y-65941D01*
X30682Y-65441D01*
X30920Y-65441D01*
X31420Y-65941D02*
X31254Y-65703D01*
X31135Y-65941D02*
X31135Y-65441D01*
X31325Y-65441D01*
X31373Y-65465D01*
X31396Y-65488D01*
X31420Y-65536D01*
X31420Y-65607D01*
X31396Y-65655D01*
X31373Y-65679D01*
X31325Y-65703D01*
X31135Y-65703D01*
X31992Y-65417D02*
X31563Y-66060D01*
X32444Y-65941D02*
X32277Y-65703D01*
X32158Y-65941D02*
X32158Y-65441D01*
X32349Y-65441D01*
X32396Y-65465D01*
X32420Y-65488D01*
X32444Y-65536D01*
X32444Y-65607D01*
X32420Y-65655D01*
X32396Y-65679D01*
X32349Y-65703D01*
X32158Y-65703D01*
X32658Y-65679D02*
X32825Y-65679D01*
X32896Y-65941D02*
X32658Y-65941D01*
X32658Y-65441D01*
X32896Y-65441D01*
X33087Y-65917D02*
X33158Y-65941D01*
X33277Y-65941D01*
X33325Y-65917D01*
X33349Y-65893D01*
X33373Y-65845D01*
X33373Y-65798D01*
X33349Y-65750D01*
X33325Y-65726D01*
X33277Y-65703D01*
X33182Y-65679D01*
X33135Y-65655D01*
X33111Y-65631D01*
X33087Y-65584D01*
X33087Y-65536D01*
X33111Y-65488D01*
X33135Y-65465D01*
X33182Y-65441D01*
X33301Y-65441D01*
X33373Y-65465D01*
X33587Y-65679D02*
X33754Y-65679D01*
X33825Y-65941D02*
X33587Y-65941D01*
X33587Y-65441D01*
X33825Y-65441D01*
X33968Y-65441D02*
X34254Y-65441D01*
X34111Y-65941D02*
X34111Y-65441D01*
G54D12*
X35433Y-64960D02*
X35433Y-70866D01*
X19685Y-64960D02*
X19685Y-70866D01*
X19685Y-70866D02*
X35433Y-70866D01*
X19685Y-64960D02*
X35433Y-64960D01*
X35433Y-55118D02*
X35433Y-62992D01*
X19685Y-55118D02*
X19685Y-62992D01*
X19685Y-55118D02*
X35433Y-55118D01*
X19685Y-62992D02*
X35433Y-62992D01*
X35433Y-53149D02*
X35433Y-37401D01*
X19685Y-53149D02*
X35433Y-53149D01*
X19685Y-37401D02*
X19685Y-53149D01*
X35433Y-37401D02*
X19685Y-37401D01*
X35433Y-19685D02*
X19685Y-19685D01*
X35433Y-35433D02*
X35433Y-19685D01*
X19685Y-35433D02*
X35433Y-35433D01*
X19685Y-19685D02*
X19685Y-35433D01*
G54D10*
X23622Y-37401D02*
X27559Y-37401D01*
X27559Y-37401D02*
X27559Y-45275D01*
X27559Y-45275D02*
X19685Y-45275D01*
X19685Y-45275D02*
X19685Y-37401D01*
X19685Y-37401D02*
X23818Y-37401D01*
X23622Y-45275D02*
X27559Y-45275D01*
X27559Y-45275D02*
X27559Y-53149D01*
X27559Y-53149D02*
X19685Y-53149D01*
X19685Y-53149D02*
X19685Y-45275D01*
X19685Y-45275D02*
X23818Y-45275D01*
X31496Y-37401D02*
X35433Y-37401D01*
X35433Y-37401D02*
X35433Y-45275D01*
X35433Y-45275D02*
X27559Y-45275D01*
X27559Y-45275D02*
X27559Y-37401D01*
X27559Y-37401D02*
X31692Y-37401D01*
X31496Y-45275D02*
X35433Y-45275D01*
X35433Y-45275D02*
X35433Y-53149D01*
X35433Y-53149D02*
X27559Y-53149D01*
X27559Y-53149D02*
X27559Y-45275D01*
X27559Y-45275D02*
X31692Y-45275D01*
X23622Y-19685D02*
X27559Y-19685D01*
X27559Y-19685D02*
X27559Y-27559D01*
X27559Y-27559D02*
X19685Y-27559D01*
X19685Y-27559D02*
X19685Y-19685D01*
X19685Y-19685D02*
X23818Y-19685D01*
X23622Y-27559D02*
X27559Y-27559D01*
X27559Y-27559D02*
X27559Y-35433D01*
X27559Y-35433D02*
X19685Y-35433D01*
X19685Y-35433D02*
X19685Y-27559D01*
X19685Y-27559D02*
X23818Y-27559D01*
X31496Y-19685D02*
X35433Y-19685D01*
X35433Y-19685D02*
X35433Y-27559D01*
X35433Y-27559D02*
X27559Y-27559D01*
X27559Y-27559D02*
X27559Y-19685D01*
X27559Y-19685D02*
X31692Y-19685D01*
X31496Y-27559D02*
X35433Y-27559D01*
X35433Y-27559D02*
X35433Y-35433D01*
X35433Y-35433D02*
X27559Y-35433D01*
X27559Y-35433D02*
X27559Y-27559D01*
X27559Y-27559D02*
X31692Y-27559D01*
G54D13*
X20653Y-67724D02*
X20653Y-66724D01*
X20653Y-66724D02*
X22653Y-66724D01*
X22653Y-66724D02*
X22653Y-67724D01*
X22653Y-67724D02*
X20653Y-67724D01*
G54D14*
X20622Y-57586D02*
X20622Y-56586D01*
X20622Y-56586D02*
X26622Y-56586D01*
X26622Y-56586D02*
X26622Y-57586D01*
X26622Y-57586D02*
X20622Y-57586D01*
X21622Y-57586D02*
X21622Y-56586D01*
G54D13*
X24590Y-67724D02*
X24590Y-66724D01*
X24590Y-66724D02*
X26590Y-66724D01*
X26590Y-66724D02*
X26590Y-67724D01*
X26590Y-67724D02*
X24590Y-67724D01*
G54D14*
X20622Y-61523D02*
X20622Y-60523D01*
X20622Y-60523D02*
X26622Y-60523D01*
X26622Y-60523D02*
X26622Y-61523D01*
X26622Y-61523D02*
X20622Y-61523D01*
X21622Y-61523D02*
X21622Y-60523D01*
G54D13*
X24590Y-69889D02*
X24590Y-68889D01*
X24590Y-68889D02*
X26590Y-68889D01*
X26590Y-68889D02*
X26590Y-69889D01*
X26590Y-69889D02*
X24590Y-69889D01*
G54D14*
X28496Y-57586D02*
X28496Y-56586D01*
X28496Y-56586D02*
X34496Y-56586D01*
X34496Y-56586D02*
X34496Y-57586D01*
X34496Y-57586D02*
X28496Y-57586D01*
X29496Y-57586D02*
X29496Y-56586D01*
G54D13*
X20653Y-69889D02*
X20653Y-68889D01*
X20653Y-68889D02*
X22653Y-68889D01*
X22653Y-68889D02*
X22653Y-69889D01*
X22653Y-69889D02*
X20653Y-69889D01*
G54D14*
X28496Y-61523D02*
X28496Y-60523D01*
X28496Y-60523D02*
X34496Y-60523D01*
X34496Y-60523D02*
X34496Y-61523D01*
X34496Y-61523D02*
X28496Y-61523D01*
X29496Y-61523D02*
X29496Y-60523D01*
G54D15*
X30396Y-70407D02*
X30196Y-70607D01*
X30196Y-70607D02*
X30596Y-70607D01*
X30596Y-70607D02*
X30396Y-70407D01*
G54D16*
X28496Y-70207D02*
X34496Y-70207D01*
X28496Y-66407D02*
X34496Y-66407D01*
X34496Y-66407D02*
X34496Y-70207D01*
X28496Y-70207D02*
X28496Y-66407D01*
G54D15*
X33596Y-50312D02*
X33796Y-50512D01*
X33796Y-50512D02*
X33796Y-50112D01*
X33796Y-50112D02*
X33596Y-50312D01*
G54D16*
X33396Y-52212D02*
X33396Y-46212D01*
X29596Y-52212D02*
X29596Y-46212D01*
X29596Y-46212D02*
X33396Y-46212D01*
X33396Y-52212D02*
X29596Y-52212D01*
G54D15*
X33596Y-42438D02*
X33796Y-42638D01*
X33796Y-42638D02*
X33796Y-42238D01*
X33796Y-42238D02*
X33596Y-42438D01*
G54D16*
X33396Y-44338D02*
X33396Y-38338D01*
X29596Y-44338D02*
X29596Y-38338D01*
X29596Y-38338D02*
X33396Y-38338D01*
X33396Y-44338D02*
X29596Y-44338D01*
G54D15*
X25722Y-50312D02*
X25922Y-50512D01*
X25922Y-50512D02*
X25922Y-50112D01*
X25922Y-50112D02*
X25722Y-50312D01*
G54D16*
X25522Y-52212D02*
X25522Y-46212D01*
X21722Y-52212D02*
X21722Y-46212D01*
X21722Y-46212D02*
X25522Y-46212D01*
X25522Y-52212D02*
X21722Y-52212D01*
G54D15*
X25722Y-42438D02*
X25922Y-42638D01*
X25922Y-42638D02*
X25922Y-42238D01*
X25922Y-42238D02*
X25722Y-42438D01*
G54D16*
X25522Y-44338D02*
X25522Y-38338D01*
X21722Y-44338D02*
X21722Y-38338D01*
X21722Y-38338D02*
X25522Y-38338D01*
X25522Y-44338D02*
X21722Y-44338D01*
G54D17*
X23795Y-24758D02*
X23395Y-24758D01*
X23681Y-24625D01*
X23395Y-24491D01*
X23795Y-24491D01*
X23681Y-24320D02*
X23681Y-24129D01*
X23795Y-24358D02*
X23395Y-24224D01*
X23795Y-24091D01*
X23395Y-24015D02*
X23395Y-23786D01*
X23795Y-23901D02*
X23395Y-23901D01*
X23795Y-23425D02*
X23605Y-23558D01*
X23795Y-23653D02*
X23395Y-23653D01*
X23395Y-23501D01*
X23415Y-23463D01*
X23434Y-23444D01*
X23472Y-23425D01*
X23529Y-23425D01*
X23567Y-23444D01*
X23586Y-23463D01*
X23605Y-23501D01*
X23605Y-23653D01*
X23795Y-23253D02*
X23395Y-23253D01*
X23395Y-23101D02*
X23795Y-22834D01*
X23395Y-22834D02*
X23795Y-23101D01*
X23395Y-22491D02*
X23395Y-22682D01*
X23586Y-22701D01*
X23567Y-22682D01*
X23548Y-22644D01*
X23548Y-22548D01*
X23567Y-22510D01*
X23586Y-22491D01*
X23624Y-22472D01*
X23719Y-22472D01*
X23757Y-22491D01*
X23776Y-22510D01*
X23795Y-22548D01*
X23795Y-22644D01*
X23776Y-22682D01*
X23757Y-22701D01*
X23810Y-32663D02*
X23410Y-32663D01*
X23696Y-32530D01*
X23410Y-32396D01*
X23810Y-32396D01*
X23696Y-32225D02*
X23696Y-32034D01*
X23810Y-32263D02*
X23410Y-32129D01*
X23810Y-31996D01*
X23410Y-31920D02*
X23410Y-31691D01*
X23810Y-31806D02*
X23410Y-31806D01*
X23810Y-31330D02*
X23620Y-31463D01*
X23810Y-31558D02*
X23410Y-31558D01*
X23410Y-31406D01*
X23430Y-31368D01*
X23449Y-31349D01*
X23487Y-31330D01*
X23544Y-31330D01*
X23582Y-31349D01*
X23601Y-31368D01*
X23620Y-31406D01*
X23620Y-31558D01*
X23810Y-31158D02*
X23410Y-31158D01*
X23410Y-31006D02*
X23810Y-30739D01*
X23410Y-30739D02*
X23810Y-31006D01*
X23410Y-30415D02*
X23410Y-30491D01*
X23430Y-30529D01*
X23449Y-30549D01*
X23506Y-30587D01*
X23582Y-30606D01*
X23734Y-30606D01*
X23772Y-30587D01*
X23791Y-30568D01*
X23810Y-30529D01*
X23810Y-30453D01*
X23791Y-30415D01*
X23772Y-30396D01*
X23734Y-30377D01*
X23639Y-30377D01*
X23601Y-30396D01*
X23582Y-30415D01*
X23563Y-30453D01*
X23563Y-30529D01*
X23582Y-30568D01*
X23601Y-30587D01*
X23639Y-30606D01*
X31685Y-24763D02*
X31285Y-24763D01*
X31571Y-24630D01*
X31285Y-24496D01*
X31685Y-24496D01*
X31571Y-24325D02*
X31571Y-24134D01*
X31685Y-24363D02*
X31285Y-24229D01*
X31685Y-24096D01*
X31285Y-24020D02*
X31285Y-23791D01*
X31685Y-23906D02*
X31285Y-23906D01*
X31685Y-23430D02*
X31495Y-23563D01*
X31685Y-23658D02*
X31285Y-23658D01*
X31285Y-23506D01*
X31305Y-23468D01*
X31324Y-23449D01*
X31362Y-23430D01*
X31419Y-23430D01*
X31457Y-23449D01*
X31476Y-23468D01*
X31495Y-23506D01*
X31495Y-23658D01*
X31685Y-23258D02*
X31285Y-23258D01*
X31285Y-23106D02*
X31685Y-22839D01*
X31285Y-22839D02*
X31685Y-23106D01*
X31285Y-22725D02*
X31285Y-22458D01*
X31685Y-22629D01*
X31680Y-32628D02*
X31280Y-32628D01*
X31566Y-32495D01*
X31280Y-32361D01*
X31680Y-32361D01*
X31566Y-32190D02*
X31566Y-31999D01*
X31680Y-32228D02*
X31280Y-32094D01*
X31680Y-31961D01*
X31280Y-31885D02*
X31280Y-31656D01*
X31680Y-31771D02*
X31280Y-31771D01*
X31680Y-31295D02*
X31490Y-31428D01*
X31680Y-31523D02*
X31280Y-31523D01*
X31280Y-31371D01*
X31300Y-31333D01*
X31319Y-31314D01*
X31357Y-31295D01*
X31414Y-31295D01*
X31452Y-31314D01*
X31471Y-31333D01*
X31490Y-31371D01*
X31490Y-31523D01*
X31680Y-31123D02*
X31280Y-31123D01*
X31280Y-30971D02*
X31680Y-30704D01*
X31280Y-30704D02*
X31680Y-30971D01*
X31452Y-30494D02*
X31433Y-30533D01*
X31414Y-30552D01*
X31376Y-30571D01*
X31357Y-30571D01*
X31319Y-30552D01*
X31300Y-30533D01*
X31280Y-30494D01*
X31280Y-30418D01*
X31300Y-30380D01*
X31319Y-30361D01*
X31357Y-30342D01*
X31376Y-30342D01*
X31414Y-30361D01*
X31433Y-30380D01*
X31452Y-30418D01*
X31452Y-30494D01*
X31471Y-30533D01*
X31490Y-30552D01*
X31528Y-30571D01*
X31604Y-30571D01*
X31642Y-30552D01*
X31661Y-30533D01*
X31680Y-30494D01*
X31680Y-30418D01*
X31661Y-30380D01*
X31642Y-30361D01*
X31604Y-30342D01*
X31528Y-30342D01*
X31490Y-30361D01*
X31471Y-30380D01*
X31452Y-30418D01*
G54D13*
X22833Y-67363D02*
X22833Y-67063D01*
X22947Y-67063D01*
X22976Y-67077D01*
X22990Y-67091D01*
X23005Y-67120D01*
X23005Y-67163D01*
X22990Y-67191D01*
X22976Y-67205D01*
X22947Y-67220D01*
X22833Y-67220D01*
X23262Y-67063D02*
X23205Y-67063D01*
X23176Y-67077D01*
X23162Y-67091D01*
X23133Y-67134D01*
X23119Y-67191D01*
X23119Y-67305D01*
X23133Y-67334D01*
X23147Y-67348D01*
X23176Y-67363D01*
X23233Y-67363D01*
X23262Y-67348D01*
X23276Y-67334D01*
X23290Y-67305D01*
X23290Y-67234D01*
X23276Y-67205D01*
X23262Y-67191D01*
X23233Y-67177D01*
X23176Y-67177D01*
X23147Y-67191D01*
X23133Y-67205D01*
X23119Y-67234D01*
G54D17*
X20779Y-58260D02*
X20779Y-57860D01*
X20932Y-57860D01*
X20970Y-57880D01*
X20989Y-57899D01*
X21008Y-57937D01*
X21008Y-57994D01*
X20989Y-58032D01*
X20970Y-58051D01*
X20932Y-58070D01*
X20779Y-58070D01*
X21141Y-57860D02*
X21408Y-57860D01*
X21236Y-58260D01*
G54D13*
X24004Y-67318D02*
X24004Y-67018D01*
X24118Y-67018D01*
X24147Y-67032D01*
X24161Y-67046D01*
X24175Y-67075D01*
X24175Y-67118D01*
X24161Y-67146D01*
X24147Y-67160D01*
X24118Y-67175D01*
X24004Y-67175D01*
X24347Y-67146D02*
X24318Y-67132D01*
X24304Y-67118D01*
X24290Y-67089D01*
X24290Y-67075D01*
X24304Y-67046D01*
X24318Y-67032D01*
X24347Y-67018D01*
X24404Y-67018D01*
X24433Y-67032D01*
X24447Y-67046D01*
X24461Y-67075D01*
X24461Y-67089D01*
X24447Y-67118D01*
X24433Y-67132D01*
X24404Y-67146D01*
X24347Y-67146D01*
X24318Y-67160D01*
X24304Y-67175D01*
X24290Y-67203D01*
X24290Y-67260D01*
X24304Y-67289D01*
X24318Y-67303D01*
X24347Y-67318D01*
X24404Y-67318D01*
X24433Y-67303D01*
X24447Y-67289D01*
X24461Y-67260D01*
X24461Y-67203D01*
X24447Y-67175D01*
X24433Y-67160D01*
X24404Y-67146D01*
G54D17*
X20779Y-62130D02*
X20779Y-61730D01*
X20932Y-61730D01*
X20970Y-61750D01*
X20989Y-61769D01*
X21008Y-61807D01*
X21008Y-61864D01*
X20989Y-61902D01*
X20970Y-61921D01*
X20932Y-61940D01*
X20779Y-61940D01*
X21198Y-62130D02*
X21275Y-62130D01*
X21313Y-62111D01*
X21332Y-62092D01*
X21370Y-62035D01*
X21389Y-61959D01*
X21389Y-61807D01*
X21370Y-61769D01*
X21351Y-61750D01*
X21313Y-61730D01*
X21236Y-61730D01*
X21198Y-61750D01*
X21179Y-61769D01*
X21160Y-61807D01*
X21160Y-61902D01*
X21179Y-61940D01*
X21198Y-61959D01*
X21236Y-61978D01*
X21313Y-61978D01*
X21351Y-61959D01*
X21370Y-61940D01*
X21389Y-61902D01*
G54D13*
X23726Y-69480D02*
X23726Y-69180D01*
X23840Y-69180D01*
X23869Y-69195D01*
X23883Y-69209D01*
X23898Y-69237D01*
X23898Y-69280D01*
X23883Y-69309D01*
X23869Y-69323D01*
X23840Y-69337D01*
X23726Y-69337D01*
X24183Y-69480D02*
X24012Y-69480D01*
X24098Y-69480D02*
X24098Y-69180D01*
X24069Y-69223D01*
X24040Y-69252D01*
X24012Y-69266D01*
X24369Y-69180D02*
X24398Y-69180D01*
X24426Y-69195D01*
X24440Y-69209D01*
X24455Y-69237D01*
X24469Y-69295D01*
X24469Y-69366D01*
X24455Y-69423D01*
X24440Y-69452D01*
X24426Y-69466D01*
X24398Y-69480D01*
X24369Y-69480D01*
X24340Y-69466D01*
X24326Y-69452D01*
X24312Y-69423D01*
X24298Y-69366D01*
X24298Y-69295D01*
X24312Y-69237D01*
X24326Y-69209D01*
X24340Y-69195D01*
X24369Y-69180D01*
G54D17*
X28619Y-58215D02*
X28619Y-57815D01*
X28771Y-57815D01*
X28809Y-57835D01*
X28828Y-57854D01*
X28847Y-57892D01*
X28847Y-57949D01*
X28828Y-57987D01*
X28809Y-58006D01*
X28771Y-58025D01*
X28619Y-58025D01*
X29228Y-58215D02*
X29000Y-58215D01*
X29114Y-58215D02*
X29114Y-57815D01*
X29076Y-57873D01*
X29038Y-57911D01*
X29000Y-57930D01*
X29609Y-58215D02*
X29381Y-58215D01*
X29495Y-58215D02*
X29495Y-57815D01*
X29457Y-57873D01*
X29419Y-57911D01*
X29381Y-57930D01*
G54D13*
X22825Y-69525D02*
X22825Y-69225D01*
X22940Y-69225D01*
X22968Y-69240D01*
X22982Y-69254D01*
X22997Y-69282D01*
X22997Y-69325D01*
X22982Y-69354D01*
X22968Y-69368D01*
X22940Y-69382D01*
X22825Y-69382D01*
X23282Y-69525D02*
X23111Y-69525D01*
X23197Y-69525D02*
X23197Y-69225D01*
X23168Y-69268D01*
X23140Y-69297D01*
X23111Y-69311D01*
X23397Y-69254D02*
X23411Y-69240D01*
X23440Y-69225D01*
X23511Y-69225D01*
X23540Y-69240D01*
X23554Y-69254D01*
X23568Y-69282D01*
X23568Y-69311D01*
X23554Y-69354D01*
X23382Y-69525D01*
X23568Y-69525D01*
G54D17*
X28754Y-62220D02*
X28754Y-61820D01*
X28906Y-61820D01*
X28944Y-61840D01*
X28963Y-61859D01*
X28982Y-61897D01*
X28982Y-61954D01*
X28963Y-61992D01*
X28944Y-62011D01*
X28906Y-62030D01*
X28754Y-62030D01*
X29363Y-62220D02*
X29135Y-62220D01*
X29249Y-62220D02*
X29249Y-61820D01*
X29211Y-61878D01*
X29173Y-61916D01*
X29135Y-61935D01*
X29497Y-61820D02*
X29744Y-61820D01*
X29611Y-61973D01*
X29668Y-61973D01*
X29706Y-61992D01*
X29725Y-62011D01*
X29744Y-62049D01*
X29744Y-62144D01*
X29725Y-62182D01*
X29706Y-62201D01*
X29668Y-62220D01*
X29554Y-62220D01*
X29516Y-62201D01*
X29497Y-62182D01*
G54D11*
X33905Y-66161D02*
X33905Y-65661D01*
X34096Y-65661D01*
X34144Y-65685D01*
X34167Y-65708D01*
X34191Y-65756D01*
X34191Y-65827D01*
X34167Y-65875D01*
X34144Y-65899D01*
X34096Y-65923D01*
X33905Y-65923D01*
X34644Y-65661D02*
X34405Y-65661D01*
X34382Y-65899D01*
X34405Y-65875D01*
X34453Y-65851D01*
X34572Y-65851D01*
X34620Y-65875D01*
X34644Y-65899D01*
X34667Y-65946D01*
X34667Y-66065D01*
X34644Y-66113D01*
X34620Y-66137D01*
X34572Y-66161D01*
X34453Y-66161D01*
X34405Y-66137D01*
X34382Y-66113D01*
X32615Y-69433D02*
X32377Y-69433D01*
X32353Y-69671D01*
X32377Y-69647D01*
X32424Y-69623D01*
X32543Y-69623D01*
X32591Y-69647D01*
X32615Y-69671D01*
X32638Y-69718D01*
X32638Y-69838D01*
X32615Y-69885D01*
X32591Y-69909D01*
X32543Y-69933D01*
X32424Y-69933D01*
X32377Y-69909D01*
X32353Y-69885D01*
X32591Y-66733D02*
X32496Y-66733D01*
X32448Y-66757D01*
X32424Y-66780D01*
X32377Y-66852D01*
X32353Y-66947D01*
X32353Y-67138D01*
X32377Y-67185D01*
X32400Y-67209D01*
X32448Y-67233D01*
X32543Y-67233D01*
X32591Y-67209D01*
X32615Y-67185D01*
X32638Y-67138D01*
X32638Y-67018D01*
X32615Y-66971D01*
X32591Y-66947D01*
X32543Y-66923D01*
X32448Y-66923D01*
X32400Y-66947D01*
X32377Y-66971D01*
X32353Y-67018D01*
X30353Y-66780D02*
X30377Y-66757D01*
X30424Y-66733D01*
X30543Y-66733D01*
X30591Y-66757D01*
X30615Y-66780D01*
X30638Y-66828D01*
X30638Y-66876D01*
X30615Y-66947D01*
X30329Y-67233D01*
X30638Y-67233D01*
G54D14*
X28667Y-49655D02*
X28067Y-49655D01*
X28067Y-49426D01*
X28096Y-49369D01*
X28124Y-49341D01*
X28181Y-49312D01*
X28267Y-49312D01*
X28324Y-49341D01*
X28353Y-49369D01*
X28381Y-49426D01*
X28381Y-49655D01*
X28267Y-48798D02*
X28667Y-48798D01*
X28038Y-48941D02*
X28467Y-49084D01*
X28467Y-48712D01*
G54D11*
X32622Y-48093D02*
X32622Y-48331D01*
X32860Y-48355D01*
X32836Y-48331D01*
X32812Y-48284D01*
X32812Y-48164D01*
X32836Y-48117D01*
X32860Y-48093D01*
X32907Y-48069D01*
X33027Y-48069D01*
X33074Y-48093D01*
X33098Y-48117D01*
X33122Y-48164D01*
X33122Y-48284D01*
X33098Y-48331D01*
X33074Y-48355D01*
X29922Y-48117D02*
X29922Y-48212D01*
X29946Y-48260D01*
X29969Y-48284D01*
X30041Y-48331D01*
X30136Y-48355D01*
X30327Y-48355D01*
X30374Y-48331D01*
X30398Y-48307D01*
X30422Y-48260D01*
X30422Y-48164D01*
X30398Y-48117D01*
X30374Y-48093D01*
X30327Y-48069D01*
X30207Y-48069D01*
X30160Y-48093D01*
X30136Y-48117D01*
X30112Y-48164D01*
X30112Y-48260D01*
X30136Y-48307D01*
X30160Y-48331D01*
X30207Y-48355D01*
X29969Y-50355D02*
X29946Y-50331D01*
X29922Y-50284D01*
X29922Y-50164D01*
X29946Y-50117D01*
X29969Y-50093D01*
X30017Y-50069D01*
X30065Y-50069D01*
X30136Y-50093D01*
X30422Y-50379D01*
X30422Y-50069D01*
X32622Y-40219D02*
X32622Y-40457D01*
X32860Y-40481D01*
X32836Y-40457D01*
X32812Y-40410D01*
X32812Y-40290D01*
X32836Y-40243D01*
X32860Y-40219D01*
X32907Y-40195D01*
X33027Y-40195D01*
X33074Y-40219D01*
X33098Y-40243D01*
X33122Y-40290D01*
X33122Y-40410D01*
X33098Y-40457D01*
X33074Y-40481D01*
X29922Y-40243D02*
X29922Y-40338D01*
X29946Y-40386D01*
X29969Y-40410D01*
X30041Y-40457D01*
X30136Y-40481D01*
X30327Y-40481D01*
X30374Y-40457D01*
X30398Y-40433D01*
X30422Y-40386D01*
X30422Y-40290D01*
X30398Y-40243D01*
X30374Y-40219D01*
X30327Y-40195D01*
X30207Y-40195D01*
X30160Y-40219D01*
X30136Y-40243D01*
X30112Y-40290D01*
X30112Y-40386D01*
X30136Y-40433D01*
X30160Y-40457D01*
X30207Y-40481D01*
X29969Y-42481D02*
X29946Y-42457D01*
X29922Y-42410D01*
X29922Y-42290D01*
X29946Y-42243D01*
X29969Y-42219D01*
X30017Y-42195D01*
X30065Y-42195D01*
X30136Y-42219D01*
X30422Y-42505D01*
X30422Y-42195D01*
X24748Y-48093D02*
X24748Y-48331D01*
X24986Y-48355D01*
X24962Y-48331D01*
X24938Y-48284D01*
X24938Y-48164D01*
X24962Y-48117D01*
X24986Y-48093D01*
X25033Y-48069D01*
X25152Y-48069D01*
X25200Y-48093D01*
X25224Y-48117D01*
X25248Y-48164D01*
X25248Y-48284D01*
X25224Y-48331D01*
X25200Y-48355D01*
X22048Y-48117D02*
X22048Y-48212D01*
X22072Y-48260D01*
X22095Y-48284D01*
X22167Y-48331D01*
X22262Y-48355D01*
X22452Y-48355D01*
X22500Y-48331D01*
X22524Y-48307D01*
X22548Y-48260D01*
X22548Y-48164D01*
X22524Y-48117D01*
X22500Y-48093D01*
X22452Y-48069D01*
X22333Y-48069D01*
X22286Y-48093D01*
X22262Y-48117D01*
X22238Y-48164D01*
X22238Y-48260D01*
X22262Y-48307D01*
X22286Y-48331D01*
X22333Y-48355D01*
X22095Y-50355D02*
X22072Y-50331D01*
X22048Y-50284D01*
X22048Y-50164D01*
X22072Y-50117D01*
X22095Y-50093D01*
X22143Y-50069D01*
X22191Y-50069D01*
X22262Y-50093D01*
X22548Y-50379D01*
X22548Y-50069D01*
X24748Y-40219D02*
X24748Y-40457D01*
X24986Y-40481D01*
X24962Y-40457D01*
X24938Y-40410D01*
X24938Y-40290D01*
X24962Y-40243D01*
X24986Y-40219D01*
X25033Y-40195D01*
X25152Y-40195D01*
X25200Y-40219D01*
X25224Y-40243D01*
X25248Y-40290D01*
X25248Y-40410D01*
X25224Y-40457D01*
X25200Y-40481D01*
X22048Y-40243D02*
X22048Y-40338D01*
X22072Y-40386D01*
X22095Y-40410D01*
X22167Y-40457D01*
X22262Y-40481D01*
X22452Y-40481D01*
X22500Y-40457D01*
X22524Y-40433D01*
X22548Y-40386D01*
X22548Y-40290D01*
X22524Y-40243D01*
X22500Y-40219D01*
X22452Y-40195D01*
X22333Y-40195D01*
X22286Y-40219D01*
X22262Y-40243D01*
X22238Y-40290D01*
X22238Y-40386D01*
X22262Y-40433D01*
X22286Y-40457D01*
X22333Y-40481D01*
X22095Y-42481D02*
X22072Y-42457D01*
X22048Y-42410D01*
X22048Y-42290D01*
X22072Y-42243D01*
X22095Y-42219D01*
X22143Y-42195D01*
X22191Y-42195D01*
X22262Y-42219D01*
X22548Y-42505D01*
X22548Y-42195D01*
M02*
