G04 (created by PCBNEW (2013-jul-07)-stable) date Thu 03 Sep 2015 05:45:47 PM PDT*
%MOIN*%
G04 Gerber Fmt 3.4, Leading zero omitted, Abs format*
%FSLAX34Y34*%
G01*
G70*
G90*
G04 APERTURE LIST*
%ADD10C,0.00590551*%
%ADD11C,0.011811*%
%ADD12C,0.015*%
%ADD13C,0.008*%
%ADD14C,0.006*%
%ADD15C,0.012*%
%ADD16C,0.01*%
G04 APERTURE END LIST*
G54D10*
G54D11*
X48814Y-46911D02*
X48223Y-46911D01*
X48223Y-46686D01*
X48251Y-46630D01*
X48279Y-46602D01*
X48335Y-46574D01*
X48420Y-46574D01*
X48476Y-46602D01*
X48504Y-46630D01*
X48532Y-46686D01*
X48532Y-46911D01*
X48814Y-46321D02*
X48420Y-46321D01*
X48532Y-46321D02*
X48476Y-46293D01*
X48448Y-46265D01*
X48420Y-46208D01*
X48420Y-46152D01*
X48814Y-45871D02*
X48785Y-45927D01*
X48757Y-45955D01*
X48701Y-45983D01*
X48532Y-45983D01*
X48476Y-45955D01*
X48448Y-45927D01*
X48420Y-45871D01*
X48420Y-45786D01*
X48448Y-45730D01*
X48476Y-45702D01*
X48532Y-45674D01*
X48701Y-45674D01*
X48757Y-45702D01*
X48785Y-45730D01*
X48814Y-45786D01*
X48814Y-45871D01*
X48420Y-45168D02*
X48898Y-45168D01*
X48954Y-45196D01*
X48982Y-45224D01*
X49010Y-45280D01*
X49010Y-45365D01*
X48982Y-45421D01*
X48785Y-45168D02*
X48814Y-45224D01*
X48814Y-45337D01*
X48785Y-45393D01*
X48757Y-45421D01*
X48701Y-45449D01*
X48532Y-45449D01*
X48476Y-45421D01*
X48448Y-45393D01*
X48420Y-45337D01*
X48420Y-45224D01*
X48448Y-45168D01*
X48814Y-44887D02*
X48420Y-44887D01*
X48532Y-44887D02*
X48476Y-44858D01*
X48448Y-44830D01*
X48420Y-44774D01*
X48420Y-44718D01*
X48814Y-44268D02*
X48504Y-44268D01*
X48448Y-44296D01*
X48420Y-44352D01*
X48420Y-44465D01*
X48448Y-44521D01*
X48785Y-44268D02*
X48814Y-44324D01*
X48814Y-44465D01*
X48785Y-44521D01*
X48729Y-44549D01*
X48673Y-44549D01*
X48617Y-44521D01*
X48589Y-44465D01*
X48589Y-44324D01*
X48560Y-44268D01*
X48814Y-43987D02*
X48420Y-43987D01*
X48476Y-43987D02*
X48448Y-43959D01*
X48420Y-43902D01*
X48420Y-43818D01*
X48448Y-43762D01*
X48504Y-43734D01*
X48814Y-43734D01*
X48504Y-43734D02*
X48448Y-43705D01*
X48420Y-43649D01*
X48420Y-43565D01*
X48448Y-43509D01*
X48504Y-43481D01*
X48814Y-43481D01*
X48814Y-43199D02*
X48420Y-43199D01*
X48476Y-43199D02*
X48448Y-43171D01*
X48420Y-43115D01*
X48420Y-43031D01*
X48448Y-42974D01*
X48504Y-42946D01*
X48814Y-42946D01*
X48504Y-42946D02*
X48448Y-42918D01*
X48420Y-42862D01*
X48420Y-42777D01*
X48448Y-42721D01*
X48504Y-42693D01*
X48814Y-42693D01*
X48785Y-42187D02*
X48814Y-42243D01*
X48814Y-42356D01*
X48785Y-42412D01*
X48729Y-42440D01*
X48504Y-42440D01*
X48448Y-42412D01*
X48420Y-42356D01*
X48420Y-42243D01*
X48448Y-42187D01*
X48504Y-42159D01*
X48560Y-42159D01*
X48617Y-42440D01*
X48814Y-41906D02*
X48420Y-41906D01*
X48532Y-41906D02*
X48476Y-41878D01*
X48448Y-41849D01*
X48420Y-41793D01*
X48420Y-41737D01*
X48785Y-41118D02*
X48814Y-41034D01*
X48814Y-40893D01*
X48785Y-40837D01*
X48757Y-40809D01*
X48701Y-40781D01*
X48645Y-40781D01*
X48589Y-40809D01*
X48560Y-40837D01*
X48532Y-40893D01*
X48504Y-41006D01*
X48476Y-41062D01*
X48448Y-41090D01*
X48392Y-41118D01*
X48335Y-41118D01*
X48279Y-41090D01*
X48251Y-41062D01*
X48223Y-41006D01*
X48223Y-40865D01*
X48251Y-40781D01*
X48814Y-40528D02*
X48223Y-40528D01*
X48814Y-40275D02*
X48504Y-40275D01*
X48448Y-40303D01*
X48420Y-40359D01*
X48420Y-40443D01*
X48448Y-40500D01*
X48476Y-40528D01*
X48814Y-39993D02*
X48420Y-39993D01*
X48223Y-39993D02*
X48251Y-40022D01*
X48279Y-39993D01*
X48251Y-39965D01*
X48223Y-39993D01*
X48279Y-39993D01*
X48785Y-39487D02*
X48814Y-39544D01*
X48814Y-39656D01*
X48785Y-39712D01*
X48729Y-39740D01*
X48504Y-39740D01*
X48448Y-39712D01*
X48420Y-39656D01*
X48420Y-39544D01*
X48448Y-39487D01*
X48504Y-39459D01*
X48560Y-39459D01*
X48617Y-39740D01*
X48814Y-39122D02*
X48785Y-39178D01*
X48729Y-39206D01*
X48223Y-39206D01*
X48814Y-38644D02*
X48223Y-38644D01*
X48785Y-38644D02*
X48814Y-38700D01*
X48814Y-38812D01*
X48785Y-38869D01*
X48757Y-38897D01*
X48701Y-38925D01*
X48532Y-38925D01*
X48476Y-38897D01*
X48448Y-38869D01*
X48420Y-38812D01*
X48420Y-38700D01*
X48448Y-38644D01*
X48420Y-37969D02*
X48814Y-37828D01*
X48420Y-37687D01*
X48223Y-37350D02*
X48223Y-37294D01*
X48251Y-37238D01*
X48279Y-37209D01*
X48335Y-37181D01*
X48448Y-37153D01*
X48589Y-37153D01*
X48701Y-37181D01*
X48757Y-37209D01*
X48785Y-37238D01*
X48814Y-37294D01*
X48814Y-37350D01*
X48785Y-37406D01*
X48757Y-37434D01*
X48701Y-37463D01*
X48589Y-37491D01*
X48448Y-37491D01*
X48335Y-37463D01*
X48279Y-37434D01*
X48251Y-37406D01*
X48223Y-37350D01*
X48757Y-36900D02*
X48785Y-36872D01*
X48814Y-36900D01*
X48785Y-36928D01*
X48757Y-36900D01*
X48814Y-36900D01*
X48814Y-36310D02*
X48814Y-36647D01*
X48814Y-36478D02*
X48223Y-36478D01*
X48307Y-36535D01*
X48364Y-36591D01*
X48392Y-36647D01*
X49365Y-45308D02*
X49758Y-45196D01*
X49477Y-45083D01*
X49758Y-44971D01*
X49365Y-44858D01*
X49365Y-44690D02*
X49758Y-44577D01*
X49477Y-44465D01*
X49758Y-44352D01*
X49365Y-44240D01*
X49365Y-44071D02*
X49758Y-43959D01*
X49477Y-43846D01*
X49758Y-43734D01*
X49365Y-43621D01*
X49702Y-43396D02*
X49730Y-43368D01*
X49758Y-43396D01*
X49730Y-43424D01*
X49702Y-43396D01*
X49758Y-43396D01*
X49758Y-43115D02*
X49365Y-43115D01*
X49168Y-43115D02*
X49196Y-43143D01*
X49224Y-43115D01*
X49196Y-43087D01*
X49168Y-43115D01*
X49224Y-43115D01*
X49758Y-42749D02*
X49730Y-42806D01*
X49702Y-42834D01*
X49646Y-42862D01*
X49477Y-42862D01*
X49421Y-42834D01*
X49393Y-42806D01*
X49365Y-42749D01*
X49365Y-42665D01*
X49393Y-42609D01*
X49421Y-42581D01*
X49477Y-42553D01*
X49646Y-42553D01*
X49702Y-42581D01*
X49730Y-42609D01*
X49758Y-42665D01*
X49758Y-42749D01*
X49758Y-42299D02*
X49365Y-42299D01*
X49477Y-42299D02*
X49421Y-42271D01*
X49393Y-42243D01*
X49365Y-42187D01*
X49365Y-42131D01*
X49758Y-41849D02*
X49730Y-41906D01*
X49702Y-41934D01*
X49646Y-41962D01*
X49477Y-41962D01*
X49421Y-41934D01*
X49393Y-41906D01*
X49365Y-41849D01*
X49365Y-41765D01*
X49393Y-41709D01*
X49421Y-41681D01*
X49477Y-41653D01*
X49646Y-41653D01*
X49702Y-41681D01*
X49730Y-41709D01*
X49758Y-41765D01*
X49758Y-41849D01*
X49758Y-41146D02*
X49168Y-41146D01*
X49730Y-41146D02*
X49758Y-41203D01*
X49758Y-41315D01*
X49730Y-41371D01*
X49702Y-41400D01*
X49646Y-41428D01*
X49477Y-41428D01*
X49421Y-41400D01*
X49393Y-41371D01*
X49365Y-41315D01*
X49365Y-41203D01*
X49393Y-41146D01*
X49730Y-40640D02*
X49758Y-40696D01*
X49758Y-40809D01*
X49730Y-40865D01*
X49674Y-40893D01*
X49449Y-40893D01*
X49393Y-40865D01*
X49365Y-40809D01*
X49365Y-40696D01*
X49393Y-40640D01*
X49449Y-40612D01*
X49505Y-40612D01*
X49562Y-40893D01*
X49758Y-40275D02*
X49730Y-40331D01*
X49702Y-40359D01*
X49646Y-40387D01*
X49477Y-40387D01*
X49421Y-40359D01*
X49393Y-40331D01*
X49365Y-40275D01*
X49365Y-40190D01*
X49393Y-40134D01*
X49421Y-40106D01*
X49477Y-40078D01*
X49646Y-40078D01*
X49702Y-40106D01*
X49730Y-40134D01*
X49758Y-40190D01*
X49758Y-40275D01*
X49702Y-39825D02*
X49730Y-39797D01*
X49758Y-39825D01*
X49730Y-39853D01*
X49702Y-39825D01*
X49758Y-39825D01*
X49730Y-39290D02*
X49758Y-39347D01*
X49758Y-39459D01*
X49730Y-39515D01*
X49702Y-39544D01*
X49646Y-39572D01*
X49477Y-39572D01*
X49421Y-39544D01*
X49393Y-39515D01*
X49365Y-39459D01*
X49365Y-39347D01*
X49393Y-39290D01*
X49758Y-38953D02*
X49730Y-39009D01*
X49702Y-39037D01*
X49646Y-39065D01*
X49477Y-39065D01*
X49421Y-39037D01*
X49393Y-39009D01*
X49365Y-38953D01*
X49365Y-38869D01*
X49393Y-38812D01*
X49421Y-38784D01*
X49477Y-38756D01*
X49646Y-38756D01*
X49702Y-38784D01*
X49730Y-38812D01*
X49758Y-38869D01*
X49758Y-38953D01*
X49758Y-38503D02*
X49365Y-38503D01*
X49421Y-38503D02*
X49393Y-38475D01*
X49365Y-38419D01*
X49365Y-38334D01*
X49393Y-38278D01*
X49449Y-38250D01*
X49758Y-38250D01*
X49449Y-38250D02*
X49393Y-38222D01*
X49365Y-38166D01*
X49365Y-38081D01*
X49393Y-38025D01*
X49449Y-37997D01*
X49758Y-37997D01*
G54D12*
X58561Y-47225D02*
G75*
G03X58561Y-47225I-2061J0D01*
G74*
G01*
G54D13*
X56600Y-47675D02*
X56850Y-47675D01*
X56850Y-47675D02*
X56850Y-46775D01*
X56600Y-46775D02*
X56850Y-46775D01*
X56600Y-47675D02*
X56600Y-46775D01*
G54D14*
X56050Y-47225D02*
X56150Y-47225D01*
X56150Y-47225D02*
X56150Y-47675D01*
X56150Y-47675D02*
X56400Y-47675D01*
X56400Y-47675D02*
X56400Y-46775D01*
X56400Y-46775D02*
X56150Y-46775D01*
X56150Y-46775D02*
X56150Y-47225D01*
X56750Y-47225D02*
X56950Y-47225D01*
X54000Y-47075D02*
X54000Y-47375D01*
X54150Y-47225D02*
X53850Y-47225D01*
X56950Y-47225D02*
X57150Y-47225D01*
X55850Y-47225D02*
X56050Y-47225D01*
G54D12*
X75625Y-31250D02*
X75625Y-52250D01*
X74625Y-52250D02*
X75625Y-52250D01*
X74625Y-31250D02*
X75625Y-31250D01*
X74625Y-31250D02*
X47125Y-31250D01*
X47125Y-52250D02*
X74625Y-52250D01*
X47125Y-52250D02*
X47125Y-31250D01*
X61550Y-38374D02*
X61550Y-44374D01*
X65350Y-38374D02*
X65350Y-44374D01*
X65350Y-44374D02*
X61550Y-44374D01*
X61550Y-38374D02*
X65350Y-38374D01*
X60576Y-39657D02*
X60576Y-40839D01*
X61289Y-40262D02*
X60589Y-39662D01*
X60590Y-40862D02*
X61290Y-40262D01*
G54D15*
X56450Y-48685D02*
X56421Y-48714D01*
X56335Y-48743D01*
X56278Y-48743D01*
X56192Y-48714D01*
X56135Y-48657D01*
X56107Y-48600D01*
X56078Y-48485D01*
X56078Y-48400D01*
X56107Y-48285D01*
X56135Y-48228D01*
X56192Y-48171D01*
X56278Y-48143D01*
X56335Y-48143D01*
X56421Y-48171D01*
X56450Y-48200D01*
X57021Y-48743D02*
X56678Y-48743D01*
X56850Y-48743D02*
X56850Y-48143D01*
X56792Y-48228D01*
X56735Y-48285D01*
X56678Y-48314D01*
X66792Y-41817D02*
X66192Y-41817D01*
X66192Y-41589D01*
X66221Y-41531D01*
X66250Y-41503D01*
X66307Y-41474D01*
X66392Y-41474D01*
X66450Y-41503D01*
X66478Y-41531D01*
X66507Y-41589D01*
X66507Y-41817D01*
X66792Y-40903D02*
X66792Y-41246D01*
X66792Y-41074D02*
X66192Y-41074D01*
X66278Y-41131D01*
X66335Y-41189D01*
X66364Y-41246D01*
G54D16*
X61752Y-42255D02*
X61752Y-42493D01*
X61990Y-42517D01*
X61966Y-42493D01*
X61942Y-42446D01*
X61942Y-42327D01*
X61966Y-42279D01*
X61990Y-42255D01*
X62038Y-42231D01*
X62157Y-42231D01*
X62204Y-42255D01*
X62228Y-42279D01*
X62252Y-42327D01*
X62252Y-42446D01*
X62228Y-42493D01*
X62204Y-42517D01*
X64452Y-42279D02*
X64452Y-42374D01*
X64476Y-42422D01*
X64500Y-42446D01*
X64571Y-42493D01*
X64666Y-42517D01*
X64857Y-42517D01*
X64904Y-42493D01*
X64928Y-42470D01*
X64952Y-42422D01*
X64952Y-42327D01*
X64928Y-42279D01*
X64904Y-42255D01*
X64857Y-42231D01*
X64738Y-42231D01*
X64690Y-42255D01*
X64666Y-42279D01*
X64642Y-42327D01*
X64642Y-42422D01*
X64666Y-42470D01*
X64690Y-42493D01*
X64738Y-42517D01*
X64500Y-40517D02*
X64476Y-40493D01*
X64452Y-40446D01*
X64452Y-40327D01*
X64476Y-40279D01*
X64500Y-40255D01*
X64547Y-40231D01*
X64595Y-40231D01*
X64666Y-40255D01*
X64952Y-40541D01*
X64952Y-40231D01*
M02*
