M48
;DRILL file {Pcbnew (2013-jul-07)-stable} date Thu 03 Sep 2015 05:45:52 PM PDT
;FORMAT={-:-/ absolute / inch / decimal}
FMAT,2
INCH,TZ
T1C0.032
T2C0.040
T3C0.125
%
G90
G05
M72
T1
X5.3025Y-3.225
X5.4025Y-3.225
X5.5025Y-3.225
X5.6025Y-3.225
X5.6625Y-5.125
X5.7025Y-3.225
X5.7625Y-5.125
X5.8025Y-3.225
X5.8625Y-5.125
X5.9025Y-3.225
X5.9625Y-5.125
X6.0025Y-3.225
X6.0625Y-5.125
X6.1625Y-3.225
X6.1625Y-5.125
X6.2625Y-3.225
X6.3625Y-3.225
X6.3625Y-5.125
X6.4625Y-3.225
X6.4625Y-5.125
X6.5625Y-3.225
X6.5625Y-5.125
X6.6625Y-3.225
X6.6625Y-5.125
X6.7625Y-3.225
X6.7625Y-5.125
X6.8625Y-3.225
X6.8625Y-5.125
T2
X5.55Y-4.7225
X5.75Y-4.7225
X6.295Y-4.0375
X6.295Y-4.1375
X6.295Y-4.2375
X6.395Y-4.0375
X6.395Y-4.1375
X6.395Y-4.2375
T3
X4.9125Y-5.125
X4.9625Y-3.225
X6.9625Y-3.825
X6.9625Y-4.925
T0
M30
