G04 (created by PCBNEW (2013-jul-07)-stable) date Thu 03 Sep 2015 05:45:47 PM PDT*
%MOIN*%
G04 Gerber Fmt 3.4, Leading zero omitted, Abs format*
%FSLAX34Y34*%
G01*
G70*
G90*
G04 APERTURE LIST*
%ADD10C,0.00590551*%
%ADD11C,0.1*%
%ADD12O,0.06X0.1*%
%ADD13C,0.155*%
%ADD14R,0.07X0.07*%
%ADD15C,0.07*%
%ADD16C,0.02*%
G04 APERTURE END LIST*
G54D10*
G54D11*
X55500Y-47225D03*
X57500Y-47225D03*
G54D12*
X68625Y-51250D03*
X67625Y-51250D03*
X66625Y-51250D03*
X63625Y-51250D03*
X64625Y-51250D03*
X65625Y-51250D03*
X61625Y-51250D03*
X60625Y-51250D03*
X59625Y-51250D03*
X57625Y-51250D03*
X56625Y-51250D03*
X68625Y-32250D03*
X67625Y-32250D03*
X66625Y-32250D03*
X65625Y-32250D03*
X64625Y-32250D03*
X63625Y-32250D03*
X62625Y-32250D03*
X61625Y-32250D03*
X60025Y-32250D03*
X59025Y-32250D03*
X58025Y-32250D03*
X57025Y-32250D03*
X56025Y-32250D03*
X55025Y-32250D03*
X54025Y-32250D03*
X53025Y-32250D03*
X58625Y-51250D03*
G54D13*
X69625Y-49250D03*
X69625Y-38250D03*
X49625Y-32250D03*
X49125Y-51250D03*
G54D14*
X62950Y-40374D03*
G54D15*
X63950Y-40374D03*
X62950Y-41374D03*
X63950Y-41374D03*
X62950Y-42374D03*
X63950Y-42374D03*
G54D16*
X57624Y-47349D02*
X57500Y-47225D01*
X58975Y-47349D02*
X57624Y-47349D01*
X63950Y-42374D02*
X58975Y-47349D01*
X58975Y-49899D02*
X59625Y-50549D01*
X58975Y-47349D02*
X58975Y-49899D01*
X59625Y-51250D02*
X59625Y-50549D01*
X62899Y-39824D02*
X56025Y-32950D01*
X62950Y-39824D02*
X62899Y-39824D01*
X56025Y-32250D02*
X56025Y-32950D01*
X62950Y-40374D02*
X62950Y-39824D01*
X57324Y-32950D02*
X57025Y-32950D01*
X64505Y-40130D02*
X57324Y-32950D01*
X64505Y-40819D02*
X64505Y-40130D01*
X63950Y-41374D02*
X64505Y-40819D01*
X57025Y-32250D02*
X57025Y-32950D01*
X56625Y-51250D02*
X56625Y-50549D01*
X55805Y-47225D02*
X55500Y-47225D01*
X60655Y-42374D02*
X55805Y-47225D01*
X62950Y-42374D02*
X60655Y-42374D01*
X55805Y-49730D02*
X56625Y-50549D01*
X55805Y-47225D02*
X55805Y-49730D01*
M02*
