%TF.GenerationSoftware,KiCad,Pcbnew,5.1.10*%
%TF.CreationDate,2021-11-17T00:54:39-05:00*%
%TF.ProjectId,shield_programmer_v0p3,73686965-6c64-45f7-9072-6f6772616d6d,rev?*%
%TF.SameCoordinates,Original*%
%TF.FileFunction,Legend,Top*%
%TF.FilePolarity,Positive*%
%FSLAX46Y46*%
G04 Gerber Fmt 4.6, Leading zero omitted, Abs format (unit mm)*
G04 Created by KiCad (PCBNEW 5.1.10) date 2021-11-17 00:54:39*
%MOMM*%
%LPD*%
G01*
G04 APERTURE LIST*
%ADD10C,0.300000*%
%ADD11C,0.120000*%
%ADD12C,0.381000*%
%ADD13C,0.150000*%
G04 APERTURE END LIST*
D10*
X125441142Y-98684857D02*
X125384000Y-98627714D01*
X125326857Y-98513428D01*
X125326857Y-98227714D01*
X125384000Y-98113428D01*
X125441142Y-98056285D01*
X125555428Y-97999142D01*
X125669714Y-97999142D01*
X125841142Y-98056285D01*
X126526857Y-98742000D01*
X126526857Y-97999142D01*
X125326857Y-97256285D02*
X125326857Y-97142000D01*
X125384000Y-97027714D01*
X125441142Y-96970571D01*
X125555428Y-96913428D01*
X125784000Y-96856285D01*
X126069714Y-96856285D01*
X126298285Y-96913428D01*
X126412571Y-96970571D01*
X126469714Y-97027714D01*
X126526857Y-97142000D01*
X126526857Y-97256285D01*
X126469714Y-97370571D01*
X126412571Y-97427714D01*
X126298285Y-97484857D01*
X126069714Y-97542000D01*
X125784000Y-97542000D01*
X125555428Y-97484857D01*
X125441142Y-97427714D01*
X125384000Y-97370571D01*
X125326857Y-97256285D01*
X125441142Y-96399142D02*
X125384000Y-96342000D01*
X125326857Y-96227714D01*
X125326857Y-95942000D01*
X125384000Y-95827714D01*
X125441142Y-95770571D01*
X125555428Y-95713428D01*
X125669714Y-95713428D01*
X125841142Y-95770571D01*
X126526857Y-96456285D01*
X126526857Y-95713428D01*
X126526857Y-94570571D02*
X126526857Y-95256285D01*
X126526857Y-94913428D02*
X125326857Y-94913428D01*
X125498285Y-95027714D01*
X125612571Y-95142000D01*
X125669714Y-95256285D01*
X126069714Y-94056285D02*
X126069714Y-93142000D01*
X126526857Y-91942000D02*
X126526857Y-92627714D01*
X126526857Y-92284857D02*
X125326857Y-92284857D01*
X125498285Y-92399142D01*
X125612571Y-92513428D01*
X125669714Y-92627714D01*
X126526857Y-90799142D02*
X126526857Y-91484857D01*
X126526857Y-91142000D02*
X125326857Y-91142000D01*
X125498285Y-91256285D01*
X125612571Y-91370571D01*
X125669714Y-91484857D01*
X132622857Y-129480000D02*
X131422857Y-129480000D01*
X132622857Y-128965714D02*
X131994285Y-128965714D01*
X131880000Y-129022857D01*
X131822857Y-129137142D01*
X131822857Y-129308571D01*
X131880000Y-129422857D01*
X131937142Y-129480000D01*
X131822857Y-128565714D02*
X131822857Y-128108571D01*
X131422857Y-128394285D02*
X132451428Y-128394285D01*
X132565714Y-128337142D01*
X132622857Y-128222857D01*
X132622857Y-128108571D01*
X131822857Y-127880000D02*
X131822857Y-127422857D01*
X131422857Y-127708571D02*
X132451428Y-127708571D01*
X132565714Y-127651428D01*
X132622857Y-127537142D01*
X132622857Y-127422857D01*
X131822857Y-127022857D02*
X133022857Y-127022857D01*
X131880000Y-127022857D02*
X131822857Y-126908571D01*
X131822857Y-126680000D01*
X131880000Y-126565714D01*
X131937142Y-126508571D01*
X132051428Y-126451428D01*
X132394285Y-126451428D01*
X132508571Y-126508571D01*
X132565714Y-126565714D01*
X132622857Y-126680000D01*
X132622857Y-126908571D01*
X132565714Y-127022857D01*
X132565714Y-125994285D02*
X132622857Y-125880000D01*
X132622857Y-125651428D01*
X132565714Y-125537142D01*
X132451428Y-125480000D01*
X132394285Y-125480000D01*
X132280000Y-125537142D01*
X132222857Y-125651428D01*
X132222857Y-125822857D01*
X132165714Y-125937142D01*
X132051428Y-125994285D01*
X131994285Y-125994285D01*
X131880000Y-125937142D01*
X131822857Y-125822857D01*
X131822857Y-125651428D01*
X131880000Y-125537142D01*
X132508571Y-124965714D02*
X132565714Y-124908571D01*
X132622857Y-124965714D01*
X132565714Y-125022857D01*
X132508571Y-124965714D01*
X132622857Y-124965714D01*
X131880000Y-124965714D02*
X131937142Y-124908571D01*
X131994285Y-124965714D01*
X131937142Y-125022857D01*
X131880000Y-124965714D01*
X131994285Y-124965714D01*
X131365714Y-123537142D02*
X132908571Y-124565714D01*
X131365714Y-122280000D02*
X132908571Y-123308571D01*
X132622857Y-121880000D02*
X131822857Y-121880000D01*
X132051428Y-121880000D02*
X131937142Y-121822857D01*
X131880000Y-121765714D01*
X131822857Y-121651428D01*
X131822857Y-121537142D01*
X132565714Y-120680000D02*
X132622857Y-120794285D01*
X132622857Y-121022857D01*
X132565714Y-121137142D01*
X132451428Y-121194285D01*
X131994285Y-121194285D01*
X131880000Y-121137142D01*
X131822857Y-121022857D01*
X131822857Y-120794285D01*
X131880000Y-120680000D01*
X131994285Y-120622857D01*
X132108571Y-120622857D01*
X132222857Y-121194285D01*
X132622857Y-120108571D02*
X131822857Y-120108571D01*
X131422857Y-120108571D02*
X131480000Y-120165714D01*
X131537142Y-120108571D01*
X131480000Y-120051428D01*
X131422857Y-120108571D01*
X131537142Y-120108571D01*
X132565714Y-119594285D02*
X132622857Y-119480000D01*
X132622857Y-119251428D01*
X132565714Y-119137142D01*
X132451428Y-119080000D01*
X132394285Y-119080000D01*
X132280000Y-119137142D01*
X132222857Y-119251428D01*
X132222857Y-119422857D01*
X132165714Y-119537142D01*
X132051428Y-119594285D01*
X131994285Y-119594285D01*
X131880000Y-119537142D01*
X131822857Y-119422857D01*
X131822857Y-119251428D01*
X131880000Y-119137142D01*
X132565714Y-118108571D02*
X132622857Y-118222857D01*
X132622857Y-118451428D01*
X132565714Y-118565714D01*
X132451428Y-118622857D01*
X131994285Y-118622857D01*
X131880000Y-118565714D01*
X131822857Y-118451428D01*
X131822857Y-118222857D01*
X131880000Y-118108571D01*
X131994285Y-118051428D01*
X132108571Y-118051428D01*
X132222857Y-118622857D01*
X132622857Y-117537142D02*
X131822857Y-117537142D01*
X132051428Y-117537142D02*
X131937142Y-117480000D01*
X131880000Y-117422857D01*
X131822857Y-117308571D01*
X131822857Y-117194285D01*
X132622857Y-116622857D02*
X132565714Y-116737142D01*
X132451428Y-116794285D01*
X131422857Y-116794285D01*
X132622857Y-115651428D02*
X131994285Y-115651428D01*
X131880000Y-115708571D01*
X131822857Y-115822857D01*
X131822857Y-116051428D01*
X131880000Y-116165714D01*
X132565714Y-115651428D02*
X132622857Y-115765714D01*
X132622857Y-116051428D01*
X132565714Y-116165714D01*
X132451428Y-116222857D01*
X132337142Y-116222857D01*
X132222857Y-116165714D01*
X132165714Y-116051428D01*
X132165714Y-115765714D01*
X132108571Y-115651428D01*
X132622857Y-115080000D02*
X131422857Y-115080000D01*
X131880000Y-115080000D02*
X131822857Y-114965714D01*
X131822857Y-114737142D01*
X131880000Y-114622857D01*
X131937142Y-114565714D01*
X132051428Y-114508571D01*
X132394285Y-114508571D01*
X132508571Y-114565714D01*
X132565714Y-114622857D01*
X132622857Y-114737142D01*
X132622857Y-114965714D01*
X132565714Y-115080000D01*
X132508571Y-113994285D02*
X132565714Y-113937142D01*
X132622857Y-113994285D01*
X132565714Y-114051428D01*
X132508571Y-113994285D01*
X132622857Y-113994285D01*
X131822857Y-112908571D02*
X132794285Y-112908571D01*
X132908571Y-112965714D01*
X132965714Y-113022857D01*
X133022857Y-113137142D01*
X133022857Y-113308571D01*
X132965714Y-113422857D01*
X132565714Y-112908571D02*
X132622857Y-113022857D01*
X132622857Y-113251428D01*
X132565714Y-113365714D01*
X132508571Y-113422857D01*
X132394285Y-113480000D01*
X132051428Y-113480000D01*
X131937142Y-113422857D01*
X131880000Y-113365714D01*
X131822857Y-113251428D01*
X131822857Y-113022857D01*
X131880000Y-112908571D01*
X132622857Y-112337142D02*
X131822857Y-112337142D01*
X131422857Y-112337142D02*
X131480000Y-112394285D01*
X131537142Y-112337142D01*
X131480000Y-112280000D01*
X131422857Y-112337142D01*
X131537142Y-112337142D01*
X131822857Y-111937142D02*
X131822857Y-111480000D01*
X131422857Y-111765714D02*
X132451428Y-111765714D01*
X132565714Y-111708571D01*
X132622857Y-111594285D01*
X132622857Y-111480000D01*
X132622857Y-111080000D02*
X131422857Y-111080000D01*
X132622857Y-110565714D02*
X131994285Y-110565714D01*
X131880000Y-110622857D01*
X131822857Y-110737142D01*
X131822857Y-110908571D01*
X131880000Y-111022857D01*
X131937142Y-111080000D01*
X131822857Y-109480000D02*
X132622857Y-109480000D01*
X131822857Y-109994285D02*
X132451428Y-109994285D01*
X132565714Y-109937142D01*
X132622857Y-109822857D01*
X132622857Y-109651428D01*
X132565714Y-109537142D01*
X132508571Y-109480000D01*
X132622857Y-108908571D02*
X131422857Y-108908571D01*
X131880000Y-108908571D02*
X131822857Y-108794285D01*
X131822857Y-108565714D01*
X131880000Y-108451428D01*
X131937142Y-108394285D01*
X132051428Y-108337142D01*
X132394285Y-108337142D01*
X132508571Y-108394285D01*
X132565714Y-108451428D01*
X132622857Y-108565714D01*
X132622857Y-108794285D01*
X132565714Y-108908571D01*
X132508571Y-107822857D02*
X132565714Y-107765714D01*
X132622857Y-107822857D01*
X132565714Y-107880000D01*
X132508571Y-107822857D01*
X132622857Y-107822857D01*
X132622857Y-107251428D02*
X131822857Y-107251428D01*
X131422857Y-107251428D02*
X131480000Y-107308571D01*
X131537142Y-107251428D01*
X131480000Y-107194285D01*
X131422857Y-107251428D01*
X131537142Y-107251428D01*
X132622857Y-106508571D02*
X132565714Y-106622857D01*
X132508571Y-106680000D01*
X132394285Y-106737142D01*
X132051428Y-106737142D01*
X131937142Y-106680000D01*
X131880000Y-106622857D01*
X131822857Y-106508571D01*
X131822857Y-106337142D01*
X131880000Y-106222857D01*
X131937142Y-106165714D01*
X132051428Y-106108571D01*
X132394285Y-106108571D01*
X132508571Y-106165714D01*
X132565714Y-106222857D01*
X132622857Y-106337142D01*
X132622857Y-106508571D01*
X131365714Y-104737142D02*
X132908571Y-105765714D01*
X132622857Y-104337142D02*
X131422857Y-104337142D01*
X132280000Y-103937142D01*
X131422857Y-103537142D01*
X132622857Y-103537142D01*
X132622857Y-102794285D02*
X132565714Y-102908571D01*
X132508571Y-102965714D01*
X132394285Y-103022857D01*
X132051428Y-103022857D01*
X131937142Y-102965714D01*
X131880000Y-102908571D01*
X131822857Y-102794285D01*
X131822857Y-102622857D01*
X131880000Y-102508571D01*
X131937142Y-102451428D01*
X132051428Y-102394285D01*
X132394285Y-102394285D01*
X132508571Y-102451428D01*
X132565714Y-102508571D01*
X132622857Y-102622857D01*
X132622857Y-102794285D01*
X132622857Y-101365714D02*
X131422857Y-101365714D01*
X132565714Y-101365714D02*
X132622857Y-101480000D01*
X132622857Y-101708571D01*
X132565714Y-101822857D01*
X132508571Y-101880000D01*
X132394285Y-101937142D01*
X132051428Y-101937142D01*
X131937142Y-101880000D01*
X131880000Y-101822857D01*
X131822857Y-101708571D01*
X131822857Y-101480000D01*
X131880000Y-101365714D01*
X131822857Y-100280000D02*
X132622857Y-100280000D01*
X131822857Y-100794285D02*
X132451428Y-100794285D01*
X132565714Y-100737142D01*
X132622857Y-100622857D01*
X132622857Y-100451428D01*
X132565714Y-100337142D01*
X132508571Y-100280000D01*
X132622857Y-99537142D02*
X132565714Y-99651428D01*
X132451428Y-99708571D01*
X131422857Y-99708571D01*
X132622857Y-98565714D02*
X131994285Y-98565714D01*
X131880000Y-98622857D01*
X131822857Y-98737142D01*
X131822857Y-98965714D01*
X131880000Y-99080000D01*
X132565714Y-98565714D02*
X132622857Y-98680000D01*
X132622857Y-98965714D01*
X132565714Y-99080000D01*
X132451428Y-99137142D01*
X132337142Y-99137142D01*
X132222857Y-99080000D01*
X132165714Y-98965714D01*
X132165714Y-98680000D01*
X132108571Y-98565714D01*
X132622857Y-97994285D02*
X131822857Y-97994285D01*
X132051428Y-97994285D02*
X131937142Y-97937142D01*
X131880000Y-97880000D01*
X131822857Y-97765714D01*
X131822857Y-97651428D01*
X132165714Y-97251428D02*
X132165714Y-96337142D01*
X132622857Y-95194285D02*
X132622857Y-95765714D01*
X131422857Y-95765714D01*
X131994285Y-94794285D02*
X131994285Y-94394285D01*
X132622857Y-94222857D02*
X132622857Y-94794285D01*
X131422857Y-94794285D01*
X131422857Y-94222857D01*
X132622857Y-93708571D02*
X131422857Y-93708571D01*
X131422857Y-93422857D01*
X131480000Y-93251428D01*
X131594285Y-93137142D01*
X131708571Y-93080000D01*
X131937142Y-93022857D01*
X132108571Y-93022857D01*
X132337142Y-93080000D01*
X132451428Y-93137142D01*
X132565714Y-93251428D01*
X132622857Y-93422857D01*
X132622857Y-93708571D01*
X132165714Y-92508571D02*
X132165714Y-91594285D01*
X132622857Y-91022857D02*
X131422857Y-91022857D01*
X131422857Y-90737142D01*
X131480000Y-90565714D01*
X131594285Y-90451428D01*
X131708571Y-90394285D01*
X131937142Y-90337142D01*
X132108571Y-90337142D01*
X132337142Y-90394285D01*
X132451428Y-90451428D01*
X132565714Y-90565714D01*
X132622857Y-90737142D01*
X132622857Y-91022857D01*
X132622857Y-89822857D02*
X131822857Y-89822857D01*
X131422857Y-89822857D02*
X131480000Y-89880000D01*
X131537142Y-89822857D01*
X131480000Y-89765714D01*
X131422857Y-89822857D01*
X131537142Y-89822857D01*
X132565714Y-89308571D02*
X132622857Y-89194285D01*
X132622857Y-88965714D01*
X132565714Y-88851428D01*
X132451428Y-88794285D01*
X132394285Y-88794285D01*
X132280000Y-88851428D01*
X132222857Y-88965714D01*
X132222857Y-89137142D01*
X132165714Y-89251428D01*
X132051428Y-89308571D01*
X131994285Y-89308571D01*
X131880000Y-89251428D01*
X131822857Y-89137142D01*
X131822857Y-88965714D01*
X131880000Y-88851428D01*
X131822857Y-88280000D02*
X133022857Y-88280000D01*
X131880000Y-88280000D02*
X131822857Y-88165714D01*
X131822857Y-87937142D01*
X131880000Y-87822857D01*
X131937142Y-87765714D01*
X132051428Y-87708571D01*
X132394285Y-87708571D01*
X132508571Y-87765714D01*
X132565714Y-87822857D01*
X132622857Y-87937142D01*
X132622857Y-88165714D01*
X132565714Y-88280000D01*
X132622857Y-87022857D02*
X132565714Y-87137142D01*
X132451428Y-87194285D01*
X131422857Y-87194285D01*
X132622857Y-86051428D02*
X131994285Y-86051428D01*
X131880000Y-86108571D01*
X131822857Y-86222857D01*
X131822857Y-86451428D01*
X131880000Y-86565714D01*
X132565714Y-86051428D02*
X132622857Y-86165714D01*
X132622857Y-86451428D01*
X132565714Y-86565714D01*
X132451428Y-86622857D01*
X132337142Y-86622857D01*
X132222857Y-86565714D01*
X132165714Y-86451428D01*
X132165714Y-86165714D01*
X132108571Y-86051428D01*
X131822857Y-85594285D02*
X132622857Y-85308571D01*
X131822857Y-85022857D02*
X132622857Y-85308571D01*
X132908571Y-85422857D01*
X132965714Y-85480000D01*
X133022857Y-85594285D01*
X131365714Y-83708571D02*
X132908571Y-84737142D01*
X124059071Y-120227500D02*
X122559071Y-120227500D01*
X122559071Y-119656071D01*
X122630500Y-119513214D01*
X122701928Y-119441785D01*
X122844785Y-119370357D01*
X123059071Y-119370357D01*
X123201928Y-119441785D01*
X123273357Y-119513214D01*
X123344785Y-119656071D01*
X123344785Y-120227500D01*
X124059071Y-118727500D02*
X123059071Y-118727500D01*
X123344785Y-118727500D02*
X123201928Y-118656071D01*
X123130500Y-118584642D01*
X123059071Y-118441785D01*
X123059071Y-118298928D01*
X124059071Y-117584642D02*
X123987642Y-117727500D01*
X123916214Y-117798928D01*
X123773357Y-117870357D01*
X123344785Y-117870357D01*
X123201928Y-117798928D01*
X123130500Y-117727500D01*
X123059071Y-117584642D01*
X123059071Y-117370357D01*
X123130500Y-117227500D01*
X123201928Y-117156071D01*
X123344785Y-117084642D01*
X123773357Y-117084642D01*
X123916214Y-117156071D01*
X123987642Y-117227500D01*
X124059071Y-117370357D01*
X124059071Y-117584642D01*
X123059071Y-115798928D02*
X124273357Y-115798928D01*
X124416214Y-115870357D01*
X124487642Y-115941785D01*
X124559071Y-116084642D01*
X124559071Y-116298928D01*
X124487642Y-116441785D01*
X123987642Y-115798928D02*
X124059071Y-115941785D01*
X124059071Y-116227500D01*
X123987642Y-116370357D01*
X123916214Y-116441785D01*
X123773357Y-116513214D01*
X123344785Y-116513214D01*
X123201928Y-116441785D01*
X123130500Y-116370357D01*
X123059071Y-116227500D01*
X123059071Y-115941785D01*
X123130500Y-115798928D01*
X124059071Y-115084642D02*
X123059071Y-115084642D01*
X123344785Y-115084642D02*
X123201928Y-115013214D01*
X123130500Y-114941785D01*
X123059071Y-114798928D01*
X123059071Y-114656071D01*
X124059071Y-113513214D02*
X123273357Y-113513214D01*
X123130500Y-113584642D01*
X123059071Y-113727500D01*
X123059071Y-114013214D01*
X123130500Y-114156071D01*
X123987642Y-113513214D02*
X124059071Y-113656071D01*
X124059071Y-114013214D01*
X123987642Y-114156071D01*
X123844785Y-114227500D01*
X123701928Y-114227500D01*
X123559071Y-114156071D01*
X123487642Y-114013214D01*
X123487642Y-113656071D01*
X123416214Y-113513214D01*
X124059071Y-112798928D02*
X123059071Y-112798928D01*
X123201928Y-112798928D02*
X123130500Y-112727500D01*
X123059071Y-112584642D01*
X123059071Y-112370357D01*
X123130500Y-112227500D01*
X123273357Y-112156071D01*
X124059071Y-112156071D01*
X123273357Y-112156071D02*
X123130500Y-112084642D01*
X123059071Y-111941785D01*
X123059071Y-111727500D01*
X123130500Y-111584642D01*
X123273357Y-111513214D01*
X124059071Y-111513214D01*
X124059071Y-110798928D02*
X123059071Y-110798928D01*
X123201928Y-110798928D02*
X123130500Y-110727500D01*
X123059071Y-110584642D01*
X123059071Y-110370357D01*
X123130500Y-110227500D01*
X123273357Y-110156071D01*
X124059071Y-110156071D01*
X123273357Y-110156071D02*
X123130500Y-110084642D01*
X123059071Y-109941785D01*
X123059071Y-109727500D01*
X123130500Y-109584642D01*
X123273357Y-109513214D01*
X124059071Y-109513214D01*
X123987642Y-108227500D02*
X124059071Y-108370357D01*
X124059071Y-108656071D01*
X123987642Y-108798928D01*
X123844785Y-108870357D01*
X123273357Y-108870357D01*
X123130500Y-108798928D01*
X123059071Y-108656071D01*
X123059071Y-108370357D01*
X123130500Y-108227500D01*
X123273357Y-108156071D01*
X123416214Y-108156071D01*
X123559071Y-108870357D01*
X124059071Y-107513214D02*
X123059071Y-107513214D01*
X123344785Y-107513214D02*
X123201928Y-107441785D01*
X123130500Y-107370357D01*
X123059071Y-107227500D01*
X123059071Y-107084642D01*
X123987642Y-105513214D02*
X124059071Y-105298928D01*
X124059071Y-104941785D01*
X123987642Y-104798928D01*
X123916214Y-104727500D01*
X123773357Y-104656071D01*
X123630500Y-104656071D01*
X123487642Y-104727500D01*
X123416214Y-104798928D01*
X123344785Y-104941785D01*
X123273357Y-105227500D01*
X123201928Y-105370357D01*
X123130500Y-105441785D01*
X122987642Y-105513214D01*
X122844785Y-105513214D01*
X122701928Y-105441785D01*
X122630500Y-105370357D01*
X122559071Y-105227500D01*
X122559071Y-104870357D01*
X122630500Y-104656071D01*
X124059071Y-104013214D02*
X122559071Y-104013214D01*
X124059071Y-103370357D02*
X123273357Y-103370357D01*
X123130500Y-103441785D01*
X123059071Y-103584642D01*
X123059071Y-103798928D01*
X123130500Y-103941785D01*
X123201928Y-104013214D01*
X124059071Y-102656071D02*
X123059071Y-102656071D01*
X122559071Y-102656071D02*
X122630500Y-102727500D01*
X122701928Y-102656071D01*
X122630500Y-102584642D01*
X122559071Y-102656071D01*
X122701928Y-102656071D01*
X123987642Y-101370357D02*
X124059071Y-101513214D01*
X124059071Y-101798928D01*
X123987642Y-101941785D01*
X123844785Y-102013214D01*
X123273357Y-102013214D01*
X123130500Y-101941785D01*
X123059071Y-101798928D01*
X123059071Y-101513214D01*
X123130500Y-101370357D01*
X123273357Y-101298928D01*
X123416214Y-101298928D01*
X123559071Y-102013214D01*
X124059071Y-100441785D02*
X123987642Y-100584642D01*
X123844785Y-100656071D01*
X122559071Y-100656071D01*
X124059071Y-99227500D02*
X122559071Y-99227500D01*
X123987642Y-99227500D02*
X124059071Y-99370357D01*
X124059071Y-99656071D01*
X123987642Y-99798928D01*
X123916214Y-99870357D01*
X123773357Y-99941785D01*
X123344785Y-99941785D01*
X123201928Y-99870357D01*
X123130500Y-99798928D01*
X123059071Y-99656071D01*
X123059071Y-99370357D01*
X123130500Y-99227500D01*
X123059071Y-97513214D02*
X124059071Y-97156071D01*
X123059071Y-96798928D01*
X122559071Y-95941785D02*
X122559071Y-95798928D01*
X122630500Y-95656071D01*
X122701928Y-95584642D01*
X122844785Y-95513214D01*
X123130500Y-95441785D01*
X123487642Y-95441785D01*
X123773357Y-95513214D01*
X123916214Y-95584642D01*
X123987642Y-95656071D01*
X124059071Y-95798928D01*
X124059071Y-95941785D01*
X123987642Y-96084642D01*
X123916214Y-96156071D01*
X123773357Y-96227500D01*
X123487642Y-96298928D01*
X123130500Y-96298928D01*
X122844785Y-96227500D01*
X122701928Y-96156071D01*
X122630500Y-96084642D01*
X122559071Y-95941785D01*
X123916214Y-94798928D02*
X123987642Y-94727500D01*
X124059071Y-94798928D01*
X123987642Y-94870357D01*
X123916214Y-94798928D01*
X124059071Y-94798928D01*
X122559071Y-94227500D02*
X122559071Y-93298928D01*
X123130500Y-93798928D01*
X123130500Y-93584642D01*
X123201928Y-93441785D01*
X123273357Y-93370357D01*
X123416214Y-93298928D01*
X123773357Y-93298928D01*
X123916214Y-93370357D01*
X123987642Y-93441785D01*
X124059071Y-93584642D01*
X124059071Y-94013214D01*
X123987642Y-94156071D01*
X123916214Y-94227500D01*
X123916214Y-92656071D02*
X123987642Y-92584642D01*
X124059071Y-92656071D01*
X123987642Y-92727500D01*
X123916214Y-92656071D01*
X124059071Y-92656071D01*
X123059071Y-91298928D02*
X124059071Y-91298928D01*
X122487642Y-91656071D02*
X123559071Y-92013214D01*
X123559071Y-91084642D01*
D11*
%TO.C,P1*%
X158436000Y-109026000D02*
X163636000Y-109026000D01*
X158436000Y-103886000D02*
X158436000Y-109026000D01*
X163636000Y-101286000D02*
X163636000Y-109026000D01*
X158436000Y-103886000D02*
X161036000Y-103886000D01*
X161036000Y-103886000D02*
X161036000Y-101286000D01*
X161036000Y-101286000D02*
X163636000Y-101286000D01*
X158436000Y-102616000D02*
X158436000Y-101286000D01*
X158436000Y-101286000D02*
X159766000Y-101286000D01*
%TO.C,C1*%
X149010000Y-101560000D02*
G75*
G03*
X149010000Y-101560000I-5120000J0D01*
G01*
X148970000Y-101560000D02*
X138810000Y-101560000D01*
X148970000Y-101600000D02*
X138810000Y-101600000D01*
X148970000Y-101640000D02*
X138810000Y-101640000D01*
X148969000Y-101680000D02*
X138811000Y-101680000D01*
X148968000Y-101720000D02*
X138812000Y-101720000D01*
X148967000Y-101760000D02*
X138813000Y-101760000D01*
X148965000Y-101800000D02*
X138815000Y-101800000D01*
X148963000Y-101840000D02*
X138817000Y-101840000D01*
X148960000Y-101880000D02*
X138820000Y-101880000D01*
X148958000Y-101920000D02*
X138822000Y-101920000D01*
X148955000Y-101960000D02*
X138825000Y-101960000D01*
X148952000Y-102000000D02*
X138828000Y-102000000D01*
X148948000Y-102040000D02*
X138832000Y-102040000D01*
X148944000Y-102080000D02*
X138836000Y-102080000D01*
X148940000Y-102120000D02*
X138840000Y-102120000D01*
X148935000Y-102160000D02*
X138845000Y-102160000D01*
X148930000Y-102200000D02*
X138850000Y-102200000D01*
X148925000Y-102240000D02*
X138855000Y-102240000D01*
X148920000Y-102281000D02*
X138860000Y-102281000D01*
X148914000Y-102321000D02*
X138866000Y-102321000D01*
X148908000Y-102361000D02*
X138872000Y-102361000D01*
X148901000Y-102401000D02*
X138879000Y-102401000D01*
X148894000Y-102441000D02*
X138886000Y-102441000D01*
X148887000Y-102481000D02*
X138893000Y-102481000D01*
X148880000Y-102521000D02*
X138900000Y-102521000D01*
X148872000Y-102561000D02*
X138908000Y-102561000D01*
X148864000Y-102601000D02*
X138916000Y-102601000D01*
X148855000Y-102641000D02*
X138925000Y-102641000D01*
X148846000Y-102681000D02*
X138934000Y-102681000D01*
X148837000Y-102721000D02*
X138943000Y-102721000D01*
X148828000Y-102761000D02*
X138952000Y-102761000D01*
X148818000Y-102801000D02*
X138962000Y-102801000D01*
X148808000Y-102841000D02*
X145131000Y-102841000D01*
X142649000Y-102841000D02*
X138972000Y-102841000D01*
X148797000Y-102881000D02*
X145131000Y-102881000D01*
X142649000Y-102881000D02*
X138983000Y-102881000D01*
X148787000Y-102921000D02*
X145131000Y-102921000D01*
X142649000Y-102921000D02*
X138993000Y-102921000D01*
X148775000Y-102961000D02*
X145131000Y-102961000D01*
X142649000Y-102961000D02*
X139005000Y-102961000D01*
X148764000Y-103001000D02*
X145131000Y-103001000D01*
X142649000Y-103001000D02*
X139016000Y-103001000D01*
X148752000Y-103041000D02*
X145131000Y-103041000D01*
X142649000Y-103041000D02*
X139028000Y-103041000D01*
X148740000Y-103081000D02*
X145131000Y-103081000D01*
X142649000Y-103081000D02*
X139040000Y-103081000D01*
X148727000Y-103121000D02*
X145131000Y-103121000D01*
X142649000Y-103121000D02*
X139053000Y-103121000D01*
X148714000Y-103161000D02*
X145131000Y-103161000D01*
X142649000Y-103161000D02*
X139066000Y-103161000D01*
X148701000Y-103201000D02*
X145131000Y-103201000D01*
X142649000Y-103201000D02*
X139079000Y-103201000D01*
X148687000Y-103241000D02*
X145131000Y-103241000D01*
X142649000Y-103241000D02*
X139093000Y-103241000D01*
X148673000Y-103281000D02*
X145131000Y-103281000D01*
X142649000Y-103281000D02*
X139107000Y-103281000D01*
X148658000Y-103321000D02*
X145131000Y-103321000D01*
X142649000Y-103321000D02*
X139122000Y-103321000D01*
X148644000Y-103361000D02*
X145131000Y-103361000D01*
X142649000Y-103361000D02*
X139136000Y-103361000D01*
X148628000Y-103401000D02*
X145131000Y-103401000D01*
X142649000Y-103401000D02*
X139152000Y-103401000D01*
X148613000Y-103441000D02*
X145131000Y-103441000D01*
X142649000Y-103441000D02*
X139167000Y-103441000D01*
X148597000Y-103481000D02*
X145131000Y-103481000D01*
X142649000Y-103481000D02*
X139183000Y-103481000D01*
X148580000Y-103521000D02*
X145131000Y-103521000D01*
X142649000Y-103521000D02*
X139200000Y-103521000D01*
X148564000Y-103561000D02*
X145131000Y-103561000D01*
X142649000Y-103561000D02*
X139216000Y-103561000D01*
X148547000Y-103601000D02*
X145131000Y-103601000D01*
X142649000Y-103601000D02*
X139233000Y-103601000D01*
X148529000Y-103641000D02*
X145131000Y-103641000D01*
X142649000Y-103641000D02*
X139251000Y-103641000D01*
X148511000Y-103681000D02*
X145131000Y-103681000D01*
X142649000Y-103681000D02*
X139269000Y-103681000D01*
X148493000Y-103721000D02*
X145131000Y-103721000D01*
X142649000Y-103721000D02*
X139287000Y-103721000D01*
X148474000Y-103761000D02*
X145131000Y-103761000D01*
X142649000Y-103761000D02*
X139306000Y-103761000D01*
X148454000Y-103801000D02*
X145131000Y-103801000D01*
X142649000Y-103801000D02*
X139326000Y-103801000D01*
X148435000Y-103841000D02*
X145131000Y-103841000D01*
X142649000Y-103841000D02*
X139345000Y-103841000D01*
X148415000Y-103881000D02*
X145131000Y-103881000D01*
X142649000Y-103881000D02*
X139365000Y-103881000D01*
X148394000Y-103921000D02*
X145131000Y-103921000D01*
X142649000Y-103921000D02*
X139386000Y-103921000D01*
X148373000Y-103961000D02*
X145131000Y-103961000D01*
X142649000Y-103961000D02*
X139407000Y-103961000D01*
X148352000Y-104001000D02*
X145131000Y-104001000D01*
X142649000Y-104001000D02*
X139428000Y-104001000D01*
X148330000Y-104041000D02*
X145131000Y-104041000D01*
X142649000Y-104041000D02*
X139450000Y-104041000D01*
X148307000Y-104081000D02*
X145131000Y-104081000D01*
X142649000Y-104081000D02*
X139473000Y-104081000D01*
X148285000Y-104121000D02*
X145131000Y-104121000D01*
X142649000Y-104121000D02*
X139495000Y-104121000D01*
X148261000Y-104161000D02*
X145131000Y-104161000D01*
X142649000Y-104161000D02*
X139519000Y-104161000D01*
X148237000Y-104201000D02*
X145131000Y-104201000D01*
X142649000Y-104201000D02*
X139543000Y-104201000D01*
X148213000Y-104241000D02*
X145131000Y-104241000D01*
X142649000Y-104241000D02*
X139567000Y-104241000D01*
X148188000Y-104281000D02*
X145131000Y-104281000D01*
X142649000Y-104281000D02*
X139592000Y-104281000D01*
X148163000Y-104321000D02*
X145131000Y-104321000D01*
X142649000Y-104321000D02*
X139617000Y-104321000D01*
X148137000Y-104361000D02*
X145131000Y-104361000D01*
X142649000Y-104361000D02*
X139643000Y-104361000D01*
X148111000Y-104401000D02*
X145131000Y-104401000D01*
X142649000Y-104401000D02*
X139669000Y-104401000D01*
X148084000Y-104441000D02*
X145131000Y-104441000D01*
X142649000Y-104441000D02*
X139696000Y-104441000D01*
X148056000Y-104481000D02*
X145131000Y-104481000D01*
X142649000Y-104481000D02*
X139724000Y-104481000D01*
X148028000Y-104521000D02*
X145131000Y-104521000D01*
X142649000Y-104521000D02*
X139752000Y-104521000D01*
X148000000Y-104561000D02*
X145131000Y-104561000D01*
X142649000Y-104561000D02*
X139780000Y-104561000D01*
X147970000Y-104601000D02*
X145131000Y-104601000D01*
X142649000Y-104601000D02*
X139810000Y-104601000D01*
X147940000Y-104641000D02*
X145131000Y-104641000D01*
X142649000Y-104641000D02*
X139840000Y-104641000D01*
X147910000Y-104681000D02*
X145131000Y-104681000D01*
X142649000Y-104681000D02*
X139870000Y-104681000D01*
X147879000Y-104721000D02*
X145131000Y-104721000D01*
X142649000Y-104721000D02*
X139901000Y-104721000D01*
X147847000Y-104761000D02*
X145131000Y-104761000D01*
X142649000Y-104761000D02*
X139933000Y-104761000D01*
X147815000Y-104801000D02*
X145131000Y-104801000D01*
X142649000Y-104801000D02*
X139965000Y-104801000D01*
X147782000Y-104841000D02*
X145131000Y-104841000D01*
X142649000Y-104841000D02*
X139998000Y-104841000D01*
X147748000Y-104881000D02*
X145131000Y-104881000D01*
X142649000Y-104881000D02*
X140032000Y-104881000D01*
X147714000Y-104921000D02*
X145131000Y-104921000D01*
X142649000Y-104921000D02*
X140066000Y-104921000D01*
X147679000Y-104961000D02*
X145131000Y-104961000D01*
X142649000Y-104961000D02*
X140101000Y-104961000D01*
X147643000Y-105001000D02*
X145131000Y-105001000D01*
X142649000Y-105001000D02*
X140137000Y-105001000D01*
X147606000Y-105041000D02*
X145131000Y-105041000D01*
X142649000Y-105041000D02*
X140174000Y-105041000D01*
X147569000Y-105081000D02*
X145131000Y-105081000D01*
X142649000Y-105081000D02*
X140211000Y-105081000D01*
X147530000Y-105121000D02*
X145131000Y-105121000D01*
X142649000Y-105121000D02*
X140250000Y-105121000D01*
X147491000Y-105161000D02*
X145131000Y-105161000D01*
X142649000Y-105161000D02*
X140289000Y-105161000D01*
X147451000Y-105201000D02*
X145131000Y-105201000D01*
X142649000Y-105201000D02*
X140329000Y-105201000D01*
X147410000Y-105241000D02*
X145131000Y-105241000D01*
X142649000Y-105241000D02*
X140370000Y-105241000D01*
X147368000Y-105281000D02*
X145131000Y-105281000D01*
X142649000Y-105281000D02*
X140412000Y-105281000D01*
X147326000Y-105321000D02*
X140454000Y-105321000D01*
X147282000Y-105361000D02*
X140498000Y-105361000D01*
X147237000Y-105401000D02*
X140543000Y-105401000D01*
X147191000Y-105441000D02*
X140589000Y-105441000D01*
X147144000Y-105481000D02*
X140636000Y-105481000D01*
X147096000Y-105521000D02*
X140684000Y-105521000D01*
X147046000Y-105561000D02*
X140734000Y-105561000D01*
X146996000Y-105601000D02*
X140784000Y-105601000D01*
X146944000Y-105641000D02*
X140836000Y-105641000D01*
X146890000Y-105681000D02*
X140890000Y-105681000D01*
X146835000Y-105721000D02*
X140945000Y-105721000D01*
X146779000Y-105761000D02*
X141001000Y-105761000D01*
X146720000Y-105801000D02*
X141060000Y-105801000D01*
X146660000Y-105841000D02*
X141120000Y-105841000D01*
X146599000Y-105881000D02*
X141181000Y-105881000D01*
X146535000Y-105921000D02*
X141245000Y-105921000D01*
X146469000Y-105961000D02*
X141311000Y-105961000D01*
X146400000Y-106001000D02*
X141380000Y-106001000D01*
X146329000Y-106041000D02*
X141451000Y-106041000D01*
X146255000Y-106081000D02*
X141525000Y-106081000D01*
X146179000Y-106121000D02*
X141601000Y-106121000D01*
X146099000Y-106161000D02*
X141681000Y-106161000D01*
X146015000Y-106201000D02*
X141765000Y-106201000D01*
X145927000Y-106241000D02*
X141853000Y-106241000D01*
X145834000Y-106281000D02*
X141946000Y-106281000D01*
X145736000Y-106321000D02*
X142044000Y-106321000D01*
X145632000Y-106361000D02*
X142148000Y-106361000D01*
X145520000Y-106401000D02*
X142260000Y-106401000D01*
X145400000Y-106441000D02*
X142380000Y-106441000D01*
X145268000Y-106481000D02*
X142512000Y-106481000D01*
X145120000Y-106521000D02*
X142660000Y-106521000D01*
X144952000Y-106561000D02*
X142828000Y-106561000D01*
X144752000Y-106601000D02*
X143028000Y-106601000D01*
X144489000Y-106641000D02*
X143291000Y-106641000D01*
X146765000Y-96080354D02*
X146765000Y-97080354D01*
X147265000Y-96580354D02*
X146265000Y-96580354D01*
D12*
%TO.C,SHIELD1*%
X192088000Y-79375000D02*
X192088000Y-132715000D01*
X189548000Y-132715000D02*
X192088000Y-132715000D01*
X189548000Y-79375000D02*
X192088000Y-79375000D01*
X189548000Y-79375000D02*
X119698000Y-79375000D01*
X119698000Y-132715000D02*
X189548000Y-132715000D01*
X119698000Y-132715000D02*
X119698000Y-79375000D01*
%TO.C,P1*%
D13*
X160297904Y-100738380D02*
X160297904Y-99738380D01*
X160678857Y-99738380D01*
X160774095Y-99786000D01*
X160821714Y-99833619D01*
X160869333Y-99928857D01*
X160869333Y-100071714D01*
X160821714Y-100166952D01*
X160774095Y-100214571D01*
X160678857Y-100262190D01*
X160297904Y-100262190D01*
X161821714Y-100738380D02*
X161250285Y-100738380D01*
X161536000Y-100738380D02*
X161536000Y-99738380D01*
X161440761Y-99881238D01*
X161345523Y-99976476D01*
X161250285Y-100024095D01*
%TO.C,C1*%
X150497142Y-101726666D02*
X150544761Y-101774285D01*
X150592380Y-101917142D01*
X150592380Y-102012380D01*
X150544761Y-102155238D01*
X150449523Y-102250476D01*
X150354285Y-102298095D01*
X150163809Y-102345714D01*
X150020952Y-102345714D01*
X149830476Y-102298095D01*
X149735238Y-102250476D01*
X149640000Y-102155238D01*
X149592380Y-102012380D01*
X149592380Y-101917142D01*
X149640000Y-101774285D01*
X149687619Y-101726666D01*
X150592380Y-100774285D02*
X150592380Y-101345714D01*
X150592380Y-101060000D02*
X149592380Y-101060000D01*
X149735238Y-101155238D01*
X149830476Y-101250476D01*
X149878095Y-101345714D01*
%TD*%
M02*
