%FSLAX45Y45*%
G04 Gerber Fmt 4.5, Leading zero omitted, Abs format (unit mm)*
G04 Created by KiCad (PCBNEW 5.1.10) date 2021-11-17 00:55:28*
%MOMM*%
%LPD*%
G01*
G04 APERTURE LIST*
%TA.AperFunction,Profile*%
%ADD10C,0.100000*%
%TD*%
%TA.AperFunction,Profile*%
%ADD11C,0.381000*%
%TD*%
%ADD12C,0.200000*%
%ADD13C,0.300000*%
G04 APERTURE END LIST*
D10*
X19208750Y-13271500D02*
X19208750Y-13265150D01*
D11*
X11969750Y-13271500D02*
X19208750Y-13271500D01*
X19208750Y-7937500D02*
X19208750Y-13265150D01*
X11969750Y-7937500D02*
X19208750Y-7937500D01*
X11969750Y-13271500D02*
X11969750Y-7937500D01*
D12*
X13427760Y-8150860D02*
X13509040Y-8232140D01*
X13509040Y-8150860D02*
X13427760Y-8232140D01*
X13681760Y-8150860D02*
X13763040Y-8232140D01*
X13763040Y-8150860D02*
X13681760Y-8232140D01*
X13935760Y-8150860D02*
X14017040Y-8232140D01*
X14017040Y-8150860D02*
X13935760Y-8232140D01*
X14189760Y-8150860D02*
X14271040Y-8232140D01*
X14271040Y-8150860D02*
X14189760Y-8232140D01*
X14342160Y-12976860D02*
X14423440Y-13058140D01*
X14423440Y-12976860D02*
X14342160Y-13058140D01*
X14443760Y-8150860D02*
X14525040Y-8232140D01*
X14525040Y-8150860D02*
X14443760Y-8232140D01*
X14596160Y-12976860D02*
X14677440Y-13058140D01*
X14677440Y-12976860D02*
X14596160Y-13058140D01*
X14697760Y-8150860D02*
X14779040Y-8232140D01*
X14779040Y-8150860D02*
X14697760Y-8232140D01*
X14850160Y-12976860D02*
X14931440Y-13058140D01*
X14931440Y-12976860D02*
X14850160Y-13058140D01*
X14951760Y-8150860D02*
X15033040Y-8232140D01*
X15033040Y-8150860D02*
X14951760Y-8232140D01*
X15104160Y-12976860D02*
X15185440Y-13058140D01*
X15185440Y-12976860D02*
X15104160Y-13058140D01*
X15205760Y-8150860D02*
X15287040Y-8232140D01*
X15287040Y-8150860D02*
X15205760Y-8232140D01*
X15358160Y-12976860D02*
X15439440Y-13058140D01*
X15439440Y-12976860D02*
X15358160Y-13058140D01*
X15612160Y-8150860D02*
X15693440Y-8232140D01*
X15693440Y-8150860D02*
X15612160Y-8232140D01*
X15612160Y-12976860D02*
X15693440Y-13058140D01*
X15693440Y-12976860D02*
X15612160Y-13058140D01*
X15866160Y-8150860D02*
X15947440Y-8232140D01*
X15947440Y-8150860D02*
X15866160Y-8232140D01*
X16120160Y-8150860D02*
X16201440Y-8232140D01*
X16201440Y-8150860D02*
X16120160Y-8232140D01*
X16120160Y-12976860D02*
X16201440Y-13058140D01*
X16201440Y-12976860D02*
X16120160Y-13058140D01*
X16374160Y-8150860D02*
X16455440Y-8232140D01*
X16455440Y-8150860D02*
X16374160Y-8232140D01*
X16374160Y-12976860D02*
X16455440Y-13058140D01*
X16455440Y-12976860D02*
X16374160Y-13058140D01*
X16628160Y-8150860D02*
X16709440Y-8232140D01*
X16709440Y-8150860D02*
X16628160Y-8232140D01*
X16628160Y-12976860D02*
X16709440Y-13058140D01*
X16709440Y-12976860D02*
X16628160Y-13058140D01*
X16882160Y-8150860D02*
X16963440Y-8232140D01*
X16963440Y-8150860D02*
X16882160Y-8232140D01*
X16882160Y-12976860D02*
X16963440Y-13058140D01*
X16963440Y-12976860D02*
X16882160Y-13058140D01*
X17136160Y-8150860D02*
X17217440Y-8232140D01*
X17217440Y-8150860D02*
X17136160Y-8232140D01*
X17136160Y-12976860D02*
X17217440Y-13058140D01*
X17217440Y-12976860D02*
X17136160Y-13058140D01*
X17390160Y-8150860D02*
X17471440Y-8232140D01*
X17471440Y-8150860D02*
X17390160Y-8232140D01*
X17390160Y-12976860D02*
X17471440Y-13058140D01*
X17471440Y-12976860D02*
X17390160Y-13058140D01*
X14439000Y-9906000D02*
G75*
G03*
X14439000Y-9906000I-50000J0D01*
G01*
X14439000Y-10406000D02*
G75*
G03*
X14439000Y-10406000I-50000J0D01*
G01*
X16026600Y-10261600D02*
G75*
G03*
X16026600Y-10261600I-50000J0D01*
G01*
X16026600Y-10515600D02*
G75*
G03*
X16026600Y-10515600I-50000J0D01*
G01*
X16026600Y-10769600D02*
G75*
G03*
X16026600Y-10769600I-50000J0D01*
G01*
X16280600Y-10261600D02*
G75*
G03*
X16280600Y-10261600I-50000J0D01*
G01*
X16280600Y-10515600D02*
G75*
G03*
X16280600Y-10515600I-50000J0D01*
G01*
X16280600Y-10769600D02*
G75*
G03*
X16280600Y-10769600I-50000J0D01*
G01*
X12477800Y-12858750D02*
X12477800Y-13176250D01*
X12319050Y-13017500D02*
X12636550Y-13017500D01*
X12604800Y-8032750D02*
X12604800Y-8350250D01*
X12446050Y-8191500D02*
X12763550Y-8191500D01*
X17684800Y-9556750D02*
X17684800Y-9874250D01*
X17526050Y-9715500D02*
X17843550Y-9715500D01*
X17684800Y-12350750D02*
X17684800Y-12668250D01*
X17526050Y-12509500D02*
X17843550Y-12509500D01*
D13*
X12237128Y-13756264D02*
X12237128Y-13456264D01*
X12308557Y-13456264D01*
X12351414Y-13470550D01*
X12379986Y-13499121D01*
X12394271Y-13527693D01*
X12408557Y-13584836D01*
X12408557Y-13627693D01*
X12394271Y-13684836D01*
X12379986Y-13713407D01*
X12351414Y-13741979D01*
X12308557Y-13756264D01*
X12237128Y-13756264D01*
X12537128Y-13756264D02*
X12537128Y-13556264D01*
X12537128Y-13613407D02*
X12551414Y-13584836D01*
X12565700Y-13570550D01*
X12594271Y-13556264D01*
X12622843Y-13556264D01*
X12722843Y-13756264D02*
X12722843Y-13556264D01*
X12722843Y-13456264D02*
X12708557Y-13470550D01*
X12722843Y-13484836D01*
X12737128Y-13470550D01*
X12722843Y-13456264D01*
X12722843Y-13484836D01*
X12908557Y-13756264D02*
X12879986Y-13741979D01*
X12865700Y-13713407D01*
X12865700Y-13456264D01*
X13065700Y-13756264D02*
X13037128Y-13741979D01*
X13022843Y-13713407D01*
X13022843Y-13456264D01*
X13408557Y-13756264D02*
X13408557Y-13456264D01*
X13508557Y-13670550D01*
X13608557Y-13456264D01*
X13608557Y-13756264D01*
X13879986Y-13756264D02*
X13879986Y-13599121D01*
X13865700Y-13570550D01*
X13837128Y-13556264D01*
X13779986Y-13556264D01*
X13751414Y-13570550D01*
X13879986Y-13741979D02*
X13851414Y-13756264D01*
X13779986Y-13756264D01*
X13751414Y-13741979D01*
X13737128Y-13713407D01*
X13737128Y-13684836D01*
X13751414Y-13656264D01*
X13779986Y-13641979D01*
X13851414Y-13641979D01*
X13879986Y-13627693D01*
X14022843Y-13556264D02*
X14022843Y-13856264D01*
X14022843Y-13570550D02*
X14051414Y-13556264D01*
X14108557Y-13556264D01*
X14137128Y-13570550D01*
X14151414Y-13584836D01*
X14165700Y-13613407D01*
X14165700Y-13699121D01*
X14151414Y-13727693D01*
X14137128Y-13741979D01*
X14108557Y-13756264D01*
X14051414Y-13756264D01*
X14022843Y-13741979D01*
X14294271Y-13727693D02*
X14308557Y-13741979D01*
X14294271Y-13756264D01*
X14279986Y-13741979D01*
X14294271Y-13727693D01*
X14294271Y-13756264D01*
X14294271Y-13570550D02*
X14308557Y-13584836D01*
X14294271Y-13599121D01*
X14279986Y-13584836D01*
X14294271Y-13570550D01*
X14294271Y-13599121D01*
X11869420Y-14209910D02*
X11950700Y-14291190D01*
X11950700Y-14209910D02*
X11869420Y-14291190D01*
X12294271Y-14086264D02*
X12322843Y-14086264D01*
X12351414Y-14100550D01*
X12365700Y-14114836D01*
X12379986Y-14143407D01*
X12394271Y-14200550D01*
X12394271Y-14271979D01*
X12379986Y-14329121D01*
X12365700Y-14357693D01*
X12351414Y-14371979D01*
X12322843Y-14386264D01*
X12294271Y-14386264D01*
X12265700Y-14371979D01*
X12251414Y-14357693D01*
X12237128Y-14329121D01*
X12222843Y-14271979D01*
X12222843Y-14200550D01*
X12237128Y-14143407D01*
X12251414Y-14114836D01*
X12265700Y-14100550D01*
X12294271Y-14086264D01*
X12522843Y-14357693D02*
X12537128Y-14371979D01*
X12522843Y-14386264D01*
X12508557Y-14371979D01*
X12522843Y-14357693D01*
X12522843Y-14386264D01*
X12708557Y-14214836D02*
X12679986Y-14200550D01*
X12665700Y-14186264D01*
X12651414Y-14157693D01*
X12651414Y-14143407D01*
X12665700Y-14114836D01*
X12679986Y-14100550D01*
X12708557Y-14086264D01*
X12765700Y-14086264D01*
X12794271Y-14100550D01*
X12808557Y-14114836D01*
X12822843Y-14143407D01*
X12822843Y-14157693D01*
X12808557Y-14186264D01*
X12794271Y-14200550D01*
X12765700Y-14214836D01*
X12708557Y-14214836D01*
X12679986Y-14229121D01*
X12665700Y-14243407D01*
X12651414Y-14271979D01*
X12651414Y-14329121D01*
X12665700Y-14357693D01*
X12679986Y-14371979D01*
X12708557Y-14386264D01*
X12765700Y-14386264D01*
X12794271Y-14371979D01*
X12808557Y-14357693D01*
X12822843Y-14329121D01*
X12822843Y-14271979D01*
X12808557Y-14243407D01*
X12794271Y-14229121D01*
X12765700Y-14214836D01*
X13108557Y-14386264D02*
X12937128Y-14386264D01*
X13022843Y-14386264D02*
X13022843Y-14086264D01*
X12994271Y-14129121D01*
X12965700Y-14157693D01*
X12937128Y-14171979D01*
X13208557Y-14086264D02*
X13394271Y-14086264D01*
X13294271Y-14200550D01*
X13337128Y-14200550D01*
X13365700Y-14214836D01*
X13379986Y-14229121D01*
X13394271Y-14257693D01*
X13394271Y-14329121D01*
X13379986Y-14357693D01*
X13365700Y-14371979D01*
X13337128Y-14386264D01*
X13251414Y-14386264D01*
X13222843Y-14371979D01*
X13208557Y-14357693D01*
X13522843Y-14386264D02*
X13522843Y-14186264D01*
X13522843Y-14214836D02*
X13537128Y-14200550D01*
X13565700Y-14186264D01*
X13608557Y-14186264D01*
X13637128Y-14200550D01*
X13651414Y-14229121D01*
X13651414Y-14386264D01*
X13651414Y-14229121D02*
X13665700Y-14200550D01*
X13694271Y-14186264D01*
X13737128Y-14186264D01*
X13765700Y-14200550D01*
X13779986Y-14229121D01*
X13779986Y-14386264D01*
X13922843Y-14386264D02*
X13922843Y-14186264D01*
X13922843Y-14214836D02*
X13937128Y-14200550D01*
X13965700Y-14186264D01*
X14008557Y-14186264D01*
X14037128Y-14200550D01*
X14051414Y-14229121D01*
X14051414Y-14386264D01*
X14051414Y-14229121D02*
X14065700Y-14200550D01*
X14094271Y-14186264D01*
X14137128Y-14186264D01*
X14165700Y-14200550D01*
X14179986Y-14229121D01*
X14179986Y-14386264D01*
X14765700Y-14071979D02*
X14508557Y-14457693D01*
X15151414Y-14086264D02*
X15179986Y-14086264D01*
X15208557Y-14100550D01*
X15222843Y-14114836D01*
X15237128Y-14143407D01*
X15251414Y-14200550D01*
X15251414Y-14271979D01*
X15237128Y-14329121D01*
X15222843Y-14357693D01*
X15208557Y-14371979D01*
X15179986Y-14386264D01*
X15151414Y-14386264D01*
X15122843Y-14371979D01*
X15108557Y-14357693D01*
X15094271Y-14329121D01*
X15079986Y-14271979D01*
X15079986Y-14200550D01*
X15094271Y-14143407D01*
X15108557Y-14114836D01*
X15122843Y-14100550D01*
X15151414Y-14086264D01*
X15379986Y-14357693D02*
X15394271Y-14371979D01*
X15379986Y-14386264D01*
X15365700Y-14371979D01*
X15379986Y-14357693D01*
X15379986Y-14386264D01*
X15579986Y-14086264D02*
X15608557Y-14086264D01*
X15637128Y-14100550D01*
X15651414Y-14114836D01*
X15665700Y-14143407D01*
X15679986Y-14200550D01*
X15679986Y-14271979D01*
X15665700Y-14329121D01*
X15651414Y-14357693D01*
X15637128Y-14371979D01*
X15608557Y-14386264D01*
X15579986Y-14386264D01*
X15551414Y-14371979D01*
X15537128Y-14357693D01*
X15522843Y-14329121D01*
X15508557Y-14271979D01*
X15508557Y-14200550D01*
X15522843Y-14143407D01*
X15537128Y-14114836D01*
X15551414Y-14100550D01*
X15579986Y-14086264D01*
X15779986Y-14086264D02*
X15965700Y-14086264D01*
X15865700Y-14200550D01*
X15908557Y-14200550D01*
X15937128Y-14214836D01*
X15951414Y-14229121D01*
X15965700Y-14257693D01*
X15965700Y-14329121D01*
X15951414Y-14357693D01*
X15937128Y-14371979D01*
X15908557Y-14386264D01*
X15822843Y-14386264D01*
X15794271Y-14371979D01*
X15779986Y-14357693D01*
X16079986Y-14114836D02*
X16094271Y-14100550D01*
X16122843Y-14086264D01*
X16194271Y-14086264D01*
X16222843Y-14100550D01*
X16237128Y-14114836D01*
X16251414Y-14143407D01*
X16251414Y-14171979D01*
X16237128Y-14214836D01*
X16065700Y-14386264D01*
X16251414Y-14386264D01*
X16437128Y-14086264D02*
X16465700Y-14086264D01*
X16494271Y-14100550D01*
X16508557Y-14114836D01*
X16522843Y-14143407D01*
X16537128Y-14200550D01*
X16537128Y-14271979D01*
X16522843Y-14329121D01*
X16508557Y-14357693D01*
X16494271Y-14371979D01*
X16465700Y-14386264D01*
X16437128Y-14386264D01*
X16408557Y-14371979D01*
X16394271Y-14357693D01*
X16379986Y-14329121D01*
X16365700Y-14271979D01*
X16365700Y-14200550D01*
X16379986Y-14143407D01*
X16394271Y-14114836D01*
X16408557Y-14100550D01*
X16437128Y-14086264D01*
X16651414Y-14086264D02*
X16651414Y-14143407D01*
X16765700Y-14086264D02*
X16765700Y-14143407D01*
X17208557Y-14500550D02*
X17194271Y-14486264D01*
X17165700Y-14443407D01*
X17151414Y-14414836D01*
X17137128Y-14371979D01*
X17122843Y-14300550D01*
X17122843Y-14243407D01*
X17137128Y-14171979D01*
X17151414Y-14129121D01*
X17165700Y-14100550D01*
X17194271Y-14057693D01*
X17208557Y-14043407D01*
X17308557Y-14114836D02*
X17322843Y-14100550D01*
X17351414Y-14086264D01*
X17422843Y-14086264D01*
X17451414Y-14100550D01*
X17465700Y-14114836D01*
X17479986Y-14143407D01*
X17479986Y-14171979D01*
X17465700Y-14214836D01*
X17294271Y-14386264D01*
X17479986Y-14386264D01*
X17651414Y-14214836D02*
X17622843Y-14200550D01*
X17608557Y-14186264D01*
X17594271Y-14157693D01*
X17594271Y-14143407D01*
X17608557Y-14114836D01*
X17622843Y-14100550D01*
X17651414Y-14086264D01*
X17708557Y-14086264D01*
X17737128Y-14100550D01*
X17751414Y-14114836D01*
X17765700Y-14143407D01*
X17765700Y-14157693D01*
X17751414Y-14186264D01*
X17737128Y-14200550D01*
X17708557Y-14214836D01*
X17651414Y-14214836D01*
X17622843Y-14229121D01*
X17608557Y-14243407D01*
X17594271Y-14271979D01*
X17594271Y-14329121D01*
X17608557Y-14357693D01*
X17622843Y-14371979D01*
X17651414Y-14386264D01*
X17708557Y-14386264D01*
X17737128Y-14371979D01*
X17751414Y-14357693D01*
X17765700Y-14329121D01*
X17765700Y-14271979D01*
X17751414Y-14243407D01*
X17737128Y-14229121D01*
X17708557Y-14214836D01*
X18122843Y-14386264D02*
X18122843Y-14086264D01*
X18251414Y-14386264D02*
X18251414Y-14229121D01*
X18237128Y-14200550D01*
X18208557Y-14186264D01*
X18165700Y-14186264D01*
X18137128Y-14200550D01*
X18122843Y-14214836D01*
X18437128Y-14386264D02*
X18408557Y-14371979D01*
X18394271Y-14357693D01*
X18379986Y-14329121D01*
X18379986Y-14243407D01*
X18394271Y-14214836D01*
X18408557Y-14200550D01*
X18437128Y-14186264D01*
X18479986Y-14186264D01*
X18508557Y-14200550D01*
X18522843Y-14214836D01*
X18537128Y-14243407D01*
X18537128Y-14329121D01*
X18522843Y-14357693D01*
X18508557Y-14371979D01*
X18479986Y-14386264D01*
X18437128Y-14386264D01*
X18708557Y-14386264D02*
X18679986Y-14371979D01*
X18665700Y-14343407D01*
X18665700Y-14086264D01*
X18937128Y-14371979D02*
X18908557Y-14386264D01*
X18851414Y-14386264D01*
X18822843Y-14371979D01*
X18808557Y-14343407D01*
X18808557Y-14229121D01*
X18822843Y-14200550D01*
X18851414Y-14186264D01*
X18908557Y-14186264D01*
X18937128Y-14200550D01*
X18951414Y-14229121D01*
X18951414Y-14257693D01*
X18808557Y-14286264D01*
X19065700Y-14371979D02*
X19094271Y-14386264D01*
X19151414Y-14386264D01*
X19179986Y-14371979D01*
X19194271Y-14343407D01*
X19194271Y-14329121D01*
X19179986Y-14300550D01*
X19151414Y-14286264D01*
X19108557Y-14286264D01*
X19079986Y-14271979D01*
X19065700Y-14243407D01*
X19065700Y-14229121D01*
X19079986Y-14200550D01*
X19108557Y-14186264D01*
X19151414Y-14186264D01*
X19179986Y-14200550D01*
X19294271Y-14500550D02*
X19308557Y-14486264D01*
X19337128Y-14443407D01*
X19351414Y-14414836D01*
X19365700Y-14371979D01*
X19379986Y-14300550D01*
X19379986Y-14243407D01*
X19365700Y-14171979D01*
X19351414Y-14129121D01*
X19337128Y-14100550D01*
X19308557Y-14057693D01*
X19294271Y-14043407D01*
X11950700Y-14646550D02*
G75*
G03*
X11950700Y-14646550I-50000J0D01*
G01*
X12394271Y-14782264D02*
X12222843Y-14782264D01*
X12308557Y-14782264D02*
X12308557Y-14482264D01*
X12279986Y-14525121D01*
X12251414Y-14553693D01*
X12222843Y-14567979D01*
X12522843Y-14753693D02*
X12537128Y-14767979D01*
X12522843Y-14782264D01*
X12508557Y-14767979D01*
X12522843Y-14753693D01*
X12522843Y-14782264D01*
X12722843Y-14482264D02*
X12751414Y-14482264D01*
X12779986Y-14496550D01*
X12794271Y-14510836D01*
X12808557Y-14539407D01*
X12822843Y-14596550D01*
X12822843Y-14667979D01*
X12808557Y-14725121D01*
X12794271Y-14753693D01*
X12779986Y-14767979D01*
X12751414Y-14782264D01*
X12722843Y-14782264D01*
X12694271Y-14767979D01*
X12679986Y-14753693D01*
X12665700Y-14725121D01*
X12651414Y-14667979D01*
X12651414Y-14596550D01*
X12665700Y-14539407D01*
X12679986Y-14510836D01*
X12694271Y-14496550D01*
X12722843Y-14482264D01*
X13008557Y-14482264D02*
X13037128Y-14482264D01*
X13065700Y-14496550D01*
X13079986Y-14510836D01*
X13094271Y-14539407D01*
X13108557Y-14596550D01*
X13108557Y-14667979D01*
X13094271Y-14725121D01*
X13079986Y-14753693D01*
X13065700Y-14767979D01*
X13037128Y-14782264D01*
X13008557Y-14782264D01*
X12979986Y-14767979D01*
X12965700Y-14753693D01*
X12951414Y-14725121D01*
X12937128Y-14667979D01*
X12937128Y-14596550D01*
X12951414Y-14539407D01*
X12965700Y-14510836D01*
X12979986Y-14496550D01*
X13008557Y-14482264D01*
X13294271Y-14482264D02*
X13322843Y-14482264D01*
X13351414Y-14496550D01*
X13365700Y-14510836D01*
X13379986Y-14539407D01*
X13394271Y-14596550D01*
X13394271Y-14667979D01*
X13379986Y-14725121D01*
X13365700Y-14753693D01*
X13351414Y-14767979D01*
X13322843Y-14782264D01*
X13294271Y-14782264D01*
X13265700Y-14767979D01*
X13251414Y-14753693D01*
X13237128Y-14725121D01*
X13222843Y-14667979D01*
X13222843Y-14596550D01*
X13237128Y-14539407D01*
X13251414Y-14510836D01*
X13265700Y-14496550D01*
X13294271Y-14482264D01*
X13522843Y-14782264D02*
X13522843Y-14582264D01*
X13522843Y-14610836D02*
X13537128Y-14596550D01*
X13565700Y-14582264D01*
X13608557Y-14582264D01*
X13637128Y-14596550D01*
X13651414Y-14625121D01*
X13651414Y-14782264D01*
X13651414Y-14625121D02*
X13665700Y-14596550D01*
X13694271Y-14582264D01*
X13737128Y-14582264D01*
X13765700Y-14596550D01*
X13779986Y-14625121D01*
X13779986Y-14782264D01*
X13922843Y-14782264D02*
X13922843Y-14582264D01*
X13922843Y-14610836D02*
X13937128Y-14596550D01*
X13965700Y-14582264D01*
X14008557Y-14582264D01*
X14037128Y-14596550D01*
X14051414Y-14625121D01*
X14051414Y-14782264D01*
X14051414Y-14625121D02*
X14065700Y-14596550D01*
X14094271Y-14582264D01*
X14137128Y-14582264D01*
X14165700Y-14596550D01*
X14179986Y-14625121D01*
X14179986Y-14782264D01*
X14765700Y-14467979D02*
X14508557Y-14853693D01*
X15151414Y-14482264D02*
X15179986Y-14482264D01*
X15208557Y-14496550D01*
X15222843Y-14510836D01*
X15237128Y-14539407D01*
X15251414Y-14596550D01*
X15251414Y-14667979D01*
X15237128Y-14725121D01*
X15222843Y-14753693D01*
X15208557Y-14767979D01*
X15179986Y-14782264D01*
X15151414Y-14782264D01*
X15122843Y-14767979D01*
X15108557Y-14753693D01*
X15094271Y-14725121D01*
X15079986Y-14667979D01*
X15079986Y-14596550D01*
X15094271Y-14539407D01*
X15108557Y-14510836D01*
X15122843Y-14496550D01*
X15151414Y-14482264D01*
X15379986Y-14753693D02*
X15394271Y-14767979D01*
X15379986Y-14782264D01*
X15365700Y-14767979D01*
X15379986Y-14753693D01*
X15379986Y-14782264D01*
X15579986Y-14482264D02*
X15608557Y-14482264D01*
X15637128Y-14496550D01*
X15651414Y-14510836D01*
X15665700Y-14539407D01*
X15679986Y-14596550D01*
X15679986Y-14667979D01*
X15665700Y-14725121D01*
X15651414Y-14753693D01*
X15637128Y-14767979D01*
X15608557Y-14782264D01*
X15579986Y-14782264D01*
X15551414Y-14767979D01*
X15537128Y-14753693D01*
X15522843Y-14725121D01*
X15508557Y-14667979D01*
X15508557Y-14596550D01*
X15522843Y-14539407D01*
X15537128Y-14510836D01*
X15551414Y-14496550D01*
X15579986Y-14482264D01*
X15779986Y-14482264D02*
X15965700Y-14482264D01*
X15865700Y-14596550D01*
X15908557Y-14596550D01*
X15937128Y-14610836D01*
X15951414Y-14625121D01*
X15965700Y-14653693D01*
X15965700Y-14725121D01*
X15951414Y-14753693D01*
X15937128Y-14767979D01*
X15908557Y-14782264D01*
X15822843Y-14782264D01*
X15794271Y-14767979D01*
X15779986Y-14753693D01*
X16108557Y-14782264D02*
X16165700Y-14782264D01*
X16194271Y-14767979D01*
X16208557Y-14753693D01*
X16237128Y-14710836D01*
X16251414Y-14653693D01*
X16251414Y-14539407D01*
X16237128Y-14510836D01*
X16222843Y-14496550D01*
X16194271Y-14482264D01*
X16137128Y-14482264D01*
X16108557Y-14496550D01*
X16094271Y-14510836D01*
X16079986Y-14539407D01*
X16079986Y-14610836D01*
X16094271Y-14639407D01*
X16108557Y-14653693D01*
X16137128Y-14667979D01*
X16194271Y-14667979D01*
X16222843Y-14653693D01*
X16237128Y-14639407D01*
X16251414Y-14610836D01*
X16508557Y-14582264D02*
X16508557Y-14782264D01*
X16437128Y-14467979D02*
X16365700Y-14682264D01*
X16551414Y-14682264D01*
X16651414Y-14482264D02*
X16651414Y-14539407D01*
X16765700Y-14482264D02*
X16765700Y-14539407D01*
X17208557Y-14896550D02*
X17194271Y-14882264D01*
X17165700Y-14839407D01*
X17151414Y-14810836D01*
X17137128Y-14767979D01*
X17122843Y-14696550D01*
X17122843Y-14639407D01*
X17137128Y-14567979D01*
X17151414Y-14525121D01*
X17165700Y-14496550D01*
X17194271Y-14453693D01*
X17208557Y-14439407D01*
X17365700Y-14610836D02*
X17337128Y-14596550D01*
X17322843Y-14582264D01*
X17308557Y-14553693D01*
X17308557Y-14539407D01*
X17322843Y-14510836D01*
X17337128Y-14496550D01*
X17365700Y-14482264D01*
X17422843Y-14482264D01*
X17451414Y-14496550D01*
X17465700Y-14510836D01*
X17479986Y-14539407D01*
X17479986Y-14553693D01*
X17465700Y-14582264D01*
X17451414Y-14596550D01*
X17422843Y-14610836D01*
X17365700Y-14610836D01*
X17337128Y-14625121D01*
X17322843Y-14639407D01*
X17308557Y-14667979D01*
X17308557Y-14725121D01*
X17322843Y-14753693D01*
X17337128Y-14767979D01*
X17365700Y-14782264D01*
X17422843Y-14782264D01*
X17451414Y-14767979D01*
X17465700Y-14753693D01*
X17479986Y-14725121D01*
X17479986Y-14667979D01*
X17465700Y-14639407D01*
X17451414Y-14625121D01*
X17422843Y-14610836D01*
X17837128Y-14782264D02*
X17837128Y-14482264D01*
X17965700Y-14782264D02*
X17965700Y-14625121D01*
X17951414Y-14596550D01*
X17922843Y-14582264D01*
X17879986Y-14582264D01*
X17851414Y-14596550D01*
X17837128Y-14610836D01*
X18151414Y-14782264D02*
X18122843Y-14767979D01*
X18108557Y-14753693D01*
X18094271Y-14725121D01*
X18094271Y-14639407D01*
X18108557Y-14610836D01*
X18122843Y-14596550D01*
X18151414Y-14582264D01*
X18194271Y-14582264D01*
X18222843Y-14596550D01*
X18237128Y-14610836D01*
X18251414Y-14639407D01*
X18251414Y-14725121D01*
X18237128Y-14753693D01*
X18222843Y-14767979D01*
X18194271Y-14782264D01*
X18151414Y-14782264D01*
X18422843Y-14782264D02*
X18394271Y-14767979D01*
X18379986Y-14739407D01*
X18379986Y-14482264D01*
X18651414Y-14767979D02*
X18622843Y-14782264D01*
X18565700Y-14782264D01*
X18537128Y-14767979D01*
X18522843Y-14739407D01*
X18522843Y-14625121D01*
X18537128Y-14596550D01*
X18565700Y-14582264D01*
X18622843Y-14582264D01*
X18651414Y-14596550D01*
X18665700Y-14625121D01*
X18665700Y-14653693D01*
X18522843Y-14682264D01*
X18779986Y-14767979D02*
X18808557Y-14782264D01*
X18865700Y-14782264D01*
X18894271Y-14767979D01*
X18908557Y-14739407D01*
X18908557Y-14725121D01*
X18894271Y-14696550D01*
X18865700Y-14682264D01*
X18822843Y-14682264D01*
X18794271Y-14667979D01*
X18779986Y-14639407D01*
X18779986Y-14625121D01*
X18794271Y-14596550D01*
X18822843Y-14582264D01*
X18865700Y-14582264D01*
X18894271Y-14596550D01*
X19008557Y-14896550D02*
X19022843Y-14882264D01*
X19051414Y-14839407D01*
X19065700Y-14810836D01*
X19079986Y-14767979D01*
X19094271Y-14696550D01*
X19094271Y-14639407D01*
X19079986Y-14567979D01*
X19065700Y-14525121D01*
X19051414Y-14496550D01*
X19022843Y-14453693D01*
X19008557Y-14439407D01*
X11791950Y-14883800D02*
X11791950Y-15201300D01*
X11633200Y-15042550D02*
X11950700Y-15042550D01*
X12208557Y-14878264D02*
X12394271Y-14878264D01*
X12294271Y-14992550D01*
X12337128Y-14992550D01*
X12365700Y-15006836D01*
X12379986Y-15021121D01*
X12394271Y-15049693D01*
X12394271Y-15121121D01*
X12379986Y-15149693D01*
X12365700Y-15163979D01*
X12337128Y-15178264D01*
X12251414Y-15178264D01*
X12222843Y-15163979D01*
X12208557Y-15149693D01*
X12522843Y-15149693D02*
X12537128Y-15163979D01*
X12522843Y-15178264D01*
X12508557Y-15163979D01*
X12522843Y-15149693D01*
X12522843Y-15178264D01*
X12822843Y-15178264D02*
X12651414Y-15178264D01*
X12737128Y-15178264D02*
X12737128Y-14878264D01*
X12708557Y-14921121D01*
X12679986Y-14949693D01*
X12651414Y-14963979D01*
X12922843Y-14878264D02*
X13122843Y-14878264D01*
X12994271Y-15178264D01*
X13379986Y-14878264D02*
X13237128Y-14878264D01*
X13222843Y-15021121D01*
X13237128Y-15006836D01*
X13265700Y-14992550D01*
X13337128Y-14992550D01*
X13365700Y-15006836D01*
X13379986Y-15021121D01*
X13394271Y-15049693D01*
X13394271Y-15121121D01*
X13379986Y-15149693D01*
X13365700Y-15163979D01*
X13337128Y-15178264D01*
X13265700Y-15178264D01*
X13237128Y-15163979D01*
X13222843Y-15149693D01*
X13522843Y-15178264D02*
X13522843Y-14978264D01*
X13522843Y-15006836D02*
X13537128Y-14992550D01*
X13565700Y-14978264D01*
X13608557Y-14978264D01*
X13637128Y-14992550D01*
X13651414Y-15021121D01*
X13651414Y-15178264D01*
X13651414Y-15021121D02*
X13665700Y-14992550D01*
X13694271Y-14978264D01*
X13737128Y-14978264D01*
X13765700Y-14992550D01*
X13779986Y-15021121D01*
X13779986Y-15178264D01*
X13922843Y-15178264D02*
X13922843Y-14978264D01*
X13922843Y-15006836D02*
X13937128Y-14992550D01*
X13965700Y-14978264D01*
X14008557Y-14978264D01*
X14037128Y-14992550D01*
X14051414Y-15021121D01*
X14051414Y-15178264D01*
X14051414Y-15021121D02*
X14065700Y-14992550D01*
X14094271Y-14978264D01*
X14137128Y-14978264D01*
X14165700Y-14992550D01*
X14179986Y-15021121D01*
X14179986Y-15178264D01*
X14765700Y-14863979D02*
X14508557Y-15249693D01*
X15151414Y-14878264D02*
X15179986Y-14878264D01*
X15208557Y-14892550D01*
X15222843Y-14906836D01*
X15237128Y-14935407D01*
X15251414Y-14992550D01*
X15251414Y-15063979D01*
X15237128Y-15121121D01*
X15222843Y-15149693D01*
X15208557Y-15163979D01*
X15179986Y-15178264D01*
X15151414Y-15178264D01*
X15122843Y-15163979D01*
X15108557Y-15149693D01*
X15094271Y-15121121D01*
X15079986Y-15063979D01*
X15079986Y-14992550D01*
X15094271Y-14935407D01*
X15108557Y-14906836D01*
X15122843Y-14892550D01*
X15151414Y-14878264D01*
X15379986Y-15149693D02*
X15394271Y-15163979D01*
X15379986Y-15178264D01*
X15365700Y-15163979D01*
X15379986Y-15149693D01*
X15379986Y-15178264D01*
X15679986Y-15178264D02*
X15508557Y-15178264D01*
X15594271Y-15178264D02*
X15594271Y-14878264D01*
X15565700Y-14921121D01*
X15537128Y-14949693D01*
X15508557Y-14963979D01*
X15794271Y-14906836D02*
X15808557Y-14892550D01*
X15837128Y-14878264D01*
X15908557Y-14878264D01*
X15937128Y-14892550D01*
X15951414Y-14906836D01*
X15965700Y-14935407D01*
X15965700Y-14963979D01*
X15951414Y-15006836D01*
X15779986Y-15178264D01*
X15965700Y-15178264D01*
X16237128Y-14878264D02*
X16094271Y-14878264D01*
X16079986Y-15021121D01*
X16094271Y-15006836D01*
X16122843Y-14992550D01*
X16194271Y-14992550D01*
X16222843Y-15006836D01*
X16237128Y-15021121D01*
X16251414Y-15049693D01*
X16251414Y-15121121D01*
X16237128Y-15149693D01*
X16222843Y-15163979D01*
X16194271Y-15178264D01*
X16122843Y-15178264D01*
X16094271Y-15163979D01*
X16079986Y-15149693D01*
X16437128Y-14878264D02*
X16465700Y-14878264D01*
X16494271Y-14892550D01*
X16508557Y-14906836D01*
X16522843Y-14935407D01*
X16537128Y-14992550D01*
X16537128Y-15063979D01*
X16522843Y-15121121D01*
X16508557Y-15149693D01*
X16494271Y-15163979D01*
X16465700Y-15178264D01*
X16437128Y-15178264D01*
X16408557Y-15163979D01*
X16394271Y-15149693D01*
X16379986Y-15121121D01*
X16365700Y-15063979D01*
X16365700Y-14992550D01*
X16379986Y-14935407D01*
X16394271Y-14906836D01*
X16408557Y-14892550D01*
X16437128Y-14878264D01*
X16651414Y-14878264D02*
X16651414Y-14935407D01*
X16765700Y-14878264D02*
X16765700Y-14935407D01*
X17208557Y-15292550D02*
X17194271Y-15278264D01*
X17165700Y-15235407D01*
X17151414Y-15206836D01*
X17137128Y-15163979D01*
X17122843Y-15092550D01*
X17122843Y-15035407D01*
X17137128Y-14963979D01*
X17151414Y-14921121D01*
X17165700Y-14892550D01*
X17194271Y-14849693D01*
X17208557Y-14835407D01*
X17451414Y-14978264D02*
X17451414Y-15178264D01*
X17379986Y-14863979D02*
X17308557Y-15078264D01*
X17494271Y-15078264D01*
X17837128Y-15178264D02*
X17837128Y-14878264D01*
X17965700Y-15178264D02*
X17965700Y-15021121D01*
X17951414Y-14992550D01*
X17922843Y-14978264D01*
X17879986Y-14978264D01*
X17851414Y-14992550D01*
X17837128Y-15006836D01*
X18151414Y-15178264D02*
X18122843Y-15163979D01*
X18108557Y-15149693D01*
X18094271Y-15121121D01*
X18094271Y-15035407D01*
X18108557Y-15006836D01*
X18122843Y-14992550D01*
X18151414Y-14978264D01*
X18194271Y-14978264D01*
X18222843Y-14992550D01*
X18237128Y-15006836D01*
X18251414Y-15035407D01*
X18251414Y-15121121D01*
X18237128Y-15149693D01*
X18222843Y-15163979D01*
X18194271Y-15178264D01*
X18151414Y-15178264D01*
X18422843Y-15178264D02*
X18394271Y-15163979D01*
X18379986Y-15135407D01*
X18379986Y-14878264D01*
X18651414Y-15163979D02*
X18622843Y-15178264D01*
X18565700Y-15178264D01*
X18537128Y-15163979D01*
X18522843Y-15135407D01*
X18522843Y-15021121D01*
X18537128Y-14992550D01*
X18565700Y-14978264D01*
X18622843Y-14978264D01*
X18651414Y-14992550D01*
X18665700Y-15021121D01*
X18665700Y-15049693D01*
X18522843Y-15078264D01*
X18779986Y-15163979D02*
X18808557Y-15178264D01*
X18865700Y-15178264D01*
X18894271Y-15163979D01*
X18908557Y-15135407D01*
X18908557Y-15121121D01*
X18894271Y-15092550D01*
X18865700Y-15078264D01*
X18822843Y-15078264D01*
X18794271Y-15063979D01*
X18779986Y-15035407D01*
X18779986Y-15021121D01*
X18794271Y-14992550D01*
X18822843Y-14978264D01*
X18865700Y-14978264D01*
X18894271Y-14992550D01*
X19008557Y-15292550D02*
X19022843Y-15278264D01*
X19051414Y-15235407D01*
X19065700Y-15206836D01*
X19079986Y-15163979D01*
X19094271Y-15092550D01*
X19094271Y-15035407D01*
X19079986Y-14963979D01*
X19065700Y-14921121D01*
X19051414Y-14892550D01*
X19022843Y-14849693D01*
X19008557Y-14835407D01*
M02*
