%TF.GenerationSoftware,KiCad,Pcbnew,5.1.10*%
%TF.CreationDate,2021-11-17T00:54:39-05:00*%
%TF.ProjectId,shield_programmer_v0p3,73686965-6c64-45f7-9072-6f6772616d6d,rev?*%
%TF.SameCoordinates,Original*%
%TF.FileFunction,Soldermask,Top*%
%TF.FilePolarity,Negative*%
%FSLAX46Y46*%
G04 Gerber Fmt 4.6, Leading zero omitted, Abs format (unit mm)*
G04 Created by KiCad (PCBNEW 5.1.10) date 2021-11-17 00:54:39*
%MOMM*%
%LPD*%
G01*
G04 APERTURE LIST*
%ADD10R,1.700000X1.700000*%
%ADD11O,1.700000X1.700000*%
%ADD12R,2.000000X2.000000*%
%ADD13C,2.000000*%
%ADD14O,1.524000X2.540000*%
%ADD15C,3.937000*%
G04 APERTURE END LIST*
D10*
%TO.C,P1*%
X159766000Y-102616000D03*
D11*
X162306000Y-102616000D03*
X159766000Y-105156000D03*
X162306000Y-105156000D03*
X159766000Y-107696000D03*
X162306000Y-107696000D03*
%TD*%
D12*
%TO.C,C1*%
X143890000Y-99060000D03*
D13*
X143890000Y-104060000D03*
%TD*%
D14*
%TO.C,SHIELD1*%
X174308000Y-130175000D03*
X171768000Y-130175000D03*
X169228000Y-130175000D03*
X161608000Y-130175000D03*
X164148000Y-130175000D03*
X166688000Y-130175000D03*
X156528000Y-130175000D03*
X153988000Y-130175000D03*
X151448000Y-130175000D03*
X146368000Y-130175000D03*
X143828000Y-130175000D03*
X174308000Y-81915000D03*
X171768000Y-81915000D03*
X169228000Y-81915000D03*
X166688000Y-81915000D03*
X164148000Y-81915000D03*
X161608000Y-81915000D03*
X159068000Y-81915000D03*
X156528000Y-81915000D03*
X152464000Y-81915000D03*
X149924000Y-81915000D03*
X147384000Y-81915000D03*
X144844000Y-81915000D03*
X142304000Y-81915000D03*
X139764000Y-81915000D03*
X137224000Y-81915000D03*
X134684000Y-81915000D03*
X148908000Y-130175000D03*
D15*
X176848000Y-125095000D03*
X176848000Y-97155000D03*
X126048000Y-81915000D03*
X124778000Y-130175000D03*
%TD*%
M02*
