%TF.GenerationSoftware,KiCad,Pcbnew,5.1.10*%
%TF.CreationDate,2021-11-17T00:54:39-05:00*%
%TF.ProjectId,shield_programmer_v0p3,73686965-6c64-45f7-9072-6f6772616d6d,rev?*%
%TF.SameCoordinates,Original*%
%TF.FileFunction,Copper,L2,Bot*%
%TF.FilePolarity,Positive*%
%FSLAX46Y46*%
G04 Gerber Fmt 4.6, Leading zero omitted, Abs format (unit mm)*
G04 Created by KiCad (PCBNEW 5.1.10) date 2021-11-17 00:54:39*
%MOMM*%
%LPD*%
G01*
G04 APERTURE LIST*
%TA.AperFunction,ComponentPad*%
%ADD10R,1.700000X1.700000*%
%TD*%
%TA.AperFunction,ComponentPad*%
%ADD11O,1.700000X1.700000*%
%TD*%
%TA.AperFunction,ComponentPad*%
%ADD12R,2.000000X2.000000*%
%TD*%
%TA.AperFunction,ComponentPad*%
%ADD13C,2.000000*%
%TD*%
%TA.AperFunction,ComponentPad*%
%ADD14O,1.524000X2.540000*%
%TD*%
%TA.AperFunction,ComponentPad*%
%ADD15C,3.937000*%
%TD*%
%TA.AperFunction,Conductor*%
%ADD16C,0.508000*%
%TD*%
G04 APERTURE END LIST*
D10*
%TO.P,P1,1*%
%TO.N,/CIPO*%
X159766000Y-102616000D03*
D11*
%TO.P,P1,2*%
%TO.N,/5V*%
X162306000Y-102616000D03*
%TO.P,P1,3*%
%TO.N,/SCK*%
X159766000Y-105156000D03*
%TO.P,P1,4*%
%TO.N,/COPI*%
X162306000Y-105156000D03*
%TO.P,P1,5*%
%TO.N,/RST*%
X159766000Y-107696000D03*
%TO.P,P1,6*%
%TO.N,/GND*%
X162306000Y-107696000D03*
%TD*%
D12*
%TO.P,C1,1*%
%TO.N,/RST*%
X143890000Y-99060000D03*
D13*
%TO.P,C1,2*%
%TO.N,/GND*%
X143890000Y-104060000D03*
%TD*%
D14*
%TO.P,SHIELD1,AD5*%
%TO.N,N/C*%
X174308000Y-130175000D03*
%TO.P,SHIELD1,AD4*%
X171768000Y-130175000D03*
%TO.P,SHIELD1,AD3*%
X169228000Y-130175000D03*
%TO.P,SHIELD1,AD0*%
X161608000Y-130175000D03*
%TO.P,SHIELD1,AD1*%
X164148000Y-130175000D03*
%TO.P,SHIELD1,AD2*%
X166688000Y-130175000D03*
%TO.P,SHIELD1,V_IN*%
X156528000Y-130175000D03*
%TO.P,SHIELD1,GND2*%
%TO.N,/GND*%
X153988000Y-130175000D03*
%TO.P,SHIELD1,GND1*%
X151448000Y-130175000D03*
%TO.P,SHIELD1,3V3*%
%TO.N,N/C*%
X146368000Y-130175000D03*
%TO.P,SHIELD1,RST*%
X143828000Y-130175000D03*
%TO.P,SHIELD1,0*%
X174308000Y-81915000D03*
%TO.P,SHIELD1,1*%
X171768000Y-81915000D03*
%TO.P,SHIELD1,2*%
X169228000Y-81915000D03*
%TO.P,SHIELD1,3*%
X166688000Y-81915000D03*
%TO.P,SHIELD1,4*%
X164148000Y-81915000D03*
%TO.P,SHIELD1,5*%
X161608000Y-81915000D03*
%TO.P,SHIELD1,6*%
X159068000Y-81915000D03*
%TO.P,SHIELD1,7*%
X156528000Y-81915000D03*
%TO.P,SHIELD1,8*%
X152464000Y-81915000D03*
%TO.P,SHIELD1,9*%
X149924000Y-81915000D03*
%TO.P,SHIELD1,10*%
%TO.N,/RST*%
X147384000Y-81915000D03*
%TO.P,SHIELD1,11*%
%TO.N,/COPI*%
X144844000Y-81915000D03*
%TO.P,SHIELD1,12*%
%TO.N,/CIPO*%
X142304000Y-81915000D03*
%TO.P,SHIELD1,13*%
%TO.N,/SCK*%
X139764000Y-81915000D03*
%TO.P,SHIELD1,GND3*%
%TO.N,N/C*%
X137224000Y-81915000D03*
%TO.P,SHIELD1,AREF*%
X134684000Y-81915000D03*
%TO.P,SHIELD1,5V*%
%TO.N,/5V*%
X148908000Y-130175000D03*
D15*
%TO.P,SHIELD1,*%
%TO.N,*%
X176848000Y-125095000D03*
X176848000Y-97155000D03*
X126048000Y-81915000D03*
X124778000Y-130175000D03*
%TD*%
D16*
%TO.N,/GND*%
X162433000Y-107632000D02*
X151450000Y-118615000D01*
X151450000Y-130173000D02*
X151448000Y-130175000D01*
X151450000Y-118615000D02*
X151450000Y-130173000D01*
X143850000Y-111015000D02*
X151450000Y-118615000D01*
X143850000Y-103870000D02*
X143850000Y-111015000D01*
%TO.N,/CIPO*%
X142304000Y-83630000D02*
X142304000Y-81915000D01*
X159828700Y-101154700D02*
X142304000Y-83630000D01*
X159893000Y-101154700D02*
X159828700Y-101154700D01*
X159893000Y-102552000D02*
X159893000Y-101154700D01*
%TO.N,/COPI*%
X145669300Y-83693300D02*
X144844000Y-83693300D01*
X163842700Y-101866700D02*
X145669300Y-83693300D01*
X144844000Y-83693300D02*
X144844000Y-81915000D01*
X163842700Y-103682300D02*
X163842700Y-101866700D01*
X162433000Y-105092000D02*
X163842700Y-103682300D01*
%TO.N,/SCK*%
X139764000Y-87186000D02*
X139764000Y-81915000D01*
X157670000Y-105092000D02*
X139764000Y-87186000D01*
X159893000Y-105092000D02*
X157670000Y-105092000D01*
%TD*%
M02*
