M48
; DRILL file {KiCad 5.1.10} date Wed Nov 17 00:55:30 2021
; FORMAT={3:3/ absolute / metric / keep zeros}
; #@! TF.CreationDate,2021-11-17T00:55:30-05:00
; #@! TF.GenerationSoftware,Kicad,Pcbnew,5.1.10
FMAT,2
METRIC
T1C0.813
T2C1.000
T3C3.175
%
G90
G05
T1
X134684Y-081915
X137224Y-081915
X139764Y-081915
X142304Y-081915
X143828Y-130175
X144844Y-081915
X146368Y-130175
X147384Y-081915
X148908Y-130175
X149924Y-081915
X151448Y-130175
X152464Y-081915
X153988Y-130175
X156528Y-081915
X156528Y-130175
X159068Y-081915
X161608Y-081915
X161608Y-130175
X164148Y-081915
X164148Y-130175
X166688Y-081915
X166688Y-130175
X169228Y-081915
X169228Y-130175
X171768Y-081915
X171768Y-130175
X174308Y-081915
X174308Y-130175
T2
X143890Y-099060
X143890Y-104060
X159766Y-102616
X159766Y-105156
X159766Y-107696
X162306Y-102616
X162306Y-105156
X162306Y-107696
T3
X124778Y-130175
X126048Y-081915
X176848Y-097155
X176848Y-125095
T0
M30
