G04 (created by PCBNEW (2013-jul-07)-stable) date Tue 18 Aug 2015 02:40:38 PM PDT*
%MOIN*%
G04 Gerber Fmt 3.4, Leading zero omitted, Abs format*
%FSLAX34Y34*%
G01*
G70*
G90*
G04 APERTURE LIST*
%ADD10C,0.00590551*%
%ADD11C,0.01*%
%ADD12C,0.00787402*%
%ADD13C,0.012*%
%ADD14C,0.015*%
G04 APERTURE END LIST*
G54D10*
G54D11*
X24243Y-20538D02*
X24338Y-20871D01*
X24433Y-20633D01*
X24528Y-20871D01*
X24624Y-20538D01*
X24766Y-20538D02*
X24862Y-20871D01*
X24957Y-20633D01*
X25052Y-20871D01*
X25147Y-20538D01*
X25290Y-20538D02*
X25386Y-20871D01*
X25481Y-20633D01*
X25576Y-20871D01*
X25671Y-20538D01*
X25862Y-20824D02*
X25886Y-20847D01*
X25862Y-20871D01*
X25838Y-20847D01*
X25862Y-20824D01*
X25862Y-20871D01*
X26100Y-20871D02*
X26100Y-20538D01*
X26100Y-20371D02*
X26076Y-20395D01*
X26100Y-20419D01*
X26124Y-20395D01*
X26100Y-20371D01*
X26100Y-20419D01*
X26409Y-20871D02*
X26362Y-20847D01*
X26338Y-20824D01*
X26314Y-20776D01*
X26314Y-20633D01*
X26338Y-20585D01*
X26362Y-20562D01*
X26409Y-20538D01*
X26481Y-20538D01*
X26528Y-20562D01*
X26552Y-20585D01*
X26576Y-20633D01*
X26576Y-20776D01*
X26552Y-20824D01*
X26528Y-20847D01*
X26481Y-20871D01*
X26409Y-20871D01*
X26790Y-20871D02*
X26790Y-20538D01*
X26790Y-20633D02*
X26814Y-20585D01*
X26838Y-20562D01*
X26886Y-20538D01*
X26933Y-20538D01*
X27171Y-20871D02*
X27124Y-20847D01*
X27100Y-20824D01*
X27076Y-20776D01*
X27076Y-20633D01*
X27100Y-20585D01*
X27124Y-20562D01*
X27171Y-20538D01*
X27243Y-20538D01*
X27290Y-20562D01*
X27314Y-20585D01*
X27338Y-20633D01*
X27338Y-20776D01*
X27314Y-20824D01*
X27290Y-20847D01*
X27243Y-20871D01*
X27171Y-20871D01*
X27766Y-20871D02*
X27766Y-20371D01*
X27766Y-20847D02*
X27719Y-20871D01*
X27624Y-20871D01*
X27576Y-20847D01*
X27552Y-20824D01*
X27528Y-20776D01*
X27528Y-20633D01*
X27552Y-20585D01*
X27576Y-20562D01*
X27624Y-20538D01*
X27719Y-20538D01*
X27766Y-20562D01*
X28195Y-20847D02*
X28147Y-20871D01*
X28052Y-20871D01*
X28005Y-20847D01*
X27981Y-20800D01*
X27981Y-20609D01*
X28005Y-20562D01*
X28052Y-20538D01*
X28147Y-20538D01*
X28195Y-20562D01*
X28219Y-20609D01*
X28219Y-20657D01*
X27981Y-20705D01*
X28505Y-20871D02*
X28457Y-20847D01*
X28433Y-20824D01*
X28409Y-20776D01*
X28409Y-20633D01*
X28433Y-20585D01*
X28457Y-20562D01*
X28505Y-20538D01*
X28576Y-20538D01*
X28624Y-20562D01*
X28647Y-20585D01*
X28671Y-20633D01*
X28671Y-20776D01*
X28647Y-20824D01*
X28624Y-20847D01*
X28576Y-20871D01*
X28505Y-20871D01*
X28886Y-20824D02*
X28909Y-20847D01*
X28886Y-20871D01*
X28862Y-20847D01*
X28886Y-20824D01*
X28886Y-20871D01*
X29338Y-20847D02*
X29290Y-20871D01*
X29195Y-20871D01*
X29147Y-20847D01*
X29124Y-20824D01*
X29100Y-20776D01*
X29100Y-20633D01*
X29124Y-20585D01*
X29147Y-20562D01*
X29195Y-20538D01*
X29290Y-20538D01*
X29338Y-20562D01*
X29624Y-20871D02*
X29576Y-20847D01*
X29552Y-20824D01*
X29528Y-20776D01*
X29528Y-20633D01*
X29552Y-20585D01*
X29576Y-20562D01*
X29624Y-20538D01*
X29695Y-20538D01*
X29743Y-20562D01*
X29766Y-20585D01*
X29790Y-20633D01*
X29790Y-20776D01*
X29766Y-20824D01*
X29743Y-20847D01*
X29695Y-20871D01*
X29624Y-20871D01*
X30005Y-20871D02*
X30005Y-20538D01*
X30005Y-20585D02*
X30028Y-20562D01*
X30076Y-20538D01*
X30147Y-20538D01*
X30195Y-20562D01*
X30219Y-20609D01*
X30219Y-20871D01*
X30219Y-20609D02*
X30243Y-20562D01*
X30290Y-20538D01*
X30362Y-20538D01*
X30409Y-20562D01*
X30433Y-20609D01*
X30433Y-20871D01*
X23844Y-36089D02*
X23844Y-36422D01*
X23725Y-35899D02*
X23606Y-36256D01*
X23916Y-36256D01*
X24059Y-36422D02*
X24320Y-36089D01*
X24059Y-36089D02*
X24320Y-36422D01*
X24487Y-35970D02*
X24511Y-35946D01*
X24559Y-35922D01*
X24678Y-35922D01*
X24725Y-35946D01*
X24749Y-35970D01*
X24773Y-36018D01*
X24773Y-36065D01*
X24749Y-36137D01*
X24463Y-36422D01*
X24773Y-36422D01*
X25082Y-35922D02*
X25130Y-35922D01*
X25178Y-35946D01*
X25201Y-35970D01*
X25225Y-36018D01*
X25249Y-36113D01*
X25249Y-36232D01*
X25225Y-36327D01*
X25201Y-36375D01*
X25178Y-36399D01*
X25130Y-36422D01*
X25082Y-36422D01*
X25035Y-36399D01*
X25011Y-36375D01*
X24987Y-36327D01*
X24963Y-36232D01*
X24963Y-36113D01*
X24987Y-36018D01*
X25011Y-35970D01*
X25035Y-35946D01*
X25082Y-35922D01*
X25463Y-36422D02*
X25463Y-36089D01*
X25463Y-36137D02*
X25487Y-36113D01*
X25535Y-36089D01*
X25606Y-36089D01*
X25654Y-36113D01*
X25678Y-36160D01*
X25678Y-36422D01*
X25678Y-36160D02*
X25701Y-36113D01*
X25749Y-36089D01*
X25820Y-36089D01*
X25868Y-36113D01*
X25892Y-36160D01*
X25892Y-36422D01*
X26130Y-36422D02*
X26130Y-36089D01*
X26130Y-36137D02*
X26154Y-36113D01*
X26201Y-36089D01*
X26273Y-36089D01*
X26320Y-36113D01*
X26344Y-36160D01*
X26344Y-36422D01*
X26344Y-36160D02*
X26368Y-36113D01*
X26416Y-36089D01*
X26487Y-36089D01*
X26535Y-36113D01*
X26559Y-36160D01*
X26559Y-36422D01*
X27392Y-36422D02*
X27392Y-36160D01*
X27368Y-36113D01*
X27320Y-36089D01*
X27225Y-36089D01*
X27178Y-36113D01*
X27392Y-36399D02*
X27344Y-36422D01*
X27225Y-36422D01*
X27178Y-36399D01*
X27154Y-36351D01*
X27154Y-36303D01*
X27178Y-36256D01*
X27225Y-36232D01*
X27344Y-36232D01*
X27392Y-36208D01*
X27559Y-36089D02*
X27749Y-36089D01*
X27630Y-35922D02*
X27630Y-36351D01*
X27654Y-36399D01*
X27701Y-36422D01*
X27749Y-36422D01*
X27916Y-36422D02*
X27916Y-36089D01*
X27916Y-36137D02*
X27940Y-36113D01*
X27987Y-36089D01*
X28059Y-36089D01*
X28106Y-36113D01*
X28130Y-36160D01*
X28130Y-36422D01*
X28130Y-36160D02*
X28154Y-36113D01*
X28201Y-36089D01*
X28273Y-36089D01*
X28320Y-36113D01*
X28344Y-36160D01*
X28344Y-36422D01*
X28773Y-36399D02*
X28725Y-36422D01*
X28630Y-36422D01*
X28582Y-36399D01*
X28559Y-36351D01*
X28559Y-36160D01*
X28582Y-36113D01*
X28630Y-36089D01*
X28725Y-36089D01*
X28773Y-36113D01*
X28797Y-36160D01*
X28797Y-36208D01*
X28559Y-36256D01*
X29225Y-36089D02*
X29225Y-36494D01*
X29201Y-36541D01*
X29178Y-36565D01*
X29130Y-36589D01*
X29059Y-36589D01*
X29011Y-36565D01*
X29225Y-36399D02*
X29178Y-36422D01*
X29082Y-36422D01*
X29035Y-36399D01*
X29011Y-36375D01*
X28987Y-36327D01*
X28987Y-36184D01*
X29011Y-36137D01*
X29035Y-36113D01*
X29082Y-36089D01*
X29178Y-36089D01*
X29225Y-36113D01*
X29678Y-36422D02*
X29678Y-36160D01*
X29654Y-36113D01*
X29606Y-36089D01*
X29511Y-36089D01*
X29463Y-36113D01*
X29678Y-36399D02*
X29630Y-36422D01*
X29511Y-36422D01*
X29463Y-36399D01*
X29440Y-36351D01*
X29440Y-36303D01*
X29463Y-36256D01*
X29511Y-36232D01*
X29630Y-36232D01*
X29678Y-36208D01*
X29868Y-35922D02*
X30178Y-35922D01*
X30011Y-36113D01*
X30082Y-36113D01*
X30130Y-36137D01*
X30154Y-36160D01*
X30178Y-36208D01*
X30178Y-36327D01*
X30154Y-36375D01*
X30130Y-36399D01*
X30082Y-36422D01*
X29940Y-36422D01*
X29892Y-36399D01*
X29868Y-36375D01*
X30368Y-35970D02*
X30392Y-35946D01*
X30440Y-35922D01*
X30559Y-35922D01*
X30606Y-35946D01*
X30630Y-35970D01*
X30654Y-36018D01*
X30654Y-36065D01*
X30630Y-36137D01*
X30344Y-36422D01*
X30654Y-36422D01*
X30892Y-36422D02*
X30987Y-36422D01*
X31035Y-36399D01*
X31059Y-36375D01*
X31106Y-36303D01*
X31130Y-36208D01*
X31130Y-36018D01*
X31106Y-35970D01*
X31082Y-35946D01*
X31035Y-35922D01*
X30940Y-35922D01*
X30892Y-35946D01*
X30868Y-35970D01*
X30844Y-36018D01*
X30844Y-36137D01*
X30868Y-36184D01*
X30892Y-36208D01*
X30940Y-36232D01*
X31035Y-36232D01*
X31082Y-36208D01*
X31106Y-36184D01*
X31130Y-36137D01*
X23416Y-37222D02*
X23416Y-36722D01*
X23416Y-37199D02*
X23368Y-37222D01*
X23273Y-37222D01*
X23225Y-37199D01*
X23201Y-37175D01*
X23178Y-37127D01*
X23178Y-36984D01*
X23201Y-36937D01*
X23225Y-36913D01*
X23273Y-36889D01*
X23368Y-36889D01*
X23416Y-36913D01*
X23654Y-37222D02*
X23654Y-36889D01*
X23654Y-36984D02*
X23678Y-36937D01*
X23701Y-36913D01*
X23749Y-36889D01*
X23797Y-36889D01*
X23963Y-37222D02*
X23963Y-36889D01*
X23963Y-36722D02*
X23940Y-36746D01*
X23963Y-36770D01*
X23987Y-36746D01*
X23963Y-36722D01*
X23963Y-36770D01*
X24154Y-36889D02*
X24273Y-37222D01*
X24392Y-36889D01*
X24773Y-37199D02*
X24725Y-37222D01*
X24630Y-37222D01*
X24582Y-37199D01*
X24559Y-37151D01*
X24559Y-36960D01*
X24582Y-36913D01*
X24630Y-36889D01*
X24725Y-36889D01*
X24773Y-36913D01*
X24797Y-36960D01*
X24797Y-37008D01*
X24559Y-37056D01*
X25011Y-37222D02*
X25011Y-36889D01*
X25011Y-36984D02*
X25035Y-36937D01*
X25059Y-36913D01*
X25106Y-36889D01*
X25154Y-36889D01*
X25701Y-36889D02*
X25701Y-37389D01*
X25701Y-36913D02*
X25749Y-36889D01*
X25844Y-36889D01*
X25892Y-36913D01*
X25916Y-36937D01*
X25940Y-36984D01*
X25940Y-37127D01*
X25916Y-37175D01*
X25892Y-37199D01*
X25844Y-37222D01*
X25749Y-37222D01*
X25701Y-37199D01*
X26154Y-37222D02*
X26154Y-36889D01*
X26154Y-36984D02*
X26178Y-36937D01*
X26201Y-36913D01*
X26249Y-36889D01*
X26297Y-36889D01*
X26535Y-37222D02*
X26487Y-37199D01*
X26463Y-37175D01*
X26440Y-37127D01*
X26440Y-36984D01*
X26463Y-36937D01*
X26487Y-36913D01*
X26535Y-36889D01*
X26606Y-36889D01*
X26654Y-36913D01*
X26678Y-36937D01*
X26701Y-36984D01*
X26701Y-37127D01*
X26678Y-37175D01*
X26654Y-37199D01*
X26606Y-37222D01*
X26535Y-37222D01*
X27130Y-36889D02*
X27130Y-37294D01*
X27106Y-37341D01*
X27082Y-37365D01*
X27035Y-37389D01*
X26963Y-37389D01*
X26916Y-37365D01*
X27130Y-37199D02*
X27082Y-37222D01*
X26987Y-37222D01*
X26940Y-37199D01*
X26916Y-37175D01*
X26892Y-37127D01*
X26892Y-36984D01*
X26916Y-36937D01*
X26940Y-36913D01*
X26987Y-36889D01*
X27082Y-36889D01*
X27130Y-36913D01*
X27368Y-37222D02*
X27368Y-36889D01*
X27368Y-36984D02*
X27392Y-36937D01*
X27416Y-36913D01*
X27463Y-36889D01*
X27511Y-36889D01*
X27892Y-37222D02*
X27892Y-36960D01*
X27868Y-36913D01*
X27820Y-36889D01*
X27725Y-36889D01*
X27678Y-36913D01*
X27892Y-37199D02*
X27844Y-37222D01*
X27725Y-37222D01*
X27678Y-37199D01*
X27654Y-37151D01*
X27654Y-37103D01*
X27678Y-37056D01*
X27725Y-37032D01*
X27844Y-37032D01*
X27892Y-37008D01*
X28130Y-37222D02*
X28130Y-36889D01*
X28130Y-36937D02*
X28154Y-36913D01*
X28201Y-36889D01*
X28273Y-36889D01*
X28320Y-36913D01*
X28344Y-36960D01*
X28344Y-37222D01*
X28344Y-36960D02*
X28368Y-36913D01*
X28416Y-36889D01*
X28487Y-36889D01*
X28535Y-36913D01*
X28559Y-36960D01*
X28559Y-37222D01*
X28797Y-37222D02*
X28797Y-36889D01*
X28797Y-36937D02*
X28820Y-36913D01*
X28868Y-36889D01*
X28940Y-36889D01*
X28987Y-36913D01*
X29011Y-36960D01*
X29011Y-37222D01*
X29011Y-36960D02*
X29035Y-36913D01*
X29082Y-36889D01*
X29154Y-36889D01*
X29201Y-36913D01*
X29225Y-36960D01*
X29225Y-37222D01*
X29654Y-37199D02*
X29606Y-37222D01*
X29511Y-37222D01*
X29463Y-37199D01*
X29440Y-37151D01*
X29440Y-36960D01*
X29463Y-36913D01*
X29511Y-36889D01*
X29606Y-36889D01*
X29654Y-36913D01*
X29678Y-36960D01*
X29678Y-37008D01*
X29440Y-37056D01*
X29892Y-37222D02*
X29892Y-36889D01*
X29892Y-36984D02*
X29916Y-36937D01*
X29940Y-36913D01*
X29987Y-36889D01*
X30035Y-36889D01*
X30535Y-36889D02*
X30654Y-37222D01*
X30773Y-36889D01*
X31059Y-36722D02*
X31106Y-36722D01*
X31154Y-36746D01*
X31178Y-36770D01*
X31201Y-36818D01*
X31225Y-36913D01*
X31225Y-37032D01*
X31201Y-37127D01*
X31178Y-37175D01*
X31154Y-37199D01*
X31106Y-37222D01*
X31059Y-37222D01*
X31011Y-37199D01*
X30987Y-37175D01*
X30963Y-37127D01*
X30940Y-37032D01*
X30940Y-36913D01*
X30963Y-36818D01*
X30987Y-36770D01*
X31011Y-36746D01*
X31059Y-36722D01*
X31440Y-37175D02*
X31463Y-37199D01*
X31440Y-37222D01*
X31416Y-37199D01*
X31440Y-37175D01*
X31440Y-37222D01*
X31630Y-36722D02*
X31940Y-36722D01*
X31773Y-36913D01*
X31844Y-36913D01*
X31892Y-36937D01*
X31916Y-36960D01*
X31940Y-37008D01*
X31940Y-37127D01*
X31916Y-37175D01*
X31892Y-37199D01*
X31844Y-37222D01*
X31701Y-37222D01*
X31654Y-37199D01*
X31630Y-37175D01*
G54D12*
X19685Y-35433D02*
X35433Y-35433D01*
G54D13*
X23244Y-24000D02*
X23244Y-26000D01*
X23244Y-26000D02*
X21244Y-26000D01*
X21244Y-26000D02*
X21244Y-24000D01*
X21244Y-24000D02*
X23244Y-24000D01*
X23244Y-30299D02*
X23244Y-32299D01*
X23244Y-32299D02*
X21244Y-32299D01*
X21244Y-32299D02*
X21244Y-30299D01*
X21244Y-30299D02*
X23244Y-30299D01*
X33874Y-24000D02*
X33874Y-26000D01*
X33874Y-26000D02*
X31874Y-26000D01*
X31874Y-26000D02*
X31874Y-24000D01*
X31874Y-24000D02*
X33874Y-24000D01*
X33874Y-30299D02*
X33874Y-32299D01*
X33874Y-32299D02*
X31874Y-32299D01*
X31874Y-32299D02*
X31874Y-30299D01*
X31874Y-30299D02*
X33874Y-30299D01*
G54D14*
X21212Y-49931D02*
X27212Y-49931D01*
X21212Y-46131D02*
X27212Y-46131D01*
X27212Y-46131D02*
X27212Y-49931D01*
X21212Y-49931D02*
X21212Y-46131D01*
X22495Y-50905D02*
X23677Y-50905D01*
X23100Y-50192D02*
X22500Y-50892D01*
X23700Y-50891D02*
X23100Y-50191D01*
X33937Y-45669D02*
X34646Y-45669D01*
X34646Y-45669D02*
X34646Y-51102D01*
X34646Y-51102D02*
X31142Y-51102D01*
X31142Y-51102D02*
X31102Y-51102D01*
X31102Y-51102D02*
X31102Y-45669D01*
X31102Y-45669D02*
X31811Y-45669D01*
X35011Y-41444D02*
X35011Y-41444D01*
X35011Y-41444D02*
X34511Y-41444D01*
X34511Y-41444D02*
X34511Y-40444D01*
X34511Y-40444D02*
X35011Y-40444D01*
X35011Y-41944D02*
X26011Y-41944D01*
X26011Y-41944D02*
X26011Y-39944D01*
X26011Y-39944D02*
X35011Y-39944D01*
X35011Y-39944D02*
X35011Y-41944D01*
X24637Y-41444D02*
X24137Y-41444D01*
X24137Y-41444D02*
X24137Y-40444D01*
X24137Y-40444D02*
X24637Y-40444D01*
X24637Y-41944D02*
X20637Y-41944D01*
X20637Y-41944D02*
X20637Y-39944D01*
X20637Y-39944D02*
X24637Y-39944D01*
X24637Y-39944D02*
X24637Y-41944D01*
G54D11*
X21875Y-23824D02*
X21875Y-23324D01*
X22065Y-23324D01*
X22113Y-23348D01*
X22136Y-23372D01*
X22160Y-23419D01*
X22160Y-23491D01*
X22136Y-23538D01*
X22113Y-23562D01*
X22065Y-23586D01*
X21875Y-23586D01*
X22470Y-23324D02*
X22517Y-23324D01*
X22565Y-23348D01*
X22589Y-23372D01*
X22613Y-23419D01*
X22636Y-23514D01*
X22636Y-23633D01*
X22613Y-23729D01*
X22589Y-23776D01*
X22565Y-23800D01*
X22517Y-23824D01*
X22470Y-23824D01*
X22422Y-23800D01*
X22398Y-23776D01*
X22375Y-23729D01*
X22351Y-23633D01*
X22351Y-23514D01*
X22375Y-23419D01*
X22398Y-23372D01*
X22422Y-23348D01*
X22470Y-23324D01*
X21875Y-30123D02*
X21875Y-29623D01*
X22065Y-29623D01*
X22113Y-29647D01*
X22136Y-29671D01*
X22160Y-29718D01*
X22160Y-29790D01*
X22136Y-29837D01*
X22113Y-29861D01*
X22065Y-29885D01*
X21875Y-29885D01*
X22636Y-30123D02*
X22351Y-30123D01*
X22494Y-30123D02*
X22494Y-29623D01*
X22446Y-29695D01*
X22398Y-29742D01*
X22351Y-29766D01*
X32504Y-23824D02*
X32504Y-23324D01*
X32695Y-23324D01*
X32743Y-23348D01*
X32766Y-23372D01*
X32790Y-23419D01*
X32790Y-23491D01*
X32766Y-23538D01*
X32743Y-23562D01*
X32695Y-23586D01*
X32504Y-23586D01*
X32981Y-23372D02*
X33004Y-23348D01*
X33052Y-23324D01*
X33171Y-23324D01*
X33219Y-23348D01*
X33243Y-23372D01*
X33266Y-23419D01*
X33266Y-23467D01*
X33243Y-23538D01*
X32957Y-23824D01*
X33266Y-23824D01*
X32504Y-30123D02*
X32504Y-29623D01*
X32695Y-29623D01*
X32743Y-29647D01*
X32766Y-29671D01*
X32790Y-29718D01*
X32790Y-29790D01*
X32766Y-29837D01*
X32743Y-29861D01*
X32695Y-29885D01*
X32504Y-29885D01*
X32957Y-29623D02*
X33266Y-29623D01*
X33100Y-29814D01*
X33171Y-29814D01*
X33219Y-29837D01*
X33243Y-29861D01*
X33266Y-29909D01*
X33266Y-30028D01*
X33243Y-30076D01*
X33219Y-30099D01*
X33171Y-30123D01*
X33028Y-30123D01*
X32981Y-30099D01*
X32957Y-30076D01*
X21087Y-45871D02*
X21087Y-45371D01*
X21278Y-45371D01*
X21325Y-45395D01*
X21349Y-45419D01*
X21373Y-45466D01*
X21373Y-45538D01*
X21349Y-45585D01*
X21325Y-45609D01*
X21278Y-45633D01*
X21087Y-45633D01*
X21801Y-45538D02*
X21801Y-45871D01*
X21682Y-45347D02*
X21563Y-45705D01*
X21873Y-45705D01*
X25331Y-49133D02*
X25093Y-49133D01*
X25069Y-49371D01*
X25093Y-49348D01*
X25141Y-49324D01*
X25260Y-49324D01*
X25307Y-49348D01*
X25331Y-49371D01*
X25355Y-49419D01*
X25355Y-49538D01*
X25331Y-49586D01*
X25307Y-49610D01*
X25260Y-49633D01*
X25141Y-49633D01*
X25093Y-49610D01*
X25069Y-49586D01*
X25307Y-46433D02*
X25212Y-46433D01*
X25164Y-46457D01*
X25141Y-46481D01*
X25093Y-46552D01*
X25069Y-46648D01*
X25069Y-46838D01*
X25093Y-46886D01*
X25117Y-46910D01*
X25164Y-46933D01*
X25260Y-46933D01*
X25307Y-46910D01*
X25331Y-46886D01*
X25355Y-46838D01*
X25355Y-46719D01*
X25331Y-46671D01*
X25307Y-46648D01*
X25260Y-46624D01*
X25164Y-46624D01*
X25117Y-46648D01*
X25093Y-46671D01*
X25069Y-46719D01*
X23069Y-46481D02*
X23093Y-46457D01*
X23141Y-46433D01*
X23260Y-46433D01*
X23307Y-46457D01*
X23331Y-46481D01*
X23355Y-46529D01*
X23355Y-46576D01*
X23331Y-46648D01*
X23045Y-46933D01*
X23355Y-46933D01*
X30733Y-45477D02*
X30733Y-44977D01*
X30923Y-44977D01*
X30971Y-45001D01*
X30995Y-45025D01*
X31019Y-45073D01*
X31019Y-45144D01*
X30995Y-45192D01*
X30971Y-45216D01*
X30923Y-45239D01*
X30733Y-45239D01*
X31471Y-44977D02*
X31233Y-44977D01*
X31209Y-45216D01*
X31233Y-45192D01*
X31280Y-45168D01*
X31399Y-45168D01*
X31447Y-45192D01*
X31471Y-45216D01*
X31495Y-45263D01*
X31495Y-45382D01*
X31471Y-45430D01*
X31447Y-45454D01*
X31399Y-45477D01*
X31280Y-45477D01*
X31233Y-45454D01*
X31209Y-45430D01*
X26438Y-38785D02*
X26271Y-38546D01*
X26152Y-38785D02*
X26152Y-38285D01*
X26343Y-38285D01*
X26390Y-38308D01*
X26414Y-38332D01*
X26438Y-38380D01*
X26438Y-38451D01*
X26414Y-38499D01*
X26390Y-38523D01*
X26343Y-38546D01*
X26152Y-38546D01*
X26652Y-38785D02*
X26652Y-38285D01*
X26843Y-38285D01*
X26890Y-38308D01*
X26914Y-38332D01*
X26938Y-38380D01*
X26938Y-38451D01*
X26914Y-38499D01*
X26890Y-38523D01*
X26843Y-38546D01*
X26652Y-38546D01*
X27414Y-38785D02*
X27128Y-38785D01*
X27271Y-38785D02*
X27271Y-38285D01*
X27224Y-38356D01*
X27176Y-38404D01*
X27128Y-38427D01*
X20189Y-38761D02*
X20261Y-38785D01*
X20380Y-38785D01*
X20428Y-38761D01*
X20451Y-38737D01*
X20475Y-38689D01*
X20475Y-38642D01*
X20451Y-38594D01*
X20428Y-38570D01*
X20380Y-38546D01*
X20285Y-38523D01*
X20237Y-38499D01*
X20213Y-38475D01*
X20189Y-38427D01*
X20189Y-38380D01*
X20213Y-38332D01*
X20237Y-38308D01*
X20285Y-38285D01*
X20404Y-38285D01*
X20475Y-38308D01*
X20951Y-38785D02*
X20666Y-38785D01*
X20808Y-38785D02*
X20808Y-38285D01*
X20761Y-38356D01*
X20713Y-38404D01*
X20666Y-38427D01*
M02*
