%TF.GenerationSoftware,KiCad,Pcbnew,7.0.1*%
%TF.CreationDate,2023-04-03T23:37:45-04:00*%
%TF.ProjectId,comm_v0p4,636f6d6d-5f76-4307-9034-2e6b69636164,rev?*%
%TF.SameCoordinates,Original*%
%TF.FileFunction,Copper,L1,Top*%
%TF.FilePolarity,Positive*%
%FSLAX46Y46*%
G04 Gerber Fmt 4.6, Leading zero omitted, Abs format (unit mm)*
G04 Created by KiCad (PCBNEW 7.0.1) date 2023-04-03 23:37:45*
%MOMM*%
%LPD*%
G01*
G04 APERTURE LIST*
G04 Aperture macros list*
%AMRoundRect*
0 Rectangle with rounded corners*
0 $1 Rounding radius*
0 $2 $3 $4 $5 $6 $7 $8 $9 X,Y pos of 4 corners*
0 Add a 4 corners polygon primitive as box body*
4,1,4,$2,$3,$4,$5,$6,$7,$8,$9,$2,$3,0*
0 Add four circle primitives for the rounded corners*
1,1,$1+$1,$2,$3*
1,1,$1+$1,$4,$5*
1,1,$1+$1,$6,$7*
1,1,$1+$1,$8,$9*
0 Add four rect primitives between the rounded corners*
20,1,$1+$1,$2,$3,$4,$5,0*
20,1,$1+$1,$4,$5,$6,$7,0*
20,1,$1+$1,$6,$7,$8,$9,0*
20,1,$1+$1,$8,$9,$2,$3,0*%
%AMRotRect*
0 Rectangle, with rotation*
0 The origin of the aperture is its center*
0 $1 length*
0 $2 width*
0 $3 Rotation angle, in degrees counterclockwise*
0 Add horizontal line*
21,1,$1,$2,0,0,$3*%
G04 Aperture macros list end*
%TA.AperFunction,ComponentPad*%
%ADD10O,1.700000X1.700000*%
%TD*%
%TA.AperFunction,ComponentPad*%
%ADD11R,1.700000X1.700000*%
%TD*%
%TA.AperFunction,SMDPad,CuDef*%
%ADD12RoundRect,0.200000X0.200000X0.275000X-0.200000X0.275000X-0.200000X-0.275000X0.200000X-0.275000X0*%
%TD*%
%TA.AperFunction,SMDPad,CuDef*%
%ADD13RoundRect,0.225000X-0.335876X-0.017678X-0.017678X-0.335876X0.335876X0.017678X0.017678X0.335876X0*%
%TD*%
%TA.AperFunction,SMDPad,CuDef*%
%ADD14RotRect,0.400000X1.900000X225.000000*%
%TD*%
%TA.AperFunction,SMDPad,CuDef*%
%ADD15RoundRect,0.225000X0.335876X0.017678X0.017678X0.335876X-0.335876X-0.017678X-0.017678X-0.335876X0*%
%TD*%
%TA.AperFunction,SMDPad,CuDef*%
%ADD16RoundRect,0.062500X-0.309359X0.220971X0.220971X-0.309359X0.309359X-0.220971X-0.220971X0.309359X0*%
%TD*%
%TA.AperFunction,SMDPad,CuDef*%
%ADD17RoundRect,0.062500X-0.309359X-0.220971X-0.220971X-0.309359X0.309359X0.220971X0.220971X0.309359X0*%
%TD*%
%TA.AperFunction,SMDPad,CuDef*%
%ADD18RotRect,3.100000X3.100000X315.000000*%
%TD*%
%TA.AperFunction,ViaPad*%
%ADD19C,0.300000*%
%TD*%
%TA.AperFunction,Conductor*%
%ADD20C,0.200000*%
%TD*%
%TA.AperFunction,Conductor*%
%ADD21C,0.254000*%
%TD*%
%TA.AperFunction,Conductor*%
%ADD22C,0.400000*%
%TD*%
G04 APERTURE END LIST*
D10*
%TO.P,J7,4,Pin_4*%
%TO.N,unconnected-(J7-Pin_4-Pad4)*%
X84770000Y-80770000D03*
%TO.P,J7,3,Pin_3*%
%TO.N,GND*%
X82230000Y-80770000D03*
%TO.P,J7,2,Pin_2*%
%TO.N,/B1_CS3*%
X84770000Y-78230000D03*
D11*
%TO.P,J7,1,Pin_1*%
%TO.N,/RESET_DRV3*%
X82230000Y-78230000D03*
%TD*%
%TO.P,J6,1,Pin_1*%
%TO.N,/B1_MOSI*%
X82230000Y-62230000D03*
D10*
%TO.P,J6,2,Pin_2*%
%TO.N,unconnected-(J6-Pin_2-Pad2)*%
X84770000Y-62230000D03*
%TO.P,J6,3,Pin_3*%
%TO.N,/B1_CS2*%
X82230000Y-64770000D03*
%TO.P,J6,4,Pin_4*%
%TO.N,/RESET_DRV2*%
X84770000Y-64770000D03*
%TD*%
D11*
%TO.P,J5,1,Pin_1*%
%TO.N,/B1_MISO*%
X55230000Y-78230000D03*
D10*
%TO.P,J5,2,Pin_2*%
%TO.N,/B1_CS1*%
X57770000Y-78230000D03*
%TO.P,J5,3,Pin_3*%
%TO.N,unconnected-(J5-Pin_3-Pad3)*%
X55230000Y-80770000D03*
%TO.P,J5,4,Pin_4*%
%TO.N,/RESET_DRV1*%
X57770000Y-80770000D03*
%TD*%
D11*
%TO.P,J4,1,Pin_1*%
%TO.N,+5V*%
X55230000Y-62230000D03*
D10*
%TO.P,J4,2,Pin_2*%
%TO.N,/B1_CS0*%
X57770000Y-62230000D03*
%TO.P,J4,3,Pin_3*%
%TO.N,/B1_SCK*%
X55230000Y-64770000D03*
%TO.P,J4,4,Pin_4*%
%TO.N,/RESET_DRV0*%
X57770000Y-64770000D03*
%TD*%
D12*
%TO.P,R5,2*%
%TO.N,+5V*%
X63675000Y-62000000D03*
%TO.P,R5,1*%
%TO.N,/RESET_MSTR*%
X65325000Y-62000000D03*
%TD*%
D13*
%TO.P,C3,2*%
%TO.N,GND*%
X73248008Y-75648008D03*
%TO.P,C3,1*%
%TO.N,+5V*%
X72151992Y-74551992D03*
%TD*%
D14*
%TO.P,Y1,3,3*%
%TO.N,/XTAL2*%
X61102944Y-69347056D03*
%TO.P,Y1,2,2*%
%TO.N,GND*%
X61951472Y-68498528D03*
%TO.P,Y1,1,1*%
%TO.N,/XTAL1*%
X62800000Y-67650000D03*
%TD*%
D15*
%TO.P,C1,2*%
%TO.N,GND*%
X65251992Y-67101992D03*
%TO.P,C1,1*%
%TO.N,+5V*%
X66348008Y-68198008D03*
%TD*%
D13*
%TO.P,C2,1*%
%TO.N,+5V*%
X71051992Y-75651992D03*
%TO.P,C2,2*%
%TO.N,GND*%
X72148008Y-76748008D03*
%TD*%
D10*
%TO.P,J1,15,Pin_15*%
%TO.N,+5V*%
X52220000Y-84700000D03*
%TO.P,J1,14,Pin_14*%
%TO.N,GND*%
X54760000Y-84700000D03*
%TO.P,J1,13,Pin_13*%
%TO.N,/RESET_MSTR*%
X57300000Y-84700000D03*
%TO.P,J1,12,Pin_12*%
%TO.N,/B0_SCK*%
X59840000Y-84700000D03*
%TO.P,J1,11,Pin_11*%
%TO.N,/B0_MOSI*%
X62380000Y-84700000D03*
%TO.P,J1,10,Pin_10*%
%TO.N,/B0_MISO*%
X64920000Y-84700000D03*
%TO.P,J1,9,Pin_9*%
%TO.N,/B0_CS0*%
X67460000Y-84700000D03*
%TO.P,J1,8,Pin_8*%
%TO.N,/B0_CS1*%
X70000000Y-84700000D03*
%TO.P,J1,7,Pin_7*%
%TO.N,/B0_CS2*%
X72540000Y-84700000D03*
%TO.P,J1,6,Pin_6*%
%TO.N,/B0_CS3*%
X75080000Y-84700000D03*
%TO.P,J1,5,Pin_5*%
%TO.N,/B0_CS4*%
X77620000Y-84700000D03*
%TO.P,J1,4,Pin_4*%
%TO.N,/B0_CS5*%
X80160000Y-84700000D03*
%TO.P,J1,3,Pin_3*%
%TO.N,/B0_CS6*%
X82700000Y-84700000D03*
%TO.P,J1,2,Pin_2*%
%TO.N,/B0_CS7*%
X85240000Y-84700000D03*
D11*
%TO.P,J1,1,Pin_1*%
%TO.N,/EXT_INT0*%
X87780000Y-84700000D03*
%TD*%
%TO.P,J2,1,Pin_1*%
%TO.N,/EXT_INT0*%
X87780000Y-58750000D03*
D10*
%TO.P,J2,2,Pin_2*%
%TO.N,unconnected-(J2-Pin_2-Pad2)*%
X85240000Y-58750000D03*
%TO.P,J2,3,Pin_3*%
%TO.N,/B0_CS7*%
X82700000Y-58750000D03*
%TO.P,J2,4,Pin_4*%
%TO.N,/B0_CS6*%
X80160000Y-58750000D03*
%TO.P,J2,5,Pin_5*%
%TO.N,/B0_CS5*%
X77620000Y-58750000D03*
%TO.P,J2,6,Pin_6*%
%TO.N,/B0_CS4*%
X75080000Y-58750000D03*
%TO.P,J2,7,Pin_7*%
%TO.N,/B0_CS3*%
X72540000Y-58750000D03*
%TO.P,J2,8,Pin_8*%
%TO.N,/B0_CS2*%
X70000000Y-58750000D03*
%TO.P,J2,9,Pin_9*%
%TO.N,/B0_CS1*%
X67460000Y-58750000D03*
%TO.P,J2,10,Pin_10*%
%TO.N,/B0_MISO*%
X64920000Y-58750000D03*
%TO.P,J2,11,Pin_11*%
%TO.N,/B0_MOSI*%
X62380000Y-58750000D03*
%TO.P,J2,12,Pin_12*%
%TO.N,/B0_SCK*%
X59840000Y-58750000D03*
%TO.P,J2,13,Pin_13*%
%TO.N,/RESET_MSTR*%
X57300000Y-58750000D03*
%TO.P,J2,14,Pin_14*%
%TO.N,GND*%
X54760000Y-58750000D03*
%TO.P,J2,15,Pin_15*%
%TO.N,+5V*%
X52220000Y-58750000D03*
%TD*%
D16*
%TO.P,U1,1,PD3*%
%TO.N,/B1_CS0*%
X68813864Y-68526490D03*
%TO.P,U1,2,PD4*%
%TO.N,/B1_SCK*%
X68460311Y-68880044D03*
%TO.P,U1,3,PE0*%
%TO.N,unconnected-(U1-PE0-Pad3)*%
X68106757Y-69233597D03*
%TO.P,U1,4,VCC*%
%TO.N,+5V*%
X67753204Y-69587151D03*
%TO.P,U1,5,GND*%
%TO.N,GND*%
X67399651Y-69940704D03*
%TO.P,U1,6,PE1*%
%TO.N,unconnected-(U1-PE1-Pad6)*%
X67046097Y-70294257D03*
%TO.P,U1,7,XTAL1/PB6*%
%TO.N,/XTAL1*%
X66692544Y-70647811D03*
%TO.P,U1,8,XTAL2/PB7*%
%TO.N,/XTAL2*%
X66338990Y-71001364D03*
D17*
%TO.P,U1,9,PD5*%
%TO.N,/B1_CS1*%
X66338990Y-71973636D03*
%TO.P,U1,10,PD6*%
%TO.N,/B1_CS2*%
X66692544Y-72327189D03*
%TO.P,U1,11,PD7*%
%TO.N,/B1_CS3*%
X67046097Y-72680743D03*
%TO.P,U1,12,PB0*%
%TO.N,unconnected-(U1-PB0-Pad12)*%
X67399651Y-73034296D03*
%TO.P,U1,13,PB1*%
%TO.N,unconnected-(U1-PB1-Pad13)*%
X67753204Y-73387849D03*
%TO.P,U1,14,PB2*%
%TO.N,/B0_CS0*%
X68106757Y-73741403D03*
%TO.P,U1,15,PB3*%
%TO.N,/B0_MOSI*%
X68460311Y-74094956D03*
%TO.P,U1,16,PB4*%
%TO.N,/B0_MISO*%
X68813864Y-74448510D03*
D16*
%TO.P,U1,17,PB5*%
%TO.N,/B0_SCK*%
X69786136Y-74448510D03*
%TO.P,U1,18,AVCC*%
%TO.N,+5V*%
X70139689Y-74094956D03*
%TO.P,U1,19,PE2*%
%TO.N,unconnected-(U1-PE2-Pad19)*%
X70493243Y-73741403D03*
%TO.P,U1,20,AREF*%
%TO.N,+5V*%
X70846796Y-73387849D03*
%TO.P,U1,21,GND*%
%TO.N,GND*%
X71200349Y-73034296D03*
%TO.P,U1,22,PE3*%
%TO.N,unconnected-(U1-PE3-Pad22)*%
X71553903Y-72680743D03*
%TO.P,U1,23,PC0*%
%TO.N,/RESET_DRV0*%
X71907456Y-72327189D03*
%TO.P,U1,24,PC1*%
%TO.N,/RESET_DRV1*%
X72261010Y-71973636D03*
D17*
%TO.P,U1,25,PC2*%
%TO.N,/RESET_DRV2*%
X72261010Y-71001364D03*
%TO.P,U1,26,PC3*%
%TO.N,/RESET_DRV3*%
X71907456Y-70647811D03*
%TO.P,U1,27,PC4*%
%TO.N,unconnected-(U1-PC4-Pad27)*%
X71553903Y-70294257D03*
%TO.P,U1,28,PC5*%
%TO.N,unconnected-(U1-PC5-Pad28)*%
X71200349Y-69940704D03*
%TO.P,U1,29,~{RESET}/PC6*%
%TO.N,/RESET_MSTR*%
X70846796Y-69587151D03*
%TO.P,U1,30,PD0*%
%TO.N,/B1_MISO*%
X70493243Y-69233597D03*
%TO.P,U1,31,PD1*%
%TO.N,/B1_MOSI*%
X70139689Y-68880044D03*
%TO.P,U1,32,PD2*%
%TO.N,/EXT_INT0*%
X69786136Y-68526490D03*
D18*
%TO.P,U1,33,GND*%
%TO.N,GND*%
X69300000Y-71487500D03*
%TD*%
D19*
%TO.N,/B0_CS7*%
X88400000Y-62700000D03*
%TO.N,/B0_CS6*%
X86550000Y-68050000D03*
%TO.N,/B0_CS5*%
X79150000Y-63250000D03*
%TO.N,/B0_CS4*%
X77300000Y-63250000D03*
%TO.N,/B0_CS3*%
X76400000Y-63900000D03*
%TO.N,/B0_CS2*%
X75150000Y-65050000D03*
X76050000Y-80450000D03*
%TO.N,/B0_CS1*%
X74650000Y-65600000D03*
X74550000Y-80150000D03*
%TO.N,/RESET_DRV3*%
X73750000Y-69750000D03*
%TO.N,/RESET_DRV2*%
X74750000Y-70250000D03*
%TO.N,/RESET_MSTR*%
X67000000Y-62000000D03*
X74000000Y-66400000D03*
%TO.N,/RESET_DRV0*%
X64000000Y-65550000D03*
X73900000Y-67500000D03*
%TO.N,/B1_CS3*%
X66693051Y-74443051D03*
%TO.N,/B0_MISO*%
X63350000Y-70450000D03*
X64950000Y-76600000D03*
X64928662Y-78338662D03*
%TO.N,+5V*%
X66992500Y-67127055D03*
X57300000Y-86679500D03*
%TO.N,/B0_SCK*%
X59850000Y-70050000D03*
%TO.N,/B1_CS1*%
X65200000Y-72750000D03*
%TO.N,/B0_MOSI*%
X62400000Y-71150000D03*
%TO.N,/RESET_DRV1*%
X73200000Y-72900000D03*
%TO.N,/B1_CS2*%
X65756029Y-73256029D03*
%TO.N,/RESET_MSTR*%
X52050000Y-63850000D03*
%TO.N,/B1_MISO*%
X71565895Y-68165895D03*
%TO.N,/B0_SCK*%
X66550000Y-78050000D03*
%TO.N,/B0_CS0*%
X66671605Y-75171605D03*
%TD*%
D20*
%TO.N,GND*%
X71200349Y-73034296D02*
X69653553Y-71487500D01*
X69653553Y-71487500D02*
X69300000Y-71487500D01*
X67399651Y-69940704D02*
X68946447Y-71487500D01*
X68946447Y-71487500D02*
X69300000Y-71487500D01*
%TO.N,+5V*%
X66348008Y-68198008D02*
X66348008Y-67771547D01*
X66348008Y-67771547D02*
X66992500Y-67127055D01*
%TO.N,GND*%
X65251992Y-67101992D02*
X65251992Y-68274376D01*
X66546014Y-69568398D02*
X67027345Y-69568398D01*
X65251992Y-68274376D02*
X66546014Y-69568398D01*
X67027345Y-69568398D02*
X67399651Y-69940704D01*
%TO.N,/B1_SCK*%
X55230000Y-64770000D02*
X56434000Y-63566000D01*
X56434000Y-63566000D02*
X64173948Y-63566000D01*
X64173948Y-63566000D02*
X67496000Y-66888052D01*
X67496000Y-66888052D02*
X67496000Y-67915733D01*
X67496000Y-67915733D02*
X68460311Y-68880044D01*
%TO.N,/B1_CS0*%
X68813864Y-68526490D02*
X67950000Y-67662626D01*
X67950000Y-67662626D02*
X67950000Y-66700000D01*
X67950000Y-66700000D02*
X64079000Y-62829000D01*
X64079000Y-62829000D02*
X63245526Y-62829000D01*
X63245526Y-62829000D02*
X62921000Y-62504474D01*
X62921000Y-62230000D02*
X57770000Y-62230000D01*
X62921000Y-62504474D02*
X62921000Y-62230000D01*
%TO.N,/B0_CS7*%
X88400000Y-62700000D02*
X88400000Y-81540000D01*
X88400000Y-81540000D02*
X85240000Y-84700000D01*
%TO.N,/B0_CS6*%
X86550000Y-80850000D02*
X86550000Y-68050000D01*
X82700000Y-84700000D02*
X86550000Y-80850000D01*
%TO.N,/B0_CS5*%
X80160000Y-64260000D02*
X79150000Y-63250000D01*
X80160000Y-84700000D02*
X80160000Y-64260000D01*
%TO.N,/B0_CS4*%
X78470000Y-64420000D02*
X77300000Y-63250000D01*
X78470000Y-83850000D02*
X78470000Y-64420000D01*
X77620000Y-84700000D02*
X78470000Y-83850000D01*
%TO.N,/B0_CS3*%
X76400000Y-63900000D02*
X77200000Y-64700000D01*
X77200000Y-64700000D02*
X77200000Y-82580000D01*
X77200000Y-82580000D02*
X75080000Y-84700000D01*
%TO.N,/B0_CS2*%
X76208000Y-66108000D02*
X75150000Y-65050000D01*
X76050000Y-80450000D02*
X76208000Y-80292000D01*
X76208000Y-80292000D02*
X76208000Y-66108000D01*
%TO.N,/B0_CS1*%
X75754000Y-66704000D02*
X74650000Y-65600000D01*
X75754000Y-78946000D02*
X75754000Y-66704000D01*
X74550000Y-80150000D02*
X75754000Y-78946000D01*
%TO.N,/RESET_DRV2*%
X74750000Y-70250000D02*
X74746000Y-70254000D01*
X74746000Y-70254000D02*
X72996000Y-70254000D01*
X72996000Y-70254000D02*
X72261010Y-70988990D01*
X72261010Y-70988990D02*
X72261010Y-71001364D01*
%TO.N,/RESET_DRV0*%
X73900000Y-67500000D02*
X75300000Y-68900000D01*
X75300000Y-68900000D02*
X75300000Y-71550000D01*
X75300000Y-71550000D02*
X73446000Y-73404000D01*
X73446000Y-73404000D02*
X72984267Y-73404000D01*
X72984267Y-73404000D02*
X71907456Y-72327189D01*
%TO.N,/RESET_DRV3*%
X72805267Y-69750000D02*
X73750000Y-69750000D01*
X71907456Y-70647811D02*
X72805267Y-69750000D01*
%TO.N,/RESET_MSTR*%
X72600000Y-67850000D02*
X74000000Y-66450000D01*
X74000000Y-66450000D02*
X74000000Y-66400000D01*
X67000000Y-62000000D02*
X65325000Y-62000000D01*
X70862849Y-69587151D02*
X72600000Y-67850000D01*
X70846796Y-69587151D02*
X70862849Y-69587151D01*
%TO.N,GND*%
X60600000Y-67200000D02*
X61317173Y-66482827D01*
X61317173Y-66482827D02*
X64632827Y-66482827D01*
X64632827Y-66482827D02*
X65251992Y-67101992D01*
%TO.N,/RESET_DRV0*%
X64000000Y-65550000D02*
X63220000Y-64770000D01*
X63220000Y-64770000D02*
X57770000Y-64770000D01*
%TO.N,GND*%
X71200349Y-73034296D02*
X71572655Y-73406602D01*
X71572655Y-73406602D02*
X72178986Y-73406602D01*
X72178986Y-73406602D02*
X73248008Y-74475624D01*
X73248008Y-74475624D02*
X73248008Y-75648008D01*
%TO.N,/B1_CS3*%
X66650000Y-74400000D02*
X66693051Y-74443051D01*
X67046097Y-72680743D02*
X66650000Y-73076840D01*
X66650000Y-73076840D02*
X66650000Y-74400000D01*
X67046097Y-72680743D02*
X67044079Y-72680743D01*
X67044079Y-72680743D02*
X67044079Y-72705921D01*
%TO.N,/B0_MISO*%
X64950000Y-76600000D02*
X63350000Y-75000000D01*
X63350000Y-75000000D02*
X63350000Y-70450000D01*
X64920000Y-78330000D02*
X64928662Y-78338662D01*
%TO.N,+5V*%
X66348008Y-68198008D02*
X66000456Y-68198008D01*
%TO.N,/XTAL1*%
X66692544Y-70647811D02*
X65453107Y-69408374D01*
X64558374Y-69408374D02*
X62800000Y-67650000D01*
X65453107Y-69408374D02*
X64558374Y-69408374D01*
%TO.N,+5V*%
X71051992Y-75651992D02*
X72151992Y-74551992D01*
D21*
X71204000Y-75804000D02*
X71204000Y-86296000D01*
X70771000Y-86729000D02*
X57300000Y-86729000D01*
D20*
X71051992Y-75651992D02*
X71204000Y-75804000D01*
D21*
X71204000Y-86296000D02*
X70771000Y-86729000D01*
D20*
X57300000Y-86729000D02*
X57300000Y-86679500D01*
%TO.N,/RESET_MSTR*%
X57300000Y-58750000D02*
X59672000Y-61122000D01*
X59672000Y-61122000D02*
X64447000Y-61122000D01*
X64447000Y-61122000D02*
X65325000Y-62000000D01*
D22*
%TO.N,+5V*%
X55230000Y-62230000D02*
X55925865Y-62230000D01*
X55925865Y-62230000D02*
X57229865Y-60926000D01*
X57229865Y-60926000D02*
X58310135Y-60926000D01*
X58310135Y-60926000D02*
X59060135Y-61676000D01*
X59060135Y-61676000D02*
X63351000Y-61676000D01*
X63351000Y-61676000D02*
X63675000Y-62000000D01*
D20*
%TO.N,/B0_SCK*%
X59840000Y-70060000D02*
X59850000Y-70050000D01*
X59840000Y-84700000D02*
X59840000Y-70060000D01*
%TO.N,/B1_CS1*%
X65500000Y-72750000D02*
X65200000Y-72750000D01*
X66276364Y-71973636D02*
X65500000Y-72750000D01*
X66338990Y-71973636D02*
X66276364Y-71973636D01*
%TO.N,/B0_MOSI*%
X62380000Y-71170000D02*
X62400000Y-71150000D01*
X62380000Y-80175267D02*
X62380000Y-71170000D01*
%TO.N,/RESET_DRV1*%
X72261010Y-71973636D02*
X72273636Y-71973636D01*
X72273636Y-71973636D02*
X73200000Y-72900000D01*
%TO.N,/B1_CS2*%
X66692544Y-72327189D02*
X66684869Y-72327189D01*
X66684869Y-72327189D02*
X65756029Y-73256029D01*
D21*
%TO.N,GND*%
X73771000Y-78350000D02*
X73771000Y-76171000D01*
X73771000Y-87189000D02*
X73771000Y-78350000D01*
X73771000Y-78350000D02*
X73750000Y-78350000D01*
X73750000Y-78350000D02*
X72148008Y-76748008D01*
X73750000Y-87210000D02*
X79468897Y-87210000D01*
X73550000Y-87210000D02*
X73750000Y-87210000D01*
X73750000Y-87210000D02*
X73771000Y-87189000D01*
X73771000Y-76171000D02*
X73248008Y-75648008D01*
D22*
X54760000Y-58750000D02*
X51050000Y-62460000D01*
X51050000Y-62460000D02*
X51050000Y-67150000D01*
X51050000Y-67150000D02*
X51100000Y-67200000D01*
X51100000Y-67200000D02*
X51050000Y-67250000D01*
X51050000Y-67250000D02*
X51050000Y-80990000D01*
X51050000Y-80990000D02*
X54760000Y-84700000D01*
D21*
X54760000Y-84700000D02*
X54760000Y-87210000D01*
X54760000Y-87210000D02*
X73550000Y-87210000D01*
X79468897Y-87210000D02*
X81469000Y-85209897D01*
X81469000Y-85209897D02*
X81469000Y-81531000D01*
X81469000Y-81531000D02*
X82230000Y-80770000D01*
D20*
%TO.N,/RESET_MSTR*%
X52050000Y-63850000D02*
X52050000Y-63162714D01*
X52050000Y-63162714D02*
X54612714Y-60600000D01*
X54612714Y-60600000D02*
X55450000Y-60600000D01*
X55450000Y-60600000D02*
X57300000Y-58750000D01*
%TO.N,/B1_MISO*%
X70498193Y-69233597D02*
X71565895Y-68165895D01*
X70493243Y-69233597D02*
X70498193Y-69233597D01*
%TO.N,/B0_SCK*%
X69950000Y-74650000D02*
X69950000Y-74582675D01*
X66550000Y-78050000D02*
X69950000Y-74650000D01*
X69950000Y-74582675D02*
X69920301Y-74582675D01*
X69920301Y-74582675D02*
X69786136Y-74448510D01*
%TO.N,/B0_CS0*%
X66671605Y-75171605D02*
X66676555Y-75171605D01*
X66676555Y-75171605D02*
X68106757Y-73741403D01*
%TO.N,/B0_MOSI*%
X68460311Y-74094956D02*
X62380000Y-80175267D01*
X62380000Y-80175267D02*
X62380000Y-84700000D01*
%TO.N,/B0_MISO*%
X68813864Y-74448510D02*
X68801490Y-74448510D01*
X68801490Y-74448510D02*
X64920000Y-78330000D01*
X64920000Y-78330000D02*
X64920000Y-84700000D01*
%TO.N,GND*%
X61951472Y-68498528D02*
X61898528Y-68498528D01*
X61898528Y-68498528D02*
X60600000Y-67200000D01*
D22*
X60600000Y-67200000D02*
X51100000Y-67200000D01*
D20*
%TO.N,/B1_MOSI*%
X70139689Y-68880044D02*
X76789733Y-62230000D01*
X76789733Y-62230000D02*
X82230000Y-62230000D01*
%TO.N,/EXT_INT0*%
X69786136Y-68526490D02*
X77286626Y-61026000D01*
X77286626Y-61026000D02*
X85504000Y-61026000D01*
X85504000Y-61026000D02*
X87780000Y-58750000D01*
%TO.N,/XTAL2*%
X66338990Y-71001364D02*
X65200000Y-69862374D01*
X65200000Y-69862374D02*
X61618262Y-69862374D01*
X61618262Y-69862374D02*
X61102944Y-69347056D01*
%TO.N,+5V*%
X67753204Y-69587151D02*
X67737151Y-69587151D01*
X67737151Y-69587151D02*
X66348008Y-68198008D01*
X70846796Y-73387849D02*
X72010939Y-74551992D01*
X72010939Y-74551992D02*
X72151992Y-74551992D01*
X70139689Y-74094956D02*
X71051992Y-75007259D01*
X71051992Y-75007259D02*
X71051992Y-75651992D01*
%TD*%
M02*
