M48
; DRILL file {KiCad 7.0.1} date Mon 03 Apr 2023 11:37:09 PM EDT
; FORMAT={2:4/ absolute / inch / keep zeros}
; #@! TF.CreationDate,2023-04-03T23:37:09-04:00
; #@! TF.GenerationSoftware,Kicad,Pcbnew,7.0.1
; #@! TF.FileFunction,MixedPlating,1,2
FMAT,2
INCH
; #@! TA.AperFunction,Plated,PTH,ViaDrill
T1C0.0197
; #@! TA.AperFunction,Plated,PTH,ComponentDrill
T2C0.0394
%
G90
G05
T1
X020492Y-025138
X022559Y-034126
X023563Y-027579
X024567Y-028012
X024941Y-027736
X025197Y-025807
X025562Y-030842
X025571Y-030157
X025669Y-028642
X025888Y-028841
X026201Y-030728
X026249Y-029595
X026257Y-029308
X026375Y-026428
X026378Y-024409
X028176Y-026837
X028819Y-028701
X029035Y-027461
X029094Y-026575
X029134Y-026142
X029350Y-031555
X029390Y-025827
X029429Y-027657
X029587Y-025610
X029941Y-031673
X030079Y-025157
X030433Y-024902
X031161Y-024902
X034075Y-026791
X034803Y-024685
T2
X020559Y-023130
X020559Y-033346
X021559Y-023130
X021559Y-033346
X021744Y-024500
X021744Y-025500
X021744Y-030799
X021744Y-031799
X022559Y-023130
X022559Y-033346
X022744Y-024500
X022744Y-025500
X022744Y-030799
X022744Y-031799
X023559Y-023130
X023559Y-033346
X024559Y-023130
X024559Y-033346
X025559Y-023130
X025559Y-033346
X026559Y-023130
X026559Y-033346
X027559Y-023130
X027559Y-033346
X028559Y-023130
X028559Y-033346
X029559Y-023130
X029559Y-033346
X030559Y-023130
X030559Y-033346
X031559Y-023130
X031559Y-033346
X032374Y-024500
X032374Y-025500
X032374Y-030799
X032374Y-031799
X032559Y-023130
X032559Y-033346
X033374Y-024500
X033374Y-025500
X033374Y-030799
X033374Y-031799
X033559Y-023130
X033559Y-033346
X034559Y-023130
X034559Y-033346
T0
M30
