%TF.GenerationSoftware,KiCad,Pcbnew,7.0.1*%
%TF.CreationDate,2023-04-03T23:37:47-04:00*%
%TF.ProjectId,comm_v0p4,636f6d6d-5f76-4307-9034-2e6b69636164,rev?*%
%TF.SameCoordinates,Original*%
%TF.FileFunction,Other,User*%
%FSLAX46Y46*%
G04 Gerber Fmt 4.6, Leading zero omitted, Abs format (unit mm)*
G04 Created by KiCad (PCBNEW 7.0.1) date 2023-04-03 23:37:47*
%MOMM*%
%LPD*%
G01*
G04 APERTURE LIST*
%ADD10C,0.050000*%
G04 APERTURE END LIST*
D10*
%TO.C,J7*%
X80470000Y-82530000D02*
X86570000Y-82530000D01*
X80470000Y-76430000D02*
X80470000Y-82530000D01*
X86570000Y-82530000D02*
X86570000Y-76430000D01*
X86570000Y-76430000D02*
X80470000Y-76430000D01*
%TO.C,J6*%
X86570000Y-60430000D02*
X80470000Y-60430000D01*
X86570000Y-66530000D02*
X86570000Y-60430000D01*
X80470000Y-60430000D02*
X80470000Y-66530000D01*
X80470000Y-66530000D02*
X86570000Y-66530000D01*
%TO.C,J5*%
X59570000Y-76430000D02*
X53470000Y-76430000D01*
X59570000Y-82530000D02*
X59570000Y-76430000D01*
X53470000Y-76430000D02*
X53470000Y-82530000D01*
X53470000Y-82530000D02*
X59570000Y-82530000D01*
%TO.C,J4*%
X59570000Y-60430000D02*
X53470000Y-60430000D01*
X59570000Y-66530000D02*
X59570000Y-60430000D01*
X53470000Y-60430000D02*
X53470000Y-66530000D01*
X53470000Y-66530000D02*
X59570000Y-66530000D01*
%TO.C,R5*%
X63020000Y-61270000D02*
X65980000Y-61270000D01*
X65980000Y-61270000D02*
X65980000Y-62730000D01*
X63020000Y-62730000D02*
X63020000Y-61270000D01*
X65980000Y-62730000D02*
X63020000Y-62730000D01*
%TO.C,C3*%
X73230330Y-76662706D02*
X71137294Y-74569670D01*
X72169670Y-73537294D02*
X74262706Y-75630330D01*
X74262706Y-75630330D02*
X73230330Y-76662706D01*
X71137294Y-74569670D02*
X72169670Y-73537294D01*
%TO.C,Y1*%
X61562563Y-70584493D02*
X59865507Y-68887437D01*
X64037437Y-68109619D02*
X61562563Y-70584493D01*
X59865507Y-68887437D02*
X62340381Y-66412563D01*
X62340381Y-66412563D02*
X64037437Y-68109619D01*
%TO.C,C1*%
X65269670Y-66087294D02*
X67362706Y-68180330D01*
X66330330Y-69212706D02*
X64237294Y-67119670D01*
X64237294Y-67119670D02*
X65269670Y-66087294D01*
X67362706Y-68180330D02*
X66330330Y-69212706D01*
%TO.C,C2*%
X71069670Y-74637294D02*
X73162706Y-76730330D01*
X70037294Y-75669670D02*
X71069670Y-74637294D01*
X73162706Y-76730330D02*
X72130330Y-77762706D01*
X72130330Y-77762706D02*
X70037294Y-75669670D01*
%TO.C,J1*%
X50430000Y-95250000D02*
X89580000Y-95250000D01*
X89580000Y-95250000D02*
X89580000Y-82900000D01*
X50430000Y-82900000D02*
X50430000Y-95250000D01*
X89580000Y-82900000D02*
X50430000Y-82900000D01*
%TO.C,J2*%
X89530000Y-48200000D02*
X50430000Y-48200000D01*
X50430000Y-48200000D02*
X50430000Y-60500000D01*
X89530000Y-60500000D02*
X89530000Y-48200000D01*
X50430000Y-60500000D02*
X89530000Y-60500000D01*
%TO.C,U1*%
X69300000Y-67075154D02*
X64887654Y-71487500D01*
X64887654Y-71487500D02*
X69300000Y-75899846D01*
X73712346Y-71487500D02*
X69300000Y-67075154D01*
X69300000Y-75899846D02*
X73712346Y-71487500D01*
%TD*%
M02*
