G04 (created by PCBNEW (2013-mar-13)-testing) date Mon 26 Aug 2013 07:22:46 AM PDT*
%MOIN*%
G04 Gerber Fmt 3.4, Leading zero omitted, Abs format*
%FSLAX34Y34*%
G01*
G70*
G90*
G04 APERTURE LIST*
%ADD10C,0.005906*%
%ADD11R,0.060000X0.060000*%
%ADD12C,0.060000*%
%ADD13R,0.025000X0.045000*%
%ADD14R,0.045000X0.025000*%
%ADD15R,0.078700X0.017700*%
%ADD16R,0.017700X0.078700*%
%ADD17R,0.051200X0.019700*%
G04 APERTURE END LIST*
G54D10*
G54D11*
X20559Y-33425D03*
G54D12*
X21559Y-33425D03*
X22559Y-33425D03*
X23559Y-33425D03*
X24559Y-33425D03*
X25559Y-33425D03*
X26559Y-33425D03*
X27559Y-33425D03*
X28559Y-33425D03*
X29559Y-33425D03*
X30559Y-33425D03*
X31559Y-33425D03*
X32559Y-33425D03*
X33559Y-33425D03*
X34559Y-33425D03*
G54D11*
X20559Y-22893D03*
G54D12*
X21559Y-22893D03*
X22559Y-22893D03*
X23559Y-22893D03*
X24559Y-22893D03*
X25559Y-22893D03*
X26559Y-22893D03*
X27559Y-22893D03*
X28559Y-22893D03*
X29559Y-22893D03*
X30559Y-22893D03*
X31559Y-22893D03*
X32559Y-22893D03*
X33559Y-22893D03*
X34559Y-22893D03*
G54D13*
X20644Y-32283D03*
X21244Y-32283D03*
X23470Y-29250D03*
X24070Y-29250D03*
G54D14*
X26692Y-24030D03*
X26692Y-24630D03*
G54D15*
X25663Y-29242D03*
X25663Y-28927D03*
X25663Y-28612D03*
X25663Y-28297D03*
X25663Y-27982D03*
X25663Y-27667D03*
X25663Y-27352D03*
X25663Y-27037D03*
X29429Y-27039D03*
X29429Y-29249D03*
X29429Y-28929D03*
X29429Y-28609D03*
X29429Y-28299D03*
X29429Y-27979D03*
X29429Y-27669D03*
X29429Y-27349D03*
G54D16*
X26447Y-26249D03*
X26761Y-26249D03*
X27077Y-26249D03*
X27391Y-26249D03*
X27707Y-26249D03*
X28021Y-26249D03*
X28337Y-26249D03*
X28651Y-26249D03*
X26449Y-30029D03*
X26759Y-30029D03*
X27079Y-30029D03*
X27389Y-30029D03*
X27699Y-30029D03*
X28019Y-30029D03*
X28339Y-30029D03*
X28659Y-30029D03*
G54D13*
X22898Y-32283D03*
X22298Y-32283D03*
G54D14*
X32598Y-29906D03*
X32598Y-29306D03*
X33700Y-29906D03*
X33700Y-29306D03*
G54D17*
X24200Y-30780D03*
X24200Y-31252D03*
X24200Y-30308D03*
G54D11*
X21834Y-28059D03*
G54D12*
X21834Y-27059D03*
X22834Y-28059D03*
X22834Y-27059D03*
X23834Y-28059D03*
X23834Y-27059D03*
G54D11*
X31283Y-28059D03*
G54D12*
X31283Y-27059D03*
X32283Y-28059D03*
X32283Y-27059D03*
X33283Y-28059D03*
X33283Y-27059D03*
M02*
