G04 (created by PCBNEW (2013-mar-13)-testing) date Mon 26 Aug 2013 07:22:46 AM PDT*
%MOIN*%
G04 Gerber Fmt 3.4, Leading zero omitted, Abs format*
%FSLAX34Y34*%
G01*
G70*
G90*
G04 APERTURE LIST*
%ADD10C,0.005906*%
%ADD11R,0.060000X0.060000*%
%ADD12C,0.060000*%
%ADD13R,0.025000X0.045000*%
%ADD14R,0.045000X0.025000*%
%ADD15R,0.078700X0.017700*%
%ADD16R,0.017700X0.078700*%
%ADD17R,0.051200X0.019700*%
%ADD18C,0.035000*%
%ADD19C,0.010000*%
G04 APERTURE END LIST*
G54D10*
G54D11*
X20559Y-33425D03*
G54D12*
X21559Y-33425D03*
X22559Y-33425D03*
X23559Y-33425D03*
X24559Y-33425D03*
X25559Y-33425D03*
X26559Y-33425D03*
X27559Y-33425D03*
X28559Y-33425D03*
X29559Y-33425D03*
X30559Y-33425D03*
X31559Y-33425D03*
X32559Y-33425D03*
X33559Y-33425D03*
X34559Y-33425D03*
G54D11*
X20559Y-22893D03*
G54D12*
X21559Y-22893D03*
X22559Y-22893D03*
X23559Y-22893D03*
X24559Y-22893D03*
X25559Y-22893D03*
X26559Y-22893D03*
X27559Y-22893D03*
X28559Y-22893D03*
X29559Y-22893D03*
X30559Y-22893D03*
X31559Y-22893D03*
X32559Y-22893D03*
X33559Y-22893D03*
X34559Y-22893D03*
G54D13*
X20644Y-32283D03*
X21244Y-32283D03*
X23470Y-29250D03*
X24070Y-29250D03*
G54D14*
X26692Y-24030D03*
X26692Y-24630D03*
G54D15*
X25663Y-29242D03*
X25663Y-28927D03*
X25663Y-28612D03*
X25663Y-28297D03*
X25663Y-27982D03*
X25663Y-27667D03*
X25663Y-27352D03*
X25663Y-27037D03*
X29429Y-27039D03*
X29429Y-29249D03*
X29429Y-28929D03*
X29429Y-28609D03*
X29429Y-28299D03*
X29429Y-27979D03*
X29429Y-27669D03*
X29429Y-27349D03*
G54D16*
X26447Y-26249D03*
X26761Y-26249D03*
X27077Y-26249D03*
X27391Y-26249D03*
X27707Y-26249D03*
X28021Y-26249D03*
X28337Y-26249D03*
X28651Y-26249D03*
X26449Y-30029D03*
X26759Y-30029D03*
X27079Y-30029D03*
X27389Y-30029D03*
X27699Y-30029D03*
X28019Y-30029D03*
X28339Y-30029D03*
X28659Y-30029D03*
G54D13*
X22898Y-32283D03*
X22298Y-32283D03*
G54D14*
X32598Y-29906D03*
X32598Y-29306D03*
X33700Y-29906D03*
X33700Y-29306D03*
G54D17*
X24200Y-30780D03*
X24200Y-31252D03*
X24200Y-30308D03*
G54D11*
X21834Y-28059D03*
G54D12*
X21834Y-27059D03*
X22834Y-28059D03*
X22834Y-27059D03*
X23834Y-28059D03*
X23834Y-27059D03*
G54D11*
X31283Y-28059D03*
G54D12*
X31283Y-27059D03*
X32283Y-28059D03*
X32283Y-27059D03*
X33283Y-28059D03*
X33283Y-27059D03*
G54D18*
X25720Y-30384D03*
X27757Y-30714D03*
X27412Y-25538D03*
G54D19*
X25663Y-28612D02*
X26206Y-28612D01*
X25663Y-28612D02*
X25119Y-28612D01*
X25663Y-27982D02*
X26206Y-27982D01*
X20644Y-32509D02*
X20644Y-32283D01*
X22298Y-32283D02*
X22023Y-32283D01*
X21051Y-31908D02*
X21648Y-31908D01*
X20644Y-32314D02*
X21051Y-31908D01*
X20644Y-32509D02*
X20644Y-32314D01*
X21648Y-31908D02*
X22023Y-32283D01*
X22284Y-28339D02*
X22284Y-28059D01*
X23194Y-29250D02*
X22284Y-28339D01*
X21834Y-28059D02*
X22284Y-28059D01*
X23470Y-29250D02*
X23194Y-29250D01*
X21648Y-31867D02*
X21648Y-31908D01*
X23885Y-29630D02*
X21648Y-31867D01*
X24274Y-29630D02*
X23885Y-29630D01*
X24345Y-29559D02*
X24274Y-29630D01*
X24345Y-29386D02*
X24345Y-29559D01*
X25119Y-28612D02*
X24345Y-29386D01*
X23745Y-29490D02*
X23745Y-29250D01*
X23885Y-29630D02*
X23745Y-29490D01*
X23470Y-29250D02*
X23745Y-29250D01*
X29429Y-28299D02*
X28885Y-28299D01*
X26206Y-28299D02*
X28885Y-28299D01*
X26206Y-28612D02*
X26206Y-28299D01*
X26206Y-28299D02*
X26206Y-27982D01*
X29429Y-28299D02*
X29922Y-28299D01*
X29972Y-28349D02*
X29972Y-28929D01*
X29922Y-28299D02*
X29972Y-28349D01*
X29429Y-28929D02*
X29972Y-28929D01*
X20559Y-33425D02*
X20559Y-33172D01*
X20644Y-32735D02*
X20644Y-32509D01*
X20559Y-32820D02*
X20644Y-32735D01*
X20559Y-33172D02*
X20559Y-32820D01*
X32059Y-30720D02*
X32598Y-30181D01*
X32059Y-33576D02*
X32059Y-30720D01*
X31524Y-34111D02*
X32059Y-33576D01*
X21497Y-34111D02*
X31524Y-34111D01*
X20559Y-33172D02*
X21497Y-34111D01*
X32598Y-29906D02*
X32598Y-30043D01*
X32598Y-30043D02*
X32598Y-30181D01*
X33188Y-30043D02*
X33325Y-29906D01*
X32598Y-30043D02*
X33188Y-30043D01*
X33700Y-29906D02*
X33325Y-29906D01*
X28914Y-31070D02*
X26559Y-33425D01*
X28914Y-29589D02*
X28914Y-31070D01*
X28811Y-29485D02*
X28914Y-29589D01*
X28019Y-29485D02*
X28811Y-29485D01*
X28019Y-30029D02*
X28019Y-29485D01*
X30827Y-32693D02*
X31559Y-33425D01*
X30827Y-27692D02*
X30827Y-32693D01*
X30990Y-27528D02*
X30827Y-27692D01*
X31486Y-27528D02*
X30990Y-27528D01*
X31748Y-27265D02*
X31486Y-27528D01*
X31748Y-26886D02*
X31748Y-27265D01*
X31468Y-26606D02*
X31748Y-26886D01*
X29120Y-26606D02*
X31468Y-26606D01*
X28689Y-27037D02*
X29120Y-26606D01*
X25663Y-27037D02*
X28689Y-27037D01*
X33906Y-22240D02*
X34559Y-22893D01*
X30561Y-22240D02*
X33906Y-22240D01*
X30059Y-22743D02*
X30561Y-22240D01*
X30059Y-23043D02*
X30059Y-22743D01*
X29494Y-23608D02*
X30059Y-23043D01*
X26552Y-23608D02*
X29494Y-23608D01*
X26311Y-23849D02*
X26552Y-23608D01*
X26311Y-25570D02*
X26311Y-23849D01*
X26447Y-25705D02*
X26311Y-25570D01*
X26447Y-26249D02*
X26447Y-25705D01*
X28659Y-30029D02*
X28659Y-30573D01*
X25807Y-33425D02*
X25559Y-33425D01*
X28659Y-30573D02*
X25807Y-33425D01*
X28339Y-30029D02*
X28339Y-30573D01*
X26803Y-31180D02*
X24559Y-33425D01*
X27766Y-31180D02*
X26803Y-31180D01*
X28339Y-30608D02*
X27766Y-31180D01*
X28339Y-30573D02*
X28339Y-30608D01*
X24100Y-26793D02*
X28651Y-26793D01*
X23834Y-27059D02*
X24100Y-26793D01*
X28651Y-26249D02*
X28651Y-26793D01*
X31579Y-25705D02*
X28337Y-25705D01*
X32783Y-26910D02*
X31579Y-25705D01*
X32783Y-27559D02*
X32783Y-26910D01*
X33283Y-28059D02*
X32783Y-27559D01*
X28337Y-26249D02*
X28337Y-25705D01*
X24525Y-27352D02*
X25663Y-27352D01*
X24350Y-27527D02*
X24525Y-27352D01*
X22303Y-27527D02*
X24350Y-27527D01*
X21834Y-27059D02*
X22303Y-27527D01*
X25908Y-30573D02*
X26449Y-30573D01*
X25720Y-30384D02*
X25908Y-30573D01*
X26449Y-30029D02*
X26449Y-30573D01*
X24092Y-33239D02*
X26759Y-30573D01*
X24092Y-33597D02*
X24092Y-33239D01*
X24381Y-33885D02*
X24092Y-33597D01*
X27764Y-33885D02*
X24381Y-33885D01*
X28059Y-33590D02*
X27764Y-33885D01*
X28059Y-33225D02*
X28059Y-33590D01*
X30299Y-30984D02*
X28059Y-33225D01*
X30299Y-27909D02*
X30299Y-30984D01*
X31150Y-27059D02*
X30299Y-27909D01*
X31283Y-27059D02*
X31150Y-27059D01*
X26759Y-30029D02*
X26759Y-30573D01*
X27079Y-30029D02*
X27079Y-30573D01*
X27219Y-30714D02*
X27757Y-30714D01*
X27079Y-30573D02*
X27219Y-30714D01*
X22898Y-33085D02*
X22559Y-33425D01*
X22898Y-32283D02*
X22898Y-33085D01*
X27412Y-25684D02*
X27391Y-25705D01*
X27412Y-25538D02*
X27412Y-25684D01*
X27391Y-26249D02*
X27391Y-25705D01*
X27077Y-26249D02*
X27077Y-25705D01*
X27077Y-25414D02*
X27077Y-25705D01*
X27962Y-24529D02*
X27077Y-25414D01*
X30923Y-24529D02*
X27962Y-24529D01*
X32559Y-22893D02*
X30923Y-24529D01*
X25242Y-31741D02*
X23559Y-33425D01*
X25242Y-30402D02*
X25242Y-31741D01*
X26395Y-29249D02*
X25242Y-30402D01*
X29429Y-29249D02*
X26395Y-29249D01*
X33700Y-29306D02*
X33325Y-29306D01*
X27707Y-26249D02*
X27707Y-25705D01*
X33325Y-28878D02*
X33325Y-29306D01*
X33103Y-28878D02*
X33325Y-28878D01*
X32283Y-28059D02*
X33103Y-28878D01*
X28134Y-25278D02*
X27707Y-25705D01*
X32433Y-25278D02*
X28134Y-25278D01*
X33934Y-26779D02*
X32433Y-25278D01*
X33934Y-28330D02*
X33934Y-26779D01*
X33386Y-28878D02*
X33934Y-28330D01*
X33325Y-28878D02*
X33386Y-28878D01*
X31283Y-28059D02*
X31508Y-28059D01*
X28021Y-26249D02*
X28021Y-25705D01*
X32598Y-29306D02*
X32598Y-29031D01*
X32076Y-27602D02*
X31622Y-28055D01*
X32467Y-27602D02*
X32076Y-27602D01*
X32783Y-27918D02*
X32467Y-27602D01*
X32783Y-28229D02*
X32783Y-27918D01*
X33066Y-28512D02*
X32783Y-28229D01*
X33469Y-28512D02*
X33066Y-28512D01*
X33734Y-28247D02*
X33469Y-28512D01*
X33734Y-26862D02*
X33734Y-28247D01*
X32364Y-25492D02*
X33734Y-26862D01*
X28234Y-25492D02*
X32364Y-25492D01*
X28021Y-25705D02*
X28234Y-25492D01*
X31622Y-28055D02*
X31622Y-28055D01*
X31511Y-28055D02*
X31622Y-28055D01*
X31508Y-28059D02*
X31511Y-28055D01*
X31622Y-28055D02*
X32598Y-29031D01*
X33106Y-22441D02*
X33559Y-22893D01*
X32366Y-22441D02*
X33106Y-22441D01*
X32059Y-22748D02*
X32366Y-22441D01*
X32059Y-23034D02*
X32059Y-22748D01*
X31062Y-24030D02*
X32059Y-23034D01*
X26692Y-24030D02*
X31062Y-24030D01*
X25663Y-28927D02*
X25119Y-28927D01*
X24616Y-29430D02*
X25119Y-28927D01*
X24616Y-29642D02*
X24616Y-29430D01*
X24200Y-30059D02*
X24616Y-29642D01*
X24200Y-30307D02*
X24200Y-30059D01*
X24200Y-31252D02*
X24606Y-31252D01*
X25663Y-29242D02*
X25119Y-29242D01*
X24816Y-29545D02*
X25119Y-29242D01*
X24816Y-31041D02*
X24816Y-29545D01*
X24606Y-31252D02*
X24816Y-31041D01*
X29429Y-27979D02*
X28885Y-27979D01*
X21244Y-32684D02*
X21401Y-32841D01*
X21244Y-32283D02*
X21244Y-32684D01*
X21559Y-32999D02*
X21559Y-33425D01*
X21401Y-32841D02*
X21559Y-32999D01*
X22573Y-32000D02*
X23793Y-30780D01*
X22573Y-32581D02*
X22573Y-32000D01*
X22313Y-32841D02*
X22573Y-32581D01*
X21401Y-32841D02*
X22313Y-32841D01*
X24200Y-30780D02*
X23793Y-30780D01*
X26518Y-27979D02*
X26206Y-27667D01*
X28885Y-27979D02*
X26518Y-27979D01*
X23650Y-28874D02*
X24070Y-28874D01*
X22834Y-28059D02*
X23650Y-28874D01*
X24070Y-29250D02*
X24070Y-28874D01*
X25848Y-27667D02*
X26206Y-27667D01*
X25848Y-27667D02*
X25663Y-27667D01*
X25119Y-27667D02*
X25119Y-28297D01*
X25663Y-27667D02*
X25119Y-27667D01*
X25663Y-28297D02*
X25169Y-28297D01*
X25169Y-28297D02*
X25119Y-28297D01*
X24647Y-28297D02*
X24070Y-28874D01*
X25119Y-28297D02*
X24647Y-28297D01*
X26761Y-24973D02*
X26692Y-24905D01*
X26761Y-26249D02*
X26761Y-24973D01*
X26692Y-24630D02*
X26692Y-24905D01*
M02*
