G04 (created by PCBNEW (2013-mar-13)-testing) date Mon 26 Aug 2013 07:22:46 AM PDT*
%MOIN*%
G04 Gerber Fmt 3.4, Leading zero omitted, Abs format*
%FSLAX34Y34*%
G01*
G70*
G90*
G04 APERTURE LIST*
%ADD10C,0.005906*%
%ADD11R,0.060000X0.060000*%
%ADD12C,0.060000*%
%ADD13C,0.035000*%
%ADD14C,0.030000*%
%ADD15C,0.010000*%
G04 APERTURE END LIST*
G54D10*
G54D11*
X20559Y-33425D03*
G54D12*
X21559Y-33425D03*
X22559Y-33425D03*
X23559Y-33425D03*
X24559Y-33425D03*
X25559Y-33425D03*
X26559Y-33425D03*
X27559Y-33425D03*
X28559Y-33425D03*
X29559Y-33425D03*
X30559Y-33425D03*
X31559Y-33425D03*
X32559Y-33425D03*
X33559Y-33425D03*
X34559Y-33425D03*
G54D11*
X20559Y-22893D03*
G54D12*
X21559Y-22893D03*
X22559Y-22893D03*
X23559Y-22893D03*
X24559Y-22893D03*
X25559Y-22893D03*
X26559Y-22893D03*
X27559Y-22893D03*
X28559Y-22893D03*
X29559Y-22893D03*
X30559Y-22893D03*
X31559Y-22893D03*
X32559Y-22893D03*
X33559Y-22893D03*
X34559Y-22893D03*
G54D11*
X21834Y-28059D03*
G54D12*
X21834Y-27059D03*
X22834Y-28059D03*
X22834Y-27059D03*
X23834Y-28059D03*
X23834Y-27059D03*
G54D11*
X31283Y-28059D03*
G54D12*
X31283Y-27059D03*
X32283Y-28059D03*
X32283Y-27059D03*
X33283Y-28059D03*
X33283Y-27059D03*
G54D13*
X25720Y-30384D03*
X27757Y-30714D03*
X27412Y-25538D03*
G54D14*
X20559Y-23615D02*
X20559Y-22893D01*
X20130Y-24045D02*
X20559Y-23615D01*
X20130Y-32460D02*
X20130Y-24045D01*
X20559Y-32889D02*
X20130Y-32460D01*
X20559Y-33425D02*
X20559Y-32889D01*
G54D15*
X26559Y-32425D02*
X27559Y-33425D01*
X26559Y-22893D02*
X26559Y-32425D01*
X27737Y-23072D02*
X27559Y-22893D01*
X27737Y-25673D02*
X27737Y-23072D01*
X27431Y-25979D02*
X27737Y-25673D01*
X27431Y-32298D02*
X27431Y-25979D01*
X28559Y-33425D02*
X27431Y-32298D01*
X28559Y-32425D02*
X28559Y-22893D01*
X29559Y-33425D02*
X28559Y-32425D01*
X29559Y-32425D02*
X30559Y-33425D01*
X29559Y-22893D02*
X29559Y-32425D01*
X30559Y-32425D02*
X30559Y-22893D01*
X31559Y-33425D02*
X30559Y-32425D01*
X34559Y-22893D02*
X34559Y-33425D01*
X26045Y-23379D02*
X25559Y-22893D01*
X26045Y-32939D02*
X26045Y-23379D01*
X25559Y-33425D02*
X26045Y-32939D01*
X24559Y-33425D02*
X24559Y-22893D01*
X25059Y-29723D02*
X25720Y-30384D01*
X25059Y-22741D02*
X25059Y-29723D01*
X24749Y-22431D02*
X25059Y-22741D01*
X23372Y-22431D02*
X24749Y-22431D01*
X23009Y-22794D02*
X23372Y-22431D01*
X23009Y-26884D02*
X23009Y-22794D01*
X22834Y-27059D02*
X23009Y-26884D01*
X27757Y-31906D02*
X27757Y-30714D01*
X29059Y-33208D02*
X27757Y-31906D01*
X29059Y-33587D02*
X29059Y-33208D01*
X29367Y-33896D02*
X29059Y-33587D01*
X31732Y-33896D02*
X29367Y-33896D01*
X32030Y-33598D02*
X31732Y-33896D01*
X32030Y-28530D02*
X32030Y-33598D01*
X31828Y-28328D02*
X32030Y-28530D01*
X31828Y-27514D02*
X31828Y-28328D01*
X32283Y-27059D02*
X31828Y-27514D01*
X22379Y-23073D02*
X22559Y-22893D01*
X22379Y-33245D02*
X22379Y-23073D01*
X22559Y-33425D02*
X22379Y-33245D01*
X23233Y-22219D02*
X22559Y-22893D01*
X26528Y-22219D02*
X23233Y-22219D01*
X27059Y-22749D02*
X26528Y-22219D01*
X27059Y-25185D02*
X27059Y-22749D01*
X27412Y-25538D02*
X27059Y-25185D01*
X32755Y-33228D02*
X32559Y-33425D01*
X32755Y-23090D02*
X32755Y-33228D01*
X32559Y-22893D02*
X32755Y-23090D01*
X23362Y-23090D02*
X23559Y-22893D01*
X23362Y-33228D02*
X23362Y-23090D01*
X23559Y-33425D02*
X23362Y-33228D01*
X33739Y-33244D02*
X33559Y-33425D01*
X33739Y-23074D02*
X33739Y-33244D01*
X33559Y-22893D02*
X33739Y-23074D01*
G54D14*
X21559Y-33425D02*
X21559Y-33252D01*
X21559Y-23460D02*
X21559Y-22893D01*
X20620Y-24400D02*
X21559Y-23460D01*
X20620Y-32140D02*
X20620Y-24400D01*
X21559Y-33079D02*
X20620Y-32140D01*
X21559Y-33252D02*
X21559Y-33079D01*
G54D15*
X23030Y-28255D02*
X22834Y-28059D01*
X23030Y-33590D02*
X23030Y-28255D01*
X22732Y-33889D02*
X23030Y-33590D01*
X22196Y-33889D02*
X22732Y-33889D01*
X21559Y-33252D02*
X22196Y-33889D01*
M02*
