%TF.GenerationSoftware,KiCad,Pcbnew,5.1.6*%
%TF.CreationDate,2020-09-08T10:01:19-04:00*%
%TF.ProjectId,placeholder,706c6163-6568-46f6-9c64-65722e6b6963,rev?*%
%TF.SameCoordinates,Original*%
%TF.FileFunction,Copper,L1,Top*%
%TF.FilePolarity,Positive*%
%FSLAX46Y46*%
G04 Gerber Fmt 4.6, Leading zero omitted, Abs format (unit mm)*
G04 Created by KiCad (PCBNEW 5.1.6) date 2020-09-08 10:01:19*
%MOMM*%
%LPD*%
G01*
G04 APERTURE LIST*
%TA.AperFunction,ComponentPad*%
%ADD10C,1.524000*%
%TD*%
%TA.AperFunction,ComponentPad*%
%ADD11R,1.524000X1.524000*%
%TD*%
%TA.AperFunction,Conductor*%
%ADD12C,0.254000*%
%TD*%
%TA.AperFunction,Conductor*%
%ADD13C,0.635000*%
%TD*%
%TA.AperFunction,NonConductor*%
%ADD14C,0.100000*%
%TD*%
G04 APERTURE END LIST*
D10*
%TO.P,J2,15*%
%TO.N,/EXT_INTO*%
X87780000Y-58750000D03*
%TO.P,J2,14*%
%TO.N,N/C*%
X85240000Y-58750000D03*
%TO.P,J2,13*%
%TO.N,/CS7*%
X82700000Y-58750000D03*
%TO.P,J2,12*%
%TO.N,/CS6*%
X80160000Y-58750000D03*
%TO.P,J2,11*%
%TO.N,/CS5*%
X77620000Y-58750000D03*
%TO.P,J2,10*%
%TO.N,/CS4*%
X75080000Y-58750000D03*
%TO.P,J2,9*%
%TO.N,/CS3*%
X72540000Y-58750000D03*
%TO.P,J2,8*%
%TO.N,/CS2*%
X70000000Y-58750000D03*
%TO.P,J2,7*%
%TO.N,/CS1*%
X67460000Y-58750000D03*
%TO.P,J2,6*%
%TO.N,/CIPO*%
X64920000Y-58750000D03*
%TO.P,J2,5*%
%TO.N,/COPI*%
X62380000Y-58750000D03*
%TO.P,J2,4*%
%TO.N,/SCK*%
X59840000Y-58750000D03*
%TO.P,J2,3*%
%TO.N,/RESET*%
X57300000Y-58750000D03*
%TO.P,J2,2*%
%TO.N,GND*%
X54760000Y-58750000D03*
D11*
%TO.P,J2,1*%
%TO.N,+5V*%
X52220000Y-58750000D03*
%TD*%
D10*
%TO.P,J1,15*%
%TO.N,/EXT_INTO*%
X87780000Y-84700000D03*
%TO.P,J1,14*%
%TO.N,/CS7*%
X85240000Y-84700000D03*
%TO.P,J1,13*%
%TO.N,/CS6*%
X82700000Y-84700000D03*
%TO.P,J1,12*%
%TO.N,/CS5*%
X80160000Y-84700000D03*
%TO.P,J1,11*%
%TO.N,/CS4*%
X77620000Y-84700000D03*
%TO.P,J1,10*%
%TO.N,/CS3*%
X75080000Y-84700000D03*
%TO.P,J1,9*%
%TO.N,/CS2*%
X72540000Y-84700000D03*
%TO.P,J1,8*%
%TO.N,/CS1*%
X70000000Y-84700000D03*
%TO.P,J1,7*%
%TO.N,N/C*%
X67460000Y-84700000D03*
%TO.P,J1,6*%
%TO.N,/CIPO*%
X64920000Y-84700000D03*
%TO.P,J1,5*%
%TO.N,/COPI*%
X62380000Y-84700000D03*
%TO.P,J1,4*%
%TO.N,/SCK*%
X59840000Y-84700000D03*
%TO.P,J1,3*%
%TO.N,/RESET*%
X57300000Y-84700000D03*
%TO.P,J1,2*%
%TO.N,GND*%
X54760000Y-84700000D03*
D11*
%TO.P,J1,1*%
%TO.N,+5V*%
X52220000Y-84700000D03*
%TD*%
D12*
%TO.N,/EXT_INTO*%
X88639968Y-83840032D02*
X87780000Y-84700000D01*
X88639968Y-59609968D02*
X88639968Y-83840032D01*
X87780000Y-58750000D02*
X88639968Y-59609968D01*
%TO.N,/CS6*%
X87639238Y-60050000D02*
X81460000Y-60050000D01*
X88152010Y-60562772D02*
X87639238Y-60050000D01*
X88152010Y-82887228D02*
X88152010Y-60562772D01*
X87887228Y-83152010D02*
X88152010Y-82887228D01*
X84247990Y-83152010D02*
X87887228Y-83152010D01*
X81460000Y-60050000D02*
X80160000Y-58750000D01*
X82700000Y-84700000D02*
X84247990Y-83152010D01*
%TO.N,/CS4*%
X78710000Y-85790000D02*
X77620000Y-84700000D01*
X88540000Y-85790000D02*
X78710000Y-85790000D01*
X89093979Y-85236021D02*
X88540000Y-85790000D01*
X89093979Y-58186047D02*
X89093979Y-85236021D01*
X88111943Y-57204011D02*
X89093979Y-58186047D01*
X76625989Y-57204011D02*
X88111943Y-57204011D01*
X75080000Y-58750000D02*
X76625989Y-57204011D01*
%TO.N,/CS2*%
X89547990Y-85432010D02*
X88660000Y-86320000D01*
X74160000Y-86320000D02*
X73301999Y-85461999D01*
X73301999Y-85461999D02*
X72540000Y-84700000D01*
X88660000Y-86320000D02*
X74160000Y-86320000D01*
X89547990Y-57997990D02*
X89547990Y-85432010D01*
X72000000Y-56750000D02*
X88300001Y-56750001D01*
X70000000Y-58750000D02*
X72000000Y-56750000D01*
X88300001Y-56750001D02*
X89547990Y-57997990D01*
%TO.N,/COPI*%
X50452011Y-86450000D02*
X60630000Y-86450000D01*
X60630000Y-86450000D02*
X62380000Y-84700000D01*
X50452011Y-57027989D02*
X50452011Y-86450000D01*
X50480000Y-57000000D02*
X50452011Y-57027989D01*
X60630000Y-57000000D02*
X50480000Y-57000000D01*
X62380000Y-58750000D02*
X60630000Y-57000000D01*
%TO.N,/RESET*%
X56020000Y-85980000D02*
X57300000Y-84700000D01*
X50922068Y-85980000D02*
X56020000Y-85980000D01*
X50906022Y-85963954D02*
X50922068Y-85980000D01*
X50906022Y-57586022D02*
X50906022Y-85963954D01*
X50932044Y-57560000D02*
X50906022Y-57586022D01*
X56110000Y-57560000D02*
X50932044Y-57560000D01*
X57300000Y-58750000D02*
X56110000Y-57560000D01*
D13*
%TO.N,+5V*%
X51550532Y-84030532D02*
X52220000Y-84700000D01*
X51550532Y-59549468D02*
X51550532Y-84030532D01*
X52220000Y-58880000D02*
X51550532Y-59549468D01*
X52220000Y-58750000D02*
X52220000Y-58880000D01*
%TD*%
D14*
G36*
X52146479Y-82929760D02*
G01*
X52194253Y-82955296D01*
X52246091Y-82971020D01*
X52300000Y-82976330D01*
X52313502Y-82975000D01*
X83891842Y-82975000D01*
X83097552Y-83769290D01*
X82995190Y-83726890D01*
X82799673Y-83688000D01*
X82600327Y-83688000D01*
X82404810Y-83726890D01*
X82220638Y-83803177D01*
X82054887Y-83913928D01*
X81913928Y-84054887D01*
X81803177Y-84220638D01*
X81726890Y-84404810D01*
X81688000Y-84600327D01*
X81688000Y-84799673D01*
X81726890Y-84995190D01*
X81803177Y-85179362D01*
X81913928Y-85345113D01*
X81981815Y-85413000D01*
X80878185Y-85413000D01*
X80946072Y-85345113D01*
X81056823Y-85179362D01*
X81133110Y-84995190D01*
X81172000Y-84799673D01*
X81172000Y-84600327D01*
X81133110Y-84404810D01*
X81056823Y-84220638D01*
X80946072Y-84054887D01*
X80805113Y-83913928D01*
X80639362Y-83803177D01*
X80455190Y-83726890D01*
X80259673Y-83688000D01*
X80060327Y-83688000D01*
X79864810Y-83726890D01*
X79680638Y-83803177D01*
X79514887Y-83913928D01*
X79373928Y-84054887D01*
X79263177Y-84220638D01*
X79186890Y-84404810D01*
X79148000Y-84600327D01*
X79148000Y-84799673D01*
X79186890Y-84995190D01*
X79263177Y-85179362D01*
X79373928Y-85345113D01*
X79441815Y-85413000D01*
X78866159Y-85413000D01*
X78550710Y-85097552D01*
X78593110Y-84995190D01*
X78632000Y-84799673D01*
X78632000Y-84600327D01*
X78593110Y-84404810D01*
X78516823Y-84220638D01*
X78406072Y-84054887D01*
X78265113Y-83913928D01*
X78099362Y-83803177D01*
X77915190Y-83726890D01*
X77719673Y-83688000D01*
X77520327Y-83688000D01*
X77324810Y-83726890D01*
X77140638Y-83803177D01*
X76974887Y-83913928D01*
X76833928Y-84054887D01*
X76723177Y-84220638D01*
X76646890Y-84404810D01*
X76608000Y-84600327D01*
X76608000Y-84799673D01*
X76646890Y-84995190D01*
X76723177Y-85179362D01*
X76833928Y-85345113D01*
X76974887Y-85486072D01*
X77140638Y-85596823D01*
X77324810Y-85673110D01*
X77520327Y-85712000D01*
X77719673Y-85712000D01*
X77915190Y-85673110D01*
X78017552Y-85630710D01*
X78329841Y-85943000D01*
X74316159Y-85943000D01*
X73555483Y-85182325D01*
X73470710Y-85097552D01*
X73513110Y-84995190D01*
X73552000Y-84799673D01*
X73552000Y-84600327D01*
X74068000Y-84600327D01*
X74068000Y-84799673D01*
X74106890Y-84995190D01*
X74183177Y-85179362D01*
X74293928Y-85345113D01*
X74434887Y-85486072D01*
X74600638Y-85596823D01*
X74784810Y-85673110D01*
X74980327Y-85712000D01*
X75179673Y-85712000D01*
X75375190Y-85673110D01*
X75559362Y-85596823D01*
X75725113Y-85486072D01*
X75866072Y-85345113D01*
X75976823Y-85179362D01*
X76053110Y-84995190D01*
X76092000Y-84799673D01*
X76092000Y-84600327D01*
X76053110Y-84404810D01*
X75976823Y-84220638D01*
X75866072Y-84054887D01*
X75725113Y-83913928D01*
X75559362Y-83803177D01*
X75375190Y-83726890D01*
X75179673Y-83688000D01*
X74980327Y-83688000D01*
X74784810Y-83726890D01*
X74600638Y-83803177D01*
X74434887Y-83913928D01*
X74293928Y-84054887D01*
X74183177Y-84220638D01*
X74106890Y-84404810D01*
X74068000Y-84600327D01*
X73552000Y-84600327D01*
X73513110Y-84404810D01*
X73436823Y-84220638D01*
X73326072Y-84054887D01*
X73185113Y-83913928D01*
X73019362Y-83803177D01*
X72835190Y-83726890D01*
X72639673Y-83688000D01*
X72440327Y-83688000D01*
X72244810Y-83726890D01*
X72060638Y-83803177D01*
X71894887Y-83913928D01*
X71753928Y-84054887D01*
X71643177Y-84220638D01*
X71566890Y-84404810D01*
X71528000Y-84600327D01*
X71528000Y-84799673D01*
X71566890Y-84995190D01*
X71643177Y-85179362D01*
X71753928Y-85345113D01*
X71894887Y-85486072D01*
X72060638Y-85596823D01*
X72244810Y-85673110D01*
X72440327Y-85712000D01*
X72639673Y-85712000D01*
X72835190Y-85673110D01*
X72937552Y-85630710D01*
X73022325Y-85715483D01*
X73880328Y-86573487D01*
X73892131Y-86587869D01*
X73949537Y-86634981D01*
X73997210Y-86660463D01*
X74015030Y-86669988D01*
X74086094Y-86691545D01*
X74160000Y-86698824D01*
X74178519Y-86697000D01*
X88641488Y-86697000D01*
X88660000Y-86698823D01*
X88678512Y-86697000D01*
X88678519Y-86697000D01*
X88733905Y-86691545D01*
X88804970Y-86669988D01*
X88870463Y-86634981D01*
X88927869Y-86587869D01*
X88939677Y-86573481D01*
X89725001Y-85788157D01*
X89725001Y-89725000D01*
X50275000Y-89725000D01*
X50275000Y-86782862D01*
X50307041Y-86799988D01*
X50378106Y-86821545D01*
X50433492Y-86827000D01*
X50452011Y-86828824D01*
X50470530Y-86827000D01*
X60611488Y-86827000D01*
X60630000Y-86828823D01*
X60648512Y-86827000D01*
X60648519Y-86827000D01*
X60703905Y-86821545D01*
X60774970Y-86799988D01*
X60840463Y-86764981D01*
X60897869Y-86717869D01*
X60909677Y-86703481D01*
X61982448Y-85630710D01*
X62084810Y-85673110D01*
X62280327Y-85712000D01*
X62479673Y-85712000D01*
X62675190Y-85673110D01*
X62859362Y-85596823D01*
X63025113Y-85486072D01*
X63166072Y-85345113D01*
X63276823Y-85179362D01*
X63353110Y-84995190D01*
X63392000Y-84799673D01*
X63392000Y-84600327D01*
X63908000Y-84600327D01*
X63908000Y-84799673D01*
X63946890Y-84995190D01*
X64023177Y-85179362D01*
X64133928Y-85345113D01*
X64274887Y-85486072D01*
X64440638Y-85596823D01*
X64624810Y-85673110D01*
X64820327Y-85712000D01*
X65019673Y-85712000D01*
X65215190Y-85673110D01*
X65399362Y-85596823D01*
X65565113Y-85486072D01*
X65706072Y-85345113D01*
X65816823Y-85179362D01*
X65893110Y-84995190D01*
X65932000Y-84799673D01*
X65932000Y-84600327D01*
X66448000Y-84600327D01*
X66448000Y-84799673D01*
X66486890Y-84995190D01*
X66563177Y-85179362D01*
X66673928Y-85345113D01*
X66814887Y-85486072D01*
X66980638Y-85596823D01*
X67164810Y-85673110D01*
X67360327Y-85712000D01*
X67559673Y-85712000D01*
X67755190Y-85673110D01*
X67939362Y-85596823D01*
X68105113Y-85486072D01*
X68246072Y-85345113D01*
X68356823Y-85179362D01*
X68433110Y-84995190D01*
X68472000Y-84799673D01*
X68472000Y-84600327D01*
X68988000Y-84600327D01*
X68988000Y-84799673D01*
X69026890Y-84995190D01*
X69103177Y-85179362D01*
X69213928Y-85345113D01*
X69354887Y-85486072D01*
X69520638Y-85596823D01*
X69704810Y-85673110D01*
X69900327Y-85712000D01*
X70099673Y-85712000D01*
X70295190Y-85673110D01*
X70479362Y-85596823D01*
X70645113Y-85486072D01*
X70786072Y-85345113D01*
X70896823Y-85179362D01*
X70973110Y-84995190D01*
X71012000Y-84799673D01*
X71012000Y-84600327D01*
X70973110Y-84404810D01*
X70896823Y-84220638D01*
X70786072Y-84054887D01*
X70645113Y-83913928D01*
X70479362Y-83803177D01*
X70295190Y-83726890D01*
X70099673Y-83688000D01*
X69900327Y-83688000D01*
X69704810Y-83726890D01*
X69520638Y-83803177D01*
X69354887Y-83913928D01*
X69213928Y-84054887D01*
X69103177Y-84220638D01*
X69026890Y-84404810D01*
X68988000Y-84600327D01*
X68472000Y-84600327D01*
X68433110Y-84404810D01*
X68356823Y-84220638D01*
X68246072Y-84054887D01*
X68105113Y-83913928D01*
X67939362Y-83803177D01*
X67755190Y-83726890D01*
X67559673Y-83688000D01*
X67360327Y-83688000D01*
X67164810Y-83726890D01*
X66980638Y-83803177D01*
X66814887Y-83913928D01*
X66673928Y-84054887D01*
X66563177Y-84220638D01*
X66486890Y-84404810D01*
X66448000Y-84600327D01*
X65932000Y-84600327D01*
X65893110Y-84404810D01*
X65816823Y-84220638D01*
X65706072Y-84054887D01*
X65565113Y-83913928D01*
X65399362Y-83803177D01*
X65215190Y-83726890D01*
X65019673Y-83688000D01*
X64820327Y-83688000D01*
X64624810Y-83726890D01*
X64440638Y-83803177D01*
X64274887Y-83913928D01*
X64133928Y-84054887D01*
X64023177Y-84220638D01*
X63946890Y-84404810D01*
X63908000Y-84600327D01*
X63392000Y-84600327D01*
X63353110Y-84404810D01*
X63276823Y-84220638D01*
X63166072Y-84054887D01*
X63025113Y-83913928D01*
X62859362Y-83803177D01*
X62675190Y-83726890D01*
X62479673Y-83688000D01*
X62280327Y-83688000D01*
X62084810Y-83726890D01*
X61900638Y-83803177D01*
X61734887Y-83913928D01*
X61593928Y-84054887D01*
X61483177Y-84220638D01*
X61406890Y-84404810D01*
X61368000Y-84600327D01*
X61368000Y-84799673D01*
X61406890Y-84995190D01*
X61449290Y-85097552D01*
X60473842Y-86073000D01*
X56460158Y-86073000D01*
X56902448Y-85630710D01*
X57004810Y-85673110D01*
X57200327Y-85712000D01*
X57399673Y-85712000D01*
X57595190Y-85673110D01*
X57779362Y-85596823D01*
X57945113Y-85486072D01*
X58086072Y-85345113D01*
X58196823Y-85179362D01*
X58273110Y-84995190D01*
X58312000Y-84799673D01*
X58312000Y-84600327D01*
X58828000Y-84600327D01*
X58828000Y-84799673D01*
X58866890Y-84995190D01*
X58943177Y-85179362D01*
X59053928Y-85345113D01*
X59194887Y-85486072D01*
X59360638Y-85596823D01*
X59544810Y-85673110D01*
X59740327Y-85712000D01*
X59939673Y-85712000D01*
X60135190Y-85673110D01*
X60319362Y-85596823D01*
X60485113Y-85486072D01*
X60626072Y-85345113D01*
X60736823Y-85179362D01*
X60813110Y-84995190D01*
X60852000Y-84799673D01*
X60852000Y-84600327D01*
X60813110Y-84404810D01*
X60736823Y-84220638D01*
X60626072Y-84054887D01*
X60485113Y-83913928D01*
X60319362Y-83803177D01*
X60135190Y-83726890D01*
X59939673Y-83688000D01*
X59740327Y-83688000D01*
X59544810Y-83726890D01*
X59360638Y-83803177D01*
X59194887Y-83913928D01*
X59053928Y-84054887D01*
X58943177Y-84220638D01*
X58866890Y-84404810D01*
X58828000Y-84600327D01*
X58312000Y-84600327D01*
X58273110Y-84404810D01*
X58196823Y-84220638D01*
X58086072Y-84054887D01*
X57945113Y-83913928D01*
X57779362Y-83803177D01*
X57595190Y-83726890D01*
X57399673Y-83688000D01*
X57200327Y-83688000D01*
X57004810Y-83726890D01*
X56820638Y-83803177D01*
X56654887Y-83913928D01*
X56513928Y-84054887D01*
X56403177Y-84220638D01*
X56326890Y-84404810D01*
X56288000Y-84600327D01*
X56288000Y-84799673D01*
X56326890Y-84995190D01*
X56369290Y-85097552D01*
X55863842Y-85603000D01*
X55224449Y-85603000D01*
X55239362Y-85596823D01*
X55405113Y-85486072D01*
X55546072Y-85345113D01*
X55656823Y-85179362D01*
X55733110Y-84995190D01*
X55772000Y-84799673D01*
X55772000Y-84600327D01*
X55733110Y-84404810D01*
X55656823Y-84220638D01*
X55546072Y-84054887D01*
X55405113Y-83913928D01*
X55239362Y-83803177D01*
X55055190Y-83726890D01*
X54859673Y-83688000D01*
X54660327Y-83688000D01*
X54464810Y-83726890D01*
X54280638Y-83803177D01*
X54114887Y-83913928D01*
X53973928Y-84054887D01*
X53863177Y-84220638D01*
X53786890Y-84404810D01*
X53748000Y-84600327D01*
X53748000Y-84799673D01*
X53786890Y-84995190D01*
X53863177Y-85179362D01*
X53973928Y-85345113D01*
X54114887Y-85486072D01*
X54280638Y-85596823D01*
X54295551Y-85603000D01*
X53189695Y-85603000D01*
X53190873Y-85601564D01*
X53214087Y-85558134D01*
X53228382Y-85511008D01*
X53233209Y-85462000D01*
X53233209Y-83938000D01*
X53228382Y-83888992D01*
X53214087Y-83841866D01*
X53190873Y-83798436D01*
X53159632Y-83760368D01*
X53121564Y-83729127D01*
X53078134Y-83705913D01*
X53031008Y-83691618D01*
X52982000Y-83686791D01*
X52118032Y-83686791D01*
X52118032Y-82906414D01*
X52146479Y-82929760D01*
G37*
X52146479Y-82929760D02*
X52194253Y-82955296D01*
X52246091Y-82971020D01*
X52300000Y-82976330D01*
X52313502Y-82975000D01*
X83891842Y-82975000D01*
X83097552Y-83769290D01*
X82995190Y-83726890D01*
X82799673Y-83688000D01*
X82600327Y-83688000D01*
X82404810Y-83726890D01*
X82220638Y-83803177D01*
X82054887Y-83913928D01*
X81913928Y-84054887D01*
X81803177Y-84220638D01*
X81726890Y-84404810D01*
X81688000Y-84600327D01*
X81688000Y-84799673D01*
X81726890Y-84995190D01*
X81803177Y-85179362D01*
X81913928Y-85345113D01*
X81981815Y-85413000D01*
X80878185Y-85413000D01*
X80946072Y-85345113D01*
X81056823Y-85179362D01*
X81133110Y-84995190D01*
X81172000Y-84799673D01*
X81172000Y-84600327D01*
X81133110Y-84404810D01*
X81056823Y-84220638D01*
X80946072Y-84054887D01*
X80805113Y-83913928D01*
X80639362Y-83803177D01*
X80455190Y-83726890D01*
X80259673Y-83688000D01*
X80060327Y-83688000D01*
X79864810Y-83726890D01*
X79680638Y-83803177D01*
X79514887Y-83913928D01*
X79373928Y-84054887D01*
X79263177Y-84220638D01*
X79186890Y-84404810D01*
X79148000Y-84600327D01*
X79148000Y-84799673D01*
X79186890Y-84995190D01*
X79263177Y-85179362D01*
X79373928Y-85345113D01*
X79441815Y-85413000D01*
X78866159Y-85413000D01*
X78550710Y-85097552D01*
X78593110Y-84995190D01*
X78632000Y-84799673D01*
X78632000Y-84600327D01*
X78593110Y-84404810D01*
X78516823Y-84220638D01*
X78406072Y-84054887D01*
X78265113Y-83913928D01*
X78099362Y-83803177D01*
X77915190Y-83726890D01*
X77719673Y-83688000D01*
X77520327Y-83688000D01*
X77324810Y-83726890D01*
X77140638Y-83803177D01*
X76974887Y-83913928D01*
X76833928Y-84054887D01*
X76723177Y-84220638D01*
X76646890Y-84404810D01*
X76608000Y-84600327D01*
X76608000Y-84799673D01*
X76646890Y-84995190D01*
X76723177Y-85179362D01*
X76833928Y-85345113D01*
X76974887Y-85486072D01*
X77140638Y-85596823D01*
X77324810Y-85673110D01*
X77520327Y-85712000D01*
X77719673Y-85712000D01*
X77915190Y-85673110D01*
X78017552Y-85630710D01*
X78329841Y-85943000D01*
X74316159Y-85943000D01*
X73555483Y-85182325D01*
X73470710Y-85097552D01*
X73513110Y-84995190D01*
X73552000Y-84799673D01*
X73552000Y-84600327D01*
X74068000Y-84600327D01*
X74068000Y-84799673D01*
X74106890Y-84995190D01*
X74183177Y-85179362D01*
X74293928Y-85345113D01*
X74434887Y-85486072D01*
X74600638Y-85596823D01*
X74784810Y-85673110D01*
X74980327Y-85712000D01*
X75179673Y-85712000D01*
X75375190Y-85673110D01*
X75559362Y-85596823D01*
X75725113Y-85486072D01*
X75866072Y-85345113D01*
X75976823Y-85179362D01*
X76053110Y-84995190D01*
X76092000Y-84799673D01*
X76092000Y-84600327D01*
X76053110Y-84404810D01*
X75976823Y-84220638D01*
X75866072Y-84054887D01*
X75725113Y-83913928D01*
X75559362Y-83803177D01*
X75375190Y-83726890D01*
X75179673Y-83688000D01*
X74980327Y-83688000D01*
X74784810Y-83726890D01*
X74600638Y-83803177D01*
X74434887Y-83913928D01*
X74293928Y-84054887D01*
X74183177Y-84220638D01*
X74106890Y-84404810D01*
X74068000Y-84600327D01*
X73552000Y-84600327D01*
X73513110Y-84404810D01*
X73436823Y-84220638D01*
X73326072Y-84054887D01*
X73185113Y-83913928D01*
X73019362Y-83803177D01*
X72835190Y-83726890D01*
X72639673Y-83688000D01*
X72440327Y-83688000D01*
X72244810Y-83726890D01*
X72060638Y-83803177D01*
X71894887Y-83913928D01*
X71753928Y-84054887D01*
X71643177Y-84220638D01*
X71566890Y-84404810D01*
X71528000Y-84600327D01*
X71528000Y-84799673D01*
X71566890Y-84995190D01*
X71643177Y-85179362D01*
X71753928Y-85345113D01*
X71894887Y-85486072D01*
X72060638Y-85596823D01*
X72244810Y-85673110D01*
X72440327Y-85712000D01*
X72639673Y-85712000D01*
X72835190Y-85673110D01*
X72937552Y-85630710D01*
X73022325Y-85715483D01*
X73880328Y-86573487D01*
X73892131Y-86587869D01*
X73949537Y-86634981D01*
X73997210Y-86660463D01*
X74015030Y-86669988D01*
X74086094Y-86691545D01*
X74160000Y-86698824D01*
X74178519Y-86697000D01*
X88641488Y-86697000D01*
X88660000Y-86698823D01*
X88678512Y-86697000D01*
X88678519Y-86697000D01*
X88733905Y-86691545D01*
X88804970Y-86669988D01*
X88870463Y-86634981D01*
X88927869Y-86587869D01*
X88939677Y-86573481D01*
X89725001Y-85788157D01*
X89725001Y-89725000D01*
X50275000Y-89725000D01*
X50275000Y-86782862D01*
X50307041Y-86799988D01*
X50378106Y-86821545D01*
X50433492Y-86827000D01*
X50452011Y-86828824D01*
X50470530Y-86827000D01*
X60611488Y-86827000D01*
X60630000Y-86828823D01*
X60648512Y-86827000D01*
X60648519Y-86827000D01*
X60703905Y-86821545D01*
X60774970Y-86799988D01*
X60840463Y-86764981D01*
X60897869Y-86717869D01*
X60909677Y-86703481D01*
X61982448Y-85630710D01*
X62084810Y-85673110D01*
X62280327Y-85712000D01*
X62479673Y-85712000D01*
X62675190Y-85673110D01*
X62859362Y-85596823D01*
X63025113Y-85486072D01*
X63166072Y-85345113D01*
X63276823Y-85179362D01*
X63353110Y-84995190D01*
X63392000Y-84799673D01*
X63392000Y-84600327D01*
X63908000Y-84600327D01*
X63908000Y-84799673D01*
X63946890Y-84995190D01*
X64023177Y-85179362D01*
X64133928Y-85345113D01*
X64274887Y-85486072D01*
X64440638Y-85596823D01*
X64624810Y-85673110D01*
X64820327Y-85712000D01*
X65019673Y-85712000D01*
X65215190Y-85673110D01*
X65399362Y-85596823D01*
X65565113Y-85486072D01*
X65706072Y-85345113D01*
X65816823Y-85179362D01*
X65893110Y-84995190D01*
X65932000Y-84799673D01*
X65932000Y-84600327D01*
X66448000Y-84600327D01*
X66448000Y-84799673D01*
X66486890Y-84995190D01*
X66563177Y-85179362D01*
X66673928Y-85345113D01*
X66814887Y-85486072D01*
X66980638Y-85596823D01*
X67164810Y-85673110D01*
X67360327Y-85712000D01*
X67559673Y-85712000D01*
X67755190Y-85673110D01*
X67939362Y-85596823D01*
X68105113Y-85486072D01*
X68246072Y-85345113D01*
X68356823Y-85179362D01*
X68433110Y-84995190D01*
X68472000Y-84799673D01*
X68472000Y-84600327D01*
X68988000Y-84600327D01*
X68988000Y-84799673D01*
X69026890Y-84995190D01*
X69103177Y-85179362D01*
X69213928Y-85345113D01*
X69354887Y-85486072D01*
X69520638Y-85596823D01*
X69704810Y-85673110D01*
X69900327Y-85712000D01*
X70099673Y-85712000D01*
X70295190Y-85673110D01*
X70479362Y-85596823D01*
X70645113Y-85486072D01*
X70786072Y-85345113D01*
X70896823Y-85179362D01*
X70973110Y-84995190D01*
X71012000Y-84799673D01*
X71012000Y-84600327D01*
X70973110Y-84404810D01*
X70896823Y-84220638D01*
X70786072Y-84054887D01*
X70645113Y-83913928D01*
X70479362Y-83803177D01*
X70295190Y-83726890D01*
X70099673Y-83688000D01*
X69900327Y-83688000D01*
X69704810Y-83726890D01*
X69520638Y-83803177D01*
X69354887Y-83913928D01*
X69213928Y-84054887D01*
X69103177Y-84220638D01*
X69026890Y-84404810D01*
X68988000Y-84600327D01*
X68472000Y-84600327D01*
X68433110Y-84404810D01*
X68356823Y-84220638D01*
X68246072Y-84054887D01*
X68105113Y-83913928D01*
X67939362Y-83803177D01*
X67755190Y-83726890D01*
X67559673Y-83688000D01*
X67360327Y-83688000D01*
X67164810Y-83726890D01*
X66980638Y-83803177D01*
X66814887Y-83913928D01*
X66673928Y-84054887D01*
X66563177Y-84220638D01*
X66486890Y-84404810D01*
X66448000Y-84600327D01*
X65932000Y-84600327D01*
X65893110Y-84404810D01*
X65816823Y-84220638D01*
X65706072Y-84054887D01*
X65565113Y-83913928D01*
X65399362Y-83803177D01*
X65215190Y-83726890D01*
X65019673Y-83688000D01*
X64820327Y-83688000D01*
X64624810Y-83726890D01*
X64440638Y-83803177D01*
X64274887Y-83913928D01*
X64133928Y-84054887D01*
X64023177Y-84220638D01*
X63946890Y-84404810D01*
X63908000Y-84600327D01*
X63392000Y-84600327D01*
X63353110Y-84404810D01*
X63276823Y-84220638D01*
X63166072Y-84054887D01*
X63025113Y-83913928D01*
X62859362Y-83803177D01*
X62675190Y-83726890D01*
X62479673Y-83688000D01*
X62280327Y-83688000D01*
X62084810Y-83726890D01*
X61900638Y-83803177D01*
X61734887Y-83913928D01*
X61593928Y-84054887D01*
X61483177Y-84220638D01*
X61406890Y-84404810D01*
X61368000Y-84600327D01*
X61368000Y-84799673D01*
X61406890Y-84995190D01*
X61449290Y-85097552D01*
X60473842Y-86073000D01*
X56460158Y-86073000D01*
X56902448Y-85630710D01*
X57004810Y-85673110D01*
X57200327Y-85712000D01*
X57399673Y-85712000D01*
X57595190Y-85673110D01*
X57779362Y-85596823D01*
X57945113Y-85486072D01*
X58086072Y-85345113D01*
X58196823Y-85179362D01*
X58273110Y-84995190D01*
X58312000Y-84799673D01*
X58312000Y-84600327D01*
X58828000Y-84600327D01*
X58828000Y-84799673D01*
X58866890Y-84995190D01*
X58943177Y-85179362D01*
X59053928Y-85345113D01*
X59194887Y-85486072D01*
X59360638Y-85596823D01*
X59544810Y-85673110D01*
X59740327Y-85712000D01*
X59939673Y-85712000D01*
X60135190Y-85673110D01*
X60319362Y-85596823D01*
X60485113Y-85486072D01*
X60626072Y-85345113D01*
X60736823Y-85179362D01*
X60813110Y-84995190D01*
X60852000Y-84799673D01*
X60852000Y-84600327D01*
X60813110Y-84404810D01*
X60736823Y-84220638D01*
X60626072Y-84054887D01*
X60485113Y-83913928D01*
X60319362Y-83803177D01*
X60135190Y-83726890D01*
X59939673Y-83688000D01*
X59740327Y-83688000D01*
X59544810Y-83726890D01*
X59360638Y-83803177D01*
X59194887Y-83913928D01*
X59053928Y-84054887D01*
X58943177Y-84220638D01*
X58866890Y-84404810D01*
X58828000Y-84600327D01*
X58312000Y-84600327D01*
X58273110Y-84404810D01*
X58196823Y-84220638D01*
X58086072Y-84054887D01*
X57945113Y-83913928D01*
X57779362Y-83803177D01*
X57595190Y-83726890D01*
X57399673Y-83688000D01*
X57200327Y-83688000D01*
X57004810Y-83726890D01*
X56820638Y-83803177D01*
X56654887Y-83913928D01*
X56513928Y-84054887D01*
X56403177Y-84220638D01*
X56326890Y-84404810D01*
X56288000Y-84600327D01*
X56288000Y-84799673D01*
X56326890Y-84995190D01*
X56369290Y-85097552D01*
X55863842Y-85603000D01*
X55224449Y-85603000D01*
X55239362Y-85596823D01*
X55405113Y-85486072D01*
X55546072Y-85345113D01*
X55656823Y-85179362D01*
X55733110Y-84995190D01*
X55772000Y-84799673D01*
X55772000Y-84600327D01*
X55733110Y-84404810D01*
X55656823Y-84220638D01*
X55546072Y-84054887D01*
X55405113Y-83913928D01*
X55239362Y-83803177D01*
X55055190Y-83726890D01*
X54859673Y-83688000D01*
X54660327Y-83688000D01*
X54464810Y-83726890D01*
X54280638Y-83803177D01*
X54114887Y-83913928D01*
X53973928Y-84054887D01*
X53863177Y-84220638D01*
X53786890Y-84404810D01*
X53748000Y-84600327D01*
X53748000Y-84799673D01*
X53786890Y-84995190D01*
X53863177Y-85179362D01*
X53973928Y-85345113D01*
X54114887Y-85486072D01*
X54280638Y-85596823D01*
X54295551Y-85603000D01*
X53189695Y-85603000D01*
X53190873Y-85601564D01*
X53214087Y-85558134D01*
X53228382Y-85511008D01*
X53233209Y-85462000D01*
X53233209Y-83938000D01*
X53228382Y-83888992D01*
X53214087Y-83841866D01*
X53190873Y-83798436D01*
X53159632Y-83760368D01*
X53121564Y-83729127D01*
X53078134Y-83705913D01*
X53031008Y-83691618D01*
X52982000Y-83686791D01*
X52118032Y-83686791D01*
X52118032Y-82906414D01*
X52146479Y-82929760D01*
G36*
X88262969Y-83683873D02*
G01*
X88177552Y-83769290D01*
X88075190Y-83726890D01*
X87879673Y-83688000D01*
X87680327Y-83688000D01*
X87484810Y-83726890D01*
X87300638Y-83803177D01*
X87134887Y-83913928D01*
X86993928Y-84054887D01*
X86883177Y-84220638D01*
X86806890Y-84404810D01*
X86768000Y-84600327D01*
X86768000Y-84799673D01*
X86806890Y-84995190D01*
X86883177Y-85179362D01*
X86993928Y-85345113D01*
X87061815Y-85413000D01*
X85958185Y-85413000D01*
X86026072Y-85345113D01*
X86136823Y-85179362D01*
X86213110Y-84995190D01*
X86252000Y-84799673D01*
X86252000Y-84600327D01*
X86213110Y-84404810D01*
X86136823Y-84220638D01*
X86026072Y-84054887D01*
X85885113Y-83913928D01*
X85719362Y-83803177D01*
X85535190Y-83726890D01*
X85339673Y-83688000D01*
X85140327Y-83688000D01*
X84944810Y-83726890D01*
X84760638Y-83803177D01*
X84594887Y-83913928D01*
X84453928Y-84054887D01*
X84343177Y-84220638D01*
X84266890Y-84404810D01*
X84228000Y-84600327D01*
X84228000Y-84799673D01*
X84266890Y-84995190D01*
X84343177Y-85179362D01*
X84453928Y-85345113D01*
X84521815Y-85413000D01*
X83418185Y-85413000D01*
X83486072Y-85345113D01*
X83596823Y-85179362D01*
X83673110Y-84995190D01*
X83712000Y-84799673D01*
X83712000Y-84600327D01*
X83673110Y-84404810D01*
X83630710Y-84302448D01*
X84404148Y-83529010D01*
X87868716Y-83529010D01*
X87887228Y-83530833D01*
X87905740Y-83529010D01*
X87905747Y-83529010D01*
X87961133Y-83523555D01*
X88032198Y-83501998D01*
X88097691Y-83466991D01*
X88155097Y-83419879D01*
X88166905Y-83405491D01*
X88262969Y-83309427D01*
X88262969Y-83683873D01*
G37*
X88262969Y-83683873D02*
X88177552Y-83769290D01*
X88075190Y-83726890D01*
X87879673Y-83688000D01*
X87680327Y-83688000D01*
X87484810Y-83726890D01*
X87300638Y-83803177D01*
X87134887Y-83913928D01*
X86993928Y-84054887D01*
X86883177Y-84220638D01*
X86806890Y-84404810D01*
X86768000Y-84600327D01*
X86768000Y-84799673D01*
X86806890Y-84995190D01*
X86883177Y-85179362D01*
X86993928Y-85345113D01*
X87061815Y-85413000D01*
X85958185Y-85413000D01*
X86026072Y-85345113D01*
X86136823Y-85179362D01*
X86213110Y-84995190D01*
X86252000Y-84799673D01*
X86252000Y-84600327D01*
X86213110Y-84404810D01*
X86136823Y-84220638D01*
X86026072Y-84054887D01*
X85885113Y-83913928D01*
X85719362Y-83803177D01*
X85535190Y-83726890D01*
X85339673Y-83688000D01*
X85140327Y-83688000D01*
X84944810Y-83726890D01*
X84760638Y-83803177D01*
X84594887Y-83913928D01*
X84453928Y-84054887D01*
X84343177Y-84220638D01*
X84266890Y-84404810D01*
X84228000Y-84600327D01*
X84228000Y-84799673D01*
X84266890Y-84995190D01*
X84343177Y-85179362D01*
X84453928Y-85345113D01*
X84521815Y-85413000D01*
X83418185Y-85413000D01*
X83486072Y-85345113D01*
X83596823Y-85179362D01*
X83673110Y-84995190D01*
X83712000Y-84799673D01*
X83712000Y-84600327D01*
X83673110Y-84404810D01*
X83630710Y-84302448D01*
X84404148Y-83529010D01*
X87868716Y-83529010D01*
X87887228Y-83530833D01*
X87905740Y-83529010D01*
X87905747Y-83529010D01*
X87961133Y-83523555D01*
X88032198Y-83501998D01*
X88097691Y-83466991D01*
X88155097Y-83419879D01*
X88166905Y-83405491D01*
X88262969Y-83309427D01*
X88262969Y-83683873D01*
G36*
X88716980Y-84317585D02*
G01*
X88710710Y-84302448D01*
X88716980Y-84296178D01*
X88716980Y-84317585D01*
G37*
X88716980Y-84317585D02*
X88710710Y-84302448D01*
X88716980Y-84296178D01*
X88716980Y-84317585D01*
G36*
X89725000Y-57641841D02*
G01*
X88579673Y-56496515D01*
X88567870Y-56482133D01*
X88553488Y-56470330D01*
X88553485Y-56470327D01*
X88510464Y-56435021D01*
X88444970Y-56400013D01*
X88373906Y-56378456D01*
X88300001Y-56371178D01*
X88281479Y-56373002D01*
X72018509Y-56373000D01*
X71999999Y-56371177D01*
X71981490Y-56373000D01*
X71981482Y-56373000D01*
X71926096Y-56378455D01*
X71885973Y-56390626D01*
X71855030Y-56400012D01*
X71789536Y-56435020D01*
X71746515Y-56470326D01*
X71746509Y-56470332D01*
X71732132Y-56482131D01*
X71720333Y-56496508D01*
X70397552Y-57819290D01*
X70295190Y-57776890D01*
X70099673Y-57738000D01*
X69900327Y-57738000D01*
X69704810Y-57776890D01*
X69520638Y-57853177D01*
X69354887Y-57963928D01*
X69213928Y-58104887D01*
X69103177Y-58270638D01*
X69026890Y-58454810D01*
X68988000Y-58650327D01*
X68988000Y-58849673D01*
X69026890Y-59045190D01*
X69103177Y-59229362D01*
X69213928Y-59395113D01*
X69354887Y-59536072D01*
X69520638Y-59646823D01*
X69704810Y-59723110D01*
X69900327Y-59762000D01*
X70099673Y-59762000D01*
X70295190Y-59723110D01*
X70479362Y-59646823D01*
X70645113Y-59536072D01*
X70786072Y-59395113D01*
X70896823Y-59229362D01*
X70973110Y-59045190D01*
X71012000Y-58849673D01*
X71012000Y-58650327D01*
X71528000Y-58650327D01*
X71528000Y-58849673D01*
X71566890Y-59045190D01*
X71643177Y-59229362D01*
X71753928Y-59395113D01*
X71894887Y-59536072D01*
X72060638Y-59646823D01*
X72244810Y-59723110D01*
X72440327Y-59762000D01*
X72639673Y-59762000D01*
X72835190Y-59723110D01*
X73019362Y-59646823D01*
X73185113Y-59536072D01*
X73326072Y-59395113D01*
X73436823Y-59229362D01*
X73513110Y-59045190D01*
X73552000Y-58849673D01*
X73552000Y-58650327D01*
X73513110Y-58454810D01*
X73436823Y-58270638D01*
X73326072Y-58104887D01*
X73185113Y-57963928D01*
X73019362Y-57853177D01*
X72835190Y-57776890D01*
X72639673Y-57738000D01*
X72440327Y-57738000D01*
X72244810Y-57776890D01*
X72060638Y-57853177D01*
X71894887Y-57963928D01*
X71753928Y-58104887D01*
X71643177Y-58270638D01*
X71566890Y-58454810D01*
X71528000Y-58650327D01*
X71012000Y-58650327D01*
X70973110Y-58454810D01*
X70930710Y-58352448D01*
X72156160Y-57126999D01*
X76169842Y-57127000D01*
X75477552Y-57819290D01*
X75375190Y-57776890D01*
X75179673Y-57738000D01*
X74980327Y-57738000D01*
X74784810Y-57776890D01*
X74600638Y-57853177D01*
X74434887Y-57963928D01*
X74293928Y-58104887D01*
X74183177Y-58270638D01*
X74106890Y-58454810D01*
X74068000Y-58650327D01*
X74068000Y-58849673D01*
X74106890Y-59045190D01*
X74183177Y-59229362D01*
X74293928Y-59395113D01*
X74434887Y-59536072D01*
X74600638Y-59646823D01*
X74784810Y-59723110D01*
X74980327Y-59762000D01*
X75179673Y-59762000D01*
X75375190Y-59723110D01*
X75559362Y-59646823D01*
X75725113Y-59536072D01*
X75866072Y-59395113D01*
X75976823Y-59229362D01*
X76053110Y-59045190D01*
X76092000Y-58849673D01*
X76092000Y-58650327D01*
X76608000Y-58650327D01*
X76608000Y-58849673D01*
X76646890Y-59045190D01*
X76723177Y-59229362D01*
X76833928Y-59395113D01*
X76974887Y-59536072D01*
X77140638Y-59646823D01*
X77324810Y-59723110D01*
X77520327Y-59762000D01*
X77719673Y-59762000D01*
X77915190Y-59723110D01*
X78099362Y-59646823D01*
X78265113Y-59536072D01*
X78406072Y-59395113D01*
X78516823Y-59229362D01*
X78593110Y-59045190D01*
X78632000Y-58849673D01*
X78632000Y-58650327D01*
X78593110Y-58454810D01*
X78516823Y-58270638D01*
X78406072Y-58104887D01*
X78265113Y-57963928D01*
X78099362Y-57853177D01*
X77915190Y-57776890D01*
X77719673Y-57738000D01*
X77520327Y-57738000D01*
X77324810Y-57776890D01*
X77140638Y-57853177D01*
X76974887Y-57963928D01*
X76833928Y-58104887D01*
X76723177Y-58270638D01*
X76646890Y-58454810D01*
X76608000Y-58650327D01*
X76092000Y-58650327D01*
X76053110Y-58454810D01*
X76010710Y-58352448D01*
X76782148Y-57581011D01*
X87955785Y-57581011D01*
X88205739Y-57830966D01*
X88075190Y-57776890D01*
X87879673Y-57738000D01*
X87680327Y-57738000D01*
X87484810Y-57776890D01*
X87300638Y-57853177D01*
X87134887Y-57963928D01*
X86993928Y-58104887D01*
X86883177Y-58270638D01*
X86806890Y-58454810D01*
X86768000Y-58650327D01*
X86768000Y-58849673D01*
X86806890Y-59045190D01*
X86883177Y-59229362D01*
X86993928Y-59395113D01*
X87134887Y-59536072D01*
X87300638Y-59646823D01*
X87363834Y-59673000D01*
X85656166Y-59673000D01*
X85719362Y-59646823D01*
X85885113Y-59536072D01*
X86026072Y-59395113D01*
X86136823Y-59229362D01*
X86213110Y-59045190D01*
X86252000Y-58849673D01*
X86252000Y-58650327D01*
X86213110Y-58454810D01*
X86136823Y-58270638D01*
X86026072Y-58104887D01*
X85885113Y-57963928D01*
X85719362Y-57853177D01*
X85535190Y-57776890D01*
X85339673Y-57738000D01*
X85140327Y-57738000D01*
X84944810Y-57776890D01*
X84760638Y-57853177D01*
X84594887Y-57963928D01*
X84453928Y-58104887D01*
X84343177Y-58270638D01*
X84266890Y-58454810D01*
X84228000Y-58650327D01*
X84228000Y-58849673D01*
X84266890Y-59045190D01*
X84343177Y-59229362D01*
X84453928Y-59395113D01*
X84594887Y-59536072D01*
X84760638Y-59646823D01*
X84823834Y-59673000D01*
X83116166Y-59673000D01*
X83179362Y-59646823D01*
X83345113Y-59536072D01*
X83486072Y-59395113D01*
X83596823Y-59229362D01*
X83673110Y-59045190D01*
X83712000Y-58849673D01*
X83712000Y-58650327D01*
X83673110Y-58454810D01*
X83596823Y-58270638D01*
X83486072Y-58104887D01*
X83345113Y-57963928D01*
X83179362Y-57853177D01*
X82995190Y-57776890D01*
X82799673Y-57738000D01*
X82600327Y-57738000D01*
X82404810Y-57776890D01*
X82220638Y-57853177D01*
X82054887Y-57963928D01*
X81913928Y-58104887D01*
X81803177Y-58270638D01*
X81726890Y-58454810D01*
X81688000Y-58650327D01*
X81688000Y-58849673D01*
X81726890Y-59045190D01*
X81803177Y-59229362D01*
X81913928Y-59395113D01*
X82054887Y-59536072D01*
X82220638Y-59646823D01*
X82283834Y-59673000D01*
X81616159Y-59673000D01*
X81090710Y-59147552D01*
X81133110Y-59045190D01*
X81172000Y-58849673D01*
X81172000Y-58650327D01*
X81133110Y-58454810D01*
X81056823Y-58270638D01*
X80946072Y-58104887D01*
X80805113Y-57963928D01*
X80639362Y-57853177D01*
X80455190Y-57776890D01*
X80259673Y-57738000D01*
X80060327Y-57738000D01*
X79864810Y-57776890D01*
X79680638Y-57853177D01*
X79514887Y-57963928D01*
X79373928Y-58104887D01*
X79263177Y-58270638D01*
X79186890Y-58454810D01*
X79148000Y-58650327D01*
X79148000Y-58849673D01*
X79186890Y-59045190D01*
X79263177Y-59229362D01*
X79373928Y-59395113D01*
X79514887Y-59536072D01*
X79680638Y-59646823D01*
X79864810Y-59723110D01*
X80060327Y-59762000D01*
X80259673Y-59762000D01*
X80455190Y-59723110D01*
X80557552Y-59680710D01*
X81180328Y-60303487D01*
X81192131Y-60317869D01*
X81249537Y-60364981D01*
X81315030Y-60399988D01*
X81386094Y-60421545D01*
X81460000Y-60428824D01*
X81478519Y-60427000D01*
X87483080Y-60427000D01*
X87531080Y-60475000D01*
X52313503Y-60475000D01*
X52300000Y-60473670D01*
X52286498Y-60475000D01*
X52286497Y-60475000D01*
X52246091Y-60478980D01*
X52194253Y-60494704D01*
X52146479Y-60520240D01*
X52118032Y-60543586D01*
X52118032Y-59784534D01*
X52139357Y-59763209D01*
X52982000Y-59763209D01*
X53031008Y-59758382D01*
X53078134Y-59744087D01*
X53121564Y-59720873D01*
X53159632Y-59689632D01*
X53190873Y-59651564D01*
X53214087Y-59608134D01*
X53228382Y-59561008D01*
X53233209Y-59512000D01*
X53233209Y-57988000D01*
X53228382Y-57938992D01*
X53227778Y-57937000D01*
X54155188Y-57937000D01*
X54114887Y-57963928D01*
X53973928Y-58104887D01*
X53863177Y-58270638D01*
X53786890Y-58454810D01*
X53748000Y-58650327D01*
X53748000Y-58849673D01*
X53786890Y-59045190D01*
X53863177Y-59229362D01*
X53973928Y-59395113D01*
X54114887Y-59536072D01*
X54280638Y-59646823D01*
X54464810Y-59723110D01*
X54660327Y-59762000D01*
X54859673Y-59762000D01*
X55055190Y-59723110D01*
X55239362Y-59646823D01*
X55405113Y-59536072D01*
X55546072Y-59395113D01*
X55656823Y-59229362D01*
X55733110Y-59045190D01*
X55772000Y-58849673D01*
X55772000Y-58650327D01*
X55733110Y-58454810D01*
X55656823Y-58270638D01*
X55546072Y-58104887D01*
X55405113Y-57963928D01*
X55364812Y-57937000D01*
X55953842Y-57937000D01*
X56369290Y-58352448D01*
X56326890Y-58454810D01*
X56288000Y-58650327D01*
X56288000Y-58849673D01*
X56326890Y-59045190D01*
X56403177Y-59229362D01*
X56513928Y-59395113D01*
X56654887Y-59536072D01*
X56820638Y-59646823D01*
X57004810Y-59723110D01*
X57200327Y-59762000D01*
X57399673Y-59762000D01*
X57595190Y-59723110D01*
X57779362Y-59646823D01*
X57945113Y-59536072D01*
X58086072Y-59395113D01*
X58196823Y-59229362D01*
X58273110Y-59045190D01*
X58312000Y-58849673D01*
X58312000Y-58650327D01*
X58828000Y-58650327D01*
X58828000Y-58849673D01*
X58866890Y-59045190D01*
X58943177Y-59229362D01*
X59053928Y-59395113D01*
X59194887Y-59536072D01*
X59360638Y-59646823D01*
X59544810Y-59723110D01*
X59740327Y-59762000D01*
X59939673Y-59762000D01*
X60135190Y-59723110D01*
X60319362Y-59646823D01*
X60485113Y-59536072D01*
X60626072Y-59395113D01*
X60736823Y-59229362D01*
X60813110Y-59045190D01*
X60852000Y-58849673D01*
X60852000Y-58650327D01*
X60813110Y-58454810D01*
X60736823Y-58270638D01*
X60626072Y-58104887D01*
X60485113Y-57963928D01*
X60319362Y-57853177D01*
X60135190Y-57776890D01*
X59939673Y-57738000D01*
X59740327Y-57738000D01*
X59544810Y-57776890D01*
X59360638Y-57853177D01*
X59194887Y-57963928D01*
X59053928Y-58104887D01*
X58943177Y-58270638D01*
X58866890Y-58454810D01*
X58828000Y-58650327D01*
X58312000Y-58650327D01*
X58273110Y-58454810D01*
X58196823Y-58270638D01*
X58086072Y-58104887D01*
X57945113Y-57963928D01*
X57779362Y-57853177D01*
X57595190Y-57776890D01*
X57399673Y-57738000D01*
X57200327Y-57738000D01*
X57004810Y-57776890D01*
X56902448Y-57819290D01*
X56460158Y-57377000D01*
X60473842Y-57377000D01*
X61449290Y-58352448D01*
X61406890Y-58454810D01*
X61368000Y-58650327D01*
X61368000Y-58849673D01*
X61406890Y-59045190D01*
X61483177Y-59229362D01*
X61593928Y-59395113D01*
X61734887Y-59536072D01*
X61900638Y-59646823D01*
X62084810Y-59723110D01*
X62280327Y-59762000D01*
X62479673Y-59762000D01*
X62675190Y-59723110D01*
X62859362Y-59646823D01*
X63025113Y-59536072D01*
X63166072Y-59395113D01*
X63276823Y-59229362D01*
X63353110Y-59045190D01*
X63392000Y-58849673D01*
X63392000Y-58650327D01*
X63908000Y-58650327D01*
X63908000Y-58849673D01*
X63946890Y-59045190D01*
X64023177Y-59229362D01*
X64133928Y-59395113D01*
X64274887Y-59536072D01*
X64440638Y-59646823D01*
X64624810Y-59723110D01*
X64820327Y-59762000D01*
X65019673Y-59762000D01*
X65215190Y-59723110D01*
X65399362Y-59646823D01*
X65565113Y-59536072D01*
X65706072Y-59395113D01*
X65816823Y-59229362D01*
X65893110Y-59045190D01*
X65932000Y-58849673D01*
X65932000Y-58650327D01*
X66448000Y-58650327D01*
X66448000Y-58849673D01*
X66486890Y-59045190D01*
X66563177Y-59229362D01*
X66673928Y-59395113D01*
X66814887Y-59536072D01*
X66980638Y-59646823D01*
X67164810Y-59723110D01*
X67360327Y-59762000D01*
X67559673Y-59762000D01*
X67755190Y-59723110D01*
X67939362Y-59646823D01*
X68105113Y-59536072D01*
X68246072Y-59395113D01*
X68356823Y-59229362D01*
X68433110Y-59045190D01*
X68472000Y-58849673D01*
X68472000Y-58650327D01*
X68433110Y-58454810D01*
X68356823Y-58270638D01*
X68246072Y-58104887D01*
X68105113Y-57963928D01*
X67939362Y-57853177D01*
X67755190Y-57776890D01*
X67559673Y-57738000D01*
X67360327Y-57738000D01*
X67164810Y-57776890D01*
X66980638Y-57853177D01*
X66814887Y-57963928D01*
X66673928Y-58104887D01*
X66563177Y-58270638D01*
X66486890Y-58454810D01*
X66448000Y-58650327D01*
X65932000Y-58650327D01*
X65893110Y-58454810D01*
X65816823Y-58270638D01*
X65706072Y-58104887D01*
X65565113Y-57963928D01*
X65399362Y-57853177D01*
X65215190Y-57776890D01*
X65019673Y-57738000D01*
X64820327Y-57738000D01*
X64624810Y-57776890D01*
X64440638Y-57853177D01*
X64274887Y-57963928D01*
X64133928Y-58104887D01*
X64023177Y-58270638D01*
X63946890Y-58454810D01*
X63908000Y-58650327D01*
X63392000Y-58650327D01*
X63353110Y-58454810D01*
X63276823Y-58270638D01*
X63166072Y-58104887D01*
X63025113Y-57963928D01*
X62859362Y-57853177D01*
X62675190Y-57776890D01*
X62479673Y-57738000D01*
X62280327Y-57738000D01*
X62084810Y-57776890D01*
X61982448Y-57819290D01*
X60909677Y-56746519D01*
X60897869Y-56732131D01*
X60840463Y-56685019D01*
X60774970Y-56650012D01*
X60703905Y-56628455D01*
X60648519Y-56623000D01*
X60648512Y-56623000D01*
X60630000Y-56621177D01*
X60611488Y-56623000D01*
X50498508Y-56623000D01*
X50479999Y-56621177D01*
X50461490Y-56623000D01*
X50461481Y-56623000D01*
X50406095Y-56628455D01*
X50335030Y-56650012D01*
X50275000Y-56682099D01*
X50275000Y-50275000D01*
X89725000Y-50275000D01*
X89725000Y-57641841D01*
G37*
X89725000Y-57641841D02*
X88579673Y-56496515D01*
X88567870Y-56482133D01*
X88553488Y-56470330D01*
X88553485Y-56470327D01*
X88510464Y-56435021D01*
X88444970Y-56400013D01*
X88373906Y-56378456D01*
X88300001Y-56371178D01*
X88281479Y-56373002D01*
X72018509Y-56373000D01*
X71999999Y-56371177D01*
X71981490Y-56373000D01*
X71981482Y-56373000D01*
X71926096Y-56378455D01*
X71885973Y-56390626D01*
X71855030Y-56400012D01*
X71789536Y-56435020D01*
X71746515Y-56470326D01*
X71746509Y-56470332D01*
X71732132Y-56482131D01*
X71720333Y-56496508D01*
X70397552Y-57819290D01*
X70295190Y-57776890D01*
X70099673Y-57738000D01*
X69900327Y-57738000D01*
X69704810Y-57776890D01*
X69520638Y-57853177D01*
X69354887Y-57963928D01*
X69213928Y-58104887D01*
X69103177Y-58270638D01*
X69026890Y-58454810D01*
X68988000Y-58650327D01*
X68988000Y-58849673D01*
X69026890Y-59045190D01*
X69103177Y-59229362D01*
X69213928Y-59395113D01*
X69354887Y-59536072D01*
X69520638Y-59646823D01*
X69704810Y-59723110D01*
X69900327Y-59762000D01*
X70099673Y-59762000D01*
X70295190Y-59723110D01*
X70479362Y-59646823D01*
X70645113Y-59536072D01*
X70786072Y-59395113D01*
X70896823Y-59229362D01*
X70973110Y-59045190D01*
X71012000Y-58849673D01*
X71012000Y-58650327D01*
X71528000Y-58650327D01*
X71528000Y-58849673D01*
X71566890Y-59045190D01*
X71643177Y-59229362D01*
X71753928Y-59395113D01*
X71894887Y-59536072D01*
X72060638Y-59646823D01*
X72244810Y-59723110D01*
X72440327Y-59762000D01*
X72639673Y-59762000D01*
X72835190Y-59723110D01*
X73019362Y-59646823D01*
X73185113Y-59536072D01*
X73326072Y-59395113D01*
X73436823Y-59229362D01*
X73513110Y-59045190D01*
X73552000Y-58849673D01*
X73552000Y-58650327D01*
X73513110Y-58454810D01*
X73436823Y-58270638D01*
X73326072Y-58104887D01*
X73185113Y-57963928D01*
X73019362Y-57853177D01*
X72835190Y-57776890D01*
X72639673Y-57738000D01*
X72440327Y-57738000D01*
X72244810Y-57776890D01*
X72060638Y-57853177D01*
X71894887Y-57963928D01*
X71753928Y-58104887D01*
X71643177Y-58270638D01*
X71566890Y-58454810D01*
X71528000Y-58650327D01*
X71012000Y-58650327D01*
X70973110Y-58454810D01*
X70930710Y-58352448D01*
X72156160Y-57126999D01*
X76169842Y-57127000D01*
X75477552Y-57819290D01*
X75375190Y-57776890D01*
X75179673Y-57738000D01*
X74980327Y-57738000D01*
X74784810Y-57776890D01*
X74600638Y-57853177D01*
X74434887Y-57963928D01*
X74293928Y-58104887D01*
X74183177Y-58270638D01*
X74106890Y-58454810D01*
X74068000Y-58650327D01*
X74068000Y-58849673D01*
X74106890Y-59045190D01*
X74183177Y-59229362D01*
X74293928Y-59395113D01*
X74434887Y-59536072D01*
X74600638Y-59646823D01*
X74784810Y-59723110D01*
X74980327Y-59762000D01*
X75179673Y-59762000D01*
X75375190Y-59723110D01*
X75559362Y-59646823D01*
X75725113Y-59536072D01*
X75866072Y-59395113D01*
X75976823Y-59229362D01*
X76053110Y-59045190D01*
X76092000Y-58849673D01*
X76092000Y-58650327D01*
X76608000Y-58650327D01*
X76608000Y-58849673D01*
X76646890Y-59045190D01*
X76723177Y-59229362D01*
X76833928Y-59395113D01*
X76974887Y-59536072D01*
X77140638Y-59646823D01*
X77324810Y-59723110D01*
X77520327Y-59762000D01*
X77719673Y-59762000D01*
X77915190Y-59723110D01*
X78099362Y-59646823D01*
X78265113Y-59536072D01*
X78406072Y-59395113D01*
X78516823Y-59229362D01*
X78593110Y-59045190D01*
X78632000Y-58849673D01*
X78632000Y-58650327D01*
X78593110Y-58454810D01*
X78516823Y-58270638D01*
X78406072Y-58104887D01*
X78265113Y-57963928D01*
X78099362Y-57853177D01*
X77915190Y-57776890D01*
X77719673Y-57738000D01*
X77520327Y-57738000D01*
X77324810Y-57776890D01*
X77140638Y-57853177D01*
X76974887Y-57963928D01*
X76833928Y-58104887D01*
X76723177Y-58270638D01*
X76646890Y-58454810D01*
X76608000Y-58650327D01*
X76092000Y-58650327D01*
X76053110Y-58454810D01*
X76010710Y-58352448D01*
X76782148Y-57581011D01*
X87955785Y-57581011D01*
X88205739Y-57830966D01*
X88075190Y-57776890D01*
X87879673Y-57738000D01*
X87680327Y-57738000D01*
X87484810Y-57776890D01*
X87300638Y-57853177D01*
X87134887Y-57963928D01*
X86993928Y-58104887D01*
X86883177Y-58270638D01*
X86806890Y-58454810D01*
X86768000Y-58650327D01*
X86768000Y-58849673D01*
X86806890Y-59045190D01*
X86883177Y-59229362D01*
X86993928Y-59395113D01*
X87134887Y-59536072D01*
X87300638Y-59646823D01*
X87363834Y-59673000D01*
X85656166Y-59673000D01*
X85719362Y-59646823D01*
X85885113Y-59536072D01*
X86026072Y-59395113D01*
X86136823Y-59229362D01*
X86213110Y-59045190D01*
X86252000Y-58849673D01*
X86252000Y-58650327D01*
X86213110Y-58454810D01*
X86136823Y-58270638D01*
X86026072Y-58104887D01*
X85885113Y-57963928D01*
X85719362Y-57853177D01*
X85535190Y-57776890D01*
X85339673Y-57738000D01*
X85140327Y-57738000D01*
X84944810Y-57776890D01*
X84760638Y-57853177D01*
X84594887Y-57963928D01*
X84453928Y-58104887D01*
X84343177Y-58270638D01*
X84266890Y-58454810D01*
X84228000Y-58650327D01*
X84228000Y-58849673D01*
X84266890Y-59045190D01*
X84343177Y-59229362D01*
X84453928Y-59395113D01*
X84594887Y-59536072D01*
X84760638Y-59646823D01*
X84823834Y-59673000D01*
X83116166Y-59673000D01*
X83179362Y-59646823D01*
X83345113Y-59536072D01*
X83486072Y-59395113D01*
X83596823Y-59229362D01*
X83673110Y-59045190D01*
X83712000Y-58849673D01*
X83712000Y-58650327D01*
X83673110Y-58454810D01*
X83596823Y-58270638D01*
X83486072Y-58104887D01*
X83345113Y-57963928D01*
X83179362Y-57853177D01*
X82995190Y-57776890D01*
X82799673Y-57738000D01*
X82600327Y-57738000D01*
X82404810Y-57776890D01*
X82220638Y-57853177D01*
X82054887Y-57963928D01*
X81913928Y-58104887D01*
X81803177Y-58270638D01*
X81726890Y-58454810D01*
X81688000Y-58650327D01*
X81688000Y-58849673D01*
X81726890Y-59045190D01*
X81803177Y-59229362D01*
X81913928Y-59395113D01*
X82054887Y-59536072D01*
X82220638Y-59646823D01*
X82283834Y-59673000D01*
X81616159Y-59673000D01*
X81090710Y-59147552D01*
X81133110Y-59045190D01*
X81172000Y-58849673D01*
X81172000Y-58650327D01*
X81133110Y-58454810D01*
X81056823Y-58270638D01*
X80946072Y-58104887D01*
X80805113Y-57963928D01*
X80639362Y-57853177D01*
X80455190Y-57776890D01*
X80259673Y-57738000D01*
X80060327Y-57738000D01*
X79864810Y-57776890D01*
X79680638Y-57853177D01*
X79514887Y-57963928D01*
X79373928Y-58104887D01*
X79263177Y-58270638D01*
X79186890Y-58454810D01*
X79148000Y-58650327D01*
X79148000Y-58849673D01*
X79186890Y-59045190D01*
X79263177Y-59229362D01*
X79373928Y-59395113D01*
X79514887Y-59536072D01*
X79680638Y-59646823D01*
X79864810Y-59723110D01*
X80060327Y-59762000D01*
X80259673Y-59762000D01*
X80455190Y-59723110D01*
X80557552Y-59680710D01*
X81180328Y-60303487D01*
X81192131Y-60317869D01*
X81249537Y-60364981D01*
X81315030Y-60399988D01*
X81386094Y-60421545D01*
X81460000Y-60428824D01*
X81478519Y-60427000D01*
X87483080Y-60427000D01*
X87531080Y-60475000D01*
X52313503Y-60475000D01*
X52300000Y-60473670D01*
X52286498Y-60475000D01*
X52286497Y-60475000D01*
X52246091Y-60478980D01*
X52194253Y-60494704D01*
X52146479Y-60520240D01*
X52118032Y-60543586D01*
X52118032Y-59784534D01*
X52139357Y-59763209D01*
X52982000Y-59763209D01*
X53031008Y-59758382D01*
X53078134Y-59744087D01*
X53121564Y-59720873D01*
X53159632Y-59689632D01*
X53190873Y-59651564D01*
X53214087Y-59608134D01*
X53228382Y-59561008D01*
X53233209Y-59512000D01*
X53233209Y-57988000D01*
X53228382Y-57938992D01*
X53227778Y-57937000D01*
X54155188Y-57937000D01*
X54114887Y-57963928D01*
X53973928Y-58104887D01*
X53863177Y-58270638D01*
X53786890Y-58454810D01*
X53748000Y-58650327D01*
X53748000Y-58849673D01*
X53786890Y-59045190D01*
X53863177Y-59229362D01*
X53973928Y-59395113D01*
X54114887Y-59536072D01*
X54280638Y-59646823D01*
X54464810Y-59723110D01*
X54660327Y-59762000D01*
X54859673Y-59762000D01*
X55055190Y-59723110D01*
X55239362Y-59646823D01*
X55405113Y-59536072D01*
X55546072Y-59395113D01*
X55656823Y-59229362D01*
X55733110Y-59045190D01*
X55772000Y-58849673D01*
X55772000Y-58650327D01*
X55733110Y-58454810D01*
X55656823Y-58270638D01*
X55546072Y-58104887D01*
X55405113Y-57963928D01*
X55364812Y-57937000D01*
X55953842Y-57937000D01*
X56369290Y-58352448D01*
X56326890Y-58454810D01*
X56288000Y-58650327D01*
X56288000Y-58849673D01*
X56326890Y-59045190D01*
X56403177Y-59229362D01*
X56513928Y-59395113D01*
X56654887Y-59536072D01*
X56820638Y-59646823D01*
X57004810Y-59723110D01*
X57200327Y-59762000D01*
X57399673Y-59762000D01*
X57595190Y-59723110D01*
X57779362Y-59646823D01*
X57945113Y-59536072D01*
X58086072Y-59395113D01*
X58196823Y-59229362D01*
X58273110Y-59045190D01*
X58312000Y-58849673D01*
X58312000Y-58650327D01*
X58828000Y-58650327D01*
X58828000Y-58849673D01*
X58866890Y-59045190D01*
X58943177Y-59229362D01*
X59053928Y-59395113D01*
X59194887Y-59536072D01*
X59360638Y-59646823D01*
X59544810Y-59723110D01*
X59740327Y-59762000D01*
X59939673Y-59762000D01*
X60135190Y-59723110D01*
X60319362Y-59646823D01*
X60485113Y-59536072D01*
X60626072Y-59395113D01*
X60736823Y-59229362D01*
X60813110Y-59045190D01*
X60852000Y-58849673D01*
X60852000Y-58650327D01*
X60813110Y-58454810D01*
X60736823Y-58270638D01*
X60626072Y-58104887D01*
X60485113Y-57963928D01*
X60319362Y-57853177D01*
X60135190Y-57776890D01*
X59939673Y-57738000D01*
X59740327Y-57738000D01*
X59544810Y-57776890D01*
X59360638Y-57853177D01*
X59194887Y-57963928D01*
X59053928Y-58104887D01*
X58943177Y-58270638D01*
X58866890Y-58454810D01*
X58828000Y-58650327D01*
X58312000Y-58650327D01*
X58273110Y-58454810D01*
X58196823Y-58270638D01*
X58086072Y-58104887D01*
X57945113Y-57963928D01*
X57779362Y-57853177D01*
X57595190Y-57776890D01*
X57399673Y-57738000D01*
X57200327Y-57738000D01*
X57004810Y-57776890D01*
X56902448Y-57819290D01*
X56460158Y-57377000D01*
X60473842Y-57377000D01*
X61449290Y-58352448D01*
X61406890Y-58454810D01*
X61368000Y-58650327D01*
X61368000Y-58849673D01*
X61406890Y-59045190D01*
X61483177Y-59229362D01*
X61593928Y-59395113D01*
X61734887Y-59536072D01*
X61900638Y-59646823D01*
X62084810Y-59723110D01*
X62280327Y-59762000D01*
X62479673Y-59762000D01*
X62675190Y-59723110D01*
X62859362Y-59646823D01*
X63025113Y-59536072D01*
X63166072Y-59395113D01*
X63276823Y-59229362D01*
X63353110Y-59045190D01*
X63392000Y-58849673D01*
X63392000Y-58650327D01*
X63908000Y-58650327D01*
X63908000Y-58849673D01*
X63946890Y-59045190D01*
X64023177Y-59229362D01*
X64133928Y-59395113D01*
X64274887Y-59536072D01*
X64440638Y-59646823D01*
X64624810Y-59723110D01*
X64820327Y-59762000D01*
X65019673Y-59762000D01*
X65215190Y-59723110D01*
X65399362Y-59646823D01*
X65565113Y-59536072D01*
X65706072Y-59395113D01*
X65816823Y-59229362D01*
X65893110Y-59045190D01*
X65932000Y-58849673D01*
X65932000Y-58650327D01*
X66448000Y-58650327D01*
X66448000Y-58849673D01*
X66486890Y-59045190D01*
X66563177Y-59229362D01*
X66673928Y-59395113D01*
X66814887Y-59536072D01*
X66980638Y-59646823D01*
X67164810Y-59723110D01*
X67360327Y-59762000D01*
X67559673Y-59762000D01*
X67755190Y-59723110D01*
X67939362Y-59646823D01*
X68105113Y-59536072D01*
X68246072Y-59395113D01*
X68356823Y-59229362D01*
X68433110Y-59045190D01*
X68472000Y-58849673D01*
X68472000Y-58650327D01*
X68433110Y-58454810D01*
X68356823Y-58270638D01*
X68246072Y-58104887D01*
X68105113Y-57963928D01*
X67939362Y-57853177D01*
X67755190Y-57776890D01*
X67559673Y-57738000D01*
X67360327Y-57738000D01*
X67164810Y-57776890D01*
X66980638Y-57853177D01*
X66814887Y-57963928D01*
X66673928Y-58104887D01*
X66563177Y-58270638D01*
X66486890Y-58454810D01*
X66448000Y-58650327D01*
X65932000Y-58650327D01*
X65893110Y-58454810D01*
X65816823Y-58270638D01*
X65706072Y-58104887D01*
X65565113Y-57963928D01*
X65399362Y-57853177D01*
X65215190Y-57776890D01*
X65019673Y-57738000D01*
X64820327Y-57738000D01*
X64624810Y-57776890D01*
X64440638Y-57853177D01*
X64274887Y-57963928D01*
X64133928Y-58104887D01*
X64023177Y-58270638D01*
X63946890Y-58454810D01*
X63908000Y-58650327D01*
X63392000Y-58650327D01*
X63353110Y-58454810D01*
X63276823Y-58270638D01*
X63166072Y-58104887D01*
X63025113Y-57963928D01*
X62859362Y-57853177D01*
X62675190Y-57776890D01*
X62479673Y-57738000D01*
X62280327Y-57738000D01*
X62084810Y-57776890D01*
X61982448Y-57819290D01*
X60909677Y-56746519D01*
X60897869Y-56732131D01*
X60840463Y-56685019D01*
X60774970Y-56650012D01*
X60703905Y-56628455D01*
X60648519Y-56623000D01*
X60648512Y-56623000D01*
X60630000Y-56621177D01*
X60611488Y-56623000D01*
X50498508Y-56623000D01*
X50479999Y-56621177D01*
X50461490Y-56623000D01*
X50461481Y-56623000D01*
X50406095Y-56628455D01*
X50335030Y-56650012D01*
X50275000Y-56682099D01*
X50275000Y-50275000D01*
X89725000Y-50275000D01*
X89725000Y-57641841D01*
G36*
X88262968Y-59766126D02*
G01*
X88262968Y-60140571D01*
X87918915Y-59796518D01*
X87907107Y-59782131D01*
X87882011Y-59761535D01*
X88075190Y-59723110D01*
X88177552Y-59680710D01*
X88262968Y-59766126D01*
G37*
X88262968Y-59766126D02*
X88262968Y-60140571D01*
X87918915Y-59796518D01*
X87907107Y-59782131D01*
X87882011Y-59761535D01*
X88075190Y-59723110D01*
X88177552Y-59680710D01*
X88262968Y-59766126D01*
G36*
X88716979Y-59153821D02*
G01*
X88710710Y-59147552D01*
X88716979Y-59132417D01*
X88716979Y-59153821D01*
G37*
X88716979Y-59153821D02*
X88710710Y-59147552D01*
X88716979Y-59132417D01*
X88716979Y-59153821D01*
G36*
X88716979Y-58342206D02*
G01*
X88716979Y-58367583D01*
X88699035Y-58324262D01*
X88716979Y-58342206D01*
G37*
X88716979Y-58342206D02*
X88716979Y-58367583D01*
X88699035Y-58324262D01*
X88716979Y-58342206D01*
M02*
