%TF.GenerationSoftware,KiCad,Pcbnew,5.1.6*%
%TF.CreationDate,2020-09-08T10:01:19-04:00*%
%TF.ProjectId,placeholder,706c6163-6568-46f6-9c64-65722e6b6963,rev?*%
%TF.SameCoordinates,Original*%
%TF.FileFunction,Copper,L2,Bot*%
%TF.FilePolarity,Positive*%
%FSLAX46Y46*%
G04 Gerber Fmt 4.6, Leading zero omitted, Abs format (unit mm)*
G04 Created by KiCad (PCBNEW 5.1.6) date 2020-09-08 10:01:19*
%MOMM*%
%LPD*%
G01*
G04 APERTURE LIST*
%TA.AperFunction,ComponentPad*%
%ADD10C,1.524000*%
%TD*%
%TA.AperFunction,ComponentPad*%
%ADD11R,1.524000X1.524000*%
%TD*%
%TA.AperFunction,Conductor*%
%ADD12C,0.254000*%
%TD*%
%TA.AperFunction,Conductor*%
%ADD13C,0.635000*%
%TD*%
%TA.AperFunction,NonConductor*%
%ADD14C,0.100000*%
%TD*%
G04 APERTURE END LIST*
D10*
%TO.P,J2,15*%
%TO.N,/EXT_INTO*%
X87780000Y-58750000D03*
%TO.P,J2,14*%
%TO.N,N/C*%
X85240000Y-58750000D03*
%TO.P,J2,13*%
%TO.N,/CS7*%
X82700000Y-58750000D03*
%TO.P,J2,12*%
%TO.N,/CS6*%
X80160000Y-58750000D03*
%TO.P,J2,11*%
%TO.N,/CS5*%
X77620000Y-58750000D03*
%TO.P,J2,10*%
%TO.N,/CS4*%
X75080000Y-58750000D03*
%TO.P,J2,9*%
%TO.N,/CS3*%
X72540000Y-58750000D03*
%TO.P,J2,8*%
%TO.N,/CS2*%
X70000000Y-58750000D03*
%TO.P,J2,7*%
%TO.N,/CS1*%
X67460000Y-58750000D03*
%TO.P,J2,6*%
%TO.N,/CIPO*%
X64920000Y-58750000D03*
%TO.P,J2,5*%
%TO.N,/COPI*%
X62380000Y-58750000D03*
%TO.P,J2,4*%
%TO.N,/SCK*%
X59840000Y-58750000D03*
%TO.P,J2,3*%
%TO.N,/RESET*%
X57300000Y-58750000D03*
%TO.P,J2,2*%
%TO.N,GND*%
X54760000Y-58750000D03*
D11*
%TO.P,J2,1*%
%TO.N,+5V*%
X52220000Y-58750000D03*
%TD*%
D10*
%TO.P,J1,15*%
%TO.N,/EXT_INTO*%
X87780000Y-84700000D03*
%TO.P,J1,14*%
%TO.N,/CS7*%
X85240000Y-84700000D03*
%TO.P,J1,13*%
%TO.N,/CS6*%
X82700000Y-84700000D03*
%TO.P,J1,12*%
%TO.N,/CS5*%
X80160000Y-84700000D03*
%TO.P,J1,11*%
%TO.N,/CS4*%
X77620000Y-84700000D03*
%TO.P,J1,10*%
%TO.N,/CS3*%
X75080000Y-84700000D03*
%TO.P,J1,9*%
%TO.N,/CS2*%
X72540000Y-84700000D03*
%TO.P,J1,8*%
%TO.N,/CS1*%
X70000000Y-84700000D03*
%TO.P,J1,7*%
%TO.N,N/C*%
X67460000Y-84700000D03*
%TO.P,J1,6*%
%TO.N,/CIPO*%
X64920000Y-84700000D03*
%TO.P,J1,5*%
%TO.N,/COPI*%
X62380000Y-84700000D03*
%TO.P,J1,4*%
%TO.N,/SCK*%
X59840000Y-84700000D03*
%TO.P,J1,3*%
%TO.N,/RESET*%
X57300000Y-84700000D03*
%TO.P,J1,2*%
%TO.N,GND*%
X54760000Y-84700000D03*
D11*
%TO.P,J1,1*%
%TO.N,+5V*%
X52220000Y-84700000D03*
%TD*%
D12*
%TO.N,/CS7*%
X87887228Y-60297990D02*
X88152010Y-60562772D01*
X88152010Y-60562772D02*
X88152010Y-82887228D01*
X88152010Y-82887228D02*
X87887228Y-83152010D01*
X87887228Y-83152010D02*
X86787990Y-83152010D01*
X82700000Y-58750000D02*
X84247990Y-60297990D01*
X86787990Y-83152010D02*
X85240000Y-84700000D01*
X84247990Y-60297990D02*
X87887228Y-60297990D01*
%TO.N,/CS5*%
X86490000Y-84378278D02*
X86490000Y-85061722D01*
X87257279Y-83610999D02*
X86490000Y-84378278D01*
X88606020Y-83075286D02*
X88070307Y-83610999D01*
X88606021Y-60374715D02*
X88606020Y-83075286D01*
X81249001Y-85789001D02*
X80160000Y-84700000D01*
X83980000Y-59387932D02*
X84436047Y-59843979D01*
X88070307Y-83610999D02*
X87257279Y-83610999D01*
X84436047Y-59843979D02*
X88075286Y-59843980D01*
X86490000Y-85061722D02*
X85762721Y-85789001D01*
X77620000Y-58750000D02*
X78890000Y-57480000D01*
X88075286Y-59843980D02*
X88606021Y-60374715D01*
X83260000Y-57480000D02*
X83980000Y-58200000D01*
X85762721Y-85789001D02*
X81249001Y-85789001D01*
X78890000Y-57480000D02*
X83260000Y-57480000D01*
X83980000Y-58200000D02*
X83980000Y-59387932D01*
%TO.N,/CS3*%
X76680000Y-86300000D02*
X75080000Y-84700000D01*
X88127932Y-86300000D02*
X76680000Y-86300000D01*
X89093979Y-85333953D02*
X88127932Y-86300000D01*
X87957932Y-57020000D02*
X89093979Y-58156047D01*
X72540000Y-58750000D02*
X74270000Y-57020000D01*
X74270000Y-57020000D02*
X87957932Y-57020000D01*
X89093979Y-58156047D02*
X89093979Y-85333953D01*
%TO.N,/CS1*%
X89547989Y-85522011D02*
X88315989Y-86754011D01*
X67460000Y-58750000D02*
X69670000Y-56540000D01*
X70761999Y-85461999D02*
X70000000Y-84700000D01*
X72054010Y-86754010D02*
X70761999Y-85461999D01*
X88120000Y-56540000D02*
X89547990Y-57967990D01*
X69670000Y-56540000D02*
X88120000Y-56540000D01*
X89547990Y-57967990D02*
X89547989Y-85522011D01*
X88315989Y-86754011D02*
X72054010Y-86754010D01*
%TO.N,/CIPO*%
X63190000Y-86430000D02*
X64920000Y-84700000D01*
X50452010Y-86430000D02*
X63190000Y-86430000D01*
X50452010Y-57010000D02*
X50452010Y-86430000D01*
X63180000Y-57010000D02*
X50452010Y-57010000D01*
X64920000Y-58750000D02*
X63180000Y-57010000D01*
%TO.N,/SCK*%
X58590000Y-85950000D02*
X59840000Y-84700000D01*
X50906021Y-85950000D02*
X58590000Y-85950000D01*
X50906021Y-57560000D02*
X50906021Y-85950000D01*
X58650000Y-57560000D02*
X50906021Y-57560000D01*
X59840000Y-58750000D02*
X58650000Y-57560000D01*
D13*
%TO.N,GND*%
X54675502Y-84700000D02*
X54760000Y-84700000D01*
X51550532Y-60029501D02*
X51550532Y-83320000D01*
X53396001Y-60029501D02*
X51550532Y-60029501D01*
X53499501Y-59926001D02*
X53396001Y-60029501D01*
X53583999Y-59926001D02*
X53499501Y-59926001D01*
X53295502Y-83320000D02*
X54675502Y-84700000D01*
X51550532Y-83320000D02*
X53295502Y-83320000D01*
X54760000Y-58750000D02*
X53583999Y-59926001D01*
%TD*%
D14*
G36*
X85637552Y-83769290D02*
G01*
X85535190Y-83726890D01*
X85339673Y-83688000D01*
X85140327Y-83688000D01*
X84944810Y-83726890D01*
X84760638Y-83803177D01*
X84594887Y-83913928D01*
X84453928Y-84054887D01*
X84343177Y-84220638D01*
X84266890Y-84404810D01*
X84228000Y-84600327D01*
X84228000Y-84799673D01*
X84266890Y-84995190D01*
X84343177Y-85179362D01*
X84453928Y-85345113D01*
X84520816Y-85412001D01*
X83419184Y-85412001D01*
X83486072Y-85345113D01*
X83596823Y-85179362D01*
X83673110Y-84995190D01*
X83712000Y-84799673D01*
X83712000Y-84600327D01*
X83673110Y-84404810D01*
X83596823Y-84220638D01*
X83486072Y-84054887D01*
X83345113Y-83913928D01*
X83179362Y-83803177D01*
X82995190Y-83726890D01*
X82799673Y-83688000D01*
X82600327Y-83688000D01*
X82404810Y-83726890D01*
X82220638Y-83803177D01*
X82054887Y-83913928D01*
X81913928Y-84054887D01*
X81803177Y-84220638D01*
X81726890Y-84404810D01*
X81688000Y-84600327D01*
X81688000Y-84799673D01*
X81726890Y-84995190D01*
X81803177Y-85179362D01*
X81913928Y-85345113D01*
X81980816Y-85412001D01*
X81405160Y-85412001D01*
X81090710Y-85097552D01*
X81133110Y-84995190D01*
X81172000Y-84799673D01*
X81172000Y-84600327D01*
X81133110Y-84404810D01*
X81056823Y-84220638D01*
X80946072Y-84054887D01*
X80805113Y-83913928D01*
X80639362Y-83803177D01*
X80455190Y-83726890D01*
X80259673Y-83688000D01*
X80060327Y-83688000D01*
X79864810Y-83726890D01*
X79680638Y-83803177D01*
X79514887Y-83913928D01*
X79373928Y-84054887D01*
X79263177Y-84220638D01*
X79186890Y-84404810D01*
X79148000Y-84600327D01*
X79148000Y-84799673D01*
X79186890Y-84995190D01*
X79263177Y-85179362D01*
X79373928Y-85345113D01*
X79514887Y-85486072D01*
X79680638Y-85596823D01*
X79864810Y-85673110D01*
X80060327Y-85712000D01*
X80259673Y-85712000D01*
X80455190Y-85673110D01*
X80557552Y-85630710D01*
X80849841Y-85923000D01*
X76836159Y-85923000D01*
X76010710Y-85097552D01*
X76053110Y-84995190D01*
X76092000Y-84799673D01*
X76092000Y-84600327D01*
X76608000Y-84600327D01*
X76608000Y-84799673D01*
X76646890Y-84995190D01*
X76723177Y-85179362D01*
X76833928Y-85345113D01*
X76974887Y-85486072D01*
X77140638Y-85596823D01*
X77324810Y-85673110D01*
X77520327Y-85712000D01*
X77719673Y-85712000D01*
X77915190Y-85673110D01*
X78099362Y-85596823D01*
X78265113Y-85486072D01*
X78406072Y-85345113D01*
X78516823Y-85179362D01*
X78593110Y-84995190D01*
X78632000Y-84799673D01*
X78632000Y-84600327D01*
X78593110Y-84404810D01*
X78516823Y-84220638D01*
X78406072Y-84054887D01*
X78265113Y-83913928D01*
X78099362Y-83803177D01*
X77915190Y-83726890D01*
X77719673Y-83688000D01*
X77520327Y-83688000D01*
X77324810Y-83726890D01*
X77140638Y-83803177D01*
X76974887Y-83913928D01*
X76833928Y-84054887D01*
X76723177Y-84220638D01*
X76646890Y-84404810D01*
X76608000Y-84600327D01*
X76092000Y-84600327D01*
X76053110Y-84404810D01*
X75976823Y-84220638D01*
X75866072Y-84054887D01*
X75725113Y-83913928D01*
X75559362Y-83803177D01*
X75375190Y-83726890D01*
X75179673Y-83688000D01*
X74980327Y-83688000D01*
X74784810Y-83726890D01*
X74600638Y-83803177D01*
X74434887Y-83913928D01*
X74293928Y-84054887D01*
X74183177Y-84220638D01*
X74106890Y-84404810D01*
X74068000Y-84600327D01*
X74068000Y-84799673D01*
X74106890Y-84995190D01*
X74183177Y-85179362D01*
X74293928Y-85345113D01*
X74434887Y-85486072D01*
X74600638Y-85596823D01*
X74784810Y-85673110D01*
X74980327Y-85712000D01*
X75179673Y-85712000D01*
X75375190Y-85673110D01*
X75477552Y-85630710D01*
X76223852Y-86377011D01*
X72210168Y-86377010D01*
X70930710Y-85097552D01*
X70973110Y-84995190D01*
X71012000Y-84799673D01*
X71012000Y-84600327D01*
X71528000Y-84600327D01*
X71528000Y-84799673D01*
X71566890Y-84995190D01*
X71643177Y-85179362D01*
X71753928Y-85345113D01*
X71894887Y-85486072D01*
X72060638Y-85596823D01*
X72244810Y-85673110D01*
X72440327Y-85712000D01*
X72639673Y-85712000D01*
X72835190Y-85673110D01*
X73019362Y-85596823D01*
X73185113Y-85486072D01*
X73326072Y-85345113D01*
X73436823Y-85179362D01*
X73513110Y-84995190D01*
X73552000Y-84799673D01*
X73552000Y-84600327D01*
X73513110Y-84404810D01*
X73436823Y-84220638D01*
X73326072Y-84054887D01*
X73185113Y-83913928D01*
X73019362Y-83803177D01*
X72835190Y-83726890D01*
X72639673Y-83688000D01*
X72440327Y-83688000D01*
X72244810Y-83726890D01*
X72060638Y-83803177D01*
X71894887Y-83913928D01*
X71753928Y-84054887D01*
X71643177Y-84220638D01*
X71566890Y-84404810D01*
X71528000Y-84600327D01*
X71012000Y-84600327D01*
X70973110Y-84404810D01*
X70896823Y-84220638D01*
X70786072Y-84054887D01*
X70645113Y-83913928D01*
X70479362Y-83803177D01*
X70295190Y-83726890D01*
X70099673Y-83688000D01*
X69900327Y-83688000D01*
X69704810Y-83726890D01*
X69520638Y-83803177D01*
X69354887Y-83913928D01*
X69213928Y-84054887D01*
X69103177Y-84220638D01*
X69026890Y-84404810D01*
X68988000Y-84600327D01*
X68988000Y-84799673D01*
X69026890Y-84995190D01*
X69103177Y-85179362D01*
X69213928Y-85345113D01*
X69354887Y-85486072D01*
X69520638Y-85596823D01*
X69704810Y-85673110D01*
X69900327Y-85712000D01*
X70099673Y-85712000D01*
X70295190Y-85673110D01*
X70397552Y-85630710D01*
X71774338Y-87007496D01*
X71786141Y-87021878D01*
X71800523Y-87033681D01*
X71800525Y-87033683D01*
X71843546Y-87068990D01*
X71909040Y-87103997D01*
X71980104Y-87125554D01*
X72054009Y-87132833D01*
X72072529Y-87131009D01*
X88297477Y-87131011D01*
X88315989Y-87132834D01*
X88334501Y-87131011D01*
X88334507Y-87131011D01*
X88382210Y-87126313D01*
X88389894Y-87125556D01*
X88460958Y-87103999D01*
X88460962Y-87103997D01*
X88526451Y-87068992D01*
X88583857Y-87021880D01*
X88595660Y-87007498D01*
X89725001Y-85878158D01*
X89725001Y-89725000D01*
X50275000Y-89725000D01*
X50275000Y-86762862D01*
X50307040Y-86779988D01*
X50378105Y-86801545D01*
X50433491Y-86807000D01*
X50452010Y-86808824D01*
X50470529Y-86807000D01*
X63171488Y-86807000D01*
X63190000Y-86808823D01*
X63208512Y-86807000D01*
X63208519Y-86807000D01*
X63263905Y-86801545D01*
X63334970Y-86779988D01*
X63400463Y-86744981D01*
X63457869Y-86697869D01*
X63469677Y-86683481D01*
X64522448Y-85630710D01*
X64624810Y-85673110D01*
X64820327Y-85712000D01*
X65019673Y-85712000D01*
X65215190Y-85673110D01*
X65399362Y-85596823D01*
X65565113Y-85486072D01*
X65706072Y-85345113D01*
X65816823Y-85179362D01*
X65893110Y-84995190D01*
X65932000Y-84799673D01*
X65932000Y-84600327D01*
X66448000Y-84600327D01*
X66448000Y-84799673D01*
X66486890Y-84995190D01*
X66563177Y-85179362D01*
X66673928Y-85345113D01*
X66814887Y-85486072D01*
X66980638Y-85596823D01*
X67164810Y-85673110D01*
X67360327Y-85712000D01*
X67559673Y-85712000D01*
X67755190Y-85673110D01*
X67939362Y-85596823D01*
X68105113Y-85486072D01*
X68246072Y-85345113D01*
X68356823Y-85179362D01*
X68433110Y-84995190D01*
X68472000Y-84799673D01*
X68472000Y-84600327D01*
X68433110Y-84404810D01*
X68356823Y-84220638D01*
X68246072Y-84054887D01*
X68105113Y-83913928D01*
X67939362Y-83803177D01*
X67755190Y-83726890D01*
X67559673Y-83688000D01*
X67360327Y-83688000D01*
X67164810Y-83726890D01*
X66980638Y-83803177D01*
X66814887Y-83913928D01*
X66673928Y-84054887D01*
X66563177Y-84220638D01*
X66486890Y-84404810D01*
X66448000Y-84600327D01*
X65932000Y-84600327D01*
X65893110Y-84404810D01*
X65816823Y-84220638D01*
X65706072Y-84054887D01*
X65565113Y-83913928D01*
X65399362Y-83803177D01*
X65215190Y-83726890D01*
X65019673Y-83688000D01*
X64820327Y-83688000D01*
X64624810Y-83726890D01*
X64440638Y-83803177D01*
X64274887Y-83913928D01*
X64133928Y-84054887D01*
X64023177Y-84220638D01*
X63946890Y-84404810D01*
X63908000Y-84600327D01*
X63908000Y-84799673D01*
X63946890Y-84995190D01*
X63989290Y-85097552D01*
X63033842Y-86053000D01*
X59020158Y-86053000D01*
X59442448Y-85630710D01*
X59544810Y-85673110D01*
X59740327Y-85712000D01*
X59939673Y-85712000D01*
X60135190Y-85673110D01*
X60319362Y-85596823D01*
X60485113Y-85486072D01*
X60626072Y-85345113D01*
X60736823Y-85179362D01*
X60813110Y-84995190D01*
X60852000Y-84799673D01*
X60852000Y-84600327D01*
X61368000Y-84600327D01*
X61368000Y-84799673D01*
X61406890Y-84995190D01*
X61483177Y-85179362D01*
X61593928Y-85345113D01*
X61734887Y-85486072D01*
X61900638Y-85596823D01*
X62084810Y-85673110D01*
X62280327Y-85712000D01*
X62479673Y-85712000D01*
X62675190Y-85673110D01*
X62859362Y-85596823D01*
X63025113Y-85486072D01*
X63166072Y-85345113D01*
X63276823Y-85179362D01*
X63353110Y-84995190D01*
X63392000Y-84799673D01*
X63392000Y-84600327D01*
X63353110Y-84404810D01*
X63276823Y-84220638D01*
X63166072Y-84054887D01*
X63025113Y-83913928D01*
X62859362Y-83803177D01*
X62675190Y-83726890D01*
X62479673Y-83688000D01*
X62280327Y-83688000D01*
X62084810Y-83726890D01*
X61900638Y-83803177D01*
X61734887Y-83913928D01*
X61593928Y-84054887D01*
X61483177Y-84220638D01*
X61406890Y-84404810D01*
X61368000Y-84600327D01*
X60852000Y-84600327D01*
X60813110Y-84404810D01*
X60736823Y-84220638D01*
X60626072Y-84054887D01*
X60485113Y-83913928D01*
X60319362Y-83803177D01*
X60135190Y-83726890D01*
X59939673Y-83688000D01*
X59740327Y-83688000D01*
X59544810Y-83726890D01*
X59360638Y-83803177D01*
X59194887Y-83913928D01*
X59053928Y-84054887D01*
X58943177Y-84220638D01*
X58866890Y-84404810D01*
X58828000Y-84600327D01*
X58828000Y-84799673D01*
X58866890Y-84995190D01*
X58909290Y-85097552D01*
X58433842Y-85573000D01*
X57815016Y-85573000D01*
X57945113Y-85486072D01*
X58086072Y-85345113D01*
X58196823Y-85179362D01*
X58273110Y-84995190D01*
X58312000Y-84799673D01*
X58312000Y-84600327D01*
X58273110Y-84404810D01*
X58196823Y-84220638D01*
X58086072Y-84054887D01*
X57945113Y-83913928D01*
X57779362Y-83803177D01*
X57595190Y-83726890D01*
X57399673Y-83688000D01*
X57200327Y-83688000D01*
X57004810Y-83726890D01*
X56820638Y-83803177D01*
X56654887Y-83913928D01*
X56513928Y-84054887D01*
X56403177Y-84220638D01*
X56326890Y-84404810D01*
X56288000Y-84600327D01*
X56288000Y-84799673D01*
X56326890Y-84995190D01*
X56403177Y-85179362D01*
X56513928Y-85345113D01*
X56654887Y-85486072D01*
X56784984Y-85573000D01*
X55275016Y-85573000D01*
X55405113Y-85486072D01*
X55546072Y-85345113D01*
X55656823Y-85179362D01*
X55733110Y-84995190D01*
X55772000Y-84799673D01*
X55772000Y-84600327D01*
X55733110Y-84404810D01*
X55656823Y-84220638D01*
X55546072Y-84054887D01*
X55405113Y-83913928D01*
X55239362Y-83803177D01*
X55055190Y-83726890D01*
X54859673Y-83688000D01*
X54660327Y-83688000D01*
X54498297Y-83720229D01*
X53753067Y-82975000D01*
X86431842Y-82975000D01*
X85637552Y-83769290D01*
G37*
X85637552Y-83769290D02*
X85535190Y-83726890D01*
X85339673Y-83688000D01*
X85140327Y-83688000D01*
X84944810Y-83726890D01*
X84760638Y-83803177D01*
X84594887Y-83913928D01*
X84453928Y-84054887D01*
X84343177Y-84220638D01*
X84266890Y-84404810D01*
X84228000Y-84600327D01*
X84228000Y-84799673D01*
X84266890Y-84995190D01*
X84343177Y-85179362D01*
X84453928Y-85345113D01*
X84520816Y-85412001D01*
X83419184Y-85412001D01*
X83486072Y-85345113D01*
X83596823Y-85179362D01*
X83673110Y-84995190D01*
X83712000Y-84799673D01*
X83712000Y-84600327D01*
X83673110Y-84404810D01*
X83596823Y-84220638D01*
X83486072Y-84054887D01*
X83345113Y-83913928D01*
X83179362Y-83803177D01*
X82995190Y-83726890D01*
X82799673Y-83688000D01*
X82600327Y-83688000D01*
X82404810Y-83726890D01*
X82220638Y-83803177D01*
X82054887Y-83913928D01*
X81913928Y-84054887D01*
X81803177Y-84220638D01*
X81726890Y-84404810D01*
X81688000Y-84600327D01*
X81688000Y-84799673D01*
X81726890Y-84995190D01*
X81803177Y-85179362D01*
X81913928Y-85345113D01*
X81980816Y-85412001D01*
X81405160Y-85412001D01*
X81090710Y-85097552D01*
X81133110Y-84995190D01*
X81172000Y-84799673D01*
X81172000Y-84600327D01*
X81133110Y-84404810D01*
X81056823Y-84220638D01*
X80946072Y-84054887D01*
X80805113Y-83913928D01*
X80639362Y-83803177D01*
X80455190Y-83726890D01*
X80259673Y-83688000D01*
X80060327Y-83688000D01*
X79864810Y-83726890D01*
X79680638Y-83803177D01*
X79514887Y-83913928D01*
X79373928Y-84054887D01*
X79263177Y-84220638D01*
X79186890Y-84404810D01*
X79148000Y-84600327D01*
X79148000Y-84799673D01*
X79186890Y-84995190D01*
X79263177Y-85179362D01*
X79373928Y-85345113D01*
X79514887Y-85486072D01*
X79680638Y-85596823D01*
X79864810Y-85673110D01*
X80060327Y-85712000D01*
X80259673Y-85712000D01*
X80455190Y-85673110D01*
X80557552Y-85630710D01*
X80849841Y-85923000D01*
X76836159Y-85923000D01*
X76010710Y-85097552D01*
X76053110Y-84995190D01*
X76092000Y-84799673D01*
X76092000Y-84600327D01*
X76608000Y-84600327D01*
X76608000Y-84799673D01*
X76646890Y-84995190D01*
X76723177Y-85179362D01*
X76833928Y-85345113D01*
X76974887Y-85486072D01*
X77140638Y-85596823D01*
X77324810Y-85673110D01*
X77520327Y-85712000D01*
X77719673Y-85712000D01*
X77915190Y-85673110D01*
X78099362Y-85596823D01*
X78265113Y-85486072D01*
X78406072Y-85345113D01*
X78516823Y-85179362D01*
X78593110Y-84995190D01*
X78632000Y-84799673D01*
X78632000Y-84600327D01*
X78593110Y-84404810D01*
X78516823Y-84220638D01*
X78406072Y-84054887D01*
X78265113Y-83913928D01*
X78099362Y-83803177D01*
X77915190Y-83726890D01*
X77719673Y-83688000D01*
X77520327Y-83688000D01*
X77324810Y-83726890D01*
X77140638Y-83803177D01*
X76974887Y-83913928D01*
X76833928Y-84054887D01*
X76723177Y-84220638D01*
X76646890Y-84404810D01*
X76608000Y-84600327D01*
X76092000Y-84600327D01*
X76053110Y-84404810D01*
X75976823Y-84220638D01*
X75866072Y-84054887D01*
X75725113Y-83913928D01*
X75559362Y-83803177D01*
X75375190Y-83726890D01*
X75179673Y-83688000D01*
X74980327Y-83688000D01*
X74784810Y-83726890D01*
X74600638Y-83803177D01*
X74434887Y-83913928D01*
X74293928Y-84054887D01*
X74183177Y-84220638D01*
X74106890Y-84404810D01*
X74068000Y-84600327D01*
X74068000Y-84799673D01*
X74106890Y-84995190D01*
X74183177Y-85179362D01*
X74293928Y-85345113D01*
X74434887Y-85486072D01*
X74600638Y-85596823D01*
X74784810Y-85673110D01*
X74980327Y-85712000D01*
X75179673Y-85712000D01*
X75375190Y-85673110D01*
X75477552Y-85630710D01*
X76223852Y-86377011D01*
X72210168Y-86377010D01*
X70930710Y-85097552D01*
X70973110Y-84995190D01*
X71012000Y-84799673D01*
X71012000Y-84600327D01*
X71528000Y-84600327D01*
X71528000Y-84799673D01*
X71566890Y-84995190D01*
X71643177Y-85179362D01*
X71753928Y-85345113D01*
X71894887Y-85486072D01*
X72060638Y-85596823D01*
X72244810Y-85673110D01*
X72440327Y-85712000D01*
X72639673Y-85712000D01*
X72835190Y-85673110D01*
X73019362Y-85596823D01*
X73185113Y-85486072D01*
X73326072Y-85345113D01*
X73436823Y-85179362D01*
X73513110Y-84995190D01*
X73552000Y-84799673D01*
X73552000Y-84600327D01*
X73513110Y-84404810D01*
X73436823Y-84220638D01*
X73326072Y-84054887D01*
X73185113Y-83913928D01*
X73019362Y-83803177D01*
X72835190Y-83726890D01*
X72639673Y-83688000D01*
X72440327Y-83688000D01*
X72244810Y-83726890D01*
X72060638Y-83803177D01*
X71894887Y-83913928D01*
X71753928Y-84054887D01*
X71643177Y-84220638D01*
X71566890Y-84404810D01*
X71528000Y-84600327D01*
X71012000Y-84600327D01*
X70973110Y-84404810D01*
X70896823Y-84220638D01*
X70786072Y-84054887D01*
X70645113Y-83913928D01*
X70479362Y-83803177D01*
X70295190Y-83726890D01*
X70099673Y-83688000D01*
X69900327Y-83688000D01*
X69704810Y-83726890D01*
X69520638Y-83803177D01*
X69354887Y-83913928D01*
X69213928Y-84054887D01*
X69103177Y-84220638D01*
X69026890Y-84404810D01*
X68988000Y-84600327D01*
X68988000Y-84799673D01*
X69026890Y-84995190D01*
X69103177Y-85179362D01*
X69213928Y-85345113D01*
X69354887Y-85486072D01*
X69520638Y-85596823D01*
X69704810Y-85673110D01*
X69900327Y-85712000D01*
X70099673Y-85712000D01*
X70295190Y-85673110D01*
X70397552Y-85630710D01*
X71774338Y-87007496D01*
X71786141Y-87021878D01*
X71800523Y-87033681D01*
X71800525Y-87033683D01*
X71843546Y-87068990D01*
X71909040Y-87103997D01*
X71980104Y-87125554D01*
X72054009Y-87132833D01*
X72072529Y-87131009D01*
X88297477Y-87131011D01*
X88315989Y-87132834D01*
X88334501Y-87131011D01*
X88334507Y-87131011D01*
X88382210Y-87126313D01*
X88389894Y-87125556D01*
X88460958Y-87103999D01*
X88460962Y-87103997D01*
X88526451Y-87068992D01*
X88583857Y-87021880D01*
X88595660Y-87007498D01*
X89725001Y-85878158D01*
X89725001Y-89725000D01*
X50275000Y-89725000D01*
X50275000Y-86762862D01*
X50307040Y-86779988D01*
X50378105Y-86801545D01*
X50433491Y-86807000D01*
X50452010Y-86808824D01*
X50470529Y-86807000D01*
X63171488Y-86807000D01*
X63190000Y-86808823D01*
X63208512Y-86807000D01*
X63208519Y-86807000D01*
X63263905Y-86801545D01*
X63334970Y-86779988D01*
X63400463Y-86744981D01*
X63457869Y-86697869D01*
X63469677Y-86683481D01*
X64522448Y-85630710D01*
X64624810Y-85673110D01*
X64820327Y-85712000D01*
X65019673Y-85712000D01*
X65215190Y-85673110D01*
X65399362Y-85596823D01*
X65565113Y-85486072D01*
X65706072Y-85345113D01*
X65816823Y-85179362D01*
X65893110Y-84995190D01*
X65932000Y-84799673D01*
X65932000Y-84600327D01*
X66448000Y-84600327D01*
X66448000Y-84799673D01*
X66486890Y-84995190D01*
X66563177Y-85179362D01*
X66673928Y-85345113D01*
X66814887Y-85486072D01*
X66980638Y-85596823D01*
X67164810Y-85673110D01*
X67360327Y-85712000D01*
X67559673Y-85712000D01*
X67755190Y-85673110D01*
X67939362Y-85596823D01*
X68105113Y-85486072D01*
X68246072Y-85345113D01*
X68356823Y-85179362D01*
X68433110Y-84995190D01*
X68472000Y-84799673D01*
X68472000Y-84600327D01*
X68433110Y-84404810D01*
X68356823Y-84220638D01*
X68246072Y-84054887D01*
X68105113Y-83913928D01*
X67939362Y-83803177D01*
X67755190Y-83726890D01*
X67559673Y-83688000D01*
X67360327Y-83688000D01*
X67164810Y-83726890D01*
X66980638Y-83803177D01*
X66814887Y-83913928D01*
X66673928Y-84054887D01*
X66563177Y-84220638D01*
X66486890Y-84404810D01*
X66448000Y-84600327D01*
X65932000Y-84600327D01*
X65893110Y-84404810D01*
X65816823Y-84220638D01*
X65706072Y-84054887D01*
X65565113Y-83913928D01*
X65399362Y-83803177D01*
X65215190Y-83726890D01*
X65019673Y-83688000D01*
X64820327Y-83688000D01*
X64624810Y-83726890D01*
X64440638Y-83803177D01*
X64274887Y-83913928D01*
X64133928Y-84054887D01*
X64023177Y-84220638D01*
X63946890Y-84404810D01*
X63908000Y-84600327D01*
X63908000Y-84799673D01*
X63946890Y-84995190D01*
X63989290Y-85097552D01*
X63033842Y-86053000D01*
X59020158Y-86053000D01*
X59442448Y-85630710D01*
X59544810Y-85673110D01*
X59740327Y-85712000D01*
X59939673Y-85712000D01*
X60135190Y-85673110D01*
X60319362Y-85596823D01*
X60485113Y-85486072D01*
X60626072Y-85345113D01*
X60736823Y-85179362D01*
X60813110Y-84995190D01*
X60852000Y-84799673D01*
X60852000Y-84600327D01*
X61368000Y-84600327D01*
X61368000Y-84799673D01*
X61406890Y-84995190D01*
X61483177Y-85179362D01*
X61593928Y-85345113D01*
X61734887Y-85486072D01*
X61900638Y-85596823D01*
X62084810Y-85673110D01*
X62280327Y-85712000D01*
X62479673Y-85712000D01*
X62675190Y-85673110D01*
X62859362Y-85596823D01*
X63025113Y-85486072D01*
X63166072Y-85345113D01*
X63276823Y-85179362D01*
X63353110Y-84995190D01*
X63392000Y-84799673D01*
X63392000Y-84600327D01*
X63353110Y-84404810D01*
X63276823Y-84220638D01*
X63166072Y-84054887D01*
X63025113Y-83913928D01*
X62859362Y-83803177D01*
X62675190Y-83726890D01*
X62479673Y-83688000D01*
X62280327Y-83688000D01*
X62084810Y-83726890D01*
X61900638Y-83803177D01*
X61734887Y-83913928D01*
X61593928Y-84054887D01*
X61483177Y-84220638D01*
X61406890Y-84404810D01*
X61368000Y-84600327D01*
X60852000Y-84600327D01*
X60813110Y-84404810D01*
X60736823Y-84220638D01*
X60626072Y-84054887D01*
X60485113Y-83913928D01*
X60319362Y-83803177D01*
X60135190Y-83726890D01*
X59939673Y-83688000D01*
X59740327Y-83688000D01*
X59544810Y-83726890D01*
X59360638Y-83803177D01*
X59194887Y-83913928D01*
X59053928Y-84054887D01*
X58943177Y-84220638D01*
X58866890Y-84404810D01*
X58828000Y-84600327D01*
X58828000Y-84799673D01*
X58866890Y-84995190D01*
X58909290Y-85097552D01*
X58433842Y-85573000D01*
X57815016Y-85573000D01*
X57945113Y-85486072D01*
X58086072Y-85345113D01*
X58196823Y-85179362D01*
X58273110Y-84995190D01*
X58312000Y-84799673D01*
X58312000Y-84600327D01*
X58273110Y-84404810D01*
X58196823Y-84220638D01*
X58086072Y-84054887D01*
X57945113Y-83913928D01*
X57779362Y-83803177D01*
X57595190Y-83726890D01*
X57399673Y-83688000D01*
X57200327Y-83688000D01*
X57004810Y-83726890D01*
X56820638Y-83803177D01*
X56654887Y-83913928D01*
X56513928Y-84054887D01*
X56403177Y-84220638D01*
X56326890Y-84404810D01*
X56288000Y-84600327D01*
X56288000Y-84799673D01*
X56326890Y-84995190D01*
X56403177Y-85179362D01*
X56513928Y-85345113D01*
X56654887Y-85486072D01*
X56784984Y-85573000D01*
X55275016Y-85573000D01*
X55405113Y-85486072D01*
X55546072Y-85345113D01*
X55656823Y-85179362D01*
X55733110Y-84995190D01*
X55772000Y-84799673D01*
X55772000Y-84600327D01*
X55733110Y-84404810D01*
X55656823Y-84220638D01*
X55546072Y-84054887D01*
X55405113Y-83913928D01*
X55239362Y-83803177D01*
X55055190Y-83726890D01*
X54859673Y-83688000D01*
X54660327Y-83688000D01*
X54498297Y-83720229D01*
X53753067Y-82975000D01*
X86431842Y-82975000D01*
X85637552Y-83769290D01*
G36*
X86883177Y-85179362D02*
G01*
X86993928Y-85345113D01*
X87134887Y-85486072D01*
X87300638Y-85596823D01*
X87484810Y-85673110D01*
X87680327Y-85712000D01*
X87879673Y-85712000D01*
X88075190Y-85673110D01*
X88259362Y-85596823D01*
X88375654Y-85519119D01*
X87971774Y-85923000D01*
X86161880Y-85923000D01*
X86743487Y-85341394D01*
X86757869Y-85329591D01*
X86804981Y-85272185D01*
X86839988Y-85206692D01*
X86850505Y-85172023D01*
X86861545Y-85135628D01*
X86862221Y-85128769D01*
X86883177Y-85179362D01*
G37*
X86883177Y-85179362D02*
X86993928Y-85345113D01*
X87134887Y-85486072D01*
X87300638Y-85596823D01*
X87484810Y-85673110D01*
X87680327Y-85712000D01*
X87879673Y-85712000D01*
X88075190Y-85673110D01*
X88259362Y-85596823D01*
X88375654Y-85519119D01*
X87971774Y-85923000D01*
X86161880Y-85923000D01*
X86743487Y-85341394D01*
X86757869Y-85329591D01*
X86804981Y-85272185D01*
X86839988Y-85206692D01*
X86850505Y-85172023D01*
X86861545Y-85135628D01*
X86862221Y-85128769D01*
X86883177Y-85179362D01*
G36*
X53752191Y-84579256D02*
G01*
X53748000Y-84600327D01*
X53748000Y-84799673D01*
X53786890Y-84995190D01*
X53863177Y-85179362D01*
X53973928Y-85345113D01*
X54114887Y-85486072D01*
X54244984Y-85573000D01*
X53206141Y-85573000D01*
X53214087Y-85558134D01*
X53228382Y-85511008D01*
X53233209Y-85462000D01*
X53233209Y-84060273D01*
X53752191Y-84579256D01*
G37*
X53752191Y-84579256D02*
X53748000Y-84600327D01*
X53748000Y-84799673D01*
X53786890Y-84995190D01*
X53863177Y-85179362D01*
X53973928Y-85345113D01*
X54114887Y-85486072D01*
X54244984Y-85573000D01*
X53206141Y-85573000D01*
X53214087Y-85558134D01*
X53228382Y-85511008D01*
X53233209Y-85462000D01*
X53233209Y-84060273D01*
X53752191Y-84579256D01*
G36*
X88716980Y-85177793D02*
G01*
X88599120Y-85295654D01*
X88676823Y-85179362D01*
X88716980Y-85082415D01*
X88716980Y-85177793D01*
G37*
X88716980Y-85177793D02*
X88599120Y-85295654D01*
X88676823Y-85179362D01*
X88716980Y-85082415D01*
X88716980Y-85177793D01*
G36*
X88716980Y-84317585D02*
G01*
X88676823Y-84220638D01*
X88566072Y-84054887D01*
X88425113Y-83913928D01*
X88350435Y-83864030D01*
X88716980Y-83497485D01*
X88716980Y-84317585D01*
G37*
X88716980Y-84317585D02*
X88676823Y-84220638D01*
X88566072Y-84054887D01*
X88425113Y-83913928D01*
X88350435Y-83864030D01*
X88716980Y-83497485D01*
X88716980Y-84317585D01*
G36*
X89725000Y-57611841D02*
G01*
X88399677Y-56286519D01*
X88387869Y-56272131D01*
X88330463Y-56225019D01*
X88264970Y-56190012D01*
X88193905Y-56168455D01*
X88138519Y-56163000D01*
X88138512Y-56163000D01*
X88120000Y-56161177D01*
X88101488Y-56163000D01*
X69688512Y-56163000D01*
X69670000Y-56161177D01*
X69651488Y-56163000D01*
X69651481Y-56163000D01*
X69603054Y-56167770D01*
X69596094Y-56168455D01*
X69525030Y-56190012D01*
X69459537Y-56225019D01*
X69402131Y-56272131D01*
X69390328Y-56286513D01*
X67857552Y-57819290D01*
X67755190Y-57776890D01*
X67559673Y-57738000D01*
X67360327Y-57738000D01*
X67164810Y-57776890D01*
X66980638Y-57853177D01*
X66814887Y-57963928D01*
X66673928Y-58104887D01*
X66563177Y-58270638D01*
X66486890Y-58454810D01*
X66448000Y-58650327D01*
X66448000Y-58849673D01*
X66486890Y-59045190D01*
X66563177Y-59229362D01*
X66673928Y-59395113D01*
X66814887Y-59536072D01*
X66980638Y-59646823D01*
X67164810Y-59723110D01*
X67360327Y-59762000D01*
X67559673Y-59762000D01*
X67755190Y-59723110D01*
X67939362Y-59646823D01*
X68105113Y-59536072D01*
X68246072Y-59395113D01*
X68356823Y-59229362D01*
X68433110Y-59045190D01*
X68472000Y-58849673D01*
X68472000Y-58650327D01*
X68988000Y-58650327D01*
X68988000Y-58849673D01*
X69026890Y-59045190D01*
X69103177Y-59229362D01*
X69213928Y-59395113D01*
X69354887Y-59536072D01*
X69520638Y-59646823D01*
X69704810Y-59723110D01*
X69900327Y-59762000D01*
X70099673Y-59762000D01*
X70295190Y-59723110D01*
X70479362Y-59646823D01*
X70645113Y-59536072D01*
X70786072Y-59395113D01*
X70896823Y-59229362D01*
X70973110Y-59045190D01*
X71012000Y-58849673D01*
X71012000Y-58650327D01*
X70973110Y-58454810D01*
X70896823Y-58270638D01*
X70786072Y-58104887D01*
X70645113Y-57963928D01*
X70479362Y-57853177D01*
X70295190Y-57776890D01*
X70099673Y-57738000D01*
X69900327Y-57738000D01*
X69704810Y-57776890D01*
X69520638Y-57853177D01*
X69354887Y-57963928D01*
X69213928Y-58104887D01*
X69103177Y-58270638D01*
X69026890Y-58454810D01*
X68988000Y-58650327D01*
X68472000Y-58650327D01*
X68433110Y-58454810D01*
X68390710Y-58352448D01*
X69826159Y-56917000D01*
X73839842Y-56917000D01*
X72937552Y-57819290D01*
X72835190Y-57776890D01*
X72639673Y-57738000D01*
X72440327Y-57738000D01*
X72244810Y-57776890D01*
X72060638Y-57853177D01*
X71894887Y-57963928D01*
X71753928Y-58104887D01*
X71643177Y-58270638D01*
X71566890Y-58454810D01*
X71528000Y-58650327D01*
X71528000Y-58849673D01*
X71566890Y-59045190D01*
X71643177Y-59229362D01*
X71753928Y-59395113D01*
X71894887Y-59536072D01*
X72060638Y-59646823D01*
X72244810Y-59723110D01*
X72440327Y-59762000D01*
X72639673Y-59762000D01*
X72835190Y-59723110D01*
X73019362Y-59646823D01*
X73185113Y-59536072D01*
X73326072Y-59395113D01*
X73436823Y-59229362D01*
X73513110Y-59045190D01*
X73552000Y-58849673D01*
X73552000Y-58650327D01*
X74068000Y-58650327D01*
X74068000Y-58849673D01*
X74106890Y-59045190D01*
X74183177Y-59229362D01*
X74293928Y-59395113D01*
X74434887Y-59536072D01*
X74600638Y-59646823D01*
X74784810Y-59723110D01*
X74980327Y-59762000D01*
X75179673Y-59762000D01*
X75375190Y-59723110D01*
X75559362Y-59646823D01*
X75725113Y-59536072D01*
X75866072Y-59395113D01*
X75976823Y-59229362D01*
X76053110Y-59045190D01*
X76092000Y-58849673D01*
X76092000Y-58650327D01*
X76053110Y-58454810D01*
X75976823Y-58270638D01*
X75866072Y-58104887D01*
X75725113Y-57963928D01*
X75559362Y-57853177D01*
X75375190Y-57776890D01*
X75179673Y-57738000D01*
X74980327Y-57738000D01*
X74784810Y-57776890D01*
X74600638Y-57853177D01*
X74434887Y-57963928D01*
X74293928Y-58104887D01*
X74183177Y-58270638D01*
X74106890Y-58454810D01*
X74068000Y-58650327D01*
X73552000Y-58650327D01*
X73513110Y-58454810D01*
X73470710Y-58352448D01*
X74426158Y-57397000D01*
X78439841Y-57397000D01*
X78017552Y-57819290D01*
X77915190Y-57776890D01*
X77719673Y-57738000D01*
X77520327Y-57738000D01*
X77324810Y-57776890D01*
X77140638Y-57853177D01*
X76974887Y-57963928D01*
X76833928Y-58104887D01*
X76723177Y-58270638D01*
X76646890Y-58454810D01*
X76608000Y-58650327D01*
X76608000Y-58849673D01*
X76646890Y-59045190D01*
X76723177Y-59229362D01*
X76833928Y-59395113D01*
X76974887Y-59536072D01*
X77140638Y-59646823D01*
X77324810Y-59723110D01*
X77520327Y-59762000D01*
X77719673Y-59762000D01*
X77915190Y-59723110D01*
X78099362Y-59646823D01*
X78265113Y-59536072D01*
X78406072Y-59395113D01*
X78516823Y-59229362D01*
X78593110Y-59045190D01*
X78632000Y-58849673D01*
X78632000Y-58650327D01*
X78593110Y-58454810D01*
X78550710Y-58352448D01*
X79046159Y-57857000D01*
X79674916Y-57857000D01*
X79514887Y-57963928D01*
X79373928Y-58104887D01*
X79263177Y-58270638D01*
X79186890Y-58454810D01*
X79148000Y-58650327D01*
X79148000Y-58849673D01*
X79186890Y-59045190D01*
X79263177Y-59229362D01*
X79373928Y-59395113D01*
X79514887Y-59536072D01*
X79680638Y-59646823D01*
X79864810Y-59723110D01*
X80060327Y-59762000D01*
X80259673Y-59762000D01*
X80455190Y-59723110D01*
X80639362Y-59646823D01*
X80805113Y-59536072D01*
X80946072Y-59395113D01*
X81056823Y-59229362D01*
X81133110Y-59045190D01*
X81172000Y-58849673D01*
X81172000Y-58650327D01*
X81133110Y-58454810D01*
X81056823Y-58270638D01*
X80946072Y-58104887D01*
X80805113Y-57963928D01*
X80645084Y-57857000D01*
X82214916Y-57857000D01*
X82054887Y-57963928D01*
X81913928Y-58104887D01*
X81803177Y-58270638D01*
X81726890Y-58454810D01*
X81688000Y-58650327D01*
X81688000Y-58849673D01*
X81726890Y-59045190D01*
X81803177Y-59229362D01*
X81913928Y-59395113D01*
X82054887Y-59536072D01*
X82220638Y-59646823D01*
X82404810Y-59723110D01*
X82600327Y-59762000D01*
X82799673Y-59762000D01*
X82995190Y-59723110D01*
X83097552Y-59680710D01*
X83891842Y-60475000D01*
X53747713Y-60475000D01*
X53758587Y-60466075D01*
X53802222Y-60452839D01*
X53900810Y-60400142D01*
X53987223Y-60329225D01*
X54004993Y-60307572D01*
X54568776Y-59743790D01*
X54660327Y-59762000D01*
X54859673Y-59762000D01*
X55055190Y-59723110D01*
X55239362Y-59646823D01*
X55405113Y-59536072D01*
X55546072Y-59395113D01*
X55656823Y-59229362D01*
X55733110Y-59045190D01*
X55772000Y-58849673D01*
X55772000Y-58650327D01*
X55733110Y-58454810D01*
X55656823Y-58270638D01*
X55546072Y-58104887D01*
X55405113Y-57963928D01*
X55364812Y-57937000D01*
X56695188Y-57937000D01*
X56654887Y-57963928D01*
X56513928Y-58104887D01*
X56403177Y-58270638D01*
X56326890Y-58454810D01*
X56288000Y-58650327D01*
X56288000Y-58849673D01*
X56326890Y-59045190D01*
X56403177Y-59229362D01*
X56513928Y-59395113D01*
X56654887Y-59536072D01*
X56820638Y-59646823D01*
X57004810Y-59723110D01*
X57200327Y-59762000D01*
X57399673Y-59762000D01*
X57595190Y-59723110D01*
X57779362Y-59646823D01*
X57945113Y-59536072D01*
X58086072Y-59395113D01*
X58196823Y-59229362D01*
X58273110Y-59045190D01*
X58312000Y-58849673D01*
X58312000Y-58650327D01*
X58273110Y-58454810D01*
X58196823Y-58270638D01*
X58086072Y-58104887D01*
X57945113Y-57963928D01*
X57904812Y-57937000D01*
X58493842Y-57937000D01*
X58909290Y-58352448D01*
X58866890Y-58454810D01*
X58828000Y-58650327D01*
X58828000Y-58849673D01*
X58866890Y-59045190D01*
X58943177Y-59229362D01*
X59053928Y-59395113D01*
X59194887Y-59536072D01*
X59360638Y-59646823D01*
X59544810Y-59723110D01*
X59740327Y-59762000D01*
X59939673Y-59762000D01*
X60135190Y-59723110D01*
X60319362Y-59646823D01*
X60485113Y-59536072D01*
X60626072Y-59395113D01*
X60736823Y-59229362D01*
X60813110Y-59045190D01*
X60852000Y-58849673D01*
X60852000Y-58650327D01*
X61368000Y-58650327D01*
X61368000Y-58849673D01*
X61406890Y-59045190D01*
X61483177Y-59229362D01*
X61593928Y-59395113D01*
X61734887Y-59536072D01*
X61900638Y-59646823D01*
X62084810Y-59723110D01*
X62280327Y-59762000D01*
X62479673Y-59762000D01*
X62675190Y-59723110D01*
X62859362Y-59646823D01*
X63025113Y-59536072D01*
X63166072Y-59395113D01*
X63276823Y-59229362D01*
X63353110Y-59045190D01*
X63392000Y-58849673D01*
X63392000Y-58650327D01*
X63353110Y-58454810D01*
X63276823Y-58270638D01*
X63166072Y-58104887D01*
X63025113Y-57963928D01*
X62859362Y-57853177D01*
X62675190Y-57776890D01*
X62479673Y-57738000D01*
X62280327Y-57738000D01*
X62084810Y-57776890D01*
X61900638Y-57853177D01*
X61734887Y-57963928D01*
X61593928Y-58104887D01*
X61483177Y-58270638D01*
X61406890Y-58454810D01*
X61368000Y-58650327D01*
X60852000Y-58650327D01*
X60813110Y-58454810D01*
X60736823Y-58270638D01*
X60626072Y-58104887D01*
X60485113Y-57963928D01*
X60319362Y-57853177D01*
X60135190Y-57776890D01*
X59939673Y-57738000D01*
X59740327Y-57738000D01*
X59544810Y-57776890D01*
X59442448Y-57819290D01*
X59010158Y-57387000D01*
X63023842Y-57387000D01*
X63989290Y-58352448D01*
X63946890Y-58454810D01*
X63908000Y-58650327D01*
X63908000Y-58849673D01*
X63946890Y-59045190D01*
X64023177Y-59229362D01*
X64133928Y-59395113D01*
X64274887Y-59536072D01*
X64440638Y-59646823D01*
X64624810Y-59723110D01*
X64820327Y-59762000D01*
X65019673Y-59762000D01*
X65215190Y-59723110D01*
X65399362Y-59646823D01*
X65565113Y-59536072D01*
X65706072Y-59395113D01*
X65816823Y-59229362D01*
X65893110Y-59045190D01*
X65932000Y-58849673D01*
X65932000Y-58650327D01*
X65893110Y-58454810D01*
X65816823Y-58270638D01*
X65706072Y-58104887D01*
X65565113Y-57963928D01*
X65399362Y-57853177D01*
X65215190Y-57776890D01*
X65019673Y-57738000D01*
X64820327Y-57738000D01*
X64624810Y-57776890D01*
X64522448Y-57819290D01*
X63459677Y-56756519D01*
X63447869Y-56742131D01*
X63390463Y-56695019D01*
X63324970Y-56660012D01*
X63253905Y-56638455D01*
X63198519Y-56633000D01*
X63198512Y-56633000D01*
X63180000Y-56631177D01*
X63161488Y-56633000D01*
X50470529Y-56633000D01*
X50452010Y-56631176D01*
X50433491Y-56633000D01*
X50378105Y-56638455D01*
X50307040Y-56660012D01*
X50275000Y-56677138D01*
X50275000Y-50275000D01*
X89725000Y-50275000D01*
X89725000Y-57611841D01*
G37*
X89725000Y-57611841D02*
X88399677Y-56286519D01*
X88387869Y-56272131D01*
X88330463Y-56225019D01*
X88264970Y-56190012D01*
X88193905Y-56168455D01*
X88138519Y-56163000D01*
X88138512Y-56163000D01*
X88120000Y-56161177D01*
X88101488Y-56163000D01*
X69688512Y-56163000D01*
X69670000Y-56161177D01*
X69651488Y-56163000D01*
X69651481Y-56163000D01*
X69603054Y-56167770D01*
X69596094Y-56168455D01*
X69525030Y-56190012D01*
X69459537Y-56225019D01*
X69402131Y-56272131D01*
X69390328Y-56286513D01*
X67857552Y-57819290D01*
X67755190Y-57776890D01*
X67559673Y-57738000D01*
X67360327Y-57738000D01*
X67164810Y-57776890D01*
X66980638Y-57853177D01*
X66814887Y-57963928D01*
X66673928Y-58104887D01*
X66563177Y-58270638D01*
X66486890Y-58454810D01*
X66448000Y-58650327D01*
X66448000Y-58849673D01*
X66486890Y-59045190D01*
X66563177Y-59229362D01*
X66673928Y-59395113D01*
X66814887Y-59536072D01*
X66980638Y-59646823D01*
X67164810Y-59723110D01*
X67360327Y-59762000D01*
X67559673Y-59762000D01*
X67755190Y-59723110D01*
X67939362Y-59646823D01*
X68105113Y-59536072D01*
X68246072Y-59395113D01*
X68356823Y-59229362D01*
X68433110Y-59045190D01*
X68472000Y-58849673D01*
X68472000Y-58650327D01*
X68988000Y-58650327D01*
X68988000Y-58849673D01*
X69026890Y-59045190D01*
X69103177Y-59229362D01*
X69213928Y-59395113D01*
X69354887Y-59536072D01*
X69520638Y-59646823D01*
X69704810Y-59723110D01*
X69900327Y-59762000D01*
X70099673Y-59762000D01*
X70295190Y-59723110D01*
X70479362Y-59646823D01*
X70645113Y-59536072D01*
X70786072Y-59395113D01*
X70896823Y-59229362D01*
X70973110Y-59045190D01*
X71012000Y-58849673D01*
X71012000Y-58650327D01*
X70973110Y-58454810D01*
X70896823Y-58270638D01*
X70786072Y-58104887D01*
X70645113Y-57963928D01*
X70479362Y-57853177D01*
X70295190Y-57776890D01*
X70099673Y-57738000D01*
X69900327Y-57738000D01*
X69704810Y-57776890D01*
X69520638Y-57853177D01*
X69354887Y-57963928D01*
X69213928Y-58104887D01*
X69103177Y-58270638D01*
X69026890Y-58454810D01*
X68988000Y-58650327D01*
X68472000Y-58650327D01*
X68433110Y-58454810D01*
X68390710Y-58352448D01*
X69826159Y-56917000D01*
X73839842Y-56917000D01*
X72937552Y-57819290D01*
X72835190Y-57776890D01*
X72639673Y-57738000D01*
X72440327Y-57738000D01*
X72244810Y-57776890D01*
X72060638Y-57853177D01*
X71894887Y-57963928D01*
X71753928Y-58104887D01*
X71643177Y-58270638D01*
X71566890Y-58454810D01*
X71528000Y-58650327D01*
X71528000Y-58849673D01*
X71566890Y-59045190D01*
X71643177Y-59229362D01*
X71753928Y-59395113D01*
X71894887Y-59536072D01*
X72060638Y-59646823D01*
X72244810Y-59723110D01*
X72440327Y-59762000D01*
X72639673Y-59762000D01*
X72835190Y-59723110D01*
X73019362Y-59646823D01*
X73185113Y-59536072D01*
X73326072Y-59395113D01*
X73436823Y-59229362D01*
X73513110Y-59045190D01*
X73552000Y-58849673D01*
X73552000Y-58650327D01*
X74068000Y-58650327D01*
X74068000Y-58849673D01*
X74106890Y-59045190D01*
X74183177Y-59229362D01*
X74293928Y-59395113D01*
X74434887Y-59536072D01*
X74600638Y-59646823D01*
X74784810Y-59723110D01*
X74980327Y-59762000D01*
X75179673Y-59762000D01*
X75375190Y-59723110D01*
X75559362Y-59646823D01*
X75725113Y-59536072D01*
X75866072Y-59395113D01*
X75976823Y-59229362D01*
X76053110Y-59045190D01*
X76092000Y-58849673D01*
X76092000Y-58650327D01*
X76053110Y-58454810D01*
X75976823Y-58270638D01*
X75866072Y-58104887D01*
X75725113Y-57963928D01*
X75559362Y-57853177D01*
X75375190Y-57776890D01*
X75179673Y-57738000D01*
X74980327Y-57738000D01*
X74784810Y-57776890D01*
X74600638Y-57853177D01*
X74434887Y-57963928D01*
X74293928Y-58104887D01*
X74183177Y-58270638D01*
X74106890Y-58454810D01*
X74068000Y-58650327D01*
X73552000Y-58650327D01*
X73513110Y-58454810D01*
X73470710Y-58352448D01*
X74426158Y-57397000D01*
X78439841Y-57397000D01*
X78017552Y-57819290D01*
X77915190Y-57776890D01*
X77719673Y-57738000D01*
X77520327Y-57738000D01*
X77324810Y-57776890D01*
X77140638Y-57853177D01*
X76974887Y-57963928D01*
X76833928Y-58104887D01*
X76723177Y-58270638D01*
X76646890Y-58454810D01*
X76608000Y-58650327D01*
X76608000Y-58849673D01*
X76646890Y-59045190D01*
X76723177Y-59229362D01*
X76833928Y-59395113D01*
X76974887Y-59536072D01*
X77140638Y-59646823D01*
X77324810Y-59723110D01*
X77520327Y-59762000D01*
X77719673Y-59762000D01*
X77915190Y-59723110D01*
X78099362Y-59646823D01*
X78265113Y-59536072D01*
X78406072Y-59395113D01*
X78516823Y-59229362D01*
X78593110Y-59045190D01*
X78632000Y-58849673D01*
X78632000Y-58650327D01*
X78593110Y-58454810D01*
X78550710Y-58352448D01*
X79046159Y-57857000D01*
X79674916Y-57857000D01*
X79514887Y-57963928D01*
X79373928Y-58104887D01*
X79263177Y-58270638D01*
X79186890Y-58454810D01*
X79148000Y-58650327D01*
X79148000Y-58849673D01*
X79186890Y-59045190D01*
X79263177Y-59229362D01*
X79373928Y-59395113D01*
X79514887Y-59536072D01*
X79680638Y-59646823D01*
X79864810Y-59723110D01*
X80060327Y-59762000D01*
X80259673Y-59762000D01*
X80455190Y-59723110D01*
X80639362Y-59646823D01*
X80805113Y-59536072D01*
X80946072Y-59395113D01*
X81056823Y-59229362D01*
X81133110Y-59045190D01*
X81172000Y-58849673D01*
X81172000Y-58650327D01*
X81133110Y-58454810D01*
X81056823Y-58270638D01*
X80946072Y-58104887D01*
X80805113Y-57963928D01*
X80645084Y-57857000D01*
X82214916Y-57857000D01*
X82054887Y-57963928D01*
X81913928Y-58104887D01*
X81803177Y-58270638D01*
X81726890Y-58454810D01*
X81688000Y-58650327D01*
X81688000Y-58849673D01*
X81726890Y-59045190D01*
X81803177Y-59229362D01*
X81913928Y-59395113D01*
X82054887Y-59536072D01*
X82220638Y-59646823D01*
X82404810Y-59723110D01*
X82600327Y-59762000D01*
X82799673Y-59762000D01*
X82995190Y-59723110D01*
X83097552Y-59680710D01*
X83891842Y-60475000D01*
X53747713Y-60475000D01*
X53758587Y-60466075D01*
X53802222Y-60452839D01*
X53900810Y-60400142D01*
X53987223Y-60329225D01*
X54004993Y-60307572D01*
X54568776Y-59743790D01*
X54660327Y-59762000D01*
X54859673Y-59762000D01*
X55055190Y-59723110D01*
X55239362Y-59646823D01*
X55405113Y-59536072D01*
X55546072Y-59395113D01*
X55656823Y-59229362D01*
X55733110Y-59045190D01*
X55772000Y-58849673D01*
X55772000Y-58650327D01*
X55733110Y-58454810D01*
X55656823Y-58270638D01*
X55546072Y-58104887D01*
X55405113Y-57963928D01*
X55364812Y-57937000D01*
X56695188Y-57937000D01*
X56654887Y-57963928D01*
X56513928Y-58104887D01*
X56403177Y-58270638D01*
X56326890Y-58454810D01*
X56288000Y-58650327D01*
X56288000Y-58849673D01*
X56326890Y-59045190D01*
X56403177Y-59229362D01*
X56513928Y-59395113D01*
X56654887Y-59536072D01*
X56820638Y-59646823D01*
X57004810Y-59723110D01*
X57200327Y-59762000D01*
X57399673Y-59762000D01*
X57595190Y-59723110D01*
X57779362Y-59646823D01*
X57945113Y-59536072D01*
X58086072Y-59395113D01*
X58196823Y-59229362D01*
X58273110Y-59045190D01*
X58312000Y-58849673D01*
X58312000Y-58650327D01*
X58273110Y-58454810D01*
X58196823Y-58270638D01*
X58086072Y-58104887D01*
X57945113Y-57963928D01*
X57904812Y-57937000D01*
X58493842Y-57937000D01*
X58909290Y-58352448D01*
X58866890Y-58454810D01*
X58828000Y-58650327D01*
X58828000Y-58849673D01*
X58866890Y-59045190D01*
X58943177Y-59229362D01*
X59053928Y-59395113D01*
X59194887Y-59536072D01*
X59360638Y-59646823D01*
X59544810Y-59723110D01*
X59740327Y-59762000D01*
X59939673Y-59762000D01*
X60135190Y-59723110D01*
X60319362Y-59646823D01*
X60485113Y-59536072D01*
X60626072Y-59395113D01*
X60736823Y-59229362D01*
X60813110Y-59045190D01*
X60852000Y-58849673D01*
X60852000Y-58650327D01*
X61368000Y-58650327D01*
X61368000Y-58849673D01*
X61406890Y-59045190D01*
X61483177Y-59229362D01*
X61593928Y-59395113D01*
X61734887Y-59536072D01*
X61900638Y-59646823D01*
X62084810Y-59723110D01*
X62280327Y-59762000D01*
X62479673Y-59762000D01*
X62675190Y-59723110D01*
X62859362Y-59646823D01*
X63025113Y-59536072D01*
X63166072Y-59395113D01*
X63276823Y-59229362D01*
X63353110Y-59045190D01*
X63392000Y-58849673D01*
X63392000Y-58650327D01*
X63353110Y-58454810D01*
X63276823Y-58270638D01*
X63166072Y-58104887D01*
X63025113Y-57963928D01*
X62859362Y-57853177D01*
X62675190Y-57776890D01*
X62479673Y-57738000D01*
X62280327Y-57738000D01*
X62084810Y-57776890D01*
X61900638Y-57853177D01*
X61734887Y-57963928D01*
X61593928Y-58104887D01*
X61483177Y-58270638D01*
X61406890Y-58454810D01*
X61368000Y-58650327D01*
X60852000Y-58650327D01*
X60813110Y-58454810D01*
X60736823Y-58270638D01*
X60626072Y-58104887D01*
X60485113Y-57963928D01*
X60319362Y-57853177D01*
X60135190Y-57776890D01*
X59939673Y-57738000D01*
X59740327Y-57738000D01*
X59544810Y-57776890D01*
X59442448Y-57819290D01*
X59010158Y-57387000D01*
X63023842Y-57387000D01*
X63989290Y-58352448D01*
X63946890Y-58454810D01*
X63908000Y-58650327D01*
X63908000Y-58849673D01*
X63946890Y-59045190D01*
X64023177Y-59229362D01*
X64133928Y-59395113D01*
X64274887Y-59536072D01*
X64440638Y-59646823D01*
X64624810Y-59723110D01*
X64820327Y-59762000D01*
X65019673Y-59762000D01*
X65215190Y-59723110D01*
X65399362Y-59646823D01*
X65565113Y-59536072D01*
X65706072Y-59395113D01*
X65816823Y-59229362D01*
X65893110Y-59045190D01*
X65932000Y-58849673D01*
X65932000Y-58650327D01*
X65893110Y-58454810D01*
X65816823Y-58270638D01*
X65706072Y-58104887D01*
X65565113Y-57963928D01*
X65399362Y-57853177D01*
X65215190Y-57776890D01*
X65019673Y-57738000D01*
X64820327Y-57738000D01*
X64624810Y-57776890D01*
X64522448Y-57819290D01*
X63459677Y-56756519D01*
X63447869Y-56742131D01*
X63390463Y-56695019D01*
X63324970Y-56660012D01*
X63253905Y-56638455D01*
X63198519Y-56633000D01*
X63198512Y-56633000D01*
X63180000Y-56631177D01*
X63161488Y-56633000D01*
X50470529Y-56633000D01*
X50452010Y-56631176D01*
X50433491Y-56633000D01*
X50378105Y-56638455D01*
X50307040Y-56660012D01*
X50275000Y-56677138D01*
X50275000Y-50275000D01*
X89725000Y-50275000D01*
X89725000Y-57611841D01*
G36*
X88716979Y-59952514D02*
G01*
X88354958Y-59590494D01*
X88350958Y-59585620D01*
X88425113Y-59536072D01*
X88566072Y-59395113D01*
X88676823Y-59229362D01*
X88716979Y-59132417D01*
X88716979Y-59952514D01*
G37*
X88716979Y-59952514D02*
X88354958Y-59590494D01*
X88350958Y-59585620D01*
X88425113Y-59536072D01*
X88566072Y-59395113D01*
X88676823Y-59229362D01*
X88716979Y-59132417D01*
X88716979Y-59952514D01*
G36*
X88256952Y-57852179D02*
G01*
X88075190Y-57776890D01*
X87879673Y-57738000D01*
X87680327Y-57738000D01*
X87484810Y-57776890D01*
X87300638Y-57853177D01*
X87134887Y-57963928D01*
X86993928Y-58104887D01*
X86883177Y-58270638D01*
X86806890Y-58454810D01*
X86768000Y-58650327D01*
X86768000Y-58849673D01*
X86806890Y-59045190D01*
X86883177Y-59229362D01*
X86993928Y-59395113D01*
X87065795Y-59466980D01*
X85954205Y-59466980D01*
X86026072Y-59395113D01*
X86136823Y-59229362D01*
X86213110Y-59045190D01*
X86252000Y-58849673D01*
X86252000Y-58650327D01*
X86213110Y-58454810D01*
X86136823Y-58270638D01*
X86026072Y-58104887D01*
X85885113Y-57963928D01*
X85719362Y-57853177D01*
X85535190Y-57776890D01*
X85339673Y-57738000D01*
X85140327Y-57738000D01*
X84944810Y-57776890D01*
X84760638Y-57853177D01*
X84594887Y-57963928D01*
X84453928Y-58104887D01*
X84357000Y-58249950D01*
X84357000Y-58218519D01*
X84358824Y-58200000D01*
X84351545Y-58126094D01*
X84329988Y-58055030D01*
X84306494Y-58011077D01*
X84294981Y-57989537D01*
X84273964Y-57963928D01*
X84259674Y-57946515D01*
X84259672Y-57946513D01*
X84247869Y-57932131D01*
X84233488Y-57920329D01*
X83710158Y-57397000D01*
X87801774Y-57397000D01*
X88256952Y-57852179D01*
G37*
X88256952Y-57852179D02*
X88075190Y-57776890D01*
X87879673Y-57738000D01*
X87680327Y-57738000D01*
X87484810Y-57776890D01*
X87300638Y-57853177D01*
X87134887Y-57963928D01*
X86993928Y-58104887D01*
X86883177Y-58270638D01*
X86806890Y-58454810D01*
X86768000Y-58650327D01*
X86768000Y-58849673D01*
X86806890Y-59045190D01*
X86883177Y-59229362D01*
X86993928Y-59395113D01*
X87065795Y-59466980D01*
X85954205Y-59466980D01*
X86026072Y-59395113D01*
X86136823Y-59229362D01*
X86213110Y-59045190D01*
X86252000Y-58849673D01*
X86252000Y-58650327D01*
X86213110Y-58454810D01*
X86136823Y-58270638D01*
X86026072Y-58104887D01*
X85885113Y-57963928D01*
X85719362Y-57853177D01*
X85535190Y-57776890D01*
X85339673Y-57738000D01*
X85140327Y-57738000D01*
X84944810Y-57776890D01*
X84760638Y-57853177D01*
X84594887Y-57963928D01*
X84453928Y-58104887D01*
X84357000Y-58249950D01*
X84357000Y-58218519D01*
X84358824Y-58200000D01*
X84351545Y-58126094D01*
X84329988Y-58055030D01*
X84306494Y-58011077D01*
X84294981Y-57989537D01*
X84273964Y-57963928D01*
X84259674Y-57946515D01*
X84259672Y-57946513D01*
X84247869Y-57932131D01*
X84233488Y-57920329D01*
X83710158Y-57397000D01*
X87801774Y-57397000D01*
X88256952Y-57852179D01*
G36*
X54114887Y-57963928D02*
G01*
X53973928Y-58104887D01*
X53863177Y-58270638D01*
X53786890Y-58454810D01*
X53748000Y-58650327D01*
X53748000Y-58849673D01*
X53766210Y-58941224D01*
X53320026Y-59387409D01*
X53281278Y-59399163D01*
X53233209Y-59424857D01*
X53233209Y-57988000D01*
X53228382Y-57938992D01*
X53227778Y-57937000D01*
X54155188Y-57937000D01*
X54114887Y-57963928D01*
G37*
X54114887Y-57963928D02*
X53973928Y-58104887D01*
X53863177Y-58270638D01*
X53786890Y-58454810D01*
X53748000Y-58650327D01*
X53748000Y-58849673D01*
X53766210Y-58941224D01*
X53320026Y-59387409D01*
X53281278Y-59399163D01*
X53233209Y-59424857D01*
X53233209Y-57988000D01*
X53228382Y-57938992D01*
X53227778Y-57937000D01*
X54155188Y-57937000D01*
X54114887Y-57963928D01*
G36*
X88716979Y-58312206D02*
G01*
X88716979Y-58367583D01*
X88677821Y-58273048D01*
X88716979Y-58312206D01*
G37*
X88716979Y-58312206D02*
X88716979Y-58367583D01*
X88677821Y-58273048D01*
X88716979Y-58312206D01*
M02*
