%TF.GenerationSoftware,KiCad,Pcbnew,7.0.2-6a45011f42~172~ubuntu22.04.1*%
%TF.CreationDate,2023-05-29T16:44:42-07:00*%
%TF.ProjectId,comm_v0p4,636f6d6d-5f76-4307-9034-2e6b69636164,rev?*%
%TF.SameCoordinates,Original*%
%TF.FileFunction,Legend,Top*%
%TF.FilePolarity,Positive*%
%FSLAX46Y46*%
G04 Gerber Fmt 4.6, Leading zero omitted, Abs format (unit mm)*
G04 Created by KiCad (PCBNEW 7.0.2-6a45011f42~172~ubuntu22.04.1) date 2023-05-29 16:44:42*
%MOMM*%
%LPD*%
G01*
G04 APERTURE LIST*
%ADD10C,0.150000*%
%ADD11C,0.120000*%
G04 APERTURE END LIST*
D10*
%TO.C,J4*%
X56257866Y-66874219D02*
X56257866Y-67588504D01*
X56257866Y-67588504D02*
X56210247Y-67731361D01*
X56210247Y-67731361D02*
X56115009Y-67826600D01*
X56115009Y-67826600D02*
X55972152Y-67874219D01*
X55972152Y-67874219D02*
X55876914Y-67874219D01*
X57162628Y-67207552D02*
X57162628Y-67874219D01*
X56924533Y-66826600D02*
X56686438Y-67540885D01*
X56686438Y-67540885D02*
X57305485Y-67540885D01*
%TO.C,J6*%
X83105666Y-66950419D02*
X83105666Y-67664704D01*
X83105666Y-67664704D02*
X83058047Y-67807561D01*
X83058047Y-67807561D02*
X82962809Y-67902800D01*
X82962809Y-67902800D02*
X82819952Y-67950419D01*
X82819952Y-67950419D02*
X82724714Y-67950419D01*
X84010428Y-66950419D02*
X83819952Y-66950419D01*
X83819952Y-66950419D02*
X83724714Y-66998038D01*
X83724714Y-66998038D02*
X83677095Y-67045657D01*
X83677095Y-67045657D02*
X83581857Y-67188514D01*
X83581857Y-67188514D02*
X83534238Y-67378990D01*
X83534238Y-67378990D02*
X83534238Y-67759942D01*
X83534238Y-67759942D02*
X83581857Y-67855180D01*
X83581857Y-67855180D02*
X83629476Y-67902800D01*
X83629476Y-67902800D02*
X83724714Y-67950419D01*
X83724714Y-67950419D02*
X83915190Y-67950419D01*
X83915190Y-67950419D02*
X84010428Y-67902800D01*
X84010428Y-67902800D02*
X84058047Y-67855180D01*
X84058047Y-67855180D02*
X84105666Y-67759942D01*
X84105666Y-67759942D02*
X84105666Y-67521847D01*
X84105666Y-67521847D02*
X84058047Y-67426609D01*
X84058047Y-67426609D02*
X84010428Y-67378990D01*
X84010428Y-67378990D02*
X83915190Y-67331371D01*
X83915190Y-67331371D02*
X83724714Y-67331371D01*
X83724714Y-67331371D02*
X83629476Y-67378990D01*
X83629476Y-67378990D02*
X83581857Y-67426609D01*
X83581857Y-67426609D02*
X83534238Y-67521847D01*
%TO.C,J5*%
X56166666Y-74922619D02*
X56166666Y-75636904D01*
X56166666Y-75636904D02*
X56119047Y-75779761D01*
X56119047Y-75779761D02*
X56023809Y-75875000D01*
X56023809Y-75875000D02*
X55880952Y-75922619D01*
X55880952Y-75922619D02*
X55785714Y-75922619D01*
X57119047Y-74922619D02*
X56642857Y-74922619D01*
X56642857Y-74922619D02*
X56595238Y-75398809D01*
X56595238Y-75398809D02*
X56642857Y-75351190D01*
X56642857Y-75351190D02*
X56738095Y-75303571D01*
X56738095Y-75303571D02*
X56976190Y-75303571D01*
X56976190Y-75303571D02*
X57071428Y-75351190D01*
X57071428Y-75351190D02*
X57119047Y-75398809D01*
X57119047Y-75398809D02*
X57166666Y-75494047D01*
X57166666Y-75494047D02*
X57166666Y-75732142D01*
X57166666Y-75732142D02*
X57119047Y-75827380D01*
X57119047Y-75827380D02*
X57071428Y-75875000D01*
X57071428Y-75875000D02*
X56976190Y-75922619D01*
X56976190Y-75922619D02*
X56738095Y-75922619D01*
X56738095Y-75922619D02*
X56642857Y-75875000D01*
X56642857Y-75875000D02*
X56595238Y-75827380D01*
%TO.C,J7*%
X83166666Y-74922619D02*
X83166666Y-75636904D01*
X83166666Y-75636904D02*
X83119047Y-75779761D01*
X83119047Y-75779761D02*
X83023809Y-75875000D01*
X83023809Y-75875000D02*
X82880952Y-75922619D01*
X82880952Y-75922619D02*
X82785714Y-75922619D01*
X83547619Y-74922619D02*
X84214285Y-74922619D01*
X84214285Y-74922619D02*
X83785714Y-75922619D01*
%TO.C,R5*%
X74001333Y-65037019D02*
X73668000Y-64560828D01*
X73429905Y-65037019D02*
X73429905Y-64037019D01*
X73429905Y-64037019D02*
X73810857Y-64037019D01*
X73810857Y-64037019D02*
X73906095Y-64084638D01*
X73906095Y-64084638D02*
X73953714Y-64132257D01*
X73953714Y-64132257D02*
X74001333Y-64227495D01*
X74001333Y-64227495D02*
X74001333Y-64370352D01*
X74001333Y-64370352D02*
X73953714Y-64465590D01*
X73953714Y-64465590D02*
X73906095Y-64513209D01*
X73906095Y-64513209D02*
X73810857Y-64560828D01*
X73810857Y-64560828D02*
X73429905Y-64560828D01*
X74906095Y-64037019D02*
X74429905Y-64037019D01*
X74429905Y-64037019D02*
X74382286Y-64513209D01*
X74382286Y-64513209D02*
X74429905Y-64465590D01*
X74429905Y-64465590D02*
X74525143Y-64417971D01*
X74525143Y-64417971D02*
X74763238Y-64417971D01*
X74763238Y-64417971D02*
X74858476Y-64465590D01*
X74858476Y-64465590D02*
X74906095Y-64513209D01*
X74906095Y-64513209D02*
X74953714Y-64608447D01*
X74953714Y-64608447D02*
X74953714Y-64846542D01*
X74953714Y-64846542D02*
X74906095Y-64941780D01*
X74906095Y-64941780D02*
X74858476Y-64989400D01*
X74858476Y-64989400D02*
X74763238Y-65037019D01*
X74763238Y-65037019D02*
X74525143Y-65037019D01*
X74525143Y-65037019D02*
X74429905Y-64989400D01*
X74429905Y-64989400D02*
X74382286Y-64941780D01*
%TO.C,J1*%
X88106666Y-81642619D02*
X88106666Y-82356904D01*
X88106666Y-82356904D02*
X88059047Y-82499761D01*
X88059047Y-82499761D02*
X87963809Y-82595000D01*
X87963809Y-82595000D02*
X87820952Y-82642619D01*
X87820952Y-82642619D02*
X87725714Y-82642619D01*
X89106666Y-82642619D02*
X88535238Y-82642619D01*
X88820952Y-82642619D02*
X88820952Y-81642619D01*
X88820952Y-81642619D02*
X88725714Y-81785476D01*
X88725714Y-81785476D02*
X88630476Y-81880714D01*
X88630476Y-81880714D02*
X88535238Y-81928333D01*
%TO.C,C2*%
X79068437Y-77464418D02*
X79068437Y-77531761D01*
X79068437Y-77531761D02*
X79001094Y-77666448D01*
X79001094Y-77666448D02*
X78933750Y-77733792D01*
X78933750Y-77733792D02*
X78799063Y-77801135D01*
X78799063Y-77801135D02*
X78664376Y-77801135D01*
X78664376Y-77801135D02*
X78563361Y-77767464D01*
X78563361Y-77767464D02*
X78395002Y-77666448D01*
X78395002Y-77666448D02*
X78293987Y-77565433D01*
X78293987Y-77565433D02*
X78192972Y-77397074D01*
X78192972Y-77397074D02*
X78159300Y-77296059D01*
X78159300Y-77296059D02*
X78159300Y-77161372D01*
X78159300Y-77161372D02*
X78226643Y-77026685D01*
X78226643Y-77026685D02*
X78293987Y-76959342D01*
X78293987Y-76959342D02*
X78428674Y-76891998D01*
X78428674Y-76891998D02*
X78496017Y-76891998D01*
X78765392Y-76622624D02*
X78765392Y-76555281D01*
X78765392Y-76555281D02*
X78799063Y-76454265D01*
X78799063Y-76454265D02*
X78967422Y-76285907D01*
X78967422Y-76285907D02*
X79068437Y-76252235D01*
X79068437Y-76252235D02*
X79135781Y-76252235D01*
X79135781Y-76252235D02*
X79236796Y-76285907D01*
X79236796Y-76285907D02*
X79304140Y-76353250D01*
X79304140Y-76353250D02*
X79371483Y-76487937D01*
X79371483Y-76487937D02*
X79371483Y-77296059D01*
X79371483Y-77296059D02*
X79809216Y-76858326D01*
%TO.C,J2*%
X88036666Y-60372619D02*
X88036666Y-61086904D01*
X88036666Y-61086904D02*
X87989047Y-61229761D01*
X87989047Y-61229761D02*
X87893809Y-61325000D01*
X87893809Y-61325000D02*
X87750952Y-61372619D01*
X87750952Y-61372619D02*
X87655714Y-61372619D01*
X88465238Y-60467857D02*
X88512857Y-60420238D01*
X88512857Y-60420238D02*
X88608095Y-60372619D01*
X88608095Y-60372619D02*
X88846190Y-60372619D01*
X88846190Y-60372619D02*
X88941428Y-60420238D01*
X88941428Y-60420238D02*
X88989047Y-60467857D01*
X88989047Y-60467857D02*
X89036666Y-60563095D01*
X89036666Y-60563095D02*
X89036666Y-60658333D01*
X89036666Y-60658333D02*
X88989047Y-60801190D01*
X88989047Y-60801190D02*
X88417619Y-61372619D01*
X88417619Y-61372619D02*
X89036666Y-61372619D01*
%TO.C,U1*%
X78318885Y-69295218D02*
X77746465Y-69867638D01*
X77746465Y-69867638D02*
X77712794Y-69968653D01*
X77712794Y-69968653D02*
X77712794Y-70035996D01*
X77712794Y-70035996D02*
X77746465Y-70137012D01*
X77746465Y-70137012D02*
X77881152Y-70271699D01*
X77881152Y-70271699D02*
X77982168Y-70305370D01*
X77982168Y-70305370D02*
X78049511Y-70305370D01*
X78049511Y-70305370D02*
X78150526Y-70271699D01*
X78150526Y-70271699D02*
X78722946Y-69699279D01*
X78722946Y-71113492D02*
X78318885Y-70709431D01*
X78520916Y-70911462D02*
X79228022Y-70204355D01*
X79228022Y-70204355D02*
X79059664Y-70238027D01*
X79059664Y-70238027D02*
X78924977Y-70238027D01*
X78924977Y-70238027D02*
X78823961Y-70204355D01*
%TO.C,C1*%
X74275706Y-68551208D02*
X74275706Y-68618551D01*
X74275706Y-68618551D02*
X74208363Y-68753238D01*
X74208363Y-68753238D02*
X74141019Y-68820582D01*
X74141019Y-68820582D02*
X74006332Y-68887925D01*
X74006332Y-68887925D02*
X73871645Y-68887925D01*
X73871645Y-68887925D02*
X73770630Y-68854254D01*
X73770630Y-68854254D02*
X73602271Y-68753238D01*
X73602271Y-68753238D02*
X73501256Y-68652223D01*
X73501256Y-68652223D02*
X73400241Y-68483864D01*
X73400241Y-68483864D02*
X73366569Y-68382849D01*
X73366569Y-68382849D02*
X73366569Y-68248162D01*
X73366569Y-68248162D02*
X73433912Y-68113475D01*
X73433912Y-68113475D02*
X73501256Y-68046132D01*
X73501256Y-68046132D02*
X73635943Y-67978788D01*
X73635943Y-67978788D02*
X73703286Y-67978788D01*
X75016485Y-67945116D02*
X74612424Y-68349177D01*
X74814454Y-68147147D02*
X74107348Y-67440040D01*
X74107348Y-67440040D02*
X74141019Y-67608399D01*
X74141019Y-67608399D02*
X74141019Y-67743086D01*
X74141019Y-67743086D02*
X74107348Y-67844101D01*
%TO.C,Y1*%
X67626613Y-71337293D02*
X67963331Y-71674010D01*
X67020522Y-71202606D02*
X67626613Y-71337293D01*
X67626613Y-71337293D02*
X67491926Y-70731201D01*
X68805125Y-70832216D02*
X68401064Y-71236277D01*
X68603094Y-71034247D02*
X67895988Y-70327140D01*
X67895988Y-70327140D02*
X67929659Y-70495499D01*
X67929659Y-70495499D02*
X67929659Y-70630186D01*
X67929659Y-70630186D02*
X67895988Y-70731201D01*
D11*
%TO.C,J4*%
X53900000Y-60900000D02*
X53900000Y-62230000D01*
X53900000Y-63500000D02*
X53900000Y-66100000D01*
X55230000Y-60900000D02*
X53900000Y-60900000D01*
X56500000Y-60900000D02*
X56500000Y-63500000D01*
X56500000Y-63500000D02*
X53900000Y-63500000D01*
X59100000Y-60900000D02*
X56500000Y-60900000D01*
X59100000Y-60900000D02*
X59100000Y-66100000D01*
X59100000Y-66100000D02*
X53900000Y-66100000D01*
%TO.C,J6*%
X80900000Y-60900000D02*
X80900000Y-62230000D01*
X80900000Y-63500000D02*
X80900000Y-66100000D01*
X82230000Y-60900000D02*
X80900000Y-60900000D01*
X83500000Y-60900000D02*
X83500000Y-63500000D01*
X83500000Y-63500000D02*
X80900000Y-63500000D01*
X86100000Y-60900000D02*
X83500000Y-60900000D01*
X86100000Y-60900000D02*
X86100000Y-66100000D01*
X86100000Y-66100000D02*
X80900000Y-66100000D01*
%TO.C,J5*%
X53900000Y-76900000D02*
X53900000Y-78230000D01*
X53900000Y-79500000D02*
X53900000Y-82100000D01*
X55230000Y-76900000D02*
X53900000Y-76900000D01*
X56500000Y-76900000D02*
X56500000Y-79500000D01*
X56500000Y-79500000D02*
X53900000Y-79500000D01*
X59100000Y-76900000D02*
X56500000Y-76900000D01*
X59100000Y-76900000D02*
X59100000Y-82100000D01*
X59100000Y-82100000D02*
X53900000Y-82100000D01*
%TO.C,J7*%
X80900000Y-76900000D02*
X80900000Y-78230000D01*
X80900000Y-79500000D02*
X80900000Y-82100000D01*
X82230000Y-76900000D02*
X80900000Y-76900000D01*
X83500000Y-76900000D02*
X83500000Y-79500000D01*
X83500000Y-79500000D02*
X80900000Y-79500000D01*
X86100000Y-76900000D02*
X83500000Y-76900000D01*
X86100000Y-76900000D02*
X86100000Y-82100000D01*
X86100000Y-82100000D02*
X80900000Y-82100000D01*
%TO.C,R5*%
X74405258Y-63666900D02*
X73930742Y-63666900D01*
X74405258Y-62621900D02*
X73930742Y-62621900D01*
%TO.C,J1*%
X89050000Y-83430000D02*
X89050000Y-84700000D01*
X87780000Y-83430000D02*
X89050000Y-83430000D01*
X85620000Y-85742929D02*
X85620000Y-86140000D01*
X84860000Y-85742929D02*
X84860000Y-86140000D01*
X83080000Y-85742929D02*
X83080000Y-86140000D01*
X82320000Y-85742929D02*
X82320000Y-86140000D01*
X80540000Y-85742929D02*
X80540000Y-86140000D01*
X79780000Y-85742929D02*
X79780000Y-86140000D01*
X78000000Y-85742929D02*
X78000000Y-86140000D01*
X77240000Y-85742929D02*
X77240000Y-86140000D01*
X75460000Y-85742929D02*
X75460000Y-86140000D01*
X74700000Y-85742929D02*
X74700000Y-86140000D01*
X72920000Y-85742929D02*
X72920000Y-86140000D01*
X72160000Y-85742929D02*
X72160000Y-86140000D01*
X70380000Y-85742929D02*
X70380000Y-86140000D01*
X69620000Y-85742929D02*
X69620000Y-86140000D01*
X67840000Y-85742929D02*
X67840000Y-86140000D01*
X67080000Y-85742929D02*
X67080000Y-86140000D01*
X65300000Y-85742929D02*
X65300000Y-86140000D01*
X64540000Y-85742929D02*
X64540000Y-86140000D01*
X62760000Y-85742929D02*
X62760000Y-86140000D01*
X62000000Y-85742929D02*
X62000000Y-86140000D01*
X60220000Y-85742929D02*
X60220000Y-86140000D01*
X59460000Y-85742929D02*
X59460000Y-86140000D01*
X57680000Y-85742929D02*
X57680000Y-86140000D01*
X56920000Y-85742929D02*
X56920000Y-86140000D01*
X55140000Y-85742929D02*
X55140000Y-86140000D01*
X54380000Y-85742929D02*
X54380000Y-86140000D01*
X52600000Y-85742929D02*
X52600000Y-86140000D01*
X51840000Y-85742929D02*
X51840000Y-86140000D01*
X88160000Y-85810000D02*
X88160000Y-86140000D01*
X87400000Y-85810000D02*
X87400000Y-86140000D01*
X89110000Y-86140000D02*
X50890000Y-86140000D01*
X86510000Y-86140000D02*
X86510000Y-88800000D01*
X83970000Y-86140000D02*
X83970000Y-88800000D01*
X81430000Y-86140000D02*
X81430000Y-88800000D01*
X78890000Y-86140000D02*
X78890000Y-88800000D01*
X76350000Y-86140000D02*
X76350000Y-88800000D01*
X73810000Y-86140000D02*
X73810000Y-88800000D01*
X71270000Y-86140000D02*
X71270000Y-88800000D01*
X68730000Y-86140000D02*
X68730000Y-88800000D01*
X66190000Y-86140000D02*
X66190000Y-88800000D01*
X63650000Y-86140000D02*
X63650000Y-88800000D01*
X61110000Y-86140000D02*
X61110000Y-88800000D01*
X58570000Y-86140000D02*
X58570000Y-88800000D01*
X56030000Y-86140000D02*
X56030000Y-88800000D01*
X53490000Y-86140000D02*
X53490000Y-88800000D01*
X50890000Y-86140000D02*
X50890000Y-88800000D01*
X89110000Y-88800000D02*
X89110000Y-86140000D01*
X88160000Y-88800000D02*
X88160000Y-89800000D01*
X88100000Y-88800000D02*
X88100000Y-89800000D01*
X87980000Y-88800000D02*
X87980000Y-89800000D01*
X87860000Y-88800000D02*
X87860000Y-89800000D01*
X87740000Y-88800000D02*
X87740000Y-89800000D01*
X87620000Y-88800000D02*
X87620000Y-89800000D01*
X87500000Y-88800000D02*
X87500000Y-89800000D01*
X85620000Y-88800000D02*
X85620000Y-89800000D01*
X83080000Y-88800000D02*
X83080000Y-89800000D01*
X80540000Y-88800000D02*
X80540000Y-89800000D01*
X78000000Y-88800000D02*
X78000000Y-89800000D01*
X75460000Y-88800000D02*
X75460000Y-89800000D01*
X72920000Y-88800000D02*
X72920000Y-89800000D01*
X70380000Y-88800000D02*
X70380000Y-89800000D01*
X67840000Y-88800000D02*
X67840000Y-89800000D01*
X65300000Y-88800000D02*
X65300000Y-89800000D01*
X62760000Y-88800000D02*
X62760000Y-89800000D01*
X60220000Y-88800000D02*
X60220000Y-89800000D01*
X57680000Y-88800000D02*
X57680000Y-89800000D01*
X55140000Y-88800000D02*
X55140000Y-89800000D01*
X52600000Y-88800000D02*
X52600000Y-89800000D01*
X50890000Y-88800000D02*
X89110000Y-88800000D01*
X88160000Y-89800000D02*
X87400000Y-89800000D01*
X87400000Y-89800000D02*
X87400000Y-88800000D01*
X85620000Y-89800000D02*
X84860000Y-89800000D01*
X84860000Y-89800000D02*
X84860000Y-88800000D01*
X83080000Y-89800000D02*
X82320000Y-89800000D01*
X82320000Y-89800000D02*
X82320000Y-88800000D01*
X80540000Y-89800000D02*
X79780000Y-89800000D01*
X79780000Y-89800000D02*
X79780000Y-88800000D01*
X78000000Y-89800000D02*
X77240000Y-89800000D01*
X77240000Y-89800000D02*
X77240000Y-88800000D01*
X75460000Y-89800000D02*
X74700000Y-89800000D01*
X74700000Y-89800000D02*
X74700000Y-88800000D01*
X72920000Y-89800000D02*
X72160000Y-89800000D01*
X72160000Y-89800000D02*
X72160000Y-88800000D01*
X70380000Y-89800000D02*
X69620000Y-89800000D01*
X69620000Y-89800000D02*
X69620000Y-88800000D01*
X67840000Y-89800000D02*
X67080000Y-89800000D01*
X67080000Y-89800000D02*
X67080000Y-88800000D01*
X65300000Y-89800000D02*
X64540000Y-89800000D01*
X64540000Y-89800000D02*
X64540000Y-88800000D01*
X62760000Y-89800000D02*
X62000000Y-89800000D01*
X62000000Y-89800000D02*
X62000000Y-88800000D01*
X60220000Y-89800000D02*
X59460000Y-89800000D01*
X59460000Y-89800000D02*
X59460000Y-88800000D01*
X57680000Y-89800000D02*
X56920000Y-89800000D01*
X56920000Y-89800000D02*
X56920000Y-88800000D01*
X55140000Y-89800000D02*
X54380000Y-89800000D01*
X54380000Y-89800000D02*
X54380000Y-88800000D01*
X52600000Y-89800000D02*
X51840000Y-89800000D01*
X51840000Y-89800000D02*
X51840000Y-88800000D01*
%TO.C,C2*%
X78156290Y-75487893D02*
X78308793Y-75335390D01*
X78665407Y-75997010D02*
X78817910Y-75844507D01*
%TO.C,J2*%
X89110000Y-50290000D02*
X50890000Y-50290000D01*
X89110000Y-50290000D02*
X89110000Y-57290000D01*
X88990000Y-50290000D02*
X88990000Y-57290000D01*
X88871905Y-50290000D02*
X88871905Y-57290000D01*
X88753810Y-50290000D02*
X88753810Y-57290000D01*
X88635715Y-50290000D02*
X88635715Y-57290000D01*
X88517620Y-50290000D02*
X88517620Y-57290000D01*
X88399525Y-50290000D02*
X88399525Y-57290000D01*
X88281430Y-50290000D02*
X88281430Y-57290000D01*
X88163335Y-50290000D02*
X88163335Y-57290000D01*
X88045240Y-50290000D02*
X88045240Y-57290000D01*
X87927145Y-50290000D02*
X87927145Y-57290000D01*
X87809050Y-50290000D02*
X87809050Y-57290000D01*
X87690955Y-50290000D02*
X87690955Y-57290000D01*
X87572860Y-50290000D02*
X87572860Y-57290000D01*
X87454765Y-50290000D02*
X87454765Y-57290000D01*
X87336670Y-50290000D02*
X87336670Y-57290000D01*
X87218575Y-50290000D02*
X87218575Y-57290000D01*
X87100480Y-50290000D02*
X87100480Y-57290000D01*
X86982385Y-50290000D02*
X86982385Y-57290000D01*
X86864290Y-50290000D02*
X86864290Y-57290000D01*
X86746195Y-50290000D02*
X86746195Y-57290000D01*
X86628100Y-50290000D02*
X86628100Y-57290000D01*
X86510000Y-50290000D02*
X86510000Y-57290000D01*
X83970000Y-50290000D02*
X83970000Y-57290000D01*
X81430000Y-50290000D02*
X81430000Y-57290000D01*
X78890000Y-50290000D02*
X78890000Y-57290000D01*
X76350000Y-50290000D02*
X76350000Y-57290000D01*
X73810000Y-50290000D02*
X73810000Y-57290000D01*
X71270000Y-50290000D02*
X71270000Y-57290000D01*
X68730000Y-50290000D02*
X68730000Y-57290000D01*
X66190000Y-50290000D02*
X66190000Y-57290000D01*
X63650000Y-50290000D02*
X63650000Y-57290000D01*
X61110000Y-50290000D02*
X61110000Y-57290000D01*
X58570000Y-50290000D02*
X58570000Y-57290000D01*
X56030000Y-50290000D02*
X56030000Y-57290000D01*
X53490000Y-50290000D02*
X53490000Y-57290000D01*
X50890000Y-50290000D02*
X50890000Y-57290000D01*
X89110000Y-57290000D02*
X50890000Y-57290000D01*
X88140000Y-57290000D02*
X88140000Y-57640000D01*
X87420000Y-57290000D02*
X87420000Y-57640000D01*
X85600000Y-57290000D02*
X85600000Y-57700000D01*
X84880000Y-57290000D02*
X84880000Y-57700000D01*
X83060000Y-57290000D02*
X83060000Y-57700000D01*
X82340000Y-57290000D02*
X82340000Y-57700000D01*
X80520000Y-57290000D02*
X80520000Y-57700000D01*
X79800000Y-57290000D02*
X79800000Y-57700000D01*
X77980000Y-57290000D02*
X77980000Y-57700000D01*
X77260000Y-57290000D02*
X77260000Y-57700000D01*
X75440000Y-57290000D02*
X75440000Y-57700000D01*
X74720000Y-57290000D02*
X74720000Y-57700000D01*
X72900000Y-57290000D02*
X72900000Y-57700000D01*
X72180000Y-57290000D02*
X72180000Y-57700000D01*
X70360000Y-57290000D02*
X70360000Y-57700000D01*
X69640000Y-57290000D02*
X69640000Y-57700000D01*
X67820000Y-57290000D02*
X67820000Y-57700000D01*
X67100000Y-57290000D02*
X67100000Y-57700000D01*
X65280000Y-57290000D02*
X65280000Y-57700000D01*
X64560000Y-57290000D02*
X64560000Y-57700000D01*
X62740000Y-57290000D02*
X62740000Y-57700000D01*
X62020000Y-57290000D02*
X62020000Y-57700000D01*
X60200000Y-57290000D02*
X60200000Y-57700000D01*
X59480000Y-57290000D02*
X59480000Y-57700000D01*
X57660000Y-57290000D02*
X57660000Y-57700000D01*
X56940000Y-57290000D02*
X56940000Y-57700000D01*
X55120000Y-57290000D02*
X55120000Y-57700000D01*
X54400000Y-57290000D02*
X54400000Y-57700000D01*
X52580000Y-57290000D02*
X52580000Y-57700000D01*
X51860000Y-57290000D02*
X51860000Y-57700000D01*
X89110000Y-58750000D02*
X89110000Y-59860000D01*
X89110000Y-59860000D02*
X87780000Y-59860000D01*
%TO.C,U1*%
X72085403Y-72915100D02*
X72421278Y-72579224D01*
X76112376Y-69559878D02*
X75776500Y-69224003D01*
X72421278Y-73250976D02*
X72085403Y-72915100D01*
X79131722Y-72579224D02*
X79467597Y-72915100D01*
X75440624Y-76270322D02*
X75776500Y-76606197D01*
X79467597Y-72915100D02*
X79131722Y-73250976D01*
X75776500Y-76606197D02*
X76112376Y-76270322D01*
%TO.C,C1*%
X73437910Y-70385107D02*
X73285407Y-70537610D01*
X72928793Y-69875990D02*
X72776290Y-70028493D01*
%TO.C,Y1*%
X72287142Y-68593015D02*
X70872928Y-67178801D01*
X70872928Y-67178801D02*
X70590085Y-66895958D01*
X72145720Y-68734436D02*
X71438614Y-69441543D01*
X70731507Y-67320222D02*
X72145720Y-68734436D01*
X70731507Y-67320222D02*
X70448664Y-67037380D01*
X69741557Y-67744486D02*
X70448664Y-67037380D01*
X69741557Y-67744486D02*
X69458715Y-67461644D01*
X70165821Y-70714335D02*
X69600136Y-71280020D01*
X69600136Y-71280020D02*
X68185922Y-69865807D01*
X68185922Y-69865807D02*
X67903080Y-69582964D01*
X67903080Y-69582964D02*
X68468765Y-69017279D01*
%TD*%
M02*
