%TF.GenerationSoftware,KiCad,Pcbnew,7.0.2-6a45011f42~172~ubuntu22.04.1*%
%TF.CreationDate,2023-05-29T16:44:42-07:00*%
%TF.ProjectId,comm_v0p4,636f6d6d-5f76-4307-9034-2e6b69636164,rev?*%
%TF.SameCoordinates,Original*%
%TF.FileFunction,Soldermask,Bot*%
%TF.FilePolarity,Negative*%
%FSLAX46Y46*%
G04 Gerber Fmt 4.6, Leading zero omitted, Abs format (unit mm)*
G04 Created by KiCad (PCBNEW 7.0.2-6a45011f42~172~ubuntu22.04.1) date 2023-05-29 16:44:42*
%MOMM*%
%LPD*%
G01*
G04 APERTURE LIST*
G04 Aperture macros list*
%AMRoundRect*
0 Rectangle with rounded corners*
0 $1 Rounding radius*
0 $2 $3 $4 $5 $6 $7 $8 $9 X,Y pos of 4 corners*
0 Add a 4 corners polygon primitive as box body*
4,1,4,$2,$3,$4,$5,$6,$7,$8,$9,$2,$3,0*
0 Add four circle primitives for the rounded corners*
1,1,$1+$1,$2,$3*
1,1,$1+$1,$4,$5*
1,1,$1+$1,$6,$7*
1,1,$1+$1,$8,$9*
0 Add four rect primitives between the rounded corners*
20,1,$1+$1,$2,$3,$4,$5,0*
20,1,$1+$1,$4,$5,$6,$7,0*
20,1,$1+$1,$6,$7,$8,$9,0*
20,1,$1+$1,$8,$9,$2,$3,0*%
G04 Aperture macros list end*
%ADD10R,1.700000X1.700000*%
%ADD11O,1.700000X1.700000*%
%ADD12R,2.000000X1.500000*%
%ADD13R,2.000000X3.800000*%
%ADD14RoundRect,0.250000X-1.075000X-0.550000X1.075000X-0.550000X1.075000X0.550000X-1.075000X0.550000X0*%
G04 APERTURE END LIST*
D10*
%TO.C,J4*%
X55230000Y-62230000D03*
D11*
X57770000Y-62230000D03*
X55230000Y-64770000D03*
X57770000Y-64770000D03*
%TD*%
D10*
%TO.C,J6*%
X82230000Y-62230000D03*
D11*
X84770000Y-62230000D03*
X82230000Y-64770000D03*
X84770000Y-64770000D03*
%TD*%
D10*
%TO.C,J5*%
X55230000Y-78230000D03*
D11*
X57770000Y-78230000D03*
X55230000Y-80770000D03*
X57770000Y-80770000D03*
%TD*%
D10*
%TO.C,J7*%
X82230000Y-78230000D03*
D11*
X84770000Y-78230000D03*
X82230000Y-80770000D03*
X84770000Y-80770000D03*
%TD*%
D10*
%TO.C,J1*%
X87780000Y-84700000D03*
D11*
X85240000Y-84700000D03*
X82700000Y-84700000D03*
X80160000Y-84700000D03*
X77620000Y-84700000D03*
X75080000Y-84700000D03*
X72540000Y-84700000D03*
X70000000Y-84700000D03*
X67460000Y-84700000D03*
X64920000Y-84700000D03*
X62380000Y-84700000D03*
X59840000Y-84700000D03*
X57300000Y-84700000D03*
X54760000Y-84700000D03*
X52220000Y-84700000D03*
%TD*%
D10*
%TO.C,J2*%
X87780000Y-58750000D03*
D11*
X85240000Y-58750000D03*
X82700000Y-58750000D03*
X80160000Y-58750000D03*
X77620000Y-58750000D03*
X75080000Y-58750000D03*
X72540000Y-58750000D03*
X70000000Y-58750000D03*
X67460000Y-58750000D03*
X64920000Y-58750000D03*
X62380000Y-58750000D03*
X59840000Y-58750000D03*
X57300000Y-58750000D03*
X54760000Y-58750000D03*
X52220000Y-58750000D03*
%TD*%
D12*
%TO.C,U2*%
X56286000Y-73928000D03*
X56286000Y-71628000D03*
D13*
X62586000Y-71628000D03*
D12*
X56286000Y-69328000D03*
%TD*%
D14*
%TO.C,C3*%
X62333000Y-65024000D03*
X65683000Y-65024000D03*
%TD*%
%TO.C,C4*%
X62333000Y-78232000D03*
X65683000Y-78232000D03*
%TD*%
M02*
