M48
; DRILL file {KiCad 7.0.2-6a45011f42~172~ubuntu22.04.1} date Mon 29 May 2023 04:44:46 PM PDT
; FORMAT={-:-/ absolute / inch / decimal}
; #@! TF.CreationDate,2023-05-29T16:44:46-07:00
; #@! TF.GenerationSoftware,Kicad,Pcbnew,7.0.2-6a45011f42~172~ubuntu22.04.1
; #@! TF.FileFunction,Plated,1,4,PTH
FMAT,2
INCH
; #@! TA.AperFunction,Plated,PTH,ViaDrill
T1C0.0118
; #@! TA.AperFunction,Plated,PTH,ViaDrill
T2C0.0236
; #@! TA.AperFunction,Plated,PTH,ComponentDrill
T3C0.0394
%
G90
G05
T1
X2.4733Y-2.4843
X2.505Y-2.481
X2.545Y-2.929
X2.554Y-2.844
X2.5685Y-2.9069
X2.5864Y-2.4912
X2.5864Y-2.8445
X2.62Y-2.482
X2.746Y-2.861
X2.7772Y-2.8474
X2.803Y-2.771
X2.8097Y-2.6536
X2.834Y-2.955
X2.841Y-2.924
X2.848Y-2.664
X2.851Y-2.742
X2.861Y-2.632
X2.871Y-2.949
X2.874Y-2.719
X2.874Y-2.998
X2.906Y-2.991
X2.973Y-2.571
X3.0021Y-2.5884
X3.041Y-3.109
X3.0599Y-2.757
X3.0626Y-3.0818
X3.094Y-2.763
X3.095Y-2.672
X3.106Y-3.0217
X3.1121Y-2.928
X3.1244Y-2.691
X3.131Y-2.993
X3.1321Y-2.8802
X3.142Y-2.945
X3.1464Y-2.7214
X3.154Y-2.851
X3.213Y-2.646
X3.234Y-2.673
T2
X2.128Y-2.729
X2.128Y-2.91
X2.676Y-2.56
X2.687Y-3.08
T3
X2.0559Y-2.313
X2.0559Y-3.3346
X2.1559Y-2.313
X2.1559Y-3.3346
X2.1744Y-2.45
X2.1744Y-2.55
X2.1744Y-3.0799
X2.1744Y-3.1799
X2.2559Y-2.313
X2.2559Y-3.3346
X2.2744Y-2.45
X2.2744Y-2.55
X2.2744Y-3.0799
X2.2744Y-3.1799
X2.3559Y-2.313
X2.3559Y-3.3346
X2.4559Y-2.313
X2.4559Y-3.3346
X2.5559Y-2.313
X2.5559Y-3.3346
X2.6559Y-2.313
X2.6559Y-3.3346
X2.7559Y-2.313
X2.7559Y-3.3346
X2.8559Y-2.313
X2.8559Y-3.3346
X2.9559Y-2.313
X2.9559Y-3.3346
X3.0559Y-2.313
X3.0559Y-3.3346
X3.1559Y-2.313
X3.1559Y-3.3346
X3.2374Y-2.45
X3.2374Y-2.55
X3.2374Y-3.0799
X3.2374Y-3.1799
X3.2559Y-2.313
X3.2559Y-3.3346
X3.3374Y-2.45
X3.3374Y-2.55
X3.3374Y-3.0799
X3.3374Y-3.1799
X3.3559Y-2.313
X3.3559Y-3.3346
X3.4559Y-2.313
X3.4559Y-3.3346
T0
M30
