%TF.GenerationSoftware,KiCad,Pcbnew,7.0.2-6a45011f42~172~ubuntu22.04.1*%
%TF.CreationDate,2023-05-29T16:44:42-07:00*%
%TF.ProjectId,comm_v0p4,636f6d6d-5f76-4307-9034-2e6b69636164,rev?*%
%TF.SameCoordinates,Original*%
%TF.FileFunction,Copper,L2,Inr*%
%TF.FilePolarity,Positive*%
%FSLAX46Y46*%
G04 Gerber Fmt 4.6, Leading zero omitted, Abs format (unit mm)*
G04 Created by KiCad (PCBNEW 7.0.2-6a45011f42~172~ubuntu22.04.1) date 2023-05-29 16:44:42*
%MOMM*%
%LPD*%
G01*
G04 APERTURE LIST*
%TA.AperFunction,ComponentPad*%
%ADD10R,1.700000X1.700000*%
%TD*%
%TA.AperFunction,ComponentPad*%
%ADD11O,1.700000X1.700000*%
%TD*%
%TA.AperFunction,ViaPad*%
%ADD12C,0.600000*%
%TD*%
%TA.AperFunction,ViaPad*%
%ADD13C,1.000000*%
%TD*%
G04 APERTURE END LIST*
D10*
%TO.N,+5V*%
%TO.C,J4*%
X55230000Y-62230000D03*
D11*
%TO.N,/B1_CS0*%
X57770000Y-62230000D03*
%TO.N,/B1_SCK*%
X55230000Y-64770000D03*
%TO.N,/RESET_DRV0*%
X57770000Y-64770000D03*
%TD*%
D10*
%TO.N,/B1_MOSI*%
%TO.C,J6*%
X82230000Y-62230000D03*
D11*
%TO.N,unconnected-(J6-Pin_2-Pad2)*%
X84770000Y-62230000D03*
%TO.N,/B1_CS2*%
X82230000Y-64770000D03*
%TO.N,/RESET_DRV2*%
X84770000Y-64770000D03*
%TD*%
D10*
%TO.N,/B1_MISO*%
%TO.C,J5*%
X55230000Y-78230000D03*
D11*
%TO.N,/B1_CS1*%
X57770000Y-78230000D03*
%TO.N,unconnected-(J5-Pin_3-Pad3)*%
X55230000Y-80770000D03*
%TO.N,/RESET_DRV1*%
X57770000Y-80770000D03*
%TD*%
D10*
%TO.N,/RESET_DRV3*%
%TO.C,J7*%
X82230000Y-78230000D03*
D11*
%TO.N,/B1_CS3*%
X84770000Y-78230000D03*
%TO.N,GND*%
X82230000Y-80770000D03*
%TO.N,unconnected-(J7-Pin_4-Pad4)*%
X84770000Y-80770000D03*
%TD*%
D10*
%TO.N,/EXT_INT0*%
%TO.C,J1*%
X87780000Y-84700000D03*
D11*
%TO.N,/B0_CS7*%
X85240000Y-84700000D03*
%TO.N,/B0_CS6*%
X82700000Y-84700000D03*
%TO.N,/B0_CS5*%
X80160000Y-84700000D03*
%TO.N,/B0_CS4*%
X77620000Y-84700000D03*
%TO.N,/B0_CS3*%
X75080000Y-84700000D03*
%TO.N,/B0_CS2*%
X72540000Y-84700000D03*
%TO.N,/B0_CS1*%
X70000000Y-84700000D03*
%TO.N,/B0_CS0*%
X67460000Y-84700000D03*
%TO.N,/B0_MISO*%
X64920000Y-84700000D03*
%TO.N,/B0_MOSI*%
X62380000Y-84700000D03*
%TO.N,/B0_SCK*%
X59840000Y-84700000D03*
%TO.N,/RESET_MSTR*%
X57300000Y-84700000D03*
%TO.N,GND*%
X54760000Y-84700000D03*
%TO.N,/VIN*%
X52220000Y-84700000D03*
%TD*%
D10*
%TO.N,/EXT_INT0*%
%TO.C,J2*%
X87780000Y-58750000D03*
D11*
%TO.N,unconnected-(J2-Pin_2-Pad2)*%
X85240000Y-58750000D03*
%TO.N,/B0_CS7*%
X82700000Y-58750000D03*
%TO.N,/B0_CS6*%
X80160000Y-58750000D03*
%TO.N,/B0_CS5*%
X77620000Y-58750000D03*
%TO.N,/B0_CS4*%
X75080000Y-58750000D03*
%TO.N,/B0_CS3*%
X72540000Y-58750000D03*
%TO.N,/B0_CS2*%
X70000000Y-58750000D03*
%TO.N,/B0_CS1*%
X67460000Y-58750000D03*
%TO.N,/B0_MISO*%
X64920000Y-58750000D03*
%TO.N,/B0_MOSI*%
X62380000Y-58750000D03*
%TO.N,/B0_SCK*%
X59840000Y-58750000D03*
%TO.N,/RESET_MSTR*%
X57300000Y-58750000D03*
%TO.N,GND*%
X54760000Y-58750000D03*
%TO.N,/VIN*%
X52220000Y-58750000D03*
%TD*%
D12*
%TO.N,+5V*%
X78892400Y-76750400D03*
X72999600Y-69062600D03*
%TO.N,/B0_CS0*%
X73812400Y-75971400D03*
%TO.N,/B0_CS1*%
X71367200Y-67400500D03*
X70542100Y-72324500D03*
%TO.N,/B0_CS2*%
X79556400Y-73156800D03*
%TO.N,/B0_MISO*%
X65693300Y-63276500D03*
X65239300Y-73834600D03*
%TO.N,/B0_MOSI*%
X65693300Y-72250400D03*
X62821800Y-63101400D03*
%TO.N,/B1_CS2*%
X72161400Y-74269600D03*
X78613000Y-67868800D03*
%TO.N,/B1_CS3*%
X72923400Y-74904600D03*
X77791300Y-78276700D03*
%TO.N,/B1_MISO*%
X72669400Y-66852800D03*
X77722300Y-70026800D03*
%TO.N,/RESET_DRV0*%
X79047300Y-74370200D03*
%TO.N,/RESET_DRV3*%
X82143600Y-67894200D03*
%TO.N,/RESET_MSTR*%
X76252300Y-65746000D03*
X79918587Y-69122439D03*
%TO.N,GND*%
X75514200Y-65303400D03*
X72339200Y-67665600D03*
D13*
X67970400Y-65024000D03*
D12*
X63627000Y-63017400D03*
X72999600Y-76149200D03*
X72415400Y-69646800D03*
X79527400Y-76022200D03*
X64871600Y-72237600D03*
D13*
X54051200Y-73914000D03*
D12*
X78587600Y-70180200D03*
D13*
X68249800Y-78232000D03*
D12*
X69748400Y-72669400D03*
X64643000Y-74396600D03*
X81610200Y-67208400D03*
X80111600Y-72415400D03*
X66548000Y-63042800D03*
X77241400Y-78968600D03*
X79806800Y-74803000D03*
X71196200Y-70383400D03*
X79358900Y-68351400D03*
X71983600Y-75057000D03*
D13*
%TO.N,/VIN*%
X54051200Y-69316600D03*
%TD*%
%TA.AperFunction,Conductor*%
%TO.N,GND*%
G36*
X89443039Y-54019685D02*
G01*
X89488794Y-54072489D01*
X89500000Y-54124000D01*
X89500000Y-87876000D01*
X89480315Y-87943039D01*
X89427511Y-87988794D01*
X89376000Y-88000000D01*
X50624000Y-88000000D01*
X50556961Y-87980315D01*
X50511206Y-87927511D01*
X50500000Y-87876000D01*
X50500000Y-84700000D01*
X51110768Y-84700000D01*
X51129654Y-84903823D01*
X51185670Y-85100699D01*
X51276911Y-85283934D01*
X51400268Y-85447286D01*
X51551535Y-85585184D01*
X51551537Y-85585185D01*
X51551538Y-85585186D01*
X51725573Y-85692944D01*
X51916444Y-85766888D01*
X52117653Y-85804500D01*
X52117655Y-85804500D01*
X52322345Y-85804500D01*
X52322347Y-85804500D01*
X52523556Y-85766888D01*
X52714427Y-85692944D01*
X52888462Y-85585186D01*
X53039732Y-85447285D01*
X53163088Y-85283935D01*
X53163088Y-85283933D01*
X53163090Y-85283932D01*
X53248380Y-85112646D01*
X53295882Y-85061409D01*
X53363545Y-85043987D01*
X53429886Y-85065912D01*
X53473841Y-85120223D01*
X53479154Y-85135822D01*
X53486567Y-85163488D01*
X53586399Y-85377576D01*
X53721893Y-85571081D01*
X53888918Y-85738106D01*
X54082423Y-85873600D01*
X54296509Y-85973430D01*
X54510000Y-86030634D01*
X54510000Y-85135501D01*
X54617685Y-85184680D01*
X54724237Y-85200000D01*
X54795763Y-85200000D01*
X54902315Y-85184680D01*
X55009999Y-85135501D01*
X55009999Y-86030633D01*
X55223491Y-85973430D01*
X55437576Y-85873600D01*
X55631081Y-85738106D01*
X55798106Y-85571081D01*
X55933600Y-85377576D01*
X56033431Y-85163490D01*
X56040844Y-85135825D01*
X56077208Y-85076164D01*
X56140055Y-85045634D01*
X56209430Y-85053928D01*
X56263309Y-85098413D01*
X56271619Y-85112645D01*
X56356911Y-85283934D01*
X56480268Y-85447286D01*
X56631535Y-85585184D01*
X56631537Y-85585185D01*
X56631538Y-85585186D01*
X56805573Y-85692944D01*
X56996444Y-85766888D01*
X57197653Y-85804500D01*
X57197655Y-85804500D01*
X57402345Y-85804500D01*
X57402347Y-85804500D01*
X57603556Y-85766888D01*
X57794427Y-85692944D01*
X57968462Y-85585186D01*
X58119732Y-85447285D01*
X58243088Y-85283935D01*
X58334328Y-85100701D01*
X58334979Y-85098413D01*
X58390345Y-84903823D01*
X58402570Y-84771889D01*
X58409232Y-84700000D01*
X58730768Y-84700000D01*
X58749654Y-84903823D01*
X58805670Y-85100699D01*
X58896911Y-85283934D01*
X59020268Y-85447286D01*
X59171535Y-85585184D01*
X59171537Y-85585185D01*
X59171538Y-85585186D01*
X59345573Y-85692944D01*
X59536444Y-85766888D01*
X59737653Y-85804500D01*
X59737655Y-85804500D01*
X59942345Y-85804500D01*
X59942347Y-85804500D01*
X60143556Y-85766888D01*
X60334427Y-85692944D01*
X60508462Y-85585186D01*
X60659732Y-85447285D01*
X60783088Y-85283935D01*
X60874328Y-85100701D01*
X60874979Y-85098413D01*
X60930345Y-84903823D01*
X60942570Y-84771889D01*
X60949232Y-84700000D01*
X61270768Y-84700000D01*
X61289654Y-84903823D01*
X61345670Y-85100699D01*
X61436911Y-85283934D01*
X61560268Y-85447286D01*
X61711535Y-85585184D01*
X61711537Y-85585185D01*
X61711538Y-85585186D01*
X61885573Y-85692944D01*
X62076444Y-85766888D01*
X62277653Y-85804500D01*
X62277655Y-85804500D01*
X62482345Y-85804500D01*
X62482347Y-85804500D01*
X62683556Y-85766888D01*
X62874427Y-85692944D01*
X63048462Y-85585186D01*
X63199732Y-85447285D01*
X63323088Y-85283935D01*
X63414328Y-85100701D01*
X63414979Y-85098413D01*
X63470345Y-84903823D01*
X63482570Y-84771889D01*
X63489232Y-84700000D01*
X63810768Y-84700000D01*
X63829654Y-84903823D01*
X63885670Y-85100699D01*
X63976911Y-85283934D01*
X64100268Y-85447286D01*
X64251535Y-85585184D01*
X64251537Y-85585185D01*
X64251538Y-85585186D01*
X64425573Y-85692944D01*
X64616444Y-85766888D01*
X64817653Y-85804500D01*
X64817655Y-85804500D01*
X65022345Y-85804500D01*
X65022347Y-85804500D01*
X65223556Y-85766888D01*
X65414427Y-85692944D01*
X65588462Y-85585186D01*
X65739732Y-85447285D01*
X65863088Y-85283935D01*
X65954328Y-85100701D01*
X65954979Y-85098413D01*
X66010345Y-84903823D01*
X66022570Y-84771889D01*
X66029232Y-84700000D01*
X66350768Y-84700000D01*
X66369654Y-84903823D01*
X66425670Y-85100699D01*
X66516911Y-85283934D01*
X66640268Y-85447286D01*
X66791535Y-85585184D01*
X66791537Y-85585185D01*
X66791538Y-85585186D01*
X66965573Y-85692944D01*
X67156444Y-85766888D01*
X67357653Y-85804500D01*
X67357655Y-85804500D01*
X67562345Y-85804500D01*
X67562347Y-85804500D01*
X67763556Y-85766888D01*
X67954427Y-85692944D01*
X68128462Y-85585186D01*
X68279732Y-85447285D01*
X68403088Y-85283935D01*
X68494328Y-85100701D01*
X68494979Y-85098413D01*
X68550345Y-84903823D01*
X68562570Y-84771889D01*
X68569232Y-84700000D01*
X68890768Y-84700000D01*
X68909654Y-84903823D01*
X68965670Y-85100699D01*
X69056911Y-85283934D01*
X69180268Y-85447286D01*
X69331535Y-85585184D01*
X69331537Y-85585185D01*
X69331538Y-85585186D01*
X69505573Y-85692944D01*
X69696444Y-85766888D01*
X69897653Y-85804500D01*
X69897655Y-85804500D01*
X70102345Y-85804500D01*
X70102347Y-85804500D01*
X70303556Y-85766888D01*
X70494427Y-85692944D01*
X70668462Y-85585186D01*
X70819732Y-85447285D01*
X70943088Y-85283935D01*
X71034328Y-85100701D01*
X71034979Y-85098413D01*
X71090345Y-84903823D01*
X71102570Y-84771889D01*
X71109232Y-84700000D01*
X71430768Y-84700000D01*
X71449654Y-84903823D01*
X71505670Y-85100699D01*
X71596911Y-85283934D01*
X71720268Y-85447286D01*
X71871535Y-85585184D01*
X71871537Y-85585185D01*
X71871538Y-85585186D01*
X72045573Y-85692944D01*
X72236444Y-85766888D01*
X72437653Y-85804500D01*
X72437655Y-85804500D01*
X72642345Y-85804500D01*
X72642347Y-85804500D01*
X72843556Y-85766888D01*
X73034427Y-85692944D01*
X73208462Y-85585186D01*
X73359732Y-85447285D01*
X73483088Y-85283935D01*
X73574328Y-85100701D01*
X73574979Y-85098413D01*
X73630345Y-84903823D01*
X73642570Y-84771889D01*
X73649232Y-84700000D01*
X73970768Y-84700000D01*
X73989654Y-84903823D01*
X74045670Y-85100699D01*
X74136911Y-85283934D01*
X74260268Y-85447286D01*
X74411535Y-85585184D01*
X74411537Y-85585185D01*
X74411538Y-85585186D01*
X74585573Y-85692944D01*
X74776444Y-85766888D01*
X74977653Y-85804500D01*
X74977655Y-85804500D01*
X75182345Y-85804500D01*
X75182347Y-85804500D01*
X75383556Y-85766888D01*
X75574427Y-85692944D01*
X75748462Y-85585186D01*
X75899732Y-85447285D01*
X76023088Y-85283935D01*
X76114328Y-85100701D01*
X76114979Y-85098413D01*
X76170345Y-84903823D01*
X76182570Y-84771889D01*
X76189232Y-84700000D01*
X76510768Y-84700000D01*
X76529654Y-84903823D01*
X76585670Y-85100699D01*
X76676911Y-85283934D01*
X76800268Y-85447286D01*
X76951535Y-85585184D01*
X76951537Y-85585185D01*
X76951538Y-85585186D01*
X77125573Y-85692944D01*
X77316444Y-85766888D01*
X77517653Y-85804500D01*
X77517655Y-85804500D01*
X77722345Y-85804500D01*
X77722347Y-85804500D01*
X77923556Y-85766888D01*
X78114427Y-85692944D01*
X78288462Y-85585186D01*
X78439732Y-85447285D01*
X78563088Y-85283935D01*
X78654328Y-85100701D01*
X78654979Y-85098413D01*
X78710345Y-84903823D01*
X78722570Y-84771889D01*
X78729232Y-84700000D01*
X79050768Y-84700000D01*
X79069654Y-84903823D01*
X79125670Y-85100699D01*
X79216911Y-85283934D01*
X79340268Y-85447286D01*
X79491535Y-85585184D01*
X79491537Y-85585185D01*
X79491538Y-85585186D01*
X79665573Y-85692944D01*
X79856444Y-85766888D01*
X80057653Y-85804500D01*
X80057655Y-85804500D01*
X80262345Y-85804500D01*
X80262347Y-85804500D01*
X80463556Y-85766888D01*
X80654427Y-85692944D01*
X80828462Y-85585186D01*
X80979732Y-85447285D01*
X81103088Y-85283935D01*
X81194328Y-85100701D01*
X81194979Y-85098413D01*
X81250345Y-84903823D01*
X81262570Y-84771889D01*
X81269232Y-84700000D01*
X81590768Y-84700000D01*
X81609654Y-84903823D01*
X81665670Y-85100699D01*
X81756911Y-85283934D01*
X81880268Y-85447286D01*
X82031535Y-85585184D01*
X82031537Y-85585185D01*
X82031538Y-85585186D01*
X82205573Y-85692944D01*
X82396444Y-85766888D01*
X82597653Y-85804500D01*
X82597655Y-85804500D01*
X82802345Y-85804500D01*
X82802347Y-85804500D01*
X83003556Y-85766888D01*
X83194427Y-85692944D01*
X83368462Y-85585186D01*
X83519732Y-85447285D01*
X83643088Y-85283935D01*
X83734328Y-85100701D01*
X83734979Y-85098413D01*
X83790345Y-84903823D01*
X83802570Y-84771889D01*
X83809232Y-84700000D01*
X84130768Y-84700000D01*
X84149654Y-84903823D01*
X84205670Y-85100699D01*
X84296911Y-85283934D01*
X84420268Y-85447286D01*
X84571535Y-85585184D01*
X84571537Y-85585185D01*
X84571538Y-85585186D01*
X84745573Y-85692944D01*
X84936444Y-85766888D01*
X85137653Y-85804500D01*
X85137655Y-85804500D01*
X85342345Y-85804500D01*
X85342347Y-85804500D01*
X85543556Y-85766888D01*
X85734427Y-85692944D01*
X85908462Y-85585186D01*
X85919564Y-85575065D01*
X86675500Y-85575065D01*
X86690266Y-85649301D01*
X86746515Y-85733484D01*
X86796506Y-85766887D01*
X86830699Y-85789734D01*
X86904933Y-85804500D01*
X88655066Y-85804499D01*
X88729301Y-85789734D01*
X88813484Y-85733484D01*
X88869734Y-85649301D01*
X88884500Y-85575067D01*
X88884499Y-83824934D01*
X88869734Y-83750699D01*
X88840572Y-83707056D01*
X88813484Y-83666515D01*
X88729300Y-83610265D01*
X88655069Y-83595500D01*
X86904934Y-83595500D01*
X86830698Y-83610266D01*
X86746515Y-83666515D01*
X86690265Y-83750699D01*
X86675500Y-83824930D01*
X86675500Y-85575065D01*
X85919564Y-85575065D01*
X86059732Y-85447285D01*
X86183088Y-85283935D01*
X86274328Y-85100701D01*
X86274979Y-85098413D01*
X86330345Y-84903823D01*
X86342570Y-84771889D01*
X86349232Y-84700000D01*
X86330345Y-84496179D01*
X86330345Y-84496176D01*
X86274329Y-84299300D01*
X86183088Y-84116065D01*
X86059731Y-83952713D01*
X85908464Y-83814815D01*
X85734427Y-83707056D01*
X85629781Y-83666516D01*
X85543556Y-83633112D01*
X85342347Y-83595500D01*
X85137653Y-83595500D01*
X84936443Y-83633111D01*
X84936444Y-83633112D01*
X84745572Y-83707056D01*
X84571535Y-83814815D01*
X84420268Y-83952713D01*
X84296911Y-84116065D01*
X84205670Y-84299300D01*
X84149654Y-84496176D01*
X84130768Y-84700000D01*
X83809232Y-84700000D01*
X83790345Y-84496179D01*
X83790345Y-84496176D01*
X83734329Y-84299300D01*
X83643088Y-84116065D01*
X83519731Y-83952713D01*
X83368464Y-83814815D01*
X83194427Y-83707056D01*
X83089781Y-83666516D01*
X83003556Y-83633112D01*
X82802347Y-83595500D01*
X82597653Y-83595500D01*
X82396444Y-83633111D01*
X82396444Y-83633112D01*
X82205572Y-83707056D01*
X82031535Y-83814815D01*
X81880268Y-83952713D01*
X81756911Y-84116065D01*
X81665670Y-84299300D01*
X81609654Y-84496176D01*
X81590768Y-84700000D01*
X81269232Y-84700000D01*
X81250345Y-84496179D01*
X81250345Y-84496176D01*
X81194329Y-84299300D01*
X81103088Y-84116065D01*
X80979731Y-83952713D01*
X80828464Y-83814815D01*
X80654427Y-83707056D01*
X80549781Y-83666516D01*
X80463556Y-83633112D01*
X80262347Y-83595500D01*
X80057653Y-83595500D01*
X79856443Y-83633111D01*
X79856444Y-83633112D01*
X79665572Y-83707056D01*
X79491535Y-83814815D01*
X79340268Y-83952713D01*
X79216911Y-84116065D01*
X79125670Y-84299300D01*
X79069654Y-84496176D01*
X79050768Y-84700000D01*
X78729232Y-84700000D01*
X78710345Y-84496179D01*
X78710345Y-84496176D01*
X78654329Y-84299300D01*
X78563088Y-84116065D01*
X78439731Y-83952713D01*
X78288464Y-83814815D01*
X78114427Y-83707056D01*
X78009781Y-83666516D01*
X77923556Y-83633112D01*
X77722347Y-83595500D01*
X77517653Y-83595500D01*
X77316444Y-83633111D01*
X77316444Y-83633112D01*
X77125572Y-83707056D01*
X76951535Y-83814815D01*
X76800268Y-83952713D01*
X76676911Y-84116065D01*
X76585670Y-84299300D01*
X76529654Y-84496176D01*
X76510768Y-84700000D01*
X76189232Y-84700000D01*
X76170345Y-84496179D01*
X76170345Y-84496176D01*
X76114329Y-84299300D01*
X76023088Y-84116065D01*
X75899731Y-83952713D01*
X75748464Y-83814815D01*
X75574427Y-83707056D01*
X75469781Y-83666516D01*
X75383556Y-83633112D01*
X75182347Y-83595500D01*
X74977653Y-83595500D01*
X74776443Y-83633111D01*
X74776444Y-83633112D01*
X74585572Y-83707056D01*
X74411535Y-83814815D01*
X74260268Y-83952713D01*
X74136911Y-84116065D01*
X74045670Y-84299300D01*
X73989654Y-84496176D01*
X73970768Y-84700000D01*
X73649232Y-84700000D01*
X73630345Y-84496179D01*
X73630345Y-84496176D01*
X73574329Y-84299300D01*
X73483088Y-84116065D01*
X73359731Y-83952713D01*
X73208464Y-83814815D01*
X73034427Y-83707056D01*
X72929781Y-83666516D01*
X72843556Y-83633112D01*
X72642347Y-83595500D01*
X72437653Y-83595500D01*
X72236444Y-83633111D01*
X72236444Y-83633112D01*
X72045572Y-83707056D01*
X71871535Y-83814815D01*
X71720268Y-83952713D01*
X71596911Y-84116065D01*
X71505670Y-84299300D01*
X71449654Y-84496176D01*
X71430768Y-84700000D01*
X71109232Y-84700000D01*
X71090345Y-84496179D01*
X71090345Y-84496176D01*
X71034329Y-84299300D01*
X70943088Y-84116065D01*
X70819731Y-83952713D01*
X70668464Y-83814815D01*
X70494427Y-83707056D01*
X70389781Y-83666516D01*
X70303556Y-83633112D01*
X70102347Y-83595500D01*
X69897653Y-83595500D01*
X69696443Y-83633111D01*
X69696444Y-83633112D01*
X69505572Y-83707056D01*
X69331535Y-83814815D01*
X69180268Y-83952713D01*
X69056911Y-84116065D01*
X68965670Y-84299300D01*
X68909654Y-84496176D01*
X68890768Y-84700000D01*
X68569232Y-84700000D01*
X68550345Y-84496179D01*
X68550345Y-84496176D01*
X68494329Y-84299300D01*
X68403088Y-84116065D01*
X68279731Y-83952713D01*
X68128464Y-83814815D01*
X67954427Y-83707056D01*
X67849781Y-83666516D01*
X67763556Y-83633112D01*
X67562347Y-83595500D01*
X67357653Y-83595500D01*
X67156444Y-83633111D01*
X67156444Y-83633112D01*
X66965572Y-83707056D01*
X66791535Y-83814815D01*
X66640268Y-83952713D01*
X66516911Y-84116065D01*
X66425670Y-84299300D01*
X66369654Y-84496176D01*
X66350768Y-84700000D01*
X66029232Y-84700000D01*
X66010345Y-84496179D01*
X66010345Y-84496176D01*
X65954329Y-84299300D01*
X65863088Y-84116065D01*
X65739731Y-83952713D01*
X65588464Y-83814815D01*
X65414427Y-83707056D01*
X65309781Y-83666516D01*
X65223556Y-83633112D01*
X65022347Y-83595500D01*
X64817653Y-83595500D01*
X64616443Y-83633111D01*
X64616444Y-83633112D01*
X64425572Y-83707056D01*
X64251535Y-83814815D01*
X64100268Y-83952713D01*
X63976911Y-84116065D01*
X63885670Y-84299300D01*
X63829654Y-84496176D01*
X63810768Y-84700000D01*
X63489232Y-84700000D01*
X63470345Y-84496179D01*
X63470345Y-84496176D01*
X63414329Y-84299300D01*
X63323088Y-84116065D01*
X63199731Y-83952713D01*
X63048464Y-83814815D01*
X62874427Y-83707056D01*
X62769781Y-83666516D01*
X62683556Y-83633112D01*
X62482347Y-83595500D01*
X62277653Y-83595500D01*
X62076444Y-83633111D01*
X62076444Y-83633112D01*
X61885572Y-83707056D01*
X61711535Y-83814815D01*
X61560268Y-83952713D01*
X61436911Y-84116065D01*
X61345670Y-84299300D01*
X61289654Y-84496176D01*
X61270768Y-84700000D01*
X60949232Y-84700000D01*
X60930345Y-84496179D01*
X60930345Y-84496176D01*
X60874329Y-84299300D01*
X60783088Y-84116065D01*
X60659731Y-83952713D01*
X60508464Y-83814815D01*
X60334427Y-83707056D01*
X60229781Y-83666516D01*
X60143556Y-83633112D01*
X59942347Y-83595500D01*
X59737653Y-83595500D01*
X59536443Y-83633111D01*
X59536444Y-83633112D01*
X59345572Y-83707056D01*
X59171535Y-83814815D01*
X59020268Y-83952713D01*
X58896911Y-84116065D01*
X58805670Y-84299300D01*
X58749654Y-84496176D01*
X58730768Y-84700000D01*
X58409232Y-84700000D01*
X58390345Y-84496179D01*
X58390345Y-84496176D01*
X58334329Y-84299300D01*
X58243088Y-84116065D01*
X58119731Y-83952713D01*
X57968464Y-83814815D01*
X57794427Y-83707056D01*
X57689781Y-83666516D01*
X57603556Y-83633112D01*
X57402347Y-83595500D01*
X57197653Y-83595500D01*
X56996444Y-83633111D01*
X56996444Y-83633112D01*
X56805572Y-83707056D01*
X56631535Y-83814815D01*
X56480268Y-83952713D01*
X56356911Y-84116065D01*
X56271619Y-84287354D01*
X56224116Y-84338591D01*
X56156453Y-84356012D01*
X56090113Y-84334086D01*
X56046158Y-84279775D01*
X56040844Y-84264175D01*
X56033430Y-84236508D01*
X55933599Y-84022421D01*
X55798109Y-83828921D01*
X55631081Y-83661893D01*
X55437576Y-83526399D01*
X55223492Y-83426569D01*
X55009999Y-83369364D01*
X55009999Y-84264498D01*
X54902315Y-84215320D01*
X54795763Y-84200000D01*
X54724237Y-84200000D01*
X54617685Y-84215320D01*
X54510000Y-84264498D01*
X54510000Y-83369364D01*
X54509999Y-83369364D01*
X54296507Y-83426569D01*
X54082421Y-83526400D01*
X53888921Y-83661890D01*
X53721890Y-83828921D01*
X53586400Y-84022421D01*
X53486568Y-84236510D01*
X53479154Y-84264178D01*
X53442788Y-84323838D01*
X53379940Y-84354366D01*
X53310565Y-84346069D01*
X53256688Y-84301583D01*
X53248380Y-84287354D01*
X53163088Y-84116065D01*
X53039731Y-83952713D01*
X52888464Y-83814815D01*
X52714427Y-83707056D01*
X52609781Y-83666516D01*
X52523556Y-83633112D01*
X52322347Y-83595500D01*
X52117653Y-83595500D01*
X51916444Y-83633111D01*
X51916444Y-83633112D01*
X51725572Y-83707056D01*
X51551535Y-83814815D01*
X51400268Y-83952713D01*
X51276911Y-84116065D01*
X51185670Y-84299300D01*
X51129654Y-84496176D01*
X51110768Y-84700000D01*
X50500000Y-84700000D01*
X50500000Y-80770000D01*
X54120768Y-80770000D01*
X54139654Y-80973823D01*
X54195670Y-81170699D01*
X54286911Y-81353934D01*
X54410268Y-81517286D01*
X54561535Y-81655184D01*
X54561537Y-81655185D01*
X54561538Y-81655186D01*
X54735573Y-81762944D01*
X54926444Y-81836888D01*
X55127653Y-81874500D01*
X55127655Y-81874500D01*
X55332345Y-81874500D01*
X55332347Y-81874500D01*
X55533556Y-81836888D01*
X55724427Y-81762944D01*
X55898462Y-81655186D01*
X56049732Y-81517285D01*
X56173088Y-81353935D01*
X56264328Y-81170701D01*
X56264979Y-81168413D01*
X56320345Y-80973823D01*
X56332570Y-80841889D01*
X56339232Y-80770000D01*
X56660768Y-80770000D01*
X56679654Y-80973823D01*
X56735670Y-81170699D01*
X56826911Y-81353934D01*
X56950268Y-81517286D01*
X57101535Y-81655184D01*
X57101537Y-81655185D01*
X57101538Y-81655186D01*
X57275573Y-81762944D01*
X57466444Y-81836888D01*
X57667653Y-81874500D01*
X57667655Y-81874500D01*
X57872345Y-81874500D01*
X57872347Y-81874500D01*
X58073556Y-81836888D01*
X58264427Y-81762944D01*
X58438462Y-81655186D01*
X58589732Y-81517285D01*
X58713088Y-81353935D01*
X58804328Y-81170701D01*
X58804979Y-81168413D01*
X58847206Y-81020000D01*
X80899364Y-81020000D01*
X80956569Y-81233492D01*
X81056399Y-81447576D01*
X81191893Y-81641081D01*
X81358918Y-81808106D01*
X81552423Y-81943600D01*
X81766509Y-82043430D01*
X81980000Y-82100634D01*
X81980000Y-81205501D01*
X82087685Y-81254680D01*
X82194237Y-81270000D01*
X82265763Y-81270000D01*
X82372315Y-81254680D01*
X82480000Y-81205501D01*
X82480000Y-82100633D01*
X82693490Y-82043430D01*
X82907576Y-81943600D01*
X83101081Y-81808106D01*
X83268106Y-81641081D01*
X83403600Y-81447576D01*
X83503431Y-81233490D01*
X83510844Y-81205825D01*
X83547208Y-81146164D01*
X83610055Y-81115634D01*
X83679430Y-81123928D01*
X83733309Y-81168413D01*
X83741619Y-81182645D01*
X83826911Y-81353934D01*
X83950268Y-81517286D01*
X84101535Y-81655184D01*
X84101537Y-81655185D01*
X84101538Y-81655186D01*
X84275573Y-81762944D01*
X84466444Y-81836888D01*
X84667653Y-81874500D01*
X84667655Y-81874500D01*
X84872345Y-81874500D01*
X84872347Y-81874500D01*
X85073556Y-81836888D01*
X85264427Y-81762944D01*
X85438462Y-81655186D01*
X85589732Y-81517285D01*
X85713088Y-81353935D01*
X85804328Y-81170701D01*
X85804979Y-81168413D01*
X85860345Y-80973823D01*
X85872570Y-80841889D01*
X85879232Y-80770000D01*
X85860345Y-80566179D01*
X85860345Y-80566176D01*
X85804329Y-80369300D01*
X85713088Y-80186065D01*
X85589731Y-80022713D01*
X85438464Y-79884815D01*
X85264427Y-79777056D01*
X85147840Y-79731890D01*
X85073556Y-79703112D01*
X84872347Y-79665500D01*
X84667653Y-79665500D01*
X84466443Y-79703112D01*
X84466444Y-79703112D01*
X84275572Y-79777056D01*
X84101535Y-79884815D01*
X83950268Y-80022713D01*
X83826911Y-80186065D01*
X83741619Y-80357354D01*
X83694116Y-80408591D01*
X83626453Y-80426012D01*
X83560113Y-80404086D01*
X83516158Y-80349775D01*
X83510844Y-80334175D01*
X83503430Y-80306508D01*
X83403599Y-80092421D01*
X83268109Y-79898921D01*
X83101081Y-79731893D01*
X82907576Y-79596399D01*
X82852853Y-79570881D01*
X82800414Y-79524709D01*
X82781262Y-79457515D01*
X82801478Y-79390634D01*
X82854643Y-79345299D01*
X82905257Y-79334499D01*
X83105066Y-79334499D01*
X83179301Y-79319734D01*
X83263484Y-79263484D01*
X83319734Y-79179301D01*
X83334500Y-79105067D01*
X83334499Y-78229999D01*
X83660768Y-78229999D01*
X83679654Y-78433823D01*
X83735670Y-78630699D01*
X83826911Y-78813934D01*
X83950268Y-78977286D01*
X84101535Y-79115184D01*
X84101537Y-79115185D01*
X84101538Y-79115186D01*
X84275573Y-79222944D01*
X84466444Y-79296888D01*
X84667653Y-79334500D01*
X84667655Y-79334500D01*
X84872345Y-79334500D01*
X84872347Y-79334500D01*
X85073556Y-79296888D01*
X85264427Y-79222944D01*
X85438462Y-79115186D01*
X85589732Y-78977285D01*
X85713088Y-78813935D01*
X85804328Y-78630701D01*
X85825485Y-78556343D01*
X85860345Y-78433823D01*
X85863297Y-78401954D01*
X85879232Y-78230000D01*
X85860345Y-78026179D01*
X85860345Y-78026176D01*
X85804329Y-77829300D01*
X85713088Y-77646065D01*
X85589731Y-77482713D01*
X85438464Y-77344815D01*
X85264427Y-77237056D01*
X85159781Y-77196516D01*
X85073556Y-77163112D01*
X84872347Y-77125500D01*
X84667653Y-77125500D01*
X84466443Y-77163112D01*
X84466444Y-77163112D01*
X84275572Y-77237056D01*
X84101535Y-77344815D01*
X83950268Y-77482713D01*
X83826911Y-77646065D01*
X83735670Y-77829300D01*
X83679654Y-78026176D01*
X83660768Y-78229999D01*
X83334499Y-78229999D01*
X83334499Y-77354934D01*
X83319734Y-77280699D01*
X83290572Y-77237056D01*
X83263484Y-77196515D01*
X83179300Y-77140265D01*
X83105069Y-77125500D01*
X81354934Y-77125500D01*
X81280698Y-77140266D01*
X81196515Y-77196515D01*
X81140265Y-77280699D01*
X81125500Y-77354930D01*
X81125500Y-79105065D01*
X81140266Y-79179301D01*
X81196515Y-79263484D01*
X81246506Y-79296887D01*
X81280699Y-79319734D01*
X81354933Y-79334500D01*
X81554742Y-79334499D01*
X81621779Y-79354183D01*
X81667534Y-79406987D01*
X81677478Y-79476145D01*
X81648453Y-79539701D01*
X81607147Y-79570880D01*
X81552422Y-79596399D01*
X81358921Y-79731890D01*
X81191890Y-79898921D01*
X81056400Y-80092421D01*
X80956569Y-80306507D01*
X80899364Y-80519999D01*
X80899364Y-80520000D01*
X81796314Y-80520000D01*
X81770507Y-80560156D01*
X81730000Y-80698111D01*
X81730000Y-80841889D01*
X81770507Y-80979844D01*
X81796314Y-81020000D01*
X80899364Y-81020000D01*
X58847206Y-81020000D01*
X58860345Y-80973823D01*
X58872570Y-80841889D01*
X58879232Y-80770000D01*
X58860345Y-80566179D01*
X58860345Y-80566176D01*
X58804329Y-80369300D01*
X58713088Y-80186065D01*
X58589731Y-80022713D01*
X58438464Y-79884815D01*
X58264427Y-79777056D01*
X58147840Y-79731890D01*
X58073556Y-79703112D01*
X57872347Y-79665500D01*
X57667653Y-79665500D01*
X57466443Y-79703112D01*
X57466444Y-79703112D01*
X57275572Y-79777056D01*
X57101535Y-79884815D01*
X56950268Y-80022713D01*
X56826911Y-80186065D01*
X56735670Y-80369300D01*
X56679654Y-80566176D01*
X56660768Y-80770000D01*
X56339232Y-80770000D01*
X56320345Y-80566179D01*
X56320345Y-80566176D01*
X56264329Y-80369300D01*
X56173088Y-80186065D01*
X56049731Y-80022713D01*
X55898464Y-79884815D01*
X55724427Y-79777056D01*
X55607840Y-79731890D01*
X55533556Y-79703112D01*
X55332347Y-79665500D01*
X55127653Y-79665500D01*
X54926444Y-79703112D01*
X54735572Y-79777056D01*
X54561535Y-79884815D01*
X54410268Y-80022713D01*
X54286911Y-80186065D01*
X54195670Y-80369300D01*
X54139654Y-80566176D01*
X54120768Y-80770000D01*
X50500000Y-80770000D01*
X50500000Y-79105065D01*
X54125500Y-79105065D01*
X54140266Y-79179301D01*
X54196515Y-79263484D01*
X54246506Y-79296887D01*
X54280699Y-79319734D01*
X54354933Y-79334500D01*
X56105066Y-79334499D01*
X56179301Y-79319734D01*
X56263484Y-79263484D01*
X56319734Y-79179301D01*
X56334500Y-79105067D01*
X56334499Y-78230000D01*
X56660768Y-78230000D01*
X56679654Y-78433823D01*
X56735670Y-78630699D01*
X56826911Y-78813934D01*
X56950268Y-78977286D01*
X57101535Y-79115184D01*
X57101537Y-79115185D01*
X57101538Y-79115186D01*
X57275573Y-79222944D01*
X57466444Y-79296888D01*
X57667653Y-79334500D01*
X57667655Y-79334500D01*
X57872345Y-79334500D01*
X57872347Y-79334500D01*
X58073556Y-79296888D01*
X58264427Y-79222944D01*
X58438462Y-79115186D01*
X58589732Y-78977285D01*
X58713088Y-78813935D01*
X58804328Y-78630701D01*
X58825485Y-78556343D01*
X58860345Y-78433823D01*
X58863297Y-78401954D01*
X58874904Y-78276699D01*
X77232014Y-78276699D01*
X77251072Y-78421454D01*
X77306943Y-78556340D01*
X77306944Y-78556342D01*
X77306945Y-78556343D01*
X77395826Y-78672174D01*
X77511657Y-78761055D01*
X77646546Y-78816928D01*
X77772241Y-78833475D01*
X77791299Y-78835985D01*
X77791299Y-78835984D01*
X77791300Y-78835985D01*
X77936054Y-78816928D01*
X78070943Y-78761055D01*
X78186774Y-78672174D01*
X78275655Y-78556343D01*
X78331528Y-78421454D01*
X78350585Y-78276700D01*
X78331528Y-78131946D01*
X78275655Y-77997058D01*
X78186774Y-77881226D01*
X78070943Y-77792345D01*
X78070942Y-77792344D01*
X78070940Y-77792343D01*
X77936054Y-77736472D01*
X77791299Y-77717414D01*
X77646546Y-77736472D01*
X77511657Y-77792345D01*
X77395825Y-77881225D01*
X77306945Y-77997057D01*
X77251072Y-78131946D01*
X77232014Y-78276699D01*
X58874904Y-78276699D01*
X58879232Y-78230000D01*
X58860345Y-78026179D01*
X58860345Y-78026176D01*
X58804329Y-77829300D01*
X58713088Y-77646065D01*
X58589731Y-77482713D01*
X58438464Y-77344815D01*
X58264427Y-77237056D01*
X58159781Y-77196516D01*
X58073556Y-77163112D01*
X57872347Y-77125500D01*
X57667653Y-77125500D01*
X57466443Y-77163112D01*
X57466444Y-77163112D01*
X57275572Y-77237056D01*
X57101535Y-77344815D01*
X56950268Y-77482713D01*
X56826911Y-77646065D01*
X56735670Y-77829300D01*
X56679654Y-78026176D01*
X56660768Y-78230000D01*
X56334499Y-78230000D01*
X56334499Y-77354934D01*
X56319734Y-77280699D01*
X56290572Y-77237056D01*
X56263484Y-77196515D01*
X56179300Y-77140265D01*
X56105069Y-77125500D01*
X54354934Y-77125500D01*
X54280698Y-77140266D01*
X54196515Y-77196515D01*
X54140265Y-77280699D01*
X54125500Y-77354930D01*
X54125500Y-79105065D01*
X50500000Y-79105065D01*
X50500000Y-76750399D01*
X78333114Y-76750399D01*
X78352172Y-76895154D01*
X78408043Y-77030040D01*
X78408044Y-77030042D01*
X78408045Y-77030043D01*
X78496926Y-77145874D01*
X78612757Y-77234755D01*
X78747646Y-77290628D01*
X78873341Y-77307175D01*
X78892399Y-77309685D01*
X78892399Y-77309684D01*
X78892400Y-77309685D01*
X79037154Y-77290628D01*
X79172043Y-77234755D01*
X79287874Y-77145874D01*
X79376755Y-77030043D01*
X79432628Y-76895154D01*
X79451685Y-76750400D01*
X79432628Y-76605646D01*
X79376755Y-76470758D01*
X79287874Y-76354926D01*
X79172043Y-76266045D01*
X79172042Y-76266044D01*
X79172040Y-76266043D01*
X79037154Y-76210172D01*
X78892399Y-76191114D01*
X78747646Y-76210172D01*
X78612757Y-76266045D01*
X78496925Y-76354925D01*
X78408045Y-76470757D01*
X78352172Y-76605646D01*
X78333114Y-76750399D01*
X50500000Y-76750399D01*
X50500000Y-75971399D01*
X73253114Y-75971399D01*
X73272172Y-76116154D01*
X73328043Y-76251040D01*
X73328044Y-76251042D01*
X73328045Y-76251043D01*
X73416926Y-76366874D01*
X73532757Y-76455755D01*
X73667646Y-76511628D01*
X73812400Y-76530685D01*
X73957154Y-76511628D01*
X74092043Y-76455755D01*
X74207874Y-76366874D01*
X74296755Y-76251043D01*
X74352628Y-76116154D01*
X74371685Y-75971400D01*
X74352628Y-75826646D01*
X74296755Y-75691758D01*
X74207874Y-75575926D01*
X74092043Y-75487045D01*
X74092042Y-75487044D01*
X74092040Y-75487043D01*
X73957154Y-75431172D01*
X73812399Y-75412114D01*
X73667646Y-75431172D01*
X73532757Y-75487045D01*
X73416925Y-75575925D01*
X73328045Y-75691757D01*
X73272172Y-75826646D01*
X73253114Y-75971399D01*
X50500000Y-75971399D01*
X50500000Y-73834599D01*
X64680014Y-73834599D01*
X64699072Y-73979354D01*
X64754943Y-74114240D01*
X64754944Y-74114242D01*
X64754945Y-74114243D01*
X64843826Y-74230074D01*
X64959657Y-74318955D01*
X65094546Y-74374828D01*
X65239300Y-74393885D01*
X65384054Y-74374828D01*
X65518943Y-74318955D01*
X65583264Y-74269599D01*
X71602114Y-74269599D01*
X71621172Y-74414354D01*
X71677043Y-74549240D01*
X71677044Y-74549242D01*
X71677045Y-74549243D01*
X71765926Y-74665074D01*
X71881757Y-74753955D01*
X72016646Y-74809828D01*
X72142342Y-74826375D01*
X72161399Y-74828885D01*
X72161399Y-74828884D01*
X72161400Y-74828885D01*
X72227924Y-74820127D01*
X72296959Y-74830892D01*
X72349215Y-74877272D01*
X72367048Y-74926880D01*
X72383172Y-75049354D01*
X72439043Y-75184240D01*
X72439044Y-75184242D01*
X72439045Y-75184243D01*
X72527926Y-75300074D01*
X72643757Y-75388955D01*
X72778646Y-75444828D01*
X72923400Y-75463885D01*
X73068154Y-75444828D01*
X73203043Y-75388955D01*
X73318874Y-75300074D01*
X73407755Y-75184243D01*
X73463628Y-75049354D01*
X73482685Y-74904600D01*
X73463628Y-74759846D01*
X73407755Y-74624958D01*
X73318874Y-74509126D01*
X73203043Y-74420245D01*
X73203042Y-74420244D01*
X73203040Y-74420243D01*
X73082222Y-74370199D01*
X78488014Y-74370199D01*
X78507072Y-74514954D01*
X78562943Y-74649840D01*
X78562944Y-74649842D01*
X78562945Y-74649843D01*
X78651826Y-74765674D01*
X78767657Y-74854555D01*
X78902546Y-74910428D01*
X79047300Y-74929485D01*
X79192054Y-74910428D01*
X79326943Y-74854555D01*
X79442774Y-74765674D01*
X79531655Y-74649843D01*
X79587528Y-74514954D01*
X79606585Y-74370200D01*
X79587528Y-74225446D01*
X79531655Y-74090558D01*
X79454462Y-73989958D01*
X79442773Y-73974724D01*
X79379508Y-73926179D01*
X79338306Y-73869751D01*
X79334151Y-73800005D01*
X79368364Y-73739085D01*
X79430081Y-73706333D01*
X79471175Y-73704865D01*
X79556400Y-73716085D01*
X79701154Y-73697028D01*
X79836043Y-73641155D01*
X79951874Y-73552274D01*
X80040755Y-73436443D01*
X80096628Y-73301554D01*
X80115685Y-73156800D01*
X80096628Y-73012046D01*
X80040755Y-72877158D01*
X79974358Y-72790628D01*
X79951875Y-72761327D01*
X79951874Y-72761326D01*
X79836043Y-72672445D01*
X79836042Y-72672444D01*
X79836040Y-72672443D01*
X79701154Y-72616572D01*
X79556399Y-72597514D01*
X79411646Y-72616572D01*
X79276757Y-72672445D01*
X79160925Y-72761325D01*
X79072045Y-72877157D01*
X79016172Y-73012046D01*
X78997114Y-73156799D01*
X79016172Y-73301554D01*
X79072043Y-73436440D01*
X79072044Y-73436442D01*
X79072045Y-73436443D01*
X79160926Y-73552274D01*
X79224191Y-73600819D01*
X79265393Y-73657247D01*
X79269548Y-73726993D01*
X79235335Y-73787914D01*
X79173618Y-73820666D01*
X79132519Y-73822134D01*
X79047300Y-73810914D01*
X78902546Y-73829972D01*
X78767657Y-73885845D01*
X78651825Y-73974725D01*
X78562945Y-74090557D01*
X78507072Y-74225446D01*
X78488014Y-74370199D01*
X73082222Y-74370199D01*
X73068154Y-74364372D01*
X72923398Y-74345314D01*
X72856874Y-74354072D01*
X72787839Y-74343306D01*
X72735583Y-74296925D01*
X72717751Y-74247320D01*
X72701628Y-74124846D01*
X72645755Y-73989958D01*
X72556874Y-73874126D01*
X72441043Y-73785245D01*
X72441042Y-73785244D01*
X72441040Y-73785243D01*
X72306154Y-73729372D01*
X72161399Y-73710314D01*
X72016646Y-73729372D01*
X71881757Y-73785245D01*
X71765925Y-73874125D01*
X71677045Y-73989957D01*
X71621172Y-74124846D01*
X71602114Y-74269599D01*
X65583264Y-74269599D01*
X65634774Y-74230074D01*
X65723655Y-74114243D01*
X65779528Y-73979354D01*
X65798585Y-73834600D01*
X65779528Y-73689846D01*
X65723655Y-73554958D01*
X65634774Y-73439126D01*
X65518943Y-73350245D01*
X65518942Y-73350244D01*
X65518940Y-73350243D01*
X65384054Y-73294372D01*
X65239299Y-73275314D01*
X65094546Y-73294372D01*
X64959657Y-73350245D01*
X64843825Y-73439125D01*
X64754945Y-73554957D01*
X64699072Y-73689846D01*
X64680014Y-73834599D01*
X50500000Y-73834599D01*
X50500000Y-72250399D01*
X65134014Y-72250399D01*
X65153072Y-72395154D01*
X65208943Y-72530040D01*
X65208944Y-72530042D01*
X65208945Y-72530043D01*
X65297826Y-72645874D01*
X65413657Y-72734755D01*
X65548546Y-72790628D01*
X65674242Y-72807175D01*
X65693299Y-72809685D01*
X65693299Y-72809684D01*
X65693300Y-72809685D01*
X65838054Y-72790628D01*
X65972943Y-72734755D01*
X66088774Y-72645874D01*
X66177655Y-72530043D01*
X66233528Y-72395154D01*
X66242830Y-72324499D01*
X69982814Y-72324499D01*
X70001872Y-72469254D01*
X70057743Y-72604140D01*
X70057744Y-72604142D01*
X70057745Y-72604143D01*
X70146626Y-72719974D01*
X70262457Y-72808855D01*
X70262458Y-72808855D01*
X70262459Y-72808856D01*
X70293015Y-72821512D01*
X70397346Y-72864728D01*
X70523041Y-72881275D01*
X70542099Y-72883785D01*
X70542099Y-72883784D01*
X70542100Y-72883785D01*
X70686854Y-72864728D01*
X70821743Y-72808855D01*
X70937574Y-72719974D01*
X71026455Y-72604143D01*
X71082328Y-72469254D01*
X71101385Y-72324500D01*
X71082328Y-72179746D01*
X71026455Y-72044858D01*
X70937574Y-71929026D01*
X70821743Y-71840145D01*
X70821742Y-71840144D01*
X70821740Y-71840143D01*
X70686854Y-71784272D01*
X70542099Y-71765214D01*
X70397346Y-71784272D01*
X70262457Y-71840145D01*
X70146625Y-71929025D01*
X70057745Y-72044857D01*
X70001872Y-72179746D01*
X69982814Y-72324499D01*
X66242830Y-72324499D01*
X66252585Y-72250400D01*
X66233528Y-72105646D01*
X66177655Y-71970758D01*
X66088774Y-71854926D01*
X65972943Y-71766045D01*
X65972942Y-71766044D01*
X65972940Y-71766043D01*
X65838054Y-71710172D01*
X65693299Y-71691114D01*
X65548546Y-71710172D01*
X65413657Y-71766045D01*
X65297825Y-71854925D01*
X65208945Y-71970757D01*
X65153072Y-72105646D01*
X65134014Y-72250399D01*
X50500000Y-72250399D01*
X50500000Y-69316600D01*
X53291925Y-69316600D01*
X53310962Y-69485551D01*
X53310962Y-69485553D01*
X53310963Y-69485554D01*
X53322286Y-69517913D01*
X53367118Y-69646037D01*
X53457577Y-69790002D01*
X53577797Y-69910222D01*
X53577799Y-69910223D01*
X53577800Y-69910224D01*
X53721763Y-70000682D01*
X53882246Y-70056837D01*
X54051200Y-70075874D01*
X54220154Y-70056837D01*
X54305998Y-70026799D01*
X77163014Y-70026799D01*
X77182072Y-70171554D01*
X77237943Y-70306440D01*
X77237944Y-70306442D01*
X77237945Y-70306443D01*
X77326826Y-70422274D01*
X77442657Y-70511155D01*
X77577546Y-70567028D01*
X77722300Y-70586085D01*
X77867054Y-70567028D01*
X78001943Y-70511155D01*
X78117774Y-70422274D01*
X78206655Y-70306443D01*
X78262528Y-70171554D01*
X78281585Y-70026800D01*
X78262528Y-69882046D01*
X78206655Y-69747158D01*
X78117774Y-69631326D01*
X78001943Y-69542445D01*
X78001942Y-69542444D01*
X78001940Y-69542443D01*
X77867054Y-69486572D01*
X77722299Y-69467514D01*
X77577546Y-69486572D01*
X77442657Y-69542445D01*
X77326825Y-69631325D01*
X77237945Y-69747157D01*
X77182072Y-69882046D01*
X77163014Y-70026799D01*
X54305998Y-70026799D01*
X54380637Y-70000682D01*
X54524600Y-69910224D01*
X54644824Y-69790000D01*
X54735282Y-69646037D01*
X54791437Y-69485554D01*
X54810474Y-69316600D01*
X54791437Y-69147646D01*
X54761678Y-69062599D01*
X72440314Y-69062599D01*
X72459372Y-69207354D01*
X72515243Y-69342240D01*
X72515244Y-69342242D01*
X72515245Y-69342243D01*
X72604126Y-69458074D01*
X72719957Y-69546955D01*
X72854846Y-69602828D01*
X72999600Y-69621885D01*
X73144354Y-69602828D01*
X73279243Y-69546955D01*
X73395074Y-69458074D01*
X73483955Y-69342243D01*
X73539828Y-69207354D01*
X73551007Y-69122438D01*
X79359301Y-69122438D01*
X79378359Y-69267193D01*
X79434230Y-69402079D01*
X79434231Y-69402081D01*
X79434232Y-69402082D01*
X79523113Y-69517913D01*
X79638944Y-69606794D01*
X79773833Y-69662667D01*
X79918587Y-69681724D01*
X80063341Y-69662667D01*
X80198230Y-69606794D01*
X80314061Y-69517913D01*
X80402942Y-69402082D01*
X80458815Y-69267193D01*
X80477872Y-69122439D01*
X80458815Y-68977685D01*
X80402942Y-68842797D01*
X80314061Y-68726965D01*
X80198230Y-68638084D01*
X80198229Y-68638083D01*
X80198227Y-68638082D01*
X80063341Y-68582211D01*
X79918586Y-68563153D01*
X79773833Y-68582211D01*
X79638944Y-68638084D01*
X79523112Y-68726964D01*
X79434232Y-68842796D01*
X79378359Y-68977685D01*
X79359301Y-69122438D01*
X73551007Y-69122438D01*
X73558885Y-69062600D01*
X73539828Y-68917846D01*
X73483955Y-68782958D01*
X73395074Y-68667126D01*
X73279243Y-68578245D01*
X73279242Y-68578244D01*
X73279240Y-68578243D01*
X73144354Y-68522372D01*
X72999599Y-68503314D01*
X72854846Y-68522372D01*
X72719957Y-68578245D01*
X72604125Y-68667125D01*
X72515245Y-68782957D01*
X72459372Y-68917846D01*
X72440314Y-69062599D01*
X54761678Y-69062599D01*
X54735282Y-68987163D01*
X54644824Y-68843200D01*
X54644823Y-68843199D01*
X54644822Y-68843197D01*
X54524602Y-68722977D01*
X54380637Y-68632518D01*
X54220151Y-68576362D01*
X54051200Y-68557325D01*
X53882248Y-68576362D01*
X53721762Y-68632518D01*
X53577797Y-68722977D01*
X53457577Y-68843197D01*
X53367118Y-68987162D01*
X53310962Y-69147648D01*
X53291925Y-69316600D01*
X50500000Y-69316600D01*
X50500000Y-67400499D01*
X70807914Y-67400499D01*
X70826972Y-67545254D01*
X70882843Y-67680140D01*
X70882844Y-67680142D01*
X70882845Y-67680143D01*
X70971726Y-67795974D01*
X71087557Y-67884855D01*
X71222446Y-67940728D01*
X71348141Y-67957275D01*
X71367199Y-67959785D01*
X71367199Y-67959784D01*
X71367200Y-67959785D01*
X71511954Y-67940728D01*
X71646843Y-67884855D01*
X71667767Y-67868799D01*
X78053714Y-67868799D01*
X78072772Y-68013554D01*
X78128643Y-68148440D01*
X78128644Y-68148442D01*
X78128645Y-68148443D01*
X78217526Y-68264274D01*
X78333357Y-68353155D01*
X78468246Y-68409028D01*
X78613000Y-68428085D01*
X78757754Y-68409028D01*
X78892643Y-68353155D01*
X79008474Y-68264274D01*
X79097355Y-68148443D01*
X79153228Y-68013554D01*
X79168941Y-67894199D01*
X81584314Y-67894199D01*
X81603372Y-68038954D01*
X81659243Y-68173840D01*
X81659244Y-68173842D01*
X81659245Y-68173843D01*
X81748126Y-68289674D01*
X81863957Y-68378555D01*
X81998846Y-68434428D01*
X82143600Y-68453485D01*
X82288354Y-68434428D01*
X82423243Y-68378555D01*
X82539074Y-68289674D01*
X82627955Y-68173843D01*
X82683828Y-68038954D01*
X82702885Y-67894200D01*
X82683828Y-67749446D01*
X82627955Y-67614558D01*
X82539074Y-67498726D01*
X82423243Y-67409845D01*
X82423242Y-67409844D01*
X82423240Y-67409843D01*
X82288354Y-67353972D01*
X82143599Y-67334914D01*
X81998846Y-67353972D01*
X81863957Y-67409845D01*
X81748125Y-67498725D01*
X81659245Y-67614557D01*
X81603372Y-67749446D01*
X81584314Y-67894199D01*
X79168941Y-67894199D01*
X79172285Y-67868800D01*
X79153228Y-67724046D01*
X79097355Y-67589158D01*
X79008474Y-67473326D01*
X78892643Y-67384445D01*
X78892642Y-67384444D01*
X78892640Y-67384443D01*
X78757754Y-67328572D01*
X78612999Y-67309514D01*
X78468246Y-67328572D01*
X78333357Y-67384445D01*
X78217525Y-67473325D01*
X78128645Y-67589157D01*
X78072772Y-67724046D01*
X78053714Y-67868799D01*
X71667767Y-67868799D01*
X71762674Y-67795974D01*
X71851555Y-67680143D01*
X71907428Y-67545254D01*
X71926485Y-67400500D01*
X71907428Y-67255746D01*
X71851555Y-67120858D01*
X71762674Y-67005026D01*
X71646843Y-66916145D01*
X71646842Y-66916144D01*
X71646840Y-66916143D01*
X71511954Y-66860272D01*
X71455193Y-66852799D01*
X72110114Y-66852799D01*
X72129172Y-66997554D01*
X72185043Y-67132440D01*
X72185044Y-67132442D01*
X72185045Y-67132443D01*
X72273926Y-67248274D01*
X72389757Y-67337155D01*
X72524646Y-67393028D01*
X72650341Y-67409575D01*
X72669399Y-67412085D01*
X72669399Y-67412084D01*
X72669400Y-67412085D01*
X72814154Y-67393028D01*
X72949043Y-67337155D01*
X73064874Y-67248274D01*
X73153755Y-67132443D01*
X73209628Y-66997554D01*
X73228685Y-66852800D01*
X73209628Y-66708046D01*
X73153755Y-66573158D01*
X73064874Y-66457326D01*
X72949043Y-66368445D01*
X72949042Y-66368444D01*
X72949040Y-66368443D01*
X72814154Y-66312572D01*
X72669399Y-66293514D01*
X72524646Y-66312572D01*
X72389757Y-66368445D01*
X72273925Y-66457325D01*
X72185045Y-66573157D01*
X72129172Y-66708046D01*
X72110114Y-66852799D01*
X71455193Y-66852799D01*
X71367199Y-66841214D01*
X71222446Y-66860272D01*
X71087557Y-66916145D01*
X70971725Y-67005025D01*
X70882845Y-67120857D01*
X70826972Y-67255746D01*
X70807914Y-67400499D01*
X50500000Y-67400499D01*
X50500000Y-64770000D01*
X54120768Y-64770000D01*
X54139654Y-64973823D01*
X54195670Y-65170699D01*
X54286911Y-65353934D01*
X54410268Y-65517286D01*
X54561535Y-65655184D01*
X54561537Y-65655185D01*
X54561538Y-65655186D01*
X54735573Y-65762944D01*
X54926444Y-65836888D01*
X55127653Y-65874500D01*
X55127655Y-65874500D01*
X55332345Y-65874500D01*
X55332347Y-65874500D01*
X55533556Y-65836888D01*
X55724427Y-65762944D01*
X55898462Y-65655186D01*
X56049732Y-65517285D01*
X56173088Y-65353935D01*
X56264328Y-65170701D01*
X56264329Y-65170699D01*
X56320345Y-64973823D01*
X56323297Y-64941954D01*
X56339232Y-64770000D01*
X56660768Y-64770000D01*
X56679654Y-64973823D01*
X56735670Y-65170699D01*
X56826911Y-65353934D01*
X56950268Y-65517286D01*
X57101535Y-65655184D01*
X57101537Y-65655185D01*
X57101538Y-65655186D01*
X57275573Y-65762944D01*
X57466444Y-65836888D01*
X57667653Y-65874500D01*
X57667655Y-65874500D01*
X57872345Y-65874500D01*
X57872347Y-65874500D01*
X58073556Y-65836888D01*
X58264427Y-65762944D01*
X58291794Y-65745999D01*
X75693014Y-65745999D01*
X75712072Y-65890754D01*
X75767943Y-66025640D01*
X75767944Y-66025642D01*
X75767945Y-66025643D01*
X75856826Y-66141474D01*
X75972657Y-66230355D01*
X76107546Y-66286228D01*
X76233242Y-66302775D01*
X76252299Y-66305285D01*
X76252299Y-66305284D01*
X76252300Y-66305285D01*
X76397054Y-66286228D01*
X76531943Y-66230355D01*
X76647774Y-66141474D01*
X76736655Y-66025643D01*
X76792528Y-65890754D01*
X76811585Y-65746000D01*
X76792528Y-65601246D01*
X76736655Y-65466358D01*
X76647774Y-65350526D01*
X76531943Y-65261645D01*
X76531942Y-65261644D01*
X76531940Y-65261643D01*
X76397054Y-65205772D01*
X76252299Y-65186714D01*
X76107546Y-65205772D01*
X75972657Y-65261645D01*
X75856825Y-65350525D01*
X75767945Y-65466357D01*
X75712072Y-65601246D01*
X75693014Y-65745999D01*
X58291794Y-65745999D01*
X58438462Y-65655186D01*
X58589732Y-65517285D01*
X58713088Y-65353935D01*
X58804328Y-65170701D01*
X58804329Y-65170699D01*
X58860345Y-64973823D01*
X58863297Y-64941954D01*
X58879232Y-64770000D01*
X81120768Y-64770000D01*
X81139654Y-64973823D01*
X81195670Y-65170699D01*
X81286911Y-65353934D01*
X81410268Y-65517286D01*
X81561535Y-65655184D01*
X81561537Y-65655185D01*
X81561538Y-65655186D01*
X81735573Y-65762944D01*
X81926444Y-65836888D01*
X82127653Y-65874500D01*
X82127655Y-65874500D01*
X82332345Y-65874500D01*
X82332347Y-65874500D01*
X82533556Y-65836888D01*
X82724427Y-65762944D01*
X82898462Y-65655186D01*
X83049732Y-65517285D01*
X83173088Y-65353935D01*
X83264328Y-65170701D01*
X83264329Y-65170699D01*
X83320345Y-64973823D01*
X83323297Y-64941954D01*
X83339232Y-64770000D01*
X83660768Y-64770000D01*
X83679654Y-64973823D01*
X83735670Y-65170699D01*
X83826911Y-65353934D01*
X83950268Y-65517286D01*
X84101535Y-65655184D01*
X84101537Y-65655185D01*
X84101538Y-65655186D01*
X84275573Y-65762944D01*
X84466444Y-65836888D01*
X84667653Y-65874500D01*
X84667655Y-65874500D01*
X84872345Y-65874500D01*
X84872347Y-65874500D01*
X85073556Y-65836888D01*
X85264427Y-65762944D01*
X85438462Y-65655186D01*
X85589732Y-65517285D01*
X85713088Y-65353935D01*
X85804328Y-65170701D01*
X85804329Y-65170699D01*
X85860345Y-64973823D01*
X85863297Y-64941954D01*
X85879232Y-64770000D01*
X85860345Y-64566179D01*
X85860345Y-64566176D01*
X85804329Y-64369300D01*
X85713088Y-64186065D01*
X85589731Y-64022713D01*
X85438464Y-63884815D01*
X85264427Y-63777056D01*
X85222610Y-63760856D01*
X85073556Y-63703112D01*
X84872347Y-63665500D01*
X84667653Y-63665500D01*
X84466443Y-63703112D01*
X84466444Y-63703112D01*
X84275572Y-63777056D01*
X84101535Y-63884815D01*
X83950268Y-64022713D01*
X83826911Y-64186065D01*
X83735670Y-64369300D01*
X83679654Y-64566176D01*
X83660768Y-64770000D01*
X83339232Y-64770000D01*
X83320345Y-64566179D01*
X83320345Y-64566176D01*
X83264329Y-64369300D01*
X83173088Y-64186065D01*
X83049731Y-64022713D01*
X82898464Y-63884815D01*
X82724427Y-63777056D01*
X82682610Y-63760856D01*
X82533556Y-63703112D01*
X82332347Y-63665500D01*
X82127653Y-63665500D01*
X81926444Y-63703112D01*
X81735572Y-63777056D01*
X81561535Y-63884815D01*
X81410268Y-64022713D01*
X81286911Y-64186065D01*
X81195670Y-64369300D01*
X81139654Y-64566176D01*
X81120768Y-64770000D01*
X58879232Y-64770000D01*
X58860345Y-64566179D01*
X58860345Y-64566176D01*
X58804329Y-64369300D01*
X58713088Y-64186065D01*
X58589731Y-64022713D01*
X58438464Y-63884815D01*
X58264427Y-63777056D01*
X58222610Y-63760856D01*
X58073556Y-63703112D01*
X57872347Y-63665500D01*
X57667653Y-63665500D01*
X57466443Y-63703112D01*
X57466444Y-63703112D01*
X57275572Y-63777056D01*
X57101535Y-63884815D01*
X56950268Y-64022713D01*
X56826911Y-64186065D01*
X56735670Y-64369300D01*
X56679654Y-64566176D01*
X56660768Y-64770000D01*
X56339232Y-64770000D01*
X56320345Y-64566179D01*
X56320345Y-64566176D01*
X56264329Y-64369300D01*
X56173088Y-64186065D01*
X56049731Y-64022713D01*
X55898464Y-63884815D01*
X55724427Y-63777056D01*
X55682610Y-63760856D01*
X55533556Y-63703112D01*
X55332347Y-63665500D01*
X55127653Y-63665500D01*
X54926444Y-63703112D01*
X54735572Y-63777056D01*
X54561535Y-63884815D01*
X54410268Y-64022713D01*
X54286911Y-64186065D01*
X54195670Y-64369300D01*
X54139654Y-64566176D01*
X54120768Y-64770000D01*
X50500000Y-64770000D01*
X50500000Y-63105065D01*
X54125500Y-63105065D01*
X54140266Y-63179301D01*
X54196515Y-63263484D01*
X54246506Y-63296887D01*
X54280699Y-63319734D01*
X54354933Y-63334500D01*
X56105066Y-63334499D01*
X56179301Y-63319734D01*
X56263484Y-63263484D01*
X56319734Y-63179301D01*
X56334500Y-63105067D01*
X56334499Y-62230000D01*
X56660768Y-62230000D01*
X56679654Y-62433823D01*
X56735670Y-62630699D01*
X56826911Y-62813934D01*
X56950268Y-62977286D01*
X57101535Y-63115184D01*
X57101537Y-63115185D01*
X57101538Y-63115186D01*
X57275573Y-63222944D01*
X57466444Y-63296888D01*
X57667653Y-63334500D01*
X57667655Y-63334500D01*
X57872345Y-63334500D01*
X57872347Y-63334500D01*
X58073556Y-63296888D01*
X58264427Y-63222944D01*
X58438462Y-63115186D01*
X58453585Y-63101399D01*
X62262514Y-63101399D01*
X62281572Y-63246154D01*
X62337443Y-63381040D01*
X62337444Y-63381042D01*
X62337445Y-63381043D01*
X62426326Y-63496874D01*
X62542157Y-63585755D01*
X62677046Y-63641628D01*
X62821800Y-63660685D01*
X62966554Y-63641628D01*
X63101443Y-63585755D01*
X63217274Y-63496874D01*
X63306155Y-63381043D01*
X63349459Y-63276499D01*
X65134014Y-63276499D01*
X65153072Y-63421254D01*
X65208943Y-63556140D01*
X65208944Y-63556142D01*
X65208945Y-63556143D01*
X65297826Y-63671974D01*
X65413657Y-63760855D01*
X65548546Y-63816728D01*
X65674242Y-63833275D01*
X65693299Y-63835785D01*
X65693299Y-63835784D01*
X65693300Y-63835785D01*
X65838054Y-63816728D01*
X65972943Y-63760855D01*
X66088774Y-63671974D01*
X66177655Y-63556143D01*
X66233528Y-63421254D01*
X66252585Y-63276500D01*
X66233528Y-63131746D01*
X66222476Y-63105065D01*
X81125500Y-63105065D01*
X81140266Y-63179301D01*
X81196515Y-63263484D01*
X81246506Y-63296887D01*
X81280699Y-63319734D01*
X81354933Y-63334500D01*
X83105066Y-63334499D01*
X83179301Y-63319734D01*
X83263484Y-63263484D01*
X83319734Y-63179301D01*
X83334500Y-63105067D01*
X83334499Y-62230000D01*
X83660768Y-62230000D01*
X83679654Y-62433823D01*
X83735670Y-62630699D01*
X83826911Y-62813934D01*
X83950268Y-62977286D01*
X84101535Y-63115184D01*
X84101537Y-63115185D01*
X84101538Y-63115186D01*
X84275573Y-63222944D01*
X84466444Y-63296888D01*
X84667653Y-63334500D01*
X84667655Y-63334500D01*
X84872345Y-63334500D01*
X84872347Y-63334500D01*
X85073556Y-63296888D01*
X85264427Y-63222944D01*
X85438462Y-63115186D01*
X85539308Y-63023252D01*
X85589731Y-62977286D01*
X85605318Y-62956646D01*
X85713088Y-62813935D01*
X85804328Y-62630701D01*
X85804329Y-62630699D01*
X85860345Y-62433823D01*
X85863297Y-62401954D01*
X85879232Y-62230000D01*
X85860345Y-62026179D01*
X85860345Y-62026176D01*
X85804329Y-61829300D01*
X85713088Y-61646065D01*
X85589731Y-61482713D01*
X85438464Y-61344815D01*
X85264427Y-61237056D01*
X85159781Y-61196516D01*
X85073556Y-61163112D01*
X84872347Y-61125500D01*
X84667653Y-61125500D01*
X84466443Y-61163112D01*
X84466444Y-61163112D01*
X84275572Y-61237056D01*
X84101535Y-61344815D01*
X83950268Y-61482713D01*
X83826911Y-61646065D01*
X83735670Y-61829300D01*
X83679654Y-62026176D01*
X83660768Y-62230000D01*
X83334499Y-62230000D01*
X83334499Y-61354934D01*
X83319734Y-61280699D01*
X83290572Y-61237056D01*
X83263484Y-61196515D01*
X83179300Y-61140265D01*
X83105069Y-61125500D01*
X81354934Y-61125500D01*
X81280698Y-61140266D01*
X81196515Y-61196515D01*
X81140265Y-61280699D01*
X81125500Y-61354930D01*
X81125500Y-63105065D01*
X66222476Y-63105065D01*
X66177655Y-62996858D01*
X66088774Y-62881026D01*
X65972943Y-62792145D01*
X65972942Y-62792144D01*
X65972940Y-62792143D01*
X65838054Y-62736272D01*
X65693299Y-62717214D01*
X65548546Y-62736272D01*
X65413657Y-62792145D01*
X65297825Y-62881025D01*
X65208945Y-62996857D01*
X65153072Y-63131746D01*
X65134014Y-63276499D01*
X63349459Y-63276499D01*
X63362028Y-63246154D01*
X63381085Y-63101400D01*
X63362028Y-62956646D01*
X63306155Y-62821758D01*
X63240559Y-62736272D01*
X63217275Y-62705927D01*
X63217274Y-62705926D01*
X63101443Y-62617045D01*
X63101442Y-62617044D01*
X63101440Y-62617043D01*
X62966554Y-62561172D01*
X62821799Y-62542114D01*
X62677046Y-62561172D01*
X62542157Y-62617045D01*
X62426325Y-62705925D01*
X62337445Y-62821757D01*
X62281572Y-62956646D01*
X62262514Y-63101399D01*
X58453585Y-63101399D01*
X58539308Y-63023251D01*
X58589731Y-62977286D01*
X58605318Y-62956646D01*
X58713088Y-62813935D01*
X58804328Y-62630701D01*
X58804329Y-62630699D01*
X58860345Y-62433823D01*
X58863297Y-62401954D01*
X58879232Y-62230000D01*
X58860345Y-62026179D01*
X58860345Y-62026176D01*
X58804329Y-61829300D01*
X58713088Y-61646065D01*
X58589731Y-61482713D01*
X58438464Y-61344815D01*
X58264427Y-61237056D01*
X58159781Y-61196516D01*
X58073556Y-61163112D01*
X57872347Y-61125500D01*
X57667653Y-61125500D01*
X57466443Y-61163112D01*
X57466444Y-61163112D01*
X57275572Y-61237056D01*
X57101535Y-61344815D01*
X56950268Y-61482713D01*
X56826911Y-61646065D01*
X56735670Y-61829300D01*
X56679654Y-62026176D01*
X56660768Y-62230000D01*
X56334499Y-62230000D01*
X56334499Y-61354934D01*
X56319734Y-61280699D01*
X56290572Y-61237056D01*
X56263484Y-61196515D01*
X56179300Y-61140265D01*
X56105069Y-61125500D01*
X54354934Y-61125500D01*
X54280698Y-61140266D01*
X54196515Y-61196515D01*
X54140265Y-61280699D01*
X54125500Y-61354930D01*
X54125500Y-63105065D01*
X50500000Y-63105065D01*
X50500000Y-58750000D01*
X51110768Y-58750000D01*
X51129654Y-58953823D01*
X51185670Y-59150699D01*
X51276911Y-59333934D01*
X51400268Y-59497286D01*
X51551535Y-59635184D01*
X51551537Y-59635185D01*
X51551538Y-59635186D01*
X51725573Y-59742944D01*
X51916444Y-59816888D01*
X52117653Y-59854500D01*
X52117655Y-59854500D01*
X52322345Y-59854500D01*
X52322347Y-59854500D01*
X52523556Y-59816888D01*
X52714427Y-59742944D01*
X52888462Y-59635186D01*
X53039732Y-59497285D01*
X53163088Y-59333935D01*
X53163088Y-59333933D01*
X53163090Y-59333932D01*
X53248380Y-59162646D01*
X53295882Y-59111409D01*
X53363545Y-59093987D01*
X53429886Y-59115912D01*
X53473841Y-59170223D01*
X53479154Y-59185822D01*
X53486567Y-59213488D01*
X53586399Y-59427576D01*
X53721893Y-59621081D01*
X53888918Y-59788106D01*
X54082423Y-59923600D01*
X54296509Y-60023430D01*
X54510000Y-60080634D01*
X54510000Y-59185501D01*
X54617685Y-59234680D01*
X54724237Y-59250000D01*
X54795763Y-59250000D01*
X54902315Y-59234680D01*
X55009999Y-59185501D01*
X55009999Y-60080633D01*
X55223491Y-60023430D01*
X55437576Y-59923600D01*
X55631081Y-59788106D01*
X55798106Y-59621081D01*
X55933600Y-59427576D01*
X56033431Y-59213490D01*
X56040844Y-59185825D01*
X56077208Y-59126164D01*
X56140055Y-59095634D01*
X56209430Y-59103928D01*
X56263309Y-59148413D01*
X56271619Y-59162645D01*
X56356911Y-59333934D01*
X56480268Y-59497286D01*
X56631535Y-59635184D01*
X56631537Y-59635185D01*
X56631538Y-59635186D01*
X56805573Y-59742944D01*
X56996444Y-59816888D01*
X57197653Y-59854500D01*
X57197655Y-59854500D01*
X57402345Y-59854500D01*
X57402347Y-59854500D01*
X57603556Y-59816888D01*
X57794427Y-59742944D01*
X57968462Y-59635186D01*
X58119732Y-59497285D01*
X58243088Y-59333935D01*
X58334328Y-59150701D01*
X58334979Y-59148413D01*
X58390345Y-58953823D01*
X58402570Y-58821889D01*
X58409232Y-58750000D01*
X58730768Y-58750000D01*
X58749654Y-58953823D01*
X58805670Y-59150699D01*
X58896911Y-59333934D01*
X59020268Y-59497286D01*
X59171535Y-59635184D01*
X59171537Y-59635185D01*
X59171538Y-59635186D01*
X59345573Y-59742944D01*
X59536444Y-59816888D01*
X59737653Y-59854500D01*
X59737655Y-59854500D01*
X59942345Y-59854500D01*
X59942347Y-59854500D01*
X60143556Y-59816888D01*
X60334427Y-59742944D01*
X60508462Y-59635186D01*
X60659732Y-59497285D01*
X60783088Y-59333935D01*
X60874328Y-59150701D01*
X60874979Y-59148413D01*
X60930345Y-58953823D01*
X60942570Y-58821889D01*
X60949232Y-58750000D01*
X61270768Y-58750000D01*
X61289654Y-58953823D01*
X61345670Y-59150699D01*
X61436911Y-59333934D01*
X61560268Y-59497286D01*
X61711535Y-59635184D01*
X61711537Y-59635185D01*
X61711538Y-59635186D01*
X61885573Y-59742944D01*
X62076444Y-59816888D01*
X62277653Y-59854500D01*
X62277655Y-59854500D01*
X62482345Y-59854500D01*
X62482347Y-59854500D01*
X62683556Y-59816888D01*
X62874427Y-59742944D01*
X63048462Y-59635186D01*
X63199732Y-59497285D01*
X63323088Y-59333935D01*
X63414328Y-59150701D01*
X63414979Y-59148413D01*
X63470345Y-58953823D01*
X63482570Y-58821889D01*
X63489232Y-58750000D01*
X63810768Y-58750000D01*
X63829654Y-58953823D01*
X63885670Y-59150699D01*
X63976911Y-59333934D01*
X64100268Y-59497286D01*
X64251535Y-59635184D01*
X64251537Y-59635185D01*
X64251538Y-59635186D01*
X64425573Y-59742944D01*
X64616444Y-59816888D01*
X64817653Y-59854500D01*
X64817655Y-59854500D01*
X65022345Y-59854500D01*
X65022347Y-59854500D01*
X65223556Y-59816888D01*
X65414427Y-59742944D01*
X65588462Y-59635186D01*
X65739732Y-59497285D01*
X65863088Y-59333935D01*
X65954328Y-59150701D01*
X65954979Y-59148413D01*
X66010345Y-58953823D01*
X66022570Y-58821889D01*
X66029232Y-58750000D01*
X66350768Y-58750000D01*
X66369654Y-58953823D01*
X66425670Y-59150699D01*
X66516911Y-59333934D01*
X66640268Y-59497286D01*
X66791535Y-59635184D01*
X66791537Y-59635185D01*
X66791538Y-59635186D01*
X66965573Y-59742944D01*
X67156444Y-59816888D01*
X67357653Y-59854500D01*
X67357655Y-59854500D01*
X67562345Y-59854500D01*
X67562347Y-59854500D01*
X67763556Y-59816888D01*
X67954427Y-59742944D01*
X68128462Y-59635186D01*
X68279732Y-59497285D01*
X68403088Y-59333935D01*
X68494328Y-59150701D01*
X68494979Y-59148413D01*
X68550345Y-58953823D01*
X68562570Y-58821889D01*
X68569232Y-58750000D01*
X68890768Y-58750000D01*
X68909654Y-58953823D01*
X68965670Y-59150699D01*
X69056911Y-59333934D01*
X69180268Y-59497286D01*
X69331535Y-59635184D01*
X69331537Y-59635185D01*
X69331538Y-59635186D01*
X69505573Y-59742944D01*
X69696444Y-59816888D01*
X69897653Y-59854500D01*
X69897655Y-59854500D01*
X70102345Y-59854500D01*
X70102347Y-59854500D01*
X70303556Y-59816888D01*
X70494427Y-59742944D01*
X70668462Y-59635186D01*
X70819732Y-59497285D01*
X70943088Y-59333935D01*
X71034328Y-59150701D01*
X71034979Y-59148413D01*
X71090345Y-58953823D01*
X71102570Y-58821889D01*
X71109232Y-58750000D01*
X71430768Y-58750000D01*
X71449654Y-58953823D01*
X71505670Y-59150699D01*
X71596911Y-59333934D01*
X71720268Y-59497286D01*
X71871535Y-59635184D01*
X71871537Y-59635185D01*
X71871538Y-59635186D01*
X72045573Y-59742944D01*
X72236444Y-59816888D01*
X72437653Y-59854500D01*
X72437655Y-59854500D01*
X72642345Y-59854500D01*
X72642347Y-59854500D01*
X72843556Y-59816888D01*
X73034427Y-59742944D01*
X73208462Y-59635186D01*
X73359732Y-59497285D01*
X73483088Y-59333935D01*
X73574328Y-59150701D01*
X73574979Y-59148413D01*
X73630345Y-58953823D01*
X73642570Y-58821889D01*
X73649232Y-58750000D01*
X73970768Y-58750000D01*
X73989654Y-58953823D01*
X74045670Y-59150699D01*
X74136911Y-59333934D01*
X74260268Y-59497286D01*
X74411535Y-59635184D01*
X74411537Y-59635185D01*
X74411538Y-59635186D01*
X74585573Y-59742944D01*
X74776444Y-59816888D01*
X74977653Y-59854500D01*
X74977655Y-59854500D01*
X75182345Y-59854500D01*
X75182347Y-59854500D01*
X75383556Y-59816888D01*
X75574427Y-59742944D01*
X75748462Y-59635186D01*
X75899732Y-59497285D01*
X76023088Y-59333935D01*
X76114328Y-59150701D01*
X76114979Y-59148413D01*
X76170345Y-58953823D01*
X76182570Y-58821889D01*
X76189232Y-58750000D01*
X76510768Y-58750000D01*
X76529654Y-58953823D01*
X76585670Y-59150699D01*
X76676911Y-59333934D01*
X76800268Y-59497286D01*
X76951535Y-59635184D01*
X76951537Y-59635185D01*
X76951538Y-59635186D01*
X77125573Y-59742944D01*
X77316444Y-59816888D01*
X77517653Y-59854500D01*
X77517655Y-59854500D01*
X77722345Y-59854500D01*
X77722347Y-59854500D01*
X77923556Y-59816888D01*
X78114427Y-59742944D01*
X78288462Y-59635186D01*
X78439732Y-59497285D01*
X78563088Y-59333935D01*
X78654328Y-59150701D01*
X78654979Y-59148413D01*
X78710345Y-58953823D01*
X78722570Y-58821889D01*
X78729232Y-58750000D01*
X79050768Y-58750000D01*
X79069654Y-58953823D01*
X79125670Y-59150699D01*
X79216911Y-59333934D01*
X79340268Y-59497286D01*
X79491535Y-59635184D01*
X79491537Y-59635185D01*
X79491538Y-59635186D01*
X79665573Y-59742944D01*
X79856444Y-59816888D01*
X80057653Y-59854500D01*
X80057655Y-59854500D01*
X80262345Y-59854500D01*
X80262347Y-59854500D01*
X80463556Y-59816888D01*
X80654427Y-59742944D01*
X80828462Y-59635186D01*
X80979732Y-59497285D01*
X81103088Y-59333935D01*
X81194328Y-59150701D01*
X81194979Y-59148413D01*
X81250345Y-58953823D01*
X81262570Y-58821889D01*
X81269232Y-58750000D01*
X81590768Y-58750000D01*
X81609654Y-58953823D01*
X81665670Y-59150699D01*
X81756911Y-59333934D01*
X81880268Y-59497286D01*
X82031535Y-59635184D01*
X82031537Y-59635185D01*
X82031538Y-59635186D01*
X82205573Y-59742944D01*
X82396444Y-59816888D01*
X82597653Y-59854500D01*
X82597655Y-59854500D01*
X82802345Y-59854500D01*
X82802347Y-59854500D01*
X83003556Y-59816888D01*
X83194427Y-59742944D01*
X83368462Y-59635186D01*
X83519732Y-59497285D01*
X83643088Y-59333935D01*
X83734328Y-59150701D01*
X83734979Y-59148413D01*
X83790345Y-58953823D01*
X83802570Y-58821889D01*
X83809232Y-58750000D01*
X84130768Y-58750000D01*
X84149654Y-58953823D01*
X84205670Y-59150699D01*
X84296911Y-59333934D01*
X84420268Y-59497286D01*
X84571535Y-59635184D01*
X84571537Y-59635185D01*
X84571538Y-59635186D01*
X84745573Y-59742944D01*
X84936444Y-59816888D01*
X85137653Y-59854500D01*
X85137655Y-59854500D01*
X85342345Y-59854500D01*
X85342347Y-59854500D01*
X85543556Y-59816888D01*
X85734427Y-59742944D01*
X85908462Y-59635186D01*
X85919564Y-59625065D01*
X86675500Y-59625065D01*
X86690266Y-59699301D01*
X86746515Y-59783484D01*
X86796506Y-59816887D01*
X86830699Y-59839734D01*
X86904933Y-59854500D01*
X88655066Y-59854499D01*
X88729301Y-59839734D01*
X88813484Y-59783484D01*
X88869734Y-59699301D01*
X88884500Y-59625067D01*
X88884499Y-57874934D01*
X88869734Y-57800699D01*
X88840572Y-57757056D01*
X88813484Y-57716515D01*
X88729300Y-57660265D01*
X88655069Y-57645500D01*
X86904934Y-57645500D01*
X86830698Y-57660266D01*
X86746515Y-57716515D01*
X86690265Y-57800699D01*
X86675500Y-57874930D01*
X86675500Y-59625065D01*
X85919564Y-59625065D01*
X86059732Y-59497285D01*
X86183088Y-59333935D01*
X86274328Y-59150701D01*
X86274979Y-59148413D01*
X86330345Y-58953823D01*
X86342570Y-58821889D01*
X86349232Y-58750000D01*
X86330345Y-58546179D01*
X86330345Y-58546176D01*
X86274329Y-58349300D01*
X86183088Y-58166065D01*
X86059731Y-58002713D01*
X85908464Y-57864815D01*
X85734427Y-57757056D01*
X85629781Y-57716516D01*
X85543556Y-57683112D01*
X85342347Y-57645500D01*
X85137653Y-57645500D01*
X84936444Y-57683112D01*
X84745572Y-57757056D01*
X84571535Y-57864815D01*
X84420268Y-58002713D01*
X84296911Y-58166065D01*
X84205670Y-58349300D01*
X84149654Y-58546176D01*
X84130768Y-58750000D01*
X83809232Y-58750000D01*
X83790345Y-58546179D01*
X83790345Y-58546176D01*
X83734329Y-58349300D01*
X83643088Y-58166065D01*
X83519731Y-58002713D01*
X83368464Y-57864815D01*
X83194427Y-57757056D01*
X83089781Y-57716516D01*
X83003556Y-57683112D01*
X82802347Y-57645500D01*
X82597653Y-57645500D01*
X82396444Y-57683112D01*
X82205572Y-57757056D01*
X82031535Y-57864815D01*
X81880268Y-58002713D01*
X81756911Y-58166065D01*
X81665670Y-58349300D01*
X81609654Y-58546176D01*
X81590768Y-58750000D01*
X81269232Y-58750000D01*
X81250345Y-58546179D01*
X81250345Y-58546176D01*
X81194329Y-58349300D01*
X81103088Y-58166065D01*
X80979731Y-58002713D01*
X80828464Y-57864815D01*
X80654427Y-57757056D01*
X80549781Y-57716516D01*
X80463556Y-57683112D01*
X80262347Y-57645500D01*
X80057653Y-57645500D01*
X79856443Y-57683112D01*
X79856444Y-57683112D01*
X79665572Y-57757056D01*
X79491535Y-57864815D01*
X79340268Y-58002713D01*
X79216911Y-58166065D01*
X79125670Y-58349300D01*
X79069654Y-58546176D01*
X79050768Y-58750000D01*
X78729232Y-58750000D01*
X78710345Y-58546179D01*
X78710345Y-58546176D01*
X78654329Y-58349300D01*
X78563088Y-58166065D01*
X78439731Y-58002713D01*
X78288464Y-57864815D01*
X78114427Y-57757056D01*
X78009781Y-57716516D01*
X77923556Y-57683112D01*
X77722347Y-57645500D01*
X77517653Y-57645500D01*
X77316443Y-57683112D01*
X77316444Y-57683112D01*
X77125572Y-57757056D01*
X76951535Y-57864815D01*
X76800268Y-58002713D01*
X76676911Y-58166065D01*
X76585670Y-58349300D01*
X76529654Y-58546176D01*
X76510768Y-58750000D01*
X76189232Y-58750000D01*
X76170345Y-58546179D01*
X76170345Y-58546176D01*
X76114329Y-58349300D01*
X76023088Y-58166065D01*
X75899731Y-58002713D01*
X75748464Y-57864815D01*
X75574427Y-57757056D01*
X75469781Y-57716516D01*
X75383556Y-57683112D01*
X75182347Y-57645500D01*
X74977653Y-57645500D01*
X74776444Y-57683112D01*
X74585572Y-57757056D01*
X74411535Y-57864815D01*
X74260268Y-58002713D01*
X74136911Y-58166065D01*
X74045670Y-58349300D01*
X73989654Y-58546176D01*
X73970768Y-58750000D01*
X73649232Y-58750000D01*
X73630345Y-58546179D01*
X73630345Y-58546176D01*
X73574329Y-58349300D01*
X73483088Y-58166065D01*
X73359731Y-58002713D01*
X73208464Y-57864815D01*
X73034427Y-57757056D01*
X72929781Y-57716516D01*
X72843556Y-57683112D01*
X72642347Y-57645500D01*
X72437653Y-57645500D01*
X72236444Y-57683112D01*
X72045572Y-57757056D01*
X71871535Y-57864815D01*
X71720268Y-58002713D01*
X71596911Y-58166065D01*
X71505670Y-58349300D01*
X71449654Y-58546176D01*
X71430768Y-58750000D01*
X71109232Y-58750000D01*
X71090345Y-58546179D01*
X71090345Y-58546176D01*
X71034329Y-58349300D01*
X70943088Y-58166065D01*
X70819731Y-58002713D01*
X70668464Y-57864815D01*
X70494427Y-57757056D01*
X70389781Y-57716516D01*
X70303556Y-57683112D01*
X70102347Y-57645500D01*
X69897653Y-57645500D01*
X69696443Y-57683112D01*
X69696444Y-57683112D01*
X69505572Y-57757056D01*
X69331535Y-57864815D01*
X69180268Y-58002713D01*
X69056911Y-58166065D01*
X68965670Y-58349300D01*
X68909654Y-58546176D01*
X68890768Y-58750000D01*
X68569232Y-58750000D01*
X68550345Y-58546179D01*
X68550345Y-58546176D01*
X68494329Y-58349300D01*
X68403088Y-58166065D01*
X68279731Y-58002713D01*
X68128464Y-57864815D01*
X67954427Y-57757056D01*
X67849781Y-57716516D01*
X67763556Y-57683112D01*
X67562347Y-57645500D01*
X67357653Y-57645500D01*
X67156443Y-57683112D01*
X67156444Y-57683112D01*
X66965572Y-57757056D01*
X66791535Y-57864815D01*
X66640268Y-58002713D01*
X66516911Y-58166065D01*
X66425670Y-58349300D01*
X66369654Y-58546176D01*
X66350768Y-58750000D01*
X66029232Y-58750000D01*
X66010345Y-58546179D01*
X66010345Y-58546176D01*
X65954329Y-58349300D01*
X65863088Y-58166065D01*
X65739731Y-58002713D01*
X65588464Y-57864815D01*
X65414427Y-57757056D01*
X65309781Y-57716516D01*
X65223556Y-57683112D01*
X65022347Y-57645500D01*
X64817653Y-57645500D01*
X64616444Y-57683112D01*
X64425572Y-57757056D01*
X64251535Y-57864815D01*
X64100268Y-58002713D01*
X63976911Y-58166065D01*
X63885670Y-58349300D01*
X63829654Y-58546176D01*
X63810768Y-58750000D01*
X63489232Y-58750000D01*
X63470345Y-58546179D01*
X63470345Y-58546176D01*
X63414329Y-58349300D01*
X63323088Y-58166065D01*
X63199731Y-58002713D01*
X63048464Y-57864815D01*
X62874427Y-57757056D01*
X62769781Y-57716516D01*
X62683556Y-57683112D01*
X62482347Y-57645500D01*
X62277653Y-57645500D01*
X62076444Y-57683112D01*
X61885572Y-57757056D01*
X61711535Y-57864815D01*
X61560268Y-58002713D01*
X61436911Y-58166065D01*
X61345670Y-58349300D01*
X61289654Y-58546176D01*
X61270768Y-58750000D01*
X60949232Y-58750000D01*
X60930345Y-58546179D01*
X60930345Y-58546176D01*
X60874329Y-58349300D01*
X60783088Y-58166065D01*
X60659731Y-58002713D01*
X60508464Y-57864815D01*
X60334427Y-57757056D01*
X60229781Y-57716516D01*
X60143556Y-57683112D01*
X59942347Y-57645500D01*
X59737653Y-57645500D01*
X59536443Y-57683112D01*
X59536444Y-57683112D01*
X59345572Y-57757056D01*
X59171535Y-57864815D01*
X59020268Y-58002713D01*
X58896911Y-58166065D01*
X58805670Y-58349300D01*
X58749654Y-58546176D01*
X58730768Y-58750000D01*
X58409232Y-58750000D01*
X58390345Y-58546179D01*
X58390345Y-58546176D01*
X58334329Y-58349300D01*
X58243088Y-58166065D01*
X58119731Y-58002713D01*
X57968464Y-57864815D01*
X57794427Y-57757056D01*
X57689781Y-57716516D01*
X57603556Y-57683112D01*
X57402347Y-57645500D01*
X57197653Y-57645500D01*
X56996443Y-57683112D01*
X56996444Y-57683112D01*
X56805572Y-57757056D01*
X56631535Y-57864815D01*
X56480268Y-58002713D01*
X56356911Y-58166065D01*
X56271619Y-58337354D01*
X56224116Y-58388591D01*
X56156453Y-58406012D01*
X56090113Y-58384086D01*
X56046158Y-58329775D01*
X56040844Y-58314175D01*
X56033430Y-58286508D01*
X55933599Y-58072421D01*
X55798109Y-57878921D01*
X55631081Y-57711893D01*
X55437576Y-57576399D01*
X55223492Y-57476569D01*
X55009999Y-57419364D01*
X55009999Y-58314498D01*
X54902315Y-58265320D01*
X54795763Y-58250000D01*
X54724237Y-58250000D01*
X54617685Y-58265320D01*
X54510000Y-58314498D01*
X54510000Y-57419364D01*
X54509999Y-57419364D01*
X54296507Y-57476569D01*
X54082421Y-57576400D01*
X53888921Y-57711890D01*
X53721890Y-57878921D01*
X53586400Y-58072421D01*
X53486568Y-58286510D01*
X53479154Y-58314178D01*
X53442788Y-58373838D01*
X53379940Y-58404366D01*
X53310565Y-58396069D01*
X53256688Y-58351583D01*
X53248380Y-58337354D01*
X53163088Y-58166065D01*
X53039731Y-58002713D01*
X52888464Y-57864815D01*
X52714427Y-57757056D01*
X52609781Y-57716516D01*
X52523556Y-57683112D01*
X52322347Y-57645500D01*
X52117653Y-57645500D01*
X51916444Y-57683112D01*
X51725572Y-57757056D01*
X51551535Y-57864815D01*
X51400268Y-58002713D01*
X51276911Y-58166065D01*
X51185670Y-58349300D01*
X51129654Y-58546176D01*
X51110768Y-58750000D01*
X50500000Y-58750000D01*
X50500000Y-54124000D01*
X50519685Y-54056961D01*
X50572489Y-54011206D01*
X50624000Y-54000000D01*
X89376000Y-54000000D01*
X89443039Y-54019685D01*
G37*
%TD.AperFunction*%
%TD*%
M02*
