G04 (created by PCBNEW (2013-mar-13)-testing) date Mon 29 Sep 2014 05:02:38 PM PDT*
%MOIN*%
G04 Gerber Fmt 3.4, Leading zero omitted, Abs format*
%FSLAX34Y34*%
G01*
G70*
G90*
G04 APERTURE LIST*
%ADD10C,0.005906*%
%ADD11C,0.015000*%
%ADD12C,0.004700*%
%ADD13C,0.006000*%
%ADD14C,0.005000*%
%ADD15C,0.008000*%
%ADD16C,0.010000*%
%ADD17C,0.004500*%
G04 APERTURE END LIST*
G54D10*
G54D11*
X35059Y-35425D02*
X35059Y-32925D01*
X33609Y-35425D02*
X35059Y-35425D01*
X33609Y-32925D02*
X35009Y-32925D01*
X35009Y-32925D02*
X35059Y-32925D01*
X21559Y-32925D02*
X20059Y-32925D01*
X20059Y-32925D02*
X20059Y-35425D01*
X20059Y-35425D02*
X22059Y-35425D01*
X21559Y-32925D02*
X33559Y-32925D01*
X21559Y-35425D02*
X33559Y-35425D01*
X33559Y-19693D02*
X35059Y-19693D01*
X35059Y-19693D02*
X35059Y-19993D01*
X21559Y-19693D02*
X20059Y-19693D01*
X20059Y-19693D02*
X20059Y-19893D01*
X21559Y-23393D02*
X20059Y-23393D01*
X20059Y-23393D02*
X20059Y-19893D01*
X33559Y-23393D02*
X35059Y-23393D01*
X35059Y-23393D02*
X35059Y-19893D01*
X33559Y-23393D02*
X21559Y-23393D01*
X21559Y-19693D02*
X33559Y-19693D01*
G54D12*
X23031Y-26436D02*
X22756Y-26436D01*
X23425Y-26436D02*
X23700Y-26436D01*
X23031Y-26948D02*
X22756Y-26948D01*
X23700Y-26948D02*
X23425Y-26948D01*
X22756Y-26942D02*
X22756Y-26442D01*
X23700Y-26442D02*
X23700Y-26942D01*
X23031Y-27342D02*
X22756Y-27342D01*
X23425Y-27342D02*
X23700Y-27342D01*
X23031Y-27854D02*
X22756Y-27854D01*
X23700Y-27854D02*
X23425Y-27854D01*
X22756Y-27848D02*
X22756Y-27348D01*
X23700Y-27348D02*
X23700Y-27848D01*
G54D13*
X29932Y-29239D02*
X29482Y-29239D01*
X29932Y-27059D02*
X29492Y-27059D01*
X29932Y-29239D02*
X29932Y-27059D01*
X29052Y-29709D02*
X29052Y-30139D01*
X26842Y-29719D02*
X26842Y-30139D01*
X26832Y-30139D02*
X29052Y-30149D01*
X26852Y-26169D02*
X29022Y-26159D01*
X26422Y-26859D02*
X26422Y-29689D01*
X29032Y-26169D02*
X29032Y-26579D01*
X26672Y-26619D02*
X29452Y-26619D01*
X29472Y-29699D02*
X29472Y-26659D01*
X26422Y-29699D02*
X29422Y-29699D01*
X25972Y-27029D02*
X25972Y-29249D01*
X25972Y-29249D02*
X26422Y-29249D01*
X26426Y-26849D02*
X26656Y-26619D01*
X25974Y-27029D02*
X26426Y-27029D01*
X26852Y-26619D02*
X26852Y-26167D01*
X27023Y-27023D02*
G75*
G03X27023Y-27023I-188J0D01*
G74*
G01*
G54D14*
X29232Y-24036D02*
X28954Y-24036D01*
X28954Y-24036D02*
X28954Y-24586D01*
X28954Y-24586D02*
X29232Y-24586D01*
X29904Y-24036D02*
X29626Y-24036D01*
X29904Y-24036D02*
X29904Y-24586D01*
X29904Y-24586D02*
X29626Y-24586D01*
G54D15*
X24566Y-28661D02*
X24566Y-29999D01*
X24566Y-29999D02*
X23858Y-29999D01*
X23858Y-29999D02*
X23858Y-28661D01*
X23858Y-28661D02*
X24566Y-28661D01*
G54D16*
X31874Y-30299D02*
X30874Y-30299D01*
X30874Y-30299D02*
X30874Y-32299D01*
X30874Y-32299D02*
X31874Y-32299D01*
X33874Y-30299D02*
X34874Y-30299D01*
X34874Y-30299D02*
X34874Y-32299D01*
X34874Y-32299D02*
X33874Y-32299D01*
X33874Y-32299D02*
X31874Y-32299D01*
X31874Y-30299D02*
X33874Y-30299D01*
X31874Y-24000D02*
X30874Y-24000D01*
X30874Y-24000D02*
X30874Y-26000D01*
X30874Y-26000D02*
X31874Y-26000D01*
X33874Y-24000D02*
X34874Y-24000D01*
X34874Y-24000D02*
X34874Y-26000D01*
X34874Y-26000D02*
X33874Y-26000D01*
X33874Y-26000D02*
X31874Y-26000D01*
X31874Y-24000D02*
X33874Y-24000D01*
X21244Y-30299D02*
X20244Y-30299D01*
X20244Y-30299D02*
X20244Y-32299D01*
X20244Y-32299D02*
X21244Y-32299D01*
X23244Y-30299D02*
X24244Y-30299D01*
X24244Y-30299D02*
X24244Y-32299D01*
X24244Y-32299D02*
X23244Y-32299D01*
X23244Y-32299D02*
X21244Y-32299D01*
X21244Y-30299D02*
X23244Y-30299D01*
X21244Y-24000D02*
X20244Y-24000D01*
X20244Y-24000D02*
X20244Y-26000D01*
X20244Y-26000D02*
X21244Y-26000D01*
X23244Y-24000D02*
X24244Y-24000D01*
X24244Y-24000D02*
X24244Y-26000D01*
X24244Y-26000D02*
X23244Y-26000D01*
X23244Y-26000D02*
X21244Y-26000D01*
X21244Y-24000D02*
X23244Y-24000D01*
G54D15*
X20344Y-35145D02*
X20344Y-34745D01*
X20497Y-34745D01*
X20535Y-34765D01*
X20554Y-34784D01*
X20573Y-34822D01*
X20573Y-34879D01*
X20554Y-34917D01*
X20535Y-34936D01*
X20497Y-34955D01*
X20344Y-34955D01*
X20954Y-35145D02*
X20725Y-35145D01*
X20840Y-35145D02*
X20840Y-34745D01*
X20801Y-34803D01*
X20763Y-34841D01*
X20725Y-34860D01*
X20354Y-20290D02*
X20354Y-19890D01*
X20507Y-19890D01*
X20545Y-19910D01*
X20564Y-19929D01*
X20583Y-19967D01*
X20583Y-20024D01*
X20564Y-20062D01*
X20545Y-20081D01*
X20507Y-20100D01*
X20354Y-20100D01*
X20735Y-19929D02*
X20754Y-19910D01*
X20792Y-19890D01*
X20888Y-19890D01*
X20926Y-19910D01*
X20945Y-19929D01*
X20964Y-19967D01*
X20964Y-20005D01*
X20945Y-20062D01*
X20716Y-20290D01*
X20964Y-20290D01*
G54D17*
X23299Y-26722D02*
X23309Y-26731D01*
X23318Y-26757D01*
X23318Y-26774D01*
X23309Y-26800D01*
X23290Y-26817D01*
X23271Y-26825D01*
X23233Y-26834D01*
X23204Y-26834D01*
X23166Y-26825D01*
X23147Y-26817D01*
X23128Y-26800D01*
X23118Y-26774D01*
X23118Y-26757D01*
X23128Y-26731D01*
X23137Y-26722D01*
X23318Y-26551D02*
X23318Y-26654D01*
X23318Y-26602D02*
X23118Y-26602D01*
X23147Y-26620D01*
X23166Y-26637D01*
X23175Y-26654D01*
X23768Y-26988D02*
X23768Y-26971D01*
X23778Y-26954D01*
X23787Y-26945D01*
X23806Y-26937D01*
X23845Y-26928D01*
X23892Y-26928D01*
X23930Y-26937D01*
X23949Y-26945D01*
X23959Y-26954D01*
X23968Y-26971D01*
X23968Y-26988D01*
X23959Y-27005D01*
X23949Y-27014D01*
X23930Y-27022D01*
X23892Y-27031D01*
X23845Y-27031D01*
X23806Y-27022D01*
X23787Y-27014D01*
X23778Y-27005D01*
X23768Y-26988D01*
X23949Y-26851D02*
X23959Y-26842D01*
X23968Y-26851D01*
X23959Y-26860D01*
X23949Y-26851D01*
X23968Y-26851D01*
X23968Y-26671D02*
X23968Y-26774D01*
X23968Y-26722D02*
X23768Y-26722D01*
X23797Y-26740D01*
X23816Y-26757D01*
X23825Y-26774D01*
X23835Y-26517D02*
X23968Y-26517D01*
X23835Y-26594D02*
X23940Y-26594D01*
X23959Y-26585D01*
X23968Y-26568D01*
X23968Y-26542D01*
X23959Y-26525D01*
X23949Y-26517D01*
X23864Y-26371D02*
X23864Y-26431D01*
X23968Y-26431D02*
X23768Y-26431D01*
X23768Y-26345D01*
X23299Y-27628D02*
X23309Y-27636D01*
X23318Y-27662D01*
X23318Y-27679D01*
X23309Y-27705D01*
X23290Y-27722D01*
X23271Y-27731D01*
X23233Y-27739D01*
X23204Y-27739D01*
X23166Y-27731D01*
X23147Y-27722D01*
X23128Y-27705D01*
X23118Y-27679D01*
X23118Y-27662D01*
X23128Y-27636D01*
X23137Y-27628D01*
X23137Y-27559D02*
X23128Y-27551D01*
X23118Y-27534D01*
X23118Y-27491D01*
X23128Y-27474D01*
X23137Y-27465D01*
X23156Y-27456D01*
X23175Y-27456D01*
X23204Y-27465D01*
X23318Y-27568D01*
X23318Y-27456D01*
X23768Y-27894D02*
X23768Y-27876D01*
X23778Y-27859D01*
X23787Y-27851D01*
X23806Y-27842D01*
X23845Y-27834D01*
X23892Y-27834D01*
X23930Y-27842D01*
X23949Y-27851D01*
X23959Y-27859D01*
X23968Y-27876D01*
X23968Y-27894D01*
X23959Y-27911D01*
X23949Y-27919D01*
X23930Y-27928D01*
X23892Y-27936D01*
X23845Y-27936D01*
X23806Y-27928D01*
X23787Y-27919D01*
X23778Y-27911D01*
X23768Y-27894D01*
X23949Y-27756D02*
X23959Y-27748D01*
X23968Y-27756D01*
X23959Y-27765D01*
X23949Y-27756D01*
X23968Y-27756D01*
X23968Y-27576D02*
X23968Y-27679D01*
X23968Y-27628D02*
X23768Y-27628D01*
X23797Y-27645D01*
X23816Y-27662D01*
X23825Y-27679D01*
X23835Y-27422D02*
X23968Y-27422D01*
X23835Y-27499D02*
X23940Y-27499D01*
X23959Y-27491D01*
X23968Y-27474D01*
X23968Y-27448D01*
X23959Y-27431D01*
X23949Y-27422D01*
X23864Y-27276D02*
X23864Y-27336D01*
X23968Y-27336D02*
X23768Y-27336D01*
X23768Y-27251D01*
G54D15*
X25623Y-26295D02*
X25623Y-25895D01*
X26042Y-26257D02*
X26023Y-26276D01*
X25966Y-26295D01*
X25927Y-26295D01*
X25870Y-26276D01*
X25832Y-26238D01*
X25813Y-26200D01*
X25794Y-26124D01*
X25794Y-26067D01*
X25813Y-25991D01*
X25832Y-25953D01*
X25870Y-25915D01*
X25927Y-25895D01*
X25966Y-25895D01*
X26023Y-25915D01*
X26042Y-25934D01*
X26404Y-25895D02*
X26213Y-25895D01*
X26194Y-26086D01*
X26213Y-26067D01*
X26251Y-26048D01*
X26347Y-26048D01*
X26385Y-26067D01*
X26404Y-26086D01*
X26423Y-26124D01*
X26423Y-26219D01*
X26404Y-26257D01*
X26385Y-26276D01*
X26347Y-26295D01*
X26251Y-26295D01*
X26213Y-26276D01*
X26194Y-26257D01*
G54D17*
X29543Y-24316D02*
X29449Y-24376D01*
X29543Y-24418D02*
X29346Y-24418D01*
X29346Y-24350D01*
X29355Y-24333D01*
X29365Y-24324D01*
X29383Y-24316D01*
X29411Y-24316D01*
X29430Y-24324D01*
X29440Y-24333D01*
X29449Y-24350D01*
X29449Y-24418D01*
X29346Y-24153D02*
X29346Y-24238D01*
X29440Y-24247D01*
X29430Y-24238D01*
X29421Y-24221D01*
X29421Y-24178D01*
X29430Y-24161D01*
X29440Y-24153D01*
X29458Y-24144D01*
X29505Y-24144D01*
X29524Y-24153D01*
X29533Y-24161D01*
X29543Y-24178D01*
X29543Y-24221D01*
X29533Y-24238D01*
X29524Y-24247D01*
X28717Y-24478D02*
X28850Y-24478D01*
X28641Y-24521D02*
X28783Y-24563D01*
X28783Y-24452D01*
X28831Y-24383D02*
X28841Y-24375D01*
X28850Y-24383D01*
X28841Y-24392D01*
X28831Y-24383D01*
X28850Y-24383D01*
X28650Y-24315D02*
X28650Y-24195D01*
X28850Y-24272D01*
X28850Y-24126D02*
X28650Y-24126D01*
X28774Y-24109D02*
X28850Y-24058D01*
X28717Y-24058D02*
X28793Y-24126D01*
G54D15*
X24741Y-29575D02*
X25141Y-29309D01*
X24741Y-29309D02*
X25141Y-29575D01*
X24741Y-28966D02*
X24741Y-29156D01*
X24932Y-29175D01*
X24913Y-29156D01*
X24893Y-29118D01*
X24893Y-29023D01*
X24913Y-28985D01*
X24932Y-28966D01*
X24970Y-28947D01*
X25065Y-28947D01*
X25103Y-28966D01*
X25122Y-28985D01*
X25141Y-29023D01*
X25141Y-29118D01*
X25122Y-29156D01*
X25103Y-29175D01*
X30771Y-31594D02*
X30371Y-31594D01*
X30371Y-31442D01*
X30390Y-31403D01*
X30409Y-31384D01*
X30447Y-31365D01*
X30504Y-31365D01*
X30542Y-31384D01*
X30561Y-31403D01*
X30581Y-31442D01*
X30581Y-31594D01*
X30371Y-31232D02*
X30371Y-30965D01*
X30771Y-31137D01*
X30059Y-25180D02*
X30059Y-24780D01*
X30211Y-24780D01*
X30249Y-24800D01*
X30268Y-24819D01*
X30287Y-24857D01*
X30287Y-24914D01*
X30268Y-24952D01*
X30249Y-24971D01*
X30211Y-24990D01*
X30059Y-24990D01*
X30630Y-24780D02*
X30554Y-24780D01*
X30516Y-24800D01*
X30497Y-24819D01*
X30459Y-24876D01*
X30440Y-24952D01*
X30440Y-25104D01*
X30459Y-25142D01*
X30478Y-25161D01*
X30516Y-25180D01*
X30592Y-25180D01*
X30630Y-25161D01*
X30649Y-25142D01*
X30668Y-25104D01*
X30668Y-25009D01*
X30649Y-24971D01*
X30630Y-24952D01*
X30592Y-24933D01*
X30516Y-24933D01*
X30478Y-24952D01*
X30459Y-24971D01*
X30440Y-25009D01*
X24747Y-31594D02*
X24347Y-31594D01*
X24347Y-31442D01*
X24366Y-31403D01*
X24385Y-31384D01*
X24424Y-31365D01*
X24481Y-31365D01*
X24519Y-31384D01*
X24538Y-31403D01*
X24557Y-31442D01*
X24557Y-31594D01*
X24347Y-31003D02*
X24347Y-31194D01*
X24538Y-31213D01*
X24519Y-31194D01*
X24500Y-31156D01*
X24500Y-31061D01*
X24519Y-31023D01*
X24538Y-31003D01*
X24576Y-30984D01*
X24671Y-30984D01*
X24709Y-31003D01*
X24728Y-31023D01*
X24747Y-31061D01*
X24747Y-31156D01*
X24728Y-31194D01*
X24709Y-31213D01*
X24389Y-25259D02*
X24389Y-24859D01*
X24542Y-24859D01*
X24580Y-24878D01*
X24599Y-24897D01*
X24618Y-24935D01*
X24618Y-24993D01*
X24599Y-25031D01*
X24580Y-25050D01*
X24542Y-25069D01*
X24389Y-25069D01*
X24961Y-24993D02*
X24961Y-25259D01*
X24865Y-24840D02*
X24770Y-25126D01*
X25018Y-25126D01*
M02*
