G04 (created by PCBNEW (2013-mar-13)-testing) date Tue 12 Nov 2013 05:10:08 PM PST*
%MOIN*%
G04 Gerber Fmt 3.4, Leading zero omitted, Abs format*
%FSLAX34Y34*%
G01*
G70*
G90*
G04 APERTURE LIST*
%ADD10C,0.005906*%
%ADD11C,0.010000*%
%ADD12C,0.015000*%
%ADD13C,0.006000*%
%ADD14C,0.012000*%
G04 APERTURE END LIST*
G54D10*
G54D11*
X24605Y-33957D02*
X24605Y-34291D01*
X24486Y-33767D02*
X24367Y-34124D01*
X24677Y-34124D01*
X24820Y-34291D02*
X25081Y-33957D01*
X24820Y-33957D02*
X25081Y-34291D01*
X25248Y-33838D02*
X25272Y-33815D01*
X25320Y-33791D01*
X25439Y-33791D01*
X25486Y-33815D01*
X25510Y-33838D01*
X25534Y-33886D01*
X25534Y-33934D01*
X25510Y-34005D01*
X25224Y-34291D01*
X25534Y-34291D01*
X25843Y-33791D02*
X25891Y-33791D01*
X25939Y-33815D01*
X25962Y-33838D01*
X25986Y-33886D01*
X26010Y-33981D01*
X26010Y-34100D01*
X25986Y-34195D01*
X25962Y-34243D01*
X25939Y-34267D01*
X25891Y-34291D01*
X25843Y-34291D01*
X25796Y-34267D01*
X25772Y-34243D01*
X25748Y-34195D01*
X25724Y-34100D01*
X25724Y-33981D01*
X25748Y-33886D01*
X25772Y-33838D01*
X25796Y-33815D01*
X25843Y-33791D01*
X26224Y-34291D02*
X26224Y-33957D01*
X26224Y-34005D02*
X26248Y-33981D01*
X26296Y-33957D01*
X26367Y-33957D01*
X26415Y-33981D01*
X26439Y-34029D01*
X26439Y-34291D01*
X26439Y-34029D02*
X26462Y-33981D01*
X26510Y-33957D01*
X26581Y-33957D01*
X26629Y-33981D01*
X26653Y-34029D01*
X26653Y-34291D01*
X26891Y-34291D02*
X26891Y-33957D01*
X26891Y-34005D02*
X26915Y-33981D01*
X26962Y-33957D01*
X27034Y-33957D01*
X27081Y-33981D01*
X27105Y-34029D01*
X27105Y-34291D01*
X27105Y-34029D02*
X27129Y-33981D01*
X27177Y-33957D01*
X27248Y-33957D01*
X27296Y-33981D01*
X27320Y-34029D01*
X27320Y-34291D01*
X28153Y-34291D02*
X28153Y-34029D01*
X28129Y-33981D01*
X28081Y-33957D01*
X27986Y-33957D01*
X27939Y-33981D01*
X28153Y-34267D02*
X28105Y-34291D01*
X27986Y-34291D01*
X27939Y-34267D01*
X27915Y-34219D01*
X27915Y-34172D01*
X27939Y-34124D01*
X27986Y-34100D01*
X28105Y-34100D01*
X28153Y-34076D01*
X28320Y-33957D02*
X28510Y-33957D01*
X28391Y-33791D02*
X28391Y-34219D01*
X28415Y-34267D01*
X28462Y-34291D01*
X28510Y-34291D01*
X28677Y-34291D02*
X28677Y-33957D01*
X28677Y-34005D02*
X28700Y-33981D01*
X28748Y-33957D01*
X28820Y-33957D01*
X28867Y-33981D01*
X28891Y-34029D01*
X28891Y-34291D01*
X28891Y-34029D02*
X28915Y-33981D01*
X28962Y-33957D01*
X29034Y-33957D01*
X29081Y-33981D01*
X29105Y-34029D01*
X29105Y-34291D01*
X29534Y-34267D02*
X29486Y-34291D01*
X29391Y-34291D01*
X29343Y-34267D01*
X29320Y-34219D01*
X29320Y-34029D01*
X29343Y-33981D01*
X29391Y-33957D01*
X29486Y-33957D01*
X29534Y-33981D01*
X29558Y-34029D01*
X29558Y-34076D01*
X29320Y-34124D01*
X29986Y-33957D02*
X29986Y-34362D01*
X29962Y-34410D01*
X29939Y-34434D01*
X29891Y-34457D01*
X29819Y-34457D01*
X29772Y-34434D01*
X29986Y-34267D02*
X29939Y-34291D01*
X29843Y-34291D01*
X29796Y-34267D01*
X29772Y-34243D01*
X29748Y-34195D01*
X29748Y-34053D01*
X29772Y-34005D01*
X29796Y-33981D01*
X29843Y-33957D01*
X29939Y-33957D01*
X29986Y-33981D01*
X30439Y-34291D02*
X30439Y-34029D01*
X30415Y-33981D01*
X30367Y-33957D01*
X30272Y-33957D01*
X30224Y-33981D01*
X30439Y-34267D02*
X30391Y-34291D01*
X30272Y-34291D01*
X30224Y-34267D01*
X30200Y-34219D01*
X30200Y-34172D01*
X30224Y-34124D01*
X30272Y-34100D01*
X30391Y-34100D01*
X30439Y-34076D01*
X30629Y-33791D02*
X30939Y-33791D01*
X30772Y-33981D01*
X30843Y-33981D01*
X30891Y-34005D01*
X30915Y-34029D01*
X30939Y-34076D01*
X30939Y-34195D01*
X30915Y-34243D01*
X30891Y-34267D01*
X30843Y-34291D01*
X30700Y-34291D01*
X30653Y-34267D01*
X30629Y-34243D01*
X31129Y-33838D02*
X31153Y-33815D01*
X31200Y-33791D01*
X31320Y-33791D01*
X31367Y-33815D01*
X31391Y-33838D01*
X31415Y-33886D01*
X31415Y-33934D01*
X31391Y-34005D01*
X31105Y-34291D01*
X31415Y-34291D01*
X31700Y-34005D02*
X31653Y-33981D01*
X31629Y-33957D01*
X31605Y-33910D01*
X31605Y-33886D01*
X31629Y-33838D01*
X31653Y-33815D01*
X31700Y-33791D01*
X31796Y-33791D01*
X31843Y-33815D01*
X31867Y-33838D01*
X31891Y-33886D01*
X31891Y-33910D01*
X31867Y-33957D01*
X31843Y-33981D01*
X31796Y-34005D01*
X31700Y-34005D01*
X31653Y-34029D01*
X31629Y-34053D01*
X31605Y-34100D01*
X31605Y-34195D01*
X31629Y-34243D01*
X31653Y-34267D01*
X31700Y-34291D01*
X31796Y-34291D01*
X31843Y-34267D01*
X31867Y-34243D01*
X31891Y-34195D01*
X31891Y-34100D01*
X31867Y-34053D01*
X31843Y-34029D01*
X31796Y-34005D01*
X24129Y-35067D02*
X24081Y-35091D01*
X23986Y-35091D01*
X23939Y-35067D01*
X23915Y-35043D01*
X23891Y-34995D01*
X23891Y-34853D01*
X23915Y-34805D01*
X23939Y-34781D01*
X23986Y-34757D01*
X24081Y-34757D01*
X24129Y-34781D01*
X24415Y-35091D02*
X24367Y-35067D01*
X24343Y-35043D01*
X24320Y-34995D01*
X24320Y-34853D01*
X24343Y-34805D01*
X24367Y-34781D01*
X24415Y-34757D01*
X24486Y-34757D01*
X24534Y-34781D01*
X24558Y-34805D01*
X24581Y-34853D01*
X24581Y-34995D01*
X24558Y-35043D01*
X24534Y-35067D01*
X24486Y-35091D01*
X24415Y-35091D01*
X24796Y-35091D02*
X24796Y-34757D01*
X24796Y-34805D02*
X24820Y-34781D01*
X24867Y-34757D01*
X24939Y-34757D01*
X24986Y-34781D01*
X25010Y-34829D01*
X25010Y-35091D01*
X25010Y-34829D02*
X25034Y-34781D01*
X25081Y-34757D01*
X25153Y-34757D01*
X25200Y-34781D01*
X25224Y-34829D01*
X25224Y-35091D01*
X25462Y-35091D02*
X25462Y-34757D01*
X25462Y-34805D02*
X25486Y-34781D01*
X25534Y-34757D01*
X25605Y-34757D01*
X25653Y-34781D01*
X25677Y-34829D01*
X25677Y-35091D01*
X25677Y-34829D02*
X25700Y-34781D01*
X25748Y-34757D01*
X25820Y-34757D01*
X25867Y-34781D01*
X25891Y-34829D01*
X25891Y-35091D01*
X26510Y-34757D02*
X26510Y-35257D01*
X26510Y-34781D02*
X26558Y-34757D01*
X26653Y-34757D01*
X26700Y-34781D01*
X26724Y-34805D01*
X26748Y-34853D01*
X26748Y-34995D01*
X26724Y-35043D01*
X26700Y-35067D01*
X26653Y-35091D01*
X26558Y-35091D01*
X26510Y-35067D01*
X26962Y-35091D02*
X26962Y-34757D01*
X26962Y-34853D02*
X26986Y-34805D01*
X27010Y-34781D01*
X27058Y-34757D01*
X27105Y-34757D01*
X27343Y-35091D02*
X27296Y-35067D01*
X27272Y-35043D01*
X27248Y-34995D01*
X27248Y-34853D01*
X27272Y-34805D01*
X27296Y-34781D01*
X27343Y-34757D01*
X27415Y-34757D01*
X27462Y-34781D01*
X27486Y-34805D01*
X27510Y-34853D01*
X27510Y-34995D01*
X27486Y-35043D01*
X27462Y-35067D01*
X27415Y-35091D01*
X27343Y-35091D01*
X27939Y-34757D02*
X27939Y-35162D01*
X27915Y-35210D01*
X27891Y-35234D01*
X27843Y-35257D01*
X27772Y-35257D01*
X27724Y-35234D01*
X27939Y-35067D02*
X27891Y-35091D01*
X27796Y-35091D01*
X27748Y-35067D01*
X27724Y-35043D01*
X27700Y-34995D01*
X27700Y-34853D01*
X27724Y-34805D01*
X27748Y-34781D01*
X27796Y-34757D01*
X27891Y-34757D01*
X27939Y-34781D01*
X28177Y-35091D02*
X28177Y-34757D01*
X28177Y-34853D02*
X28200Y-34805D01*
X28224Y-34781D01*
X28272Y-34757D01*
X28320Y-34757D01*
X28700Y-35091D02*
X28700Y-34829D01*
X28677Y-34781D01*
X28629Y-34757D01*
X28534Y-34757D01*
X28486Y-34781D01*
X28700Y-35067D02*
X28653Y-35091D01*
X28534Y-35091D01*
X28486Y-35067D01*
X28462Y-35019D01*
X28462Y-34972D01*
X28486Y-34924D01*
X28534Y-34900D01*
X28653Y-34900D01*
X28700Y-34876D01*
X28939Y-35091D02*
X28939Y-34757D01*
X28939Y-34805D02*
X28962Y-34781D01*
X29010Y-34757D01*
X29081Y-34757D01*
X29129Y-34781D01*
X29153Y-34829D01*
X29153Y-35091D01*
X29153Y-34829D02*
X29177Y-34781D01*
X29224Y-34757D01*
X29296Y-34757D01*
X29343Y-34781D01*
X29367Y-34829D01*
X29367Y-35091D01*
X29605Y-35091D02*
X29605Y-34757D01*
X29605Y-34805D02*
X29629Y-34781D01*
X29677Y-34757D01*
X29748Y-34757D01*
X29796Y-34781D01*
X29820Y-34829D01*
X29820Y-35091D01*
X29820Y-34829D02*
X29843Y-34781D01*
X29891Y-34757D01*
X29962Y-34757D01*
X30010Y-34781D01*
X30034Y-34829D01*
X30034Y-35091D01*
X30462Y-35067D02*
X30415Y-35091D01*
X30320Y-35091D01*
X30272Y-35067D01*
X30248Y-35019D01*
X30248Y-34829D01*
X30272Y-34781D01*
X30320Y-34757D01*
X30415Y-34757D01*
X30462Y-34781D01*
X30486Y-34829D01*
X30486Y-34876D01*
X30248Y-34924D01*
X30700Y-35091D02*
X30700Y-34757D01*
X30700Y-34853D02*
X30724Y-34805D01*
X30748Y-34781D01*
X30796Y-34757D01*
X30843Y-34757D01*
X31343Y-34757D02*
X31462Y-35091D01*
X31581Y-34757D01*
X31867Y-34591D02*
X31915Y-34591D01*
X31962Y-34615D01*
X31986Y-34638D01*
X32010Y-34686D01*
X32034Y-34781D01*
X32034Y-34900D01*
X32010Y-34995D01*
X31986Y-35043D01*
X31962Y-35067D01*
X31915Y-35091D01*
X31867Y-35091D01*
X31819Y-35067D01*
X31796Y-35043D01*
X31772Y-34995D01*
X31748Y-34900D01*
X31748Y-34781D01*
X31772Y-34686D01*
X31796Y-34638D01*
X31819Y-34615D01*
X31867Y-34591D01*
X32248Y-35043D02*
X32272Y-35067D01*
X32248Y-35091D01*
X32224Y-35067D01*
X32248Y-35043D01*
X32248Y-35091D01*
X32748Y-35091D02*
X32462Y-35091D01*
X32605Y-35091D02*
X32605Y-34591D01*
X32558Y-34662D01*
X32510Y-34710D01*
X32462Y-34734D01*
X32556Y-34227D02*
X32960Y-34227D01*
X33008Y-34203D01*
X33032Y-34179D01*
X33056Y-34131D01*
X33056Y-34036D01*
X33032Y-33989D01*
X33008Y-33965D01*
X32960Y-33941D01*
X32556Y-33941D01*
X33032Y-33727D02*
X33056Y-33655D01*
X33056Y-33536D01*
X33032Y-33489D01*
X33008Y-33465D01*
X32960Y-33441D01*
X32913Y-33441D01*
X32865Y-33465D01*
X32841Y-33489D01*
X32818Y-33536D01*
X32794Y-33631D01*
X32770Y-33679D01*
X32746Y-33703D01*
X32699Y-33727D01*
X32651Y-33727D01*
X32603Y-33703D01*
X32580Y-33679D01*
X32556Y-33631D01*
X32556Y-33512D01*
X32580Y-33441D01*
X32794Y-33060D02*
X32818Y-32989D01*
X32841Y-32965D01*
X32889Y-32941D01*
X32960Y-32941D01*
X33008Y-32965D01*
X33032Y-32989D01*
X33056Y-33036D01*
X33056Y-33227D01*
X32556Y-33227D01*
X32556Y-33060D01*
X32580Y-33012D01*
X32603Y-32989D01*
X32651Y-32965D01*
X32699Y-32965D01*
X32746Y-32989D01*
X32770Y-33012D01*
X32794Y-33060D01*
X32794Y-33227D01*
X33056Y-32346D02*
X32556Y-32346D01*
X32556Y-32155D01*
X32580Y-32108D01*
X32603Y-32084D01*
X32651Y-32060D01*
X32722Y-32060D01*
X32770Y-32084D01*
X32794Y-32108D01*
X32818Y-32155D01*
X32818Y-32346D01*
X32556Y-31893D02*
X33056Y-31774D01*
X32699Y-31679D01*
X33056Y-31584D01*
X32556Y-31465D01*
X33056Y-30989D02*
X32818Y-31155D01*
X33056Y-31274D02*
X32556Y-31274D01*
X32556Y-31084D01*
X32580Y-31036D01*
X32603Y-31012D01*
X32651Y-30989D01*
X32722Y-30989D01*
X32770Y-31012D01*
X32794Y-31036D01*
X32818Y-31084D01*
X32818Y-31274D01*
X31982Y-28785D02*
X32006Y-28713D01*
X32006Y-28594D01*
X31982Y-28547D01*
X31958Y-28523D01*
X31910Y-28499D01*
X31863Y-28499D01*
X31815Y-28523D01*
X31791Y-28547D01*
X31768Y-28594D01*
X31744Y-28689D01*
X31720Y-28737D01*
X31696Y-28761D01*
X31649Y-28785D01*
X31601Y-28785D01*
X31553Y-28761D01*
X31530Y-28737D01*
X31506Y-28689D01*
X31506Y-28570D01*
X31530Y-28499D01*
X31744Y-28285D02*
X31744Y-28118D01*
X32006Y-28047D02*
X32006Y-28285D01*
X31506Y-28285D01*
X31506Y-28047D01*
X32006Y-27547D02*
X31768Y-27713D01*
X32006Y-27832D02*
X31506Y-27832D01*
X31506Y-27642D01*
X31530Y-27594D01*
X31553Y-27570D01*
X31601Y-27547D01*
X31672Y-27547D01*
X31720Y-27570D01*
X31744Y-27594D01*
X31768Y-27642D01*
X31768Y-27832D01*
X32006Y-27332D02*
X31506Y-27332D01*
X31863Y-27118D02*
X31863Y-26880D01*
X32006Y-27166D02*
X31506Y-26999D01*
X32006Y-26832D01*
X32006Y-26428D02*
X32006Y-26666D01*
X31506Y-26666D01*
X32806Y-29844D02*
X32306Y-29844D01*
X32306Y-29654D01*
X32330Y-29606D01*
X32353Y-29582D01*
X32401Y-29559D01*
X32472Y-29559D01*
X32520Y-29582D01*
X32544Y-29606D01*
X32568Y-29654D01*
X32568Y-29844D01*
X32806Y-29059D02*
X32568Y-29225D01*
X32806Y-29344D02*
X32306Y-29344D01*
X32306Y-29154D01*
X32330Y-29106D01*
X32353Y-29082D01*
X32401Y-29059D01*
X32472Y-29059D01*
X32520Y-29082D01*
X32544Y-29106D01*
X32568Y-29154D01*
X32568Y-29344D01*
X32306Y-28749D02*
X32306Y-28654D01*
X32330Y-28606D01*
X32377Y-28559D01*
X32472Y-28535D01*
X32639Y-28535D01*
X32734Y-28559D01*
X32782Y-28606D01*
X32806Y-28654D01*
X32806Y-28749D01*
X32782Y-28797D01*
X32734Y-28844D01*
X32639Y-28868D01*
X32472Y-28868D01*
X32377Y-28844D01*
X32330Y-28797D01*
X32306Y-28749D01*
X32330Y-28059D02*
X32306Y-28106D01*
X32306Y-28178D01*
X32330Y-28249D01*
X32377Y-28297D01*
X32425Y-28320D01*
X32520Y-28344D01*
X32591Y-28344D01*
X32687Y-28320D01*
X32734Y-28297D01*
X32782Y-28249D01*
X32806Y-28178D01*
X32806Y-28130D01*
X32782Y-28059D01*
X32758Y-28035D01*
X32591Y-28035D01*
X32591Y-28130D01*
X32806Y-27535D02*
X32568Y-27701D01*
X32806Y-27820D02*
X32306Y-27820D01*
X32306Y-27630D01*
X32330Y-27582D01*
X32353Y-27559D01*
X32401Y-27535D01*
X32472Y-27535D01*
X32520Y-27559D01*
X32544Y-27582D01*
X32568Y-27630D01*
X32568Y-27820D01*
X32663Y-27344D02*
X32663Y-27106D01*
X32806Y-27392D02*
X32306Y-27225D01*
X32806Y-27059D01*
X32806Y-26892D02*
X32306Y-26892D01*
X32663Y-26725D01*
X32306Y-26559D01*
X32806Y-26559D01*
X32806Y-26320D02*
X32306Y-26320D01*
X32663Y-26154D01*
X32306Y-25987D01*
X32806Y-25987D01*
X32544Y-25749D02*
X32544Y-25582D01*
X32806Y-25511D02*
X32806Y-25749D01*
X32306Y-25749D01*
X32306Y-25511D01*
X32806Y-25011D02*
X32568Y-25178D01*
X32806Y-25297D02*
X32306Y-25297D01*
X32306Y-25106D01*
X32330Y-25059D01*
X32353Y-25035D01*
X32401Y-25011D01*
X32472Y-25011D01*
X32520Y-25035D01*
X32544Y-25059D01*
X32568Y-25106D01*
X32568Y-25297D01*
X25008Y-30320D02*
X25008Y-30082D01*
X25151Y-30368D02*
X24651Y-30201D01*
X25151Y-30034D01*
X24651Y-29939D02*
X25151Y-29772D01*
X24651Y-29606D01*
X25151Y-29153D02*
X24913Y-29320D01*
X25151Y-29439D02*
X24651Y-29439D01*
X24651Y-29249D01*
X24675Y-29201D01*
X24698Y-29177D01*
X24746Y-29153D01*
X24817Y-29153D01*
X24865Y-29177D01*
X24889Y-29201D01*
X24913Y-29249D01*
X24913Y-29439D01*
X25151Y-28939D02*
X24651Y-28939D01*
X25127Y-28725D02*
X25151Y-28653D01*
X25151Y-28534D01*
X25127Y-28487D01*
X25103Y-28463D01*
X25055Y-28439D01*
X25008Y-28439D01*
X24960Y-28463D01*
X24936Y-28487D01*
X24913Y-28534D01*
X24889Y-28630D01*
X24865Y-28677D01*
X24841Y-28701D01*
X24794Y-28725D01*
X24746Y-28725D01*
X24698Y-28701D01*
X24675Y-28677D01*
X24651Y-28630D01*
X24651Y-28510D01*
X24675Y-28439D01*
X25151Y-28225D02*
X24651Y-28225D01*
X24651Y-28034D01*
X24675Y-27987D01*
X24698Y-27963D01*
X24746Y-27939D01*
X24817Y-27939D01*
X24865Y-27963D01*
X24889Y-27987D01*
X24913Y-28034D01*
X24913Y-28225D01*
G54D12*
X22953Y-29985D02*
X23662Y-29985D01*
X23662Y-29985D02*
X23662Y-35418D01*
X23662Y-35418D02*
X20158Y-35418D01*
X20158Y-35418D02*
X20118Y-35418D01*
X20118Y-35418D02*
X20118Y-29985D01*
X20118Y-29985D02*
X20827Y-29985D01*
X29365Y-32350D02*
X29365Y-26350D01*
X25565Y-32350D02*
X25565Y-26350D01*
X25565Y-26350D02*
X29365Y-26350D01*
X29365Y-32350D02*
X25565Y-32350D01*
X30339Y-31067D02*
X30339Y-29885D01*
X29626Y-30462D02*
X30326Y-31062D01*
X30325Y-29862D02*
X29625Y-30462D01*
X33559Y-19713D02*
X35059Y-19713D01*
X35059Y-19713D02*
X35059Y-20013D01*
X21559Y-19713D02*
X20059Y-19713D01*
X20059Y-19713D02*
X20059Y-19913D01*
X21559Y-23413D02*
X20059Y-23413D01*
X20059Y-23413D02*
X20059Y-19913D01*
X33559Y-23413D02*
X35059Y-23413D01*
X35059Y-23413D02*
X35059Y-19913D01*
X33559Y-23413D02*
X21559Y-23413D01*
X21559Y-19713D02*
X33559Y-19713D01*
G54D13*
X34270Y-33560D02*
X33270Y-33560D01*
X33270Y-33560D02*
X33270Y-31560D01*
X33270Y-31560D02*
X34270Y-31560D01*
X34270Y-31560D02*
X34270Y-33560D01*
G54D14*
X34310Y-30510D02*
X33310Y-30510D01*
X33310Y-30510D02*
X33310Y-24510D01*
X33310Y-24510D02*
X34310Y-24510D01*
X34310Y-24510D02*
X34310Y-30510D01*
X34310Y-29510D02*
X33310Y-29510D01*
G54D11*
X23480Y-29726D02*
X23480Y-29226D01*
X23671Y-29226D01*
X23719Y-29250D01*
X23742Y-29273D01*
X23766Y-29321D01*
X23766Y-29392D01*
X23742Y-29440D01*
X23719Y-29464D01*
X23671Y-29488D01*
X23480Y-29488D01*
X24242Y-29726D02*
X23957Y-29726D01*
X24100Y-29726D02*
X24100Y-29226D01*
X24052Y-29297D01*
X24004Y-29345D01*
X23957Y-29369D01*
X26171Y-25799D02*
X25671Y-25799D01*
X25671Y-25608D01*
X25695Y-25560D01*
X25718Y-25537D01*
X25766Y-25513D01*
X25837Y-25513D01*
X25885Y-25537D01*
X25909Y-25560D01*
X25933Y-25608D01*
X25933Y-25799D01*
X25718Y-25322D02*
X25695Y-25299D01*
X25671Y-25251D01*
X25671Y-25132D01*
X25695Y-25084D01*
X25718Y-25060D01*
X25766Y-25037D01*
X25814Y-25037D01*
X25885Y-25060D01*
X26171Y-25346D01*
X26171Y-25037D01*
X28591Y-28230D02*
X28591Y-28469D01*
X28829Y-28492D01*
X28805Y-28469D01*
X28781Y-28421D01*
X28781Y-28302D01*
X28805Y-28254D01*
X28829Y-28230D01*
X28876Y-28207D01*
X28995Y-28207D01*
X29043Y-28230D01*
X29067Y-28254D01*
X29091Y-28302D01*
X29091Y-28421D01*
X29067Y-28469D01*
X29043Y-28492D01*
X25891Y-28254D02*
X25891Y-28350D01*
X25915Y-28397D01*
X25938Y-28421D01*
X26010Y-28469D01*
X26105Y-28492D01*
X26295Y-28492D01*
X26343Y-28469D01*
X26367Y-28445D01*
X26391Y-28397D01*
X26391Y-28302D01*
X26367Y-28254D01*
X26343Y-28230D01*
X26295Y-28207D01*
X26176Y-28207D01*
X26129Y-28230D01*
X26105Y-28254D01*
X26081Y-28302D01*
X26081Y-28397D01*
X26105Y-28445D01*
X26129Y-28469D01*
X26176Y-28492D01*
X25938Y-30492D02*
X25915Y-30469D01*
X25891Y-30421D01*
X25891Y-30302D01*
X25915Y-30254D01*
X25938Y-30230D01*
X25986Y-30207D01*
X26034Y-30207D01*
X26105Y-30230D01*
X26391Y-30516D01*
X26391Y-30207D01*
X20182Y-24261D02*
X20182Y-23761D01*
X20372Y-23761D01*
X20420Y-23785D01*
X20444Y-23809D01*
X20467Y-23856D01*
X20467Y-23928D01*
X20444Y-23975D01*
X20420Y-23999D01*
X20372Y-24023D01*
X20182Y-24023D01*
X20634Y-23761D02*
X20944Y-23761D01*
X20777Y-23952D01*
X20848Y-23952D01*
X20896Y-23975D01*
X20920Y-23999D01*
X20944Y-24047D01*
X20944Y-24166D01*
X20920Y-24214D01*
X20896Y-24237D01*
X20848Y-24261D01*
X20705Y-24261D01*
X20658Y-24237D01*
X20634Y-24214D01*
X35006Y-33629D02*
X34506Y-33629D01*
X34506Y-33438D01*
X34530Y-33390D01*
X34553Y-33367D01*
X34601Y-33343D01*
X34672Y-33343D01*
X34720Y-33367D01*
X34744Y-33390D01*
X34768Y-33438D01*
X34768Y-33629D01*
X34672Y-32914D02*
X35006Y-32914D01*
X34482Y-33033D02*
X34839Y-33152D01*
X34839Y-32843D01*
X35091Y-30339D02*
X34591Y-30339D01*
X34591Y-30148D01*
X34615Y-30100D01*
X34638Y-30077D01*
X34686Y-30053D01*
X34757Y-30053D01*
X34805Y-30077D01*
X34829Y-30100D01*
X34853Y-30148D01*
X34853Y-30339D01*
X34591Y-29600D02*
X34591Y-29839D01*
X34829Y-29862D01*
X34805Y-29839D01*
X34781Y-29791D01*
X34781Y-29672D01*
X34805Y-29624D01*
X34829Y-29600D01*
X34876Y-29577D01*
X34995Y-29577D01*
X35043Y-29600D01*
X35067Y-29624D01*
X35091Y-29672D01*
X35091Y-29791D01*
X35067Y-29839D01*
X35043Y-29862D01*
M02*
