M48
;DRILL file {Pcbnew (2013-mar-13)-testing} date Tue 12 Nov 2013 05:10:19 PM PST
;FORMAT={2:4/ absolute / inch / suppress trailing zeros}
FMAT,2
INCH,LZ
T1C0.025
T2C0.040
T3C0.102
T4C0.118
%
G90
G05
M72
T1
X027048Y-026592
T2
X020559Y-022913
X021559Y-022913
X022559Y-022913
X023559Y-022913
X024559Y-022913
X025559Y-022913
X026559Y-022913
X026965Y-02835
X026965Y-02935
X026965Y-03035
X027559Y-022913
X027965Y-02835
X027965Y-02935
X027965Y-03035
X028559Y-022913
X029559Y-022913
X030559Y-022913
X031559Y-022913
X032559Y-022913
X033559Y-022913
X03377Y-03206
X03377Y-03306
X03381Y-02501
X03381Y-02601
X03381Y-02701
X03381Y-02801
X03381Y-02901
X03381Y-03001
X034559Y-022913
T3
X02189Y-032347
T4
X02189Y-029985
T0
M30
