M48
;DRILL file {Pcbnew (2013-jul-07)-stable} date Tue 18 Aug 2015 02:40:45 PM PDT
;FORMAT={-:-/ absolute / inch / decimal}
FMAT,2
INCH,TZ
T1C0.032
T2C0.040
T3C0.102
T4C0.118
%
G90
G05
M72
T1
X2.1138Y-3.9445
X2.1138Y-4.2445
X2.2138Y-3.9445
X2.2138Y-4.2445
X2.3138Y-3.9445
X2.3138Y-4.2445
X2.4138Y-3.9445
X2.4138Y-4.2445
X2.7012Y-3.9445
X2.7012Y-4.2445
X2.8012Y-3.9445
X2.8012Y-4.2445
X2.9012Y-3.9445
X2.9012Y-4.2445
X3.0012Y-3.9445
X3.0012Y-4.2445
X3.1012Y-3.9445
X3.1012Y-4.2445
X3.2012Y-3.9445
X3.2012Y-4.2445
X3.3012Y-3.9445
X3.3012Y-4.2445
X3.4012Y-3.9445
X3.4012Y-4.2445
T2
X2.1744Y-2.45
X2.1744Y-2.55
X2.1744Y-3.0799
X2.1744Y-3.1799
X2.2744Y-2.45
X2.2744Y-2.55
X2.2744Y-3.0799
X2.2744Y-3.1799
X2.3213Y-4.7531
X2.3213Y-4.8531
X2.4213Y-4.7531
X2.4213Y-4.8531
X2.5213Y-4.7531
X2.5213Y-4.8531
X3.2374Y-2.45
X3.2374Y-2.55
X3.2374Y-3.0799
X3.2374Y-3.1799
X3.3374Y-2.45
X3.3374Y-2.55
X3.3374Y-3.0799
X3.3374Y-3.1799
T3
X3.2874Y-4.8031
T4
X3.2874Y-4.5669
T0
M30
