G04 (created by PCBNEW (2013-mar-13)-testing) date Tue 20 Aug 2013 10:34:20 AM PDT*
%MOIN*%
G04 Gerber Fmt 3.4, Leading zero omitted, Abs format*
%FSLAX34Y34*%
G01*
G70*
G90*
G04 APERTURE LIST*
%ADD10C,0.005906*%
%ADD11C,0.065000*%
%ADD12C,0.050000*%
%ADD13C,0.035000*%
%ADD14C,0.010000*%
G04 APERTURE END LIST*
G54D10*
G54D11*
X20669Y-20122D03*
X20669Y-21122D03*
X20669Y-22122D03*
X20669Y-23122D03*
X20669Y-24122D03*
X20669Y-25122D03*
X20669Y-26122D03*
X20669Y-27122D03*
X26574Y-27122D03*
X26574Y-26122D03*
X26574Y-25122D03*
X26574Y-24122D03*
X26574Y-23122D03*
X26574Y-22122D03*
X26574Y-21122D03*
X26574Y-20122D03*
X20669Y-27996D03*
X20669Y-28996D03*
X20669Y-29996D03*
X20669Y-30996D03*
X20669Y-31996D03*
X20669Y-32996D03*
X20669Y-33996D03*
X20669Y-34996D03*
X26574Y-34996D03*
X26574Y-33996D03*
X26574Y-32996D03*
X26574Y-31996D03*
X26574Y-30996D03*
X26574Y-29996D03*
X26574Y-28996D03*
X26574Y-27996D03*
X28543Y-20122D03*
X28543Y-21122D03*
X28543Y-22122D03*
X28543Y-23122D03*
X28543Y-24122D03*
X28543Y-25122D03*
X28543Y-26122D03*
X28543Y-27122D03*
X34448Y-27122D03*
X34448Y-26122D03*
X34448Y-25122D03*
X34448Y-24122D03*
X34448Y-23122D03*
X34448Y-22122D03*
X34448Y-21122D03*
X34448Y-20122D03*
X28543Y-27996D03*
X28543Y-28996D03*
X28543Y-29996D03*
X28543Y-30996D03*
X28543Y-31996D03*
X28543Y-32996D03*
X28543Y-33996D03*
X28543Y-34996D03*
X34448Y-34996D03*
X34448Y-33996D03*
X34448Y-32996D03*
X34448Y-31996D03*
X34448Y-30996D03*
X34448Y-29996D03*
X34448Y-28996D03*
X34448Y-27996D03*
G54D12*
X23622Y-24068D03*
G54D11*
X23622Y-32308D03*
G54D12*
X31496Y-24068D03*
G54D11*
X31496Y-32308D03*
G54D13*
X25400Y-28700D03*
X21800Y-27700D03*
X21811Y-27165D03*
X21811Y-26692D03*
X21811Y-26181D03*
X21811Y-25669D03*
X21811Y-25196D03*
X21811Y-24685D03*
X25400Y-29200D03*
X25400Y-29700D03*
X21800Y-30700D03*
X21800Y-30180D03*
X21820Y-29700D03*
X21820Y-29180D03*
X21820Y-28680D03*
X21800Y-28200D03*
X33300Y-28700D03*
X29700Y-27700D03*
X29700Y-27200D03*
X29700Y-26700D03*
X29700Y-26200D03*
X32373Y-24080D03*
X29700Y-25700D03*
X29700Y-25200D03*
X29700Y-24700D03*
X33400Y-29200D03*
X33400Y-29700D03*
X29700Y-30700D03*
X29700Y-30200D03*
X29700Y-29700D03*
X29700Y-29200D03*
X29700Y-28700D03*
X29700Y-28200D03*
X25400Y-24700D03*
X25400Y-25200D03*
X25400Y-25700D03*
X25400Y-26200D03*
X25400Y-26700D03*
X25400Y-27200D03*
X25400Y-27700D03*
X25400Y-28200D03*
X33300Y-24700D03*
X33300Y-25200D03*
X33300Y-25700D03*
X33300Y-26200D03*
X33300Y-26700D03*
X33300Y-27200D03*
X33300Y-27700D03*
X33300Y-28200D03*
X25400Y-31700D03*
X33400Y-31700D03*
G54D10*
G36*
X35186Y-35186D02*
X34884Y-35186D01*
X34923Y-35090D01*
X34923Y-34901D01*
X34923Y-33901D01*
X34923Y-32901D01*
X34923Y-31901D01*
X34923Y-30901D01*
X34923Y-29901D01*
X34923Y-28901D01*
X34923Y-27901D01*
X34851Y-27727D01*
X34718Y-27593D01*
X34635Y-27559D01*
X34717Y-27524D01*
X34851Y-27391D01*
X34923Y-27216D01*
X34923Y-27027D01*
X34923Y-26027D01*
X34923Y-25027D01*
X34923Y-24027D01*
X34923Y-23027D01*
X34923Y-22027D01*
X34923Y-21027D01*
X34851Y-20853D01*
X34718Y-20719D01*
X34543Y-20647D01*
X34354Y-20646D01*
X34180Y-20719D01*
X34046Y-20852D01*
X33973Y-21027D01*
X33973Y-21216D01*
X34045Y-21390D01*
X34179Y-21524D01*
X34353Y-21596D01*
X34542Y-21597D01*
X34717Y-21524D01*
X34851Y-21391D01*
X34923Y-21216D01*
X34923Y-21027D01*
X34923Y-22027D01*
X34851Y-21853D01*
X34718Y-21719D01*
X34543Y-21647D01*
X34354Y-21646D01*
X34180Y-21719D01*
X34046Y-21852D01*
X33973Y-22027D01*
X33973Y-22216D01*
X34045Y-22390D01*
X34179Y-22524D01*
X34353Y-22596D01*
X34542Y-22597D01*
X34717Y-22524D01*
X34851Y-22391D01*
X34923Y-22216D01*
X34923Y-22027D01*
X34923Y-23027D01*
X34851Y-22853D01*
X34718Y-22719D01*
X34543Y-22647D01*
X34354Y-22646D01*
X34180Y-22719D01*
X34046Y-22852D01*
X33973Y-23027D01*
X33973Y-23216D01*
X34045Y-23390D01*
X34179Y-23524D01*
X34353Y-23596D01*
X34542Y-23597D01*
X34717Y-23524D01*
X34851Y-23391D01*
X34923Y-23216D01*
X34923Y-23027D01*
X34923Y-24027D01*
X34851Y-23853D01*
X34718Y-23719D01*
X34543Y-23647D01*
X34354Y-23646D01*
X34180Y-23719D01*
X34046Y-23852D01*
X33973Y-24027D01*
X33973Y-24216D01*
X34045Y-24390D01*
X34179Y-24524D01*
X34353Y-24596D01*
X34542Y-24597D01*
X34717Y-24524D01*
X34851Y-24391D01*
X34923Y-24216D01*
X34923Y-24027D01*
X34923Y-25027D01*
X34851Y-24853D01*
X34718Y-24719D01*
X34543Y-24647D01*
X34354Y-24646D01*
X34180Y-24719D01*
X34046Y-24852D01*
X33973Y-25027D01*
X33973Y-25216D01*
X34045Y-25390D01*
X34179Y-25524D01*
X34353Y-25596D01*
X34542Y-25597D01*
X34717Y-25524D01*
X34851Y-25391D01*
X34923Y-25216D01*
X34923Y-25027D01*
X34923Y-26027D01*
X34851Y-25853D01*
X34718Y-25719D01*
X34543Y-25647D01*
X34354Y-25646D01*
X34180Y-25719D01*
X34046Y-25852D01*
X33973Y-26027D01*
X33973Y-26216D01*
X34045Y-26390D01*
X34179Y-26524D01*
X34353Y-26596D01*
X34542Y-26597D01*
X34717Y-26524D01*
X34851Y-26391D01*
X34923Y-26216D01*
X34923Y-26027D01*
X34923Y-27027D01*
X34851Y-26853D01*
X34718Y-26719D01*
X34543Y-26647D01*
X34354Y-26646D01*
X34180Y-26719D01*
X34046Y-26852D01*
X33973Y-27027D01*
X33973Y-27216D01*
X34045Y-27390D01*
X34179Y-27524D01*
X34262Y-27559D01*
X34180Y-27593D01*
X34046Y-27726D01*
X33973Y-27901D01*
X33973Y-28090D01*
X34045Y-28264D01*
X34179Y-28398D01*
X34353Y-28470D01*
X34542Y-28471D01*
X34717Y-28398D01*
X34851Y-28265D01*
X34923Y-28090D01*
X34923Y-27901D01*
X34923Y-28901D01*
X34851Y-28727D01*
X34718Y-28593D01*
X34543Y-28521D01*
X34354Y-28520D01*
X34180Y-28593D01*
X34046Y-28726D01*
X33973Y-28901D01*
X33973Y-29090D01*
X34045Y-29264D01*
X34179Y-29398D01*
X34353Y-29470D01*
X34542Y-29471D01*
X34717Y-29398D01*
X34851Y-29265D01*
X34923Y-29090D01*
X34923Y-28901D01*
X34923Y-29901D01*
X34851Y-29727D01*
X34718Y-29593D01*
X34543Y-29521D01*
X34354Y-29520D01*
X34180Y-29593D01*
X34046Y-29726D01*
X33973Y-29901D01*
X33973Y-30090D01*
X34045Y-30264D01*
X34179Y-30398D01*
X34353Y-30470D01*
X34542Y-30471D01*
X34717Y-30398D01*
X34851Y-30265D01*
X34923Y-30090D01*
X34923Y-29901D01*
X34923Y-30901D01*
X34851Y-30727D01*
X34718Y-30593D01*
X34543Y-30521D01*
X34354Y-30520D01*
X34180Y-30593D01*
X34046Y-30726D01*
X33973Y-30901D01*
X33973Y-31090D01*
X34045Y-31264D01*
X34179Y-31398D01*
X34353Y-31470D01*
X34542Y-31471D01*
X34717Y-31398D01*
X34851Y-31265D01*
X34923Y-31090D01*
X34923Y-30901D01*
X34923Y-31901D01*
X34851Y-31727D01*
X34718Y-31593D01*
X34543Y-31521D01*
X34354Y-31520D01*
X34180Y-31593D01*
X34046Y-31726D01*
X33973Y-31901D01*
X33973Y-32090D01*
X34045Y-32264D01*
X34179Y-32398D01*
X34353Y-32470D01*
X34542Y-32471D01*
X34717Y-32398D01*
X34851Y-32265D01*
X34923Y-32090D01*
X34923Y-31901D01*
X34923Y-32901D01*
X34851Y-32727D01*
X34718Y-32593D01*
X34543Y-32521D01*
X34354Y-32520D01*
X34180Y-32593D01*
X34046Y-32726D01*
X33973Y-32901D01*
X33973Y-33090D01*
X34045Y-33264D01*
X34179Y-33398D01*
X34353Y-33470D01*
X34542Y-33471D01*
X34717Y-33398D01*
X34851Y-33265D01*
X34923Y-33090D01*
X34923Y-32901D01*
X34923Y-33901D01*
X34851Y-33727D01*
X34718Y-33593D01*
X34543Y-33521D01*
X34354Y-33520D01*
X34180Y-33593D01*
X34046Y-33726D01*
X33973Y-33901D01*
X33973Y-34090D01*
X34045Y-34264D01*
X34179Y-34398D01*
X34353Y-34470D01*
X34542Y-34471D01*
X34717Y-34398D01*
X34851Y-34265D01*
X34923Y-34090D01*
X34923Y-33901D01*
X34923Y-34901D01*
X34851Y-34727D01*
X34718Y-34593D01*
X34543Y-34521D01*
X34354Y-34520D01*
X34180Y-34593D01*
X34046Y-34726D01*
X33973Y-34901D01*
X33973Y-35090D01*
X34013Y-35186D01*
X33725Y-35186D01*
X33725Y-29635D01*
X33675Y-29516D01*
X33609Y-29449D01*
X33675Y-29384D01*
X33724Y-29264D01*
X33725Y-29135D01*
X33675Y-29016D01*
X33584Y-28924D01*
X33549Y-28910D01*
X33575Y-28884D01*
X33624Y-28764D01*
X33625Y-28635D01*
X33575Y-28516D01*
X33509Y-28449D01*
X33575Y-28384D01*
X33624Y-28264D01*
X33625Y-28135D01*
X33575Y-28016D01*
X33509Y-27949D01*
X33575Y-27884D01*
X33624Y-27764D01*
X33625Y-27635D01*
X33575Y-27516D01*
X33509Y-27449D01*
X33575Y-27384D01*
X33624Y-27264D01*
X33625Y-27135D01*
X33575Y-27016D01*
X33509Y-26949D01*
X33575Y-26884D01*
X33624Y-26764D01*
X33625Y-26635D01*
X33575Y-26516D01*
X33509Y-26449D01*
X33575Y-26384D01*
X33624Y-26264D01*
X33625Y-26135D01*
X33575Y-26016D01*
X33509Y-25949D01*
X33575Y-25884D01*
X33624Y-25764D01*
X33625Y-25635D01*
X33575Y-25516D01*
X33509Y-25449D01*
X33575Y-25384D01*
X33624Y-25264D01*
X33625Y-25135D01*
X33575Y-25016D01*
X33509Y-24949D01*
X33575Y-24884D01*
X33624Y-24764D01*
X33625Y-24635D01*
X33575Y-24516D01*
X33484Y-24424D01*
X33364Y-24375D01*
X33235Y-24374D01*
X33116Y-24424D01*
X33024Y-24515D01*
X32975Y-24635D01*
X32974Y-24764D01*
X33024Y-24883D01*
X33090Y-24950D01*
X33024Y-25015D01*
X32975Y-25135D01*
X32974Y-25264D01*
X33024Y-25383D01*
X33090Y-25450D01*
X33024Y-25515D01*
X32975Y-25635D01*
X32974Y-25764D01*
X33024Y-25883D01*
X33090Y-25950D01*
X33024Y-26015D01*
X32975Y-26135D01*
X32974Y-26264D01*
X33024Y-26383D01*
X33090Y-26450D01*
X33024Y-26515D01*
X32975Y-26635D01*
X32974Y-26764D01*
X33024Y-26883D01*
X33090Y-26950D01*
X33024Y-27015D01*
X32975Y-27135D01*
X32974Y-27264D01*
X33024Y-27383D01*
X33090Y-27450D01*
X33024Y-27515D01*
X32975Y-27635D01*
X32974Y-27764D01*
X33024Y-27883D01*
X33090Y-27950D01*
X33024Y-28015D01*
X32975Y-28135D01*
X32974Y-28264D01*
X33024Y-28383D01*
X33090Y-28450D01*
X33024Y-28515D01*
X32975Y-28635D01*
X32974Y-28764D01*
X33024Y-28883D01*
X33115Y-28975D01*
X33150Y-28989D01*
X33124Y-29015D01*
X33075Y-29135D01*
X33074Y-29264D01*
X33124Y-29383D01*
X33190Y-29450D01*
X33124Y-29515D01*
X33075Y-29635D01*
X33074Y-29764D01*
X33124Y-29883D01*
X33215Y-29975D01*
X33335Y-30024D01*
X33464Y-30025D01*
X33583Y-29975D01*
X33675Y-29884D01*
X33724Y-29764D01*
X33725Y-29635D01*
X33725Y-35186D01*
X32698Y-35186D01*
X32698Y-24016D01*
X32649Y-23896D01*
X32557Y-23805D01*
X32438Y-23755D01*
X32309Y-23755D01*
X32189Y-23804D01*
X32098Y-23896D01*
X32048Y-24015D01*
X32048Y-24145D01*
X32097Y-24264D01*
X32189Y-24356D01*
X32308Y-24405D01*
X32438Y-24405D01*
X32557Y-24356D01*
X32649Y-24265D01*
X32698Y-24145D01*
X32698Y-24016D01*
X32698Y-35186D01*
X31971Y-35186D01*
X31971Y-32214D01*
X31898Y-32040D01*
X31896Y-32037D01*
X31896Y-23989D01*
X31835Y-23842D01*
X31722Y-23730D01*
X31575Y-23669D01*
X31416Y-23668D01*
X31269Y-23729D01*
X31157Y-23842D01*
X31096Y-23989D01*
X31095Y-24148D01*
X31156Y-24295D01*
X31269Y-24407D01*
X31416Y-24468D01*
X31575Y-24469D01*
X31722Y-24408D01*
X31834Y-24295D01*
X31895Y-24148D01*
X31896Y-23989D01*
X31896Y-32037D01*
X31765Y-31906D01*
X31590Y-31834D01*
X31401Y-31833D01*
X31227Y-31906D01*
X31093Y-32039D01*
X31021Y-32214D01*
X31020Y-32403D01*
X31093Y-32577D01*
X31226Y-32711D01*
X31401Y-32783D01*
X31590Y-32784D01*
X31764Y-32711D01*
X31898Y-32578D01*
X31970Y-32403D01*
X31971Y-32214D01*
X31971Y-35186D01*
X30025Y-35186D01*
X30025Y-30635D01*
X29975Y-30516D01*
X29909Y-30449D01*
X29975Y-30384D01*
X30024Y-30264D01*
X30025Y-30135D01*
X29975Y-30016D01*
X29909Y-29949D01*
X29975Y-29884D01*
X30024Y-29764D01*
X30025Y-29635D01*
X29975Y-29516D01*
X29909Y-29449D01*
X29975Y-29384D01*
X30024Y-29264D01*
X30025Y-29135D01*
X29975Y-29016D01*
X29909Y-28949D01*
X29975Y-28884D01*
X30024Y-28764D01*
X30025Y-28635D01*
X29975Y-28516D01*
X29909Y-28449D01*
X29975Y-28384D01*
X30024Y-28264D01*
X30025Y-28135D01*
X29975Y-28016D01*
X29909Y-27949D01*
X29975Y-27884D01*
X30024Y-27764D01*
X30025Y-27635D01*
X29975Y-27516D01*
X29909Y-27449D01*
X29975Y-27384D01*
X30024Y-27264D01*
X30025Y-27135D01*
X29975Y-27016D01*
X29909Y-26949D01*
X29975Y-26884D01*
X30024Y-26764D01*
X30025Y-26635D01*
X29975Y-26516D01*
X29909Y-26449D01*
X29975Y-26384D01*
X30024Y-26264D01*
X30025Y-26135D01*
X29975Y-26016D01*
X29909Y-25949D01*
X29975Y-25884D01*
X30024Y-25764D01*
X30025Y-25635D01*
X29975Y-25516D01*
X29909Y-25449D01*
X29975Y-25384D01*
X30024Y-25264D01*
X30025Y-25135D01*
X29975Y-25016D01*
X29909Y-24949D01*
X29975Y-24884D01*
X30024Y-24764D01*
X30025Y-24635D01*
X29975Y-24516D01*
X29884Y-24424D01*
X29764Y-24375D01*
X29635Y-24374D01*
X29516Y-24424D01*
X29424Y-24515D01*
X29375Y-24635D01*
X29374Y-24764D01*
X29424Y-24883D01*
X29490Y-24950D01*
X29424Y-25015D01*
X29375Y-25135D01*
X29374Y-25264D01*
X29424Y-25383D01*
X29490Y-25450D01*
X29424Y-25515D01*
X29375Y-25635D01*
X29374Y-25764D01*
X29424Y-25883D01*
X29490Y-25950D01*
X29424Y-26015D01*
X29375Y-26135D01*
X29374Y-26264D01*
X29424Y-26383D01*
X29490Y-26450D01*
X29424Y-26515D01*
X29375Y-26635D01*
X29374Y-26764D01*
X29424Y-26883D01*
X29490Y-26950D01*
X29424Y-27015D01*
X29375Y-27135D01*
X29374Y-27264D01*
X29424Y-27383D01*
X29490Y-27450D01*
X29424Y-27515D01*
X29375Y-27635D01*
X29374Y-27764D01*
X29424Y-27883D01*
X29490Y-27950D01*
X29424Y-28015D01*
X29375Y-28135D01*
X29374Y-28264D01*
X29424Y-28383D01*
X29490Y-28450D01*
X29424Y-28515D01*
X29375Y-28635D01*
X29374Y-28764D01*
X29424Y-28883D01*
X29490Y-28950D01*
X29424Y-29015D01*
X29375Y-29135D01*
X29374Y-29264D01*
X29424Y-29383D01*
X29490Y-29450D01*
X29424Y-29515D01*
X29375Y-29635D01*
X29374Y-29764D01*
X29424Y-29883D01*
X29490Y-29950D01*
X29424Y-30015D01*
X29375Y-30135D01*
X29374Y-30264D01*
X29424Y-30383D01*
X29490Y-30450D01*
X29424Y-30515D01*
X29375Y-30635D01*
X29374Y-30764D01*
X29424Y-30883D01*
X29515Y-30975D01*
X29635Y-31024D01*
X29764Y-31025D01*
X29883Y-30975D01*
X29975Y-30884D01*
X30024Y-30764D01*
X30025Y-30635D01*
X30025Y-35186D01*
X28978Y-35186D01*
X29018Y-35090D01*
X29018Y-34901D01*
X29018Y-33901D01*
X29018Y-32901D01*
X29018Y-31901D01*
X29018Y-30901D01*
X29018Y-29901D01*
X29018Y-28901D01*
X29018Y-27901D01*
X28946Y-27727D01*
X28812Y-27593D01*
X28729Y-27559D01*
X28812Y-27524D01*
X28945Y-27391D01*
X29018Y-27216D01*
X29018Y-27027D01*
X29018Y-26027D01*
X29018Y-25027D01*
X29018Y-24027D01*
X29018Y-23027D01*
X29018Y-22027D01*
X29018Y-21027D01*
X28946Y-20853D01*
X28812Y-20719D01*
X28638Y-20647D01*
X28449Y-20646D01*
X28274Y-20719D01*
X28140Y-20852D01*
X28068Y-21027D01*
X28068Y-21216D01*
X28140Y-21390D01*
X28273Y-21524D01*
X28448Y-21596D01*
X28637Y-21597D01*
X28812Y-21524D01*
X28945Y-21391D01*
X29018Y-21216D01*
X29018Y-21027D01*
X29018Y-22027D01*
X28946Y-21853D01*
X28812Y-21719D01*
X28638Y-21647D01*
X28449Y-21646D01*
X28274Y-21719D01*
X28140Y-21852D01*
X28068Y-22027D01*
X28068Y-22216D01*
X28140Y-22390D01*
X28273Y-22524D01*
X28448Y-22596D01*
X28637Y-22597D01*
X28812Y-22524D01*
X28945Y-22391D01*
X29018Y-22216D01*
X29018Y-22027D01*
X29018Y-23027D01*
X28946Y-22853D01*
X28812Y-22719D01*
X28638Y-22647D01*
X28449Y-22646D01*
X28274Y-22719D01*
X28140Y-22852D01*
X28068Y-23027D01*
X28068Y-23216D01*
X28140Y-23390D01*
X28273Y-23524D01*
X28448Y-23596D01*
X28637Y-23597D01*
X28812Y-23524D01*
X28945Y-23391D01*
X29018Y-23216D01*
X29018Y-23027D01*
X29018Y-24027D01*
X28946Y-23853D01*
X28812Y-23719D01*
X28638Y-23647D01*
X28449Y-23646D01*
X28274Y-23719D01*
X28140Y-23852D01*
X28068Y-24027D01*
X28068Y-24216D01*
X28140Y-24390D01*
X28273Y-24524D01*
X28448Y-24596D01*
X28637Y-24597D01*
X28812Y-24524D01*
X28945Y-24391D01*
X29018Y-24216D01*
X29018Y-24027D01*
X29018Y-25027D01*
X28946Y-24853D01*
X28812Y-24719D01*
X28638Y-24647D01*
X28449Y-24646D01*
X28274Y-24719D01*
X28140Y-24852D01*
X28068Y-25027D01*
X28068Y-25216D01*
X28140Y-25390D01*
X28273Y-25524D01*
X28448Y-25596D01*
X28637Y-25597D01*
X28812Y-25524D01*
X28945Y-25391D01*
X29018Y-25216D01*
X29018Y-25027D01*
X29018Y-26027D01*
X28946Y-25853D01*
X28812Y-25719D01*
X28638Y-25647D01*
X28449Y-25646D01*
X28274Y-25719D01*
X28140Y-25852D01*
X28068Y-26027D01*
X28068Y-26216D01*
X28140Y-26390D01*
X28273Y-26524D01*
X28448Y-26596D01*
X28637Y-26597D01*
X28812Y-26524D01*
X28945Y-26391D01*
X29018Y-26216D01*
X29018Y-26027D01*
X29018Y-27027D01*
X28946Y-26853D01*
X28812Y-26719D01*
X28638Y-26647D01*
X28449Y-26646D01*
X28274Y-26719D01*
X28140Y-26852D01*
X28068Y-27027D01*
X28068Y-27216D01*
X28140Y-27390D01*
X28273Y-27524D01*
X28357Y-27559D01*
X28274Y-27593D01*
X28140Y-27726D01*
X28068Y-27901D01*
X28068Y-28090D01*
X28140Y-28264D01*
X28273Y-28398D01*
X28448Y-28470D01*
X28637Y-28471D01*
X28812Y-28398D01*
X28945Y-28265D01*
X29018Y-28090D01*
X29018Y-27901D01*
X29018Y-28901D01*
X28946Y-28727D01*
X28812Y-28593D01*
X28638Y-28521D01*
X28449Y-28520D01*
X28274Y-28593D01*
X28140Y-28726D01*
X28068Y-28901D01*
X28068Y-29090D01*
X28140Y-29264D01*
X28273Y-29398D01*
X28448Y-29470D01*
X28637Y-29471D01*
X28812Y-29398D01*
X28945Y-29265D01*
X29018Y-29090D01*
X29018Y-28901D01*
X29018Y-29901D01*
X28946Y-29727D01*
X28812Y-29593D01*
X28638Y-29521D01*
X28449Y-29520D01*
X28274Y-29593D01*
X28140Y-29726D01*
X28068Y-29901D01*
X28068Y-30090D01*
X28140Y-30264D01*
X28273Y-30398D01*
X28448Y-30470D01*
X28637Y-30471D01*
X28812Y-30398D01*
X28945Y-30265D01*
X29018Y-30090D01*
X29018Y-29901D01*
X29018Y-30901D01*
X28946Y-30727D01*
X28812Y-30593D01*
X28638Y-30521D01*
X28449Y-30520D01*
X28274Y-30593D01*
X28140Y-30726D01*
X28068Y-30901D01*
X28068Y-31090D01*
X28140Y-31264D01*
X28273Y-31398D01*
X28448Y-31470D01*
X28637Y-31471D01*
X28812Y-31398D01*
X28945Y-31265D01*
X29018Y-31090D01*
X29018Y-30901D01*
X29018Y-31901D01*
X28946Y-31727D01*
X28812Y-31593D01*
X28638Y-31521D01*
X28449Y-31520D01*
X28274Y-31593D01*
X28140Y-31726D01*
X28068Y-31901D01*
X28068Y-32090D01*
X28140Y-32264D01*
X28273Y-32398D01*
X28448Y-32470D01*
X28637Y-32471D01*
X28812Y-32398D01*
X28945Y-32265D01*
X29018Y-32090D01*
X29018Y-31901D01*
X29018Y-32901D01*
X28946Y-32727D01*
X28812Y-32593D01*
X28638Y-32521D01*
X28449Y-32520D01*
X28274Y-32593D01*
X28140Y-32726D01*
X28068Y-32901D01*
X28068Y-33090D01*
X28140Y-33264D01*
X28273Y-33398D01*
X28448Y-33470D01*
X28637Y-33471D01*
X28812Y-33398D01*
X28945Y-33265D01*
X29018Y-33090D01*
X29018Y-32901D01*
X29018Y-33901D01*
X28946Y-33727D01*
X28812Y-33593D01*
X28638Y-33521D01*
X28449Y-33520D01*
X28274Y-33593D01*
X28140Y-33726D01*
X28068Y-33901D01*
X28068Y-34090D01*
X28140Y-34264D01*
X28273Y-34398D01*
X28448Y-34470D01*
X28637Y-34471D01*
X28812Y-34398D01*
X28945Y-34265D01*
X29018Y-34090D01*
X29018Y-33901D01*
X29018Y-34901D01*
X28946Y-34727D01*
X28812Y-34593D01*
X28638Y-34521D01*
X28449Y-34520D01*
X28274Y-34593D01*
X28140Y-34726D01*
X28068Y-34901D01*
X28068Y-35090D01*
X28107Y-35186D01*
X27010Y-35186D01*
X27049Y-35090D01*
X27049Y-34901D01*
X27049Y-33901D01*
X27049Y-32901D01*
X27049Y-31901D01*
X27049Y-30901D01*
X27049Y-29901D01*
X27049Y-28901D01*
X27049Y-27901D01*
X26977Y-27727D01*
X26844Y-27593D01*
X26761Y-27559D01*
X26843Y-27524D01*
X26977Y-27391D01*
X27049Y-27216D01*
X27049Y-27027D01*
X27049Y-26027D01*
X27049Y-25027D01*
X27049Y-24027D01*
X27049Y-23027D01*
X27049Y-22027D01*
X27049Y-21027D01*
X26977Y-20853D01*
X26844Y-20719D01*
X26669Y-20647D01*
X26480Y-20646D01*
X26306Y-20719D01*
X26172Y-20852D01*
X26099Y-21027D01*
X26099Y-21216D01*
X26171Y-21390D01*
X26305Y-21524D01*
X26479Y-21596D01*
X26668Y-21597D01*
X26843Y-21524D01*
X26977Y-21391D01*
X27049Y-21216D01*
X27049Y-21027D01*
X27049Y-22027D01*
X26977Y-21853D01*
X26844Y-21719D01*
X26669Y-21647D01*
X26480Y-21646D01*
X26306Y-21719D01*
X26172Y-21852D01*
X26099Y-22027D01*
X26099Y-22216D01*
X26171Y-22390D01*
X26305Y-22524D01*
X26479Y-22596D01*
X26668Y-22597D01*
X26843Y-22524D01*
X26977Y-22391D01*
X27049Y-22216D01*
X27049Y-22027D01*
X27049Y-23027D01*
X26977Y-22853D01*
X26844Y-22719D01*
X26669Y-22647D01*
X26480Y-22646D01*
X26306Y-22719D01*
X26172Y-22852D01*
X26099Y-23027D01*
X26099Y-23216D01*
X26171Y-23390D01*
X26305Y-23524D01*
X26479Y-23596D01*
X26668Y-23597D01*
X26843Y-23524D01*
X26977Y-23391D01*
X27049Y-23216D01*
X27049Y-23027D01*
X27049Y-24027D01*
X26977Y-23853D01*
X26844Y-23719D01*
X26669Y-23647D01*
X26480Y-23646D01*
X26306Y-23719D01*
X26172Y-23852D01*
X26099Y-24027D01*
X26099Y-24216D01*
X26171Y-24390D01*
X26305Y-24524D01*
X26479Y-24596D01*
X26668Y-24597D01*
X26843Y-24524D01*
X26977Y-24391D01*
X27049Y-24216D01*
X27049Y-24027D01*
X27049Y-25027D01*
X26977Y-24853D01*
X26844Y-24719D01*
X26669Y-24647D01*
X26480Y-24646D01*
X26306Y-24719D01*
X26172Y-24852D01*
X26099Y-25027D01*
X26099Y-25216D01*
X26171Y-25390D01*
X26305Y-25524D01*
X26479Y-25596D01*
X26668Y-25597D01*
X26843Y-25524D01*
X26977Y-25391D01*
X27049Y-25216D01*
X27049Y-25027D01*
X27049Y-26027D01*
X26977Y-25853D01*
X26844Y-25719D01*
X26669Y-25647D01*
X26480Y-25646D01*
X26306Y-25719D01*
X26172Y-25852D01*
X26099Y-26027D01*
X26099Y-26216D01*
X26171Y-26390D01*
X26305Y-26524D01*
X26479Y-26596D01*
X26668Y-26597D01*
X26843Y-26524D01*
X26977Y-26391D01*
X27049Y-26216D01*
X27049Y-26027D01*
X27049Y-27027D01*
X26977Y-26853D01*
X26844Y-26719D01*
X26669Y-26647D01*
X26480Y-26646D01*
X26306Y-26719D01*
X26172Y-26852D01*
X26099Y-27027D01*
X26099Y-27216D01*
X26171Y-27390D01*
X26305Y-27524D01*
X26388Y-27559D01*
X26306Y-27593D01*
X26172Y-27726D01*
X26099Y-27901D01*
X26099Y-28090D01*
X26171Y-28264D01*
X26305Y-28398D01*
X26479Y-28470D01*
X26668Y-28471D01*
X26843Y-28398D01*
X26977Y-28265D01*
X27049Y-28090D01*
X27049Y-27901D01*
X27049Y-28901D01*
X26977Y-28727D01*
X26844Y-28593D01*
X26669Y-28521D01*
X26480Y-28520D01*
X26306Y-28593D01*
X26172Y-28726D01*
X26099Y-28901D01*
X26099Y-29090D01*
X26171Y-29264D01*
X26305Y-29398D01*
X26479Y-29470D01*
X26668Y-29471D01*
X26843Y-29398D01*
X26977Y-29265D01*
X27049Y-29090D01*
X27049Y-28901D01*
X27049Y-29901D01*
X26977Y-29727D01*
X26844Y-29593D01*
X26669Y-29521D01*
X26480Y-29520D01*
X26306Y-29593D01*
X26172Y-29726D01*
X26099Y-29901D01*
X26099Y-30090D01*
X26171Y-30264D01*
X26305Y-30398D01*
X26479Y-30470D01*
X26668Y-30471D01*
X26843Y-30398D01*
X26977Y-30265D01*
X27049Y-30090D01*
X27049Y-29901D01*
X27049Y-30901D01*
X26977Y-30727D01*
X26844Y-30593D01*
X26669Y-30521D01*
X26480Y-30520D01*
X26306Y-30593D01*
X26172Y-30726D01*
X26099Y-30901D01*
X26099Y-31090D01*
X26171Y-31264D01*
X26305Y-31398D01*
X26479Y-31470D01*
X26668Y-31471D01*
X26843Y-31398D01*
X26977Y-31265D01*
X27049Y-31090D01*
X27049Y-30901D01*
X27049Y-31901D01*
X26977Y-31727D01*
X26844Y-31593D01*
X26669Y-31521D01*
X26480Y-31520D01*
X26306Y-31593D01*
X26172Y-31726D01*
X26099Y-31901D01*
X26099Y-32090D01*
X26171Y-32264D01*
X26305Y-32398D01*
X26479Y-32470D01*
X26668Y-32471D01*
X26843Y-32398D01*
X26977Y-32265D01*
X27049Y-32090D01*
X27049Y-31901D01*
X27049Y-32901D01*
X26977Y-32727D01*
X26844Y-32593D01*
X26669Y-32521D01*
X26480Y-32520D01*
X26306Y-32593D01*
X26172Y-32726D01*
X26099Y-32901D01*
X26099Y-33090D01*
X26171Y-33264D01*
X26305Y-33398D01*
X26479Y-33470D01*
X26668Y-33471D01*
X26843Y-33398D01*
X26977Y-33265D01*
X27049Y-33090D01*
X27049Y-32901D01*
X27049Y-33901D01*
X26977Y-33727D01*
X26844Y-33593D01*
X26669Y-33521D01*
X26480Y-33520D01*
X26306Y-33593D01*
X26172Y-33726D01*
X26099Y-33901D01*
X26099Y-34090D01*
X26171Y-34264D01*
X26305Y-34398D01*
X26479Y-34470D01*
X26668Y-34471D01*
X26843Y-34398D01*
X26977Y-34265D01*
X27049Y-34090D01*
X27049Y-33901D01*
X27049Y-34901D01*
X26977Y-34727D01*
X26844Y-34593D01*
X26669Y-34521D01*
X26480Y-34520D01*
X26306Y-34593D01*
X26172Y-34726D01*
X26099Y-34901D01*
X26099Y-35090D01*
X26139Y-35186D01*
X25725Y-35186D01*
X25725Y-29635D01*
X25675Y-29516D01*
X25609Y-29449D01*
X25675Y-29384D01*
X25724Y-29264D01*
X25725Y-29135D01*
X25675Y-29016D01*
X25609Y-28949D01*
X25675Y-28884D01*
X25724Y-28764D01*
X25725Y-28635D01*
X25675Y-28516D01*
X25609Y-28449D01*
X25675Y-28384D01*
X25724Y-28264D01*
X25725Y-28135D01*
X25675Y-28016D01*
X25609Y-27949D01*
X25675Y-27884D01*
X25724Y-27764D01*
X25725Y-27635D01*
X25675Y-27516D01*
X25609Y-27449D01*
X25675Y-27384D01*
X25724Y-27264D01*
X25725Y-27135D01*
X25675Y-27016D01*
X25609Y-26949D01*
X25675Y-26884D01*
X25724Y-26764D01*
X25725Y-26635D01*
X25675Y-26516D01*
X25609Y-26449D01*
X25675Y-26384D01*
X25724Y-26264D01*
X25725Y-26135D01*
X25675Y-26016D01*
X25609Y-25949D01*
X25675Y-25884D01*
X25724Y-25764D01*
X25725Y-25635D01*
X25675Y-25516D01*
X25609Y-25449D01*
X25675Y-25384D01*
X25724Y-25264D01*
X25725Y-25135D01*
X25675Y-25016D01*
X25609Y-24949D01*
X25675Y-24884D01*
X25724Y-24764D01*
X25725Y-24635D01*
X25675Y-24516D01*
X25584Y-24424D01*
X25464Y-24375D01*
X25335Y-24374D01*
X25216Y-24424D01*
X25124Y-24515D01*
X25075Y-24635D01*
X25074Y-24764D01*
X25124Y-24883D01*
X25190Y-24950D01*
X25124Y-25015D01*
X25075Y-25135D01*
X25074Y-25264D01*
X25124Y-25383D01*
X25190Y-25450D01*
X25124Y-25515D01*
X25075Y-25635D01*
X25074Y-25764D01*
X25124Y-25883D01*
X25190Y-25950D01*
X25124Y-26015D01*
X25075Y-26135D01*
X25074Y-26264D01*
X25124Y-26383D01*
X25190Y-26450D01*
X25124Y-26515D01*
X25075Y-26635D01*
X25074Y-26764D01*
X25124Y-26883D01*
X25190Y-26950D01*
X25124Y-27015D01*
X25075Y-27135D01*
X25074Y-27264D01*
X25124Y-27383D01*
X25190Y-27450D01*
X25124Y-27515D01*
X25075Y-27635D01*
X25074Y-27764D01*
X25124Y-27883D01*
X25190Y-27950D01*
X25124Y-28015D01*
X25075Y-28135D01*
X25074Y-28264D01*
X25124Y-28383D01*
X25190Y-28450D01*
X25124Y-28515D01*
X25075Y-28635D01*
X25074Y-28764D01*
X25124Y-28883D01*
X25190Y-28950D01*
X25124Y-29015D01*
X25075Y-29135D01*
X25074Y-29264D01*
X25124Y-29383D01*
X25190Y-29450D01*
X25124Y-29515D01*
X25075Y-29635D01*
X25074Y-29764D01*
X25124Y-29883D01*
X25215Y-29975D01*
X25335Y-30024D01*
X25464Y-30025D01*
X25583Y-29975D01*
X25675Y-29884D01*
X25724Y-29764D01*
X25725Y-29635D01*
X25725Y-35186D01*
X24097Y-35186D01*
X24097Y-32214D01*
X24024Y-32040D01*
X24022Y-32037D01*
X24022Y-23989D01*
X23961Y-23842D01*
X23848Y-23730D01*
X23701Y-23669D01*
X23542Y-23668D01*
X23395Y-23729D01*
X23283Y-23842D01*
X23222Y-23989D01*
X23221Y-24148D01*
X23282Y-24295D01*
X23395Y-24407D01*
X23542Y-24468D01*
X23701Y-24469D01*
X23848Y-24408D01*
X23960Y-24295D01*
X24021Y-24148D01*
X24022Y-23989D01*
X24022Y-32037D01*
X23891Y-31906D01*
X23716Y-31834D01*
X23527Y-31833D01*
X23353Y-31906D01*
X23219Y-32039D01*
X23147Y-32214D01*
X23146Y-32403D01*
X23219Y-32577D01*
X23352Y-32711D01*
X23527Y-32783D01*
X23716Y-32784D01*
X23890Y-32711D01*
X24024Y-32578D01*
X24096Y-32403D01*
X24097Y-32214D01*
X24097Y-35186D01*
X22145Y-35186D01*
X22145Y-29635D01*
X22095Y-29516D01*
X22019Y-29439D01*
X22095Y-29364D01*
X22144Y-29244D01*
X22145Y-29115D01*
X22095Y-28996D01*
X22029Y-28929D01*
X22095Y-28864D01*
X22144Y-28744D01*
X22145Y-28615D01*
X22095Y-28496D01*
X22029Y-28429D01*
X22075Y-28384D01*
X22124Y-28264D01*
X22125Y-28135D01*
X22075Y-28016D01*
X22009Y-27949D01*
X22075Y-27884D01*
X22124Y-27764D01*
X22125Y-27635D01*
X22075Y-27516D01*
X21997Y-27438D01*
X22086Y-27349D01*
X22135Y-27230D01*
X22136Y-27100D01*
X22086Y-26981D01*
X22034Y-26929D01*
X22086Y-26877D01*
X22135Y-26757D01*
X22136Y-26628D01*
X22086Y-26509D01*
X22014Y-26436D01*
X22086Y-26365D01*
X22135Y-26246D01*
X22136Y-26116D01*
X22086Y-25997D01*
X22014Y-25925D01*
X22086Y-25853D01*
X22135Y-25734D01*
X22136Y-25604D01*
X22086Y-25485D01*
X22034Y-25433D01*
X22086Y-25381D01*
X22135Y-25261D01*
X22136Y-25132D01*
X22086Y-25012D01*
X22014Y-24940D01*
X22086Y-24869D01*
X22135Y-24749D01*
X22136Y-24620D01*
X22086Y-24501D01*
X21995Y-24409D01*
X21875Y-24360D01*
X21746Y-24359D01*
X21627Y-24409D01*
X21535Y-24500D01*
X21486Y-24620D01*
X21485Y-24749D01*
X21535Y-24868D01*
X21607Y-24940D01*
X21535Y-25012D01*
X21486Y-25131D01*
X21485Y-25261D01*
X21535Y-25380D01*
X21587Y-25433D01*
X21535Y-25484D01*
X21486Y-25604D01*
X21485Y-25733D01*
X21535Y-25853D01*
X21607Y-25925D01*
X21535Y-25996D01*
X21486Y-26116D01*
X21485Y-26245D01*
X21535Y-26364D01*
X21607Y-26437D01*
X21535Y-26508D01*
X21486Y-26627D01*
X21485Y-26757D01*
X21535Y-26876D01*
X21587Y-26929D01*
X21535Y-26981D01*
X21486Y-27100D01*
X21485Y-27229D01*
X21535Y-27349D01*
X21613Y-27427D01*
X21524Y-27515D01*
X21475Y-27635D01*
X21474Y-27764D01*
X21524Y-27883D01*
X21590Y-27950D01*
X21524Y-28015D01*
X21475Y-28135D01*
X21474Y-28264D01*
X21524Y-28383D01*
X21590Y-28450D01*
X21544Y-28495D01*
X21495Y-28615D01*
X21494Y-28744D01*
X21544Y-28863D01*
X21610Y-28930D01*
X21544Y-28995D01*
X21495Y-29115D01*
X21494Y-29244D01*
X21544Y-29363D01*
X21620Y-29440D01*
X21544Y-29515D01*
X21495Y-29635D01*
X21494Y-29764D01*
X21544Y-29883D01*
X21590Y-29930D01*
X21524Y-29995D01*
X21475Y-30115D01*
X21474Y-30244D01*
X21524Y-30363D01*
X21600Y-30440D01*
X21524Y-30515D01*
X21475Y-30635D01*
X21474Y-30764D01*
X21524Y-30883D01*
X21615Y-30975D01*
X21735Y-31024D01*
X21864Y-31025D01*
X21983Y-30975D01*
X22075Y-30884D01*
X22124Y-30764D01*
X22125Y-30635D01*
X22075Y-30516D01*
X21999Y-30439D01*
X22075Y-30364D01*
X22124Y-30244D01*
X22125Y-30115D01*
X22075Y-29996D01*
X22029Y-29949D01*
X22095Y-29884D01*
X22144Y-29764D01*
X22145Y-29635D01*
X22145Y-35186D01*
X21104Y-35186D01*
X21144Y-35090D01*
X21144Y-34901D01*
X21144Y-33901D01*
X21144Y-32901D01*
X21144Y-31901D01*
X21144Y-30901D01*
X21144Y-29901D01*
X21144Y-28901D01*
X21144Y-27901D01*
X21072Y-27727D01*
X20938Y-27593D01*
X20855Y-27559D01*
X20938Y-27524D01*
X21071Y-27391D01*
X21144Y-27216D01*
X21144Y-27027D01*
X21144Y-26027D01*
X21144Y-25027D01*
X21144Y-24027D01*
X21144Y-23027D01*
X21144Y-22027D01*
X21144Y-21027D01*
X21072Y-20853D01*
X20938Y-20719D01*
X20764Y-20647D01*
X20575Y-20646D01*
X20400Y-20719D01*
X20266Y-20852D01*
X20194Y-21027D01*
X20194Y-21216D01*
X20266Y-21390D01*
X20399Y-21524D01*
X20574Y-21596D01*
X20763Y-21597D01*
X20938Y-21524D01*
X21071Y-21391D01*
X21144Y-21216D01*
X21144Y-21027D01*
X21144Y-22027D01*
X21072Y-21853D01*
X20938Y-21719D01*
X20764Y-21647D01*
X20575Y-21646D01*
X20400Y-21719D01*
X20266Y-21852D01*
X20194Y-22027D01*
X20194Y-22216D01*
X20266Y-22390D01*
X20399Y-22524D01*
X20574Y-22596D01*
X20763Y-22597D01*
X20938Y-22524D01*
X21071Y-22391D01*
X21144Y-22216D01*
X21144Y-22027D01*
X21144Y-23027D01*
X21072Y-22853D01*
X20938Y-22719D01*
X20764Y-22647D01*
X20575Y-22646D01*
X20400Y-22719D01*
X20266Y-22852D01*
X20194Y-23027D01*
X20194Y-23216D01*
X20266Y-23390D01*
X20399Y-23524D01*
X20574Y-23596D01*
X20763Y-23597D01*
X20938Y-23524D01*
X21071Y-23391D01*
X21144Y-23216D01*
X21144Y-23027D01*
X21144Y-24027D01*
X21072Y-23853D01*
X20938Y-23719D01*
X20764Y-23647D01*
X20575Y-23646D01*
X20400Y-23719D01*
X20266Y-23852D01*
X20194Y-24027D01*
X20194Y-24216D01*
X20266Y-24390D01*
X20399Y-24524D01*
X20574Y-24596D01*
X20763Y-24597D01*
X20938Y-24524D01*
X21071Y-24391D01*
X21144Y-24216D01*
X21144Y-24027D01*
X21144Y-25027D01*
X21072Y-24853D01*
X20938Y-24719D01*
X20764Y-24647D01*
X20575Y-24646D01*
X20400Y-24719D01*
X20266Y-24852D01*
X20194Y-25027D01*
X20194Y-25216D01*
X20266Y-25390D01*
X20399Y-25524D01*
X20574Y-25596D01*
X20763Y-25597D01*
X20938Y-25524D01*
X21071Y-25391D01*
X21144Y-25216D01*
X21144Y-25027D01*
X21144Y-26027D01*
X21072Y-25853D01*
X20938Y-25719D01*
X20764Y-25647D01*
X20575Y-25646D01*
X20400Y-25719D01*
X20266Y-25852D01*
X20194Y-26027D01*
X20194Y-26216D01*
X20266Y-26390D01*
X20399Y-26524D01*
X20574Y-26596D01*
X20763Y-26597D01*
X20938Y-26524D01*
X21071Y-26391D01*
X21144Y-26216D01*
X21144Y-26027D01*
X21144Y-27027D01*
X21072Y-26853D01*
X20938Y-26719D01*
X20764Y-26647D01*
X20575Y-26646D01*
X20400Y-26719D01*
X20266Y-26852D01*
X20194Y-27027D01*
X20194Y-27216D01*
X20266Y-27390D01*
X20399Y-27524D01*
X20483Y-27559D01*
X20400Y-27593D01*
X20266Y-27726D01*
X20194Y-27901D01*
X20194Y-28090D01*
X20266Y-28264D01*
X20399Y-28398D01*
X20574Y-28470D01*
X20763Y-28471D01*
X20938Y-28398D01*
X21071Y-28265D01*
X21144Y-28090D01*
X21144Y-27901D01*
X21144Y-28901D01*
X21072Y-28727D01*
X20938Y-28593D01*
X20764Y-28521D01*
X20575Y-28520D01*
X20400Y-28593D01*
X20266Y-28726D01*
X20194Y-28901D01*
X20194Y-29090D01*
X20266Y-29264D01*
X20399Y-29398D01*
X20574Y-29470D01*
X20763Y-29471D01*
X20938Y-29398D01*
X21071Y-29265D01*
X21144Y-29090D01*
X21144Y-28901D01*
X21144Y-29901D01*
X21072Y-29727D01*
X20938Y-29593D01*
X20764Y-29521D01*
X20575Y-29520D01*
X20400Y-29593D01*
X20266Y-29726D01*
X20194Y-29901D01*
X20194Y-30090D01*
X20266Y-30264D01*
X20399Y-30398D01*
X20574Y-30470D01*
X20763Y-30471D01*
X20938Y-30398D01*
X21071Y-30265D01*
X21144Y-30090D01*
X21144Y-29901D01*
X21144Y-30901D01*
X21072Y-30727D01*
X20938Y-30593D01*
X20764Y-30521D01*
X20575Y-30520D01*
X20400Y-30593D01*
X20266Y-30726D01*
X20194Y-30901D01*
X20194Y-31090D01*
X20266Y-31264D01*
X20399Y-31398D01*
X20574Y-31470D01*
X20763Y-31471D01*
X20938Y-31398D01*
X21071Y-31265D01*
X21144Y-31090D01*
X21144Y-30901D01*
X21144Y-31901D01*
X21072Y-31727D01*
X20938Y-31593D01*
X20764Y-31521D01*
X20575Y-31520D01*
X20400Y-31593D01*
X20266Y-31726D01*
X20194Y-31901D01*
X20194Y-32090D01*
X20266Y-32264D01*
X20399Y-32398D01*
X20574Y-32470D01*
X20763Y-32471D01*
X20938Y-32398D01*
X21071Y-32265D01*
X21144Y-32090D01*
X21144Y-31901D01*
X21144Y-32901D01*
X21072Y-32727D01*
X20938Y-32593D01*
X20764Y-32521D01*
X20575Y-32520D01*
X20400Y-32593D01*
X20266Y-32726D01*
X20194Y-32901D01*
X20194Y-33090D01*
X20266Y-33264D01*
X20399Y-33398D01*
X20574Y-33470D01*
X20763Y-33471D01*
X20938Y-33398D01*
X21071Y-33265D01*
X21144Y-33090D01*
X21144Y-32901D01*
X21144Y-33901D01*
X21072Y-33727D01*
X20938Y-33593D01*
X20764Y-33521D01*
X20575Y-33520D01*
X20400Y-33593D01*
X20266Y-33726D01*
X20194Y-33901D01*
X20194Y-34090D01*
X20266Y-34264D01*
X20399Y-34398D01*
X20574Y-34470D01*
X20763Y-34471D01*
X20938Y-34398D01*
X21071Y-34265D01*
X21144Y-34090D01*
X21144Y-33901D01*
X21144Y-34901D01*
X21072Y-34727D01*
X20938Y-34593D01*
X20764Y-34521D01*
X20575Y-34520D01*
X20400Y-34593D01*
X20266Y-34726D01*
X20194Y-34901D01*
X20194Y-35090D01*
X20233Y-35186D01*
X19931Y-35186D01*
X19931Y-19931D01*
X20233Y-19931D01*
X20194Y-20027D01*
X20194Y-20216D01*
X20266Y-20390D01*
X20399Y-20524D01*
X20574Y-20596D01*
X20763Y-20597D01*
X20938Y-20524D01*
X21071Y-20391D01*
X21144Y-20216D01*
X21144Y-20027D01*
X21104Y-19931D01*
X26139Y-19931D01*
X26099Y-20027D01*
X26099Y-20216D01*
X26171Y-20390D01*
X26305Y-20524D01*
X26479Y-20596D01*
X26668Y-20597D01*
X26843Y-20524D01*
X26977Y-20391D01*
X27049Y-20216D01*
X27049Y-20027D01*
X27010Y-19931D01*
X28107Y-19931D01*
X28068Y-20027D01*
X28068Y-20216D01*
X28140Y-20390D01*
X28273Y-20524D01*
X28448Y-20596D01*
X28637Y-20597D01*
X28812Y-20524D01*
X28945Y-20391D01*
X29018Y-20216D01*
X29018Y-20027D01*
X28978Y-19931D01*
X34013Y-19931D01*
X33973Y-20027D01*
X33973Y-20216D01*
X34045Y-20390D01*
X34179Y-20524D01*
X34353Y-20596D01*
X34542Y-20597D01*
X34717Y-20524D01*
X34851Y-20391D01*
X34923Y-20216D01*
X34923Y-20027D01*
X34884Y-19931D01*
X35186Y-19931D01*
X35186Y-35186D01*
X35186Y-35186D01*
G37*
G54D14*
X35186Y-35186D02*
X34884Y-35186D01*
X34923Y-35090D01*
X34923Y-34901D01*
X34923Y-33901D01*
X34923Y-32901D01*
X34923Y-31901D01*
X34923Y-30901D01*
X34923Y-29901D01*
X34923Y-28901D01*
X34923Y-27901D01*
X34851Y-27727D01*
X34718Y-27593D01*
X34635Y-27559D01*
X34717Y-27524D01*
X34851Y-27391D01*
X34923Y-27216D01*
X34923Y-27027D01*
X34923Y-26027D01*
X34923Y-25027D01*
X34923Y-24027D01*
X34923Y-23027D01*
X34923Y-22027D01*
X34923Y-21027D01*
X34851Y-20853D01*
X34718Y-20719D01*
X34543Y-20647D01*
X34354Y-20646D01*
X34180Y-20719D01*
X34046Y-20852D01*
X33973Y-21027D01*
X33973Y-21216D01*
X34045Y-21390D01*
X34179Y-21524D01*
X34353Y-21596D01*
X34542Y-21597D01*
X34717Y-21524D01*
X34851Y-21391D01*
X34923Y-21216D01*
X34923Y-21027D01*
X34923Y-22027D01*
X34851Y-21853D01*
X34718Y-21719D01*
X34543Y-21647D01*
X34354Y-21646D01*
X34180Y-21719D01*
X34046Y-21852D01*
X33973Y-22027D01*
X33973Y-22216D01*
X34045Y-22390D01*
X34179Y-22524D01*
X34353Y-22596D01*
X34542Y-22597D01*
X34717Y-22524D01*
X34851Y-22391D01*
X34923Y-22216D01*
X34923Y-22027D01*
X34923Y-23027D01*
X34851Y-22853D01*
X34718Y-22719D01*
X34543Y-22647D01*
X34354Y-22646D01*
X34180Y-22719D01*
X34046Y-22852D01*
X33973Y-23027D01*
X33973Y-23216D01*
X34045Y-23390D01*
X34179Y-23524D01*
X34353Y-23596D01*
X34542Y-23597D01*
X34717Y-23524D01*
X34851Y-23391D01*
X34923Y-23216D01*
X34923Y-23027D01*
X34923Y-24027D01*
X34851Y-23853D01*
X34718Y-23719D01*
X34543Y-23647D01*
X34354Y-23646D01*
X34180Y-23719D01*
X34046Y-23852D01*
X33973Y-24027D01*
X33973Y-24216D01*
X34045Y-24390D01*
X34179Y-24524D01*
X34353Y-24596D01*
X34542Y-24597D01*
X34717Y-24524D01*
X34851Y-24391D01*
X34923Y-24216D01*
X34923Y-24027D01*
X34923Y-25027D01*
X34851Y-24853D01*
X34718Y-24719D01*
X34543Y-24647D01*
X34354Y-24646D01*
X34180Y-24719D01*
X34046Y-24852D01*
X33973Y-25027D01*
X33973Y-25216D01*
X34045Y-25390D01*
X34179Y-25524D01*
X34353Y-25596D01*
X34542Y-25597D01*
X34717Y-25524D01*
X34851Y-25391D01*
X34923Y-25216D01*
X34923Y-25027D01*
X34923Y-26027D01*
X34851Y-25853D01*
X34718Y-25719D01*
X34543Y-25647D01*
X34354Y-25646D01*
X34180Y-25719D01*
X34046Y-25852D01*
X33973Y-26027D01*
X33973Y-26216D01*
X34045Y-26390D01*
X34179Y-26524D01*
X34353Y-26596D01*
X34542Y-26597D01*
X34717Y-26524D01*
X34851Y-26391D01*
X34923Y-26216D01*
X34923Y-26027D01*
X34923Y-27027D01*
X34851Y-26853D01*
X34718Y-26719D01*
X34543Y-26647D01*
X34354Y-26646D01*
X34180Y-26719D01*
X34046Y-26852D01*
X33973Y-27027D01*
X33973Y-27216D01*
X34045Y-27390D01*
X34179Y-27524D01*
X34262Y-27559D01*
X34180Y-27593D01*
X34046Y-27726D01*
X33973Y-27901D01*
X33973Y-28090D01*
X34045Y-28264D01*
X34179Y-28398D01*
X34353Y-28470D01*
X34542Y-28471D01*
X34717Y-28398D01*
X34851Y-28265D01*
X34923Y-28090D01*
X34923Y-27901D01*
X34923Y-28901D01*
X34851Y-28727D01*
X34718Y-28593D01*
X34543Y-28521D01*
X34354Y-28520D01*
X34180Y-28593D01*
X34046Y-28726D01*
X33973Y-28901D01*
X33973Y-29090D01*
X34045Y-29264D01*
X34179Y-29398D01*
X34353Y-29470D01*
X34542Y-29471D01*
X34717Y-29398D01*
X34851Y-29265D01*
X34923Y-29090D01*
X34923Y-28901D01*
X34923Y-29901D01*
X34851Y-29727D01*
X34718Y-29593D01*
X34543Y-29521D01*
X34354Y-29520D01*
X34180Y-29593D01*
X34046Y-29726D01*
X33973Y-29901D01*
X33973Y-30090D01*
X34045Y-30264D01*
X34179Y-30398D01*
X34353Y-30470D01*
X34542Y-30471D01*
X34717Y-30398D01*
X34851Y-30265D01*
X34923Y-30090D01*
X34923Y-29901D01*
X34923Y-30901D01*
X34851Y-30727D01*
X34718Y-30593D01*
X34543Y-30521D01*
X34354Y-30520D01*
X34180Y-30593D01*
X34046Y-30726D01*
X33973Y-30901D01*
X33973Y-31090D01*
X34045Y-31264D01*
X34179Y-31398D01*
X34353Y-31470D01*
X34542Y-31471D01*
X34717Y-31398D01*
X34851Y-31265D01*
X34923Y-31090D01*
X34923Y-30901D01*
X34923Y-31901D01*
X34851Y-31727D01*
X34718Y-31593D01*
X34543Y-31521D01*
X34354Y-31520D01*
X34180Y-31593D01*
X34046Y-31726D01*
X33973Y-31901D01*
X33973Y-32090D01*
X34045Y-32264D01*
X34179Y-32398D01*
X34353Y-32470D01*
X34542Y-32471D01*
X34717Y-32398D01*
X34851Y-32265D01*
X34923Y-32090D01*
X34923Y-31901D01*
X34923Y-32901D01*
X34851Y-32727D01*
X34718Y-32593D01*
X34543Y-32521D01*
X34354Y-32520D01*
X34180Y-32593D01*
X34046Y-32726D01*
X33973Y-32901D01*
X33973Y-33090D01*
X34045Y-33264D01*
X34179Y-33398D01*
X34353Y-33470D01*
X34542Y-33471D01*
X34717Y-33398D01*
X34851Y-33265D01*
X34923Y-33090D01*
X34923Y-32901D01*
X34923Y-33901D01*
X34851Y-33727D01*
X34718Y-33593D01*
X34543Y-33521D01*
X34354Y-33520D01*
X34180Y-33593D01*
X34046Y-33726D01*
X33973Y-33901D01*
X33973Y-34090D01*
X34045Y-34264D01*
X34179Y-34398D01*
X34353Y-34470D01*
X34542Y-34471D01*
X34717Y-34398D01*
X34851Y-34265D01*
X34923Y-34090D01*
X34923Y-33901D01*
X34923Y-34901D01*
X34851Y-34727D01*
X34718Y-34593D01*
X34543Y-34521D01*
X34354Y-34520D01*
X34180Y-34593D01*
X34046Y-34726D01*
X33973Y-34901D01*
X33973Y-35090D01*
X34013Y-35186D01*
X33725Y-35186D01*
X33725Y-29635D01*
X33675Y-29516D01*
X33609Y-29449D01*
X33675Y-29384D01*
X33724Y-29264D01*
X33725Y-29135D01*
X33675Y-29016D01*
X33584Y-28924D01*
X33549Y-28910D01*
X33575Y-28884D01*
X33624Y-28764D01*
X33625Y-28635D01*
X33575Y-28516D01*
X33509Y-28449D01*
X33575Y-28384D01*
X33624Y-28264D01*
X33625Y-28135D01*
X33575Y-28016D01*
X33509Y-27949D01*
X33575Y-27884D01*
X33624Y-27764D01*
X33625Y-27635D01*
X33575Y-27516D01*
X33509Y-27449D01*
X33575Y-27384D01*
X33624Y-27264D01*
X33625Y-27135D01*
X33575Y-27016D01*
X33509Y-26949D01*
X33575Y-26884D01*
X33624Y-26764D01*
X33625Y-26635D01*
X33575Y-26516D01*
X33509Y-26449D01*
X33575Y-26384D01*
X33624Y-26264D01*
X33625Y-26135D01*
X33575Y-26016D01*
X33509Y-25949D01*
X33575Y-25884D01*
X33624Y-25764D01*
X33625Y-25635D01*
X33575Y-25516D01*
X33509Y-25449D01*
X33575Y-25384D01*
X33624Y-25264D01*
X33625Y-25135D01*
X33575Y-25016D01*
X33509Y-24949D01*
X33575Y-24884D01*
X33624Y-24764D01*
X33625Y-24635D01*
X33575Y-24516D01*
X33484Y-24424D01*
X33364Y-24375D01*
X33235Y-24374D01*
X33116Y-24424D01*
X33024Y-24515D01*
X32975Y-24635D01*
X32974Y-24764D01*
X33024Y-24883D01*
X33090Y-24950D01*
X33024Y-25015D01*
X32975Y-25135D01*
X32974Y-25264D01*
X33024Y-25383D01*
X33090Y-25450D01*
X33024Y-25515D01*
X32975Y-25635D01*
X32974Y-25764D01*
X33024Y-25883D01*
X33090Y-25950D01*
X33024Y-26015D01*
X32975Y-26135D01*
X32974Y-26264D01*
X33024Y-26383D01*
X33090Y-26450D01*
X33024Y-26515D01*
X32975Y-26635D01*
X32974Y-26764D01*
X33024Y-26883D01*
X33090Y-26950D01*
X33024Y-27015D01*
X32975Y-27135D01*
X32974Y-27264D01*
X33024Y-27383D01*
X33090Y-27450D01*
X33024Y-27515D01*
X32975Y-27635D01*
X32974Y-27764D01*
X33024Y-27883D01*
X33090Y-27950D01*
X33024Y-28015D01*
X32975Y-28135D01*
X32974Y-28264D01*
X33024Y-28383D01*
X33090Y-28450D01*
X33024Y-28515D01*
X32975Y-28635D01*
X32974Y-28764D01*
X33024Y-28883D01*
X33115Y-28975D01*
X33150Y-28989D01*
X33124Y-29015D01*
X33075Y-29135D01*
X33074Y-29264D01*
X33124Y-29383D01*
X33190Y-29450D01*
X33124Y-29515D01*
X33075Y-29635D01*
X33074Y-29764D01*
X33124Y-29883D01*
X33215Y-29975D01*
X33335Y-30024D01*
X33464Y-30025D01*
X33583Y-29975D01*
X33675Y-29884D01*
X33724Y-29764D01*
X33725Y-29635D01*
X33725Y-35186D01*
X32698Y-35186D01*
X32698Y-24016D01*
X32649Y-23896D01*
X32557Y-23805D01*
X32438Y-23755D01*
X32309Y-23755D01*
X32189Y-23804D01*
X32098Y-23896D01*
X32048Y-24015D01*
X32048Y-24145D01*
X32097Y-24264D01*
X32189Y-24356D01*
X32308Y-24405D01*
X32438Y-24405D01*
X32557Y-24356D01*
X32649Y-24265D01*
X32698Y-24145D01*
X32698Y-24016D01*
X32698Y-35186D01*
X31971Y-35186D01*
X31971Y-32214D01*
X31898Y-32040D01*
X31896Y-32037D01*
X31896Y-23989D01*
X31835Y-23842D01*
X31722Y-23730D01*
X31575Y-23669D01*
X31416Y-23668D01*
X31269Y-23729D01*
X31157Y-23842D01*
X31096Y-23989D01*
X31095Y-24148D01*
X31156Y-24295D01*
X31269Y-24407D01*
X31416Y-24468D01*
X31575Y-24469D01*
X31722Y-24408D01*
X31834Y-24295D01*
X31895Y-24148D01*
X31896Y-23989D01*
X31896Y-32037D01*
X31765Y-31906D01*
X31590Y-31834D01*
X31401Y-31833D01*
X31227Y-31906D01*
X31093Y-32039D01*
X31021Y-32214D01*
X31020Y-32403D01*
X31093Y-32577D01*
X31226Y-32711D01*
X31401Y-32783D01*
X31590Y-32784D01*
X31764Y-32711D01*
X31898Y-32578D01*
X31970Y-32403D01*
X31971Y-32214D01*
X31971Y-35186D01*
X30025Y-35186D01*
X30025Y-30635D01*
X29975Y-30516D01*
X29909Y-30449D01*
X29975Y-30384D01*
X30024Y-30264D01*
X30025Y-30135D01*
X29975Y-30016D01*
X29909Y-29949D01*
X29975Y-29884D01*
X30024Y-29764D01*
X30025Y-29635D01*
X29975Y-29516D01*
X29909Y-29449D01*
X29975Y-29384D01*
X30024Y-29264D01*
X30025Y-29135D01*
X29975Y-29016D01*
X29909Y-28949D01*
X29975Y-28884D01*
X30024Y-28764D01*
X30025Y-28635D01*
X29975Y-28516D01*
X29909Y-28449D01*
X29975Y-28384D01*
X30024Y-28264D01*
X30025Y-28135D01*
X29975Y-28016D01*
X29909Y-27949D01*
X29975Y-27884D01*
X30024Y-27764D01*
X30025Y-27635D01*
X29975Y-27516D01*
X29909Y-27449D01*
X29975Y-27384D01*
X30024Y-27264D01*
X30025Y-27135D01*
X29975Y-27016D01*
X29909Y-26949D01*
X29975Y-26884D01*
X30024Y-26764D01*
X30025Y-26635D01*
X29975Y-26516D01*
X29909Y-26449D01*
X29975Y-26384D01*
X30024Y-26264D01*
X30025Y-26135D01*
X29975Y-26016D01*
X29909Y-25949D01*
X29975Y-25884D01*
X30024Y-25764D01*
X30025Y-25635D01*
X29975Y-25516D01*
X29909Y-25449D01*
X29975Y-25384D01*
X30024Y-25264D01*
X30025Y-25135D01*
X29975Y-25016D01*
X29909Y-24949D01*
X29975Y-24884D01*
X30024Y-24764D01*
X30025Y-24635D01*
X29975Y-24516D01*
X29884Y-24424D01*
X29764Y-24375D01*
X29635Y-24374D01*
X29516Y-24424D01*
X29424Y-24515D01*
X29375Y-24635D01*
X29374Y-24764D01*
X29424Y-24883D01*
X29490Y-24950D01*
X29424Y-25015D01*
X29375Y-25135D01*
X29374Y-25264D01*
X29424Y-25383D01*
X29490Y-25450D01*
X29424Y-25515D01*
X29375Y-25635D01*
X29374Y-25764D01*
X29424Y-25883D01*
X29490Y-25950D01*
X29424Y-26015D01*
X29375Y-26135D01*
X29374Y-26264D01*
X29424Y-26383D01*
X29490Y-26450D01*
X29424Y-26515D01*
X29375Y-26635D01*
X29374Y-26764D01*
X29424Y-26883D01*
X29490Y-26950D01*
X29424Y-27015D01*
X29375Y-27135D01*
X29374Y-27264D01*
X29424Y-27383D01*
X29490Y-27450D01*
X29424Y-27515D01*
X29375Y-27635D01*
X29374Y-27764D01*
X29424Y-27883D01*
X29490Y-27950D01*
X29424Y-28015D01*
X29375Y-28135D01*
X29374Y-28264D01*
X29424Y-28383D01*
X29490Y-28450D01*
X29424Y-28515D01*
X29375Y-28635D01*
X29374Y-28764D01*
X29424Y-28883D01*
X29490Y-28950D01*
X29424Y-29015D01*
X29375Y-29135D01*
X29374Y-29264D01*
X29424Y-29383D01*
X29490Y-29450D01*
X29424Y-29515D01*
X29375Y-29635D01*
X29374Y-29764D01*
X29424Y-29883D01*
X29490Y-29950D01*
X29424Y-30015D01*
X29375Y-30135D01*
X29374Y-30264D01*
X29424Y-30383D01*
X29490Y-30450D01*
X29424Y-30515D01*
X29375Y-30635D01*
X29374Y-30764D01*
X29424Y-30883D01*
X29515Y-30975D01*
X29635Y-31024D01*
X29764Y-31025D01*
X29883Y-30975D01*
X29975Y-30884D01*
X30024Y-30764D01*
X30025Y-30635D01*
X30025Y-35186D01*
X28978Y-35186D01*
X29018Y-35090D01*
X29018Y-34901D01*
X29018Y-33901D01*
X29018Y-32901D01*
X29018Y-31901D01*
X29018Y-30901D01*
X29018Y-29901D01*
X29018Y-28901D01*
X29018Y-27901D01*
X28946Y-27727D01*
X28812Y-27593D01*
X28729Y-27559D01*
X28812Y-27524D01*
X28945Y-27391D01*
X29018Y-27216D01*
X29018Y-27027D01*
X29018Y-26027D01*
X29018Y-25027D01*
X29018Y-24027D01*
X29018Y-23027D01*
X29018Y-22027D01*
X29018Y-21027D01*
X28946Y-20853D01*
X28812Y-20719D01*
X28638Y-20647D01*
X28449Y-20646D01*
X28274Y-20719D01*
X28140Y-20852D01*
X28068Y-21027D01*
X28068Y-21216D01*
X28140Y-21390D01*
X28273Y-21524D01*
X28448Y-21596D01*
X28637Y-21597D01*
X28812Y-21524D01*
X28945Y-21391D01*
X29018Y-21216D01*
X29018Y-21027D01*
X29018Y-22027D01*
X28946Y-21853D01*
X28812Y-21719D01*
X28638Y-21647D01*
X28449Y-21646D01*
X28274Y-21719D01*
X28140Y-21852D01*
X28068Y-22027D01*
X28068Y-22216D01*
X28140Y-22390D01*
X28273Y-22524D01*
X28448Y-22596D01*
X28637Y-22597D01*
X28812Y-22524D01*
X28945Y-22391D01*
X29018Y-22216D01*
X29018Y-22027D01*
X29018Y-23027D01*
X28946Y-22853D01*
X28812Y-22719D01*
X28638Y-22647D01*
X28449Y-22646D01*
X28274Y-22719D01*
X28140Y-22852D01*
X28068Y-23027D01*
X28068Y-23216D01*
X28140Y-23390D01*
X28273Y-23524D01*
X28448Y-23596D01*
X28637Y-23597D01*
X28812Y-23524D01*
X28945Y-23391D01*
X29018Y-23216D01*
X29018Y-23027D01*
X29018Y-24027D01*
X28946Y-23853D01*
X28812Y-23719D01*
X28638Y-23647D01*
X28449Y-23646D01*
X28274Y-23719D01*
X28140Y-23852D01*
X28068Y-24027D01*
X28068Y-24216D01*
X28140Y-24390D01*
X28273Y-24524D01*
X28448Y-24596D01*
X28637Y-24597D01*
X28812Y-24524D01*
X28945Y-24391D01*
X29018Y-24216D01*
X29018Y-24027D01*
X29018Y-25027D01*
X28946Y-24853D01*
X28812Y-24719D01*
X28638Y-24647D01*
X28449Y-24646D01*
X28274Y-24719D01*
X28140Y-24852D01*
X28068Y-25027D01*
X28068Y-25216D01*
X28140Y-25390D01*
X28273Y-25524D01*
X28448Y-25596D01*
X28637Y-25597D01*
X28812Y-25524D01*
X28945Y-25391D01*
X29018Y-25216D01*
X29018Y-25027D01*
X29018Y-26027D01*
X28946Y-25853D01*
X28812Y-25719D01*
X28638Y-25647D01*
X28449Y-25646D01*
X28274Y-25719D01*
X28140Y-25852D01*
X28068Y-26027D01*
X28068Y-26216D01*
X28140Y-26390D01*
X28273Y-26524D01*
X28448Y-26596D01*
X28637Y-26597D01*
X28812Y-26524D01*
X28945Y-26391D01*
X29018Y-26216D01*
X29018Y-26027D01*
X29018Y-27027D01*
X28946Y-26853D01*
X28812Y-26719D01*
X28638Y-26647D01*
X28449Y-26646D01*
X28274Y-26719D01*
X28140Y-26852D01*
X28068Y-27027D01*
X28068Y-27216D01*
X28140Y-27390D01*
X28273Y-27524D01*
X28357Y-27559D01*
X28274Y-27593D01*
X28140Y-27726D01*
X28068Y-27901D01*
X28068Y-28090D01*
X28140Y-28264D01*
X28273Y-28398D01*
X28448Y-28470D01*
X28637Y-28471D01*
X28812Y-28398D01*
X28945Y-28265D01*
X29018Y-28090D01*
X29018Y-27901D01*
X29018Y-28901D01*
X28946Y-28727D01*
X28812Y-28593D01*
X28638Y-28521D01*
X28449Y-28520D01*
X28274Y-28593D01*
X28140Y-28726D01*
X28068Y-28901D01*
X28068Y-29090D01*
X28140Y-29264D01*
X28273Y-29398D01*
X28448Y-29470D01*
X28637Y-29471D01*
X28812Y-29398D01*
X28945Y-29265D01*
X29018Y-29090D01*
X29018Y-28901D01*
X29018Y-29901D01*
X28946Y-29727D01*
X28812Y-29593D01*
X28638Y-29521D01*
X28449Y-29520D01*
X28274Y-29593D01*
X28140Y-29726D01*
X28068Y-29901D01*
X28068Y-30090D01*
X28140Y-30264D01*
X28273Y-30398D01*
X28448Y-30470D01*
X28637Y-30471D01*
X28812Y-30398D01*
X28945Y-30265D01*
X29018Y-30090D01*
X29018Y-29901D01*
X29018Y-30901D01*
X28946Y-30727D01*
X28812Y-30593D01*
X28638Y-30521D01*
X28449Y-30520D01*
X28274Y-30593D01*
X28140Y-30726D01*
X28068Y-30901D01*
X28068Y-31090D01*
X28140Y-31264D01*
X28273Y-31398D01*
X28448Y-31470D01*
X28637Y-31471D01*
X28812Y-31398D01*
X28945Y-31265D01*
X29018Y-31090D01*
X29018Y-30901D01*
X29018Y-31901D01*
X28946Y-31727D01*
X28812Y-31593D01*
X28638Y-31521D01*
X28449Y-31520D01*
X28274Y-31593D01*
X28140Y-31726D01*
X28068Y-31901D01*
X28068Y-32090D01*
X28140Y-32264D01*
X28273Y-32398D01*
X28448Y-32470D01*
X28637Y-32471D01*
X28812Y-32398D01*
X28945Y-32265D01*
X29018Y-32090D01*
X29018Y-31901D01*
X29018Y-32901D01*
X28946Y-32727D01*
X28812Y-32593D01*
X28638Y-32521D01*
X28449Y-32520D01*
X28274Y-32593D01*
X28140Y-32726D01*
X28068Y-32901D01*
X28068Y-33090D01*
X28140Y-33264D01*
X28273Y-33398D01*
X28448Y-33470D01*
X28637Y-33471D01*
X28812Y-33398D01*
X28945Y-33265D01*
X29018Y-33090D01*
X29018Y-32901D01*
X29018Y-33901D01*
X28946Y-33727D01*
X28812Y-33593D01*
X28638Y-33521D01*
X28449Y-33520D01*
X28274Y-33593D01*
X28140Y-33726D01*
X28068Y-33901D01*
X28068Y-34090D01*
X28140Y-34264D01*
X28273Y-34398D01*
X28448Y-34470D01*
X28637Y-34471D01*
X28812Y-34398D01*
X28945Y-34265D01*
X29018Y-34090D01*
X29018Y-33901D01*
X29018Y-34901D01*
X28946Y-34727D01*
X28812Y-34593D01*
X28638Y-34521D01*
X28449Y-34520D01*
X28274Y-34593D01*
X28140Y-34726D01*
X28068Y-34901D01*
X28068Y-35090D01*
X28107Y-35186D01*
X27010Y-35186D01*
X27049Y-35090D01*
X27049Y-34901D01*
X27049Y-33901D01*
X27049Y-32901D01*
X27049Y-31901D01*
X27049Y-30901D01*
X27049Y-29901D01*
X27049Y-28901D01*
X27049Y-27901D01*
X26977Y-27727D01*
X26844Y-27593D01*
X26761Y-27559D01*
X26843Y-27524D01*
X26977Y-27391D01*
X27049Y-27216D01*
X27049Y-27027D01*
X27049Y-26027D01*
X27049Y-25027D01*
X27049Y-24027D01*
X27049Y-23027D01*
X27049Y-22027D01*
X27049Y-21027D01*
X26977Y-20853D01*
X26844Y-20719D01*
X26669Y-20647D01*
X26480Y-20646D01*
X26306Y-20719D01*
X26172Y-20852D01*
X26099Y-21027D01*
X26099Y-21216D01*
X26171Y-21390D01*
X26305Y-21524D01*
X26479Y-21596D01*
X26668Y-21597D01*
X26843Y-21524D01*
X26977Y-21391D01*
X27049Y-21216D01*
X27049Y-21027D01*
X27049Y-22027D01*
X26977Y-21853D01*
X26844Y-21719D01*
X26669Y-21647D01*
X26480Y-21646D01*
X26306Y-21719D01*
X26172Y-21852D01*
X26099Y-22027D01*
X26099Y-22216D01*
X26171Y-22390D01*
X26305Y-22524D01*
X26479Y-22596D01*
X26668Y-22597D01*
X26843Y-22524D01*
X26977Y-22391D01*
X27049Y-22216D01*
X27049Y-22027D01*
X27049Y-23027D01*
X26977Y-22853D01*
X26844Y-22719D01*
X26669Y-22647D01*
X26480Y-22646D01*
X26306Y-22719D01*
X26172Y-22852D01*
X26099Y-23027D01*
X26099Y-23216D01*
X26171Y-23390D01*
X26305Y-23524D01*
X26479Y-23596D01*
X26668Y-23597D01*
X26843Y-23524D01*
X26977Y-23391D01*
X27049Y-23216D01*
X27049Y-23027D01*
X27049Y-24027D01*
X26977Y-23853D01*
X26844Y-23719D01*
X26669Y-23647D01*
X26480Y-23646D01*
X26306Y-23719D01*
X26172Y-23852D01*
X26099Y-24027D01*
X26099Y-24216D01*
X26171Y-24390D01*
X26305Y-24524D01*
X26479Y-24596D01*
X26668Y-24597D01*
X26843Y-24524D01*
X26977Y-24391D01*
X27049Y-24216D01*
X27049Y-24027D01*
X27049Y-25027D01*
X26977Y-24853D01*
X26844Y-24719D01*
X26669Y-24647D01*
X26480Y-24646D01*
X26306Y-24719D01*
X26172Y-24852D01*
X26099Y-25027D01*
X26099Y-25216D01*
X26171Y-25390D01*
X26305Y-25524D01*
X26479Y-25596D01*
X26668Y-25597D01*
X26843Y-25524D01*
X26977Y-25391D01*
X27049Y-25216D01*
X27049Y-25027D01*
X27049Y-26027D01*
X26977Y-25853D01*
X26844Y-25719D01*
X26669Y-25647D01*
X26480Y-25646D01*
X26306Y-25719D01*
X26172Y-25852D01*
X26099Y-26027D01*
X26099Y-26216D01*
X26171Y-26390D01*
X26305Y-26524D01*
X26479Y-26596D01*
X26668Y-26597D01*
X26843Y-26524D01*
X26977Y-26391D01*
X27049Y-26216D01*
X27049Y-26027D01*
X27049Y-27027D01*
X26977Y-26853D01*
X26844Y-26719D01*
X26669Y-26647D01*
X26480Y-26646D01*
X26306Y-26719D01*
X26172Y-26852D01*
X26099Y-27027D01*
X26099Y-27216D01*
X26171Y-27390D01*
X26305Y-27524D01*
X26388Y-27559D01*
X26306Y-27593D01*
X26172Y-27726D01*
X26099Y-27901D01*
X26099Y-28090D01*
X26171Y-28264D01*
X26305Y-28398D01*
X26479Y-28470D01*
X26668Y-28471D01*
X26843Y-28398D01*
X26977Y-28265D01*
X27049Y-28090D01*
X27049Y-27901D01*
X27049Y-28901D01*
X26977Y-28727D01*
X26844Y-28593D01*
X26669Y-28521D01*
X26480Y-28520D01*
X26306Y-28593D01*
X26172Y-28726D01*
X26099Y-28901D01*
X26099Y-29090D01*
X26171Y-29264D01*
X26305Y-29398D01*
X26479Y-29470D01*
X26668Y-29471D01*
X26843Y-29398D01*
X26977Y-29265D01*
X27049Y-29090D01*
X27049Y-28901D01*
X27049Y-29901D01*
X26977Y-29727D01*
X26844Y-29593D01*
X26669Y-29521D01*
X26480Y-29520D01*
X26306Y-29593D01*
X26172Y-29726D01*
X26099Y-29901D01*
X26099Y-30090D01*
X26171Y-30264D01*
X26305Y-30398D01*
X26479Y-30470D01*
X26668Y-30471D01*
X26843Y-30398D01*
X26977Y-30265D01*
X27049Y-30090D01*
X27049Y-29901D01*
X27049Y-30901D01*
X26977Y-30727D01*
X26844Y-30593D01*
X26669Y-30521D01*
X26480Y-30520D01*
X26306Y-30593D01*
X26172Y-30726D01*
X26099Y-30901D01*
X26099Y-31090D01*
X26171Y-31264D01*
X26305Y-31398D01*
X26479Y-31470D01*
X26668Y-31471D01*
X26843Y-31398D01*
X26977Y-31265D01*
X27049Y-31090D01*
X27049Y-30901D01*
X27049Y-31901D01*
X26977Y-31727D01*
X26844Y-31593D01*
X26669Y-31521D01*
X26480Y-31520D01*
X26306Y-31593D01*
X26172Y-31726D01*
X26099Y-31901D01*
X26099Y-32090D01*
X26171Y-32264D01*
X26305Y-32398D01*
X26479Y-32470D01*
X26668Y-32471D01*
X26843Y-32398D01*
X26977Y-32265D01*
X27049Y-32090D01*
X27049Y-31901D01*
X27049Y-32901D01*
X26977Y-32727D01*
X26844Y-32593D01*
X26669Y-32521D01*
X26480Y-32520D01*
X26306Y-32593D01*
X26172Y-32726D01*
X26099Y-32901D01*
X26099Y-33090D01*
X26171Y-33264D01*
X26305Y-33398D01*
X26479Y-33470D01*
X26668Y-33471D01*
X26843Y-33398D01*
X26977Y-33265D01*
X27049Y-33090D01*
X27049Y-32901D01*
X27049Y-33901D01*
X26977Y-33727D01*
X26844Y-33593D01*
X26669Y-33521D01*
X26480Y-33520D01*
X26306Y-33593D01*
X26172Y-33726D01*
X26099Y-33901D01*
X26099Y-34090D01*
X26171Y-34264D01*
X26305Y-34398D01*
X26479Y-34470D01*
X26668Y-34471D01*
X26843Y-34398D01*
X26977Y-34265D01*
X27049Y-34090D01*
X27049Y-33901D01*
X27049Y-34901D01*
X26977Y-34727D01*
X26844Y-34593D01*
X26669Y-34521D01*
X26480Y-34520D01*
X26306Y-34593D01*
X26172Y-34726D01*
X26099Y-34901D01*
X26099Y-35090D01*
X26139Y-35186D01*
X25725Y-35186D01*
X25725Y-29635D01*
X25675Y-29516D01*
X25609Y-29449D01*
X25675Y-29384D01*
X25724Y-29264D01*
X25725Y-29135D01*
X25675Y-29016D01*
X25609Y-28949D01*
X25675Y-28884D01*
X25724Y-28764D01*
X25725Y-28635D01*
X25675Y-28516D01*
X25609Y-28449D01*
X25675Y-28384D01*
X25724Y-28264D01*
X25725Y-28135D01*
X25675Y-28016D01*
X25609Y-27949D01*
X25675Y-27884D01*
X25724Y-27764D01*
X25725Y-27635D01*
X25675Y-27516D01*
X25609Y-27449D01*
X25675Y-27384D01*
X25724Y-27264D01*
X25725Y-27135D01*
X25675Y-27016D01*
X25609Y-26949D01*
X25675Y-26884D01*
X25724Y-26764D01*
X25725Y-26635D01*
X25675Y-26516D01*
X25609Y-26449D01*
X25675Y-26384D01*
X25724Y-26264D01*
X25725Y-26135D01*
X25675Y-26016D01*
X25609Y-25949D01*
X25675Y-25884D01*
X25724Y-25764D01*
X25725Y-25635D01*
X25675Y-25516D01*
X25609Y-25449D01*
X25675Y-25384D01*
X25724Y-25264D01*
X25725Y-25135D01*
X25675Y-25016D01*
X25609Y-24949D01*
X25675Y-24884D01*
X25724Y-24764D01*
X25725Y-24635D01*
X25675Y-24516D01*
X25584Y-24424D01*
X25464Y-24375D01*
X25335Y-24374D01*
X25216Y-24424D01*
X25124Y-24515D01*
X25075Y-24635D01*
X25074Y-24764D01*
X25124Y-24883D01*
X25190Y-24950D01*
X25124Y-25015D01*
X25075Y-25135D01*
X25074Y-25264D01*
X25124Y-25383D01*
X25190Y-25450D01*
X25124Y-25515D01*
X25075Y-25635D01*
X25074Y-25764D01*
X25124Y-25883D01*
X25190Y-25950D01*
X25124Y-26015D01*
X25075Y-26135D01*
X25074Y-26264D01*
X25124Y-26383D01*
X25190Y-26450D01*
X25124Y-26515D01*
X25075Y-26635D01*
X25074Y-26764D01*
X25124Y-26883D01*
X25190Y-26950D01*
X25124Y-27015D01*
X25075Y-27135D01*
X25074Y-27264D01*
X25124Y-27383D01*
X25190Y-27450D01*
X25124Y-27515D01*
X25075Y-27635D01*
X25074Y-27764D01*
X25124Y-27883D01*
X25190Y-27950D01*
X25124Y-28015D01*
X25075Y-28135D01*
X25074Y-28264D01*
X25124Y-28383D01*
X25190Y-28450D01*
X25124Y-28515D01*
X25075Y-28635D01*
X25074Y-28764D01*
X25124Y-28883D01*
X25190Y-28950D01*
X25124Y-29015D01*
X25075Y-29135D01*
X25074Y-29264D01*
X25124Y-29383D01*
X25190Y-29450D01*
X25124Y-29515D01*
X25075Y-29635D01*
X25074Y-29764D01*
X25124Y-29883D01*
X25215Y-29975D01*
X25335Y-30024D01*
X25464Y-30025D01*
X25583Y-29975D01*
X25675Y-29884D01*
X25724Y-29764D01*
X25725Y-29635D01*
X25725Y-35186D01*
X24097Y-35186D01*
X24097Y-32214D01*
X24024Y-32040D01*
X24022Y-32037D01*
X24022Y-23989D01*
X23961Y-23842D01*
X23848Y-23730D01*
X23701Y-23669D01*
X23542Y-23668D01*
X23395Y-23729D01*
X23283Y-23842D01*
X23222Y-23989D01*
X23221Y-24148D01*
X23282Y-24295D01*
X23395Y-24407D01*
X23542Y-24468D01*
X23701Y-24469D01*
X23848Y-24408D01*
X23960Y-24295D01*
X24021Y-24148D01*
X24022Y-23989D01*
X24022Y-32037D01*
X23891Y-31906D01*
X23716Y-31834D01*
X23527Y-31833D01*
X23353Y-31906D01*
X23219Y-32039D01*
X23147Y-32214D01*
X23146Y-32403D01*
X23219Y-32577D01*
X23352Y-32711D01*
X23527Y-32783D01*
X23716Y-32784D01*
X23890Y-32711D01*
X24024Y-32578D01*
X24096Y-32403D01*
X24097Y-32214D01*
X24097Y-35186D01*
X22145Y-35186D01*
X22145Y-29635D01*
X22095Y-29516D01*
X22019Y-29439D01*
X22095Y-29364D01*
X22144Y-29244D01*
X22145Y-29115D01*
X22095Y-28996D01*
X22029Y-28929D01*
X22095Y-28864D01*
X22144Y-28744D01*
X22145Y-28615D01*
X22095Y-28496D01*
X22029Y-28429D01*
X22075Y-28384D01*
X22124Y-28264D01*
X22125Y-28135D01*
X22075Y-28016D01*
X22009Y-27949D01*
X22075Y-27884D01*
X22124Y-27764D01*
X22125Y-27635D01*
X22075Y-27516D01*
X21997Y-27438D01*
X22086Y-27349D01*
X22135Y-27230D01*
X22136Y-27100D01*
X22086Y-26981D01*
X22034Y-26929D01*
X22086Y-26877D01*
X22135Y-26757D01*
X22136Y-26628D01*
X22086Y-26509D01*
X22014Y-26436D01*
X22086Y-26365D01*
X22135Y-26246D01*
X22136Y-26116D01*
X22086Y-25997D01*
X22014Y-25925D01*
X22086Y-25853D01*
X22135Y-25734D01*
X22136Y-25604D01*
X22086Y-25485D01*
X22034Y-25433D01*
X22086Y-25381D01*
X22135Y-25261D01*
X22136Y-25132D01*
X22086Y-25012D01*
X22014Y-24940D01*
X22086Y-24869D01*
X22135Y-24749D01*
X22136Y-24620D01*
X22086Y-24501D01*
X21995Y-24409D01*
X21875Y-24360D01*
X21746Y-24359D01*
X21627Y-24409D01*
X21535Y-24500D01*
X21486Y-24620D01*
X21485Y-24749D01*
X21535Y-24868D01*
X21607Y-24940D01*
X21535Y-25012D01*
X21486Y-25131D01*
X21485Y-25261D01*
X21535Y-25380D01*
X21587Y-25433D01*
X21535Y-25484D01*
X21486Y-25604D01*
X21485Y-25733D01*
X21535Y-25853D01*
X21607Y-25925D01*
X21535Y-25996D01*
X21486Y-26116D01*
X21485Y-26245D01*
X21535Y-26364D01*
X21607Y-26437D01*
X21535Y-26508D01*
X21486Y-26627D01*
X21485Y-26757D01*
X21535Y-26876D01*
X21587Y-26929D01*
X21535Y-26981D01*
X21486Y-27100D01*
X21485Y-27229D01*
X21535Y-27349D01*
X21613Y-27427D01*
X21524Y-27515D01*
X21475Y-27635D01*
X21474Y-27764D01*
X21524Y-27883D01*
X21590Y-27950D01*
X21524Y-28015D01*
X21475Y-28135D01*
X21474Y-28264D01*
X21524Y-28383D01*
X21590Y-28450D01*
X21544Y-28495D01*
X21495Y-28615D01*
X21494Y-28744D01*
X21544Y-28863D01*
X21610Y-28930D01*
X21544Y-28995D01*
X21495Y-29115D01*
X21494Y-29244D01*
X21544Y-29363D01*
X21620Y-29440D01*
X21544Y-29515D01*
X21495Y-29635D01*
X21494Y-29764D01*
X21544Y-29883D01*
X21590Y-29930D01*
X21524Y-29995D01*
X21475Y-30115D01*
X21474Y-30244D01*
X21524Y-30363D01*
X21600Y-30440D01*
X21524Y-30515D01*
X21475Y-30635D01*
X21474Y-30764D01*
X21524Y-30883D01*
X21615Y-30975D01*
X21735Y-31024D01*
X21864Y-31025D01*
X21983Y-30975D01*
X22075Y-30884D01*
X22124Y-30764D01*
X22125Y-30635D01*
X22075Y-30516D01*
X21999Y-30439D01*
X22075Y-30364D01*
X22124Y-30244D01*
X22125Y-30115D01*
X22075Y-29996D01*
X22029Y-29949D01*
X22095Y-29884D01*
X22144Y-29764D01*
X22145Y-29635D01*
X22145Y-35186D01*
X21104Y-35186D01*
X21144Y-35090D01*
X21144Y-34901D01*
X21144Y-33901D01*
X21144Y-32901D01*
X21144Y-31901D01*
X21144Y-30901D01*
X21144Y-29901D01*
X21144Y-28901D01*
X21144Y-27901D01*
X21072Y-27727D01*
X20938Y-27593D01*
X20855Y-27559D01*
X20938Y-27524D01*
X21071Y-27391D01*
X21144Y-27216D01*
X21144Y-27027D01*
X21144Y-26027D01*
X21144Y-25027D01*
X21144Y-24027D01*
X21144Y-23027D01*
X21144Y-22027D01*
X21144Y-21027D01*
X21072Y-20853D01*
X20938Y-20719D01*
X20764Y-20647D01*
X20575Y-20646D01*
X20400Y-20719D01*
X20266Y-20852D01*
X20194Y-21027D01*
X20194Y-21216D01*
X20266Y-21390D01*
X20399Y-21524D01*
X20574Y-21596D01*
X20763Y-21597D01*
X20938Y-21524D01*
X21071Y-21391D01*
X21144Y-21216D01*
X21144Y-21027D01*
X21144Y-22027D01*
X21072Y-21853D01*
X20938Y-21719D01*
X20764Y-21647D01*
X20575Y-21646D01*
X20400Y-21719D01*
X20266Y-21852D01*
X20194Y-22027D01*
X20194Y-22216D01*
X20266Y-22390D01*
X20399Y-22524D01*
X20574Y-22596D01*
X20763Y-22597D01*
X20938Y-22524D01*
X21071Y-22391D01*
X21144Y-22216D01*
X21144Y-22027D01*
X21144Y-23027D01*
X21072Y-22853D01*
X20938Y-22719D01*
X20764Y-22647D01*
X20575Y-22646D01*
X20400Y-22719D01*
X20266Y-22852D01*
X20194Y-23027D01*
X20194Y-23216D01*
X20266Y-23390D01*
X20399Y-23524D01*
X20574Y-23596D01*
X20763Y-23597D01*
X20938Y-23524D01*
X21071Y-23391D01*
X21144Y-23216D01*
X21144Y-23027D01*
X21144Y-24027D01*
X21072Y-23853D01*
X20938Y-23719D01*
X20764Y-23647D01*
X20575Y-23646D01*
X20400Y-23719D01*
X20266Y-23852D01*
X20194Y-24027D01*
X20194Y-24216D01*
X20266Y-24390D01*
X20399Y-24524D01*
X20574Y-24596D01*
X20763Y-24597D01*
X20938Y-24524D01*
X21071Y-24391D01*
X21144Y-24216D01*
X21144Y-24027D01*
X21144Y-25027D01*
X21072Y-24853D01*
X20938Y-24719D01*
X20764Y-24647D01*
X20575Y-24646D01*
X20400Y-24719D01*
X20266Y-24852D01*
X20194Y-25027D01*
X20194Y-25216D01*
X20266Y-25390D01*
X20399Y-25524D01*
X20574Y-25596D01*
X20763Y-25597D01*
X20938Y-25524D01*
X21071Y-25391D01*
X21144Y-25216D01*
X21144Y-25027D01*
X21144Y-26027D01*
X21072Y-25853D01*
X20938Y-25719D01*
X20764Y-25647D01*
X20575Y-25646D01*
X20400Y-25719D01*
X20266Y-25852D01*
X20194Y-26027D01*
X20194Y-26216D01*
X20266Y-26390D01*
X20399Y-26524D01*
X20574Y-26596D01*
X20763Y-26597D01*
X20938Y-26524D01*
X21071Y-26391D01*
X21144Y-26216D01*
X21144Y-26027D01*
X21144Y-27027D01*
X21072Y-26853D01*
X20938Y-26719D01*
X20764Y-26647D01*
X20575Y-26646D01*
X20400Y-26719D01*
X20266Y-26852D01*
X20194Y-27027D01*
X20194Y-27216D01*
X20266Y-27390D01*
X20399Y-27524D01*
X20483Y-27559D01*
X20400Y-27593D01*
X20266Y-27726D01*
X20194Y-27901D01*
X20194Y-28090D01*
X20266Y-28264D01*
X20399Y-28398D01*
X20574Y-28470D01*
X20763Y-28471D01*
X20938Y-28398D01*
X21071Y-28265D01*
X21144Y-28090D01*
X21144Y-27901D01*
X21144Y-28901D01*
X21072Y-28727D01*
X20938Y-28593D01*
X20764Y-28521D01*
X20575Y-28520D01*
X20400Y-28593D01*
X20266Y-28726D01*
X20194Y-28901D01*
X20194Y-29090D01*
X20266Y-29264D01*
X20399Y-29398D01*
X20574Y-29470D01*
X20763Y-29471D01*
X20938Y-29398D01*
X21071Y-29265D01*
X21144Y-29090D01*
X21144Y-28901D01*
X21144Y-29901D01*
X21072Y-29727D01*
X20938Y-29593D01*
X20764Y-29521D01*
X20575Y-29520D01*
X20400Y-29593D01*
X20266Y-29726D01*
X20194Y-29901D01*
X20194Y-30090D01*
X20266Y-30264D01*
X20399Y-30398D01*
X20574Y-30470D01*
X20763Y-30471D01*
X20938Y-30398D01*
X21071Y-30265D01*
X21144Y-30090D01*
X21144Y-29901D01*
X21144Y-30901D01*
X21072Y-30727D01*
X20938Y-30593D01*
X20764Y-30521D01*
X20575Y-30520D01*
X20400Y-30593D01*
X20266Y-30726D01*
X20194Y-30901D01*
X20194Y-31090D01*
X20266Y-31264D01*
X20399Y-31398D01*
X20574Y-31470D01*
X20763Y-31471D01*
X20938Y-31398D01*
X21071Y-31265D01*
X21144Y-31090D01*
X21144Y-30901D01*
X21144Y-31901D01*
X21072Y-31727D01*
X20938Y-31593D01*
X20764Y-31521D01*
X20575Y-31520D01*
X20400Y-31593D01*
X20266Y-31726D01*
X20194Y-31901D01*
X20194Y-32090D01*
X20266Y-32264D01*
X20399Y-32398D01*
X20574Y-32470D01*
X20763Y-32471D01*
X20938Y-32398D01*
X21071Y-32265D01*
X21144Y-32090D01*
X21144Y-31901D01*
X21144Y-32901D01*
X21072Y-32727D01*
X20938Y-32593D01*
X20764Y-32521D01*
X20575Y-32520D01*
X20400Y-32593D01*
X20266Y-32726D01*
X20194Y-32901D01*
X20194Y-33090D01*
X20266Y-33264D01*
X20399Y-33398D01*
X20574Y-33470D01*
X20763Y-33471D01*
X20938Y-33398D01*
X21071Y-33265D01*
X21144Y-33090D01*
X21144Y-32901D01*
X21144Y-33901D01*
X21072Y-33727D01*
X20938Y-33593D01*
X20764Y-33521D01*
X20575Y-33520D01*
X20400Y-33593D01*
X20266Y-33726D01*
X20194Y-33901D01*
X20194Y-34090D01*
X20266Y-34264D01*
X20399Y-34398D01*
X20574Y-34470D01*
X20763Y-34471D01*
X20938Y-34398D01*
X21071Y-34265D01*
X21144Y-34090D01*
X21144Y-33901D01*
X21144Y-34901D01*
X21072Y-34727D01*
X20938Y-34593D01*
X20764Y-34521D01*
X20575Y-34520D01*
X20400Y-34593D01*
X20266Y-34726D01*
X20194Y-34901D01*
X20194Y-35090D01*
X20233Y-35186D01*
X19931Y-35186D01*
X19931Y-19931D01*
X20233Y-19931D01*
X20194Y-20027D01*
X20194Y-20216D01*
X20266Y-20390D01*
X20399Y-20524D01*
X20574Y-20596D01*
X20763Y-20597D01*
X20938Y-20524D01*
X21071Y-20391D01*
X21144Y-20216D01*
X21144Y-20027D01*
X21104Y-19931D01*
X26139Y-19931D01*
X26099Y-20027D01*
X26099Y-20216D01*
X26171Y-20390D01*
X26305Y-20524D01*
X26479Y-20596D01*
X26668Y-20597D01*
X26843Y-20524D01*
X26977Y-20391D01*
X27049Y-20216D01*
X27049Y-20027D01*
X27010Y-19931D01*
X28107Y-19931D01*
X28068Y-20027D01*
X28068Y-20216D01*
X28140Y-20390D01*
X28273Y-20524D01*
X28448Y-20596D01*
X28637Y-20597D01*
X28812Y-20524D01*
X28945Y-20391D01*
X29018Y-20216D01*
X29018Y-20027D01*
X28978Y-19931D01*
X34013Y-19931D01*
X33973Y-20027D01*
X33973Y-20216D01*
X34045Y-20390D01*
X34179Y-20524D01*
X34353Y-20596D01*
X34542Y-20597D01*
X34717Y-20524D01*
X34851Y-20391D01*
X34923Y-20216D01*
X34923Y-20027D01*
X34884Y-19931D01*
X35186Y-19931D01*
X35186Y-35186D01*
M02*
