G04 (created by PCBNEW (2013-mar-13)-testing) date Tue 20 Aug 2013 10:34:20 AM PDT*
%MOIN*%
G04 Gerber Fmt 3.4, Leading zero omitted, Abs format*
%FSLAX34Y34*%
G01*
G70*
G90*
G04 APERTURE LIST*
%ADD10C,0.005906*%
%ADD11C,0.065000*%
%ADD12R,0.083000X0.026000*%
%ADD13C,0.050000*%
%ADD14C,0.035000*%
%ADD15C,0.010000*%
G04 APERTURE END LIST*
G54D10*
G54D11*
X20669Y-20122D03*
X20669Y-21122D03*
X20669Y-22122D03*
X20669Y-23122D03*
X20669Y-24122D03*
X20669Y-25122D03*
X20669Y-26122D03*
X20669Y-27122D03*
X26574Y-27122D03*
X26574Y-26122D03*
X26574Y-25122D03*
X26574Y-24122D03*
X26574Y-23122D03*
X26574Y-22122D03*
X26574Y-21122D03*
X26574Y-20122D03*
X20669Y-27996D03*
X20669Y-28996D03*
X20669Y-29996D03*
X20669Y-30996D03*
X20669Y-31996D03*
X20669Y-32996D03*
X20669Y-33996D03*
X20669Y-34996D03*
X26574Y-34996D03*
X26574Y-33996D03*
X26574Y-32996D03*
X26574Y-31996D03*
X26574Y-30996D03*
X26574Y-29996D03*
X26574Y-28996D03*
X26574Y-27996D03*
X28543Y-20122D03*
X28543Y-21122D03*
X28543Y-22122D03*
X28543Y-23122D03*
X28543Y-24122D03*
X28543Y-25122D03*
X28543Y-26122D03*
X28543Y-27122D03*
X34448Y-27122D03*
X34448Y-26122D03*
X34448Y-25122D03*
X34448Y-24122D03*
X34448Y-23122D03*
X34448Y-22122D03*
X34448Y-21122D03*
X34448Y-20122D03*
X28543Y-27996D03*
X28543Y-28996D03*
X28543Y-29996D03*
X28543Y-30996D03*
X28543Y-31996D03*
X28543Y-32996D03*
X28543Y-33996D03*
X28543Y-34996D03*
X34448Y-34996D03*
X34448Y-33996D03*
X34448Y-32996D03*
X34448Y-31996D03*
X34448Y-30996D03*
X34448Y-29996D03*
X34448Y-28996D03*
X34448Y-27996D03*
G54D12*
X24332Y-24688D03*
X22912Y-24688D03*
X24332Y-25188D03*
X22912Y-25188D03*
X24332Y-25688D03*
X22912Y-25688D03*
X24332Y-26188D03*
X22912Y-26188D03*
X24332Y-26688D03*
X22912Y-26688D03*
X24332Y-27188D03*
X22912Y-27188D03*
X24332Y-27688D03*
X22912Y-27688D03*
X24332Y-28188D03*
X22912Y-28188D03*
X24332Y-28688D03*
X22912Y-28688D03*
X24332Y-29188D03*
X22912Y-29188D03*
X24332Y-29688D03*
X22912Y-29688D03*
X24332Y-30188D03*
X22912Y-30188D03*
X24332Y-30688D03*
X22912Y-30688D03*
X24332Y-31188D03*
X22912Y-31188D03*
X24332Y-31688D03*
X22912Y-31688D03*
G54D13*
X23622Y-24068D03*
G54D11*
X23622Y-32308D03*
G54D12*
X32206Y-24688D03*
X30786Y-24688D03*
X32206Y-25188D03*
X30786Y-25188D03*
X32206Y-25688D03*
X30786Y-25688D03*
X32206Y-26188D03*
X30786Y-26188D03*
X32206Y-26688D03*
X30786Y-26688D03*
X32206Y-27188D03*
X30786Y-27188D03*
X32206Y-27688D03*
X30786Y-27688D03*
X32206Y-28188D03*
X30786Y-28188D03*
X32206Y-28688D03*
X30786Y-28688D03*
X32206Y-29188D03*
X30786Y-29188D03*
X32206Y-29688D03*
X30786Y-29688D03*
X32206Y-30188D03*
X30786Y-30188D03*
X32206Y-30688D03*
X30786Y-30688D03*
X32206Y-31188D03*
X30786Y-31188D03*
X32206Y-31688D03*
X30786Y-31688D03*
G54D13*
X31496Y-24068D03*
G54D11*
X31496Y-32308D03*
G54D14*
X25400Y-28700D03*
X21800Y-27700D03*
X21811Y-27165D03*
X21811Y-26692D03*
X21811Y-26181D03*
X21811Y-25669D03*
X21811Y-25196D03*
X21811Y-24685D03*
X25400Y-29200D03*
X25400Y-29700D03*
X21800Y-30700D03*
X21800Y-30180D03*
X21820Y-29700D03*
X21820Y-29180D03*
X21820Y-28680D03*
X21800Y-28200D03*
X33300Y-28700D03*
X29700Y-27700D03*
X29700Y-27200D03*
X29700Y-26700D03*
X29700Y-26200D03*
X32373Y-24080D03*
X29700Y-25700D03*
X29700Y-25200D03*
X29700Y-24700D03*
X33400Y-29200D03*
X33400Y-29700D03*
X29700Y-30700D03*
X29700Y-30200D03*
X29700Y-29700D03*
X29700Y-29200D03*
X29700Y-28700D03*
X29700Y-28200D03*
X25400Y-24700D03*
X25400Y-25200D03*
X25400Y-25700D03*
X25400Y-26200D03*
X25400Y-26700D03*
X25400Y-27200D03*
X25400Y-27700D03*
X25400Y-28200D03*
X33300Y-24700D03*
X33300Y-25200D03*
X33300Y-25700D03*
X33300Y-26200D03*
X33300Y-26700D03*
X33300Y-27200D03*
X33300Y-27700D03*
X33300Y-28200D03*
X25400Y-31700D03*
X33400Y-31700D03*
G54D15*
X25388Y-28688D02*
X25400Y-28700D01*
X24332Y-28688D02*
X25388Y-28688D01*
X21811Y-27688D02*
X21800Y-27700D01*
X22912Y-27688D02*
X21811Y-27688D01*
X21834Y-27188D02*
X21811Y-27165D01*
X22912Y-27188D02*
X21834Y-27188D01*
X21814Y-26688D02*
X21811Y-26692D01*
X22912Y-26688D02*
X21814Y-26688D01*
X21214Y-34451D02*
X20669Y-34996D01*
X21214Y-34451D02*
X21214Y-34451D01*
X21214Y-27289D02*
X21214Y-34451D01*
X21811Y-26692D02*
X21214Y-27289D01*
X21818Y-26188D02*
X21811Y-26181D01*
X22912Y-26188D02*
X21818Y-26188D01*
X22912Y-26188D02*
X23457Y-26188D01*
X25955Y-27376D02*
X26574Y-27996D01*
X25955Y-27376D02*
X25955Y-27376D01*
X25955Y-24796D02*
X25955Y-27376D01*
X25548Y-24388D02*
X25955Y-24796D01*
X23891Y-24388D02*
X25548Y-24388D01*
X23457Y-24822D02*
X23891Y-24388D01*
X23457Y-26188D02*
X23457Y-24822D01*
X21830Y-25688D02*
X21811Y-25669D01*
X22912Y-25688D02*
X21830Y-25688D01*
X21818Y-25188D02*
X21811Y-25196D01*
X22912Y-25188D02*
X21818Y-25188D01*
X21814Y-24688D02*
X21811Y-24685D01*
X22912Y-24688D02*
X21814Y-24688D01*
X25388Y-29188D02*
X25400Y-29200D01*
X24332Y-29188D02*
X25388Y-29188D01*
X25388Y-29688D02*
X25400Y-29700D01*
X24332Y-29688D02*
X25388Y-29688D01*
X21811Y-30688D02*
X21800Y-30700D01*
X22912Y-30688D02*
X21811Y-30688D01*
X21808Y-30188D02*
X21800Y-30180D01*
X22912Y-30188D02*
X21808Y-30188D01*
X21831Y-29688D02*
X21820Y-29700D01*
X22912Y-29688D02*
X21831Y-29688D01*
X21828Y-29188D02*
X21820Y-29180D01*
X22912Y-29188D02*
X21828Y-29188D01*
X21828Y-28688D02*
X21820Y-28680D01*
X22912Y-28688D02*
X21828Y-28688D01*
X21811Y-28188D02*
X21800Y-28200D01*
X22912Y-28188D02*
X21811Y-28188D01*
X33288Y-28688D02*
X33300Y-28700D01*
X32206Y-28688D02*
X33288Y-28688D01*
X29711Y-27688D02*
X29700Y-27700D01*
X30786Y-27688D02*
X29711Y-27688D01*
X28072Y-32525D02*
X28543Y-32996D01*
X28072Y-28817D02*
X28072Y-32525D01*
X28394Y-28496D02*
X28072Y-28817D01*
X28903Y-28496D02*
X28394Y-28496D01*
X29700Y-27700D02*
X28903Y-28496D01*
X29711Y-27188D02*
X29700Y-27200D01*
X30786Y-27188D02*
X29711Y-27188D01*
X29711Y-26688D02*
X29700Y-26700D01*
X30786Y-26688D02*
X29711Y-26688D01*
X29711Y-26188D02*
X29700Y-26200D01*
X30786Y-26188D02*
X29711Y-26188D01*
X33890Y-27438D02*
X34448Y-27996D01*
X33890Y-24832D02*
X33890Y-27438D01*
X33138Y-24080D02*
X33890Y-24832D01*
X32373Y-24080D02*
X33138Y-24080D01*
X29711Y-25688D02*
X29700Y-25700D01*
X30786Y-25688D02*
X29711Y-25688D01*
X29711Y-25188D02*
X29700Y-25200D01*
X30786Y-25188D02*
X29711Y-25188D01*
X29711Y-24688D02*
X29700Y-24700D01*
X30786Y-24688D02*
X29711Y-24688D01*
X33388Y-29188D02*
X33400Y-29200D01*
X32206Y-29188D02*
X33388Y-29188D01*
X33388Y-29688D02*
X33400Y-29700D01*
X32206Y-29688D02*
X33388Y-29688D01*
X29711Y-30688D02*
X29700Y-30700D01*
X30786Y-30688D02*
X29711Y-30688D01*
X29711Y-30188D02*
X29700Y-30200D01*
X30786Y-30188D02*
X29711Y-30188D01*
X29711Y-29688D02*
X29700Y-29700D01*
X30786Y-29688D02*
X29711Y-29688D01*
X29711Y-29188D02*
X29700Y-29200D01*
X30786Y-29188D02*
X29711Y-29188D01*
X29711Y-28688D02*
X29700Y-28700D01*
X30786Y-28688D02*
X29711Y-28688D01*
X30786Y-28688D02*
X31331Y-28688D01*
X31331Y-24824D02*
X31331Y-28688D01*
X32068Y-24087D02*
X31331Y-24824D01*
X32068Y-23954D02*
X32068Y-24087D01*
X32900Y-23122D02*
X32068Y-23954D01*
X34448Y-23122D02*
X32900Y-23122D01*
X29711Y-28188D02*
X29700Y-28200D01*
X30786Y-28188D02*
X29711Y-28188D01*
X29088Y-31451D02*
X28543Y-31996D01*
X29088Y-28811D02*
X29088Y-31451D01*
X29700Y-28200D02*
X29088Y-28811D01*
X25388Y-24688D02*
X25400Y-24700D01*
X24332Y-24688D02*
X25388Y-24688D01*
X25388Y-25188D02*
X25400Y-25200D01*
X24332Y-25188D02*
X25388Y-25188D01*
X25388Y-25688D02*
X25400Y-25700D01*
X24332Y-25688D02*
X25388Y-25688D01*
X25388Y-26188D02*
X25400Y-26200D01*
X24332Y-26188D02*
X25388Y-26188D01*
X25388Y-26688D02*
X25400Y-26700D01*
X24332Y-26688D02*
X25388Y-26688D01*
X25388Y-27188D02*
X25400Y-27200D01*
X24332Y-27188D02*
X25388Y-27188D01*
X25388Y-27688D02*
X25400Y-27700D01*
X24332Y-27688D02*
X25388Y-27688D01*
X25388Y-28188D02*
X25400Y-28200D01*
X24332Y-28188D02*
X25388Y-28188D01*
X33288Y-24688D02*
X33300Y-24700D01*
X32206Y-24688D02*
X33288Y-24688D01*
X33288Y-25188D02*
X33300Y-25200D01*
X32206Y-25188D02*
X33288Y-25188D01*
X33288Y-25688D02*
X33300Y-25700D01*
X32206Y-25688D02*
X33288Y-25688D01*
X33288Y-26188D02*
X33300Y-26200D01*
X32206Y-26188D02*
X33288Y-26188D01*
X33288Y-26688D02*
X33300Y-26700D01*
X32206Y-26688D02*
X33288Y-26688D01*
X33288Y-27188D02*
X33300Y-27200D01*
X32206Y-27188D02*
X33288Y-27188D01*
X33288Y-27688D02*
X33300Y-27700D01*
X32206Y-27688D02*
X33288Y-27688D01*
X33288Y-28188D02*
X33300Y-28200D01*
X32206Y-28188D02*
X33288Y-28188D01*
X25388Y-31688D02*
X25400Y-31700D01*
X24332Y-31688D02*
X25388Y-31688D01*
X33388Y-31688D02*
X33400Y-31700D01*
X32206Y-31688D02*
X33388Y-31688D01*
G54D10*
G36*
X35186Y-35186D02*
X34884Y-35186D01*
X34923Y-35090D01*
X34923Y-34901D01*
X34923Y-33901D01*
X34923Y-32901D01*
X34923Y-31901D01*
X34923Y-30901D01*
X34923Y-29901D01*
X34923Y-28901D01*
X34923Y-27901D01*
X34851Y-27727D01*
X34718Y-27593D01*
X34635Y-27559D01*
X34717Y-27524D01*
X34851Y-27391D01*
X34923Y-27216D01*
X34923Y-27027D01*
X34851Y-26853D01*
X34718Y-26719D01*
X34543Y-26647D01*
X34354Y-26646D01*
X34180Y-26719D01*
X34090Y-26808D01*
X34090Y-26435D01*
X34179Y-26524D01*
X34353Y-26596D01*
X34542Y-26597D01*
X34717Y-26524D01*
X34851Y-26391D01*
X34923Y-26216D01*
X34923Y-26027D01*
X34851Y-25853D01*
X34718Y-25719D01*
X34543Y-25647D01*
X34354Y-25646D01*
X34180Y-25719D01*
X34090Y-25808D01*
X34090Y-25435D01*
X34179Y-25524D01*
X34353Y-25596D01*
X34542Y-25597D01*
X34717Y-25524D01*
X34851Y-25391D01*
X34923Y-25216D01*
X34923Y-25027D01*
X34923Y-24027D01*
X34851Y-23853D01*
X34718Y-23719D01*
X34543Y-23647D01*
X34354Y-23646D01*
X34180Y-23719D01*
X34046Y-23852D01*
X33973Y-24027D01*
X33973Y-24216D01*
X34045Y-24390D01*
X34179Y-24524D01*
X34353Y-24596D01*
X34542Y-24597D01*
X34717Y-24524D01*
X34851Y-24391D01*
X34923Y-24216D01*
X34923Y-24027D01*
X34923Y-25027D01*
X34851Y-24853D01*
X34718Y-24719D01*
X34543Y-24647D01*
X34354Y-24646D01*
X34180Y-24719D01*
X34086Y-24812D01*
X34078Y-24768D01*
X34075Y-24756D01*
X34075Y-24756D01*
X34032Y-24691D01*
X33280Y-23939D01*
X33215Y-23895D01*
X33138Y-23880D01*
X32633Y-23880D01*
X32557Y-23805D01*
X32517Y-23788D01*
X32983Y-23322D01*
X34017Y-23322D01*
X34045Y-23390D01*
X34179Y-23524D01*
X34353Y-23596D01*
X34542Y-23597D01*
X34717Y-23524D01*
X34851Y-23391D01*
X34923Y-23216D01*
X34923Y-23027D01*
X34923Y-22027D01*
X34923Y-21027D01*
X34851Y-20853D01*
X34718Y-20719D01*
X34543Y-20647D01*
X34354Y-20646D01*
X34180Y-20719D01*
X34046Y-20852D01*
X33973Y-21027D01*
X33973Y-21216D01*
X34045Y-21390D01*
X34179Y-21524D01*
X34353Y-21596D01*
X34542Y-21597D01*
X34717Y-21524D01*
X34851Y-21391D01*
X34923Y-21216D01*
X34923Y-21027D01*
X34923Y-22027D01*
X34851Y-21853D01*
X34718Y-21719D01*
X34543Y-21647D01*
X34354Y-21646D01*
X34180Y-21719D01*
X34046Y-21852D01*
X33973Y-22027D01*
X33973Y-22216D01*
X34045Y-22390D01*
X34179Y-22524D01*
X34353Y-22596D01*
X34542Y-22597D01*
X34717Y-22524D01*
X34851Y-22391D01*
X34923Y-22216D01*
X34923Y-22027D01*
X34923Y-23027D01*
X34851Y-22853D01*
X34718Y-22719D01*
X34543Y-22647D01*
X34354Y-22646D01*
X34180Y-22719D01*
X34046Y-22852D01*
X34017Y-22922D01*
X32900Y-22922D01*
X32824Y-22937D01*
X32759Y-22980D01*
X31927Y-23812D01*
X31883Y-23877D01*
X31872Y-23933D01*
X31835Y-23842D01*
X31722Y-23730D01*
X31575Y-23669D01*
X31416Y-23668D01*
X31269Y-23729D01*
X31157Y-23842D01*
X31096Y-23989D01*
X31095Y-24148D01*
X31156Y-24295D01*
X31269Y-24407D01*
X31407Y-24465D01*
X31348Y-24523D01*
X31328Y-24474D01*
X31286Y-24431D01*
X31230Y-24408D01*
X31171Y-24408D01*
X30341Y-24408D01*
X30286Y-24431D01*
X30243Y-24474D01*
X30237Y-24488D01*
X29948Y-24488D01*
X29884Y-24424D01*
X29764Y-24375D01*
X29635Y-24374D01*
X29516Y-24424D01*
X29424Y-24515D01*
X29375Y-24635D01*
X29374Y-24764D01*
X29424Y-24883D01*
X29490Y-24950D01*
X29424Y-25015D01*
X29375Y-25135D01*
X29374Y-25264D01*
X29424Y-25383D01*
X29490Y-25450D01*
X29424Y-25515D01*
X29375Y-25635D01*
X29374Y-25764D01*
X29424Y-25883D01*
X29490Y-25950D01*
X29424Y-26015D01*
X29375Y-26135D01*
X29374Y-26264D01*
X29424Y-26383D01*
X29490Y-26450D01*
X29424Y-26515D01*
X29375Y-26635D01*
X29374Y-26764D01*
X29424Y-26883D01*
X29490Y-26950D01*
X29424Y-27015D01*
X29375Y-27135D01*
X29374Y-27264D01*
X29424Y-27383D01*
X29490Y-27450D01*
X29424Y-27515D01*
X29375Y-27635D01*
X29374Y-27742D01*
X29012Y-28104D01*
X29018Y-28090D01*
X29018Y-27901D01*
X28946Y-27727D01*
X28812Y-27593D01*
X28729Y-27559D01*
X28812Y-27524D01*
X28945Y-27391D01*
X29018Y-27216D01*
X29018Y-27027D01*
X29018Y-26027D01*
X29018Y-25027D01*
X29018Y-24027D01*
X29018Y-23027D01*
X29018Y-22027D01*
X29018Y-21027D01*
X28946Y-20853D01*
X28812Y-20719D01*
X28638Y-20647D01*
X28449Y-20646D01*
X28274Y-20719D01*
X28140Y-20852D01*
X28068Y-21027D01*
X28068Y-21216D01*
X28140Y-21390D01*
X28273Y-21524D01*
X28448Y-21596D01*
X28637Y-21597D01*
X28812Y-21524D01*
X28945Y-21391D01*
X29018Y-21216D01*
X29018Y-21027D01*
X29018Y-22027D01*
X28946Y-21853D01*
X28812Y-21719D01*
X28638Y-21647D01*
X28449Y-21646D01*
X28274Y-21719D01*
X28140Y-21852D01*
X28068Y-22027D01*
X28068Y-22216D01*
X28140Y-22390D01*
X28273Y-22524D01*
X28448Y-22596D01*
X28637Y-22597D01*
X28812Y-22524D01*
X28945Y-22391D01*
X29018Y-22216D01*
X29018Y-22027D01*
X29018Y-23027D01*
X28946Y-22853D01*
X28812Y-22719D01*
X28638Y-22647D01*
X28449Y-22646D01*
X28274Y-22719D01*
X28140Y-22852D01*
X28068Y-23027D01*
X28068Y-23216D01*
X28140Y-23390D01*
X28273Y-23524D01*
X28448Y-23596D01*
X28637Y-23597D01*
X28812Y-23524D01*
X28945Y-23391D01*
X29018Y-23216D01*
X29018Y-23027D01*
X29018Y-24027D01*
X28946Y-23853D01*
X28812Y-23719D01*
X28638Y-23647D01*
X28449Y-23646D01*
X28274Y-23719D01*
X28140Y-23852D01*
X28068Y-24027D01*
X28068Y-24216D01*
X28140Y-24390D01*
X28273Y-24524D01*
X28448Y-24596D01*
X28637Y-24597D01*
X28812Y-24524D01*
X28945Y-24391D01*
X29018Y-24216D01*
X29018Y-24027D01*
X29018Y-25027D01*
X28946Y-24853D01*
X28812Y-24719D01*
X28638Y-24647D01*
X28449Y-24646D01*
X28274Y-24719D01*
X28140Y-24852D01*
X28068Y-25027D01*
X28068Y-25216D01*
X28140Y-25390D01*
X28273Y-25524D01*
X28448Y-25596D01*
X28637Y-25597D01*
X28812Y-25524D01*
X28945Y-25391D01*
X29018Y-25216D01*
X29018Y-25027D01*
X29018Y-26027D01*
X28946Y-25853D01*
X28812Y-25719D01*
X28638Y-25647D01*
X28449Y-25646D01*
X28274Y-25719D01*
X28140Y-25852D01*
X28068Y-26027D01*
X28068Y-26216D01*
X28140Y-26390D01*
X28273Y-26524D01*
X28448Y-26596D01*
X28637Y-26597D01*
X28812Y-26524D01*
X28945Y-26391D01*
X29018Y-26216D01*
X29018Y-26027D01*
X29018Y-27027D01*
X28946Y-26853D01*
X28812Y-26719D01*
X28638Y-26647D01*
X28449Y-26646D01*
X28274Y-26719D01*
X28140Y-26852D01*
X28068Y-27027D01*
X28068Y-27216D01*
X28140Y-27390D01*
X28273Y-27524D01*
X28357Y-27559D01*
X28274Y-27593D01*
X28140Y-27726D01*
X28068Y-27901D01*
X28068Y-28090D01*
X28140Y-28264D01*
X28241Y-28365D01*
X27931Y-28676D01*
X27887Y-28740D01*
X27872Y-28817D01*
X27872Y-32525D01*
X27887Y-32601D01*
X27931Y-32666D01*
X28096Y-32832D01*
X28068Y-32901D01*
X28068Y-33090D01*
X28140Y-33264D01*
X28273Y-33398D01*
X28448Y-33470D01*
X28637Y-33471D01*
X28812Y-33398D01*
X28945Y-33265D01*
X29018Y-33090D01*
X29018Y-32901D01*
X28946Y-32727D01*
X28812Y-32593D01*
X28638Y-32521D01*
X28449Y-32520D01*
X28379Y-32549D01*
X28272Y-32442D01*
X28272Y-32397D01*
X28273Y-32398D01*
X28448Y-32470D01*
X28637Y-32471D01*
X28812Y-32398D01*
X28945Y-32265D01*
X29018Y-32090D01*
X29018Y-31901D01*
X28989Y-31832D01*
X29229Y-31592D01*
X29272Y-31527D01*
X29272Y-31527D01*
X29288Y-31451D01*
X29288Y-28894D01*
X29387Y-28795D01*
X29424Y-28883D01*
X29490Y-28950D01*
X29424Y-29015D01*
X29375Y-29135D01*
X29374Y-29264D01*
X29424Y-29383D01*
X29490Y-29450D01*
X29424Y-29515D01*
X29375Y-29635D01*
X29374Y-29764D01*
X29424Y-29883D01*
X29490Y-29950D01*
X29424Y-30015D01*
X29375Y-30135D01*
X29374Y-30264D01*
X29424Y-30383D01*
X29490Y-30450D01*
X29424Y-30515D01*
X29375Y-30635D01*
X29374Y-30764D01*
X29424Y-30883D01*
X29515Y-30975D01*
X29635Y-31024D01*
X29764Y-31025D01*
X29883Y-30975D01*
X29970Y-30888D01*
X30237Y-30888D01*
X30243Y-30903D01*
X30278Y-30938D01*
X30243Y-30974D01*
X30221Y-31029D01*
X30221Y-31088D01*
X30221Y-31348D01*
X30243Y-31403D01*
X30278Y-31438D01*
X30243Y-31474D01*
X30221Y-31529D01*
X30221Y-31588D01*
X30221Y-31848D01*
X30243Y-31903D01*
X30286Y-31946D01*
X30341Y-31968D01*
X30400Y-31968D01*
X31164Y-31968D01*
X31093Y-32039D01*
X31021Y-32214D01*
X31020Y-32403D01*
X31093Y-32577D01*
X31226Y-32711D01*
X31401Y-32783D01*
X31590Y-32784D01*
X31764Y-32711D01*
X31898Y-32578D01*
X31970Y-32403D01*
X31971Y-32266D01*
X32006Y-32231D01*
X32006Y-31753D01*
X31998Y-31753D01*
X31998Y-31623D01*
X32006Y-31623D01*
X32006Y-31558D01*
X32406Y-31558D01*
X32406Y-31623D01*
X33033Y-31623D01*
X33171Y-31486D01*
X33171Y-31449D01*
X33087Y-31247D01*
X32932Y-31092D01*
X32769Y-31025D01*
X32748Y-30974D01*
X32713Y-30938D01*
X32748Y-30903D01*
X32771Y-30848D01*
X32771Y-30789D01*
X32771Y-30529D01*
X32748Y-30474D01*
X32713Y-30438D01*
X32748Y-30403D01*
X32771Y-30348D01*
X32771Y-30289D01*
X32771Y-30029D01*
X32748Y-29974D01*
X32713Y-29938D01*
X32748Y-29903D01*
X32754Y-29888D01*
X33129Y-29888D01*
X33215Y-29975D01*
X33335Y-30024D01*
X33464Y-30025D01*
X33583Y-29975D01*
X33675Y-29884D01*
X33724Y-29764D01*
X33725Y-29635D01*
X33675Y-29516D01*
X33609Y-29449D01*
X33675Y-29384D01*
X33724Y-29264D01*
X33725Y-29135D01*
X33675Y-29016D01*
X33584Y-28924D01*
X33549Y-28910D01*
X33575Y-28884D01*
X33624Y-28764D01*
X33625Y-28635D01*
X33575Y-28516D01*
X33509Y-28449D01*
X33575Y-28384D01*
X33624Y-28264D01*
X33625Y-28135D01*
X33575Y-28016D01*
X33509Y-27949D01*
X33575Y-27884D01*
X33624Y-27764D01*
X33625Y-27635D01*
X33575Y-27516D01*
X33509Y-27449D01*
X33575Y-27384D01*
X33624Y-27264D01*
X33625Y-27135D01*
X33575Y-27016D01*
X33509Y-26949D01*
X33575Y-26884D01*
X33624Y-26764D01*
X33625Y-26635D01*
X33575Y-26516D01*
X33509Y-26449D01*
X33575Y-26384D01*
X33624Y-26264D01*
X33625Y-26135D01*
X33575Y-26016D01*
X33509Y-25949D01*
X33575Y-25884D01*
X33624Y-25764D01*
X33625Y-25635D01*
X33575Y-25516D01*
X33509Y-25449D01*
X33575Y-25384D01*
X33624Y-25264D01*
X33625Y-25135D01*
X33575Y-25016D01*
X33509Y-24949D01*
X33575Y-24884D01*
X33600Y-24824D01*
X33690Y-24915D01*
X33690Y-27438D01*
X33706Y-27514D01*
X33749Y-27579D01*
X34002Y-27832D01*
X33973Y-27901D01*
X33973Y-28090D01*
X34045Y-28264D01*
X34179Y-28398D01*
X34353Y-28470D01*
X34542Y-28471D01*
X34717Y-28398D01*
X34851Y-28265D01*
X34923Y-28090D01*
X34923Y-27901D01*
X34923Y-28901D01*
X34851Y-28727D01*
X34718Y-28593D01*
X34543Y-28521D01*
X34354Y-28520D01*
X34180Y-28593D01*
X34046Y-28726D01*
X33973Y-28901D01*
X33973Y-29090D01*
X34045Y-29264D01*
X34179Y-29398D01*
X34353Y-29470D01*
X34542Y-29471D01*
X34717Y-29398D01*
X34851Y-29265D01*
X34923Y-29090D01*
X34923Y-28901D01*
X34923Y-29901D01*
X34851Y-29727D01*
X34718Y-29593D01*
X34543Y-29521D01*
X34354Y-29520D01*
X34180Y-29593D01*
X34046Y-29726D01*
X33973Y-29901D01*
X33973Y-30090D01*
X34045Y-30264D01*
X34179Y-30398D01*
X34353Y-30470D01*
X34542Y-30471D01*
X34717Y-30398D01*
X34851Y-30265D01*
X34923Y-30090D01*
X34923Y-29901D01*
X34923Y-30901D01*
X34851Y-30727D01*
X34718Y-30593D01*
X34543Y-30521D01*
X34354Y-30520D01*
X34180Y-30593D01*
X34046Y-30726D01*
X33973Y-30901D01*
X33973Y-31090D01*
X34045Y-31264D01*
X34179Y-31398D01*
X34353Y-31470D01*
X34542Y-31471D01*
X34717Y-31398D01*
X34851Y-31265D01*
X34923Y-31090D01*
X34923Y-30901D01*
X34923Y-31901D01*
X34851Y-31727D01*
X34718Y-31593D01*
X34543Y-31521D01*
X34354Y-31520D01*
X34180Y-31593D01*
X34046Y-31726D01*
X33973Y-31901D01*
X33973Y-32090D01*
X34045Y-32264D01*
X34179Y-32398D01*
X34353Y-32470D01*
X34542Y-32471D01*
X34717Y-32398D01*
X34851Y-32265D01*
X34923Y-32090D01*
X34923Y-31901D01*
X34923Y-32901D01*
X34851Y-32727D01*
X34718Y-32593D01*
X34543Y-32521D01*
X34354Y-32520D01*
X34180Y-32593D01*
X34046Y-32726D01*
X33973Y-32901D01*
X33973Y-33090D01*
X34045Y-33264D01*
X34179Y-33398D01*
X34353Y-33470D01*
X34542Y-33471D01*
X34717Y-33398D01*
X34851Y-33265D01*
X34923Y-33090D01*
X34923Y-32901D01*
X34923Y-33901D01*
X34851Y-33727D01*
X34718Y-33593D01*
X34543Y-33521D01*
X34354Y-33520D01*
X34180Y-33593D01*
X34046Y-33726D01*
X33973Y-33901D01*
X33973Y-34090D01*
X34045Y-34264D01*
X34179Y-34398D01*
X34353Y-34470D01*
X34542Y-34471D01*
X34717Y-34398D01*
X34851Y-34265D01*
X34923Y-34090D01*
X34923Y-33901D01*
X34923Y-34901D01*
X34851Y-34727D01*
X34718Y-34593D01*
X34543Y-34521D01*
X34354Y-34520D01*
X34180Y-34593D01*
X34046Y-34726D01*
X33973Y-34901D01*
X33973Y-35090D01*
X34013Y-35186D01*
X33171Y-35186D01*
X33171Y-31928D01*
X33171Y-31891D01*
X33033Y-31753D01*
X32406Y-31753D01*
X32406Y-32231D01*
X32543Y-32368D01*
X32730Y-32368D01*
X32932Y-32285D01*
X33087Y-32130D01*
X33171Y-31928D01*
X33171Y-35186D01*
X28978Y-35186D01*
X29018Y-35090D01*
X29018Y-34901D01*
X29018Y-33901D01*
X28946Y-33727D01*
X28812Y-33593D01*
X28638Y-33521D01*
X28449Y-33520D01*
X28274Y-33593D01*
X28140Y-33726D01*
X28068Y-33901D01*
X28068Y-34090D01*
X28140Y-34264D01*
X28273Y-34398D01*
X28448Y-34470D01*
X28637Y-34471D01*
X28812Y-34398D01*
X28945Y-34265D01*
X29018Y-34090D01*
X29018Y-33901D01*
X29018Y-34901D01*
X28946Y-34727D01*
X28812Y-34593D01*
X28638Y-34521D01*
X28449Y-34520D01*
X28274Y-34593D01*
X28140Y-34726D01*
X28068Y-34901D01*
X28068Y-35090D01*
X28107Y-35186D01*
X27010Y-35186D01*
X27049Y-35090D01*
X27049Y-34901D01*
X27049Y-33901D01*
X27049Y-32901D01*
X27049Y-31901D01*
X27049Y-30901D01*
X27049Y-29901D01*
X27049Y-28901D01*
X26977Y-28727D01*
X26844Y-28593D01*
X26669Y-28521D01*
X26480Y-28520D01*
X26306Y-28593D01*
X26172Y-28726D01*
X26099Y-28901D01*
X26099Y-29090D01*
X26171Y-29264D01*
X26305Y-29398D01*
X26479Y-29470D01*
X26668Y-29471D01*
X26843Y-29398D01*
X26977Y-29265D01*
X27049Y-29090D01*
X27049Y-28901D01*
X27049Y-29901D01*
X26977Y-29727D01*
X26844Y-29593D01*
X26669Y-29521D01*
X26480Y-29520D01*
X26306Y-29593D01*
X26172Y-29726D01*
X26099Y-29901D01*
X26099Y-30090D01*
X26171Y-30264D01*
X26305Y-30398D01*
X26479Y-30470D01*
X26668Y-30471D01*
X26843Y-30398D01*
X26977Y-30265D01*
X27049Y-30090D01*
X27049Y-29901D01*
X27049Y-30901D01*
X26977Y-30727D01*
X26844Y-30593D01*
X26669Y-30521D01*
X26480Y-30520D01*
X26306Y-30593D01*
X26172Y-30726D01*
X26099Y-30901D01*
X26099Y-31090D01*
X26171Y-31264D01*
X26305Y-31398D01*
X26479Y-31470D01*
X26668Y-31471D01*
X26843Y-31398D01*
X26977Y-31265D01*
X27049Y-31090D01*
X27049Y-30901D01*
X27049Y-31901D01*
X26977Y-31727D01*
X26844Y-31593D01*
X26669Y-31521D01*
X26480Y-31520D01*
X26306Y-31593D01*
X26172Y-31726D01*
X26099Y-31901D01*
X26099Y-32090D01*
X26171Y-32264D01*
X26305Y-32398D01*
X26479Y-32470D01*
X26668Y-32471D01*
X26843Y-32398D01*
X26977Y-32265D01*
X27049Y-32090D01*
X27049Y-31901D01*
X27049Y-32901D01*
X26977Y-32727D01*
X26844Y-32593D01*
X26669Y-32521D01*
X26480Y-32520D01*
X26306Y-32593D01*
X26172Y-32726D01*
X26099Y-32901D01*
X26099Y-33090D01*
X26171Y-33264D01*
X26305Y-33398D01*
X26479Y-33470D01*
X26668Y-33471D01*
X26843Y-33398D01*
X26977Y-33265D01*
X27049Y-33090D01*
X27049Y-32901D01*
X27049Y-33901D01*
X26977Y-33727D01*
X26844Y-33593D01*
X26669Y-33521D01*
X26480Y-33520D01*
X26306Y-33593D01*
X26172Y-33726D01*
X26099Y-33901D01*
X26099Y-34090D01*
X26171Y-34264D01*
X26305Y-34398D01*
X26479Y-34470D01*
X26668Y-34471D01*
X26843Y-34398D01*
X26977Y-34265D01*
X27049Y-34090D01*
X27049Y-33901D01*
X27049Y-34901D01*
X26977Y-34727D01*
X26844Y-34593D01*
X26669Y-34521D01*
X26480Y-34520D01*
X26306Y-34593D01*
X26172Y-34726D01*
X26099Y-34901D01*
X26099Y-35090D01*
X26139Y-35186D01*
X25297Y-35186D01*
X25297Y-31928D01*
X25297Y-31891D01*
X25159Y-31753D01*
X24532Y-31753D01*
X24532Y-32231D01*
X24669Y-32368D01*
X24856Y-32368D01*
X25058Y-32285D01*
X25213Y-32130D01*
X25297Y-31928D01*
X25297Y-35186D01*
X21104Y-35186D01*
X21144Y-35090D01*
X21144Y-34901D01*
X21115Y-34832D01*
X21355Y-34592D01*
X21355Y-34592D01*
X21398Y-34527D01*
X21414Y-34451D01*
X21414Y-27372D01*
X21506Y-27280D01*
X21535Y-27349D01*
X21613Y-27427D01*
X21524Y-27515D01*
X21475Y-27635D01*
X21474Y-27764D01*
X21524Y-27883D01*
X21590Y-27950D01*
X21524Y-28015D01*
X21475Y-28135D01*
X21474Y-28264D01*
X21524Y-28383D01*
X21590Y-28450D01*
X21544Y-28495D01*
X21495Y-28615D01*
X21494Y-28744D01*
X21544Y-28863D01*
X21610Y-28930D01*
X21544Y-28995D01*
X21495Y-29115D01*
X21494Y-29244D01*
X21544Y-29363D01*
X21620Y-29440D01*
X21544Y-29515D01*
X21495Y-29635D01*
X21494Y-29764D01*
X21544Y-29883D01*
X21590Y-29930D01*
X21524Y-29995D01*
X21475Y-30115D01*
X21474Y-30244D01*
X21524Y-30363D01*
X21600Y-30440D01*
X21524Y-30515D01*
X21475Y-30635D01*
X21474Y-30764D01*
X21524Y-30883D01*
X21615Y-30975D01*
X21735Y-31024D01*
X21864Y-31025D01*
X21983Y-30975D01*
X22070Y-30888D01*
X22363Y-30888D01*
X22369Y-30903D01*
X22404Y-30938D01*
X22369Y-30974D01*
X22347Y-31029D01*
X22347Y-31088D01*
X22347Y-31348D01*
X22369Y-31403D01*
X22404Y-31438D01*
X22369Y-31474D01*
X22347Y-31529D01*
X22347Y-31588D01*
X22347Y-31848D01*
X22369Y-31903D01*
X22412Y-31946D01*
X22467Y-31968D01*
X22526Y-31968D01*
X23290Y-31968D01*
X23219Y-32039D01*
X23147Y-32214D01*
X23146Y-32403D01*
X23219Y-32577D01*
X23352Y-32711D01*
X23527Y-32783D01*
X23716Y-32784D01*
X23890Y-32711D01*
X24024Y-32578D01*
X24096Y-32403D01*
X24097Y-32266D01*
X24132Y-32231D01*
X24132Y-31753D01*
X24124Y-31753D01*
X24124Y-31623D01*
X24132Y-31623D01*
X24132Y-31558D01*
X24532Y-31558D01*
X24532Y-31623D01*
X25159Y-31623D01*
X25297Y-31486D01*
X25297Y-31449D01*
X25213Y-31247D01*
X25058Y-31092D01*
X24895Y-31025D01*
X24874Y-30974D01*
X24839Y-30938D01*
X24874Y-30903D01*
X24897Y-30848D01*
X24897Y-30789D01*
X24897Y-30529D01*
X24874Y-30474D01*
X24839Y-30438D01*
X24874Y-30403D01*
X24897Y-30348D01*
X24897Y-30289D01*
X24897Y-30029D01*
X24874Y-29974D01*
X24839Y-29938D01*
X24874Y-29903D01*
X24880Y-29888D01*
X25129Y-29888D01*
X25215Y-29975D01*
X25335Y-30024D01*
X25464Y-30025D01*
X25583Y-29975D01*
X25675Y-29884D01*
X25724Y-29764D01*
X25725Y-29635D01*
X25675Y-29516D01*
X25609Y-29449D01*
X25675Y-29384D01*
X25724Y-29264D01*
X25725Y-29135D01*
X25675Y-29016D01*
X25609Y-28949D01*
X25675Y-28884D01*
X25724Y-28764D01*
X25725Y-28635D01*
X25675Y-28516D01*
X25609Y-28449D01*
X25675Y-28384D01*
X25724Y-28264D01*
X25725Y-28135D01*
X25675Y-28016D01*
X25609Y-27949D01*
X25675Y-27884D01*
X25724Y-27764D01*
X25725Y-27635D01*
X25675Y-27516D01*
X25609Y-27449D01*
X25675Y-27384D01*
X25724Y-27264D01*
X25725Y-27135D01*
X25675Y-27016D01*
X25609Y-26949D01*
X25675Y-26884D01*
X25724Y-26764D01*
X25725Y-26635D01*
X25675Y-26516D01*
X25609Y-26449D01*
X25675Y-26384D01*
X25724Y-26264D01*
X25725Y-26135D01*
X25675Y-26016D01*
X25609Y-25949D01*
X25675Y-25884D01*
X25724Y-25764D01*
X25725Y-25635D01*
X25675Y-25516D01*
X25609Y-25449D01*
X25675Y-25384D01*
X25724Y-25264D01*
X25725Y-25135D01*
X25675Y-25016D01*
X25609Y-24949D01*
X25675Y-24884D01*
X25700Y-24823D01*
X25755Y-24878D01*
X25755Y-27376D01*
X25770Y-27453D01*
X25813Y-27518D01*
X25814Y-27518D01*
X26128Y-27832D01*
X26099Y-27901D01*
X26099Y-28090D01*
X26171Y-28264D01*
X26305Y-28398D01*
X26479Y-28470D01*
X26668Y-28471D01*
X26843Y-28398D01*
X26977Y-28265D01*
X27049Y-28090D01*
X27049Y-27901D01*
X26977Y-27727D01*
X26844Y-27593D01*
X26761Y-27559D01*
X26843Y-27524D01*
X26977Y-27391D01*
X27049Y-27216D01*
X27049Y-27027D01*
X26977Y-26853D01*
X26844Y-26719D01*
X26669Y-26647D01*
X26480Y-26646D01*
X26306Y-26719D01*
X26172Y-26852D01*
X26155Y-26893D01*
X26155Y-26350D01*
X26171Y-26390D01*
X26305Y-26524D01*
X26479Y-26596D01*
X26668Y-26597D01*
X26843Y-26524D01*
X26977Y-26391D01*
X27049Y-26216D01*
X27049Y-26027D01*
X26977Y-25853D01*
X26844Y-25719D01*
X26669Y-25647D01*
X26480Y-25646D01*
X26306Y-25719D01*
X26172Y-25852D01*
X26155Y-25893D01*
X26155Y-25350D01*
X26171Y-25390D01*
X26305Y-25524D01*
X26479Y-25596D01*
X26668Y-25597D01*
X26843Y-25524D01*
X26977Y-25391D01*
X27049Y-25216D01*
X27049Y-25027D01*
X27049Y-24027D01*
X27049Y-23027D01*
X27049Y-22027D01*
X27049Y-21027D01*
X26977Y-20853D01*
X26844Y-20719D01*
X26669Y-20647D01*
X26480Y-20646D01*
X26306Y-20719D01*
X26172Y-20852D01*
X26099Y-21027D01*
X26099Y-21216D01*
X26171Y-21390D01*
X26305Y-21524D01*
X26479Y-21596D01*
X26668Y-21597D01*
X26843Y-21524D01*
X26977Y-21391D01*
X27049Y-21216D01*
X27049Y-21027D01*
X27049Y-22027D01*
X26977Y-21853D01*
X26844Y-21719D01*
X26669Y-21647D01*
X26480Y-21646D01*
X26306Y-21719D01*
X26172Y-21852D01*
X26099Y-22027D01*
X26099Y-22216D01*
X26171Y-22390D01*
X26305Y-22524D01*
X26479Y-22596D01*
X26668Y-22597D01*
X26843Y-22524D01*
X26977Y-22391D01*
X27049Y-22216D01*
X27049Y-22027D01*
X27049Y-23027D01*
X26977Y-22853D01*
X26844Y-22719D01*
X26669Y-22647D01*
X26480Y-22646D01*
X26306Y-22719D01*
X26172Y-22852D01*
X26099Y-23027D01*
X26099Y-23216D01*
X26171Y-23390D01*
X26305Y-23524D01*
X26479Y-23596D01*
X26668Y-23597D01*
X26843Y-23524D01*
X26977Y-23391D01*
X27049Y-23216D01*
X27049Y-23027D01*
X27049Y-24027D01*
X26977Y-23853D01*
X26844Y-23719D01*
X26669Y-23647D01*
X26480Y-23646D01*
X26306Y-23719D01*
X26172Y-23852D01*
X26099Y-24027D01*
X26099Y-24216D01*
X26171Y-24390D01*
X26305Y-24524D01*
X26479Y-24596D01*
X26668Y-24597D01*
X26843Y-24524D01*
X26977Y-24391D01*
X27049Y-24216D01*
X27049Y-24027D01*
X27049Y-25027D01*
X26977Y-24853D01*
X26844Y-24719D01*
X26669Y-24647D01*
X26480Y-24646D01*
X26306Y-24719D01*
X26172Y-24852D01*
X26155Y-24893D01*
X26155Y-24796D01*
X26140Y-24719D01*
X26096Y-24654D01*
X25689Y-24247D01*
X25624Y-24204D01*
X25548Y-24188D01*
X24005Y-24188D01*
X24021Y-24148D01*
X24022Y-23989D01*
X23961Y-23842D01*
X23848Y-23730D01*
X23701Y-23669D01*
X23542Y-23668D01*
X23395Y-23729D01*
X23283Y-23842D01*
X23222Y-23989D01*
X23221Y-24148D01*
X23282Y-24295D01*
X23395Y-24407D01*
X23532Y-24464D01*
X23474Y-24522D01*
X23454Y-24474D01*
X23412Y-24431D01*
X23356Y-24408D01*
X23297Y-24408D01*
X22467Y-24408D01*
X22412Y-24431D01*
X22369Y-24474D01*
X22363Y-24488D01*
X22074Y-24488D01*
X21995Y-24409D01*
X21875Y-24360D01*
X21746Y-24359D01*
X21627Y-24409D01*
X21535Y-24500D01*
X21486Y-24620D01*
X21485Y-24749D01*
X21535Y-24868D01*
X21607Y-24940D01*
X21535Y-25012D01*
X21486Y-25131D01*
X21485Y-25261D01*
X21535Y-25380D01*
X21587Y-25433D01*
X21535Y-25484D01*
X21486Y-25604D01*
X21485Y-25733D01*
X21535Y-25853D01*
X21607Y-25925D01*
X21535Y-25996D01*
X21486Y-26116D01*
X21485Y-26245D01*
X21535Y-26364D01*
X21607Y-26437D01*
X21535Y-26508D01*
X21486Y-26627D01*
X21485Y-26735D01*
X21144Y-27076D01*
X21144Y-27027D01*
X21144Y-26027D01*
X21144Y-25027D01*
X21144Y-24027D01*
X21144Y-23027D01*
X21144Y-22027D01*
X21144Y-21027D01*
X21072Y-20853D01*
X20938Y-20719D01*
X20764Y-20647D01*
X20575Y-20646D01*
X20400Y-20719D01*
X20266Y-20852D01*
X20194Y-21027D01*
X20194Y-21216D01*
X20266Y-21390D01*
X20399Y-21524D01*
X20574Y-21596D01*
X20763Y-21597D01*
X20938Y-21524D01*
X21071Y-21391D01*
X21144Y-21216D01*
X21144Y-21027D01*
X21144Y-22027D01*
X21072Y-21853D01*
X20938Y-21719D01*
X20764Y-21647D01*
X20575Y-21646D01*
X20400Y-21719D01*
X20266Y-21852D01*
X20194Y-22027D01*
X20194Y-22216D01*
X20266Y-22390D01*
X20399Y-22524D01*
X20574Y-22596D01*
X20763Y-22597D01*
X20938Y-22524D01*
X21071Y-22391D01*
X21144Y-22216D01*
X21144Y-22027D01*
X21144Y-23027D01*
X21072Y-22853D01*
X20938Y-22719D01*
X20764Y-22647D01*
X20575Y-22646D01*
X20400Y-22719D01*
X20266Y-22852D01*
X20194Y-23027D01*
X20194Y-23216D01*
X20266Y-23390D01*
X20399Y-23524D01*
X20574Y-23596D01*
X20763Y-23597D01*
X20938Y-23524D01*
X21071Y-23391D01*
X21144Y-23216D01*
X21144Y-23027D01*
X21144Y-24027D01*
X21072Y-23853D01*
X20938Y-23719D01*
X20764Y-23647D01*
X20575Y-23646D01*
X20400Y-23719D01*
X20266Y-23852D01*
X20194Y-24027D01*
X20194Y-24216D01*
X20266Y-24390D01*
X20399Y-24524D01*
X20574Y-24596D01*
X20763Y-24597D01*
X20938Y-24524D01*
X21071Y-24391D01*
X21144Y-24216D01*
X21144Y-24027D01*
X21144Y-25027D01*
X21072Y-24853D01*
X20938Y-24719D01*
X20764Y-24647D01*
X20575Y-24646D01*
X20400Y-24719D01*
X20266Y-24852D01*
X20194Y-25027D01*
X20194Y-25216D01*
X20266Y-25390D01*
X20399Y-25524D01*
X20574Y-25596D01*
X20763Y-25597D01*
X20938Y-25524D01*
X21071Y-25391D01*
X21144Y-25216D01*
X21144Y-25027D01*
X21144Y-26027D01*
X21072Y-25853D01*
X20938Y-25719D01*
X20764Y-25647D01*
X20575Y-25646D01*
X20400Y-25719D01*
X20266Y-25852D01*
X20194Y-26027D01*
X20194Y-26216D01*
X20266Y-26390D01*
X20399Y-26524D01*
X20574Y-26596D01*
X20763Y-26597D01*
X20938Y-26524D01*
X21071Y-26391D01*
X21144Y-26216D01*
X21144Y-26027D01*
X21144Y-27027D01*
X21072Y-26853D01*
X20938Y-26719D01*
X20764Y-26647D01*
X20575Y-26646D01*
X20400Y-26719D01*
X20266Y-26852D01*
X20194Y-27027D01*
X20194Y-27216D01*
X20266Y-27390D01*
X20399Y-27524D01*
X20483Y-27559D01*
X20400Y-27593D01*
X20266Y-27726D01*
X20194Y-27901D01*
X20194Y-28090D01*
X20266Y-28264D01*
X20399Y-28398D01*
X20574Y-28470D01*
X20763Y-28471D01*
X20938Y-28398D01*
X21014Y-28322D01*
X21014Y-28669D01*
X20938Y-28593D01*
X20764Y-28521D01*
X20575Y-28520D01*
X20400Y-28593D01*
X20266Y-28726D01*
X20194Y-28901D01*
X20194Y-29090D01*
X20266Y-29264D01*
X20399Y-29398D01*
X20574Y-29470D01*
X20763Y-29471D01*
X20938Y-29398D01*
X21014Y-29322D01*
X21014Y-29669D01*
X20938Y-29593D01*
X20764Y-29521D01*
X20575Y-29520D01*
X20400Y-29593D01*
X20266Y-29726D01*
X20194Y-29901D01*
X20194Y-30090D01*
X20266Y-30264D01*
X20399Y-30398D01*
X20574Y-30470D01*
X20763Y-30471D01*
X20938Y-30398D01*
X21014Y-30322D01*
X21014Y-30669D01*
X20938Y-30593D01*
X20764Y-30521D01*
X20575Y-30520D01*
X20400Y-30593D01*
X20266Y-30726D01*
X20194Y-30901D01*
X20194Y-31090D01*
X20266Y-31264D01*
X20399Y-31398D01*
X20574Y-31470D01*
X20763Y-31471D01*
X20938Y-31398D01*
X21014Y-31322D01*
X21014Y-31669D01*
X20938Y-31593D01*
X20764Y-31521D01*
X20575Y-31520D01*
X20400Y-31593D01*
X20266Y-31726D01*
X20194Y-31901D01*
X20194Y-32090D01*
X20266Y-32264D01*
X20399Y-32398D01*
X20574Y-32470D01*
X20763Y-32471D01*
X20938Y-32398D01*
X21014Y-32322D01*
X21014Y-32669D01*
X20938Y-32593D01*
X20764Y-32521D01*
X20575Y-32520D01*
X20400Y-32593D01*
X20266Y-32726D01*
X20194Y-32901D01*
X20194Y-33090D01*
X20266Y-33264D01*
X20399Y-33398D01*
X20574Y-33470D01*
X20763Y-33471D01*
X20938Y-33398D01*
X21014Y-33322D01*
X21014Y-33669D01*
X20938Y-33593D01*
X20764Y-33521D01*
X20575Y-33520D01*
X20400Y-33593D01*
X20266Y-33726D01*
X20194Y-33901D01*
X20194Y-34090D01*
X20266Y-34264D01*
X20399Y-34398D01*
X20574Y-34470D01*
X20763Y-34471D01*
X20938Y-34398D01*
X21014Y-34322D01*
X21014Y-34368D01*
X20832Y-34549D01*
X20764Y-34521D01*
X20575Y-34520D01*
X20400Y-34593D01*
X20266Y-34726D01*
X20194Y-34901D01*
X20194Y-35090D01*
X20233Y-35186D01*
X19931Y-35186D01*
X19931Y-19931D01*
X20233Y-19931D01*
X20194Y-20027D01*
X20194Y-20216D01*
X20266Y-20390D01*
X20399Y-20524D01*
X20574Y-20596D01*
X20763Y-20597D01*
X20938Y-20524D01*
X21071Y-20391D01*
X21144Y-20216D01*
X21144Y-20027D01*
X21104Y-19931D01*
X26139Y-19931D01*
X26099Y-20027D01*
X26099Y-20216D01*
X26171Y-20390D01*
X26305Y-20524D01*
X26479Y-20596D01*
X26668Y-20597D01*
X26843Y-20524D01*
X26977Y-20391D01*
X27049Y-20216D01*
X27049Y-20027D01*
X27010Y-19931D01*
X28107Y-19931D01*
X28068Y-20027D01*
X28068Y-20216D01*
X28140Y-20390D01*
X28273Y-20524D01*
X28448Y-20596D01*
X28637Y-20597D01*
X28812Y-20524D01*
X28945Y-20391D01*
X29018Y-20216D01*
X29018Y-20027D01*
X28978Y-19931D01*
X34013Y-19931D01*
X33973Y-20027D01*
X33973Y-20216D01*
X34045Y-20390D01*
X34179Y-20524D01*
X34353Y-20596D01*
X34542Y-20597D01*
X34717Y-20524D01*
X34851Y-20391D01*
X34923Y-20216D01*
X34923Y-20027D01*
X34884Y-19931D01*
X35186Y-19931D01*
X35186Y-35186D01*
X35186Y-35186D01*
G37*
G54D15*
X35186Y-35186D02*
X34884Y-35186D01*
X34923Y-35090D01*
X34923Y-34901D01*
X34923Y-33901D01*
X34923Y-32901D01*
X34923Y-31901D01*
X34923Y-30901D01*
X34923Y-29901D01*
X34923Y-28901D01*
X34923Y-27901D01*
X34851Y-27727D01*
X34718Y-27593D01*
X34635Y-27559D01*
X34717Y-27524D01*
X34851Y-27391D01*
X34923Y-27216D01*
X34923Y-27027D01*
X34851Y-26853D01*
X34718Y-26719D01*
X34543Y-26647D01*
X34354Y-26646D01*
X34180Y-26719D01*
X34090Y-26808D01*
X34090Y-26435D01*
X34179Y-26524D01*
X34353Y-26596D01*
X34542Y-26597D01*
X34717Y-26524D01*
X34851Y-26391D01*
X34923Y-26216D01*
X34923Y-26027D01*
X34851Y-25853D01*
X34718Y-25719D01*
X34543Y-25647D01*
X34354Y-25646D01*
X34180Y-25719D01*
X34090Y-25808D01*
X34090Y-25435D01*
X34179Y-25524D01*
X34353Y-25596D01*
X34542Y-25597D01*
X34717Y-25524D01*
X34851Y-25391D01*
X34923Y-25216D01*
X34923Y-25027D01*
X34923Y-24027D01*
X34851Y-23853D01*
X34718Y-23719D01*
X34543Y-23647D01*
X34354Y-23646D01*
X34180Y-23719D01*
X34046Y-23852D01*
X33973Y-24027D01*
X33973Y-24216D01*
X34045Y-24390D01*
X34179Y-24524D01*
X34353Y-24596D01*
X34542Y-24597D01*
X34717Y-24524D01*
X34851Y-24391D01*
X34923Y-24216D01*
X34923Y-24027D01*
X34923Y-25027D01*
X34851Y-24853D01*
X34718Y-24719D01*
X34543Y-24647D01*
X34354Y-24646D01*
X34180Y-24719D01*
X34086Y-24812D01*
X34078Y-24768D01*
X34075Y-24756D01*
X34075Y-24756D01*
X34032Y-24691D01*
X33280Y-23939D01*
X33215Y-23895D01*
X33138Y-23880D01*
X32633Y-23880D01*
X32557Y-23805D01*
X32517Y-23788D01*
X32983Y-23322D01*
X34017Y-23322D01*
X34045Y-23390D01*
X34179Y-23524D01*
X34353Y-23596D01*
X34542Y-23597D01*
X34717Y-23524D01*
X34851Y-23391D01*
X34923Y-23216D01*
X34923Y-23027D01*
X34923Y-22027D01*
X34923Y-21027D01*
X34851Y-20853D01*
X34718Y-20719D01*
X34543Y-20647D01*
X34354Y-20646D01*
X34180Y-20719D01*
X34046Y-20852D01*
X33973Y-21027D01*
X33973Y-21216D01*
X34045Y-21390D01*
X34179Y-21524D01*
X34353Y-21596D01*
X34542Y-21597D01*
X34717Y-21524D01*
X34851Y-21391D01*
X34923Y-21216D01*
X34923Y-21027D01*
X34923Y-22027D01*
X34851Y-21853D01*
X34718Y-21719D01*
X34543Y-21647D01*
X34354Y-21646D01*
X34180Y-21719D01*
X34046Y-21852D01*
X33973Y-22027D01*
X33973Y-22216D01*
X34045Y-22390D01*
X34179Y-22524D01*
X34353Y-22596D01*
X34542Y-22597D01*
X34717Y-22524D01*
X34851Y-22391D01*
X34923Y-22216D01*
X34923Y-22027D01*
X34923Y-23027D01*
X34851Y-22853D01*
X34718Y-22719D01*
X34543Y-22647D01*
X34354Y-22646D01*
X34180Y-22719D01*
X34046Y-22852D01*
X34017Y-22922D01*
X32900Y-22922D01*
X32824Y-22937D01*
X32759Y-22980D01*
X31927Y-23812D01*
X31883Y-23877D01*
X31872Y-23933D01*
X31835Y-23842D01*
X31722Y-23730D01*
X31575Y-23669D01*
X31416Y-23668D01*
X31269Y-23729D01*
X31157Y-23842D01*
X31096Y-23989D01*
X31095Y-24148D01*
X31156Y-24295D01*
X31269Y-24407D01*
X31407Y-24465D01*
X31348Y-24523D01*
X31328Y-24474D01*
X31286Y-24431D01*
X31230Y-24408D01*
X31171Y-24408D01*
X30341Y-24408D01*
X30286Y-24431D01*
X30243Y-24474D01*
X30237Y-24488D01*
X29948Y-24488D01*
X29884Y-24424D01*
X29764Y-24375D01*
X29635Y-24374D01*
X29516Y-24424D01*
X29424Y-24515D01*
X29375Y-24635D01*
X29374Y-24764D01*
X29424Y-24883D01*
X29490Y-24950D01*
X29424Y-25015D01*
X29375Y-25135D01*
X29374Y-25264D01*
X29424Y-25383D01*
X29490Y-25450D01*
X29424Y-25515D01*
X29375Y-25635D01*
X29374Y-25764D01*
X29424Y-25883D01*
X29490Y-25950D01*
X29424Y-26015D01*
X29375Y-26135D01*
X29374Y-26264D01*
X29424Y-26383D01*
X29490Y-26450D01*
X29424Y-26515D01*
X29375Y-26635D01*
X29374Y-26764D01*
X29424Y-26883D01*
X29490Y-26950D01*
X29424Y-27015D01*
X29375Y-27135D01*
X29374Y-27264D01*
X29424Y-27383D01*
X29490Y-27450D01*
X29424Y-27515D01*
X29375Y-27635D01*
X29374Y-27742D01*
X29012Y-28104D01*
X29018Y-28090D01*
X29018Y-27901D01*
X28946Y-27727D01*
X28812Y-27593D01*
X28729Y-27559D01*
X28812Y-27524D01*
X28945Y-27391D01*
X29018Y-27216D01*
X29018Y-27027D01*
X29018Y-26027D01*
X29018Y-25027D01*
X29018Y-24027D01*
X29018Y-23027D01*
X29018Y-22027D01*
X29018Y-21027D01*
X28946Y-20853D01*
X28812Y-20719D01*
X28638Y-20647D01*
X28449Y-20646D01*
X28274Y-20719D01*
X28140Y-20852D01*
X28068Y-21027D01*
X28068Y-21216D01*
X28140Y-21390D01*
X28273Y-21524D01*
X28448Y-21596D01*
X28637Y-21597D01*
X28812Y-21524D01*
X28945Y-21391D01*
X29018Y-21216D01*
X29018Y-21027D01*
X29018Y-22027D01*
X28946Y-21853D01*
X28812Y-21719D01*
X28638Y-21647D01*
X28449Y-21646D01*
X28274Y-21719D01*
X28140Y-21852D01*
X28068Y-22027D01*
X28068Y-22216D01*
X28140Y-22390D01*
X28273Y-22524D01*
X28448Y-22596D01*
X28637Y-22597D01*
X28812Y-22524D01*
X28945Y-22391D01*
X29018Y-22216D01*
X29018Y-22027D01*
X29018Y-23027D01*
X28946Y-22853D01*
X28812Y-22719D01*
X28638Y-22647D01*
X28449Y-22646D01*
X28274Y-22719D01*
X28140Y-22852D01*
X28068Y-23027D01*
X28068Y-23216D01*
X28140Y-23390D01*
X28273Y-23524D01*
X28448Y-23596D01*
X28637Y-23597D01*
X28812Y-23524D01*
X28945Y-23391D01*
X29018Y-23216D01*
X29018Y-23027D01*
X29018Y-24027D01*
X28946Y-23853D01*
X28812Y-23719D01*
X28638Y-23647D01*
X28449Y-23646D01*
X28274Y-23719D01*
X28140Y-23852D01*
X28068Y-24027D01*
X28068Y-24216D01*
X28140Y-24390D01*
X28273Y-24524D01*
X28448Y-24596D01*
X28637Y-24597D01*
X28812Y-24524D01*
X28945Y-24391D01*
X29018Y-24216D01*
X29018Y-24027D01*
X29018Y-25027D01*
X28946Y-24853D01*
X28812Y-24719D01*
X28638Y-24647D01*
X28449Y-24646D01*
X28274Y-24719D01*
X28140Y-24852D01*
X28068Y-25027D01*
X28068Y-25216D01*
X28140Y-25390D01*
X28273Y-25524D01*
X28448Y-25596D01*
X28637Y-25597D01*
X28812Y-25524D01*
X28945Y-25391D01*
X29018Y-25216D01*
X29018Y-25027D01*
X29018Y-26027D01*
X28946Y-25853D01*
X28812Y-25719D01*
X28638Y-25647D01*
X28449Y-25646D01*
X28274Y-25719D01*
X28140Y-25852D01*
X28068Y-26027D01*
X28068Y-26216D01*
X28140Y-26390D01*
X28273Y-26524D01*
X28448Y-26596D01*
X28637Y-26597D01*
X28812Y-26524D01*
X28945Y-26391D01*
X29018Y-26216D01*
X29018Y-26027D01*
X29018Y-27027D01*
X28946Y-26853D01*
X28812Y-26719D01*
X28638Y-26647D01*
X28449Y-26646D01*
X28274Y-26719D01*
X28140Y-26852D01*
X28068Y-27027D01*
X28068Y-27216D01*
X28140Y-27390D01*
X28273Y-27524D01*
X28357Y-27559D01*
X28274Y-27593D01*
X28140Y-27726D01*
X28068Y-27901D01*
X28068Y-28090D01*
X28140Y-28264D01*
X28241Y-28365D01*
X27931Y-28676D01*
X27887Y-28740D01*
X27872Y-28817D01*
X27872Y-32525D01*
X27887Y-32601D01*
X27931Y-32666D01*
X28096Y-32832D01*
X28068Y-32901D01*
X28068Y-33090D01*
X28140Y-33264D01*
X28273Y-33398D01*
X28448Y-33470D01*
X28637Y-33471D01*
X28812Y-33398D01*
X28945Y-33265D01*
X29018Y-33090D01*
X29018Y-32901D01*
X28946Y-32727D01*
X28812Y-32593D01*
X28638Y-32521D01*
X28449Y-32520D01*
X28379Y-32549D01*
X28272Y-32442D01*
X28272Y-32397D01*
X28273Y-32398D01*
X28448Y-32470D01*
X28637Y-32471D01*
X28812Y-32398D01*
X28945Y-32265D01*
X29018Y-32090D01*
X29018Y-31901D01*
X28989Y-31832D01*
X29229Y-31592D01*
X29272Y-31527D01*
X29272Y-31527D01*
X29288Y-31451D01*
X29288Y-28894D01*
X29387Y-28795D01*
X29424Y-28883D01*
X29490Y-28950D01*
X29424Y-29015D01*
X29375Y-29135D01*
X29374Y-29264D01*
X29424Y-29383D01*
X29490Y-29450D01*
X29424Y-29515D01*
X29375Y-29635D01*
X29374Y-29764D01*
X29424Y-29883D01*
X29490Y-29950D01*
X29424Y-30015D01*
X29375Y-30135D01*
X29374Y-30264D01*
X29424Y-30383D01*
X29490Y-30450D01*
X29424Y-30515D01*
X29375Y-30635D01*
X29374Y-30764D01*
X29424Y-30883D01*
X29515Y-30975D01*
X29635Y-31024D01*
X29764Y-31025D01*
X29883Y-30975D01*
X29970Y-30888D01*
X30237Y-30888D01*
X30243Y-30903D01*
X30278Y-30938D01*
X30243Y-30974D01*
X30221Y-31029D01*
X30221Y-31088D01*
X30221Y-31348D01*
X30243Y-31403D01*
X30278Y-31438D01*
X30243Y-31474D01*
X30221Y-31529D01*
X30221Y-31588D01*
X30221Y-31848D01*
X30243Y-31903D01*
X30286Y-31946D01*
X30341Y-31968D01*
X30400Y-31968D01*
X31164Y-31968D01*
X31093Y-32039D01*
X31021Y-32214D01*
X31020Y-32403D01*
X31093Y-32577D01*
X31226Y-32711D01*
X31401Y-32783D01*
X31590Y-32784D01*
X31764Y-32711D01*
X31898Y-32578D01*
X31970Y-32403D01*
X31971Y-32266D01*
X32006Y-32231D01*
X32006Y-31753D01*
X31998Y-31753D01*
X31998Y-31623D01*
X32006Y-31623D01*
X32006Y-31558D01*
X32406Y-31558D01*
X32406Y-31623D01*
X33033Y-31623D01*
X33171Y-31486D01*
X33171Y-31449D01*
X33087Y-31247D01*
X32932Y-31092D01*
X32769Y-31025D01*
X32748Y-30974D01*
X32713Y-30938D01*
X32748Y-30903D01*
X32771Y-30848D01*
X32771Y-30789D01*
X32771Y-30529D01*
X32748Y-30474D01*
X32713Y-30438D01*
X32748Y-30403D01*
X32771Y-30348D01*
X32771Y-30289D01*
X32771Y-30029D01*
X32748Y-29974D01*
X32713Y-29938D01*
X32748Y-29903D01*
X32754Y-29888D01*
X33129Y-29888D01*
X33215Y-29975D01*
X33335Y-30024D01*
X33464Y-30025D01*
X33583Y-29975D01*
X33675Y-29884D01*
X33724Y-29764D01*
X33725Y-29635D01*
X33675Y-29516D01*
X33609Y-29449D01*
X33675Y-29384D01*
X33724Y-29264D01*
X33725Y-29135D01*
X33675Y-29016D01*
X33584Y-28924D01*
X33549Y-28910D01*
X33575Y-28884D01*
X33624Y-28764D01*
X33625Y-28635D01*
X33575Y-28516D01*
X33509Y-28449D01*
X33575Y-28384D01*
X33624Y-28264D01*
X33625Y-28135D01*
X33575Y-28016D01*
X33509Y-27949D01*
X33575Y-27884D01*
X33624Y-27764D01*
X33625Y-27635D01*
X33575Y-27516D01*
X33509Y-27449D01*
X33575Y-27384D01*
X33624Y-27264D01*
X33625Y-27135D01*
X33575Y-27016D01*
X33509Y-26949D01*
X33575Y-26884D01*
X33624Y-26764D01*
X33625Y-26635D01*
X33575Y-26516D01*
X33509Y-26449D01*
X33575Y-26384D01*
X33624Y-26264D01*
X33625Y-26135D01*
X33575Y-26016D01*
X33509Y-25949D01*
X33575Y-25884D01*
X33624Y-25764D01*
X33625Y-25635D01*
X33575Y-25516D01*
X33509Y-25449D01*
X33575Y-25384D01*
X33624Y-25264D01*
X33625Y-25135D01*
X33575Y-25016D01*
X33509Y-24949D01*
X33575Y-24884D01*
X33600Y-24824D01*
X33690Y-24915D01*
X33690Y-27438D01*
X33706Y-27514D01*
X33749Y-27579D01*
X34002Y-27832D01*
X33973Y-27901D01*
X33973Y-28090D01*
X34045Y-28264D01*
X34179Y-28398D01*
X34353Y-28470D01*
X34542Y-28471D01*
X34717Y-28398D01*
X34851Y-28265D01*
X34923Y-28090D01*
X34923Y-27901D01*
X34923Y-28901D01*
X34851Y-28727D01*
X34718Y-28593D01*
X34543Y-28521D01*
X34354Y-28520D01*
X34180Y-28593D01*
X34046Y-28726D01*
X33973Y-28901D01*
X33973Y-29090D01*
X34045Y-29264D01*
X34179Y-29398D01*
X34353Y-29470D01*
X34542Y-29471D01*
X34717Y-29398D01*
X34851Y-29265D01*
X34923Y-29090D01*
X34923Y-28901D01*
X34923Y-29901D01*
X34851Y-29727D01*
X34718Y-29593D01*
X34543Y-29521D01*
X34354Y-29520D01*
X34180Y-29593D01*
X34046Y-29726D01*
X33973Y-29901D01*
X33973Y-30090D01*
X34045Y-30264D01*
X34179Y-30398D01*
X34353Y-30470D01*
X34542Y-30471D01*
X34717Y-30398D01*
X34851Y-30265D01*
X34923Y-30090D01*
X34923Y-29901D01*
X34923Y-30901D01*
X34851Y-30727D01*
X34718Y-30593D01*
X34543Y-30521D01*
X34354Y-30520D01*
X34180Y-30593D01*
X34046Y-30726D01*
X33973Y-30901D01*
X33973Y-31090D01*
X34045Y-31264D01*
X34179Y-31398D01*
X34353Y-31470D01*
X34542Y-31471D01*
X34717Y-31398D01*
X34851Y-31265D01*
X34923Y-31090D01*
X34923Y-30901D01*
X34923Y-31901D01*
X34851Y-31727D01*
X34718Y-31593D01*
X34543Y-31521D01*
X34354Y-31520D01*
X34180Y-31593D01*
X34046Y-31726D01*
X33973Y-31901D01*
X33973Y-32090D01*
X34045Y-32264D01*
X34179Y-32398D01*
X34353Y-32470D01*
X34542Y-32471D01*
X34717Y-32398D01*
X34851Y-32265D01*
X34923Y-32090D01*
X34923Y-31901D01*
X34923Y-32901D01*
X34851Y-32727D01*
X34718Y-32593D01*
X34543Y-32521D01*
X34354Y-32520D01*
X34180Y-32593D01*
X34046Y-32726D01*
X33973Y-32901D01*
X33973Y-33090D01*
X34045Y-33264D01*
X34179Y-33398D01*
X34353Y-33470D01*
X34542Y-33471D01*
X34717Y-33398D01*
X34851Y-33265D01*
X34923Y-33090D01*
X34923Y-32901D01*
X34923Y-33901D01*
X34851Y-33727D01*
X34718Y-33593D01*
X34543Y-33521D01*
X34354Y-33520D01*
X34180Y-33593D01*
X34046Y-33726D01*
X33973Y-33901D01*
X33973Y-34090D01*
X34045Y-34264D01*
X34179Y-34398D01*
X34353Y-34470D01*
X34542Y-34471D01*
X34717Y-34398D01*
X34851Y-34265D01*
X34923Y-34090D01*
X34923Y-33901D01*
X34923Y-34901D01*
X34851Y-34727D01*
X34718Y-34593D01*
X34543Y-34521D01*
X34354Y-34520D01*
X34180Y-34593D01*
X34046Y-34726D01*
X33973Y-34901D01*
X33973Y-35090D01*
X34013Y-35186D01*
X33171Y-35186D01*
X33171Y-31928D01*
X33171Y-31891D01*
X33033Y-31753D01*
X32406Y-31753D01*
X32406Y-32231D01*
X32543Y-32368D01*
X32730Y-32368D01*
X32932Y-32285D01*
X33087Y-32130D01*
X33171Y-31928D01*
X33171Y-35186D01*
X28978Y-35186D01*
X29018Y-35090D01*
X29018Y-34901D01*
X29018Y-33901D01*
X28946Y-33727D01*
X28812Y-33593D01*
X28638Y-33521D01*
X28449Y-33520D01*
X28274Y-33593D01*
X28140Y-33726D01*
X28068Y-33901D01*
X28068Y-34090D01*
X28140Y-34264D01*
X28273Y-34398D01*
X28448Y-34470D01*
X28637Y-34471D01*
X28812Y-34398D01*
X28945Y-34265D01*
X29018Y-34090D01*
X29018Y-33901D01*
X29018Y-34901D01*
X28946Y-34727D01*
X28812Y-34593D01*
X28638Y-34521D01*
X28449Y-34520D01*
X28274Y-34593D01*
X28140Y-34726D01*
X28068Y-34901D01*
X28068Y-35090D01*
X28107Y-35186D01*
X27010Y-35186D01*
X27049Y-35090D01*
X27049Y-34901D01*
X27049Y-33901D01*
X27049Y-32901D01*
X27049Y-31901D01*
X27049Y-30901D01*
X27049Y-29901D01*
X27049Y-28901D01*
X26977Y-28727D01*
X26844Y-28593D01*
X26669Y-28521D01*
X26480Y-28520D01*
X26306Y-28593D01*
X26172Y-28726D01*
X26099Y-28901D01*
X26099Y-29090D01*
X26171Y-29264D01*
X26305Y-29398D01*
X26479Y-29470D01*
X26668Y-29471D01*
X26843Y-29398D01*
X26977Y-29265D01*
X27049Y-29090D01*
X27049Y-28901D01*
X27049Y-29901D01*
X26977Y-29727D01*
X26844Y-29593D01*
X26669Y-29521D01*
X26480Y-29520D01*
X26306Y-29593D01*
X26172Y-29726D01*
X26099Y-29901D01*
X26099Y-30090D01*
X26171Y-30264D01*
X26305Y-30398D01*
X26479Y-30470D01*
X26668Y-30471D01*
X26843Y-30398D01*
X26977Y-30265D01*
X27049Y-30090D01*
X27049Y-29901D01*
X27049Y-30901D01*
X26977Y-30727D01*
X26844Y-30593D01*
X26669Y-30521D01*
X26480Y-30520D01*
X26306Y-30593D01*
X26172Y-30726D01*
X26099Y-30901D01*
X26099Y-31090D01*
X26171Y-31264D01*
X26305Y-31398D01*
X26479Y-31470D01*
X26668Y-31471D01*
X26843Y-31398D01*
X26977Y-31265D01*
X27049Y-31090D01*
X27049Y-30901D01*
X27049Y-31901D01*
X26977Y-31727D01*
X26844Y-31593D01*
X26669Y-31521D01*
X26480Y-31520D01*
X26306Y-31593D01*
X26172Y-31726D01*
X26099Y-31901D01*
X26099Y-32090D01*
X26171Y-32264D01*
X26305Y-32398D01*
X26479Y-32470D01*
X26668Y-32471D01*
X26843Y-32398D01*
X26977Y-32265D01*
X27049Y-32090D01*
X27049Y-31901D01*
X27049Y-32901D01*
X26977Y-32727D01*
X26844Y-32593D01*
X26669Y-32521D01*
X26480Y-32520D01*
X26306Y-32593D01*
X26172Y-32726D01*
X26099Y-32901D01*
X26099Y-33090D01*
X26171Y-33264D01*
X26305Y-33398D01*
X26479Y-33470D01*
X26668Y-33471D01*
X26843Y-33398D01*
X26977Y-33265D01*
X27049Y-33090D01*
X27049Y-32901D01*
X27049Y-33901D01*
X26977Y-33727D01*
X26844Y-33593D01*
X26669Y-33521D01*
X26480Y-33520D01*
X26306Y-33593D01*
X26172Y-33726D01*
X26099Y-33901D01*
X26099Y-34090D01*
X26171Y-34264D01*
X26305Y-34398D01*
X26479Y-34470D01*
X26668Y-34471D01*
X26843Y-34398D01*
X26977Y-34265D01*
X27049Y-34090D01*
X27049Y-33901D01*
X27049Y-34901D01*
X26977Y-34727D01*
X26844Y-34593D01*
X26669Y-34521D01*
X26480Y-34520D01*
X26306Y-34593D01*
X26172Y-34726D01*
X26099Y-34901D01*
X26099Y-35090D01*
X26139Y-35186D01*
X25297Y-35186D01*
X25297Y-31928D01*
X25297Y-31891D01*
X25159Y-31753D01*
X24532Y-31753D01*
X24532Y-32231D01*
X24669Y-32368D01*
X24856Y-32368D01*
X25058Y-32285D01*
X25213Y-32130D01*
X25297Y-31928D01*
X25297Y-35186D01*
X21104Y-35186D01*
X21144Y-35090D01*
X21144Y-34901D01*
X21115Y-34832D01*
X21355Y-34592D01*
X21355Y-34592D01*
X21398Y-34527D01*
X21414Y-34451D01*
X21414Y-27372D01*
X21506Y-27280D01*
X21535Y-27349D01*
X21613Y-27427D01*
X21524Y-27515D01*
X21475Y-27635D01*
X21474Y-27764D01*
X21524Y-27883D01*
X21590Y-27950D01*
X21524Y-28015D01*
X21475Y-28135D01*
X21474Y-28264D01*
X21524Y-28383D01*
X21590Y-28450D01*
X21544Y-28495D01*
X21495Y-28615D01*
X21494Y-28744D01*
X21544Y-28863D01*
X21610Y-28930D01*
X21544Y-28995D01*
X21495Y-29115D01*
X21494Y-29244D01*
X21544Y-29363D01*
X21620Y-29440D01*
X21544Y-29515D01*
X21495Y-29635D01*
X21494Y-29764D01*
X21544Y-29883D01*
X21590Y-29930D01*
X21524Y-29995D01*
X21475Y-30115D01*
X21474Y-30244D01*
X21524Y-30363D01*
X21600Y-30440D01*
X21524Y-30515D01*
X21475Y-30635D01*
X21474Y-30764D01*
X21524Y-30883D01*
X21615Y-30975D01*
X21735Y-31024D01*
X21864Y-31025D01*
X21983Y-30975D01*
X22070Y-30888D01*
X22363Y-30888D01*
X22369Y-30903D01*
X22404Y-30938D01*
X22369Y-30974D01*
X22347Y-31029D01*
X22347Y-31088D01*
X22347Y-31348D01*
X22369Y-31403D01*
X22404Y-31438D01*
X22369Y-31474D01*
X22347Y-31529D01*
X22347Y-31588D01*
X22347Y-31848D01*
X22369Y-31903D01*
X22412Y-31946D01*
X22467Y-31968D01*
X22526Y-31968D01*
X23290Y-31968D01*
X23219Y-32039D01*
X23147Y-32214D01*
X23146Y-32403D01*
X23219Y-32577D01*
X23352Y-32711D01*
X23527Y-32783D01*
X23716Y-32784D01*
X23890Y-32711D01*
X24024Y-32578D01*
X24096Y-32403D01*
X24097Y-32266D01*
X24132Y-32231D01*
X24132Y-31753D01*
X24124Y-31753D01*
X24124Y-31623D01*
X24132Y-31623D01*
X24132Y-31558D01*
X24532Y-31558D01*
X24532Y-31623D01*
X25159Y-31623D01*
X25297Y-31486D01*
X25297Y-31449D01*
X25213Y-31247D01*
X25058Y-31092D01*
X24895Y-31025D01*
X24874Y-30974D01*
X24839Y-30938D01*
X24874Y-30903D01*
X24897Y-30848D01*
X24897Y-30789D01*
X24897Y-30529D01*
X24874Y-30474D01*
X24839Y-30438D01*
X24874Y-30403D01*
X24897Y-30348D01*
X24897Y-30289D01*
X24897Y-30029D01*
X24874Y-29974D01*
X24839Y-29938D01*
X24874Y-29903D01*
X24880Y-29888D01*
X25129Y-29888D01*
X25215Y-29975D01*
X25335Y-30024D01*
X25464Y-30025D01*
X25583Y-29975D01*
X25675Y-29884D01*
X25724Y-29764D01*
X25725Y-29635D01*
X25675Y-29516D01*
X25609Y-29449D01*
X25675Y-29384D01*
X25724Y-29264D01*
X25725Y-29135D01*
X25675Y-29016D01*
X25609Y-28949D01*
X25675Y-28884D01*
X25724Y-28764D01*
X25725Y-28635D01*
X25675Y-28516D01*
X25609Y-28449D01*
X25675Y-28384D01*
X25724Y-28264D01*
X25725Y-28135D01*
X25675Y-28016D01*
X25609Y-27949D01*
X25675Y-27884D01*
X25724Y-27764D01*
X25725Y-27635D01*
X25675Y-27516D01*
X25609Y-27449D01*
X25675Y-27384D01*
X25724Y-27264D01*
X25725Y-27135D01*
X25675Y-27016D01*
X25609Y-26949D01*
X25675Y-26884D01*
X25724Y-26764D01*
X25725Y-26635D01*
X25675Y-26516D01*
X25609Y-26449D01*
X25675Y-26384D01*
X25724Y-26264D01*
X25725Y-26135D01*
X25675Y-26016D01*
X25609Y-25949D01*
X25675Y-25884D01*
X25724Y-25764D01*
X25725Y-25635D01*
X25675Y-25516D01*
X25609Y-25449D01*
X25675Y-25384D01*
X25724Y-25264D01*
X25725Y-25135D01*
X25675Y-25016D01*
X25609Y-24949D01*
X25675Y-24884D01*
X25700Y-24823D01*
X25755Y-24878D01*
X25755Y-27376D01*
X25770Y-27453D01*
X25813Y-27518D01*
X25814Y-27518D01*
X26128Y-27832D01*
X26099Y-27901D01*
X26099Y-28090D01*
X26171Y-28264D01*
X26305Y-28398D01*
X26479Y-28470D01*
X26668Y-28471D01*
X26843Y-28398D01*
X26977Y-28265D01*
X27049Y-28090D01*
X27049Y-27901D01*
X26977Y-27727D01*
X26844Y-27593D01*
X26761Y-27559D01*
X26843Y-27524D01*
X26977Y-27391D01*
X27049Y-27216D01*
X27049Y-27027D01*
X26977Y-26853D01*
X26844Y-26719D01*
X26669Y-26647D01*
X26480Y-26646D01*
X26306Y-26719D01*
X26172Y-26852D01*
X26155Y-26893D01*
X26155Y-26350D01*
X26171Y-26390D01*
X26305Y-26524D01*
X26479Y-26596D01*
X26668Y-26597D01*
X26843Y-26524D01*
X26977Y-26391D01*
X27049Y-26216D01*
X27049Y-26027D01*
X26977Y-25853D01*
X26844Y-25719D01*
X26669Y-25647D01*
X26480Y-25646D01*
X26306Y-25719D01*
X26172Y-25852D01*
X26155Y-25893D01*
X26155Y-25350D01*
X26171Y-25390D01*
X26305Y-25524D01*
X26479Y-25596D01*
X26668Y-25597D01*
X26843Y-25524D01*
X26977Y-25391D01*
X27049Y-25216D01*
X27049Y-25027D01*
X27049Y-24027D01*
X27049Y-23027D01*
X27049Y-22027D01*
X27049Y-21027D01*
X26977Y-20853D01*
X26844Y-20719D01*
X26669Y-20647D01*
X26480Y-20646D01*
X26306Y-20719D01*
X26172Y-20852D01*
X26099Y-21027D01*
X26099Y-21216D01*
X26171Y-21390D01*
X26305Y-21524D01*
X26479Y-21596D01*
X26668Y-21597D01*
X26843Y-21524D01*
X26977Y-21391D01*
X27049Y-21216D01*
X27049Y-21027D01*
X27049Y-22027D01*
X26977Y-21853D01*
X26844Y-21719D01*
X26669Y-21647D01*
X26480Y-21646D01*
X26306Y-21719D01*
X26172Y-21852D01*
X26099Y-22027D01*
X26099Y-22216D01*
X26171Y-22390D01*
X26305Y-22524D01*
X26479Y-22596D01*
X26668Y-22597D01*
X26843Y-22524D01*
X26977Y-22391D01*
X27049Y-22216D01*
X27049Y-22027D01*
X27049Y-23027D01*
X26977Y-22853D01*
X26844Y-22719D01*
X26669Y-22647D01*
X26480Y-22646D01*
X26306Y-22719D01*
X26172Y-22852D01*
X26099Y-23027D01*
X26099Y-23216D01*
X26171Y-23390D01*
X26305Y-23524D01*
X26479Y-23596D01*
X26668Y-23597D01*
X26843Y-23524D01*
X26977Y-23391D01*
X27049Y-23216D01*
X27049Y-23027D01*
X27049Y-24027D01*
X26977Y-23853D01*
X26844Y-23719D01*
X26669Y-23647D01*
X26480Y-23646D01*
X26306Y-23719D01*
X26172Y-23852D01*
X26099Y-24027D01*
X26099Y-24216D01*
X26171Y-24390D01*
X26305Y-24524D01*
X26479Y-24596D01*
X26668Y-24597D01*
X26843Y-24524D01*
X26977Y-24391D01*
X27049Y-24216D01*
X27049Y-24027D01*
X27049Y-25027D01*
X26977Y-24853D01*
X26844Y-24719D01*
X26669Y-24647D01*
X26480Y-24646D01*
X26306Y-24719D01*
X26172Y-24852D01*
X26155Y-24893D01*
X26155Y-24796D01*
X26140Y-24719D01*
X26096Y-24654D01*
X25689Y-24247D01*
X25624Y-24204D01*
X25548Y-24188D01*
X24005Y-24188D01*
X24021Y-24148D01*
X24022Y-23989D01*
X23961Y-23842D01*
X23848Y-23730D01*
X23701Y-23669D01*
X23542Y-23668D01*
X23395Y-23729D01*
X23283Y-23842D01*
X23222Y-23989D01*
X23221Y-24148D01*
X23282Y-24295D01*
X23395Y-24407D01*
X23532Y-24464D01*
X23474Y-24522D01*
X23454Y-24474D01*
X23412Y-24431D01*
X23356Y-24408D01*
X23297Y-24408D01*
X22467Y-24408D01*
X22412Y-24431D01*
X22369Y-24474D01*
X22363Y-24488D01*
X22074Y-24488D01*
X21995Y-24409D01*
X21875Y-24360D01*
X21746Y-24359D01*
X21627Y-24409D01*
X21535Y-24500D01*
X21486Y-24620D01*
X21485Y-24749D01*
X21535Y-24868D01*
X21607Y-24940D01*
X21535Y-25012D01*
X21486Y-25131D01*
X21485Y-25261D01*
X21535Y-25380D01*
X21587Y-25433D01*
X21535Y-25484D01*
X21486Y-25604D01*
X21485Y-25733D01*
X21535Y-25853D01*
X21607Y-25925D01*
X21535Y-25996D01*
X21486Y-26116D01*
X21485Y-26245D01*
X21535Y-26364D01*
X21607Y-26437D01*
X21535Y-26508D01*
X21486Y-26627D01*
X21485Y-26735D01*
X21144Y-27076D01*
X21144Y-27027D01*
X21144Y-26027D01*
X21144Y-25027D01*
X21144Y-24027D01*
X21144Y-23027D01*
X21144Y-22027D01*
X21144Y-21027D01*
X21072Y-20853D01*
X20938Y-20719D01*
X20764Y-20647D01*
X20575Y-20646D01*
X20400Y-20719D01*
X20266Y-20852D01*
X20194Y-21027D01*
X20194Y-21216D01*
X20266Y-21390D01*
X20399Y-21524D01*
X20574Y-21596D01*
X20763Y-21597D01*
X20938Y-21524D01*
X21071Y-21391D01*
X21144Y-21216D01*
X21144Y-21027D01*
X21144Y-22027D01*
X21072Y-21853D01*
X20938Y-21719D01*
X20764Y-21647D01*
X20575Y-21646D01*
X20400Y-21719D01*
X20266Y-21852D01*
X20194Y-22027D01*
X20194Y-22216D01*
X20266Y-22390D01*
X20399Y-22524D01*
X20574Y-22596D01*
X20763Y-22597D01*
X20938Y-22524D01*
X21071Y-22391D01*
X21144Y-22216D01*
X21144Y-22027D01*
X21144Y-23027D01*
X21072Y-22853D01*
X20938Y-22719D01*
X20764Y-22647D01*
X20575Y-22646D01*
X20400Y-22719D01*
X20266Y-22852D01*
X20194Y-23027D01*
X20194Y-23216D01*
X20266Y-23390D01*
X20399Y-23524D01*
X20574Y-23596D01*
X20763Y-23597D01*
X20938Y-23524D01*
X21071Y-23391D01*
X21144Y-23216D01*
X21144Y-23027D01*
X21144Y-24027D01*
X21072Y-23853D01*
X20938Y-23719D01*
X20764Y-23647D01*
X20575Y-23646D01*
X20400Y-23719D01*
X20266Y-23852D01*
X20194Y-24027D01*
X20194Y-24216D01*
X20266Y-24390D01*
X20399Y-24524D01*
X20574Y-24596D01*
X20763Y-24597D01*
X20938Y-24524D01*
X21071Y-24391D01*
X21144Y-24216D01*
X21144Y-24027D01*
X21144Y-25027D01*
X21072Y-24853D01*
X20938Y-24719D01*
X20764Y-24647D01*
X20575Y-24646D01*
X20400Y-24719D01*
X20266Y-24852D01*
X20194Y-25027D01*
X20194Y-25216D01*
X20266Y-25390D01*
X20399Y-25524D01*
X20574Y-25596D01*
X20763Y-25597D01*
X20938Y-25524D01*
X21071Y-25391D01*
X21144Y-25216D01*
X21144Y-25027D01*
X21144Y-26027D01*
X21072Y-25853D01*
X20938Y-25719D01*
X20764Y-25647D01*
X20575Y-25646D01*
X20400Y-25719D01*
X20266Y-25852D01*
X20194Y-26027D01*
X20194Y-26216D01*
X20266Y-26390D01*
X20399Y-26524D01*
X20574Y-26596D01*
X20763Y-26597D01*
X20938Y-26524D01*
X21071Y-26391D01*
X21144Y-26216D01*
X21144Y-26027D01*
X21144Y-27027D01*
X21072Y-26853D01*
X20938Y-26719D01*
X20764Y-26647D01*
X20575Y-26646D01*
X20400Y-26719D01*
X20266Y-26852D01*
X20194Y-27027D01*
X20194Y-27216D01*
X20266Y-27390D01*
X20399Y-27524D01*
X20483Y-27559D01*
X20400Y-27593D01*
X20266Y-27726D01*
X20194Y-27901D01*
X20194Y-28090D01*
X20266Y-28264D01*
X20399Y-28398D01*
X20574Y-28470D01*
X20763Y-28471D01*
X20938Y-28398D01*
X21014Y-28322D01*
X21014Y-28669D01*
X20938Y-28593D01*
X20764Y-28521D01*
X20575Y-28520D01*
X20400Y-28593D01*
X20266Y-28726D01*
X20194Y-28901D01*
X20194Y-29090D01*
X20266Y-29264D01*
X20399Y-29398D01*
X20574Y-29470D01*
X20763Y-29471D01*
X20938Y-29398D01*
X21014Y-29322D01*
X21014Y-29669D01*
X20938Y-29593D01*
X20764Y-29521D01*
X20575Y-29520D01*
X20400Y-29593D01*
X20266Y-29726D01*
X20194Y-29901D01*
X20194Y-30090D01*
X20266Y-30264D01*
X20399Y-30398D01*
X20574Y-30470D01*
X20763Y-30471D01*
X20938Y-30398D01*
X21014Y-30322D01*
X21014Y-30669D01*
X20938Y-30593D01*
X20764Y-30521D01*
X20575Y-30520D01*
X20400Y-30593D01*
X20266Y-30726D01*
X20194Y-30901D01*
X20194Y-31090D01*
X20266Y-31264D01*
X20399Y-31398D01*
X20574Y-31470D01*
X20763Y-31471D01*
X20938Y-31398D01*
X21014Y-31322D01*
X21014Y-31669D01*
X20938Y-31593D01*
X20764Y-31521D01*
X20575Y-31520D01*
X20400Y-31593D01*
X20266Y-31726D01*
X20194Y-31901D01*
X20194Y-32090D01*
X20266Y-32264D01*
X20399Y-32398D01*
X20574Y-32470D01*
X20763Y-32471D01*
X20938Y-32398D01*
X21014Y-32322D01*
X21014Y-32669D01*
X20938Y-32593D01*
X20764Y-32521D01*
X20575Y-32520D01*
X20400Y-32593D01*
X20266Y-32726D01*
X20194Y-32901D01*
X20194Y-33090D01*
X20266Y-33264D01*
X20399Y-33398D01*
X20574Y-33470D01*
X20763Y-33471D01*
X20938Y-33398D01*
X21014Y-33322D01*
X21014Y-33669D01*
X20938Y-33593D01*
X20764Y-33521D01*
X20575Y-33520D01*
X20400Y-33593D01*
X20266Y-33726D01*
X20194Y-33901D01*
X20194Y-34090D01*
X20266Y-34264D01*
X20399Y-34398D01*
X20574Y-34470D01*
X20763Y-34471D01*
X20938Y-34398D01*
X21014Y-34322D01*
X21014Y-34368D01*
X20832Y-34549D01*
X20764Y-34521D01*
X20575Y-34520D01*
X20400Y-34593D01*
X20266Y-34726D01*
X20194Y-34901D01*
X20194Y-35090D01*
X20233Y-35186D01*
X19931Y-35186D01*
X19931Y-19931D01*
X20233Y-19931D01*
X20194Y-20027D01*
X20194Y-20216D01*
X20266Y-20390D01*
X20399Y-20524D01*
X20574Y-20596D01*
X20763Y-20597D01*
X20938Y-20524D01*
X21071Y-20391D01*
X21144Y-20216D01*
X21144Y-20027D01*
X21104Y-19931D01*
X26139Y-19931D01*
X26099Y-20027D01*
X26099Y-20216D01*
X26171Y-20390D01*
X26305Y-20524D01*
X26479Y-20596D01*
X26668Y-20597D01*
X26843Y-20524D01*
X26977Y-20391D01*
X27049Y-20216D01*
X27049Y-20027D01*
X27010Y-19931D01*
X28107Y-19931D01*
X28068Y-20027D01*
X28068Y-20216D01*
X28140Y-20390D01*
X28273Y-20524D01*
X28448Y-20596D01*
X28637Y-20597D01*
X28812Y-20524D01*
X28945Y-20391D01*
X29018Y-20216D01*
X29018Y-20027D01*
X28978Y-19931D01*
X34013Y-19931D01*
X33973Y-20027D01*
X33973Y-20216D01*
X34045Y-20390D01*
X34179Y-20524D01*
X34353Y-20596D01*
X34542Y-20597D01*
X34717Y-20524D01*
X34851Y-20391D01*
X34923Y-20216D01*
X34923Y-20027D01*
X34884Y-19931D01*
X35186Y-19931D01*
X35186Y-35186D01*
M02*
