G04 (created by PCBNEW (2013-mar-13)-testing) date Tue 20 Aug 2013 10:34:20 AM PDT*
%MOIN*%
G04 Gerber Fmt 3.4, Leading zero omitted, Abs format*
%FSLAX34Y34*%
G01*
G70*
G90*
G04 APERTURE LIST*
%ADD10C,0.005906*%
%ADD11C,0.065000*%
%ADD12C,0.050000*%
%ADD13C,0.035000*%
%ADD14C,0.010000*%
G04 APERTURE END LIST*
G54D10*
G54D11*
X20669Y-20122D03*
X20669Y-21122D03*
X20669Y-22122D03*
X20669Y-23122D03*
X20669Y-24122D03*
X20669Y-25122D03*
X20669Y-26122D03*
X20669Y-27122D03*
X26574Y-27122D03*
X26574Y-26122D03*
X26574Y-25122D03*
X26574Y-24122D03*
X26574Y-23122D03*
X26574Y-22122D03*
X26574Y-21122D03*
X26574Y-20122D03*
X20669Y-27996D03*
X20669Y-28996D03*
X20669Y-29996D03*
X20669Y-30996D03*
X20669Y-31996D03*
X20669Y-32996D03*
X20669Y-33996D03*
X20669Y-34996D03*
X26574Y-34996D03*
X26574Y-33996D03*
X26574Y-32996D03*
X26574Y-31996D03*
X26574Y-30996D03*
X26574Y-29996D03*
X26574Y-28996D03*
X26574Y-27996D03*
X28543Y-20122D03*
X28543Y-21122D03*
X28543Y-22122D03*
X28543Y-23122D03*
X28543Y-24122D03*
X28543Y-25122D03*
X28543Y-26122D03*
X28543Y-27122D03*
X34448Y-27122D03*
X34448Y-26122D03*
X34448Y-25122D03*
X34448Y-24122D03*
X34448Y-23122D03*
X34448Y-22122D03*
X34448Y-21122D03*
X34448Y-20122D03*
X28543Y-27996D03*
X28543Y-28996D03*
X28543Y-29996D03*
X28543Y-30996D03*
X28543Y-31996D03*
X28543Y-32996D03*
X28543Y-33996D03*
X28543Y-34996D03*
X34448Y-34996D03*
X34448Y-33996D03*
X34448Y-32996D03*
X34448Y-31996D03*
X34448Y-30996D03*
X34448Y-29996D03*
X34448Y-28996D03*
X34448Y-27996D03*
G54D12*
X23622Y-24068D03*
G54D11*
X23622Y-32308D03*
G54D12*
X31496Y-24068D03*
G54D11*
X31496Y-32308D03*
G54D13*
X25400Y-28700D03*
X21800Y-27700D03*
X21811Y-27165D03*
X21811Y-26692D03*
X21811Y-26181D03*
X21811Y-25669D03*
X21811Y-25196D03*
X21811Y-24685D03*
X25400Y-29200D03*
X25400Y-29700D03*
X21800Y-30700D03*
X21800Y-30180D03*
X21820Y-29700D03*
X21820Y-29180D03*
X21820Y-28680D03*
X21800Y-28200D03*
X33300Y-28700D03*
X29700Y-27700D03*
X29700Y-27200D03*
X29700Y-26700D03*
X29700Y-26200D03*
X32373Y-24080D03*
X29700Y-25700D03*
X29700Y-25200D03*
X29700Y-24700D03*
X33400Y-29200D03*
X33400Y-29700D03*
X29700Y-30700D03*
X29700Y-30200D03*
X29700Y-29700D03*
X29700Y-29200D03*
X29700Y-28700D03*
X29700Y-28200D03*
X25400Y-24700D03*
X25400Y-25200D03*
X25400Y-25700D03*
X25400Y-26200D03*
X25400Y-26700D03*
X25400Y-27200D03*
X25400Y-27700D03*
X25400Y-28200D03*
X33300Y-24700D03*
X33300Y-25200D03*
X33300Y-25700D03*
X33300Y-26200D03*
X33300Y-26700D03*
X33300Y-27200D03*
X33300Y-27700D03*
X33300Y-28200D03*
X25400Y-31700D03*
X33400Y-31700D03*
G54D14*
X27409Y-20957D02*
X26574Y-20122D01*
X27409Y-22932D02*
X27409Y-20957D01*
X26719Y-23622D02*
X27409Y-22932D01*
X26042Y-23622D02*
X26719Y-23622D01*
X24963Y-24701D02*
X26042Y-23622D01*
X24963Y-27016D02*
X24963Y-24701D01*
X21800Y-30180D02*
X24963Y-27016D01*
X24783Y-26736D02*
X21820Y-29700D01*
X24783Y-24269D02*
X24783Y-26736D01*
X26431Y-22622D02*
X24783Y-24269D01*
X26730Y-22622D02*
X26431Y-22622D01*
X27046Y-22305D02*
X26730Y-22622D01*
X27046Y-21593D02*
X27046Y-22305D01*
X26574Y-21122D02*
X27046Y-21593D01*
X24423Y-26576D02*
X21820Y-29180D01*
X24423Y-24273D02*
X24423Y-26576D01*
X26574Y-22122D02*
X24423Y-24273D01*
X27229Y-22467D02*
X26574Y-23122D01*
X27229Y-21113D02*
X27229Y-22467D01*
X26781Y-20664D02*
X27229Y-21113D01*
X26383Y-20664D02*
X26781Y-20664D01*
X24058Y-22989D02*
X26383Y-20664D01*
X24058Y-26441D02*
X24058Y-22989D01*
X21820Y-28680D02*
X24058Y-26441D01*
X21453Y-28546D02*
X21800Y-28200D01*
X21453Y-31211D02*
X21453Y-28546D01*
X20669Y-31996D02*
X21453Y-31211D01*
X29394Y-33144D02*
X28543Y-33996D01*
X29394Y-27505D02*
X29394Y-33144D01*
X29700Y-27200D02*
X29394Y-27505D01*
X29180Y-27219D02*
X29700Y-26700D01*
X29180Y-30012D02*
X29180Y-27219D01*
X28696Y-30496D02*
X29180Y-30012D01*
X28395Y-30496D02*
X28696Y-30496D01*
X28087Y-30803D02*
X28395Y-30496D01*
X28087Y-34540D02*
X28087Y-30803D01*
X28543Y-34996D02*
X28087Y-34540D01*
X30254Y-26200D02*
X32373Y-24080D01*
X29700Y-26200D02*
X30254Y-26200D01*
X35122Y-20795D02*
X34448Y-20122D01*
X35122Y-23100D02*
X35122Y-20795D01*
X34600Y-23622D02*
X35122Y-23100D01*
X33938Y-23622D02*
X34600Y-23622D01*
X32940Y-24620D02*
X33938Y-23622D01*
X32940Y-26959D02*
X32940Y-24620D01*
X29700Y-30200D02*
X32940Y-26959D01*
X34921Y-21595D02*
X34448Y-21122D01*
X34921Y-22311D02*
X34921Y-21595D01*
X34611Y-22622D02*
X34921Y-22311D01*
X34305Y-22622D02*
X34611Y-22622D01*
X32858Y-24068D02*
X34305Y-22622D01*
X32858Y-24281D02*
X32858Y-24068D01*
X32670Y-24470D02*
X32858Y-24281D01*
X32670Y-26729D02*
X32670Y-24470D01*
X29700Y-29700D02*
X32670Y-26729D01*
X32678Y-23892D02*
X34448Y-22122D01*
X32678Y-24207D02*
X32678Y-23892D01*
X32490Y-24395D02*
X32678Y-24207D01*
X32490Y-26409D02*
X32490Y-24395D01*
X29700Y-29200D02*
X32490Y-26409D01*
X20206Y-27532D02*
X20669Y-27996D01*
X20206Y-21938D02*
X20206Y-27532D01*
X20522Y-21622D02*
X20206Y-21938D01*
X20817Y-21622D02*
X20522Y-21622D01*
X21124Y-21315D02*
X20817Y-21622D01*
X21124Y-20577D02*
X21124Y-21315D01*
X20669Y-20122D02*
X21124Y-20577D01*
X20025Y-28352D02*
X20669Y-28996D01*
X20025Y-21765D02*
X20025Y-28352D01*
X20669Y-21122D02*
X20025Y-21765D01*
X21146Y-30519D02*
X20669Y-30996D01*
X21146Y-23598D02*
X21146Y-30519D01*
X20669Y-23122D02*
X21146Y-23598D01*
X27051Y-24598D02*
X26574Y-24122D01*
X27051Y-31519D02*
X27051Y-24598D01*
X26574Y-31996D02*
X27051Y-31519D01*
X25705Y-26894D02*
X25400Y-27200D01*
X25705Y-25991D02*
X25705Y-26894D01*
X26574Y-25122D02*
X25705Y-25991D01*
X26029Y-27070D02*
X25400Y-27700D01*
X26029Y-26666D02*
X26029Y-27070D01*
X26574Y-26122D02*
X26029Y-26666D01*
X25094Y-32516D02*
X26574Y-33996D01*
X25094Y-28005D02*
X25094Y-32516D01*
X25400Y-27700D02*
X25094Y-28005D01*
X26029Y-28732D02*
X25496Y-28200D01*
X26029Y-32098D02*
X26029Y-28732D01*
X26426Y-32496D02*
X26029Y-32098D01*
X26733Y-32496D02*
X26426Y-32496D01*
X27030Y-32792D02*
X26733Y-32496D01*
X27030Y-34540D02*
X27030Y-32792D01*
X26574Y-34996D02*
X27030Y-34540D01*
X25400Y-28200D02*
X25496Y-28200D01*
X25496Y-28200D02*
X26574Y-27122D01*
X28072Y-27525D02*
X28543Y-27996D01*
X28072Y-21946D02*
X28072Y-27525D01*
X28396Y-21622D02*
X28072Y-21946D01*
X28691Y-21622D02*
X28396Y-21622D01*
X28998Y-21315D02*
X28691Y-21622D01*
X28998Y-20577D02*
X28998Y-21315D01*
X28543Y-20122D02*
X28998Y-20577D01*
X27892Y-28344D02*
X28543Y-28996D01*
X27892Y-21773D02*
X27892Y-28344D01*
X28543Y-21122D02*
X27892Y-21773D01*
X29000Y-29539D02*
X28543Y-29996D01*
X29000Y-22578D02*
X29000Y-29539D01*
X28543Y-22122D02*
X29000Y-22578D01*
X33673Y-26245D02*
X34461Y-25458D01*
X33673Y-26826D02*
X33673Y-26245D01*
X33300Y-27200D02*
X33673Y-26826D01*
X34448Y-25445D02*
X34461Y-25458D01*
X34448Y-25122D02*
X34448Y-25445D01*
X34925Y-32519D02*
X34448Y-32996D01*
X34925Y-25922D02*
X34925Y-32519D01*
X34461Y-25458D02*
X34925Y-25922D01*
X33993Y-28393D02*
X33300Y-27700D01*
X33993Y-33540D02*
X33993Y-28393D01*
X34448Y-33996D02*
X33993Y-33540D01*
X33807Y-27192D02*
X33300Y-27700D01*
X33807Y-26947D02*
X33807Y-27192D01*
X34448Y-26305D02*
X33807Y-26947D01*
X34448Y-26122D02*
X34448Y-26305D01*
X33740Y-28640D02*
X33300Y-28200D01*
X33740Y-34287D02*
X33740Y-28640D01*
X34448Y-34996D02*
X33740Y-34287D01*
M02*
