M48
;DRILL file {Pcbnew (2013-jul-07)-stable} date Tue 07 Apr 2015 07:13:23 PM PDT
;FORMAT={-:-/ absolute / inch / decimal}
FMAT,2
INCH,TZ
T1C0.025
T2C0.040
T3C0.050
T4C0.096
%
G90
G05
M72
T1
X2.7471Y-2.6971
X2.8174Y-2.6971
X2.889Y-2.8746
X3.1338Y-2.7784
T2
X2.0559Y-2.313
X2.0559Y-3.3346
X2.0744Y-2.45
X2.0744Y-2.55
X2.0744Y-3.0799
X2.0744Y-3.1799
X2.1559Y-2.313
X2.1559Y-3.3346
X2.2559Y-2.313
X2.2559Y-3.3346
X2.3559Y-2.313
X2.3559Y-3.3346
X2.3744Y-2.45
X2.3744Y-2.55
X2.3744Y-3.0799
X2.3744Y-3.1799
X2.4559Y-2.313
X2.4559Y-3.3346
X2.5559Y-2.313
X2.5559Y-3.3346
X2.6559Y-2.313
X2.6559Y-3.3346
X2.7559Y-2.313
X2.7559Y-3.3346
X2.8559Y-2.313
X2.8559Y-3.3346
X2.9559Y-2.313
X2.9559Y-3.3346
X3.0559Y-2.313
X3.0559Y-3.3346
X3.1374Y-2.45
X3.1374Y-2.55
X3.1374Y-3.0799
X3.1374Y-3.1799
X3.1559Y-2.313
X3.1559Y-3.3346
X3.2008Y-2.7059
X3.2008Y-2.8059
X3.2559Y-2.313
X3.2559Y-3.3346
X3.3559Y-2.313
X3.3559Y-3.3346
X3.4374Y-2.45
X3.4374Y-2.55
X3.4374Y-3.0799
X3.4374Y-3.1799
X3.4559Y-2.313
X3.4559Y-3.3346
T3
X2.1744Y-2.45
X2.1744Y-2.55
X2.1744Y-3.0799
X2.1744Y-3.1799
X2.2744Y-2.45
X2.2744Y-2.55
X2.2744Y-3.0799
X2.2744Y-3.1799
X3.2374Y-2.45
X3.2374Y-2.55
X3.2374Y-3.0799
X3.2374Y-3.1799
X3.3374Y-2.45
X3.3374Y-2.55
X3.3374Y-3.0799
X3.3374Y-3.1799
T4
X2.126Y-2.7559
X3.3858Y-2.7559
T0
M30
