G04 (created by PCBNEW (2013-mar-13)-testing) date Wed 23 Jul 2014 10:31:31 AM PDT*
%MOIN*%
G04 Gerber Fmt 3.4, Leading zero omitted, Abs format*
%FSLAX34Y34*%
G01*
G70*
G90*
G04 APERTURE LIST*
%ADD10C,0.005906*%
%ADD11R,0.060000X0.060000*%
%ADD12C,0.060000*%
%ADD13R,0.025000X0.045000*%
%ADD14R,0.078700X0.017700*%
%ADD15R,0.017700X0.078700*%
%ADD16R,0.051200X0.019700*%
%ADD17C,0.133900*%
G04 APERTURE END LIST*
G54D10*
G54D11*
X20559Y-33425D03*
G54D12*
X21559Y-33425D03*
X22559Y-33425D03*
X23559Y-33425D03*
X24559Y-33425D03*
X25559Y-33425D03*
X26559Y-33425D03*
X27559Y-33425D03*
X28559Y-33425D03*
X29559Y-33425D03*
X30559Y-33425D03*
X31559Y-33425D03*
X32559Y-33425D03*
X33559Y-33425D03*
X34559Y-33425D03*
G54D11*
X20559Y-22893D03*
G54D12*
X21559Y-22893D03*
X22559Y-22893D03*
X23559Y-22893D03*
X24559Y-22893D03*
X25559Y-22893D03*
X26559Y-22893D03*
X27559Y-22893D03*
X28559Y-22893D03*
X29559Y-22893D03*
X30559Y-22893D03*
X31559Y-22893D03*
X32559Y-22893D03*
X33559Y-22893D03*
X34559Y-22893D03*
G54D13*
X23233Y-27263D03*
X22633Y-27263D03*
X23213Y-28267D03*
X22613Y-28267D03*
G54D14*
X26056Y-29242D03*
X26056Y-28927D03*
X26056Y-28612D03*
X26056Y-28297D03*
X26056Y-27982D03*
X26056Y-27667D03*
X26056Y-27352D03*
X26056Y-27037D03*
X29822Y-27039D03*
X29822Y-29249D03*
X29822Y-28929D03*
X29822Y-28609D03*
X29822Y-28299D03*
X29822Y-27979D03*
X29822Y-27669D03*
X29822Y-27349D03*
G54D15*
X26840Y-26249D03*
X27154Y-26249D03*
X27470Y-26249D03*
X27784Y-26249D03*
X28100Y-26249D03*
X28414Y-26249D03*
X28730Y-26249D03*
X29044Y-26249D03*
X26842Y-30029D03*
X27152Y-30029D03*
X27472Y-30029D03*
X27782Y-30029D03*
X28092Y-30029D03*
X28412Y-30029D03*
X28732Y-30029D03*
X29052Y-30029D03*
G54D13*
X29129Y-24311D03*
X29729Y-24311D03*
G54D16*
X24212Y-29921D03*
X24212Y-30393D03*
X24212Y-29449D03*
G54D11*
X21744Y-24500D03*
G54D12*
X22744Y-24500D03*
X21744Y-25500D03*
X22744Y-25500D03*
G54D11*
X21744Y-30799D03*
G54D12*
X22744Y-30799D03*
X21744Y-31799D03*
X22744Y-31799D03*
G54D11*
X32374Y-24500D03*
G54D12*
X33374Y-24500D03*
X32374Y-25500D03*
X33374Y-25500D03*
G54D11*
X32374Y-30799D03*
G54D12*
X33374Y-30799D03*
X32374Y-31799D03*
X33374Y-31799D03*
G54D11*
X32007Y-27059D03*
G54D12*
X32007Y-28059D03*
G54D17*
X21259Y-27559D03*
X33858Y-27559D03*
M02*
