M48
;DRILL file {Pcbnew (2013-mar-13)-testing} date Wed 23 Jul 2014 10:31:34 AM PDT
;FORMAT={2:4/ absolute / inch / suppress trailing zeros}
FMAT,2
INCH,LZ
T1C0.025
T2C0.040
T3C0.096
%
G90
G05
M72
T1
X027153Y-030723
X028464Y-027058
X029693Y-025408
T2
X020559Y-022894
X020559Y-033425
X021559Y-022894
X021559Y-033425
X021744Y-0245
X021744Y-0255
X021744Y-030799
X021744Y-031799
X022559Y-022894
X022559Y-033425
X022744Y-0245
X022744Y-0255
X022744Y-030799
X022744Y-031799
X023559Y-022894
X023559Y-033425
X024559Y-022894
X024559Y-033425
X025559Y-022894
X025559Y-033425
X026559Y-022894
X026559Y-033425
X027559Y-022894
X027559Y-033425
X028559Y-022894
X028559Y-033425
X029559Y-022894
X029559Y-033425
X030559Y-022894
X030559Y-033425
X031559Y-022894
X031559Y-033425
X032008Y-027059
X032008Y-028059
X032374Y-0245
X032374Y-0255
X032374Y-030799
X032374Y-031799
X032559Y-022894
X032559Y-033425
X033374Y-0245
X033374Y-0255
X033374Y-030799
X033374Y-031799
X033559Y-022894
X033559Y-033425
X034559Y-022894
X034559Y-033425
T3
X02126Y-027559
X033858Y-027559
T0
M30
