G04 (created by PCBNEW (2013-mar-13)-testing) date Wed 23 Jul 2014 10:31:31 AM PDT*
%MOIN*%
G04 Gerber Fmt 3.4, Leading zero omitted, Abs format*
%FSLAX34Y34*%
G01*
G70*
G90*
G04 APERTURE LIST*
%ADD10C,0.005906*%
%ADD11C,0.015000*%
%ADD12C,0.004700*%
%ADD13C,0.006000*%
%ADD14C,0.005000*%
%ADD15C,0.008000*%
%ADD16C,0.012000*%
%ADD17C,0.004500*%
G04 APERTURE END LIST*
G54D10*
G54D11*
X35059Y-35425D02*
X35059Y-32925D01*
X33609Y-35425D02*
X35059Y-35425D01*
X33609Y-32925D02*
X35009Y-32925D01*
X35009Y-32925D02*
X35059Y-32925D01*
X21559Y-32925D02*
X20059Y-32925D01*
X20059Y-32925D02*
X20059Y-35425D01*
X20059Y-35425D02*
X22059Y-35425D01*
X21559Y-32925D02*
X33559Y-32925D01*
X21559Y-35425D02*
X33559Y-35425D01*
X33559Y-19693D02*
X35059Y-19693D01*
X35059Y-19693D02*
X35059Y-19993D01*
X21559Y-19693D02*
X20059Y-19693D01*
X20059Y-19693D02*
X20059Y-19893D01*
X21559Y-23393D02*
X20059Y-23393D01*
X20059Y-23393D02*
X20059Y-19893D01*
X33559Y-23393D02*
X35059Y-23393D01*
X35059Y-23393D02*
X35059Y-19893D01*
X33559Y-23393D02*
X21559Y-23393D01*
X21559Y-19693D02*
X33559Y-19693D01*
G54D12*
X22736Y-27007D02*
X22461Y-27007D01*
X23130Y-27007D02*
X23405Y-27007D01*
X22736Y-27519D02*
X22461Y-27519D01*
X23405Y-27519D02*
X23130Y-27519D01*
X22461Y-27513D02*
X22461Y-27013D01*
X23405Y-27013D02*
X23405Y-27513D01*
X22716Y-28011D02*
X22441Y-28011D01*
X23110Y-28011D02*
X23385Y-28011D01*
X22716Y-28523D02*
X22441Y-28523D01*
X23385Y-28523D02*
X23110Y-28523D01*
X22441Y-28517D02*
X22441Y-28017D01*
X23385Y-28017D02*
X23385Y-28517D01*
G54D13*
X29932Y-29239D02*
X29482Y-29239D01*
X29932Y-27059D02*
X29492Y-27059D01*
X29932Y-29239D02*
X29932Y-27059D01*
X29052Y-29709D02*
X29052Y-30139D01*
X26842Y-29719D02*
X26842Y-30139D01*
X26832Y-30139D02*
X29052Y-30149D01*
X26852Y-26169D02*
X29022Y-26159D01*
X26422Y-26859D02*
X26422Y-29689D01*
X29032Y-26169D02*
X29032Y-26579D01*
X26672Y-26619D02*
X29452Y-26619D01*
X29472Y-29699D02*
X29472Y-26659D01*
X26422Y-29699D02*
X29422Y-29699D01*
X25972Y-27029D02*
X25972Y-29249D01*
X25972Y-29249D02*
X26422Y-29249D01*
X26426Y-26849D02*
X26656Y-26619D01*
X25974Y-27029D02*
X26426Y-27029D01*
X26852Y-26619D02*
X26852Y-26167D01*
X27023Y-27023D02*
G75*
G03X27023Y-27023I-188J0D01*
G74*
G01*
G54D14*
X29232Y-24036D02*
X28954Y-24036D01*
X28954Y-24036D02*
X28954Y-24586D01*
X28954Y-24586D02*
X29232Y-24586D01*
X29904Y-24036D02*
X29626Y-24036D01*
X29904Y-24036D02*
X29904Y-24586D01*
X29904Y-24586D02*
X29626Y-24586D01*
G54D15*
X24566Y-29252D02*
X24566Y-30590D01*
X24566Y-30590D02*
X23858Y-30590D01*
X23858Y-30590D02*
X23858Y-29252D01*
X23858Y-29252D02*
X24566Y-29252D01*
G54D16*
X23244Y-24000D02*
X23244Y-26000D01*
X23244Y-26000D02*
X21244Y-26000D01*
X21244Y-26000D02*
X21244Y-24000D01*
X21244Y-24000D02*
X23244Y-24000D01*
X23244Y-30299D02*
X23244Y-32299D01*
X23244Y-32299D02*
X21244Y-32299D01*
X21244Y-32299D02*
X21244Y-30299D01*
X21244Y-30299D02*
X23244Y-30299D01*
X33874Y-24000D02*
X33874Y-26000D01*
X33874Y-26000D02*
X31874Y-26000D01*
X31874Y-26000D02*
X31874Y-24000D01*
X31874Y-24000D02*
X33874Y-24000D01*
X33874Y-30299D02*
X33874Y-32299D01*
X33874Y-32299D02*
X31874Y-32299D01*
X31874Y-32299D02*
X31874Y-30299D01*
X31874Y-30299D02*
X33874Y-30299D01*
G54D15*
X20344Y-35145D02*
X20344Y-34745D01*
X20497Y-34745D01*
X20535Y-34765D01*
X20554Y-34784D01*
X20573Y-34822D01*
X20573Y-34879D01*
X20554Y-34917D01*
X20535Y-34936D01*
X20497Y-34955D01*
X20344Y-34955D01*
X20954Y-35145D02*
X20725Y-35145D01*
X20840Y-35145D02*
X20840Y-34745D01*
X20801Y-34803D01*
X20763Y-34841D01*
X20725Y-34860D01*
X20354Y-20290D02*
X20354Y-19890D01*
X20507Y-19890D01*
X20545Y-19910D01*
X20564Y-19929D01*
X20583Y-19967D01*
X20583Y-20024D01*
X20564Y-20062D01*
X20545Y-20081D01*
X20507Y-20100D01*
X20354Y-20100D01*
X20735Y-19929D02*
X20754Y-19910D01*
X20792Y-19890D01*
X20888Y-19890D01*
X20926Y-19910D01*
X20945Y-19929D01*
X20964Y-19967D01*
X20964Y-20005D01*
X20945Y-20062D01*
X20716Y-20290D01*
X20964Y-20290D01*
G54D17*
X23004Y-27293D02*
X23014Y-27302D01*
X23023Y-27328D01*
X23023Y-27345D01*
X23014Y-27370D01*
X22994Y-27388D01*
X22975Y-27396D01*
X22937Y-27405D01*
X22909Y-27405D01*
X22871Y-27396D01*
X22852Y-27388D01*
X22833Y-27370D01*
X22823Y-27345D01*
X22823Y-27328D01*
X22833Y-27302D01*
X22842Y-27293D01*
X23023Y-27122D02*
X23023Y-27225D01*
X23023Y-27173D02*
X22823Y-27173D01*
X22852Y-27190D01*
X22871Y-27208D01*
X22880Y-27225D01*
X23473Y-27559D02*
X23473Y-27542D01*
X23483Y-27525D01*
X23492Y-27516D01*
X23511Y-27508D01*
X23549Y-27499D01*
X23597Y-27499D01*
X23635Y-27508D01*
X23654Y-27516D01*
X23664Y-27525D01*
X23673Y-27542D01*
X23673Y-27559D01*
X23664Y-27576D01*
X23654Y-27585D01*
X23635Y-27593D01*
X23597Y-27602D01*
X23549Y-27602D01*
X23511Y-27593D01*
X23492Y-27585D01*
X23483Y-27576D01*
X23473Y-27559D01*
X23654Y-27422D02*
X23664Y-27413D01*
X23673Y-27422D01*
X23664Y-27430D01*
X23654Y-27422D01*
X23673Y-27422D01*
X23673Y-27242D02*
X23673Y-27345D01*
X23673Y-27293D02*
X23473Y-27293D01*
X23502Y-27310D01*
X23521Y-27328D01*
X23530Y-27345D01*
X23540Y-27088D02*
X23673Y-27088D01*
X23540Y-27165D02*
X23644Y-27165D01*
X23664Y-27156D01*
X23673Y-27139D01*
X23673Y-27113D01*
X23664Y-27096D01*
X23654Y-27088D01*
X23568Y-26942D02*
X23568Y-27002D01*
X23673Y-27002D02*
X23473Y-27002D01*
X23473Y-26916D01*
X22984Y-28297D02*
X22994Y-28306D01*
X23003Y-28332D01*
X23003Y-28349D01*
X22994Y-28374D01*
X22975Y-28392D01*
X22956Y-28400D01*
X22918Y-28409D01*
X22889Y-28409D01*
X22851Y-28400D01*
X22832Y-28392D01*
X22813Y-28374D01*
X22803Y-28349D01*
X22803Y-28332D01*
X22813Y-28306D01*
X22822Y-28297D01*
X22822Y-28229D02*
X22813Y-28220D01*
X22803Y-28203D01*
X22803Y-28160D01*
X22813Y-28143D01*
X22822Y-28134D01*
X22841Y-28126D01*
X22861Y-28126D01*
X22889Y-28134D01*
X23003Y-28237D01*
X23003Y-28126D01*
X23453Y-28563D02*
X23453Y-28546D01*
X23463Y-28529D01*
X23472Y-28520D01*
X23491Y-28512D01*
X23530Y-28503D01*
X23577Y-28503D01*
X23615Y-28512D01*
X23634Y-28520D01*
X23644Y-28529D01*
X23653Y-28546D01*
X23653Y-28563D01*
X23644Y-28580D01*
X23634Y-28589D01*
X23615Y-28597D01*
X23577Y-28606D01*
X23530Y-28606D01*
X23491Y-28597D01*
X23472Y-28589D01*
X23463Y-28580D01*
X23453Y-28563D01*
X23634Y-28426D02*
X23644Y-28417D01*
X23653Y-28426D01*
X23644Y-28434D01*
X23634Y-28426D01*
X23653Y-28426D01*
X23653Y-28246D02*
X23653Y-28349D01*
X23653Y-28297D02*
X23453Y-28297D01*
X23482Y-28314D01*
X23501Y-28332D01*
X23511Y-28349D01*
X23520Y-28092D02*
X23653Y-28092D01*
X23520Y-28169D02*
X23625Y-28169D01*
X23644Y-28160D01*
X23653Y-28143D01*
X23653Y-28117D01*
X23644Y-28100D01*
X23634Y-28092D01*
X23549Y-27946D02*
X23549Y-28006D01*
X23653Y-28006D02*
X23453Y-28006D01*
X23453Y-27920D01*
G54D15*
X25623Y-26295D02*
X25623Y-25895D01*
X26042Y-26257D02*
X26023Y-26276D01*
X25966Y-26295D01*
X25927Y-26295D01*
X25870Y-26276D01*
X25832Y-26238D01*
X25813Y-26200D01*
X25794Y-26124D01*
X25794Y-26067D01*
X25813Y-25991D01*
X25832Y-25953D01*
X25870Y-25915D01*
X25927Y-25895D01*
X25966Y-25895D01*
X26023Y-25915D01*
X26042Y-25934D01*
X26404Y-25895D02*
X26213Y-25895D01*
X26194Y-26086D01*
X26213Y-26067D01*
X26251Y-26048D01*
X26347Y-26048D01*
X26385Y-26067D01*
X26404Y-26086D01*
X26423Y-26124D01*
X26423Y-26219D01*
X26404Y-26257D01*
X26385Y-26276D01*
X26347Y-26295D01*
X26251Y-26295D01*
X26213Y-26276D01*
X26194Y-26257D01*
G54D17*
X29543Y-24316D02*
X29449Y-24376D01*
X29543Y-24418D02*
X29346Y-24418D01*
X29346Y-24350D01*
X29355Y-24333D01*
X29365Y-24324D01*
X29383Y-24316D01*
X29411Y-24316D01*
X29430Y-24324D01*
X29440Y-24333D01*
X29449Y-24350D01*
X29449Y-24418D01*
X29346Y-24153D02*
X29346Y-24238D01*
X29440Y-24247D01*
X29430Y-24238D01*
X29421Y-24221D01*
X29421Y-24178D01*
X29430Y-24161D01*
X29440Y-24153D01*
X29458Y-24144D01*
X29505Y-24144D01*
X29524Y-24153D01*
X29533Y-24161D01*
X29543Y-24178D01*
X29543Y-24221D01*
X29533Y-24238D01*
X29524Y-24247D01*
X28850Y-24332D02*
X28850Y-24435D01*
X28850Y-24383D02*
X28650Y-24383D01*
X28679Y-24401D01*
X28698Y-24418D01*
X28707Y-24435D01*
X28850Y-24255D02*
X28650Y-24255D01*
X28774Y-24238D02*
X28850Y-24186D01*
X28717Y-24186D02*
X28793Y-24255D01*
G54D15*
X24741Y-30166D02*
X25141Y-29899D01*
X24741Y-29899D02*
X25141Y-30166D01*
X24741Y-29556D02*
X24741Y-29747D01*
X24932Y-29766D01*
X24913Y-29747D01*
X24893Y-29709D01*
X24893Y-29613D01*
X24913Y-29575D01*
X24932Y-29556D01*
X24970Y-29537D01*
X25065Y-29537D01*
X25103Y-29556D01*
X25122Y-29575D01*
X25141Y-29613D01*
X25141Y-29709D01*
X25122Y-29747D01*
X25103Y-29766D01*
X23775Y-25145D02*
X23375Y-25145D01*
X23375Y-24992D01*
X23394Y-24954D01*
X23413Y-24935D01*
X23451Y-24916D01*
X23508Y-24916D01*
X23546Y-24935D01*
X23565Y-24954D01*
X23584Y-24992D01*
X23584Y-25145D01*
X23508Y-24573D02*
X23775Y-24573D01*
X23355Y-24669D02*
X23641Y-24764D01*
X23641Y-24516D01*
X23802Y-31673D02*
X23402Y-31673D01*
X23402Y-31520D01*
X23422Y-31482D01*
X23441Y-31463D01*
X23479Y-31444D01*
X23536Y-31444D01*
X23574Y-31463D01*
X23593Y-31482D01*
X23612Y-31520D01*
X23612Y-31673D01*
X23402Y-31082D02*
X23402Y-31273D01*
X23593Y-31292D01*
X23574Y-31273D01*
X23555Y-31235D01*
X23555Y-31139D01*
X23574Y-31101D01*
X23593Y-31082D01*
X23631Y-31063D01*
X23726Y-31063D01*
X23764Y-31082D01*
X23783Y-31101D01*
X23802Y-31139D01*
X23802Y-31235D01*
X23783Y-31273D01*
X23764Y-31292D01*
X34404Y-25145D02*
X34004Y-25145D01*
X34004Y-24992D01*
X34024Y-24954D01*
X34043Y-24935D01*
X34081Y-24916D01*
X34138Y-24916D01*
X34176Y-24935D01*
X34195Y-24954D01*
X34214Y-24992D01*
X34214Y-25145D01*
X34004Y-24573D02*
X34004Y-24649D01*
X34024Y-24688D01*
X34043Y-24707D01*
X34100Y-24745D01*
X34176Y-24764D01*
X34328Y-24764D01*
X34366Y-24745D01*
X34385Y-24726D01*
X34404Y-24688D01*
X34404Y-24611D01*
X34385Y-24573D01*
X34366Y-24554D01*
X34328Y-24535D01*
X34233Y-24535D01*
X34195Y-24554D01*
X34176Y-24573D01*
X34157Y-24611D01*
X34157Y-24688D01*
X34176Y-24726D01*
X34195Y-24745D01*
X34233Y-24764D01*
X34404Y-31444D02*
X34004Y-31444D01*
X34004Y-31292D01*
X34024Y-31253D01*
X34043Y-31234D01*
X34081Y-31215D01*
X34138Y-31215D01*
X34176Y-31234D01*
X34195Y-31253D01*
X34214Y-31292D01*
X34214Y-31444D01*
X34004Y-31082D02*
X34004Y-30815D01*
X34404Y-30987D01*
M02*
