M48
;DRILL file {Pcbnew (2013-mar-13)-testing} date Wed 08 Oct 2014 05:14:44 PM PDT
;FORMAT={2:4/ absolute / inch / suppress trailing zeros}
FMAT,2
INCH,LZ
T1C0.025
T2C0.031
T3C0.040
T4C0.063
T5C0.070
T6C0.106
T7C0.106
T8C0.120
T9C0.124
%
G90
G05
M72
T1
X043334Y-036492
X045401Y-024788
X045587Y-036817
X046179Y-036961
X047795Y-024999
X056658Y-023624
X057044Y-025749
X058142Y-033211
X058406Y-023945
X064057Y-024906
X066695Y-031689
X067346Y-029837
X070411Y-031303
X071564Y-02465
X072582Y-024307
X07496Y-025267
X082791Y-022231
X083086Y-025347
X08761Y-032433
X088324Y-032597
X090508Y-035385
X090636Y-025108
X091102Y-03563
X09161Y-024778
X092974Y-025842
X094868Y-024935
X095279Y-02421
X096408Y-024359
X098767Y-032101
X10013Y-032111
X100449Y-031703
X100608Y-032373
X100907Y-038263
X102007Y-023413
X103681Y-034909
X104048Y-032835
X104079Y-025389
X105429Y-025842
X107266Y-02452
T2
X093915Y-035663
X093915Y-037163
X094415Y-036413
X094415Y-037913
X094915Y-035663
X094915Y-037163
X095415Y-036413
X095415Y-037913
X095915Y-035663
X095915Y-037163
X096415Y-036413
X096415Y-037913
X096915Y-035663
X096915Y-037163
X097415Y-036413
X097415Y-037913
X097915Y-035663
X097915Y-037163
X098415Y-036413
X098415Y-037913
X098915Y-035663
X098915Y-037163
X099415Y-036413
X099415Y-037913
X099915Y-035663
X099915Y-037163
X100415Y-036413
X100415Y-037913
X100915Y-035663
X100915Y-037163
X101415Y-036413
X101415Y-037913
X101915Y-035663
X101915Y-037163
X102415Y-036413
X102415Y-037913
X102915Y-035663
X102915Y-037163
X103415Y-036413
X103415Y-037913
X103915Y-035663
X103915Y-037163
X104415Y-036413
X104415Y-037913
X104915Y-035663
X104915Y-037163
X105415Y-036413
X105415Y-037913
X105915Y-035663
X105915Y-037163
X106415Y-036413
X106415Y-037913
X106915Y-035663
X106915Y-037163
X107415Y-036413
X107415Y-037913
X107915Y-035663
X107915Y-037163
X108415Y-036413
X108415Y-037913
X108915Y-035663
X108915Y-037163
X109415Y-036413
X109415Y-037913
X109915Y-035663
X109915Y-037163
X110415Y-036413
X110415Y-037913
T3
X020461Y-022874
X021461Y-022874
X022461Y-022874
X023461Y-022874
X024461Y-022874
X025461Y-022874
X026461Y-022874
X027461Y-022874
X028461Y-022874
X029461Y-022874
X029559Y-027138
X030461Y-022874
X031461Y-022874
X031559Y-027138
X032461Y-022874
X033461Y-022874
X034461Y-022874
X036248Y-022874
X037248Y-022874
X038248Y-022874
X038528Y-034209
X038528Y-035209
X039248Y-022874
X039528Y-034209
X039528Y-035209
X040248Y-022874
X040528Y-034209
X040528Y-035209
X041248Y-022874
X041528Y-034209
X041528Y-035209
X042248Y-022874
X042528Y-034209
X042528Y-035209
X043248Y-022874
X043528Y-034209
X043528Y-035209
X044248Y-022874
X044528Y-034209
X044528Y-035209
X045248Y-022874
X045528Y-034209
X045528Y-035209
X045701Y-027138
X046248Y-022874
X046528Y-034209
X046528Y-035209
X047248Y-022874
X047528Y-034209
X047528Y-035209
X047701Y-027138
X048248Y-022874
X048528Y-034209
X048528Y-035209
X049248Y-022874
X049528Y-034209
X049528Y-035209
X050248Y-022874
X050528Y-034209
X050528Y-035209
X051528Y-034209
X051528Y-035209
X052035Y-022874
X052528Y-034209
X052528Y-035209
X053035Y-022874
X053528Y-034209
X053528Y-035209
X054035Y-022874
X054528Y-034209
X054528Y-035209
X055035Y-022874
X055528Y-034209
X055528Y-035209
X056035Y-022874
X056528Y-034209
X056528Y-035209
X057035Y-022874
X057528Y-034209
X057528Y-035209
X058035Y-022874
X059035Y-022874
X060035Y-022874
X061035Y-022874
X061449Y-027138
X062035Y-022874
X063012Y-034138
X063012Y-035138
X063035Y-022874
X063449Y-027138
X064012Y-034138
X064012Y-035138
X064035Y-022874
X065012Y-034138
X065012Y-035138
X065035Y-022874
X066012Y-034138
X066012Y-035138
X066035Y-022874
X067012Y-034138
X067012Y-035138
X067823Y-022874
X068012Y-034138
X068012Y-035138
X068823Y-022874
X069012Y-034138
X069012Y-035138
X069823Y-022874
X070012Y-034138
X070012Y-035138
X070823Y-022874
X071012Y-034138
X071012Y-035138
X071823Y-022874
X072012Y-034138
X072012Y-035138
X072823Y-022874
X073012Y-034138
X073012Y-035138
X073823Y-022874
X074012Y-034138
X074012Y-035138
X074823Y-022874
X075012Y-034138
X075012Y-035138
X075823Y-022874
X076012Y-034138
X076012Y-035138
X076823Y-022874
X077012Y-034138
X077012Y-035138
X077591Y-027138
X077823Y-022874
X078012Y-034138
X078012Y-035138
X078823Y-022874
X079012Y-034138
X079012Y-035138
X079591Y-027138
X079823Y-022874
X080012Y-034138
X080012Y-035138
X080823Y-022874
X081012Y-034138
X081012Y-035138
X081823Y-022874
X082012Y-034138
X082012Y-035138
X08361Y-022874
X08461Y-022874
X08561Y-022874
X08661Y-022874
X08761Y-022874
X08861Y-022874
X08961Y-022874
X09061Y-022874
X09161Y-022874
X09261Y-022874
X092945Y-027138
X09361Y-022874
X09461Y-022874
X094945Y-027138
X09561Y-022874
X09661Y-022874
X09761Y-022874
X099398Y-022874
X100398Y-022874
X101398Y-022874
X102398Y-022874
X103398Y-022874
X104398Y-022874
X105398Y-022874
X106398Y-022874
X107398Y-022874
X108398Y-022874
X109398Y-022874
X110398Y-022874
X111398Y-022874
X112398Y-022874
X113398Y-022874
T4
X022638Y-038178
T5
X02948Y-036378
X03135Y-036378
X03322Y-036378
T6
X020868Y-037388
X022638Y-036998
X024408Y-037388
T7
X090766Y-037163
X113565Y-037163
T8
X016732Y-025591
X016732Y-038386
X066929Y-025591
X066929Y-038386
X117126Y-025591
X117126Y-038386
T9
X022638Y-034638
T0
M30
