G04 (created by PCBNEW (2013-mar-13)-testing) date Wed 08 Oct 2014 05:14:40 PM PDT*
%MOIN*%
G04 Gerber Fmt 3.4, Leading zero omitted, Abs format*
%FSLAX34Y34*%
G01*
G70*
G90*
G04 APERTURE LIST*
%ADD10C,0.005906*%
%ADD11C,0.010000*%
%ADD12C,0.015000*%
%ADD13C,0.008000*%
%ADD14C,0.006000*%
%ADD15C,0.011811*%
%ADD16C,0.003100*%
%ADD17C,0.003900*%
%ADD18C,0.012000*%
%ADD19C,0.010800*%
%ADD20C,0.004700*%
%ADD21C,0.004300*%
G04 APERTURE END LIST*
G54D10*
G54D11*
X69980Y-37273D02*
X70051Y-37297D01*
X70170Y-37297D01*
X70218Y-37273D01*
X70242Y-37249D01*
X70266Y-37201D01*
X70266Y-37154D01*
X70242Y-37106D01*
X70218Y-37082D01*
X70170Y-37058D01*
X70075Y-37035D01*
X70028Y-37011D01*
X70004Y-36987D01*
X69980Y-36939D01*
X69980Y-36892D01*
X70004Y-36844D01*
X70028Y-36820D01*
X70075Y-36797D01*
X70194Y-36797D01*
X70266Y-36820D01*
X70480Y-37297D02*
X70480Y-36797D01*
X70670Y-36797D01*
X70718Y-36820D01*
X70742Y-36844D01*
X70766Y-36892D01*
X70766Y-36963D01*
X70742Y-37011D01*
X70718Y-37035D01*
X70670Y-37058D01*
X70480Y-37058D01*
X70980Y-37297D02*
X70980Y-36797D01*
X71956Y-36844D02*
X71980Y-36820D01*
X72028Y-36797D01*
X72147Y-36797D01*
X72194Y-36820D01*
X72218Y-36844D01*
X72242Y-36892D01*
X72242Y-36939D01*
X72218Y-37011D01*
X71932Y-37297D01*
X72242Y-37297D01*
X72551Y-36797D02*
X72599Y-36797D01*
X72647Y-36820D01*
X72670Y-36844D01*
X72694Y-36892D01*
X72718Y-36987D01*
X72718Y-37106D01*
X72694Y-37201D01*
X72670Y-37249D01*
X72647Y-37273D01*
X72599Y-37297D01*
X72551Y-37297D01*
X72504Y-37273D01*
X72480Y-37249D01*
X72456Y-37201D01*
X72432Y-37106D01*
X72432Y-36987D01*
X72456Y-36892D01*
X72480Y-36844D01*
X72504Y-36820D01*
X72551Y-36797D01*
X72885Y-37297D02*
X73147Y-36963D01*
X72885Y-36963D02*
X73147Y-37297D01*
X73313Y-36844D02*
X73337Y-36820D01*
X73385Y-36797D01*
X73504Y-36797D01*
X73551Y-36820D01*
X73575Y-36844D01*
X73599Y-36892D01*
X73599Y-36939D01*
X73575Y-37011D01*
X73289Y-37297D01*
X73599Y-37297D01*
X74170Y-36963D02*
X74528Y-36963D01*
X74313Y-36749D02*
X74170Y-37392D01*
X74480Y-37178D02*
X74123Y-37178D01*
X74337Y-37392D02*
X74480Y-36749D01*
X74670Y-36844D02*
X74694Y-36820D01*
X74742Y-36797D01*
X74861Y-36797D01*
X74908Y-36820D01*
X74932Y-36844D01*
X74956Y-36892D01*
X74956Y-36939D01*
X74932Y-37011D01*
X74647Y-37297D01*
X74956Y-37297D01*
X97054Y-34277D02*
X97054Y-33777D01*
X97340Y-34277D01*
X97340Y-33777D01*
X97578Y-34277D02*
X97578Y-33777D01*
X98173Y-34253D02*
X98244Y-34277D01*
X98363Y-34277D01*
X98411Y-34253D01*
X98435Y-34229D01*
X98459Y-34182D01*
X98459Y-34134D01*
X98435Y-34086D01*
X98411Y-34063D01*
X98363Y-34039D01*
X98268Y-34015D01*
X98221Y-33991D01*
X98197Y-33967D01*
X98173Y-33920D01*
X98173Y-33872D01*
X98197Y-33824D01*
X98221Y-33801D01*
X98268Y-33777D01*
X98387Y-33777D01*
X98459Y-33801D01*
X98673Y-34277D02*
X98673Y-33777D01*
X98863Y-33777D01*
X98911Y-33801D01*
X98935Y-33824D01*
X98959Y-33872D01*
X98959Y-33944D01*
X98935Y-33991D01*
X98911Y-34015D01*
X98863Y-34039D01*
X98673Y-34039D01*
X99173Y-34277D02*
X99173Y-33777D01*
X100006Y-34253D02*
X99959Y-34277D01*
X99863Y-34277D01*
X99816Y-34253D01*
X99792Y-34229D01*
X99768Y-34182D01*
X99768Y-34039D01*
X99792Y-33991D01*
X99816Y-33967D01*
X99863Y-33944D01*
X99959Y-33944D01*
X100006Y-33967D01*
X100292Y-34277D02*
X100244Y-34253D01*
X100221Y-34229D01*
X100197Y-34182D01*
X100197Y-34039D01*
X100221Y-33991D01*
X100244Y-33967D01*
X100292Y-33944D01*
X100363Y-33944D01*
X100411Y-33967D01*
X100435Y-33991D01*
X100459Y-34039D01*
X100459Y-34182D01*
X100435Y-34229D01*
X100411Y-34253D01*
X100363Y-34277D01*
X100292Y-34277D01*
X100673Y-33944D02*
X100673Y-34277D01*
X100673Y-33991D02*
X100697Y-33967D01*
X100744Y-33944D01*
X100816Y-33944D01*
X100863Y-33967D01*
X100887Y-34015D01*
X100887Y-34277D01*
X101125Y-33944D02*
X101125Y-34277D01*
X101125Y-33991D02*
X101149Y-33967D01*
X101197Y-33944D01*
X101268Y-33944D01*
X101316Y-33967D01*
X101340Y-34015D01*
X101340Y-34277D01*
X101768Y-34253D02*
X101721Y-34277D01*
X101625Y-34277D01*
X101578Y-34253D01*
X101554Y-34205D01*
X101554Y-34015D01*
X101578Y-33967D01*
X101625Y-33944D01*
X101721Y-33944D01*
X101768Y-33967D01*
X101792Y-34015D01*
X101792Y-34063D01*
X101554Y-34110D01*
X102221Y-34253D02*
X102173Y-34277D01*
X102078Y-34277D01*
X102030Y-34253D01*
X102006Y-34229D01*
X101982Y-34182D01*
X101982Y-34039D01*
X102006Y-33991D01*
X102030Y-33967D01*
X102078Y-33944D01*
X102173Y-33944D01*
X102221Y-33967D01*
X102363Y-33944D02*
X102554Y-33944D01*
X102435Y-33777D02*
X102435Y-34205D01*
X102459Y-34253D01*
X102506Y-34277D01*
X102554Y-34277D01*
X102792Y-34277D02*
X102744Y-34253D01*
X102721Y-34229D01*
X102697Y-34182D01*
X102697Y-34039D01*
X102721Y-33991D01*
X102744Y-33967D01*
X102792Y-33944D01*
X102863Y-33944D01*
X102911Y-33967D01*
X102935Y-33991D01*
X102959Y-34039D01*
X102959Y-34182D01*
X102935Y-34229D01*
X102911Y-34253D01*
X102863Y-34277D01*
X102792Y-34277D01*
X103173Y-34277D02*
X103173Y-33944D01*
X103173Y-34039D02*
X103197Y-33991D01*
X103221Y-33967D01*
X103268Y-33944D01*
X103316Y-33944D01*
X45539Y-37273D02*
X45610Y-37297D01*
X45729Y-37297D01*
X45777Y-37273D01*
X45801Y-37249D01*
X45825Y-37201D01*
X45825Y-37154D01*
X45801Y-37106D01*
X45777Y-37082D01*
X45729Y-37058D01*
X45634Y-37035D01*
X45587Y-37011D01*
X45563Y-36987D01*
X45539Y-36939D01*
X45539Y-36892D01*
X45563Y-36844D01*
X45587Y-36820D01*
X45634Y-36797D01*
X45753Y-36797D01*
X45825Y-36820D01*
X46039Y-37297D02*
X46039Y-36797D01*
X46229Y-36797D01*
X46277Y-36820D01*
X46301Y-36844D01*
X46325Y-36892D01*
X46325Y-36963D01*
X46301Y-37011D01*
X46277Y-37035D01*
X46229Y-37058D01*
X46039Y-37058D01*
X46539Y-37297D02*
X46539Y-36797D01*
X47515Y-36844D02*
X47539Y-36820D01*
X47587Y-36797D01*
X47706Y-36797D01*
X47753Y-36820D01*
X47777Y-36844D01*
X47801Y-36892D01*
X47801Y-36939D01*
X47777Y-37011D01*
X47491Y-37297D01*
X47801Y-37297D01*
X48110Y-36797D02*
X48158Y-36797D01*
X48206Y-36820D01*
X48229Y-36844D01*
X48253Y-36892D01*
X48277Y-36987D01*
X48277Y-37106D01*
X48253Y-37201D01*
X48229Y-37249D01*
X48206Y-37273D01*
X48158Y-37297D01*
X48110Y-37297D01*
X48063Y-37273D01*
X48039Y-37249D01*
X48015Y-37201D01*
X47991Y-37106D01*
X47991Y-36987D01*
X48015Y-36892D01*
X48039Y-36844D01*
X48063Y-36820D01*
X48110Y-36797D01*
X48444Y-37297D02*
X48706Y-36963D01*
X48444Y-36963D02*
X48706Y-37297D01*
X48872Y-36844D02*
X48896Y-36820D01*
X48944Y-36797D01*
X49063Y-36797D01*
X49110Y-36820D01*
X49134Y-36844D01*
X49158Y-36892D01*
X49158Y-36939D01*
X49134Y-37011D01*
X48848Y-37297D01*
X49158Y-37297D01*
X49729Y-36963D02*
X50087Y-36963D01*
X49872Y-36749D02*
X49729Y-37392D01*
X50039Y-37178D02*
X49682Y-37178D01*
X49896Y-37392D02*
X50039Y-36749D01*
X50515Y-37297D02*
X50229Y-37297D01*
X50372Y-37297D02*
X50372Y-36797D01*
X50325Y-36868D01*
X50277Y-36916D01*
X50229Y-36939D01*
X115640Y-37160D02*
X115974Y-37160D01*
X115450Y-37279D02*
X115807Y-37398D01*
X115807Y-37088D01*
X115974Y-36945D02*
X115640Y-36684D01*
X115640Y-36945D02*
X115974Y-36684D01*
X115521Y-36136D02*
X115498Y-36112D01*
X115474Y-36064D01*
X115474Y-35945D01*
X115498Y-35898D01*
X115521Y-35874D01*
X115569Y-35850D01*
X115617Y-35850D01*
X115688Y-35874D01*
X115974Y-36160D01*
X115974Y-35850D01*
X115474Y-35541D02*
X115474Y-35493D01*
X115498Y-35445D01*
X115521Y-35422D01*
X115569Y-35398D01*
X115664Y-35374D01*
X115783Y-35374D01*
X115878Y-35398D01*
X115926Y-35422D01*
X115950Y-35445D01*
X115974Y-35493D01*
X115974Y-35541D01*
X115950Y-35588D01*
X115926Y-35612D01*
X115878Y-35636D01*
X115783Y-35660D01*
X115664Y-35660D01*
X115569Y-35636D01*
X115521Y-35612D01*
X115498Y-35588D01*
X115474Y-35541D01*
X115974Y-35160D02*
X115640Y-35160D01*
X115688Y-35160D02*
X115664Y-35136D01*
X115640Y-35088D01*
X115640Y-35017D01*
X115664Y-34969D01*
X115712Y-34945D01*
X115974Y-34945D01*
X115712Y-34945D02*
X115664Y-34922D01*
X115640Y-34874D01*
X115640Y-34803D01*
X115664Y-34755D01*
X115712Y-34731D01*
X115974Y-34731D01*
X115974Y-34493D02*
X115640Y-34493D01*
X115688Y-34493D02*
X115664Y-34469D01*
X115640Y-34422D01*
X115640Y-34350D01*
X115664Y-34303D01*
X115712Y-34279D01*
X115974Y-34279D01*
X115712Y-34279D02*
X115664Y-34255D01*
X115640Y-34207D01*
X115640Y-34136D01*
X115664Y-34088D01*
X115712Y-34064D01*
X115974Y-34064D01*
X115831Y-33469D02*
X115831Y-33231D01*
X115974Y-33517D02*
X115474Y-33350D01*
X115974Y-33184D01*
X115640Y-33088D02*
X115640Y-32898D01*
X115474Y-33017D02*
X115902Y-33017D01*
X115950Y-32993D01*
X115974Y-32945D01*
X115974Y-32898D01*
X115974Y-32731D02*
X115640Y-32731D01*
X115688Y-32731D02*
X115664Y-32707D01*
X115640Y-32660D01*
X115640Y-32588D01*
X115664Y-32541D01*
X115712Y-32517D01*
X115974Y-32517D01*
X115712Y-32517D02*
X115664Y-32493D01*
X115640Y-32445D01*
X115640Y-32374D01*
X115664Y-32326D01*
X115712Y-32303D01*
X115974Y-32303D01*
X115950Y-31874D02*
X115974Y-31922D01*
X115974Y-32017D01*
X115950Y-32064D01*
X115902Y-32088D01*
X115712Y-32088D01*
X115664Y-32064D01*
X115640Y-32017D01*
X115640Y-31922D01*
X115664Y-31874D01*
X115712Y-31850D01*
X115759Y-31850D01*
X115807Y-32088D01*
X115640Y-31422D02*
X116045Y-31422D01*
X116093Y-31445D01*
X116117Y-31469D01*
X116140Y-31517D01*
X116140Y-31588D01*
X116117Y-31636D01*
X115950Y-31422D02*
X115974Y-31469D01*
X115974Y-31564D01*
X115950Y-31612D01*
X115926Y-31636D01*
X115878Y-31660D01*
X115736Y-31660D01*
X115688Y-31636D01*
X115664Y-31612D01*
X115640Y-31564D01*
X115640Y-31469D01*
X115664Y-31422D01*
X115974Y-30969D02*
X115712Y-30969D01*
X115664Y-30993D01*
X115640Y-31041D01*
X115640Y-31136D01*
X115664Y-31184D01*
X115950Y-30969D02*
X115974Y-31017D01*
X115974Y-31136D01*
X115950Y-31184D01*
X115902Y-31207D01*
X115855Y-31207D01*
X115807Y-31184D01*
X115783Y-31136D01*
X115783Y-31017D01*
X115759Y-30969D01*
X115474Y-30779D02*
X115474Y-30469D01*
X115664Y-30636D01*
X115664Y-30564D01*
X115688Y-30517D01*
X115712Y-30493D01*
X115759Y-30469D01*
X115878Y-30469D01*
X115926Y-30493D01*
X115950Y-30517D01*
X115974Y-30564D01*
X115974Y-30707D01*
X115950Y-30755D01*
X115926Y-30779D01*
X115521Y-30279D02*
X115498Y-30255D01*
X115474Y-30207D01*
X115474Y-30088D01*
X115498Y-30041D01*
X115521Y-30017D01*
X115569Y-29993D01*
X115617Y-29993D01*
X115688Y-30017D01*
X115974Y-30303D01*
X115974Y-29993D01*
X115688Y-29707D02*
X115664Y-29755D01*
X115640Y-29779D01*
X115593Y-29803D01*
X115569Y-29803D01*
X115521Y-29779D01*
X115498Y-29755D01*
X115474Y-29707D01*
X115474Y-29612D01*
X115498Y-29564D01*
X115521Y-29541D01*
X115569Y-29517D01*
X115593Y-29517D01*
X115640Y-29541D01*
X115664Y-29564D01*
X115688Y-29612D01*
X115688Y-29707D01*
X115712Y-29755D01*
X115736Y-29779D01*
X115783Y-29803D01*
X115878Y-29803D01*
X115926Y-29779D01*
X115950Y-29755D01*
X115974Y-29707D01*
X115974Y-29612D01*
X115950Y-29564D01*
X115926Y-29541D01*
X115878Y-29517D01*
X115783Y-29517D01*
X115736Y-29541D01*
X115712Y-29564D01*
X115688Y-29612D01*
X115474Y-28993D02*
X115474Y-28707D01*
X115974Y-28850D02*
X115474Y-28850D01*
X115950Y-28350D02*
X115974Y-28398D01*
X115974Y-28493D01*
X115950Y-28541D01*
X115902Y-28564D01*
X115712Y-28564D01*
X115664Y-28541D01*
X115640Y-28493D01*
X115640Y-28398D01*
X115664Y-28350D01*
X115712Y-28326D01*
X115759Y-28326D01*
X115807Y-28564D01*
X115950Y-28136D02*
X115974Y-28088D01*
X115974Y-27993D01*
X115950Y-27945D01*
X115902Y-27922D01*
X115878Y-27922D01*
X115831Y-27945D01*
X115807Y-27993D01*
X115807Y-28064D01*
X115783Y-28112D01*
X115736Y-28136D01*
X115712Y-28136D01*
X115664Y-28112D01*
X115640Y-28064D01*
X115640Y-27993D01*
X115664Y-27945D01*
X115640Y-27779D02*
X115640Y-27588D01*
X115474Y-27707D02*
X115902Y-27707D01*
X115950Y-27684D01*
X115974Y-27636D01*
X115974Y-27588D01*
X115831Y-27064D02*
X115831Y-26826D01*
X115974Y-27112D02*
X115474Y-26945D01*
X115974Y-26779D01*
X115974Y-26612D02*
X115640Y-26612D01*
X115736Y-26612D02*
X115688Y-26588D01*
X115664Y-26564D01*
X115640Y-26517D01*
X115640Y-26469D01*
X115950Y-26112D02*
X115974Y-26160D01*
X115974Y-26255D01*
X115950Y-26303D01*
X115902Y-26326D01*
X115712Y-26326D01*
X115664Y-26303D01*
X115640Y-26255D01*
X115640Y-26160D01*
X115664Y-26112D01*
X115712Y-26088D01*
X115759Y-26088D01*
X115807Y-26326D01*
X115640Y-25874D02*
X115974Y-25874D01*
X115688Y-25874D02*
X115664Y-25850D01*
X115640Y-25803D01*
X115640Y-25731D01*
X115664Y-25684D01*
X115712Y-25660D01*
X115974Y-25660D01*
X115974Y-25207D02*
X115712Y-25207D01*
X115664Y-25231D01*
X115640Y-25279D01*
X115640Y-25374D01*
X115664Y-25422D01*
X115950Y-25207D02*
X115974Y-25255D01*
X115974Y-25374D01*
X115950Y-25422D01*
X115902Y-25445D01*
X115855Y-25445D01*
X115807Y-25422D01*
X115783Y-25374D01*
X115783Y-25255D01*
X115759Y-25207D01*
X115640Y-24636D02*
X115974Y-24517D01*
X115640Y-24398D01*
X115474Y-24112D02*
X115474Y-24064D01*
X115498Y-24017D01*
X115521Y-23993D01*
X115569Y-23969D01*
X115664Y-23945D01*
X115783Y-23945D01*
X115878Y-23969D01*
X115926Y-23993D01*
X115950Y-24017D01*
X115974Y-24064D01*
X115974Y-24112D01*
X115950Y-24160D01*
X115926Y-24184D01*
X115878Y-24207D01*
X115783Y-24231D01*
X115664Y-24231D01*
X115569Y-24207D01*
X115521Y-24184D01*
X115498Y-24160D01*
X115474Y-24112D01*
X115926Y-23731D02*
X115950Y-23707D01*
X115974Y-23731D01*
X115950Y-23755D01*
X115926Y-23731D01*
X115974Y-23731D01*
X115521Y-23517D02*
X115498Y-23493D01*
X115474Y-23445D01*
X115474Y-23326D01*
X115498Y-23279D01*
X115521Y-23255D01*
X115569Y-23231D01*
X115617Y-23231D01*
X115688Y-23255D01*
X115974Y-23541D01*
X115974Y-23231D01*
X116440Y-33434D02*
X116774Y-33338D01*
X116536Y-33243D01*
X116774Y-33148D01*
X116440Y-33053D01*
X116440Y-32910D02*
X116774Y-32814D01*
X116536Y-32719D01*
X116774Y-32624D01*
X116440Y-32529D01*
X116440Y-32386D02*
X116774Y-32291D01*
X116536Y-32195D01*
X116774Y-32100D01*
X116440Y-32005D01*
X116726Y-31814D02*
X116750Y-31791D01*
X116774Y-31814D01*
X116750Y-31838D01*
X116726Y-31814D01*
X116774Y-31814D01*
X116774Y-31576D02*
X116440Y-31576D01*
X116274Y-31576D02*
X116298Y-31600D01*
X116321Y-31576D01*
X116298Y-31553D01*
X116274Y-31576D01*
X116321Y-31576D01*
X116774Y-31267D02*
X116750Y-31314D01*
X116726Y-31338D01*
X116678Y-31362D01*
X116536Y-31362D01*
X116488Y-31338D01*
X116464Y-31314D01*
X116440Y-31267D01*
X116440Y-31195D01*
X116464Y-31148D01*
X116488Y-31124D01*
X116536Y-31100D01*
X116678Y-31100D01*
X116726Y-31124D01*
X116750Y-31148D01*
X116774Y-31195D01*
X116774Y-31267D01*
X116774Y-30886D02*
X116440Y-30886D01*
X116536Y-30886D02*
X116488Y-30862D01*
X116464Y-30838D01*
X116440Y-30791D01*
X116440Y-30743D01*
X116774Y-30505D02*
X116750Y-30553D01*
X116726Y-30576D01*
X116678Y-30600D01*
X116536Y-30600D01*
X116488Y-30576D01*
X116464Y-30553D01*
X116440Y-30505D01*
X116440Y-30434D01*
X116464Y-30386D01*
X116488Y-30362D01*
X116536Y-30338D01*
X116678Y-30338D01*
X116726Y-30362D01*
X116750Y-30386D01*
X116774Y-30434D01*
X116774Y-30505D01*
X116774Y-29910D02*
X116274Y-29910D01*
X116750Y-29910D02*
X116774Y-29957D01*
X116774Y-30053D01*
X116750Y-30100D01*
X116726Y-30124D01*
X116678Y-30148D01*
X116536Y-30148D01*
X116488Y-30124D01*
X116464Y-30100D01*
X116440Y-30053D01*
X116440Y-29957D01*
X116464Y-29910D01*
X116750Y-29481D02*
X116774Y-29529D01*
X116774Y-29624D01*
X116750Y-29672D01*
X116702Y-29695D01*
X116512Y-29695D01*
X116464Y-29672D01*
X116440Y-29624D01*
X116440Y-29529D01*
X116464Y-29481D01*
X116512Y-29457D01*
X116559Y-29457D01*
X116607Y-29695D01*
X116774Y-29172D02*
X116750Y-29219D01*
X116726Y-29243D01*
X116678Y-29267D01*
X116536Y-29267D01*
X116488Y-29243D01*
X116464Y-29219D01*
X116440Y-29172D01*
X116440Y-29100D01*
X116464Y-29053D01*
X116488Y-29029D01*
X116536Y-29005D01*
X116678Y-29005D01*
X116726Y-29029D01*
X116750Y-29053D01*
X116774Y-29100D01*
X116774Y-29172D01*
X116726Y-28791D02*
X116750Y-28767D01*
X116774Y-28791D01*
X116750Y-28814D01*
X116726Y-28791D01*
X116774Y-28791D01*
X116750Y-28338D02*
X116774Y-28386D01*
X116774Y-28481D01*
X116750Y-28529D01*
X116726Y-28553D01*
X116678Y-28576D01*
X116536Y-28576D01*
X116488Y-28553D01*
X116464Y-28529D01*
X116440Y-28481D01*
X116440Y-28386D01*
X116464Y-28338D01*
X116774Y-28053D02*
X116750Y-28100D01*
X116726Y-28124D01*
X116678Y-28148D01*
X116536Y-28148D01*
X116488Y-28124D01*
X116464Y-28100D01*
X116440Y-28053D01*
X116440Y-27981D01*
X116464Y-27934D01*
X116488Y-27910D01*
X116536Y-27886D01*
X116678Y-27886D01*
X116726Y-27910D01*
X116750Y-27934D01*
X116774Y-27981D01*
X116774Y-28053D01*
X116774Y-27672D02*
X116440Y-27672D01*
X116488Y-27672D02*
X116464Y-27648D01*
X116440Y-27600D01*
X116440Y-27529D01*
X116464Y-27481D01*
X116512Y-27457D01*
X116774Y-27457D01*
X116512Y-27457D02*
X116464Y-27434D01*
X116440Y-27386D01*
X116440Y-27314D01*
X116464Y-27267D01*
X116512Y-27243D01*
X116774Y-27243D01*
X19240Y-38906D02*
X19240Y-38525D01*
X19430Y-38716D02*
X19049Y-38716D01*
X18930Y-38049D02*
X18930Y-38287D01*
X19169Y-38311D01*
X19145Y-38287D01*
X19121Y-38240D01*
X19121Y-38121D01*
X19145Y-38073D01*
X19169Y-38049D01*
X19216Y-38025D01*
X19335Y-38025D01*
X19383Y-38049D01*
X19407Y-38073D01*
X19430Y-38121D01*
X19430Y-38240D01*
X19407Y-38287D01*
X19383Y-38311D01*
X18930Y-37883D02*
X19430Y-37716D01*
X18930Y-37549D01*
X19383Y-36716D02*
X19407Y-36740D01*
X19430Y-36811D01*
X19430Y-36859D01*
X19407Y-36930D01*
X19359Y-36978D01*
X19311Y-37002D01*
X19216Y-37025D01*
X19145Y-37025D01*
X19049Y-37002D01*
X19002Y-36978D01*
X18954Y-36930D01*
X18930Y-36859D01*
X18930Y-36811D01*
X18954Y-36740D01*
X18978Y-36716D01*
X19169Y-36502D02*
X19169Y-36335D01*
X19430Y-36264D02*
X19430Y-36502D01*
X18930Y-36502D01*
X18930Y-36264D01*
X19430Y-36049D02*
X18930Y-36049D01*
X19430Y-35764D01*
X18930Y-35764D01*
X18930Y-35597D02*
X18930Y-35311D01*
X19430Y-35454D02*
X18930Y-35454D01*
X19169Y-35145D02*
X19169Y-34978D01*
X19430Y-34906D02*
X19430Y-35145D01*
X18930Y-35145D01*
X18930Y-34906D01*
X19430Y-34406D02*
X19192Y-34573D01*
X19430Y-34692D02*
X18930Y-34692D01*
X18930Y-34502D01*
X18954Y-34454D01*
X18978Y-34430D01*
X19026Y-34406D01*
X19097Y-34406D01*
X19145Y-34430D01*
X19169Y-34454D01*
X19192Y-34502D01*
X19192Y-34692D01*
X19430Y-33811D02*
X18930Y-33811D01*
X18930Y-33621D01*
X18954Y-33573D01*
X18978Y-33549D01*
X19026Y-33525D01*
X19097Y-33525D01*
X19145Y-33549D01*
X19169Y-33573D01*
X19192Y-33621D01*
X19192Y-33811D01*
X18930Y-33216D02*
X18930Y-33121D01*
X18954Y-33073D01*
X19002Y-33025D01*
X19097Y-33002D01*
X19264Y-33002D01*
X19359Y-33025D01*
X19407Y-33073D01*
X19430Y-33121D01*
X19430Y-33216D01*
X19407Y-33264D01*
X19359Y-33311D01*
X19264Y-33335D01*
X19097Y-33335D01*
X19002Y-33311D01*
X18954Y-33264D01*
X18930Y-33216D01*
X19407Y-32811D02*
X19430Y-32740D01*
X19430Y-32621D01*
X19407Y-32573D01*
X19383Y-32549D01*
X19335Y-32525D01*
X19288Y-32525D01*
X19240Y-32549D01*
X19216Y-32573D01*
X19192Y-32621D01*
X19169Y-32716D01*
X19145Y-32764D01*
X19121Y-32787D01*
X19073Y-32811D01*
X19026Y-32811D01*
X18978Y-32787D01*
X18954Y-32764D01*
X18930Y-32716D01*
X18930Y-32597D01*
X18954Y-32525D01*
G54D12*
X32620Y-27137D02*
G75*
G03X32620Y-27137I-2061J0D01*
G74*
G01*
G54D13*
X30659Y-27587D02*
X30909Y-27587D01*
X30909Y-27587D02*
X30909Y-26687D01*
X30659Y-26687D02*
X30909Y-26687D01*
X30659Y-27587D02*
X30659Y-26687D01*
G54D14*
X30109Y-27137D02*
X30209Y-27137D01*
X30209Y-27137D02*
X30209Y-27587D01*
X30209Y-27587D02*
X30459Y-27587D01*
X30459Y-27587D02*
X30459Y-26687D01*
X30459Y-26687D02*
X30209Y-26687D01*
X30209Y-26687D02*
X30209Y-27137D01*
X30809Y-27137D02*
X31009Y-27137D01*
X28059Y-26987D02*
X28059Y-27287D01*
X28209Y-27137D02*
X27909Y-27137D01*
X31009Y-27137D02*
X31209Y-27137D01*
X29909Y-27137D02*
X30109Y-27137D01*
G54D12*
X48762Y-27137D02*
G75*
G03X48762Y-27137I-2061J0D01*
G74*
G01*
G54D13*
X46800Y-27587D02*
X47050Y-27587D01*
X47050Y-27587D02*
X47050Y-26687D01*
X46800Y-26687D02*
X47050Y-26687D01*
X46800Y-27587D02*
X46800Y-26687D01*
G54D14*
X46250Y-27137D02*
X46350Y-27137D01*
X46350Y-27137D02*
X46350Y-27587D01*
X46350Y-27587D02*
X46600Y-27587D01*
X46600Y-27587D02*
X46600Y-26687D01*
X46600Y-26687D02*
X46350Y-26687D01*
X46350Y-26687D02*
X46350Y-27137D01*
X46950Y-27137D02*
X47150Y-27137D01*
X44200Y-26987D02*
X44200Y-27287D01*
X44350Y-27137D02*
X44050Y-27137D01*
X47150Y-27137D02*
X47350Y-27137D01*
X46050Y-27137D02*
X46250Y-27137D01*
G54D12*
X64510Y-27137D02*
G75*
G03X64510Y-27137I-2061J0D01*
G74*
G01*
G54D13*
X62548Y-27587D02*
X62798Y-27587D01*
X62798Y-27587D02*
X62798Y-26687D01*
X62548Y-26687D02*
X62798Y-26687D01*
X62548Y-27587D02*
X62548Y-26687D01*
G54D14*
X61998Y-27137D02*
X62098Y-27137D01*
X62098Y-27137D02*
X62098Y-27587D01*
X62098Y-27587D02*
X62348Y-27587D01*
X62348Y-27587D02*
X62348Y-26687D01*
X62348Y-26687D02*
X62098Y-26687D01*
X62098Y-26687D02*
X62098Y-27137D01*
X62698Y-27137D02*
X62898Y-27137D01*
X59948Y-26987D02*
X59948Y-27287D01*
X60098Y-27137D02*
X59798Y-27137D01*
X62898Y-27137D02*
X63098Y-27137D01*
X61798Y-27137D02*
X61998Y-27137D01*
G54D12*
X80652Y-27137D02*
G75*
G03X80652Y-27137I-2061J0D01*
G74*
G01*
G54D13*
X78690Y-27587D02*
X78940Y-27587D01*
X78940Y-27587D02*
X78940Y-26687D01*
X78690Y-26687D02*
X78940Y-26687D01*
X78690Y-27587D02*
X78690Y-26687D01*
G54D14*
X78140Y-27137D02*
X78240Y-27137D01*
X78240Y-27137D02*
X78240Y-27587D01*
X78240Y-27587D02*
X78490Y-27587D01*
X78490Y-27587D02*
X78490Y-26687D01*
X78490Y-26687D02*
X78240Y-26687D01*
X78240Y-26687D02*
X78240Y-27137D01*
X78840Y-27137D02*
X79040Y-27137D01*
X76090Y-26987D02*
X76090Y-27287D01*
X76240Y-27137D02*
X75940Y-27137D01*
X79040Y-27137D02*
X79240Y-27137D01*
X77940Y-27137D02*
X78140Y-27137D01*
G54D12*
X96006Y-27137D02*
G75*
G03X96006Y-27137I-2061J0D01*
G74*
G01*
G54D13*
X94044Y-27587D02*
X94294Y-27587D01*
X94294Y-27587D02*
X94294Y-26687D01*
X94044Y-26687D02*
X94294Y-26687D01*
X94044Y-27587D02*
X94044Y-26687D01*
G54D14*
X93494Y-27137D02*
X93594Y-27137D01*
X93594Y-27137D02*
X93594Y-27587D01*
X93594Y-27587D02*
X93844Y-27587D01*
X93844Y-27587D02*
X93844Y-26687D01*
X93844Y-26687D02*
X93594Y-26687D01*
X93594Y-26687D02*
X93594Y-27137D01*
X94194Y-27137D02*
X94394Y-27137D01*
X91444Y-26987D02*
X91444Y-27287D01*
X91594Y-27137D02*
X91294Y-27137D01*
X94394Y-27137D02*
X94594Y-27137D01*
X93294Y-27137D02*
X93494Y-27137D01*
G54D15*
X38827Y-36908D02*
X38727Y-36908D01*
X38527Y-36708D02*
X38827Y-36908D01*
X38527Y-36708D02*
X38227Y-36908D01*
X38227Y-36908D02*
X38777Y-36908D01*
X48031Y-36480D02*
X59527Y-36480D01*
X59527Y-36480D02*
X59527Y-32937D01*
X59527Y-32937D02*
X48023Y-32937D01*
X36527Y-34708D02*
X36527Y-36480D01*
X36527Y-36480D02*
X48031Y-36480D01*
X36527Y-34708D02*
X36527Y-32937D01*
X36527Y-32937D02*
X48023Y-32937D01*
G54D12*
X19590Y-23204D02*
X19590Y-23144D01*
X19590Y-23244D02*
X19590Y-23164D01*
X34950Y-19674D02*
X35330Y-19674D01*
X35330Y-23374D02*
X35330Y-23144D01*
X35330Y-19684D02*
X35330Y-19884D01*
X19590Y-19674D02*
X19590Y-19884D01*
X19590Y-23374D02*
X19590Y-23204D01*
X20060Y-19674D02*
X19595Y-19674D01*
X19995Y-23374D02*
X19590Y-23374D01*
X34935Y-23374D02*
X35330Y-23374D01*
X33460Y-19674D02*
X34960Y-19674D01*
X34960Y-19674D02*
X34960Y-19974D01*
X21460Y-19674D02*
X19960Y-19674D01*
X19960Y-19674D02*
X19960Y-19874D01*
X21460Y-23374D02*
X19960Y-23374D01*
X19960Y-23374D02*
X19960Y-19874D01*
X33460Y-23374D02*
X34960Y-23374D01*
X34960Y-23374D02*
X34960Y-19874D01*
X33460Y-23374D02*
X21460Y-23374D01*
X21460Y-19674D02*
X33460Y-19674D01*
X35378Y-23204D02*
X35378Y-23144D01*
X35378Y-23244D02*
X35378Y-23164D01*
X50738Y-19674D02*
X51118Y-19674D01*
X51118Y-23374D02*
X51118Y-23144D01*
X51118Y-19684D02*
X51118Y-19884D01*
X35378Y-19674D02*
X35378Y-19884D01*
X35378Y-23374D02*
X35378Y-23204D01*
X35848Y-19674D02*
X35383Y-19674D01*
X35783Y-23374D02*
X35378Y-23374D01*
X50723Y-23374D02*
X51118Y-23374D01*
X49248Y-19674D02*
X50748Y-19674D01*
X50748Y-19674D02*
X50748Y-19974D01*
X37248Y-19674D02*
X35748Y-19674D01*
X35748Y-19674D02*
X35748Y-19874D01*
X37248Y-23374D02*
X35748Y-23374D01*
X35748Y-23374D02*
X35748Y-19874D01*
X49248Y-23374D02*
X50748Y-23374D01*
X50748Y-23374D02*
X50748Y-19874D01*
X49248Y-23374D02*
X37248Y-23374D01*
X37248Y-19674D02*
X49248Y-19674D01*
X51165Y-23204D02*
X51165Y-23144D01*
X51165Y-23244D02*
X51165Y-23164D01*
X66525Y-19674D02*
X66905Y-19674D01*
X66905Y-23374D02*
X66905Y-23144D01*
X66905Y-19684D02*
X66905Y-19884D01*
X51165Y-19674D02*
X51165Y-19884D01*
X51165Y-23374D02*
X51165Y-23204D01*
X51635Y-19674D02*
X51170Y-19674D01*
X51570Y-23374D02*
X51165Y-23374D01*
X66510Y-23374D02*
X66905Y-23374D01*
X65035Y-19674D02*
X66535Y-19674D01*
X66535Y-19674D02*
X66535Y-19974D01*
X53035Y-19674D02*
X51535Y-19674D01*
X51535Y-19674D02*
X51535Y-19874D01*
X53035Y-23374D02*
X51535Y-23374D01*
X51535Y-23374D02*
X51535Y-19874D01*
X65035Y-23374D02*
X66535Y-23374D01*
X66535Y-23374D02*
X66535Y-19874D01*
X65035Y-23374D02*
X53035Y-23374D01*
X53035Y-19674D02*
X65035Y-19674D01*
X66952Y-23204D02*
X66952Y-23144D01*
X66952Y-23244D02*
X66952Y-23164D01*
X82312Y-19674D02*
X82692Y-19674D01*
X82692Y-23374D02*
X82692Y-23144D01*
X82692Y-19684D02*
X82692Y-19884D01*
X66952Y-19674D02*
X66952Y-19884D01*
X66952Y-23374D02*
X66952Y-23204D01*
X67422Y-19674D02*
X66957Y-19674D01*
X67357Y-23374D02*
X66952Y-23374D01*
X82297Y-23374D02*
X82692Y-23374D01*
X80822Y-19674D02*
X82322Y-19674D01*
X82322Y-19674D02*
X82322Y-19974D01*
X68822Y-19674D02*
X67322Y-19674D01*
X67322Y-19674D02*
X67322Y-19874D01*
X68822Y-23374D02*
X67322Y-23374D01*
X67322Y-23374D02*
X67322Y-19874D01*
X80822Y-23374D02*
X82322Y-23374D01*
X82322Y-23374D02*
X82322Y-19874D01*
X80822Y-23374D02*
X68822Y-23374D01*
X68822Y-19674D02*
X80822Y-19674D01*
X82740Y-23204D02*
X82740Y-23144D01*
X82740Y-23244D02*
X82740Y-23164D01*
X98100Y-19674D02*
X98480Y-19674D01*
X98480Y-23374D02*
X98480Y-23144D01*
X98480Y-19684D02*
X98480Y-19884D01*
X82740Y-19674D02*
X82740Y-19884D01*
X82740Y-23374D02*
X82740Y-23204D01*
X83210Y-19674D02*
X82745Y-19674D01*
X83145Y-23374D02*
X82740Y-23374D01*
X98085Y-23374D02*
X98480Y-23374D01*
X96610Y-19674D02*
X98110Y-19674D01*
X98110Y-19674D02*
X98110Y-19974D01*
X84610Y-19674D02*
X83110Y-19674D01*
X83110Y-19674D02*
X83110Y-19874D01*
X84610Y-23374D02*
X83110Y-23374D01*
X83110Y-23374D02*
X83110Y-19874D01*
X96610Y-23374D02*
X98110Y-23374D01*
X98110Y-23374D02*
X98110Y-19874D01*
X96610Y-23374D02*
X84610Y-23374D01*
X84610Y-19674D02*
X96610Y-19674D01*
X98527Y-23204D02*
X98527Y-23144D01*
X98527Y-23244D02*
X98527Y-23164D01*
X113887Y-19674D02*
X114267Y-19674D01*
X114267Y-23374D02*
X114267Y-23144D01*
X114267Y-19684D02*
X114267Y-19884D01*
X98527Y-19674D02*
X98527Y-19884D01*
X98527Y-23374D02*
X98527Y-23204D01*
X98997Y-19674D02*
X98532Y-19674D01*
X98932Y-23374D02*
X98527Y-23374D01*
X113872Y-23374D02*
X114267Y-23374D01*
X112397Y-19674D02*
X113897Y-19674D01*
X113897Y-19674D02*
X113897Y-19974D01*
X100397Y-19674D02*
X98897Y-19674D01*
X98897Y-19674D02*
X98897Y-19874D01*
X100397Y-23374D02*
X98897Y-23374D01*
X98897Y-23374D02*
X98897Y-19874D01*
X112397Y-23374D02*
X113897Y-23374D01*
X113897Y-23374D02*
X113897Y-19874D01*
X112397Y-23374D02*
X100397Y-23374D01*
X100397Y-19674D02*
X112397Y-19674D01*
X92027Y-35964D02*
X92027Y-35078D01*
X92027Y-35078D02*
X112204Y-35078D01*
X112204Y-35078D02*
X112303Y-35078D01*
X112303Y-35078D02*
X112303Y-35964D01*
X112303Y-35964D02*
X114763Y-35964D01*
X89566Y-35964D02*
X92027Y-35964D01*
X112303Y-39409D02*
X112303Y-35964D01*
X92027Y-39409D02*
X92027Y-35964D01*
X114763Y-39409D02*
X114763Y-35964D01*
X89566Y-39409D02*
X89566Y-35964D01*
X89566Y-39409D02*
X114763Y-39409D01*
X25387Y-39358D02*
X19887Y-39358D01*
X19887Y-39358D02*
X19887Y-33608D01*
X19887Y-33608D02*
X25387Y-33608D01*
X25387Y-33608D02*
X25387Y-39358D01*
X27550Y-35377D02*
X35150Y-35377D01*
X35150Y-35377D02*
X35150Y-39377D01*
X35150Y-39377D02*
X27550Y-39377D01*
X27550Y-39377D02*
X27550Y-35377D01*
G54D15*
X63311Y-36837D02*
X63211Y-36837D01*
X63011Y-36637D02*
X63311Y-36837D01*
X63011Y-36637D02*
X62711Y-36837D01*
X62711Y-36837D02*
X63261Y-36837D01*
X72515Y-36409D02*
X84011Y-36409D01*
X84011Y-36409D02*
X84011Y-32866D01*
X84011Y-32866D02*
X72507Y-32866D01*
X61011Y-34637D02*
X61011Y-36409D01*
X61011Y-36409D02*
X72515Y-36409D01*
X61011Y-34637D02*
X61011Y-32866D01*
X61011Y-32866D02*
X72507Y-32866D01*
G54D16*
X108846Y-28541D02*
G75*
G03X108846Y-28541I-62J0D01*
G74*
G01*
X108445Y-27578D02*
X108845Y-27578D01*
X108445Y-28603D02*
X108845Y-28603D01*
X108845Y-27578D02*
X108845Y-28603D01*
X108445Y-28603D02*
X108445Y-27578D01*
G54D17*
X111846Y-29901D02*
G75*
G03X111846Y-29901I-50J0D01*
G74*
G01*
X111796Y-29451D02*
X111796Y-29851D01*
X111796Y-29851D02*
X111196Y-29851D01*
X111196Y-29851D02*
X111196Y-29451D01*
X111196Y-29051D02*
X111196Y-28651D01*
X111196Y-28651D02*
X111796Y-28651D01*
X111796Y-28651D02*
X111796Y-29051D01*
X109621Y-30463D02*
G75*
G03X109621Y-30463I-50J0D01*
G74*
G01*
X109121Y-30463D02*
X109521Y-30463D01*
X109521Y-30463D02*
X109521Y-31063D01*
X109521Y-31063D02*
X109121Y-31063D01*
X108721Y-31063D02*
X108321Y-31063D01*
X108321Y-31063D02*
X108321Y-30463D01*
X108321Y-30463D02*
X108721Y-30463D01*
G54D13*
X27933Y-26690D02*
X27914Y-26709D01*
X27857Y-26728D01*
X27819Y-26728D01*
X27761Y-26709D01*
X27723Y-26671D01*
X27704Y-26632D01*
X27685Y-26556D01*
X27685Y-26499D01*
X27704Y-26423D01*
X27723Y-26385D01*
X27761Y-26347D01*
X27819Y-26328D01*
X27857Y-26328D01*
X27914Y-26347D01*
X27933Y-26366D01*
X28314Y-26728D02*
X28085Y-26728D01*
X28200Y-26728D02*
X28200Y-26328D01*
X28161Y-26385D01*
X28123Y-26423D01*
X28085Y-26442D01*
X44075Y-26690D02*
X44056Y-26709D01*
X43998Y-26728D01*
X43960Y-26728D01*
X43903Y-26709D01*
X43865Y-26671D01*
X43846Y-26632D01*
X43827Y-26556D01*
X43827Y-26499D01*
X43846Y-26423D01*
X43865Y-26385D01*
X43903Y-26347D01*
X43960Y-26328D01*
X43998Y-26328D01*
X44056Y-26347D01*
X44075Y-26366D01*
X44227Y-26366D02*
X44246Y-26347D01*
X44284Y-26328D01*
X44379Y-26328D01*
X44417Y-26347D01*
X44436Y-26366D01*
X44456Y-26404D01*
X44456Y-26442D01*
X44436Y-26499D01*
X44208Y-26728D01*
X44456Y-26728D01*
X59823Y-26690D02*
X59804Y-26709D01*
X59746Y-26728D01*
X59708Y-26728D01*
X59651Y-26709D01*
X59613Y-26671D01*
X59594Y-26632D01*
X59575Y-26556D01*
X59575Y-26499D01*
X59594Y-26423D01*
X59613Y-26385D01*
X59651Y-26347D01*
X59708Y-26328D01*
X59746Y-26328D01*
X59804Y-26347D01*
X59823Y-26366D01*
X59956Y-26328D02*
X60204Y-26328D01*
X60070Y-26480D01*
X60127Y-26480D01*
X60165Y-26499D01*
X60185Y-26518D01*
X60204Y-26556D01*
X60204Y-26652D01*
X60185Y-26690D01*
X60165Y-26709D01*
X60127Y-26728D01*
X60013Y-26728D01*
X59975Y-26709D01*
X59956Y-26690D01*
X75964Y-26690D02*
X75945Y-26709D01*
X75888Y-26728D01*
X75850Y-26728D01*
X75793Y-26709D01*
X75755Y-26671D01*
X75736Y-26632D01*
X75717Y-26556D01*
X75717Y-26499D01*
X75736Y-26423D01*
X75755Y-26385D01*
X75793Y-26347D01*
X75850Y-26328D01*
X75888Y-26328D01*
X75945Y-26347D01*
X75964Y-26366D01*
X76307Y-26461D02*
X76307Y-26728D01*
X76212Y-26309D02*
X76117Y-26594D01*
X76364Y-26594D01*
X91319Y-26690D02*
X91300Y-26709D01*
X91242Y-26728D01*
X91204Y-26728D01*
X91147Y-26709D01*
X91109Y-26671D01*
X91090Y-26632D01*
X91071Y-26556D01*
X91071Y-26499D01*
X91090Y-26423D01*
X91109Y-26385D01*
X91147Y-26347D01*
X91204Y-26328D01*
X91242Y-26328D01*
X91300Y-26347D01*
X91319Y-26366D01*
X91681Y-26328D02*
X91490Y-26328D01*
X91471Y-26518D01*
X91490Y-26499D01*
X91528Y-26480D01*
X91623Y-26480D01*
X91662Y-26499D01*
X91681Y-26518D01*
X91700Y-26556D01*
X91700Y-26652D01*
X91681Y-26690D01*
X91662Y-26709D01*
X91623Y-26728D01*
X91528Y-26728D01*
X91490Y-26709D01*
X91471Y-26690D01*
G54D11*
X36563Y-32641D02*
X36563Y-32241D01*
X36715Y-32241D01*
X36753Y-32260D01*
X36772Y-32279D01*
X36791Y-32317D01*
X36791Y-32374D01*
X36772Y-32413D01*
X36753Y-32432D01*
X36715Y-32451D01*
X36563Y-32451D01*
X36924Y-32241D02*
X37191Y-32241D01*
X37020Y-32641D01*
G54D18*
X20029Y-24287D02*
X20029Y-23687D01*
X20258Y-23687D01*
X20315Y-23715D01*
X20343Y-23744D01*
X20372Y-23801D01*
X20372Y-23887D01*
X20343Y-23944D01*
X20315Y-23972D01*
X20258Y-24001D01*
X20029Y-24001D01*
X20943Y-24287D02*
X20601Y-24287D01*
X20772Y-24287D02*
X20772Y-23687D01*
X20715Y-23772D01*
X20658Y-23830D01*
X20601Y-23858D01*
X35777Y-24287D02*
X35777Y-23687D01*
X36006Y-23687D01*
X36063Y-23715D01*
X36091Y-23744D01*
X36120Y-23801D01*
X36120Y-23887D01*
X36091Y-23944D01*
X36063Y-23972D01*
X36006Y-24001D01*
X35777Y-24001D01*
X36349Y-23744D02*
X36377Y-23715D01*
X36434Y-23687D01*
X36577Y-23687D01*
X36634Y-23715D01*
X36663Y-23744D01*
X36691Y-23801D01*
X36691Y-23858D01*
X36663Y-23944D01*
X36320Y-24287D01*
X36691Y-24287D01*
X51525Y-24287D02*
X51525Y-23687D01*
X51754Y-23687D01*
X51811Y-23715D01*
X51839Y-23744D01*
X51868Y-23801D01*
X51868Y-23887D01*
X51839Y-23944D01*
X51811Y-23972D01*
X51754Y-24001D01*
X51525Y-24001D01*
X52068Y-23687D02*
X52439Y-23687D01*
X52239Y-23915D01*
X52325Y-23915D01*
X52382Y-23944D01*
X52411Y-23972D01*
X52439Y-24030D01*
X52439Y-24172D01*
X52411Y-24230D01*
X52382Y-24258D01*
X52325Y-24287D01*
X52154Y-24287D01*
X52097Y-24258D01*
X52068Y-24230D01*
X67273Y-24287D02*
X67273Y-23687D01*
X67502Y-23687D01*
X67559Y-23715D01*
X67587Y-23744D01*
X67616Y-23801D01*
X67616Y-23887D01*
X67587Y-23944D01*
X67559Y-23972D01*
X67502Y-24001D01*
X67273Y-24001D01*
X68130Y-23887D02*
X68130Y-24287D01*
X67987Y-23658D02*
X67845Y-24087D01*
X68216Y-24087D01*
X83415Y-24287D02*
X83415Y-23687D01*
X83643Y-23687D01*
X83701Y-23715D01*
X83729Y-23744D01*
X83758Y-23801D01*
X83758Y-23887D01*
X83729Y-23944D01*
X83701Y-23972D01*
X83643Y-24001D01*
X83415Y-24001D01*
X84301Y-23687D02*
X84015Y-23687D01*
X83986Y-23972D01*
X84015Y-23944D01*
X84072Y-23915D01*
X84215Y-23915D01*
X84272Y-23944D01*
X84301Y-23972D01*
X84329Y-24030D01*
X84329Y-24172D01*
X84301Y-24230D01*
X84272Y-24258D01*
X84215Y-24287D01*
X84072Y-24287D01*
X84015Y-24258D01*
X83986Y-24230D01*
X99163Y-24287D02*
X99163Y-23687D01*
X99392Y-23687D01*
X99449Y-23715D01*
X99477Y-23744D01*
X99506Y-23801D01*
X99506Y-23887D01*
X99477Y-23944D01*
X99449Y-23972D01*
X99392Y-24001D01*
X99163Y-24001D01*
X100020Y-23687D02*
X99906Y-23687D01*
X99849Y-23715D01*
X99820Y-23744D01*
X99763Y-23830D01*
X99734Y-23944D01*
X99734Y-24172D01*
X99763Y-24230D01*
X99792Y-24258D01*
X99849Y-24287D01*
X99963Y-24287D01*
X100020Y-24258D01*
X100049Y-24230D01*
X100077Y-24172D01*
X100077Y-24030D01*
X100049Y-23972D01*
X100020Y-23944D01*
X99963Y-23915D01*
X99849Y-23915D01*
X99792Y-23944D01*
X99763Y-23972D01*
X99734Y-24030D01*
G54D10*
X91000Y-35390D02*
X91000Y-34997D01*
X91150Y-34997D01*
X91188Y-35015D01*
X91206Y-35034D01*
X91225Y-35071D01*
X91225Y-35128D01*
X91206Y-35165D01*
X91188Y-35184D01*
X91150Y-35203D01*
X91000Y-35203D01*
X91450Y-35165D02*
X91413Y-35146D01*
X91394Y-35128D01*
X91375Y-35090D01*
X91375Y-35071D01*
X91394Y-35034D01*
X91413Y-35015D01*
X91450Y-34997D01*
X91525Y-34997D01*
X91563Y-35015D01*
X91581Y-35034D01*
X91600Y-35071D01*
X91600Y-35090D01*
X91581Y-35128D01*
X91563Y-35146D01*
X91525Y-35165D01*
X91450Y-35165D01*
X91413Y-35184D01*
X91394Y-35203D01*
X91375Y-35240D01*
X91375Y-35315D01*
X91394Y-35353D01*
X91413Y-35371D01*
X91450Y-35390D01*
X91525Y-35390D01*
X91563Y-35371D01*
X91581Y-35353D01*
X91600Y-35315D01*
X91600Y-35240D01*
X91581Y-35203D01*
X91563Y-35184D01*
X91525Y-35165D01*
G54D18*
X22116Y-33283D02*
X22116Y-32683D01*
X22344Y-32683D01*
X22401Y-32711D01*
X22430Y-32740D01*
X22459Y-32797D01*
X22459Y-32883D01*
X22430Y-32940D01*
X22401Y-32968D01*
X22344Y-32997D01*
X22116Y-32997D01*
X22744Y-33283D02*
X22859Y-33283D01*
X22916Y-33254D01*
X22944Y-33226D01*
X23001Y-33140D01*
X23030Y-33026D01*
X23030Y-32797D01*
X23001Y-32740D01*
X22973Y-32711D01*
X22916Y-32683D01*
X22801Y-32683D01*
X22744Y-32711D01*
X22716Y-32740D01*
X22687Y-32797D01*
X22687Y-32940D01*
X22716Y-32997D01*
X22744Y-33026D01*
X22801Y-33054D01*
X22916Y-33054D01*
X22973Y-33026D01*
X23001Y-32997D01*
X23030Y-32940D01*
X30585Y-35085D02*
X30671Y-35113D01*
X30814Y-35113D01*
X30871Y-35085D01*
X30900Y-35056D01*
X30928Y-34999D01*
X30928Y-34942D01*
X30900Y-34885D01*
X30871Y-34856D01*
X30814Y-34828D01*
X30700Y-34799D01*
X30642Y-34771D01*
X30614Y-34742D01*
X30585Y-34685D01*
X30585Y-34628D01*
X30614Y-34571D01*
X30642Y-34542D01*
X30700Y-34513D01*
X30842Y-34513D01*
X30928Y-34542D01*
X31128Y-34513D02*
X31271Y-35113D01*
X31385Y-34685D01*
X31500Y-35113D01*
X31642Y-34513D01*
X32185Y-35113D02*
X31842Y-35113D01*
X32014Y-35113D02*
X32014Y-34513D01*
X31957Y-34599D01*
X31900Y-34656D01*
X31842Y-34685D01*
G54D11*
X61006Y-32649D02*
X61006Y-32249D01*
X61158Y-32249D01*
X61196Y-32268D01*
X61215Y-32287D01*
X61234Y-32325D01*
X61234Y-32382D01*
X61215Y-32420D01*
X61196Y-32439D01*
X61158Y-32458D01*
X61006Y-32458D01*
X61615Y-32649D02*
X61387Y-32649D01*
X61501Y-32649D02*
X61501Y-32249D01*
X61463Y-32306D01*
X61425Y-32344D01*
X61387Y-32363D01*
X61863Y-32249D02*
X61901Y-32249D01*
X61939Y-32268D01*
X61958Y-32287D01*
X61977Y-32325D01*
X61996Y-32401D01*
X61996Y-32497D01*
X61977Y-32573D01*
X61958Y-32611D01*
X61939Y-32630D01*
X61901Y-32649D01*
X61863Y-32649D01*
X61825Y-32630D01*
X61806Y-32611D01*
X61787Y-32573D01*
X61768Y-32497D01*
X61768Y-32401D01*
X61787Y-32325D01*
X61806Y-32287D01*
X61825Y-32268D01*
X61863Y-32249D01*
G54D19*
G54D20*
X107778Y-27723D02*
X107749Y-27709D01*
X107721Y-27680D01*
X107678Y-27637D01*
X107649Y-27623D01*
X107621Y-27623D01*
X107635Y-27694D02*
X107607Y-27680D01*
X107578Y-27651D01*
X107564Y-27594D01*
X107564Y-27494D01*
X107578Y-27437D01*
X107607Y-27409D01*
X107635Y-27394D01*
X107692Y-27394D01*
X107721Y-27409D01*
X107749Y-27437D01*
X107764Y-27494D01*
X107764Y-27594D01*
X107749Y-27651D01*
X107721Y-27680D01*
X107692Y-27694D01*
X107635Y-27694D01*
X108049Y-27694D02*
X107878Y-27694D01*
X107964Y-27694D02*
X107964Y-27394D01*
X107935Y-27437D01*
X107907Y-27466D01*
X107878Y-27480D01*
G54D21*
X110998Y-29265D02*
X110904Y-29330D01*
X110998Y-29377D02*
X110801Y-29377D01*
X110801Y-29302D01*
X110810Y-29283D01*
X110820Y-29274D01*
X110839Y-29265D01*
X110867Y-29265D01*
X110885Y-29274D01*
X110895Y-29283D01*
X110904Y-29302D01*
X110904Y-29377D01*
X110998Y-29077D02*
X110998Y-29190D01*
X110998Y-29133D02*
X110801Y-29133D01*
X110829Y-29152D01*
X110848Y-29171D01*
X110857Y-29190D01*
X112001Y-29495D02*
X111992Y-29486D01*
X111982Y-29467D01*
X111982Y-29420D01*
X111992Y-29402D01*
X112001Y-29392D01*
X112020Y-29383D01*
X112038Y-29383D01*
X112067Y-29392D01*
X112179Y-29505D01*
X112179Y-29383D01*
X111982Y-29261D02*
X111982Y-29242D01*
X111992Y-29223D01*
X112001Y-29214D01*
X112020Y-29205D01*
X112057Y-29195D01*
X112104Y-29195D01*
X112142Y-29205D01*
X112160Y-29214D01*
X112170Y-29223D01*
X112179Y-29242D01*
X112179Y-29261D01*
X112170Y-29280D01*
X112160Y-29289D01*
X112142Y-29298D01*
X112104Y-29308D01*
X112057Y-29308D01*
X112020Y-29298D01*
X112001Y-29289D01*
X111992Y-29280D01*
X111982Y-29261D01*
X111982Y-29073D02*
X111982Y-29054D01*
X111992Y-29036D01*
X112001Y-29026D01*
X112020Y-29017D01*
X112057Y-29008D01*
X112104Y-29008D01*
X112142Y-29017D01*
X112160Y-29026D01*
X112170Y-29036D01*
X112179Y-29054D01*
X112179Y-29073D01*
X112170Y-29092D01*
X112160Y-29101D01*
X112142Y-29111D01*
X112104Y-29120D01*
X112057Y-29120D01*
X112020Y-29111D01*
X112001Y-29101D01*
X111992Y-29092D01*
X111982Y-29073D01*
X108892Y-31443D02*
X108826Y-31349D01*
X108779Y-31443D02*
X108779Y-31246D01*
X108854Y-31246D01*
X108873Y-31255D01*
X108882Y-31265D01*
X108892Y-31283D01*
X108892Y-31312D01*
X108882Y-31330D01*
X108873Y-31340D01*
X108854Y-31349D01*
X108779Y-31349D01*
X108967Y-31265D02*
X108976Y-31255D01*
X108995Y-31246D01*
X109042Y-31246D01*
X109061Y-31255D01*
X109070Y-31265D01*
X109079Y-31283D01*
X109079Y-31302D01*
X109070Y-31330D01*
X108958Y-31443D01*
X109079Y-31443D01*
X108695Y-30107D02*
X108704Y-30098D01*
X108723Y-30088D01*
X108770Y-30088D01*
X108789Y-30098D01*
X108798Y-30107D01*
X108807Y-30126D01*
X108807Y-30145D01*
X108798Y-30173D01*
X108685Y-30285D01*
X108807Y-30285D01*
X108929Y-30088D02*
X108948Y-30088D01*
X108967Y-30098D01*
X108976Y-30107D01*
X108986Y-30126D01*
X108995Y-30164D01*
X108995Y-30210D01*
X108986Y-30248D01*
X108976Y-30267D01*
X108967Y-30276D01*
X108948Y-30285D01*
X108929Y-30285D01*
X108911Y-30276D01*
X108901Y-30267D01*
X108892Y-30248D01*
X108882Y-30210D01*
X108882Y-30164D01*
X108892Y-30126D01*
X108901Y-30107D01*
X108911Y-30098D01*
X108929Y-30088D01*
X109079Y-30285D02*
X109079Y-30088D01*
X109098Y-30210D02*
X109155Y-30285D01*
X109155Y-30154D02*
X109079Y-30229D01*
M02*
