G04 (created by PCBNEW (2013-jul-07)-stable) date Sun 20 Sep 2015 10:44:14 PM PDT*
%MOIN*%
G04 Gerber Fmt 3.4, Leading zero omitted, Abs format*
%FSLAX34Y34*%
G01*
G70*
G90*
G04 APERTURE LIST*
%ADD10C,0.00590551*%
%ADD11C,0.011811*%
%ADD12C,0.012*%
%ADD13C,0.015*%
%ADD14C,0.02*%
%ADD15C,0.0031*%
%ADD16C,0.0039*%
%ADD17C,0.006*%
%ADD18C,0.008*%
G04 APERTURE END LIST*
G54D10*
G54D11*
X16539Y-50446D02*
X16539Y-50783D01*
X16539Y-50614D02*
X15948Y-50614D01*
X16032Y-50670D01*
X16089Y-50727D01*
X16117Y-50783D01*
X16004Y-50221D02*
X15976Y-50192D01*
X15948Y-50136D01*
X15948Y-49996D01*
X15976Y-49939D01*
X16004Y-49911D01*
X16060Y-49883D01*
X16117Y-49883D01*
X16201Y-49911D01*
X16539Y-50249D01*
X16539Y-49883D01*
X16314Y-49630D02*
X16314Y-49180D01*
X16539Y-48589D02*
X16539Y-48927D01*
X16539Y-48758D02*
X15948Y-48758D01*
X16032Y-48814D01*
X16089Y-48871D01*
X16117Y-48927D01*
X16201Y-48252D02*
X16173Y-48308D01*
X16145Y-48336D01*
X16089Y-48365D01*
X16060Y-48365D01*
X16004Y-48336D01*
X15976Y-48308D01*
X15948Y-48252D01*
X15948Y-48140D01*
X15976Y-48083D01*
X16004Y-48055D01*
X16060Y-48027D01*
X16089Y-48027D01*
X16145Y-48055D01*
X16173Y-48083D01*
X16201Y-48140D01*
X16201Y-48252D01*
X16229Y-48308D01*
X16257Y-48336D01*
X16314Y-48365D01*
X16426Y-48365D01*
X16482Y-48336D01*
X16510Y-48308D01*
X16539Y-48252D01*
X16539Y-48140D01*
X16510Y-48083D01*
X16482Y-48055D01*
X16426Y-48027D01*
X16314Y-48027D01*
X16257Y-48055D01*
X16229Y-48083D01*
X16201Y-48140D01*
X16539Y-47324D02*
X15948Y-47324D01*
X15948Y-47099D01*
X15976Y-47043D01*
X16004Y-47015D01*
X16060Y-46987D01*
X16145Y-46987D01*
X16201Y-47015D01*
X16229Y-47043D01*
X16257Y-47099D01*
X16257Y-47324D01*
X16539Y-46480D02*
X16229Y-46480D01*
X16173Y-46508D01*
X16145Y-46565D01*
X16145Y-46677D01*
X16173Y-46733D01*
X16510Y-46480D02*
X16539Y-46537D01*
X16539Y-46677D01*
X16510Y-46733D01*
X16454Y-46762D01*
X16398Y-46762D01*
X16342Y-46733D01*
X16314Y-46677D01*
X16314Y-46537D01*
X16285Y-46480D01*
X16145Y-46199D02*
X16539Y-46199D01*
X16201Y-46199D02*
X16173Y-46171D01*
X16145Y-46115D01*
X16145Y-46030D01*
X16173Y-45974D01*
X16229Y-45946D01*
X16539Y-45946D01*
X16510Y-45440D02*
X16539Y-45496D01*
X16539Y-45609D01*
X16510Y-45665D01*
X16454Y-45693D01*
X16229Y-45693D01*
X16173Y-45665D01*
X16145Y-45609D01*
X16145Y-45496D01*
X16173Y-45440D01*
X16229Y-45412D01*
X16285Y-45412D01*
X16342Y-45693D01*
X16539Y-45074D02*
X16510Y-45131D01*
X16454Y-45159D01*
X15948Y-45159D01*
X16510Y-44877D02*
X16539Y-44821D01*
X16539Y-44709D01*
X16510Y-44652D01*
X16454Y-44624D01*
X16426Y-44624D01*
X16370Y-44652D01*
X16342Y-44709D01*
X16342Y-44793D01*
X16314Y-44849D01*
X16257Y-44877D01*
X16229Y-44877D01*
X16173Y-44849D01*
X16145Y-44793D01*
X16145Y-44709D01*
X16173Y-44652D01*
X15976Y-43612D02*
X15948Y-43668D01*
X15948Y-43753D01*
X15976Y-43837D01*
X16032Y-43893D01*
X16089Y-43921D01*
X16201Y-43949D01*
X16285Y-43949D01*
X16398Y-43921D01*
X16454Y-43893D01*
X16510Y-43837D01*
X16539Y-43753D01*
X16539Y-43696D01*
X16510Y-43612D01*
X16482Y-43584D01*
X16285Y-43584D01*
X16285Y-43696D01*
X16145Y-43078D02*
X16539Y-43078D01*
X15920Y-43218D02*
X16342Y-43359D01*
X16342Y-42993D01*
X16370Y-42347D02*
X16370Y-42065D01*
X16539Y-42403D02*
X15948Y-42206D01*
X16539Y-42009D01*
X16539Y-41812D02*
X16145Y-41812D01*
X16257Y-41812D02*
X16201Y-41784D01*
X16173Y-41756D01*
X16145Y-41700D01*
X16145Y-41643D01*
X16510Y-41222D02*
X16539Y-41278D01*
X16539Y-41390D01*
X16510Y-41447D01*
X16454Y-41475D01*
X16229Y-41475D01*
X16173Y-41447D01*
X16145Y-41390D01*
X16145Y-41278D01*
X16173Y-41222D01*
X16229Y-41194D01*
X16285Y-41194D01*
X16342Y-41475D01*
X16145Y-40940D02*
X16539Y-40940D01*
X16201Y-40940D02*
X16173Y-40912D01*
X16145Y-40856D01*
X16145Y-40772D01*
X16173Y-40715D01*
X16229Y-40687D01*
X16539Y-40687D01*
X16539Y-40153D02*
X16229Y-40153D01*
X16173Y-40181D01*
X16145Y-40237D01*
X16145Y-40350D01*
X16173Y-40406D01*
X16510Y-40153D02*
X16539Y-40209D01*
X16539Y-40350D01*
X16510Y-40406D01*
X16454Y-40434D01*
X16398Y-40434D01*
X16342Y-40406D01*
X16314Y-40350D01*
X16314Y-40209D01*
X16285Y-40153D01*
X16145Y-39478D02*
X16539Y-39338D01*
X16145Y-39197D01*
X15948Y-38859D02*
X15948Y-38803D01*
X15976Y-38747D01*
X16004Y-38719D01*
X16060Y-38691D01*
X16173Y-38663D01*
X16314Y-38663D01*
X16426Y-38691D01*
X16482Y-38719D01*
X16510Y-38747D01*
X16539Y-38803D01*
X16539Y-38859D01*
X16510Y-38916D01*
X16482Y-38944D01*
X16426Y-38972D01*
X16314Y-39000D01*
X16173Y-39000D01*
X16060Y-38972D01*
X16004Y-38944D01*
X15976Y-38916D01*
X15948Y-38859D01*
X16482Y-38410D02*
X16510Y-38381D01*
X16539Y-38410D01*
X16510Y-38438D01*
X16482Y-38410D01*
X16539Y-38410D01*
X16539Y-37819D02*
X16539Y-38156D01*
X16539Y-37988D02*
X15948Y-37988D01*
X16032Y-38044D01*
X16089Y-38100D01*
X16117Y-38156D01*
X16539Y-36778D02*
X16257Y-36975D01*
X16539Y-37116D02*
X15948Y-37116D01*
X15948Y-36891D01*
X15976Y-36835D01*
X16004Y-36807D01*
X16060Y-36778D01*
X16145Y-36778D01*
X16201Y-36807D01*
X16229Y-36835D01*
X16257Y-36891D01*
X16257Y-37116D01*
X16539Y-36216D02*
X16539Y-36553D01*
X16539Y-36385D02*
X15948Y-36385D01*
X16032Y-36441D01*
X16089Y-36497D01*
X16117Y-36553D01*
X17090Y-47183D02*
X17483Y-47071D01*
X17202Y-46958D01*
X17483Y-46846D01*
X17090Y-46733D01*
X17090Y-46565D02*
X17483Y-46452D01*
X17202Y-46340D01*
X17483Y-46227D01*
X17090Y-46115D01*
X17090Y-45946D02*
X17483Y-45834D01*
X17202Y-45721D01*
X17483Y-45609D01*
X17090Y-45496D01*
X17427Y-45271D02*
X17455Y-45243D01*
X17483Y-45271D01*
X17455Y-45299D01*
X17427Y-45271D01*
X17483Y-45271D01*
X17483Y-44990D02*
X17090Y-44990D01*
X16893Y-44990D02*
X16921Y-45018D01*
X16949Y-44990D01*
X16921Y-44962D01*
X16893Y-44990D01*
X16949Y-44990D01*
X17483Y-44624D02*
X17455Y-44681D01*
X17427Y-44709D01*
X17371Y-44737D01*
X17202Y-44737D01*
X17146Y-44709D01*
X17118Y-44681D01*
X17090Y-44624D01*
X17090Y-44540D01*
X17118Y-44484D01*
X17146Y-44456D01*
X17202Y-44428D01*
X17371Y-44428D01*
X17427Y-44456D01*
X17455Y-44484D01*
X17483Y-44540D01*
X17483Y-44624D01*
X17483Y-44174D02*
X17090Y-44174D01*
X17202Y-44174D02*
X17146Y-44146D01*
X17118Y-44118D01*
X17090Y-44062D01*
X17090Y-44006D01*
X17483Y-43724D02*
X17455Y-43781D01*
X17427Y-43809D01*
X17371Y-43837D01*
X17202Y-43837D01*
X17146Y-43809D01*
X17118Y-43781D01*
X17090Y-43724D01*
X17090Y-43640D01*
X17118Y-43584D01*
X17146Y-43556D01*
X17202Y-43528D01*
X17371Y-43528D01*
X17427Y-43556D01*
X17455Y-43584D01*
X17483Y-43640D01*
X17483Y-43724D01*
X17483Y-43021D02*
X16893Y-43021D01*
X17455Y-43021D02*
X17483Y-43078D01*
X17483Y-43190D01*
X17455Y-43246D01*
X17427Y-43275D01*
X17371Y-43303D01*
X17202Y-43303D01*
X17146Y-43275D01*
X17118Y-43246D01*
X17090Y-43190D01*
X17090Y-43078D01*
X17118Y-43021D01*
X17455Y-42515D02*
X17483Y-42571D01*
X17483Y-42684D01*
X17455Y-42740D01*
X17399Y-42768D01*
X17174Y-42768D01*
X17118Y-42740D01*
X17090Y-42684D01*
X17090Y-42571D01*
X17118Y-42515D01*
X17174Y-42487D01*
X17230Y-42487D01*
X17287Y-42768D01*
X17483Y-42150D02*
X17455Y-42206D01*
X17427Y-42234D01*
X17371Y-42262D01*
X17202Y-42262D01*
X17146Y-42234D01*
X17118Y-42206D01*
X17090Y-42150D01*
X17090Y-42065D01*
X17118Y-42009D01*
X17146Y-41981D01*
X17202Y-41953D01*
X17371Y-41953D01*
X17427Y-41981D01*
X17455Y-42009D01*
X17483Y-42065D01*
X17483Y-42150D01*
X17427Y-41700D02*
X17455Y-41672D01*
X17483Y-41700D01*
X17455Y-41728D01*
X17427Y-41700D01*
X17483Y-41700D01*
X17455Y-41165D02*
X17483Y-41222D01*
X17483Y-41334D01*
X17455Y-41390D01*
X17427Y-41419D01*
X17371Y-41447D01*
X17202Y-41447D01*
X17146Y-41419D01*
X17118Y-41390D01*
X17090Y-41334D01*
X17090Y-41222D01*
X17118Y-41165D01*
X17483Y-40828D02*
X17455Y-40884D01*
X17427Y-40912D01*
X17371Y-40940D01*
X17202Y-40940D01*
X17146Y-40912D01*
X17118Y-40884D01*
X17090Y-40828D01*
X17090Y-40744D01*
X17118Y-40687D01*
X17146Y-40659D01*
X17202Y-40631D01*
X17371Y-40631D01*
X17427Y-40659D01*
X17455Y-40687D01*
X17483Y-40744D01*
X17483Y-40828D01*
X17483Y-40378D02*
X17090Y-40378D01*
X17146Y-40378D02*
X17118Y-40350D01*
X17090Y-40294D01*
X17090Y-40209D01*
X17118Y-40153D01*
X17174Y-40125D01*
X17483Y-40125D01*
X17174Y-40125D02*
X17118Y-40097D01*
X17090Y-40041D01*
X17090Y-39956D01*
X17118Y-39900D01*
X17174Y-39872D01*
X17483Y-39872D01*
G54D12*
X28657Y-31614D02*
X29114Y-31614D01*
X28885Y-31842D02*
X28885Y-31385D01*
X29685Y-31242D02*
X29400Y-31242D01*
X29371Y-31528D01*
X29400Y-31500D01*
X29457Y-31471D01*
X29600Y-31471D01*
X29657Y-31500D01*
X29685Y-31528D01*
X29714Y-31585D01*
X29714Y-31728D01*
X29685Y-31785D01*
X29657Y-31814D01*
X29600Y-31842D01*
X29457Y-31842D01*
X29400Y-31814D01*
X29371Y-31785D01*
X29885Y-31242D02*
X30085Y-31842D01*
X30285Y-31242D01*
X31114Y-32071D02*
X31085Y-32042D01*
X31028Y-31957D01*
X31000Y-31900D01*
X30971Y-31814D01*
X30942Y-31671D01*
X30942Y-31557D01*
X30971Y-31414D01*
X31000Y-31328D01*
X31028Y-31271D01*
X31085Y-31185D01*
X31114Y-31157D01*
X31685Y-31785D02*
X31657Y-31814D01*
X31571Y-31842D01*
X31514Y-31842D01*
X31428Y-31814D01*
X31371Y-31757D01*
X31342Y-31700D01*
X31314Y-31585D01*
X31314Y-31500D01*
X31342Y-31385D01*
X31371Y-31328D01*
X31428Y-31271D01*
X31514Y-31242D01*
X31571Y-31242D01*
X31657Y-31271D01*
X31685Y-31300D01*
X31942Y-31528D02*
X32142Y-31528D01*
X32228Y-31842D02*
X31942Y-31842D01*
X31942Y-31242D01*
X32228Y-31242D01*
X32485Y-31842D02*
X32485Y-31242D01*
X32828Y-31842D01*
X32828Y-31242D01*
X33028Y-31242D02*
X33371Y-31242D01*
X33200Y-31842D02*
X33200Y-31242D01*
X34028Y-31842D02*
X34028Y-31242D01*
X34257Y-31242D01*
X34314Y-31271D01*
X34342Y-31300D01*
X34371Y-31357D01*
X34371Y-31442D01*
X34342Y-31500D01*
X34314Y-31528D01*
X34257Y-31557D01*
X34028Y-31557D01*
X34742Y-31242D02*
X34857Y-31242D01*
X34914Y-31271D01*
X34971Y-31328D01*
X35000Y-31442D01*
X35000Y-31642D01*
X34971Y-31757D01*
X34914Y-31814D01*
X34857Y-31842D01*
X34742Y-31842D01*
X34685Y-31814D01*
X34628Y-31757D01*
X34600Y-31642D01*
X34600Y-31442D01*
X34628Y-31328D01*
X34685Y-31271D01*
X34742Y-31242D01*
X35228Y-31814D02*
X35314Y-31842D01*
X35457Y-31842D01*
X35514Y-31814D01*
X35542Y-31785D01*
X35571Y-31728D01*
X35571Y-31671D01*
X35542Y-31614D01*
X35514Y-31585D01*
X35457Y-31557D01*
X35342Y-31528D01*
X35285Y-31500D01*
X35257Y-31471D01*
X35228Y-31414D01*
X35228Y-31357D01*
X35257Y-31300D01*
X35285Y-31271D01*
X35342Y-31242D01*
X35485Y-31242D01*
X35571Y-31271D01*
X35771Y-32071D02*
X35800Y-32042D01*
X35857Y-31957D01*
X35885Y-31900D01*
X35914Y-31814D01*
X35942Y-31671D01*
X35942Y-31557D01*
X35914Y-31414D01*
X35885Y-31328D01*
X35857Y-31271D01*
X35800Y-31185D01*
X35771Y-31157D01*
X43042Y-28671D02*
X42985Y-28642D01*
X42900Y-28642D01*
X42814Y-28671D01*
X42757Y-28728D01*
X42728Y-28785D01*
X42700Y-28900D01*
X42700Y-28985D01*
X42728Y-29100D01*
X42757Y-29157D01*
X42814Y-29214D01*
X42900Y-29242D01*
X42957Y-29242D01*
X43042Y-29214D01*
X43071Y-29185D01*
X43071Y-28985D01*
X42957Y-28985D01*
X43328Y-29242D02*
X43328Y-28642D01*
X43671Y-29242D01*
X43671Y-28642D01*
X43957Y-29242D02*
X43957Y-28642D01*
X44100Y-28642D01*
X44185Y-28671D01*
X44242Y-28728D01*
X44271Y-28785D01*
X44300Y-28900D01*
X44300Y-28985D01*
X44271Y-29100D01*
X44242Y-29157D01*
X44185Y-29214D01*
X44100Y-29242D01*
X43957Y-29242D01*
X39228Y-29014D02*
X39685Y-29014D01*
X39457Y-29242D02*
X39457Y-28785D01*
X40257Y-28642D02*
X39971Y-28642D01*
X39942Y-28928D01*
X39971Y-28900D01*
X40028Y-28871D01*
X40171Y-28871D01*
X40228Y-28900D01*
X40257Y-28928D01*
X40285Y-28985D01*
X40285Y-29128D01*
X40257Y-29185D01*
X40228Y-29214D01*
X40171Y-29242D01*
X40028Y-29242D01*
X39971Y-29214D01*
X39942Y-29185D01*
X40457Y-28642D02*
X40657Y-29242D01*
X40857Y-28642D01*
G54D13*
X139637Y-28444D02*
X139637Y-29330D01*
X139637Y-29330D02*
X119460Y-29330D01*
X119460Y-29330D02*
X119362Y-29330D01*
X119362Y-29330D02*
X119362Y-28444D01*
X119362Y-28444D02*
X116901Y-28444D01*
X142098Y-28444D02*
X139637Y-28444D01*
X119362Y-25000D02*
X119362Y-28444D01*
X139637Y-25000D02*
X139637Y-28444D01*
X116901Y-25000D02*
X116901Y-28444D01*
X142098Y-25000D02*
X142098Y-28444D01*
X142098Y-25000D02*
X116901Y-25000D01*
G54D14*
X72745Y-27546D02*
X65457Y-28831D01*
X65457Y-28831D02*
X66395Y-34149D01*
X66395Y-34149D02*
X73682Y-32864D01*
X73682Y-32864D02*
X72745Y-27546D01*
X51822Y-33794D02*
X45413Y-37494D01*
X45413Y-37494D02*
X48113Y-42171D01*
X48113Y-42171D02*
X54522Y-38471D01*
X54522Y-38471D02*
X51822Y-33794D01*
X34298Y-46821D02*
X29541Y-52490D01*
X29541Y-52490D02*
X33678Y-55961D01*
X33678Y-55961D02*
X38434Y-50292D01*
X38434Y-50292D02*
X34298Y-46821D01*
X137713Y-114943D02*
X140244Y-107989D01*
X140244Y-107989D02*
X135170Y-106142D01*
X135170Y-106142D02*
X132639Y-113096D01*
X132639Y-113096D02*
X137713Y-114943D01*
X22286Y-65056D02*
X19755Y-72010D01*
X19755Y-72010D02*
X24829Y-73857D01*
X24829Y-73857D02*
X27360Y-66903D01*
X27360Y-66903D02*
X22286Y-65056D01*
X142764Y-93700D02*
X142764Y-86300D01*
X142764Y-86300D02*
X137364Y-86300D01*
X137364Y-86300D02*
X137364Y-93700D01*
X137364Y-93700D02*
X142764Y-93700D01*
X17235Y-86300D02*
X17235Y-93700D01*
X17235Y-93700D02*
X22635Y-93700D01*
X22635Y-93700D02*
X22635Y-86300D01*
X22635Y-86300D02*
X17235Y-86300D01*
X19755Y-107989D02*
X22286Y-114943D01*
X22286Y-114943D02*
X27360Y-113096D01*
X27360Y-113096D02*
X24829Y-106142D01*
X24829Y-106142D02*
X19755Y-107989D01*
X140244Y-72010D02*
X137713Y-65056D01*
X137713Y-65056D02*
X132639Y-66903D01*
X132639Y-66903D02*
X135170Y-73857D01*
X135170Y-73857D02*
X140244Y-72010D01*
X94542Y-28831D02*
X87254Y-27546D01*
X87254Y-27546D02*
X86317Y-32864D01*
X86317Y-32864D02*
X93604Y-34149D01*
X93604Y-34149D02*
X94542Y-28831D01*
X130458Y-52490D02*
X125701Y-46821D01*
X125701Y-46821D02*
X121565Y-50292D01*
X121565Y-50292D02*
X126321Y-55961D01*
X126321Y-55961D02*
X130458Y-52490D01*
X114586Y-37494D02*
X108177Y-33794D01*
X108177Y-33794D02*
X105477Y-38471D01*
X105477Y-38471D02*
X111886Y-42171D01*
X111886Y-42171D02*
X114586Y-37494D01*
G54D15*
X139025Y-50362D02*
G75*
G03X139025Y-50362I-62J0D01*
G74*
G01*
X138000Y-50700D02*
X138000Y-50300D01*
X139025Y-50700D02*
X139025Y-50300D01*
X138000Y-50300D02*
X139025Y-50300D01*
X139025Y-50700D02*
X138000Y-50700D01*
G54D16*
X140250Y-48350D02*
G75*
G03X140250Y-48350I-50J0D01*
G74*
G01*
X140200Y-48800D02*
X140200Y-48400D01*
X140200Y-48400D02*
X140800Y-48400D01*
X140800Y-48400D02*
X140800Y-48800D01*
X140800Y-49200D02*
X140800Y-49600D01*
X140800Y-49600D02*
X140200Y-49600D01*
X140200Y-49600D02*
X140200Y-49200D01*
X139200Y-47200D02*
G75*
G03X139200Y-47200I-50J0D01*
G74*
G01*
X138700Y-47200D02*
X139100Y-47200D01*
X139100Y-47200D02*
X139100Y-47800D01*
X139100Y-47800D02*
X138700Y-47800D01*
X138300Y-47800D02*
X137900Y-47800D01*
X137900Y-47800D02*
X137900Y-47200D01*
X137900Y-47200D02*
X138300Y-47200D01*
G54D13*
X26300Y-29000D02*
X18700Y-29000D01*
X18700Y-29000D02*
X18700Y-25000D01*
X18700Y-25000D02*
X26300Y-25000D01*
X26300Y-25000D02*
X26300Y-29000D01*
G54D10*
X36589Y-55928D02*
X36336Y-56229D01*
X36336Y-56229D02*
X37241Y-56989D01*
X37241Y-56989D02*
X37494Y-56687D01*
X37494Y-56687D02*
X36589Y-55928D01*
X130447Y-55758D02*
X130194Y-55457D01*
X130194Y-55457D02*
X129289Y-56216D01*
X129289Y-56216D02*
X129542Y-56518D01*
X129542Y-56518D02*
X130447Y-55758D01*
X68646Y-35996D02*
X68259Y-36064D01*
X68259Y-36064D02*
X68464Y-37227D01*
X68464Y-37227D02*
X68851Y-37159D01*
X68851Y-37159D02*
X68646Y-35996D01*
X115694Y-40569D02*
X115353Y-40372D01*
X115353Y-40372D02*
X114762Y-41395D01*
X114762Y-41395D02*
X115103Y-41592D01*
X115103Y-41592D02*
X115694Y-40569D01*
X139116Y-75077D02*
X138981Y-74707D01*
X138981Y-74707D02*
X137871Y-75111D01*
X137871Y-75111D02*
X138006Y-75481D01*
X138006Y-75481D02*
X139116Y-75077D01*
X96635Y-31342D02*
X96247Y-31274D01*
X96247Y-31274D02*
X96042Y-32437D01*
X96042Y-32437D02*
X96430Y-32505D01*
X96430Y-32505D02*
X96635Y-31342D01*
X87801Y-35369D02*
X87414Y-35301D01*
X87414Y-35301D02*
X87209Y-36464D01*
X87209Y-36464D02*
X87596Y-36533D01*
X87596Y-36533D02*
X87801Y-35369D01*
X50861Y-43136D02*
X50520Y-43333D01*
X50520Y-43333D02*
X51110Y-44355D01*
X51110Y-44355D02*
X51451Y-44159D01*
X51451Y-44159D02*
X50861Y-43136D01*
X140654Y-96196D02*
X140654Y-95803D01*
X140654Y-95803D02*
X139473Y-95803D01*
X139473Y-95803D02*
X139473Y-96196D01*
X139473Y-96196D02*
X140654Y-96196D01*
X135512Y-116113D02*
X135377Y-116482D01*
X135377Y-116482D02*
X136487Y-116886D01*
X136487Y-116886D02*
X136622Y-116517D01*
X136622Y-116517D02*
X135512Y-116113D01*
X28788Y-110558D02*
X28922Y-110928D01*
X28922Y-110928D02*
X30032Y-110524D01*
X30032Y-110524D02*
X29897Y-110154D01*
X29897Y-110154D02*
X28788Y-110558D01*
X24845Y-91803D02*
X24845Y-92196D01*
X24845Y-92196D02*
X26026Y-92196D01*
X26026Y-92196D02*
X26026Y-91803D01*
X26026Y-91803D02*
X24845Y-91803D01*
X27554Y-72830D02*
X27420Y-73200D01*
X27420Y-73200D02*
X28529Y-73604D01*
X28529Y-73604D02*
X28664Y-73234D01*
X28664Y-73234D02*
X27554Y-72830D01*
X55039Y-34372D02*
X54698Y-34569D01*
X54698Y-34569D02*
X55288Y-35592D01*
X55288Y-35592D02*
X55629Y-35395D01*
X55629Y-35395D02*
X55039Y-34372D01*
X37518Y-46264D02*
X37265Y-46566D01*
X37265Y-46566D02*
X38170Y-47325D01*
X38170Y-47325D02*
X38423Y-47024D01*
X38423Y-47024D02*
X37518Y-46264D01*
X25122Y-63431D02*
X24987Y-63801D01*
X24987Y-63801D02*
X26097Y-64205D01*
X26097Y-64205D02*
X26232Y-63835D01*
X26232Y-63835D02*
X25122Y-63431D01*
X19345Y-83803D02*
X19345Y-84196D01*
X19345Y-84196D02*
X20526Y-84196D01*
X20526Y-84196D02*
X20526Y-83803D01*
X20526Y-83803D02*
X19345Y-83803D01*
X20883Y-104922D02*
X21018Y-105292D01*
X21018Y-105292D02*
X22128Y-104888D01*
X22128Y-104888D02*
X21993Y-104518D01*
X21993Y-104518D02*
X20883Y-104922D01*
X131212Y-69441D02*
X131077Y-69071D01*
X131077Y-69071D02*
X129967Y-69475D01*
X129967Y-69475D02*
X130102Y-69845D01*
X130102Y-69845D02*
X131212Y-69441D01*
X135154Y-88196D02*
X135154Y-87803D01*
X135154Y-87803D02*
X133973Y-87803D01*
X133973Y-87803D02*
X133973Y-88196D01*
X133973Y-88196D02*
X135154Y-88196D01*
X75570Y-29190D02*
X75182Y-29258D01*
X75182Y-29258D02*
X75387Y-30422D01*
X75387Y-30422D02*
X75775Y-30353D01*
X75775Y-30353D02*
X75570Y-29190D01*
X121091Y-53165D02*
X120838Y-52864D01*
X120838Y-52864D02*
X119934Y-53623D01*
X119934Y-53623D02*
X120187Y-53924D01*
X120187Y-53924D02*
X121091Y-53165D01*
X132445Y-107169D02*
X132580Y-106799D01*
X132580Y-106799D02*
X131470Y-106395D01*
X131470Y-106395D02*
X131335Y-106765D01*
X131335Y-106765D02*
X132445Y-107169D01*
X106015Y-41333D02*
X105674Y-41136D01*
X105674Y-41136D02*
X105084Y-42159D01*
X105084Y-42159D02*
X105425Y-42355D01*
X105425Y-42355D02*
X106015Y-41333D01*
G54D13*
X19400Y-39000D02*
X24500Y-39000D01*
X19400Y-34980D02*
X24500Y-35000D01*
X19400Y-39000D02*
X19400Y-35000D01*
X24500Y-39000D02*
X24500Y-35000D01*
G54D17*
X135564Y-89500D02*
X135564Y-90500D01*
X135564Y-90500D02*
X133564Y-90500D01*
X133564Y-90500D02*
X133564Y-89500D01*
X133564Y-89500D02*
X135564Y-89500D01*
X51784Y-42130D02*
X52650Y-41630D01*
X52650Y-41630D02*
X53650Y-43362D01*
X53650Y-43362D02*
X52784Y-43862D01*
X52784Y-43862D02*
X51784Y-42130D01*
X69859Y-35366D02*
X70843Y-35193D01*
X70843Y-35193D02*
X71191Y-37162D01*
X71191Y-37162D02*
X70206Y-37336D01*
X70206Y-37336D02*
X69859Y-35366D01*
X89156Y-35193D02*
X90140Y-35366D01*
X90140Y-35366D02*
X89793Y-37336D01*
X89793Y-37336D02*
X88808Y-37162D01*
X88808Y-37162D02*
X89156Y-35193D01*
X37113Y-54667D02*
X37756Y-53900D01*
X37756Y-53900D02*
X39288Y-55186D01*
X39288Y-55186D02*
X38645Y-55952D01*
X38645Y-55952D02*
X37113Y-54667D01*
X27957Y-109474D02*
X27615Y-108534D01*
X27615Y-108534D02*
X29494Y-107850D01*
X29494Y-107850D02*
X29837Y-108790D01*
X29837Y-108790D02*
X27957Y-109474D01*
X132384Y-108534D02*
X132042Y-109474D01*
X132042Y-109474D02*
X130162Y-108790D01*
X130162Y-108790D02*
X130504Y-107850D01*
X130504Y-107850D02*
X132384Y-108534D01*
X132042Y-70525D02*
X132384Y-71465D01*
X132384Y-71465D02*
X130504Y-72149D01*
X130504Y-72149D02*
X130162Y-71209D01*
X130162Y-71209D02*
X132042Y-70525D01*
X122243Y-53900D02*
X122886Y-54667D01*
X122886Y-54667D02*
X121354Y-55952D01*
X121354Y-55952D02*
X120711Y-55186D01*
X120711Y-55186D02*
X122243Y-53900D01*
X27615Y-71465D02*
X27957Y-70525D01*
X27957Y-70525D02*
X29837Y-71209D01*
X29837Y-71209D02*
X29494Y-72149D01*
X29494Y-72149D02*
X27615Y-71465D01*
X107349Y-41630D02*
X108215Y-42130D01*
X108215Y-42130D02*
X107215Y-43862D01*
X107215Y-43862D02*
X106349Y-43362D01*
X106349Y-43362D02*
X107349Y-41630D01*
X24435Y-90500D02*
X24435Y-89500D01*
X24435Y-89500D02*
X26435Y-89500D01*
X26435Y-89500D02*
X26435Y-90500D01*
X26435Y-90500D02*
X24435Y-90500D01*
G54D14*
X98650Y-41948D02*
X95648Y-47147D01*
X95648Y-47147D02*
X109286Y-55022D01*
X109286Y-55022D02*
X112288Y-49822D01*
X112288Y-49822D02*
X112859Y-48833D01*
X112859Y-48833D02*
X99221Y-40959D01*
X99221Y-40959D02*
X98650Y-41948D01*
X130560Y-100023D02*
X124918Y-97969D01*
X124918Y-97969D02*
X119532Y-112768D01*
X119532Y-112768D02*
X125174Y-114821D01*
X125174Y-114821D02*
X126247Y-115212D01*
X126247Y-115212D02*
X131633Y-100413D01*
X131633Y-100413D02*
X130560Y-100023D01*
X130939Y-82125D02*
X124935Y-82125D01*
X124935Y-82125D02*
X124935Y-97874D01*
X124935Y-97874D02*
X130939Y-97874D01*
X130939Y-97874D02*
X132081Y-97874D01*
X132081Y-97874D02*
X132081Y-82125D01*
X132081Y-82125D02*
X130939Y-82125D01*
X125174Y-65178D02*
X119532Y-67231D01*
X119532Y-67231D02*
X124918Y-82030D01*
X124918Y-82030D02*
X130560Y-79976D01*
X130560Y-79976D02*
X131633Y-79586D01*
X131633Y-79586D02*
X126247Y-64787D01*
X126247Y-64787D02*
X125174Y-65178D01*
X113960Y-51224D02*
X109361Y-55084D01*
X109361Y-55084D02*
X119483Y-67147D01*
X119483Y-67147D02*
X124082Y-63288D01*
X124082Y-63288D02*
X124957Y-62554D01*
X124957Y-62554D02*
X114834Y-50490D01*
X114834Y-50490D02*
X113960Y-51224D01*
X81091Y-38467D02*
X80048Y-44380D01*
X80048Y-44380D02*
X95557Y-47114D01*
X95557Y-47114D02*
X96600Y-41201D01*
X96600Y-41201D02*
X96798Y-40077D01*
X96798Y-40077D02*
X81289Y-37342D01*
X81289Y-37342D02*
X81091Y-38467D01*
X63399Y-41201D02*
X64442Y-47114D01*
X64442Y-47114D02*
X79951Y-44380D01*
X79951Y-44380D02*
X78908Y-38467D01*
X78908Y-38467D02*
X78710Y-37342D01*
X78710Y-37342D02*
X63201Y-40077D01*
X63201Y-40077D02*
X63399Y-41201D01*
X47711Y-49822D02*
X50713Y-55022D01*
X50713Y-55022D02*
X64351Y-47147D01*
X64351Y-47147D02*
X61349Y-41948D01*
X61349Y-41948D02*
X60778Y-40959D01*
X60778Y-40959D02*
X47140Y-48833D01*
X47140Y-48833D02*
X47711Y-49822D01*
X35917Y-63288D02*
X40516Y-67147D01*
X40516Y-67147D02*
X50638Y-55084D01*
X50638Y-55084D02*
X46039Y-51224D01*
X46039Y-51224D02*
X45165Y-50490D01*
X45165Y-50490D02*
X35042Y-62554D01*
X35042Y-62554D02*
X35917Y-63288D01*
X29439Y-79976D02*
X35081Y-82030D01*
X35081Y-82030D02*
X40467Y-67231D01*
X40467Y-67231D02*
X34825Y-65178D01*
X34825Y-65178D02*
X33752Y-64787D01*
X33752Y-64787D02*
X28366Y-79586D01*
X28366Y-79586D02*
X29439Y-79976D01*
X29060Y-97874D02*
X35064Y-97874D01*
X35064Y-97874D02*
X35064Y-82125D01*
X35064Y-82125D02*
X29060Y-82125D01*
X29060Y-82125D02*
X27918Y-82125D01*
X27918Y-82125D02*
X27918Y-97874D01*
X27918Y-97874D02*
X29060Y-97874D01*
X34825Y-114821D02*
X40467Y-112768D01*
X40467Y-112768D02*
X35081Y-97969D01*
X35081Y-97969D02*
X29439Y-100023D01*
X29439Y-100023D02*
X28366Y-100413D01*
X28366Y-100413D02*
X33752Y-115212D01*
X33752Y-115212D02*
X34825Y-114821D01*
G54D13*
X29750Y-25000D02*
X35250Y-25000D01*
X35250Y-25000D02*
X35250Y-30750D01*
X35250Y-30750D02*
X29750Y-30750D01*
X29750Y-30750D02*
X29750Y-25000D01*
X82061Y-29935D02*
G75*
G03X82061Y-29935I-2061J0D01*
G74*
G01*
G54D18*
X80450Y-29835D02*
X80450Y-29585D01*
X80450Y-29585D02*
X79550Y-29585D01*
X79550Y-29835D02*
X79550Y-29585D01*
X80450Y-29835D02*
X79550Y-29835D01*
G54D17*
X80000Y-30385D02*
X80000Y-30285D01*
X80000Y-30285D02*
X80450Y-30285D01*
X80450Y-30285D02*
X80450Y-30035D01*
X80450Y-30035D02*
X79550Y-30035D01*
X79550Y-30035D02*
X79550Y-30285D01*
X79550Y-30285D02*
X80000Y-30285D01*
X80000Y-29685D02*
X80000Y-29485D01*
X79850Y-32435D02*
X80150Y-32435D01*
X80000Y-32285D02*
X80000Y-32585D01*
X80000Y-29485D02*
X80000Y-29285D01*
X80000Y-30585D02*
X80000Y-30385D01*
G54D13*
X22909Y-100429D02*
G75*
G03X22909Y-100429I-2061J0D01*
G74*
G01*
G54D18*
X20671Y-100004D02*
X20425Y-100047D01*
X20425Y-100047D02*
X20581Y-100933D01*
X20827Y-100890D02*
X20581Y-100933D01*
X20671Y-100004D02*
X20827Y-100890D01*
G54D17*
X21291Y-100351D02*
X21192Y-100369D01*
X21192Y-100369D02*
X21114Y-99925D01*
X21114Y-99925D02*
X20868Y-99969D01*
X20868Y-99969D02*
X21024Y-100855D01*
X21024Y-100855D02*
X21271Y-100812D01*
X21271Y-100812D02*
X21192Y-100369D01*
X20601Y-100473D02*
X20405Y-100508D01*
X23336Y-100143D02*
X23284Y-99848D01*
X23162Y-100021D02*
X23457Y-99969D01*
X20405Y-100508D02*
X20208Y-100542D01*
X21488Y-100317D02*
X21291Y-100351D01*
G54D13*
X22909Y-79570D02*
G75*
G03X22909Y-79570I-2061J0D01*
G74*
G01*
G54D18*
X20827Y-79109D02*
X20581Y-79066D01*
X20581Y-79066D02*
X20425Y-79952D01*
X20671Y-79995D02*
X20425Y-79952D01*
X20827Y-79109D02*
X20671Y-79995D01*
G54D17*
X21291Y-79648D02*
X21192Y-79630D01*
X21192Y-79630D02*
X21271Y-79187D01*
X21271Y-79187D02*
X21024Y-79144D01*
X21024Y-79144D02*
X20868Y-80030D01*
X20868Y-80030D02*
X21114Y-80074D01*
X21114Y-80074D02*
X21192Y-79630D01*
X20601Y-79526D02*
X20405Y-79491D01*
X23284Y-80151D02*
X23336Y-79856D01*
X23162Y-79978D02*
X23457Y-80030D01*
X20405Y-79491D02*
X20208Y-79457D01*
X21488Y-79682D02*
X21291Y-79648D01*
G54D13*
X30044Y-59967D02*
G75*
G03X30044Y-59967I-2061J0D01*
G74*
G01*
G54D18*
X28121Y-59528D02*
X27904Y-59403D01*
X27904Y-59403D02*
X27454Y-60182D01*
X27671Y-60307D02*
X27454Y-60182D01*
X28121Y-59528D02*
X27671Y-60307D01*
G54D17*
X28372Y-60192D02*
X28285Y-60142D01*
X28285Y-60142D02*
X28510Y-59753D01*
X28510Y-59753D02*
X28294Y-59628D01*
X28294Y-59628D02*
X27844Y-60407D01*
X27844Y-60407D02*
X28060Y-60532D01*
X28060Y-60532D02*
X28285Y-60142D01*
X27766Y-59842D02*
X27593Y-59742D01*
X30072Y-61347D02*
X30222Y-61087D01*
X30017Y-61142D02*
X30277Y-61292D01*
X27593Y-59742D02*
X27419Y-59642D01*
X28545Y-60292D02*
X28372Y-60192D01*
G54D13*
X43452Y-43988D02*
G75*
G03X43452Y-43988I-2061J0D01*
G74*
G01*
G54D18*
X41671Y-43622D02*
X41511Y-43430D01*
X41511Y-43430D02*
X40821Y-44009D01*
X40982Y-44200D02*
X40821Y-44009D01*
X41671Y-43622D02*
X40982Y-44200D01*
G54D17*
X41680Y-44332D02*
X41616Y-44256D01*
X41616Y-44256D02*
X41961Y-43967D01*
X41961Y-43967D02*
X41800Y-43775D01*
X41800Y-43775D02*
X41110Y-44354D01*
X41110Y-44354D02*
X41271Y-44545D01*
X41271Y-44545D02*
X41616Y-44256D01*
X41230Y-43796D02*
X41102Y-43643D01*
X42883Y-45999D02*
X43113Y-45806D01*
X42901Y-45788D02*
X43094Y-46018D01*
X41102Y-43643D02*
X40973Y-43490D01*
X41809Y-44486D02*
X41680Y-44332D01*
G54D13*
X61518Y-33557D02*
G75*
G03X61518Y-33557I-2061J0D01*
G74*
G01*
G54D18*
X59845Y-33310D02*
X59759Y-33075D01*
X59759Y-33075D02*
X58914Y-33383D01*
X58999Y-33617D02*
X58914Y-33383D01*
X59845Y-33310D02*
X58999Y-33617D01*
G54D17*
X59610Y-33980D02*
X59576Y-33886D01*
X59576Y-33886D02*
X59999Y-33732D01*
X59999Y-33732D02*
X59913Y-33498D01*
X59913Y-33498D02*
X59068Y-33805D01*
X59068Y-33805D02*
X59153Y-34040D01*
X59153Y-34040D02*
X59576Y-33886D01*
X59371Y-33323D02*
X59302Y-33135D01*
X60170Y-35958D02*
X60452Y-35855D01*
X60260Y-35766D02*
X60363Y-36048D01*
X59302Y-33135D02*
X59234Y-32947D01*
X59679Y-34168D02*
X59610Y-33980D01*
G54D12*
X30331Y-69793D02*
X28470Y-69116D01*
X28470Y-69116D02*
X28812Y-68176D01*
X28812Y-68176D02*
X30692Y-68860D01*
X30692Y-68860D02*
X30350Y-69800D01*
X30435Y-69565D02*
X30115Y-69714D01*
X28963Y-106447D02*
X27102Y-107124D01*
X27102Y-107124D02*
X26760Y-106185D01*
X26760Y-106185D02*
X28639Y-105501D01*
X28639Y-105501D02*
X28981Y-106440D01*
X28896Y-106205D02*
X28747Y-106526D01*
X26415Y-88000D02*
X24435Y-88000D01*
X24435Y-88000D02*
X24435Y-87000D01*
X24435Y-87000D02*
X26435Y-87000D01*
X26435Y-87000D02*
X26435Y-88000D01*
X26435Y-87750D02*
X26185Y-88000D01*
X131036Y-73552D02*
X132897Y-72875D01*
X132897Y-72875D02*
X133239Y-73814D01*
X133239Y-73814D02*
X131360Y-74498D01*
X131360Y-74498D02*
X131018Y-73559D01*
X131103Y-73794D02*
X131252Y-73473D01*
X40237Y-54024D02*
X38720Y-52752D01*
X38720Y-52752D02*
X39363Y-51986D01*
X39363Y-51986D02*
X40895Y-53271D01*
X40895Y-53271D02*
X40252Y-54037D01*
X40413Y-53846D02*
X40061Y-53876D01*
X54940Y-42594D02*
X53950Y-40880D01*
X53950Y-40880D02*
X54816Y-40380D01*
X54816Y-40380D02*
X55816Y-42112D01*
X55816Y-42112D02*
X54950Y-42612D01*
X55166Y-42487D02*
X54825Y-42395D01*
X72664Y-36882D02*
X72320Y-34932D01*
X72320Y-34932D02*
X73305Y-34758D01*
X73305Y-34758D02*
X73653Y-36728D01*
X73653Y-36728D02*
X72668Y-36902D01*
X72914Y-36858D02*
X72624Y-36655D01*
X91274Y-37577D02*
X91618Y-35627D01*
X91618Y-35627D02*
X92603Y-35800D01*
X92603Y-35800D02*
X92255Y-37770D01*
X92255Y-37770D02*
X91270Y-37596D01*
X91517Y-37640D02*
X91314Y-37350D01*
X129668Y-110206D02*
X131529Y-110883D01*
X131529Y-110883D02*
X131187Y-111823D01*
X131187Y-111823D02*
X129307Y-111139D01*
X129307Y-111139D02*
X129649Y-110199D01*
X129564Y-110434D02*
X129884Y-110285D01*
X108524Y-44594D02*
X109514Y-42880D01*
X109514Y-42880D02*
X110380Y-43380D01*
X110380Y-43380D02*
X109380Y-45112D01*
X109380Y-45112D02*
X108514Y-44612D01*
X108730Y-44737D02*
X108639Y-44395D01*
X133584Y-92000D02*
X135564Y-92000D01*
X135564Y-92000D02*
X135564Y-93000D01*
X135564Y-93000D02*
X133564Y-93000D01*
X133564Y-93000D02*
X133564Y-92000D01*
X133564Y-92250D02*
X133814Y-92000D01*
X122333Y-57088D02*
X123850Y-55815D01*
X123850Y-55815D02*
X124492Y-56581D01*
X124492Y-56581D02*
X122960Y-57867D01*
X122960Y-57867D02*
X122318Y-57101D01*
X122478Y-57293D02*
X122509Y-56940D01*
G54D14*
X39047Y-26500D02*
X39047Y-24925D01*
X39047Y-24925D02*
X44952Y-24925D01*
X44952Y-24925D02*
X44952Y-26500D01*
X44952Y-26500D02*
X44952Y-28468D01*
X44952Y-28468D02*
X39047Y-28468D01*
X39047Y-28468D02*
X39047Y-26500D01*
G54D13*
X102604Y-33557D02*
G75*
G03X102604Y-33557I-2061J0D01*
G74*
G01*
G54D18*
X101000Y-33617D02*
X101085Y-33383D01*
X101085Y-33383D02*
X100240Y-33075D01*
X100154Y-33310D02*
X100240Y-33075D01*
X101000Y-33617D02*
X100154Y-33310D01*
G54D17*
X100389Y-33980D02*
X100423Y-33886D01*
X100423Y-33886D02*
X100846Y-34040D01*
X100846Y-34040D02*
X100931Y-33805D01*
X100931Y-33805D02*
X100086Y-33498D01*
X100086Y-33498D02*
X100000Y-33732D01*
X100000Y-33732D02*
X100423Y-33886D01*
X100628Y-33323D02*
X100697Y-33135D01*
X99547Y-35855D02*
X99829Y-35958D01*
X99739Y-35766D02*
X99636Y-36048D01*
X100697Y-33135D02*
X100765Y-32947D01*
X100320Y-34168D02*
X100389Y-33980D01*
G54D13*
X120670Y-43988D02*
G75*
G03X120670Y-43988I-2061J0D01*
G74*
G01*
G54D18*
X119017Y-44200D02*
X119178Y-44009D01*
X119178Y-44009D02*
X118488Y-43430D01*
X118328Y-43622D02*
X118488Y-43430D01*
X119017Y-44200D02*
X118328Y-43622D01*
G54D17*
X118319Y-44332D02*
X118383Y-44256D01*
X118383Y-44256D02*
X118728Y-44545D01*
X118728Y-44545D02*
X118889Y-44354D01*
X118889Y-44354D02*
X118199Y-43775D01*
X118199Y-43775D02*
X118038Y-43967D01*
X118038Y-43967D02*
X118383Y-44256D01*
X118769Y-43796D02*
X118897Y-43643D01*
X116886Y-45806D02*
X117116Y-45999D01*
X117098Y-45788D02*
X116905Y-46018D01*
X118897Y-43643D02*
X119026Y-43490D01*
X118190Y-44486D02*
X118319Y-44332D01*
G54D13*
X134078Y-59967D02*
G75*
G03X134078Y-59967I-2061J0D01*
G74*
G01*
G54D18*
X132328Y-60307D02*
X132545Y-60182D01*
X132545Y-60182D02*
X132095Y-59403D01*
X131878Y-59528D02*
X132095Y-59403D01*
X132328Y-60307D02*
X131878Y-59528D01*
G54D17*
X131627Y-60192D02*
X131714Y-60142D01*
X131714Y-60142D02*
X131939Y-60532D01*
X131939Y-60532D02*
X132155Y-60407D01*
X132155Y-60407D02*
X131705Y-59628D01*
X131705Y-59628D02*
X131489Y-59753D01*
X131489Y-59753D02*
X131714Y-60142D01*
X132233Y-59842D02*
X132407Y-59742D01*
X129777Y-61087D02*
X129927Y-61347D01*
X129982Y-61142D02*
X129722Y-61292D01*
X132407Y-59742D02*
X132580Y-59642D01*
X131454Y-60292D02*
X131627Y-60192D01*
G54D13*
X141213Y-79570D02*
G75*
G03X141213Y-79570I-2061J0D01*
G74*
G01*
G54D18*
X139328Y-79995D02*
X139574Y-79952D01*
X139574Y-79952D02*
X139418Y-79066D01*
X139172Y-79109D02*
X139418Y-79066D01*
X139328Y-79995D02*
X139172Y-79109D01*
G54D17*
X138708Y-79648D02*
X138807Y-79630D01*
X138807Y-79630D02*
X138885Y-80074D01*
X138885Y-80074D02*
X139131Y-80030D01*
X139131Y-80030D02*
X138975Y-79144D01*
X138975Y-79144D02*
X138729Y-79187D01*
X138729Y-79187D02*
X138807Y-79630D01*
X139398Y-79526D02*
X139595Y-79491D01*
X136663Y-79856D02*
X136715Y-80151D01*
X136837Y-79978D02*
X136542Y-80030D01*
X139595Y-79491D02*
X139792Y-79457D01*
X138511Y-79682D02*
X138708Y-79648D01*
G54D13*
X141213Y-100429D02*
G75*
G03X141213Y-100429I-2061J0D01*
G74*
G01*
G54D18*
X139172Y-100890D02*
X139418Y-100933D01*
X139418Y-100933D02*
X139574Y-100047D01*
X139328Y-100004D02*
X139574Y-100047D01*
X139172Y-100890D02*
X139328Y-100004D01*
G54D17*
X138708Y-100351D02*
X138807Y-100369D01*
X138807Y-100369D02*
X138729Y-100812D01*
X138729Y-100812D02*
X138975Y-100855D01*
X138975Y-100855D02*
X139131Y-99969D01*
X139131Y-99969D02*
X138885Y-99925D01*
X138885Y-99925D02*
X138807Y-100369D01*
X139398Y-100473D02*
X139595Y-100508D01*
X136715Y-99848D02*
X136663Y-100143D01*
X136837Y-100021D02*
X136542Y-99969D01*
X139595Y-100508D02*
X139792Y-100542D01*
X138511Y-100317D02*
X138708Y-100351D01*
G54D18*
X129014Y-29984D02*
X129014Y-29584D01*
X129166Y-29584D01*
X129204Y-29603D01*
X129223Y-29622D01*
X129242Y-29660D01*
X129242Y-29718D01*
X129223Y-29756D01*
X129204Y-29775D01*
X129166Y-29794D01*
X129014Y-29794D01*
X129395Y-29622D02*
X129414Y-29603D01*
X129452Y-29584D01*
X129547Y-29584D01*
X129585Y-29603D01*
X129604Y-29622D01*
X129623Y-29660D01*
X129623Y-29699D01*
X129604Y-29756D01*
X129376Y-29984D01*
X129623Y-29984D01*
X129985Y-29584D02*
X129795Y-29584D01*
X129776Y-29775D01*
X129795Y-29756D01*
X129833Y-29737D01*
X129928Y-29737D01*
X129966Y-29756D01*
X129985Y-29775D01*
X130004Y-29813D01*
X130004Y-29908D01*
X129985Y-29946D01*
X129966Y-29965D01*
X129928Y-29984D01*
X129833Y-29984D01*
X129795Y-29965D01*
X129776Y-29946D01*
G54D10*
X73406Y-29884D02*
X73406Y-30203D01*
X73425Y-30240D01*
X73443Y-30259D01*
X73481Y-30278D01*
X73556Y-30278D01*
X73593Y-30259D01*
X73612Y-30240D01*
X73631Y-30203D01*
X73631Y-29884D01*
X73987Y-29884D02*
X73912Y-29884D01*
X73875Y-29903D01*
X73856Y-29922D01*
X73818Y-29978D01*
X73800Y-30053D01*
X73800Y-30203D01*
X73818Y-30240D01*
X73837Y-30259D01*
X73875Y-30278D01*
X73949Y-30278D01*
X73987Y-30259D01*
X74006Y-30240D01*
X74024Y-30203D01*
X74024Y-30109D01*
X74006Y-30071D01*
X73987Y-30053D01*
X73949Y-30034D01*
X73875Y-30034D01*
X73837Y-30053D01*
X73818Y-30071D01*
X73800Y-30109D01*
X69710Y-33735D02*
X69729Y-33679D01*
X69729Y-33585D01*
X69710Y-33547D01*
X69691Y-33529D01*
X69654Y-33510D01*
X69616Y-33510D01*
X69579Y-33529D01*
X69560Y-33547D01*
X69541Y-33585D01*
X69523Y-33660D01*
X69504Y-33697D01*
X69485Y-33716D01*
X69448Y-33735D01*
X69410Y-33735D01*
X69373Y-33716D01*
X69354Y-33697D01*
X69335Y-33660D01*
X69335Y-33566D01*
X69354Y-33510D01*
X69729Y-33341D02*
X69335Y-33341D01*
X69335Y-33191D01*
X69354Y-33154D01*
X69373Y-33135D01*
X69410Y-33116D01*
X69466Y-33116D01*
X69504Y-33135D01*
X69523Y-33154D01*
X69541Y-33191D01*
X69541Y-33341D01*
X69616Y-32966D02*
X69616Y-32779D01*
X69729Y-33004D02*
X69335Y-32872D01*
X69729Y-32741D01*
X69729Y-32385D02*
X69541Y-32516D01*
X69729Y-32610D02*
X69335Y-32610D01*
X69335Y-32460D01*
X69354Y-32422D01*
X69373Y-32404D01*
X69410Y-32385D01*
X69466Y-32385D01*
X69504Y-32404D01*
X69523Y-32422D01*
X69541Y-32460D01*
X69541Y-32610D01*
X69729Y-32216D02*
X69335Y-32216D01*
X69729Y-31991D02*
X69504Y-32160D01*
X69335Y-31991D02*
X69560Y-32216D01*
X69523Y-31691D02*
X69523Y-31823D01*
X69729Y-31823D02*
X69335Y-31823D01*
X69335Y-31635D01*
X69335Y-31485D02*
X69654Y-31485D01*
X69691Y-31466D01*
X69710Y-31448D01*
X69729Y-31410D01*
X69729Y-31335D01*
X69710Y-31298D01*
X69691Y-31279D01*
X69654Y-31260D01*
X69335Y-31260D01*
X69729Y-31073D02*
X69335Y-31073D01*
X69729Y-30848D01*
X69335Y-30848D01*
X69766Y-30754D02*
X69766Y-30454D01*
X69335Y-30416D02*
X69335Y-30192D01*
X69729Y-30304D02*
X69335Y-30304D01*
X69335Y-30098D02*
X69729Y-29835D01*
X69335Y-29835D02*
X69729Y-30098D01*
X69523Y-29554D02*
X69541Y-29498D01*
X69560Y-29479D01*
X69598Y-29460D01*
X69654Y-29460D01*
X69691Y-29479D01*
X69710Y-29498D01*
X69729Y-29535D01*
X69729Y-29685D01*
X69335Y-29685D01*
X69335Y-29554D01*
X69354Y-29517D01*
X69373Y-29498D01*
X69410Y-29479D01*
X69448Y-29479D01*
X69485Y-29498D01*
X69504Y-29517D01*
X69523Y-29554D01*
X69523Y-29685D01*
X69335Y-29217D02*
X69335Y-29179D01*
X69354Y-29142D01*
X69373Y-29123D01*
X69410Y-29104D01*
X69485Y-29085D01*
X69579Y-29085D01*
X69654Y-29104D01*
X69691Y-29123D01*
X69710Y-29142D01*
X69729Y-29179D01*
X69729Y-29217D01*
X69710Y-29254D01*
X69691Y-29273D01*
X69654Y-29292D01*
X69579Y-29310D01*
X69485Y-29310D01*
X69410Y-29292D01*
X69373Y-29273D01*
X69354Y-29254D01*
X69335Y-29217D01*
X69729Y-28710D02*
X69729Y-28935D01*
X69729Y-28823D02*
X69335Y-28823D01*
X69391Y-28860D01*
X69429Y-28898D01*
X69448Y-28935D01*
X69335Y-28467D02*
X69335Y-28429D01*
X69354Y-28392D01*
X69373Y-28373D01*
X69410Y-28354D01*
X69485Y-28336D01*
X69579Y-28336D01*
X69654Y-28354D01*
X69691Y-28373D01*
X69710Y-28392D01*
X69729Y-28429D01*
X69729Y-28467D01*
X69710Y-28504D01*
X69691Y-28523D01*
X69654Y-28542D01*
X69579Y-28560D01*
X69485Y-28560D01*
X69410Y-28542D01*
X69373Y-28523D01*
X69354Y-28504D01*
X69335Y-28467D01*
X69466Y-27998D02*
X69729Y-27998D01*
X69316Y-28092D02*
X69598Y-28186D01*
X69598Y-27942D01*
X53305Y-35648D02*
X53305Y-35967D01*
X53323Y-36004D01*
X53342Y-36023D01*
X53380Y-36042D01*
X53455Y-36042D01*
X53492Y-36023D01*
X53511Y-36004D01*
X53530Y-35967D01*
X53530Y-35648D01*
X53904Y-35648D02*
X53717Y-35648D01*
X53698Y-35835D01*
X53717Y-35817D01*
X53755Y-35798D01*
X53848Y-35798D01*
X53886Y-35817D01*
X53904Y-35835D01*
X53923Y-35873D01*
X53923Y-35967D01*
X53904Y-36004D01*
X53886Y-36023D01*
X53848Y-36042D01*
X53755Y-36042D01*
X53717Y-36023D01*
X53698Y-36004D01*
X50108Y-40869D02*
X50127Y-40813D01*
X50127Y-40719D01*
X50108Y-40682D01*
X50089Y-40663D01*
X50052Y-40644D01*
X50014Y-40644D01*
X49977Y-40663D01*
X49958Y-40682D01*
X49939Y-40719D01*
X49920Y-40794D01*
X49902Y-40832D01*
X49883Y-40851D01*
X49845Y-40869D01*
X49808Y-40869D01*
X49770Y-40851D01*
X49752Y-40832D01*
X49733Y-40794D01*
X49733Y-40701D01*
X49752Y-40644D01*
X50127Y-40476D02*
X49733Y-40476D01*
X49733Y-40326D01*
X49752Y-40288D01*
X49770Y-40269D01*
X49808Y-40251D01*
X49864Y-40251D01*
X49902Y-40269D01*
X49920Y-40288D01*
X49939Y-40326D01*
X49939Y-40476D01*
X50014Y-40101D02*
X50014Y-39913D01*
X50127Y-40138D02*
X49733Y-40007D01*
X50127Y-39876D01*
X50127Y-39520D02*
X49939Y-39651D01*
X50127Y-39745D02*
X49733Y-39745D01*
X49733Y-39595D01*
X49752Y-39557D01*
X49770Y-39538D01*
X49808Y-39520D01*
X49864Y-39520D01*
X49902Y-39538D01*
X49920Y-39557D01*
X49939Y-39595D01*
X49939Y-39745D01*
X50127Y-39351D02*
X49733Y-39351D01*
X50127Y-39126D02*
X49902Y-39295D01*
X49733Y-39126D02*
X49958Y-39351D01*
X49920Y-38826D02*
X49920Y-38957D01*
X50127Y-38957D02*
X49733Y-38957D01*
X49733Y-38770D01*
X49733Y-38620D02*
X50052Y-38620D01*
X50089Y-38601D01*
X50108Y-38582D01*
X50127Y-38545D01*
X50127Y-38470D01*
X50108Y-38432D01*
X50089Y-38413D01*
X50052Y-38395D01*
X49733Y-38395D01*
X50127Y-38207D02*
X49733Y-38207D01*
X50127Y-37982D01*
X49733Y-37982D01*
X50164Y-37889D02*
X50164Y-37589D01*
X49733Y-37551D02*
X49733Y-37326D01*
X50127Y-37439D02*
X49733Y-37439D01*
X49733Y-37232D02*
X50127Y-36970D01*
X49733Y-36970D02*
X50127Y-37232D01*
X49920Y-36689D02*
X49939Y-36632D01*
X49958Y-36614D01*
X49995Y-36595D01*
X50052Y-36595D01*
X50089Y-36614D01*
X50108Y-36632D01*
X50127Y-36670D01*
X50127Y-36820D01*
X49733Y-36820D01*
X49733Y-36689D01*
X49752Y-36651D01*
X49770Y-36632D01*
X49808Y-36614D01*
X49845Y-36614D01*
X49883Y-36632D01*
X49902Y-36651D01*
X49920Y-36689D01*
X49920Y-36820D01*
X49733Y-36351D02*
X49733Y-36314D01*
X49752Y-36276D01*
X49770Y-36257D01*
X49808Y-36239D01*
X49883Y-36220D01*
X49977Y-36220D01*
X50052Y-36239D01*
X50089Y-36257D01*
X50108Y-36276D01*
X50127Y-36314D01*
X50127Y-36351D01*
X50108Y-36389D01*
X50089Y-36407D01*
X50052Y-36426D01*
X49977Y-36445D01*
X49883Y-36445D01*
X49808Y-36426D01*
X49770Y-36407D01*
X49752Y-36389D01*
X49733Y-36351D01*
X50127Y-35845D02*
X50127Y-36070D01*
X50127Y-35958D02*
X49733Y-35958D01*
X49789Y-35995D01*
X49827Y-36032D01*
X49845Y-36070D01*
X49733Y-35601D02*
X49733Y-35564D01*
X49752Y-35526D01*
X49770Y-35508D01*
X49808Y-35489D01*
X49883Y-35470D01*
X49977Y-35470D01*
X50052Y-35489D01*
X50089Y-35508D01*
X50108Y-35526D01*
X50127Y-35564D01*
X50127Y-35601D01*
X50108Y-35639D01*
X50089Y-35658D01*
X50052Y-35676D01*
X49977Y-35695D01*
X49883Y-35695D01*
X49808Y-35676D01*
X49770Y-35658D01*
X49752Y-35639D01*
X49733Y-35601D01*
X49864Y-35133D02*
X50127Y-35133D01*
X49714Y-35226D02*
X49995Y-35320D01*
X49995Y-35076D01*
X36387Y-47939D02*
X36387Y-48258D01*
X36406Y-48295D01*
X36425Y-48314D01*
X36462Y-48333D01*
X36537Y-48333D01*
X36575Y-48314D01*
X36594Y-48295D01*
X36612Y-48258D01*
X36612Y-47939D01*
X36968Y-48070D02*
X36968Y-48333D01*
X36875Y-47920D02*
X36781Y-48202D01*
X37025Y-48202D01*
X34128Y-54278D02*
X34147Y-54222D01*
X34147Y-54128D01*
X34128Y-54091D01*
X34109Y-54072D01*
X34072Y-54053D01*
X34034Y-54053D01*
X33997Y-54072D01*
X33978Y-54091D01*
X33959Y-54128D01*
X33941Y-54203D01*
X33922Y-54240D01*
X33903Y-54259D01*
X33866Y-54278D01*
X33828Y-54278D01*
X33791Y-54259D01*
X33772Y-54240D01*
X33753Y-54203D01*
X33753Y-54109D01*
X33772Y-54053D01*
X34147Y-53884D02*
X33753Y-53884D01*
X33753Y-53734D01*
X33772Y-53697D01*
X33791Y-53678D01*
X33828Y-53659D01*
X33884Y-53659D01*
X33922Y-53678D01*
X33941Y-53697D01*
X33959Y-53734D01*
X33959Y-53884D01*
X34034Y-53509D02*
X34034Y-53322D01*
X34147Y-53547D02*
X33753Y-53416D01*
X34147Y-53284D01*
X34147Y-52928D02*
X33959Y-53059D01*
X34147Y-53153D02*
X33753Y-53153D01*
X33753Y-53003D01*
X33772Y-52966D01*
X33791Y-52947D01*
X33828Y-52928D01*
X33884Y-52928D01*
X33922Y-52947D01*
X33941Y-52966D01*
X33959Y-53003D01*
X33959Y-53153D01*
X34147Y-52759D02*
X33753Y-52759D01*
X34147Y-52534D02*
X33922Y-52703D01*
X33753Y-52534D02*
X33978Y-52759D01*
X33941Y-52234D02*
X33941Y-52366D01*
X34147Y-52366D02*
X33753Y-52366D01*
X33753Y-52178D01*
X33753Y-52028D02*
X34072Y-52028D01*
X34109Y-52010D01*
X34128Y-51991D01*
X34147Y-51953D01*
X34147Y-51878D01*
X34128Y-51841D01*
X34109Y-51822D01*
X34072Y-51803D01*
X33753Y-51803D01*
X34147Y-51616D02*
X33753Y-51616D01*
X34147Y-51391D01*
X33753Y-51391D01*
X34184Y-51297D02*
X34184Y-50997D01*
X33753Y-50960D02*
X33753Y-50735D01*
X34147Y-50847D02*
X33753Y-50847D01*
X33753Y-50641D02*
X34147Y-50378D01*
X33753Y-50378D02*
X34147Y-50641D01*
X33941Y-50097D02*
X33959Y-50041D01*
X33978Y-50022D01*
X34016Y-50004D01*
X34072Y-50004D01*
X34109Y-50022D01*
X34128Y-50041D01*
X34147Y-50079D01*
X34147Y-50228D01*
X33753Y-50228D01*
X33753Y-50097D01*
X33772Y-50060D01*
X33791Y-50041D01*
X33828Y-50022D01*
X33866Y-50022D01*
X33903Y-50041D01*
X33922Y-50060D01*
X33941Y-50097D01*
X33941Y-50228D01*
X33753Y-49760D02*
X33753Y-49722D01*
X33772Y-49685D01*
X33791Y-49666D01*
X33828Y-49647D01*
X33903Y-49629D01*
X33997Y-49629D01*
X34072Y-49647D01*
X34109Y-49666D01*
X34128Y-49685D01*
X34147Y-49722D01*
X34147Y-49760D01*
X34128Y-49797D01*
X34109Y-49816D01*
X34072Y-49835D01*
X33997Y-49854D01*
X33903Y-49854D01*
X33828Y-49835D01*
X33791Y-49816D01*
X33772Y-49797D01*
X33753Y-49760D01*
X34147Y-49254D02*
X34147Y-49479D01*
X34147Y-49366D02*
X33753Y-49366D01*
X33809Y-49404D01*
X33847Y-49441D01*
X33866Y-49479D01*
X33753Y-49010D02*
X33753Y-48972D01*
X33772Y-48935D01*
X33791Y-48916D01*
X33828Y-48897D01*
X33903Y-48879D01*
X33997Y-48879D01*
X34072Y-48897D01*
X34109Y-48916D01*
X34128Y-48935D01*
X34147Y-48972D01*
X34147Y-49010D01*
X34128Y-49047D01*
X34109Y-49066D01*
X34072Y-49085D01*
X33997Y-49104D01*
X33903Y-49104D01*
X33828Y-49085D01*
X33791Y-49066D01*
X33772Y-49047D01*
X33753Y-49010D01*
X33884Y-48541D02*
X34147Y-48541D01*
X33734Y-48635D02*
X34016Y-48729D01*
X34016Y-48485D01*
X134518Y-114255D02*
X134518Y-114574D01*
X134536Y-114611D01*
X134555Y-114630D01*
X134593Y-114649D01*
X134668Y-114649D01*
X134705Y-114630D01*
X134724Y-114611D01*
X134743Y-114574D01*
X134743Y-114255D01*
X135136Y-114649D02*
X134911Y-114649D01*
X135024Y-114649D02*
X135024Y-114255D01*
X134986Y-114311D01*
X134949Y-114349D01*
X134911Y-114368D01*
X135286Y-114293D02*
X135305Y-114274D01*
X135343Y-114255D01*
X135436Y-114255D01*
X135474Y-114274D01*
X135493Y-114293D01*
X135511Y-114330D01*
X135511Y-114368D01*
X135493Y-114424D01*
X135268Y-114649D01*
X135511Y-114649D01*
X136582Y-113430D02*
X136601Y-113374D01*
X136601Y-113280D01*
X136582Y-113242D01*
X136563Y-113224D01*
X136526Y-113205D01*
X136488Y-113205D01*
X136451Y-113224D01*
X136432Y-113242D01*
X136414Y-113280D01*
X136395Y-113355D01*
X136376Y-113392D01*
X136357Y-113411D01*
X136320Y-113430D01*
X136282Y-113430D01*
X136245Y-113411D01*
X136226Y-113392D01*
X136207Y-113355D01*
X136207Y-113261D01*
X136226Y-113205D01*
X136601Y-113036D02*
X136207Y-113036D01*
X136207Y-112886D01*
X136226Y-112849D01*
X136245Y-112830D01*
X136282Y-112811D01*
X136339Y-112811D01*
X136376Y-112830D01*
X136395Y-112849D01*
X136414Y-112886D01*
X136414Y-113036D01*
X136488Y-112661D02*
X136488Y-112474D01*
X136601Y-112699D02*
X136207Y-112568D01*
X136601Y-112436D01*
X136601Y-112080D02*
X136414Y-112211D01*
X136601Y-112305D02*
X136207Y-112305D01*
X136207Y-112155D01*
X136226Y-112118D01*
X136245Y-112099D01*
X136282Y-112080D01*
X136339Y-112080D01*
X136376Y-112099D01*
X136395Y-112118D01*
X136414Y-112155D01*
X136414Y-112305D01*
X136601Y-111911D02*
X136207Y-111911D01*
X136601Y-111686D02*
X136376Y-111855D01*
X136207Y-111686D02*
X136432Y-111911D01*
X136395Y-111386D02*
X136395Y-111518D01*
X136601Y-111518D02*
X136207Y-111518D01*
X136207Y-111330D01*
X136207Y-111180D02*
X136526Y-111180D01*
X136563Y-111161D01*
X136582Y-111143D01*
X136601Y-111105D01*
X136601Y-111030D01*
X136582Y-110993D01*
X136563Y-110974D01*
X136526Y-110955D01*
X136207Y-110955D01*
X136601Y-110768D02*
X136207Y-110768D01*
X136601Y-110543D01*
X136207Y-110543D01*
X136638Y-110449D02*
X136638Y-110149D01*
X136207Y-110112D02*
X136207Y-109887D01*
X136601Y-109999D02*
X136207Y-109999D01*
X136207Y-109793D02*
X136601Y-109530D01*
X136207Y-109530D02*
X136601Y-109793D01*
X136395Y-109249D02*
X136414Y-109193D01*
X136432Y-109174D01*
X136470Y-109155D01*
X136526Y-109155D01*
X136563Y-109174D01*
X136582Y-109193D01*
X136601Y-109230D01*
X136601Y-109380D01*
X136207Y-109380D01*
X136207Y-109249D01*
X136226Y-109212D01*
X136245Y-109193D01*
X136282Y-109174D01*
X136320Y-109174D01*
X136357Y-109193D01*
X136376Y-109212D01*
X136395Y-109249D01*
X136395Y-109380D01*
X136207Y-108912D02*
X136207Y-108874D01*
X136226Y-108837D01*
X136245Y-108818D01*
X136282Y-108799D01*
X136357Y-108781D01*
X136451Y-108781D01*
X136526Y-108799D01*
X136563Y-108818D01*
X136582Y-108837D01*
X136601Y-108874D01*
X136601Y-108912D01*
X136582Y-108949D01*
X136563Y-108968D01*
X136526Y-108987D01*
X136451Y-109005D01*
X136357Y-109005D01*
X136282Y-108987D01*
X136245Y-108968D01*
X136226Y-108949D01*
X136207Y-108912D01*
X136601Y-108406D02*
X136601Y-108631D01*
X136601Y-108518D02*
X136207Y-108518D01*
X136264Y-108556D01*
X136301Y-108593D01*
X136320Y-108631D01*
X136207Y-108162D02*
X136207Y-108124D01*
X136226Y-108087D01*
X136245Y-108068D01*
X136282Y-108049D01*
X136357Y-108031D01*
X136451Y-108031D01*
X136526Y-108049D01*
X136563Y-108068D01*
X136582Y-108087D01*
X136601Y-108124D01*
X136601Y-108162D01*
X136582Y-108199D01*
X136563Y-108218D01*
X136526Y-108237D01*
X136451Y-108256D01*
X136357Y-108256D01*
X136282Y-108237D01*
X136245Y-108218D01*
X136226Y-108199D01*
X136207Y-108162D01*
X136339Y-107693D02*
X136601Y-107693D01*
X136189Y-107787D02*
X136470Y-107881D01*
X136470Y-107637D01*
X24694Y-65275D02*
X24694Y-65594D01*
X24713Y-65631D01*
X24732Y-65650D01*
X24769Y-65669D01*
X24844Y-65669D01*
X24881Y-65650D01*
X24900Y-65631D01*
X24919Y-65594D01*
X24919Y-65275D01*
X25069Y-65275D02*
X25313Y-65275D01*
X25181Y-65425D01*
X25238Y-65425D01*
X25275Y-65444D01*
X25294Y-65463D01*
X25313Y-65500D01*
X25313Y-65594D01*
X25294Y-65631D01*
X25275Y-65650D01*
X25238Y-65669D01*
X25125Y-65669D01*
X25088Y-65650D01*
X25069Y-65631D01*
X23698Y-72343D02*
X23717Y-72287D01*
X23717Y-72193D01*
X23698Y-72156D01*
X23679Y-72137D01*
X23642Y-72118D01*
X23604Y-72118D01*
X23567Y-72137D01*
X23548Y-72156D01*
X23529Y-72193D01*
X23511Y-72268D01*
X23492Y-72306D01*
X23473Y-72325D01*
X23436Y-72343D01*
X23398Y-72343D01*
X23361Y-72325D01*
X23342Y-72306D01*
X23323Y-72268D01*
X23323Y-72175D01*
X23342Y-72118D01*
X23717Y-71950D02*
X23323Y-71950D01*
X23323Y-71800D01*
X23342Y-71762D01*
X23361Y-71743D01*
X23398Y-71725D01*
X23454Y-71725D01*
X23492Y-71743D01*
X23511Y-71762D01*
X23529Y-71800D01*
X23529Y-71950D01*
X23604Y-71575D02*
X23604Y-71387D01*
X23717Y-71612D02*
X23323Y-71481D01*
X23717Y-71350D01*
X23717Y-70994D02*
X23529Y-71125D01*
X23717Y-71218D02*
X23323Y-71218D01*
X23323Y-71068D01*
X23342Y-71031D01*
X23361Y-71012D01*
X23398Y-70994D01*
X23454Y-70994D01*
X23492Y-71012D01*
X23511Y-71031D01*
X23529Y-71068D01*
X23529Y-71218D01*
X23717Y-70825D02*
X23323Y-70825D01*
X23717Y-70600D02*
X23492Y-70769D01*
X23323Y-70600D02*
X23548Y-70825D01*
X23511Y-70300D02*
X23511Y-70431D01*
X23717Y-70431D02*
X23323Y-70431D01*
X23323Y-70244D01*
X23323Y-70094D02*
X23642Y-70094D01*
X23679Y-70075D01*
X23698Y-70056D01*
X23717Y-70019D01*
X23717Y-69944D01*
X23698Y-69906D01*
X23679Y-69887D01*
X23642Y-69869D01*
X23323Y-69869D01*
X23717Y-69681D02*
X23323Y-69681D01*
X23717Y-69456D01*
X23323Y-69456D01*
X23754Y-69362D02*
X23754Y-69062D01*
X23323Y-69025D02*
X23323Y-68800D01*
X23717Y-68913D02*
X23323Y-68913D01*
X23323Y-68706D02*
X23717Y-68444D01*
X23323Y-68444D02*
X23717Y-68706D01*
X23511Y-68163D02*
X23529Y-68106D01*
X23548Y-68088D01*
X23586Y-68069D01*
X23642Y-68069D01*
X23679Y-68088D01*
X23698Y-68106D01*
X23717Y-68144D01*
X23717Y-68294D01*
X23323Y-68294D01*
X23323Y-68163D01*
X23342Y-68125D01*
X23361Y-68106D01*
X23398Y-68088D01*
X23436Y-68088D01*
X23473Y-68106D01*
X23492Y-68125D01*
X23511Y-68163D01*
X23511Y-68294D01*
X23323Y-67825D02*
X23323Y-67788D01*
X23342Y-67750D01*
X23361Y-67731D01*
X23398Y-67713D01*
X23473Y-67694D01*
X23567Y-67694D01*
X23642Y-67713D01*
X23679Y-67731D01*
X23698Y-67750D01*
X23717Y-67788D01*
X23717Y-67825D01*
X23698Y-67863D01*
X23679Y-67881D01*
X23642Y-67900D01*
X23567Y-67919D01*
X23473Y-67919D01*
X23398Y-67900D01*
X23361Y-67881D01*
X23342Y-67863D01*
X23323Y-67825D01*
X23717Y-67319D02*
X23717Y-67544D01*
X23717Y-67431D02*
X23323Y-67431D01*
X23379Y-67469D01*
X23417Y-67506D01*
X23436Y-67544D01*
X23323Y-67075D02*
X23323Y-67038D01*
X23342Y-67000D01*
X23361Y-66982D01*
X23398Y-66963D01*
X23473Y-66944D01*
X23567Y-66944D01*
X23642Y-66963D01*
X23679Y-66982D01*
X23698Y-67000D01*
X23717Y-67038D01*
X23717Y-67075D01*
X23698Y-67113D01*
X23679Y-67131D01*
X23642Y-67150D01*
X23567Y-67169D01*
X23473Y-67169D01*
X23398Y-67150D01*
X23361Y-67131D01*
X23342Y-67113D01*
X23323Y-67075D01*
X23454Y-66607D02*
X23717Y-66607D01*
X23304Y-66700D02*
X23586Y-66794D01*
X23586Y-66550D01*
X139576Y-93965D02*
X139576Y-94284D01*
X139595Y-94321D01*
X139614Y-94340D01*
X139651Y-94359D01*
X139726Y-94359D01*
X139764Y-94340D01*
X139782Y-94321D01*
X139801Y-94284D01*
X139801Y-93965D01*
X140195Y-94359D02*
X139970Y-94359D01*
X140082Y-94359D02*
X140082Y-93965D01*
X140045Y-94021D01*
X140007Y-94059D01*
X139970Y-94078D01*
X140570Y-94359D02*
X140345Y-94359D01*
X140457Y-94359D02*
X140457Y-93965D01*
X140420Y-94021D01*
X140382Y-94059D01*
X140345Y-94078D01*
X140204Y-92887D02*
X140223Y-92830D01*
X140223Y-92737D01*
X140204Y-92699D01*
X140186Y-92680D01*
X140148Y-92662D01*
X140111Y-92662D01*
X140073Y-92680D01*
X140054Y-92699D01*
X140036Y-92737D01*
X140017Y-92812D01*
X139998Y-92849D01*
X139979Y-92868D01*
X139942Y-92887D01*
X139904Y-92887D01*
X139867Y-92868D01*
X139848Y-92849D01*
X139829Y-92812D01*
X139829Y-92718D01*
X139848Y-92662D01*
X140223Y-92493D02*
X139829Y-92493D01*
X139829Y-92343D01*
X139848Y-92305D01*
X139867Y-92287D01*
X139904Y-92268D01*
X139961Y-92268D01*
X139998Y-92287D01*
X140017Y-92305D01*
X140036Y-92343D01*
X140036Y-92493D01*
X140111Y-92118D02*
X140111Y-91931D01*
X140223Y-92155D02*
X139829Y-92024D01*
X140223Y-91893D01*
X140223Y-91537D02*
X140036Y-91668D01*
X140223Y-91762D02*
X139829Y-91762D01*
X139829Y-91612D01*
X139848Y-91574D01*
X139867Y-91556D01*
X139904Y-91537D01*
X139961Y-91537D01*
X139998Y-91556D01*
X140017Y-91574D01*
X140036Y-91612D01*
X140036Y-91762D01*
X140223Y-91368D02*
X139829Y-91368D01*
X140223Y-91143D02*
X139998Y-91312D01*
X139829Y-91143D02*
X140054Y-91368D01*
X140017Y-90843D02*
X140017Y-90974D01*
X140223Y-90974D02*
X139829Y-90974D01*
X139829Y-90787D01*
X139829Y-90637D02*
X140148Y-90637D01*
X140186Y-90618D01*
X140204Y-90599D01*
X140223Y-90562D01*
X140223Y-90487D01*
X140204Y-90449D01*
X140186Y-90431D01*
X140148Y-90412D01*
X139829Y-90412D01*
X140223Y-90224D02*
X139829Y-90224D01*
X140223Y-90000D01*
X139829Y-90000D01*
X140261Y-89906D02*
X140261Y-89606D01*
X139829Y-89568D02*
X139829Y-89343D01*
X140223Y-89456D02*
X139829Y-89456D01*
X139829Y-89250D02*
X140223Y-88987D01*
X139829Y-88987D02*
X140223Y-89250D01*
X140017Y-88706D02*
X140036Y-88650D01*
X140054Y-88631D01*
X140092Y-88612D01*
X140148Y-88612D01*
X140186Y-88631D01*
X140204Y-88650D01*
X140223Y-88687D01*
X140223Y-88837D01*
X139829Y-88837D01*
X139829Y-88706D01*
X139848Y-88668D01*
X139867Y-88650D01*
X139904Y-88631D01*
X139942Y-88631D01*
X139979Y-88650D01*
X139998Y-88668D01*
X140017Y-88706D01*
X140017Y-88837D01*
X139829Y-88368D02*
X139829Y-88331D01*
X139848Y-88293D01*
X139867Y-88275D01*
X139904Y-88256D01*
X139979Y-88237D01*
X140073Y-88237D01*
X140148Y-88256D01*
X140186Y-88275D01*
X140204Y-88293D01*
X140223Y-88331D01*
X140223Y-88368D01*
X140204Y-88406D01*
X140186Y-88425D01*
X140148Y-88443D01*
X140073Y-88462D01*
X139979Y-88462D01*
X139904Y-88443D01*
X139867Y-88425D01*
X139848Y-88406D01*
X139829Y-88368D01*
X140223Y-87862D02*
X140223Y-88087D01*
X140223Y-87975D02*
X139829Y-87975D01*
X139886Y-88012D01*
X139923Y-88050D01*
X139942Y-88087D01*
X139829Y-87619D02*
X139829Y-87581D01*
X139848Y-87544D01*
X139867Y-87525D01*
X139904Y-87506D01*
X139979Y-87487D01*
X140073Y-87487D01*
X140148Y-87506D01*
X140186Y-87525D01*
X140204Y-87544D01*
X140223Y-87581D01*
X140223Y-87619D01*
X140204Y-87656D01*
X140186Y-87675D01*
X140148Y-87694D01*
X140073Y-87712D01*
X139979Y-87712D01*
X139904Y-87694D01*
X139867Y-87675D01*
X139848Y-87656D01*
X139829Y-87619D01*
X139961Y-87150D02*
X140223Y-87150D01*
X139811Y-87244D02*
X140092Y-87337D01*
X140092Y-87094D01*
X19635Y-85565D02*
X19635Y-85884D01*
X19654Y-85921D01*
X19673Y-85940D01*
X19710Y-85959D01*
X19785Y-85959D01*
X19823Y-85940D01*
X19841Y-85921D01*
X19860Y-85884D01*
X19860Y-85565D01*
X20029Y-85603D02*
X20048Y-85584D01*
X20085Y-85565D01*
X20179Y-85565D01*
X20216Y-85584D01*
X20235Y-85603D01*
X20254Y-85640D01*
X20254Y-85678D01*
X20235Y-85734D01*
X20010Y-85959D01*
X20254Y-85959D01*
X20076Y-92887D02*
X20095Y-92830D01*
X20095Y-92737D01*
X20076Y-92699D01*
X20057Y-92680D01*
X20020Y-92662D01*
X19982Y-92662D01*
X19945Y-92680D01*
X19926Y-92699D01*
X19907Y-92737D01*
X19888Y-92812D01*
X19870Y-92849D01*
X19851Y-92868D01*
X19813Y-92887D01*
X19776Y-92887D01*
X19738Y-92868D01*
X19720Y-92849D01*
X19701Y-92812D01*
X19701Y-92718D01*
X19720Y-92662D01*
X20095Y-92493D02*
X19701Y-92493D01*
X19701Y-92343D01*
X19720Y-92305D01*
X19738Y-92287D01*
X19776Y-92268D01*
X19832Y-92268D01*
X19870Y-92287D01*
X19888Y-92305D01*
X19907Y-92343D01*
X19907Y-92493D01*
X19982Y-92118D02*
X19982Y-91931D01*
X20095Y-92155D02*
X19701Y-92024D01*
X20095Y-91893D01*
X20095Y-91537D02*
X19907Y-91668D01*
X20095Y-91762D02*
X19701Y-91762D01*
X19701Y-91612D01*
X19720Y-91574D01*
X19738Y-91556D01*
X19776Y-91537D01*
X19832Y-91537D01*
X19870Y-91556D01*
X19888Y-91574D01*
X19907Y-91612D01*
X19907Y-91762D01*
X20095Y-91368D02*
X19701Y-91368D01*
X20095Y-91143D02*
X19870Y-91312D01*
X19701Y-91143D02*
X19926Y-91368D01*
X19888Y-90843D02*
X19888Y-90974D01*
X20095Y-90974D02*
X19701Y-90974D01*
X19701Y-90787D01*
X19701Y-90637D02*
X20020Y-90637D01*
X20057Y-90618D01*
X20076Y-90599D01*
X20095Y-90562D01*
X20095Y-90487D01*
X20076Y-90449D01*
X20057Y-90431D01*
X20020Y-90412D01*
X19701Y-90412D01*
X20095Y-90224D02*
X19701Y-90224D01*
X20095Y-90000D01*
X19701Y-90000D01*
X20132Y-89906D02*
X20132Y-89606D01*
X19701Y-89568D02*
X19701Y-89343D01*
X20095Y-89456D02*
X19701Y-89456D01*
X19701Y-89250D02*
X20095Y-88987D01*
X19701Y-88987D02*
X20095Y-89250D01*
X19888Y-88706D02*
X19907Y-88650D01*
X19926Y-88631D01*
X19963Y-88612D01*
X20020Y-88612D01*
X20057Y-88631D01*
X20076Y-88650D01*
X20095Y-88687D01*
X20095Y-88837D01*
X19701Y-88837D01*
X19701Y-88706D01*
X19720Y-88668D01*
X19738Y-88650D01*
X19776Y-88631D01*
X19813Y-88631D01*
X19851Y-88650D01*
X19870Y-88668D01*
X19888Y-88706D01*
X19888Y-88837D01*
X19701Y-88368D02*
X19701Y-88331D01*
X19720Y-88293D01*
X19738Y-88275D01*
X19776Y-88256D01*
X19851Y-88237D01*
X19945Y-88237D01*
X20020Y-88256D01*
X20057Y-88275D01*
X20076Y-88293D01*
X20095Y-88331D01*
X20095Y-88368D01*
X20076Y-88406D01*
X20057Y-88425D01*
X20020Y-88443D01*
X19945Y-88462D01*
X19851Y-88462D01*
X19776Y-88443D01*
X19738Y-88425D01*
X19720Y-88406D01*
X19701Y-88368D01*
X20095Y-87862D02*
X20095Y-88087D01*
X20095Y-87975D02*
X19701Y-87975D01*
X19757Y-88012D01*
X19795Y-88050D01*
X19813Y-88087D01*
X19701Y-87619D02*
X19701Y-87581D01*
X19720Y-87544D01*
X19738Y-87525D01*
X19776Y-87506D01*
X19851Y-87487D01*
X19945Y-87487D01*
X20020Y-87506D01*
X20057Y-87525D01*
X20076Y-87544D01*
X20095Y-87581D01*
X20095Y-87619D01*
X20076Y-87656D01*
X20057Y-87675D01*
X20020Y-87694D01*
X19945Y-87712D01*
X19851Y-87712D01*
X19776Y-87694D01*
X19738Y-87675D01*
X19720Y-87656D01*
X19701Y-87619D01*
X19832Y-87150D02*
X20095Y-87150D01*
X19682Y-87244D02*
X19963Y-87337D01*
X19963Y-87094D01*
X21821Y-106362D02*
X21821Y-106680D01*
X21840Y-106718D01*
X21859Y-106737D01*
X21896Y-106755D01*
X21971Y-106755D01*
X22009Y-106737D01*
X22027Y-106718D01*
X22046Y-106680D01*
X22046Y-106362D01*
X22440Y-106755D02*
X22215Y-106755D01*
X22327Y-106755D02*
X22327Y-106362D01*
X22290Y-106418D01*
X22252Y-106455D01*
X22215Y-106474D01*
X23698Y-113430D02*
X23717Y-113374D01*
X23717Y-113280D01*
X23698Y-113242D01*
X23679Y-113224D01*
X23642Y-113205D01*
X23604Y-113205D01*
X23567Y-113224D01*
X23548Y-113242D01*
X23529Y-113280D01*
X23511Y-113355D01*
X23492Y-113392D01*
X23473Y-113411D01*
X23436Y-113430D01*
X23398Y-113430D01*
X23361Y-113411D01*
X23342Y-113392D01*
X23323Y-113355D01*
X23323Y-113261D01*
X23342Y-113205D01*
X23717Y-113036D02*
X23323Y-113036D01*
X23323Y-112886D01*
X23342Y-112849D01*
X23361Y-112830D01*
X23398Y-112811D01*
X23454Y-112811D01*
X23492Y-112830D01*
X23511Y-112849D01*
X23529Y-112886D01*
X23529Y-113036D01*
X23604Y-112661D02*
X23604Y-112474D01*
X23717Y-112699D02*
X23323Y-112568D01*
X23717Y-112436D01*
X23717Y-112080D02*
X23529Y-112211D01*
X23717Y-112305D02*
X23323Y-112305D01*
X23323Y-112155D01*
X23342Y-112118D01*
X23361Y-112099D01*
X23398Y-112080D01*
X23454Y-112080D01*
X23492Y-112099D01*
X23511Y-112118D01*
X23529Y-112155D01*
X23529Y-112305D01*
X23717Y-111911D02*
X23323Y-111911D01*
X23717Y-111686D02*
X23492Y-111855D01*
X23323Y-111686D02*
X23548Y-111911D01*
X23511Y-111386D02*
X23511Y-111518D01*
X23717Y-111518D02*
X23323Y-111518D01*
X23323Y-111330D01*
X23323Y-111180D02*
X23642Y-111180D01*
X23679Y-111161D01*
X23698Y-111143D01*
X23717Y-111105D01*
X23717Y-111030D01*
X23698Y-110993D01*
X23679Y-110974D01*
X23642Y-110955D01*
X23323Y-110955D01*
X23717Y-110768D02*
X23323Y-110768D01*
X23717Y-110543D01*
X23323Y-110543D01*
X23754Y-110449D02*
X23754Y-110149D01*
X23323Y-110112D02*
X23323Y-109887D01*
X23717Y-109999D02*
X23323Y-109999D01*
X23323Y-109793D02*
X23717Y-109530D01*
X23323Y-109530D02*
X23717Y-109793D01*
X23511Y-109249D02*
X23529Y-109193D01*
X23548Y-109174D01*
X23586Y-109155D01*
X23642Y-109155D01*
X23679Y-109174D01*
X23698Y-109193D01*
X23717Y-109230D01*
X23717Y-109380D01*
X23323Y-109380D01*
X23323Y-109249D01*
X23342Y-109212D01*
X23361Y-109193D01*
X23398Y-109174D01*
X23436Y-109174D01*
X23473Y-109193D01*
X23492Y-109212D01*
X23511Y-109249D01*
X23511Y-109380D01*
X23323Y-108912D02*
X23323Y-108874D01*
X23342Y-108837D01*
X23361Y-108818D01*
X23398Y-108799D01*
X23473Y-108781D01*
X23567Y-108781D01*
X23642Y-108799D01*
X23679Y-108818D01*
X23698Y-108837D01*
X23717Y-108874D01*
X23717Y-108912D01*
X23698Y-108949D01*
X23679Y-108968D01*
X23642Y-108987D01*
X23567Y-109005D01*
X23473Y-109005D01*
X23398Y-108987D01*
X23361Y-108968D01*
X23342Y-108949D01*
X23323Y-108912D01*
X23717Y-108406D02*
X23717Y-108631D01*
X23717Y-108518D02*
X23323Y-108518D01*
X23379Y-108556D01*
X23417Y-108593D01*
X23436Y-108631D01*
X23323Y-108162D02*
X23323Y-108124D01*
X23342Y-108087D01*
X23361Y-108068D01*
X23398Y-108049D01*
X23473Y-108031D01*
X23567Y-108031D01*
X23642Y-108049D01*
X23679Y-108068D01*
X23698Y-108087D01*
X23717Y-108124D01*
X23717Y-108162D01*
X23698Y-108199D01*
X23679Y-108218D01*
X23642Y-108237D01*
X23567Y-108256D01*
X23473Y-108256D01*
X23398Y-108237D01*
X23361Y-108218D01*
X23342Y-108199D01*
X23323Y-108162D01*
X23454Y-107693D02*
X23717Y-107693D01*
X23304Y-107787D02*
X23586Y-107881D01*
X23586Y-107637D01*
X137391Y-73169D02*
X137391Y-73487D01*
X137409Y-73525D01*
X137428Y-73544D01*
X137466Y-73562D01*
X137541Y-73562D01*
X137578Y-73544D01*
X137597Y-73525D01*
X137616Y-73487D01*
X137616Y-73169D01*
X138009Y-73562D02*
X137784Y-73562D01*
X137897Y-73562D02*
X137897Y-73169D01*
X137859Y-73225D01*
X137822Y-73262D01*
X137784Y-73281D01*
X138253Y-73169D02*
X138291Y-73169D01*
X138328Y-73187D01*
X138347Y-73206D01*
X138366Y-73244D01*
X138384Y-73319D01*
X138384Y-73412D01*
X138366Y-73487D01*
X138347Y-73525D01*
X138328Y-73544D01*
X138291Y-73562D01*
X138253Y-73562D01*
X138216Y-73544D01*
X138197Y-73525D01*
X138178Y-73487D01*
X138159Y-73412D01*
X138159Y-73319D01*
X138178Y-73244D01*
X138197Y-73206D01*
X138216Y-73187D01*
X138253Y-73169D01*
X136582Y-72343D02*
X136601Y-72287D01*
X136601Y-72193D01*
X136582Y-72156D01*
X136563Y-72137D01*
X136526Y-72118D01*
X136488Y-72118D01*
X136451Y-72137D01*
X136432Y-72156D01*
X136414Y-72193D01*
X136395Y-72268D01*
X136376Y-72306D01*
X136357Y-72325D01*
X136320Y-72343D01*
X136282Y-72343D01*
X136245Y-72325D01*
X136226Y-72306D01*
X136207Y-72268D01*
X136207Y-72175D01*
X136226Y-72118D01*
X136601Y-71950D02*
X136207Y-71950D01*
X136207Y-71800D01*
X136226Y-71762D01*
X136245Y-71743D01*
X136282Y-71725D01*
X136339Y-71725D01*
X136376Y-71743D01*
X136395Y-71762D01*
X136414Y-71800D01*
X136414Y-71950D01*
X136488Y-71575D02*
X136488Y-71387D01*
X136601Y-71612D02*
X136207Y-71481D01*
X136601Y-71350D01*
X136601Y-70994D02*
X136414Y-71125D01*
X136601Y-71218D02*
X136207Y-71218D01*
X136207Y-71068D01*
X136226Y-71031D01*
X136245Y-71012D01*
X136282Y-70994D01*
X136339Y-70994D01*
X136376Y-71012D01*
X136395Y-71031D01*
X136414Y-71068D01*
X136414Y-71218D01*
X136601Y-70825D02*
X136207Y-70825D01*
X136601Y-70600D02*
X136376Y-70769D01*
X136207Y-70600D02*
X136432Y-70825D01*
X136395Y-70300D02*
X136395Y-70431D01*
X136601Y-70431D02*
X136207Y-70431D01*
X136207Y-70244D01*
X136207Y-70094D02*
X136526Y-70094D01*
X136563Y-70075D01*
X136582Y-70056D01*
X136601Y-70019D01*
X136601Y-69944D01*
X136582Y-69906D01*
X136563Y-69887D01*
X136526Y-69869D01*
X136207Y-69869D01*
X136601Y-69681D02*
X136207Y-69681D01*
X136601Y-69456D01*
X136207Y-69456D01*
X136638Y-69362D02*
X136638Y-69062D01*
X136207Y-69025D02*
X136207Y-68800D01*
X136601Y-68913D02*
X136207Y-68913D01*
X136207Y-68706D02*
X136601Y-68444D01*
X136207Y-68444D02*
X136601Y-68706D01*
X136395Y-68163D02*
X136414Y-68106D01*
X136432Y-68088D01*
X136470Y-68069D01*
X136526Y-68069D01*
X136563Y-68088D01*
X136582Y-68106D01*
X136601Y-68144D01*
X136601Y-68294D01*
X136207Y-68294D01*
X136207Y-68163D01*
X136226Y-68125D01*
X136245Y-68106D01*
X136282Y-68088D01*
X136320Y-68088D01*
X136357Y-68106D01*
X136376Y-68125D01*
X136395Y-68163D01*
X136395Y-68294D01*
X136207Y-67825D02*
X136207Y-67788D01*
X136226Y-67750D01*
X136245Y-67731D01*
X136282Y-67713D01*
X136357Y-67694D01*
X136451Y-67694D01*
X136526Y-67713D01*
X136563Y-67731D01*
X136582Y-67750D01*
X136601Y-67788D01*
X136601Y-67825D01*
X136582Y-67863D01*
X136563Y-67881D01*
X136526Y-67900D01*
X136451Y-67919D01*
X136357Y-67919D01*
X136282Y-67900D01*
X136245Y-67881D01*
X136226Y-67863D01*
X136207Y-67825D01*
X136601Y-67319D02*
X136601Y-67544D01*
X136601Y-67431D02*
X136207Y-67431D01*
X136264Y-67469D01*
X136301Y-67506D01*
X136320Y-67544D01*
X136207Y-67075D02*
X136207Y-67038D01*
X136226Y-67000D01*
X136245Y-66982D01*
X136282Y-66963D01*
X136357Y-66944D01*
X136451Y-66944D01*
X136526Y-66963D01*
X136563Y-66982D01*
X136582Y-67000D01*
X136601Y-67038D01*
X136601Y-67075D01*
X136582Y-67113D01*
X136563Y-67131D01*
X136526Y-67150D01*
X136451Y-67169D01*
X136357Y-67169D01*
X136282Y-67150D01*
X136245Y-67131D01*
X136226Y-67113D01*
X136207Y-67075D01*
X136339Y-66607D02*
X136601Y-66607D01*
X136189Y-66700D02*
X136470Y-66794D01*
X136470Y-66550D01*
X94266Y-31343D02*
X94266Y-31661D01*
X94284Y-31699D01*
X94303Y-31718D01*
X94341Y-31736D01*
X94416Y-31736D01*
X94453Y-31718D01*
X94472Y-31699D01*
X94491Y-31661D01*
X94491Y-31343D01*
X94641Y-31343D02*
X94903Y-31343D01*
X94734Y-31736D01*
X90570Y-33735D02*
X90589Y-33679D01*
X90589Y-33585D01*
X90570Y-33547D01*
X90551Y-33529D01*
X90514Y-33510D01*
X90476Y-33510D01*
X90439Y-33529D01*
X90420Y-33547D01*
X90401Y-33585D01*
X90383Y-33660D01*
X90364Y-33697D01*
X90345Y-33716D01*
X90308Y-33735D01*
X90270Y-33735D01*
X90233Y-33716D01*
X90214Y-33697D01*
X90195Y-33660D01*
X90195Y-33566D01*
X90214Y-33510D01*
X90589Y-33341D02*
X90195Y-33341D01*
X90195Y-33191D01*
X90214Y-33154D01*
X90233Y-33135D01*
X90270Y-33116D01*
X90326Y-33116D01*
X90364Y-33135D01*
X90383Y-33154D01*
X90401Y-33191D01*
X90401Y-33341D01*
X90476Y-32966D02*
X90476Y-32779D01*
X90589Y-33004D02*
X90195Y-32872D01*
X90589Y-32741D01*
X90589Y-32385D02*
X90401Y-32516D01*
X90589Y-32610D02*
X90195Y-32610D01*
X90195Y-32460D01*
X90214Y-32422D01*
X90233Y-32404D01*
X90270Y-32385D01*
X90326Y-32385D01*
X90364Y-32404D01*
X90383Y-32422D01*
X90401Y-32460D01*
X90401Y-32610D01*
X90589Y-32216D02*
X90195Y-32216D01*
X90589Y-31991D02*
X90364Y-32160D01*
X90195Y-31991D02*
X90420Y-32216D01*
X90383Y-31691D02*
X90383Y-31823D01*
X90589Y-31823D02*
X90195Y-31823D01*
X90195Y-31635D01*
X90195Y-31485D02*
X90514Y-31485D01*
X90551Y-31466D01*
X90570Y-31448D01*
X90589Y-31410D01*
X90589Y-31335D01*
X90570Y-31298D01*
X90551Y-31279D01*
X90514Y-31260D01*
X90195Y-31260D01*
X90589Y-31073D02*
X90195Y-31073D01*
X90589Y-30848D01*
X90195Y-30848D01*
X90626Y-30754D02*
X90626Y-30454D01*
X90195Y-30416D02*
X90195Y-30192D01*
X90589Y-30304D02*
X90195Y-30304D01*
X90195Y-30098D02*
X90589Y-29835D01*
X90195Y-29835D02*
X90589Y-30098D01*
X90383Y-29554D02*
X90401Y-29498D01*
X90420Y-29479D01*
X90458Y-29460D01*
X90514Y-29460D01*
X90551Y-29479D01*
X90570Y-29498D01*
X90589Y-29535D01*
X90589Y-29685D01*
X90195Y-29685D01*
X90195Y-29554D01*
X90214Y-29517D01*
X90233Y-29498D01*
X90270Y-29479D01*
X90308Y-29479D01*
X90345Y-29498D01*
X90364Y-29517D01*
X90383Y-29554D01*
X90383Y-29685D01*
X90195Y-29217D02*
X90195Y-29179D01*
X90214Y-29142D01*
X90233Y-29123D01*
X90270Y-29104D01*
X90345Y-29085D01*
X90439Y-29085D01*
X90514Y-29104D01*
X90551Y-29123D01*
X90570Y-29142D01*
X90589Y-29179D01*
X90589Y-29217D01*
X90570Y-29254D01*
X90551Y-29273D01*
X90514Y-29292D01*
X90439Y-29310D01*
X90345Y-29310D01*
X90270Y-29292D01*
X90233Y-29273D01*
X90214Y-29254D01*
X90195Y-29217D01*
X90589Y-28710D02*
X90589Y-28935D01*
X90589Y-28823D02*
X90195Y-28823D01*
X90251Y-28860D01*
X90289Y-28898D01*
X90308Y-28935D01*
X90195Y-28467D02*
X90195Y-28429D01*
X90214Y-28392D01*
X90233Y-28373D01*
X90270Y-28354D01*
X90345Y-28336D01*
X90439Y-28336D01*
X90514Y-28354D01*
X90551Y-28373D01*
X90570Y-28392D01*
X90589Y-28429D01*
X90589Y-28467D01*
X90570Y-28504D01*
X90551Y-28523D01*
X90514Y-28542D01*
X90439Y-28560D01*
X90345Y-28560D01*
X90270Y-28542D01*
X90233Y-28523D01*
X90214Y-28504D01*
X90195Y-28467D01*
X90326Y-27998D02*
X90589Y-27998D01*
X90176Y-28092D02*
X90458Y-28186D01*
X90458Y-27942D01*
X128411Y-54374D02*
X128411Y-54693D01*
X128430Y-54730D01*
X128449Y-54749D01*
X128486Y-54768D01*
X128561Y-54768D01*
X128599Y-54749D01*
X128617Y-54730D01*
X128636Y-54693D01*
X128636Y-54374D01*
X128842Y-54768D02*
X128917Y-54768D01*
X128955Y-54749D01*
X128973Y-54730D01*
X129011Y-54674D01*
X129030Y-54599D01*
X129030Y-54449D01*
X129011Y-54411D01*
X128992Y-54393D01*
X128955Y-54374D01*
X128880Y-54374D01*
X128842Y-54393D01*
X128824Y-54411D01*
X128805Y-54449D01*
X128805Y-54543D01*
X128824Y-54580D01*
X128842Y-54599D01*
X128880Y-54618D01*
X128955Y-54618D01*
X128992Y-54599D01*
X129011Y-54580D01*
X129030Y-54543D01*
X126152Y-54278D02*
X126171Y-54222D01*
X126171Y-54128D01*
X126152Y-54091D01*
X126133Y-54072D01*
X126096Y-54053D01*
X126058Y-54053D01*
X126021Y-54072D01*
X126002Y-54091D01*
X125983Y-54128D01*
X125964Y-54203D01*
X125946Y-54240D01*
X125927Y-54259D01*
X125889Y-54278D01*
X125852Y-54278D01*
X125814Y-54259D01*
X125796Y-54240D01*
X125777Y-54203D01*
X125777Y-54109D01*
X125796Y-54053D01*
X126171Y-53884D02*
X125777Y-53884D01*
X125777Y-53734D01*
X125796Y-53697D01*
X125814Y-53678D01*
X125852Y-53659D01*
X125908Y-53659D01*
X125946Y-53678D01*
X125964Y-53697D01*
X125983Y-53734D01*
X125983Y-53884D01*
X126058Y-53509D02*
X126058Y-53322D01*
X126171Y-53547D02*
X125777Y-53416D01*
X126171Y-53284D01*
X126171Y-52928D02*
X125983Y-53059D01*
X126171Y-53153D02*
X125777Y-53153D01*
X125777Y-53003D01*
X125796Y-52966D01*
X125814Y-52947D01*
X125852Y-52928D01*
X125908Y-52928D01*
X125946Y-52947D01*
X125964Y-52966D01*
X125983Y-53003D01*
X125983Y-53153D01*
X126171Y-52759D02*
X125777Y-52759D01*
X126171Y-52534D02*
X125946Y-52703D01*
X125777Y-52534D02*
X126002Y-52759D01*
X125964Y-52234D02*
X125964Y-52366D01*
X126171Y-52366D02*
X125777Y-52366D01*
X125777Y-52178D01*
X125777Y-52028D02*
X126096Y-52028D01*
X126133Y-52010D01*
X126152Y-51991D01*
X126171Y-51953D01*
X126171Y-51878D01*
X126152Y-51841D01*
X126133Y-51822D01*
X126096Y-51803D01*
X125777Y-51803D01*
X126171Y-51616D02*
X125777Y-51616D01*
X126171Y-51391D01*
X125777Y-51391D01*
X126208Y-51297D02*
X126208Y-50997D01*
X125777Y-50960D02*
X125777Y-50735D01*
X126171Y-50847D02*
X125777Y-50847D01*
X125777Y-50641D02*
X126171Y-50378D01*
X125777Y-50378D02*
X126171Y-50641D01*
X125964Y-50097D02*
X125983Y-50041D01*
X126002Y-50022D01*
X126039Y-50004D01*
X126096Y-50004D01*
X126133Y-50022D01*
X126152Y-50041D01*
X126171Y-50079D01*
X126171Y-50228D01*
X125777Y-50228D01*
X125777Y-50097D01*
X125796Y-50060D01*
X125814Y-50041D01*
X125852Y-50022D01*
X125889Y-50022D01*
X125927Y-50041D01*
X125946Y-50060D01*
X125964Y-50097D01*
X125964Y-50228D01*
X125777Y-49760D02*
X125777Y-49722D01*
X125796Y-49685D01*
X125814Y-49666D01*
X125852Y-49647D01*
X125927Y-49629D01*
X126021Y-49629D01*
X126096Y-49647D01*
X126133Y-49666D01*
X126152Y-49685D01*
X126171Y-49722D01*
X126171Y-49760D01*
X126152Y-49797D01*
X126133Y-49816D01*
X126096Y-49835D01*
X126021Y-49854D01*
X125927Y-49854D01*
X125852Y-49835D01*
X125814Y-49816D01*
X125796Y-49797D01*
X125777Y-49760D01*
X126171Y-49254D02*
X126171Y-49479D01*
X126171Y-49366D02*
X125777Y-49366D01*
X125833Y-49404D01*
X125871Y-49441D01*
X125889Y-49479D01*
X125777Y-49010D02*
X125777Y-48972D01*
X125796Y-48935D01*
X125814Y-48916D01*
X125852Y-48897D01*
X125927Y-48879D01*
X126021Y-48879D01*
X126096Y-48897D01*
X126133Y-48916D01*
X126152Y-48935D01*
X126171Y-48972D01*
X126171Y-49010D01*
X126152Y-49047D01*
X126133Y-49066D01*
X126096Y-49085D01*
X126021Y-49104D01*
X125927Y-49104D01*
X125852Y-49085D01*
X125814Y-49066D01*
X125796Y-49047D01*
X125777Y-49010D01*
X125908Y-48541D02*
X126171Y-48541D01*
X125758Y-48635D02*
X126039Y-48729D01*
X126039Y-48485D01*
X113369Y-39848D02*
X113369Y-40167D01*
X113388Y-40204D01*
X113407Y-40223D01*
X113444Y-40242D01*
X113519Y-40242D01*
X113557Y-40223D01*
X113575Y-40204D01*
X113594Y-40167D01*
X113594Y-39848D01*
X113838Y-40017D02*
X113800Y-39998D01*
X113782Y-39979D01*
X113763Y-39942D01*
X113763Y-39923D01*
X113782Y-39885D01*
X113800Y-39867D01*
X113838Y-39848D01*
X113913Y-39848D01*
X113950Y-39867D01*
X113969Y-39885D01*
X113988Y-39923D01*
X113988Y-39942D01*
X113969Y-39979D01*
X113950Y-39998D01*
X113913Y-40017D01*
X113838Y-40017D01*
X113800Y-40035D01*
X113782Y-40054D01*
X113763Y-40092D01*
X113763Y-40167D01*
X113782Y-40204D01*
X113800Y-40223D01*
X113838Y-40242D01*
X113913Y-40242D01*
X113950Y-40223D01*
X113969Y-40204D01*
X113988Y-40167D01*
X113988Y-40092D01*
X113969Y-40054D01*
X113950Y-40035D01*
X113913Y-40017D01*
X110172Y-40869D02*
X110191Y-40813D01*
X110191Y-40719D01*
X110172Y-40682D01*
X110154Y-40663D01*
X110116Y-40644D01*
X110079Y-40644D01*
X110041Y-40663D01*
X110022Y-40682D01*
X110004Y-40719D01*
X109985Y-40794D01*
X109966Y-40832D01*
X109947Y-40851D01*
X109910Y-40869D01*
X109872Y-40869D01*
X109835Y-40851D01*
X109816Y-40832D01*
X109797Y-40794D01*
X109797Y-40701D01*
X109816Y-40644D01*
X110191Y-40476D02*
X109797Y-40476D01*
X109797Y-40326D01*
X109816Y-40288D01*
X109835Y-40269D01*
X109872Y-40251D01*
X109929Y-40251D01*
X109966Y-40269D01*
X109985Y-40288D01*
X110004Y-40326D01*
X110004Y-40476D01*
X110079Y-40101D02*
X110079Y-39913D01*
X110191Y-40138D02*
X109797Y-40007D01*
X110191Y-39876D01*
X110191Y-39520D02*
X110004Y-39651D01*
X110191Y-39745D02*
X109797Y-39745D01*
X109797Y-39595D01*
X109816Y-39557D01*
X109835Y-39538D01*
X109872Y-39520D01*
X109929Y-39520D01*
X109966Y-39538D01*
X109985Y-39557D01*
X110004Y-39595D01*
X110004Y-39745D01*
X110191Y-39351D02*
X109797Y-39351D01*
X110191Y-39126D02*
X109966Y-39295D01*
X109797Y-39126D02*
X110022Y-39351D01*
X109985Y-38826D02*
X109985Y-38957D01*
X110191Y-38957D02*
X109797Y-38957D01*
X109797Y-38770D01*
X109797Y-38620D02*
X110116Y-38620D01*
X110154Y-38601D01*
X110172Y-38582D01*
X110191Y-38545D01*
X110191Y-38470D01*
X110172Y-38432D01*
X110154Y-38413D01*
X110116Y-38395D01*
X109797Y-38395D01*
X110191Y-38207D02*
X109797Y-38207D01*
X110191Y-37982D01*
X109797Y-37982D01*
X110229Y-37889D02*
X110229Y-37589D01*
X109797Y-37551D02*
X109797Y-37326D01*
X110191Y-37439D02*
X109797Y-37439D01*
X109797Y-37232D02*
X110191Y-36970D01*
X109797Y-36970D02*
X110191Y-37232D01*
X109985Y-36689D02*
X110004Y-36632D01*
X110022Y-36614D01*
X110060Y-36595D01*
X110116Y-36595D01*
X110154Y-36614D01*
X110172Y-36632D01*
X110191Y-36670D01*
X110191Y-36820D01*
X109797Y-36820D01*
X109797Y-36689D01*
X109816Y-36651D01*
X109835Y-36632D01*
X109872Y-36614D01*
X109910Y-36614D01*
X109947Y-36632D01*
X109966Y-36651D01*
X109985Y-36689D01*
X109985Y-36820D01*
X109797Y-36351D02*
X109797Y-36314D01*
X109816Y-36276D01*
X109835Y-36257D01*
X109872Y-36239D01*
X109947Y-36220D01*
X110041Y-36220D01*
X110116Y-36239D01*
X110154Y-36257D01*
X110172Y-36276D01*
X110191Y-36314D01*
X110191Y-36351D01*
X110172Y-36389D01*
X110154Y-36407D01*
X110116Y-36426D01*
X110041Y-36445D01*
X109947Y-36445D01*
X109872Y-36426D01*
X109835Y-36407D01*
X109816Y-36389D01*
X109797Y-36351D01*
X110191Y-35845D02*
X110191Y-36070D01*
X110191Y-35958D02*
X109797Y-35958D01*
X109854Y-35995D01*
X109891Y-36032D01*
X109910Y-36070D01*
X109797Y-35601D02*
X109797Y-35564D01*
X109816Y-35526D01*
X109835Y-35508D01*
X109872Y-35489D01*
X109947Y-35470D01*
X110041Y-35470D01*
X110116Y-35489D01*
X110154Y-35508D01*
X110172Y-35526D01*
X110191Y-35564D01*
X110191Y-35601D01*
X110172Y-35639D01*
X110154Y-35658D01*
X110116Y-35676D01*
X110041Y-35695D01*
X109947Y-35695D01*
X109872Y-35676D01*
X109835Y-35658D01*
X109816Y-35639D01*
X109797Y-35601D01*
X109929Y-35133D02*
X110191Y-35133D01*
X109779Y-35226D02*
X110060Y-35320D01*
X110060Y-35076D01*
G54D18*
X137540Y-50558D02*
X137520Y-50596D01*
X137482Y-50634D01*
X137425Y-50691D01*
X137406Y-50729D01*
X137406Y-50767D01*
X137501Y-50748D02*
X137482Y-50786D01*
X137444Y-50824D01*
X137368Y-50843D01*
X137235Y-50843D01*
X137159Y-50824D01*
X137120Y-50786D01*
X137101Y-50748D01*
X137101Y-50672D01*
X137120Y-50634D01*
X137159Y-50596D01*
X137235Y-50577D01*
X137368Y-50577D01*
X137444Y-50596D01*
X137482Y-50634D01*
X137501Y-50672D01*
X137501Y-50748D01*
X137501Y-50196D02*
X137501Y-50424D01*
X137501Y-50310D02*
X137101Y-50310D01*
X137159Y-50348D01*
X137197Y-50386D01*
X137216Y-50424D01*
X140061Y-49257D02*
X139871Y-49390D01*
X140061Y-49485D02*
X139661Y-49485D01*
X139661Y-49333D01*
X139680Y-49295D01*
X139700Y-49276D01*
X139738Y-49257D01*
X139795Y-49257D01*
X139833Y-49276D01*
X139852Y-49295D01*
X139871Y-49333D01*
X139871Y-49485D01*
X139700Y-49104D02*
X139680Y-49085D01*
X139661Y-49047D01*
X139661Y-48952D01*
X139680Y-48914D01*
X139700Y-48895D01*
X139738Y-48876D01*
X139776Y-48876D01*
X139833Y-48895D01*
X140061Y-49123D01*
X140061Y-48876D01*
X139661Y-48514D02*
X139661Y-48704D01*
X139852Y-48723D01*
X139833Y-48704D01*
X139814Y-48666D01*
X139814Y-48571D01*
X139833Y-48533D01*
X139852Y-48514D01*
X139890Y-48495D01*
X139985Y-48495D01*
X140023Y-48514D01*
X140042Y-48533D01*
X140061Y-48571D01*
X140061Y-48666D01*
X140042Y-48704D01*
X140023Y-48723D01*
X141020Y-49495D02*
X141000Y-49476D01*
X140981Y-49438D01*
X140981Y-49342D01*
X141000Y-49304D01*
X141020Y-49285D01*
X141058Y-49266D01*
X141096Y-49266D01*
X141153Y-49285D01*
X141381Y-49514D01*
X141381Y-49266D01*
X140981Y-49019D02*
X140981Y-48980D01*
X141000Y-48942D01*
X141020Y-48923D01*
X141058Y-48904D01*
X141134Y-48885D01*
X141229Y-48885D01*
X141305Y-48904D01*
X141343Y-48923D01*
X141362Y-48942D01*
X141381Y-48980D01*
X141381Y-49019D01*
X141362Y-49057D01*
X141343Y-49076D01*
X141305Y-49095D01*
X141229Y-49114D01*
X141134Y-49114D01*
X141058Y-49095D01*
X141020Y-49076D01*
X141000Y-49057D01*
X140981Y-49019D01*
X140981Y-48638D02*
X140981Y-48600D01*
X141000Y-48561D01*
X141020Y-48542D01*
X141058Y-48523D01*
X141134Y-48504D01*
X141229Y-48504D01*
X141305Y-48523D01*
X141343Y-48542D01*
X141362Y-48561D01*
X141381Y-48600D01*
X141381Y-48638D01*
X141362Y-48676D01*
X141343Y-48695D01*
X141305Y-48714D01*
X141229Y-48733D01*
X141134Y-48733D01*
X141058Y-48714D01*
X141020Y-48695D01*
X141000Y-48676D01*
X140981Y-48638D01*
X138222Y-48301D02*
X138089Y-48111D01*
X137994Y-48301D02*
X137994Y-47901D01*
X138146Y-47901D01*
X138184Y-47920D01*
X138203Y-47940D01*
X138222Y-47978D01*
X138222Y-48035D01*
X138203Y-48073D01*
X138184Y-48092D01*
X138146Y-48111D01*
X137994Y-48111D01*
X138375Y-47940D02*
X138394Y-47920D01*
X138432Y-47901D01*
X138527Y-47901D01*
X138565Y-47920D01*
X138584Y-47940D01*
X138603Y-47978D01*
X138603Y-48016D01*
X138584Y-48073D01*
X138356Y-48301D01*
X138603Y-48301D01*
X138946Y-47901D02*
X138870Y-47901D01*
X138832Y-47920D01*
X138813Y-47940D01*
X138775Y-47997D01*
X138756Y-48073D01*
X138756Y-48225D01*
X138775Y-48263D01*
X138794Y-48282D01*
X138832Y-48301D01*
X138908Y-48301D01*
X138946Y-48282D01*
X138965Y-48263D01*
X138984Y-48225D01*
X138984Y-48130D01*
X138965Y-48092D01*
X138946Y-48073D01*
X138908Y-48054D01*
X138832Y-48054D01*
X138794Y-48073D01*
X138775Y-48092D01*
X138756Y-48130D01*
X138033Y-46520D02*
X138052Y-46500D01*
X138090Y-46481D01*
X138185Y-46481D01*
X138223Y-46500D01*
X138242Y-46520D01*
X138261Y-46558D01*
X138261Y-46596D01*
X138242Y-46653D01*
X138014Y-46881D01*
X138261Y-46881D01*
X138509Y-46481D02*
X138547Y-46481D01*
X138585Y-46500D01*
X138604Y-46520D01*
X138623Y-46558D01*
X138642Y-46634D01*
X138642Y-46729D01*
X138623Y-46805D01*
X138604Y-46843D01*
X138585Y-46862D01*
X138547Y-46881D01*
X138509Y-46881D01*
X138471Y-46862D01*
X138452Y-46843D01*
X138433Y-46805D01*
X138414Y-46729D01*
X138414Y-46634D01*
X138433Y-46558D01*
X138452Y-46520D01*
X138471Y-46500D01*
X138509Y-46481D01*
X138814Y-46881D02*
X138814Y-46481D01*
X138852Y-46729D02*
X138966Y-46881D01*
X138966Y-46615D02*
X138814Y-46767D01*
X17366Y-29042D02*
X17423Y-29061D01*
X17519Y-29061D01*
X17557Y-29042D01*
X17576Y-29023D01*
X17595Y-28985D01*
X17595Y-28947D01*
X17576Y-28909D01*
X17557Y-28890D01*
X17519Y-28871D01*
X17442Y-28852D01*
X17404Y-28833D01*
X17385Y-28814D01*
X17366Y-28776D01*
X17366Y-28738D01*
X17385Y-28700D01*
X17404Y-28680D01*
X17442Y-28661D01*
X17538Y-28661D01*
X17595Y-28680D01*
X17728Y-28661D02*
X17823Y-29061D01*
X17900Y-28776D01*
X17976Y-29061D01*
X18071Y-28661D01*
X18433Y-29061D02*
X18204Y-29061D01*
X18319Y-29061D02*
X18319Y-28661D01*
X18280Y-28719D01*
X18242Y-28757D01*
X18204Y-28776D01*
G54D17*
X35770Y-55445D02*
X35627Y-55545D01*
X35770Y-55617D02*
X35470Y-55617D01*
X35470Y-55502D01*
X35484Y-55474D01*
X35499Y-55460D01*
X35527Y-55445D01*
X35570Y-55445D01*
X35599Y-55460D01*
X35613Y-55474D01*
X35627Y-55502D01*
X35627Y-55617D01*
X35570Y-55188D02*
X35770Y-55188D01*
X35456Y-55260D02*
X35670Y-55331D01*
X35670Y-55145D01*
X131256Y-55117D02*
X131113Y-55217D01*
X131256Y-55289D02*
X130956Y-55289D01*
X130956Y-55174D01*
X130970Y-55146D01*
X130985Y-55132D01*
X131013Y-55117D01*
X131056Y-55117D01*
X131085Y-55132D01*
X131099Y-55146D01*
X131113Y-55174D01*
X131113Y-55289D01*
X130985Y-55003D02*
X130970Y-54989D01*
X130956Y-54960D01*
X130956Y-54889D01*
X130970Y-54860D01*
X130985Y-54846D01*
X131013Y-54832D01*
X131042Y-54832D01*
X131085Y-54846D01*
X131256Y-55017D01*
X131256Y-54832D01*
X131256Y-54546D02*
X131256Y-54717D01*
X131256Y-54632D02*
X130956Y-54632D01*
X130999Y-54660D01*
X131028Y-54689D01*
X131042Y-54717D01*
X68389Y-35033D02*
X68246Y-35133D01*
X68389Y-35204D02*
X68089Y-35204D01*
X68089Y-35090D01*
X68104Y-35062D01*
X68118Y-35047D01*
X68146Y-35033D01*
X68189Y-35033D01*
X68218Y-35047D01*
X68232Y-35062D01*
X68246Y-35090D01*
X68246Y-35204D01*
X68089Y-34776D02*
X68089Y-34833D01*
X68104Y-34862D01*
X68118Y-34876D01*
X68161Y-34904D01*
X68218Y-34919D01*
X68332Y-34919D01*
X68361Y-34904D01*
X68375Y-34890D01*
X68389Y-34862D01*
X68389Y-34804D01*
X68375Y-34776D01*
X68361Y-34762D01*
X68332Y-34747D01*
X68261Y-34747D01*
X68232Y-34762D01*
X68218Y-34776D01*
X68204Y-34804D01*
X68204Y-34862D01*
X68218Y-34890D01*
X68232Y-34904D01*
X68261Y-34919D01*
X116176Y-39743D02*
X116033Y-39843D01*
X116176Y-39914D02*
X115876Y-39914D01*
X115876Y-39800D01*
X115890Y-39772D01*
X115905Y-39757D01*
X115933Y-39743D01*
X115976Y-39743D01*
X116005Y-39757D01*
X116019Y-39772D01*
X116033Y-39800D01*
X116033Y-39914D01*
X115905Y-39629D02*
X115890Y-39614D01*
X115876Y-39586D01*
X115876Y-39514D01*
X115890Y-39486D01*
X115905Y-39472D01*
X115933Y-39457D01*
X115962Y-39457D01*
X116005Y-39472D01*
X116176Y-39643D01*
X116176Y-39457D01*
X115876Y-39272D02*
X115876Y-39243D01*
X115890Y-39214D01*
X115905Y-39200D01*
X115933Y-39186D01*
X115990Y-39172D01*
X116062Y-39172D01*
X116119Y-39186D01*
X116147Y-39200D01*
X116162Y-39214D01*
X116176Y-39243D01*
X116176Y-39272D01*
X116162Y-39300D01*
X116147Y-39314D01*
X116119Y-39329D01*
X116062Y-39343D01*
X115990Y-39343D01*
X115933Y-39329D01*
X115905Y-39314D01*
X115890Y-39300D01*
X115876Y-39272D01*
X140169Y-74722D02*
X140026Y-74822D01*
X140169Y-74893D02*
X139869Y-74893D01*
X139869Y-74779D01*
X139883Y-74750D01*
X139897Y-74736D01*
X139926Y-74722D01*
X139969Y-74722D01*
X139997Y-74736D01*
X140012Y-74750D01*
X140026Y-74779D01*
X140026Y-74893D01*
X139897Y-74607D02*
X139883Y-74593D01*
X139869Y-74565D01*
X139869Y-74493D01*
X139883Y-74465D01*
X139897Y-74450D01*
X139926Y-74436D01*
X139955Y-74436D01*
X139997Y-74450D01*
X140169Y-74622D01*
X140169Y-74436D01*
X139897Y-74322D02*
X139883Y-74307D01*
X139869Y-74279D01*
X139869Y-74207D01*
X139883Y-74179D01*
X139897Y-74165D01*
X139926Y-74150D01*
X139955Y-74150D01*
X139997Y-74165D01*
X140169Y-74336D01*
X140169Y-74150D01*
X96747Y-30454D02*
X96604Y-30554D01*
X96747Y-30625D02*
X96447Y-30625D01*
X96447Y-30511D01*
X96461Y-30483D01*
X96476Y-30468D01*
X96504Y-30454D01*
X96547Y-30454D01*
X96576Y-30468D01*
X96590Y-30483D01*
X96604Y-30511D01*
X96604Y-30625D01*
X96747Y-30168D02*
X96747Y-30340D01*
X96747Y-30254D02*
X96447Y-30254D01*
X96490Y-30283D01*
X96518Y-30311D01*
X96533Y-30340D01*
X96747Y-30025D02*
X96747Y-29968D01*
X96733Y-29940D01*
X96718Y-29925D01*
X96676Y-29897D01*
X96618Y-29883D01*
X96504Y-29883D01*
X96476Y-29897D01*
X96461Y-29911D01*
X96447Y-29940D01*
X96447Y-29997D01*
X96461Y-30025D01*
X96476Y-30040D01*
X96504Y-30054D01*
X96576Y-30054D01*
X96604Y-30040D01*
X96618Y-30025D01*
X96633Y-29997D01*
X96633Y-29940D01*
X96618Y-29911D01*
X96604Y-29897D01*
X96576Y-29883D01*
X87914Y-34338D02*
X87771Y-34438D01*
X87914Y-34510D02*
X87614Y-34510D01*
X87614Y-34396D01*
X87628Y-34367D01*
X87642Y-34353D01*
X87671Y-34338D01*
X87714Y-34338D01*
X87742Y-34353D01*
X87756Y-34367D01*
X87771Y-34396D01*
X87771Y-34510D01*
X87614Y-34238D02*
X87614Y-34038D01*
X87914Y-34167D01*
X50280Y-42364D02*
X50137Y-42464D01*
X50280Y-42535D02*
X49980Y-42535D01*
X49980Y-42421D01*
X49994Y-42392D01*
X50009Y-42378D01*
X50037Y-42364D01*
X50080Y-42364D01*
X50109Y-42378D01*
X50123Y-42392D01*
X50137Y-42421D01*
X50137Y-42535D01*
X49980Y-42092D02*
X49980Y-42235D01*
X50123Y-42249D01*
X50109Y-42235D01*
X50094Y-42206D01*
X50094Y-42135D01*
X50109Y-42106D01*
X50123Y-42092D01*
X50151Y-42078D01*
X50223Y-42078D01*
X50251Y-42092D01*
X50266Y-42106D01*
X50280Y-42135D01*
X50280Y-42206D01*
X50266Y-42235D01*
X50251Y-42249D01*
X141839Y-96192D02*
X141696Y-96292D01*
X141839Y-96364D02*
X141539Y-96364D01*
X141539Y-96250D01*
X141553Y-96221D01*
X141567Y-96207D01*
X141596Y-96192D01*
X141639Y-96192D01*
X141667Y-96207D01*
X141682Y-96221D01*
X141696Y-96250D01*
X141696Y-96364D01*
X141567Y-96078D02*
X141553Y-96064D01*
X141539Y-96035D01*
X141539Y-95964D01*
X141553Y-95935D01*
X141567Y-95921D01*
X141596Y-95907D01*
X141624Y-95907D01*
X141667Y-95921D01*
X141839Y-96092D01*
X141839Y-95907D01*
X141539Y-95807D02*
X141539Y-95621D01*
X141653Y-95721D01*
X141653Y-95678D01*
X141667Y-95650D01*
X141682Y-95635D01*
X141710Y-95621D01*
X141782Y-95621D01*
X141810Y-95635D01*
X141824Y-95650D01*
X141839Y-95678D01*
X141839Y-95764D01*
X141824Y-95792D01*
X141810Y-95807D01*
X134567Y-116127D02*
X134424Y-116227D01*
X134567Y-116298D02*
X134267Y-116298D01*
X134267Y-116184D01*
X134281Y-116155D01*
X134296Y-116141D01*
X134324Y-116127D01*
X134367Y-116127D01*
X134396Y-116141D01*
X134410Y-116155D01*
X134424Y-116184D01*
X134424Y-116298D01*
X134296Y-116013D02*
X134281Y-115998D01*
X134267Y-115970D01*
X134267Y-115898D01*
X134281Y-115870D01*
X134296Y-115855D01*
X134324Y-115841D01*
X134353Y-115841D01*
X134396Y-115855D01*
X134567Y-116027D01*
X134567Y-115841D01*
X134367Y-115584D02*
X134567Y-115584D01*
X134253Y-115655D02*
X134467Y-115727D01*
X134467Y-115541D01*
X27977Y-111156D02*
X27835Y-111256D01*
X27977Y-111328D02*
X27677Y-111328D01*
X27677Y-111214D01*
X27692Y-111185D01*
X27706Y-111171D01*
X27735Y-111156D01*
X27777Y-111156D01*
X27806Y-111171D01*
X27820Y-111185D01*
X27835Y-111214D01*
X27835Y-111328D01*
X27977Y-110871D02*
X27977Y-111042D01*
X27977Y-110956D02*
X27677Y-110956D01*
X27720Y-110985D01*
X27749Y-111014D01*
X27763Y-111042D01*
X23903Y-92050D02*
X23760Y-92150D01*
X23903Y-92221D02*
X23603Y-92221D01*
X23603Y-92107D01*
X23617Y-92078D01*
X23632Y-92064D01*
X23660Y-92050D01*
X23703Y-92050D01*
X23732Y-92064D01*
X23746Y-92078D01*
X23760Y-92107D01*
X23760Y-92221D01*
X23632Y-91935D02*
X23617Y-91921D01*
X23603Y-91892D01*
X23603Y-91821D01*
X23617Y-91792D01*
X23632Y-91778D01*
X23660Y-91764D01*
X23689Y-91764D01*
X23732Y-91778D01*
X23903Y-91950D01*
X23903Y-91764D01*
X26609Y-72701D02*
X26467Y-72801D01*
X26609Y-72873D02*
X26309Y-72873D01*
X26309Y-72758D01*
X26324Y-72730D01*
X26338Y-72716D01*
X26367Y-72701D01*
X26409Y-72701D01*
X26438Y-72716D01*
X26452Y-72730D01*
X26467Y-72758D01*
X26467Y-72873D01*
X26309Y-72601D02*
X26309Y-72416D01*
X26424Y-72516D01*
X26424Y-72473D01*
X26438Y-72444D01*
X26452Y-72430D01*
X26481Y-72416D01*
X26552Y-72416D01*
X26581Y-72430D01*
X26595Y-72444D01*
X26609Y-72473D01*
X26609Y-72558D01*
X26595Y-72587D01*
X26581Y-72601D01*
X54458Y-33743D02*
X54315Y-33843D01*
X54458Y-33915D02*
X54158Y-33915D01*
X54158Y-33800D01*
X54173Y-33772D01*
X54187Y-33757D01*
X54215Y-33743D01*
X54258Y-33743D01*
X54287Y-33757D01*
X54301Y-33772D01*
X54315Y-33800D01*
X54315Y-33915D01*
X54458Y-33457D02*
X54458Y-33629D01*
X54458Y-33543D02*
X54158Y-33543D01*
X54201Y-33572D01*
X54230Y-33600D01*
X54244Y-33629D01*
X54158Y-33357D02*
X54158Y-33157D01*
X54458Y-33286D01*
X36699Y-45925D02*
X36556Y-46025D01*
X36699Y-46096D02*
X36399Y-46096D01*
X36399Y-45982D01*
X36413Y-45953D01*
X36428Y-45939D01*
X36456Y-45925D01*
X36499Y-45925D01*
X36528Y-45939D01*
X36542Y-45953D01*
X36556Y-45982D01*
X36556Y-46096D01*
X36699Y-45639D02*
X36699Y-45810D01*
X36699Y-45725D02*
X36399Y-45725D01*
X36442Y-45753D01*
X36470Y-45782D01*
X36485Y-45810D01*
X36399Y-45382D02*
X36399Y-45439D01*
X36413Y-45468D01*
X36428Y-45482D01*
X36470Y-45510D01*
X36528Y-45525D01*
X36642Y-45525D01*
X36670Y-45510D01*
X36685Y-45496D01*
X36699Y-45468D01*
X36699Y-45410D01*
X36685Y-45382D01*
X36670Y-45368D01*
X36642Y-45353D01*
X36570Y-45353D01*
X36542Y-45368D01*
X36528Y-45382D01*
X36513Y-45410D01*
X36513Y-45468D01*
X36528Y-45496D01*
X36542Y-45510D01*
X36570Y-45525D01*
X24177Y-63445D02*
X24034Y-63545D01*
X24177Y-63617D02*
X23877Y-63617D01*
X23877Y-63502D01*
X23892Y-63474D01*
X23906Y-63460D01*
X23934Y-63445D01*
X23977Y-63445D01*
X24006Y-63460D01*
X24020Y-63474D01*
X24034Y-63502D01*
X24034Y-63617D01*
X24177Y-63160D02*
X24177Y-63331D01*
X24177Y-63245D02*
X23877Y-63245D01*
X23920Y-63274D01*
X23949Y-63302D01*
X23963Y-63331D01*
X23877Y-62888D02*
X23877Y-63031D01*
X24020Y-63045D01*
X24006Y-63031D01*
X23992Y-63002D01*
X23992Y-62931D01*
X24006Y-62902D01*
X24020Y-62888D01*
X24049Y-62874D01*
X24120Y-62874D01*
X24149Y-62888D01*
X24163Y-62902D01*
X24177Y-62931D01*
X24177Y-63002D01*
X24163Y-63031D01*
X24149Y-63045D01*
X18403Y-84192D02*
X18260Y-84292D01*
X18403Y-84364D02*
X18103Y-84364D01*
X18103Y-84250D01*
X18117Y-84221D01*
X18132Y-84207D01*
X18160Y-84192D01*
X18203Y-84192D01*
X18232Y-84207D01*
X18246Y-84221D01*
X18260Y-84250D01*
X18260Y-84364D01*
X18403Y-83907D02*
X18403Y-84078D01*
X18403Y-83992D02*
X18103Y-83992D01*
X18146Y-84021D01*
X18174Y-84050D01*
X18189Y-84078D01*
X18203Y-83650D02*
X18403Y-83650D01*
X18089Y-83721D02*
X18303Y-83792D01*
X18303Y-83607D01*
X20073Y-105663D02*
X19930Y-105763D01*
X20073Y-105834D02*
X19773Y-105834D01*
X19773Y-105720D01*
X19787Y-105692D01*
X19802Y-105677D01*
X19830Y-105663D01*
X19873Y-105663D01*
X19902Y-105677D01*
X19916Y-105692D01*
X19930Y-105720D01*
X19930Y-105834D01*
X20073Y-105377D02*
X20073Y-105549D01*
X20073Y-105463D02*
X19773Y-105463D01*
X19816Y-105492D01*
X19844Y-105520D01*
X19859Y-105549D01*
X19773Y-105277D02*
X19773Y-105092D01*
X19887Y-105192D01*
X19887Y-105149D01*
X19902Y-105120D01*
X19916Y-105106D01*
X19944Y-105092D01*
X20016Y-105092D01*
X20044Y-105106D01*
X20059Y-105120D01*
X20073Y-105149D01*
X20073Y-105234D01*
X20059Y-105263D01*
X20044Y-105277D01*
X132265Y-69085D02*
X132122Y-69185D01*
X132265Y-69257D02*
X131965Y-69257D01*
X131965Y-69143D01*
X131979Y-69114D01*
X131993Y-69100D01*
X132022Y-69085D01*
X132065Y-69085D01*
X132093Y-69100D01*
X132107Y-69114D01*
X132122Y-69143D01*
X132122Y-69257D01*
X132265Y-68800D02*
X132265Y-68971D01*
X132265Y-68885D02*
X131965Y-68885D01*
X132007Y-68914D01*
X132036Y-68943D01*
X132050Y-68971D01*
X131965Y-68614D02*
X131965Y-68585D01*
X131979Y-68557D01*
X131993Y-68543D01*
X132022Y-68528D01*
X132079Y-68514D01*
X132150Y-68514D01*
X132207Y-68528D01*
X132236Y-68543D01*
X132250Y-68557D01*
X132265Y-68585D01*
X132265Y-68614D01*
X132250Y-68643D01*
X132236Y-68657D01*
X132207Y-68671D01*
X132150Y-68685D01*
X132079Y-68685D01*
X132022Y-68671D01*
X131993Y-68657D01*
X131979Y-68643D01*
X131965Y-68614D01*
X136339Y-88192D02*
X136196Y-88292D01*
X136339Y-88364D02*
X136039Y-88364D01*
X136039Y-88250D01*
X136053Y-88221D01*
X136067Y-88207D01*
X136096Y-88192D01*
X136139Y-88192D01*
X136167Y-88207D01*
X136182Y-88221D01*
X136196Y-88250D01*
X136196Y-88364D01*
X136339Y-87907D02*
X136339Y-88078D01*
X136339Y-87992D02*
X136039Y-87992D01*
X136082Y-88021D01*
X136110Y-88050D01*
X136124Y-88078D01*
X136339Y-87621D02*
X136339Y-87792D01*
X136339Y-87707D02*
X136039Y-87707D01*
X136082Y-87735D01*
X136110Y-87764D01*
X136124Y-87792D01*
X75313Y-28370D02*
X75170Y-28470D01*
X75313Y-28542D02*
X75013Y-28542D01*
X75013Y-28427D01*
X75027Y-28399D01*
X75041Y-28385D01*
X75070Y-28370D01*
X75113Y-28370D01*
X75141Y-28385D01*
X75155Y-28399D01*
X75170Y-28427D01*
X75170Y-28542D01*
X75313Y-28085D02*
X75313Y-28256D01*
X75313Y-28170D02*
X75013Y-28170D01*
X75055Y-28199D01*
X75084Y-28227D01*
X75098Y-28256D01*
X75141Y-27913D02*
X75127Y-27942D01*
X75113Y-27956D01*
X75084Y-27970D01*
X75070Y-27970D01*
X75041Y-27956D01*
X75027Y-27942D01*
X75013Y-27913D01*
X75013Y-27856D01*
X75027Y-27827D01*
X75041Y-27813D01*
X75070Y-27799D01*
X75084Y-27799D01*
X75113Y-27813D01*
X75127Y-27827D01*
X75141Y-27856D01*
X75141Y-27913D01*
X75155Y-27942D01*
X75170Y-27956D01*
X75198Y-27970D01*
X75255Y-27970D01*
X75284Y-27956D01*
X75298Y-27942D01*
X75313Y-27913D01*
X75313Y-27856D01*
X75298Y-27827D01*
X75284Y-27813D01*
X75255Y-27799D01*
X75198Y-27799D01*
X75170Y-27813D01*
X75155Y-27827D01*
X75141Y-27856D01*
X121901Y-52381D02*
X121758Y-52481D01*
X121901Y-52553D02*
X121601Y-52553D01*
X121601Y-52438D01*
X121615Y-52410D01*
X121629Y-52395D01*
X121658Y-52381D01*
X121701Y-52381D01*
X121729Y-52395D01*
X121743Y-52410D01*
X121758Y-52438D01*
X121758Y-52553D01*
X121901Y-52238D02*
X121901Y-52181D01*
X121886Y-52153D01*
X121872Y-52138D01*
X121829Y-52110D01*
X121772Y-52095D01*
X121658Y-52095D01*
X121629Y-52110D01*
X121615Y-52124D01*
X121601Y-52153D01*
X121601Y-52210D01*
X121615Y-52238D01*
X121629Y-52253D01*
X121658Y-52267D01*
X121729Y-52267D01*
X121758Y-52253D01*
X121772Y-52238D01*
X121786Y-52210D01*
X121786Y-52153D01*
X121772Y-52124D01*
X121758Y-52110D01*
X121729Y-52095D01*
X133633Y-107541D02*
X133490Y-107641D01*
X133633Y-107712D02*
X133333Y-107712D01*
X133333Y-107598D01*
X133347Y-107569D01*
X133361Y-107555D01*
X133390Y-107541D01*
X133433Y-107541D01*
X133461Y-107555D01*
X133475Y-107569D01*
X133490Y-107598D01*
X133490Y-107712D01*
X133633Y-107255D02*
X133633Y-107426D01*
X133633Y-107341D02*
X133333Y-107341D01*
X133375Y-107369D01*
X133404Y-107398D01*
X133418Y-107426D01*
X133361Y-107141D02*
X133347Y-107126D01*
X133333Y-107098D01*
X133333Y-107026D01*
X133347Y-106998D01*
X133361Y-106983D01*
X133390Y-106969D01*
X133418Y-106969D01*
X133461Y-106983D01*
X133633Y-107155D01*
X133633Y-106969D01*
X106498Y-40364D02*
X106355Y-40464D01*
X106498Y-40535D02*
X106198Y-40535D01*
X106198Y-40421D01*
X106212Y-40392D01*
X106226Y-40378D01*
X106255Y-40364D01*
X106298Y-40364D01*
X106326Y-40378D01*
X106341Y-40392D01*
X106355Y-40421D01*
X106355Y-40535D01*
X106326Y-40192D02*
X106312Y-40221D01*
X106298Y-40235D01*
X106269Y-40249D01*
X106255Y-40249D01*
X106226Y-40235D01*
X106212Y-40221D01*
X106198Y-40192D01*
X106198Y-40135D01*
X106212Y-40106D01*
X106226Y-40092D01*
X106255Y-40078D01*
X106269Y-40078D01*
X106298Y-40092D01*
X106312Y-40106D01*
X106326Y-40135D01*
X106326Y-40192D01*
X106341Y-40221D01*
X106355Y-40235D01*
X106383Y-40249D01*
X106441Y-40249D01*
X106469Y-40235D01*
X106483Y-40221D01*
X106498Y-40192D01*
X106498Y-40135D01*
X106483Y-40106D01*
X106469Y-40092D01*
X106441Y-40078D01*
X106383Y-40078D01*
X106355Y-40092D01*
X106341Y-40106D01*
X106326Y-40135D01*
G54D10*
X19565Y-40387D02*
X19884Y-40387D01*
X19921Y-40368D01*
X19940Y-40349D01*
X19959Y-40312D01*
X19959Y-40237D01*
X19940Y-40199D01*
X19921Y-40181D01*
X19884Y-40162D01*
X19565Y-40162D01*
X19959Y-39768D02*
X19959Y-39993D01*
X19959Y-39881D02*
X19565Y-39881D01*
X19621Y-39918D01*
X19659Y-39956D01*
X19678Y-39993D01*
X19565Y-39637D02*
X19565Y-39393D01*
X19715Y-39525D01*
X19715Y-39468D01*
X19734Y-39431D01*
X19753Y-39412D01*
X19790Y-39393D01*
X19884Y-39393D01*
X19921Y-39412D01*
X19940Y-39431D01*
X19959Y-39468D01*
X19959Y-39581D01*
X19940Y-39618D01*
X19921Y-39637D01*
X25259Y-38734D02*
X24865Y-38734D01*
X24865Y-38584D01*
X24884Y-38546D01*
X24903Y-38527D01*
X24940Y-38509D01*
X24996Y-38509D01*
X25034Y-38527D01*
X25053Y-38546D01*
X25071Y-38584D01*
X25071Y-38734D01*
X24865Y-38265D02*
X24865Y-38190D01*
X24884Y-38152D01*
X24921Y-38115D01*
X24996Y-38096D01*
X25128Y-38096D01*
X25203Y-38115D01*
X25240Y-38152D01*
X25259Y-38190D01*
X25259Y-38265D01*
X25240Y-38302D01*
X25203Y-38340D01*
X25128Y-38359D01*
X24996Y-38359D01*
X24921Y-38340D01*
X24884Y-38302D01*
X24865Y-38265D01*
X25259Y-37740D02*
X25259Y-37928D01*
X24865Y-37928D01*
X24865Y-37534D02*
X24865Y-37459D01*
X24884Y-37421D01*
X24921Y-37384D01*
X24996Y-37365D01*
X25128Y-37365D01*
X25203Y-37384D01*
X25240Y-37421D01*
X25259Y-37459D01*
X25259Y-37534D01*
X25240Y-37571D01*
X25203Y-37609D01*
X25128Y-37628D01*
X24996Y-37628D01*
X24921Y-37609D01*
X24884Y-37571D01*
X24865Y-37534D01*
X25259Y-37009D02*
X25259Y-37196D01*
X24865Y-37196D01*
X24865Y-36878D02*
X25184Y-36878D01*
X25221Y-36859D01*
X25240Y-36840D01*
X25259Y-36803D01*
X25259Y-36728D01*
X25240Y-36690D01*
X25221Y-36671D01*
X25184Y-36653D01*
X24865Y-36653D01*
X25296Y-36559D02*
X25296Y-36259D01*
X24865Y-36203D02*
X24865Y-35959D01*
X25015Y-36090D01*
X25015Y-36034D01*
X25034Y-35997D01*
X25053Y-35978D01*
X25090Y-35959D01*
X25184Y-35959D01*
X25221Y-35978D01*
X25240Y-35997D01*
X25259Y-36034D01*
X25259Y-36146D01*
X25240Y-36184D01*
X25221Y-36203D01*
X24865Y-35847D02*
X25259Y-35715D01*
X24865Y-35584D01*
X24865Y-35490D02*
X24865Y-35247D01*
X25015Y-35378D01*
X25015Y-35322D01*
X25034Y-35284D01*
X25053Y-35265D01*
X25090Y-35247D01*
X25184Y-35247D01*
X25221Y-35265D01*
X25240Y-35284D01*
X25259Y-35322D01*
X25259Y-35434D01*
X25240Y-35472D01*
X25221Y-35490D01*
X20486Y-35225D02*
X20617Y-35619D01*
X20748Y-35225D01*
X20955Y-35225D02*
X21030Y-35225D01*
X21067Y-35244D01*
X21105Y-35281D01*
X21123Y-35356D01*
X21123Y-35488D01*
X21105Y-35563D01*
X21067Y-35600D01*
X21030Y-35619D01*
X20955Y-35619D01*
X20917Y-35600D01*
X20880Y-35563D01*
X20861Y-35488D01*
X20861Y-35356D01*
X20880Y-35281D01*
X20917Y-35244D01*
X20955Y-35225D01*
X21292Y-35225D02*
X21292Y-35544D01*
X21311Y-35581D01*
X21329Y-35600D01*
X21367Y-35619D01*
X21442Y-35619D01*
X21479Y-35600D01*
X21498Y-35581D01*
X21517Y-35544D01*
X21517Y-35225D01*
X21648Y-35225D02*
X21873Y-35225D01*
X21761Y-35619D02*
X21761Y-35225D01*
X20740Y-36264D02*
X20702Y-36245D01*
X20646Y-36245D01*
X20590Y-36264D01*
X20552Y-36301D01*
X20533Y-36339D01*
X20515Y-36414D01*
X20515Y-36470D01*
X20533Y-36545D01*
X20552Y-36583D01*
X20590Y-36620D01*
X20646Y-36639D01*
X20683Y-36639D01*
X20740Y-36620D01*
X20758Y-36601D01*
X20758Y-36470D01*
X20683Y-36470D01*
X20927Y-36639D02*
X20927Y-36245D01*
X21152Y-36639D01*
X21152Y-36245D01*
X21339Y-36639D02*
X21339Y-36245D01*
X21433Y-36245D01*
X21489Y-36264D01*
X21527Y-36301D01*
X21546Y-36339D01*
X21564Y-36414D01*
X21564Y-36470D01*
X21546Y-36545D01*
X21527Y-36583D01*
X21489Y-36620D01*
X21433Y-36639D01*
X21339Y-36639D01*
X20508Y-37205D02*
X20640Y-37599D01*
X20771Y-37205D01*
X20902Y-37599D02*
X20902Y-37205D01*
X21089Y-37599D02*
X21089Y-37205D01*
X21314Y-37599D01*
X21314Y-37205D01*
X20538Y-38540D02*
X20594Y-38559D01*
X20688Y-38559D01*
X20725Y-38540D01*
X20744Y-38521D01*
X20763Y-38484D01*
X20763Y-38446D01*
X20744Y-38409D01*
X20725Y-38390D01*
X20688Y-38371D01*
X20613Y-38353D01*
X20575Y-38334D01*
X20556Y-38315D01*
X20538Y-38278D01*
X20538Y-38240D01*
X20556Y-38203D01*
X20575Y-38184D01*
X20613Y-38165D01*
X20706Y-38165D01*
X20763Y-38184D01*
X20931Y-38559D02*
X20931Y-38165D01*
X20931Y-38353D02*
X21156Y-38353D01*
X21156Y-38559D02*
X21156Y-38165D01*
X21344Y-38559D02*
X21344Y-38165D01*
X21438Y-38165D01*
X21494Y-38184D01*
X21531Y-38221D01*
X21550Y-38259D01*
X21569Y-38334D01*
X21569Y-38390D01*
X21550Y-38465D01*
X21531Y-38503D01*
X21494Y-38540D01*
X21438Y-38559D01*
X21344Y-38559D01*
X21738Y-38559D02*
X21738Y-38165D01*
X21963Y-38559D01*
X21963Y-38165D01*
X20463Y-38075D02*
X22056Y-38075D01*
G54D17*
X134199Y-90871D02*
X134199Y-90571D01*
X134314Y-90571D01*
X134342Y-90585D01*
X134357Y-90600D01*
X134371Y-90628D01*
X134371Y-90671D01*
X134357Y-90700D01*
X134342Y-90714D01*
X134314Y-90728D01*
X134199Y-90728D01*
X134485Y-90600D02*
X134499Y-90585D01*
X134528Y-90571D01*
X134599Y-90571D01*
X134628Y-90585D01*
X134642Y-90600D01*
X134657Y-90628D01*
X134657Y-90657D01*
X134642Y-90700D01*
X134471Y-90871D01*
X134657Y-90871D01*
X134757Y-90571D02*
X134942Y-90571D01*
X134842Y-90685D01*
X134885Y-90685D01*
X134914Y-90700D01*
X134928Y-90714D01*
X134942Y-90742D01*
X134942Y-90814D01*
X134928Y-90842D01*
X134914Y-90857D01*
X134885Y-90871D01*
X134799Y-90871D01*
X134771Y-90857D01*
X134757Y-90842D01*
X53002Y-42492D02*
X53002Y-42192D01*
X53117Y-42192D01*
X53145Y-42206D01*
X53160Y-42221D01*
X53174Y-42249D01*
X53174Y-42292D01*
X53160Y-42321D01*
X53145Y-42335D01*
X53117Y-42349D01*
X53002Y-42349D01*
X53460Y-42492D02*
X53288Y-42492D01*
X53374Y-42492D02*
X53374Y-42192D01*
X53345Y-42235D01*
X53317Y-42263D01*
X53288Y-42278D01*
X53560Y-42192D02*
X53760Y-42192D01*
X53631Y-42492D01*
X70899Y-36255D02*
X70899Y-35955D01*
X71013Y-35955D01*
X71042Y-35970D01*
X71056Y-35984D01*
X71070Y-36012D01*
X71070Y-36055D01*
X71056Y-36084D01*
X71042Y-36098D01*
X71013Y-36112D01*
X70899Y-36112D01*
X71356Y-36255D02*
X71185Y-36255D01*
X71270Y-36255D02*
X71270Y-35955D01*
X71242Y-35998D01*
X71213Y-36027D01*
X71185Y-36041D01*
X71528Y-36084D02*
X71499Y-36070D01*
X71485Y-36055D01*
X71470Y-36027D01*
X71470Y-36012D01*
X71485Y-35984D01*
X71499Y-35970D01*
X71528Y-35955D01*
X71585Y-35955D01*
X71613Y-35970D01*
X71628Y-35984D01*
X71642Y-36012D01*
X71642Y-36027D01*
X71628Y-36055D01*
X71613Y-36070D01*
X71585Y-36084D01*
X71528Y-36084D01*
X71499Y-36098D01*
X71485Y-36112D01*
X71470Y-36141D01*
X71470Y-36198D01*
X71485Y-36227D01*
X71499Y-36241D01*
X71528Y-36255D01*
X71585Y-36255D01*
X71613Y-36241D01*
X71628Y-36227D01*
X71642Y-36198D01*
X71642Y-36141D01*
X71628Y-36112D01*
X71613Y-36098D01*
X71585Y-36084D01*
X89849Y-36516D02*
X89849Y-36216D01*
X89963Y-36216D01*
X89991Y-36230D01*
X90006Y-36244D01*
X90020Y-36273D01*
X90020Y-36316D01*
X90006Y-36344D01*
X89991Y-36359D01*
X89963Y-36373D01*
X89849Y-36373D01*
X90306Y-36516D02*
X90134Y-36516D01*
X90220Y-36516D02*
X90220Y-36216D01*
X90191Y-36259D01*
X90163Y-36287D01*
X90134Y-36302D01*
X90449Y-36516D02*
X90506Y-36516D01*
X90534Y-36502D01*
X90549Y-36487D01*
X90577Y-36444D01*
X90591Y-36387D01*
X90591Y-36273D01*
X90577Y-36244D01*
X90563Y-36230D01*
X90534Y-36216D01*
X90477Y-36216D01*
X90449Y-36230D01*
X90434Y-36244D01*
X90420Y-36273D01*
X90420Y-36344D01*
X90434Y-36373D01*
X90449Y-36387D01*
X90477Y-36402D01*
X90534Y-36402D01*
X90563Y-36387D01*
X90577Y-36373D01*
X90591Y-36344D01*
X38319Y-54473D02*
X38319Y-54173D01*
X38433Y-54173D01*
X38461Y-54187D01*
X38476Y-54202D01*
X38490Y-54230D01*
X38490Y-54273D01*
X38476Y-54302D01*
X38461Y-54316D01*
X38433Y-54330D01*
X38319Y-54330D01*
X38776Y-54473D02*
X38604Y-54473D01*
X38690Y-54473D02*
X38690Y-54173D01*
X38661Y-54216D01*
X38633Y-54245D01*
X38604Y-54259D01*
X39033Y-54173D02*
X38976Y-54173D01*
X38947Y-54187D01*
X38933Y-54202D01*
X38904Y-54245D01*
X38890Y-54302D01*
X38890Y-54416D01*
X38904Y-54445D01*
X38919Y-54459D01*
X38947Y-54473D01*
X39004Y-54473D01*
X39033Y-54459D01*
X39047Y-54445D01*
X39061Y-54416D01*
X39061Y-54345D01*
X39047Y-54316D01*
X39033Y-54302D01*
X39004Y-54287D01*
X38947Y-54287D01*
X38919Y-54302D01*
X38904Y-54316D01*
X38890Y-54345D01*
X28105Y-108078D02*
X28105Y-107778D01*
X28219Y-107778D01*
X28248Y-107793D01*
X28262Y-107807D01*
X28276Y-107836D01*
X28276Y-107878D01*
X28262Y-107907D01*
X28248Y-107921D01*
X28219Y-107936D01*
X28105Y-107936D01*
X28562Y-108078D02*
X28391Y-108078D01*
X28476Y-108078D02*
X28476Y-107778D01*
X28448Y-107821D01*
X28419Y-107850D01*
X28391Y-107864D01*
X28662Y-107778D02*
X28848Y-107778D01*
X28748Y-107893D01*
X28791Y-107893D01*
X28819Y-107907D01*
X28834Y-107921D01*
X28848Y-107950D01*
X28848Y-108021D01*
X28834Y-108050D01*
X28819Y-108064D01*
X28791Y-108078D01*
X28705Y-108078D01*
X28676Y-108064D01*
X28662Y-108050D01*
X130652Y-109488D02*
X130652Y-109188D01*
X130767Y-109188D01*
X130795Y-109202D01*
X130809Y-109216D01*
X130824Y-109245D01*
X130824Y-109288D01*
X130809Y-109316D01*
X130795Y-109331D01*
X130767Y-109345D01*
X130652Y-109345D01*
X130938Y-109216D02*
X130952Y-109202D01*
X130981Y-109188D01*
X131052Y-109188D01*
X131081Y-109202D01*
X131095Y-109216D01*
X131109Y-109245D01*
X131109Y-109274D01*
X131095Y-109316D01*
X130924Y-109488D01*
X131109Y-109488D01*
X131367Y-109288D02*
X131367Y-109488D01*
X131295Y-109174D02*
X131224Y-109388D01*
X131409Y-109388D01*
X131165Y-72163D02*
X131165Y-71863D01*
X131280Y-71863D01*
X131308Y-71878D01*
X131322Y-71892D01*
X131337Y-71921D01*
X131337Y-71963D01*
X131322Y-71992D01*
X131308Y-72006D01*
X131280Y-72021D01*
X131165Y-72021D01*
X131451Y-71892D02*
X131465Y-71878D01*
X131494Y-71863D01*
X131565Y-71863D01*
X131594Y-71878D01*
X131608Y-71892D01*
X131622Y-71921D01*
X131622Y-71949D01*
X131608Y-71992D01*
X131437Y-72163D01*
X131622Y-72163D01*
X131737Y-71892D02*
X131751Y-71878D01*
X131780Y-71863D01*
X131851Y-71863D01*
X131880Y-71878D01*
X131894Y-71892D01*
X131908Y-71921D01*
X131908Y-71949D01*
X131894Y-71992D01*
X131722Y-72163D01*
X131908Y-72163D01*
X121916Y-55622D02*
X121916Y-55322D01*
X122030Y-55322D01*
X122059Y-55337D01*
X122073Y-55351D01*
X122088Y-55379D01*
X122088Y-55422D01*
X122073Y-55451D01*
X122059Y-55465D01*
X122030Y-55479D01*
X121916Y-55479D01*
X122202Y-55351D02*
X122216Y-55337D01*
X122245Y-55322D01*
X122316Y-55322D01*
X122345Y-55337D01*
X122359Y-55351D01*
X122373Y-55379D01*
X122373Y-55408D01*
X122359Y-55451D01*
X122188Y-55622D01*
X122373Y-55622D01*
X122659Y-55622D02*
X122488Y-55622D01*
X122573Y-55622D02*
X122573Y-55322D01*
X122545Y-55365D01*
X122516Y-55394D01*
X122488Y-55408D01*
X28618Y-70754D02*
X28618Y-70454D01*
X28732Y-70454D01*
X28761Y-70468D01*
X28775Y-70483D01*
X28789Y-70511D01*
X28789Y-70554D01*
X28775Y-70583D01*
X28761Y-70597D01*
X28732Y-70611D01*
X28618Y-70611D01*
X29075Y-70754D02*
X28904Y-70754D01*
X28989Y-70754D02*
X28989Y-70454D01*
X28961Y-70497D01*
X28932Y-70525D01*
X28904Y-70540D01*
X29347Y-70454D02*
X29204Y-70454D01*
X29189Y-70597D01*
X29204Y-70583D01*
X29232Y-70568D01*
X29304Y-70568D01*
X29332Y-70583D01*
X29347Y-70597D01*
X29361Y-70625D01*
X29361Y-70697D01*
X29347Y-70725D01*
X29332Y-70740D01*
X29304Y-70754D01*
X29232Y-70754D01*
X29204Y-70740D01*
X29189Y-70725D01*
X107567Y-43242D02*
X107567Y-42942D01*
X107681Y-42942D01*
X107710Y-42956D01*
X107724Y-42971D01*
X107738Y-42999D01*
X107738Y-43042D01*
X107724Y-43071D01*
X107710Y-43085D01*
X107681Y-43099D01*
X107567Y-43099D01*
X107853Y-42971D02*
X107867Y-42956D01*
X107896Y-42942D01*
X107967Y-42942D01*
X107996Y-42956D01*
X108010Y-42971D01*
X108024Y-42999D01*
X108024Y-43028D01*
X108010Y-43071D01*
X107838Y-43242D01*
X108024Y-43242D01*
X108210Y-42942D02*
X108238Y-42942D01*
X108267Y-42956D01*
X108281Y-42971D01*
X108296Y-42999D01*
X108310Y-43056D01*
X108310Y-43128D01*
X108296Y-43185D01*
X108281Y-43213D01*
X108267Y-43228D01*
X108238Y-43242D01*
X108210Y-43242D01*
X108181Y-43228D01*
X108167Y-43213D01*
X108153Y-43185D01*
X108138Y-43128D01*
X108138Y-43056D01*
X108153Y-42999D01*
X108167Y-42971D01*
X108181Y-42956D01*
X108210Y-42942D01*
X25071Y-89371D02*
X25071Y-89071D01*
X25185Y-89071D01*
X25214Y-89085D01*
X25228Y-89100D01*
X25242Y-89128D01*
X25242Y-89171D01*
X25228Y-89200D01*
X25214Y-89214D01*
X25185Y-89228D01*
X25071Y-89228D01*
X25528Y-89371D02*
X25357Y-89371D01*
X25442Y-89371D02*
X25442Y-89071D01*
X25414Y-89114D01*
X25385Y-89142D01*
X25357Y-89157D01*
X25785Y-89171D02*
X25785Y-89371D01*
X25714Y-89057D02*
X25642Y-89271D01*
X25828Y-89271D01*
G54D18*
X106057Y-44556D02*
X106057Y-44156D01*
X106210Y-44156D01*
X106248Y-44176D01*
X106267Y-44195D01*
X106286Y-44233D01*
X106286Y-44290D01*
X106267Y-44328D01*
X106248Y-44347D01*
X106210Y-44366D01*
X106057Y-44366D01*
X106514Y-44328D02*
X106476Y-44309D01*
X106457Y-44290D01*
X106438Y-44252D01*
X106438Y-44233D01*
X106457Y-44195D01*
X106476Y-44176D01*
X106514Y-44156D01*
X106590Y-44156D01*
X106629Y-44176D01*
X106648Y-44195D01*
X106667Y-44233D01*
X106667Y-44252D01*
X106648Y-44290D01*
X106629Y-44309D01*
X106590Y-44328D01*
X106514Y-44328D01*
X106476Y-44347D01*
X106457Y-44366D01*
X106438Y-44404D01*
X106438Y-44480D01*
X106457Y-44518D01*
X106476Y-44537D01*
X106514Y-44556D01*
X106590Y-44556D01*
X106629Y-44537D01*
X106648Y-44518D01*
X106667Y-44480D01*
X106667Y-44404D01*
X106648Y-44366D01*
X106629Y-44347D01*
X106590Y-44328D01*
X129002Y-108195D02*
X129002Y-107795D01*
X129155Y-107795D01*
X129193Y-107814D01*
X129212Y-107833D01*
X129231Y-107871D01*
X129231Y-107928D01*
X129212Y-107966D01*
X129193Y-107985D01*
X129155Y-108004D01*
X129002Y-108004D01*
X129612Y-108195D02*
X129383Y-108195D01*
X129497Y-108195D02*
X129497Y-107795D01*
X129459Y-107852D01*
X129421Y-107890D01*
X129383Y-107909D01*
X129764Y-107833D02*
X129783Y-107814D01*
X129821Y-107795D01*
X129916Y-107795D01*
X129955Y-107814D01*
X129974Y-107833D01*
X129993Y-107871D01*
X129993Y-107909D01*
X129974Y-107966D01*
X129745Y-108195D01*
X129993Y-108195D01*
X132185Y-90181D02*
X132185Y-89781D01*
X132338Y-89781D01*
X132376Y-89800D01*
X132395Y-89819D01*
X132414Y-89857D01*
X132414Y-89914D01*
X132395Y-89953D01*
X132376Y-89972D01*
X132338Y-89991D01*
X132185Y-89991D01*
X132795Y-90181D02*
X132566Y-90181D01*
X132681Y-90181D02*
X132681Y-89781D01*
X132643Y-89838D01*
X132604Y-89876D01*
X132566Y-89895D01*
X133176Y-90181D02*
X132947Y-90181D01*
X133062Y-90181D02*
X133062Y-89781D01*
X133024Y-89838D01*
X132985Y-89876D01*
X132947Y-89895D01*
X129016Y-72165D02*
X129016Y-71765D01*
X129168Y-71765D01*
X129206Y-71784D01*
X129225Y-71803D01*
X129244Y-71841D01*
X129244Y-71898D01*
X129225Y-71936D01*
X129206Y-71955D01*
X129168Y-71975D01*
X129016Y-71975D01*
X129625Y-72165D02*
X129397Y-72165D01*
X129511Y-72165D02*
X129511Y-71765D01*
X129473Y-71822D01*
X129435Y-71860D01*
X129397Y-71879D01*
X129873Y-71765D02*
X129911Y-71765D01*
X129949Y-71784D01*
X129968Y-71803D01*
X129987Y-71841D01*
X130006Y-71917D01*
X130006Y-72013D01*
X129987Y-72089D01*
X129968Y-72127D01*
X129949Y-72146D01*
X129911Y-72165D01*
X129873Y-72165D01*
X129835Y-72146D01*
X129816Y-72127D01*
X129797Y-72089D01*
X129778Y-72013D01*
X129778Y-71917D01*
X129797Y-71841D01*
X129816Y-71803D01*
X129835Y-71784D01*
X129873Y-71765D01*
X120066Y-56320D02*
X120066Y-55920D01*
X120218Y-55920D01*
X120256Y-55939D01*
X120275Y-55958D01*
X120294Y-55996D01*
X120294Y-56053D01*
X120275Y-56091D01*
X120256Y-56110D01*
X120218Y-56129D01*
X120066Y-56129D01*
X120485Y-56320D02*
X120561Y-56320D01*
X120599Y-56301D01*
X120618Y-56282D01*
X120656Y-56224D01*
X120675Y-56148D01*
X120675Y-55996D01*
X120656Y-55958D01*
X120637Y-55939D01*
X120599Y-55920D01*
X120523Y-55920D01*
X120485Y-55939D01*
X120466Y-55958D01*
X120447Y-55996D01*
X120447Y-56091D01*
X120466Y-56129D01*
X120485Y-56148D01*
X120523Y-56167D01*
X120599Y-56167D01*
X120637Y-56148D01*
X120656Y-56129D01*
X120675Y-56091D01*
X88870Y-38294D02*
X88870Y-37894D01*
X89023Y-37894D01*
X89061Y-37913D01*
X89080Y-37932D01*
X89099Y-37970D01*
X89099Y-38027D01*
X89080Y-38065D01*
X89061Y-38084D01*
X89023Y-38103D01*
X88870Y-38103D01*
X89232Y-37894D02*
X89499Y-37894D01*
X89327Y-38294D01*
X70577Y-38287D02*
X70577Y-37887D01*
X70730Y-37887D01*
X70768Y-37906D01*
X70787Y-37925D01*
X70806Y-37963D01*
X70806Y-38020D01*
X70787Y-38058D01*
X70768Y-38077D01*
X70730Y-38096D01*
X70577Y-38096D01*
X71149Y-37887D02*
X71072Y-37887D01*
X71034Y-37906D01*
X71015Y-37925D01*
X70977Y-37982D01*
X70958Y-38058D01*
X70958Y-38210D01*
X70977Y-38249D01*
X70996Y-38268D01*
X71034Y-38287D01*
X71111Y-38287D01*
X71149Y-38268D01*
X71168Y-38249D01*
X71187Y-38210D01*
X71187Y-38115D01*
X71168Y-38077D01*
X71149Y-38058D01*
X71111Y-38039D01*
X71034Y-38039D01*
X70996Y-38058D01*
X70977Y-38077D01*
X70958Y-38115D01*
X53385Y-44537D02*
X53385Y-44137D01*
X53538Y-44137D01*
X53576Y-44156D01*
X53595Y-44175D01*
X53614Y-44213D01*
X53614Y-44270D01*
X53595Y-44308D01*
X53576Y-44327D01*
X53538Y-44346D01*
X53385Y-44346D01*
X53976Y-44137D02*
X53785Y-44137D01*
X53766Y-44327D01*
X53785Y-44308D01*
X53824Y-44289D01*
X53919Y-44289D01*
X53957Y-44308D01*
X53976Y-44327D01*
X53995Y-44365D01*
X53995Y-44461D01*
X53976Y-44499D01*
X53957Y-44518D01*
X53919Y-44537D01*
X53824Y-44537D01*
X53785Y-44518D01*
X53766Y-44499D01*
X39368Y-56290D02*
X39368Y-55890D01*
X39521Y-55890D01*
X39559Y-55909D01*
X39578Y-55928D01*
X39597Y-55966D01*
X39597Y-56023D01*
X39578Y-56061D01*
X39559Y-56080D01*
X39521Y-56099D01*
X39368Y-56099D01*
X39940Y-56023D02*
X39940Y-56290D01*
X39844Y-55870D02*
X39749Y-56156D01*
X39997Y-56156D01*
X30216Y-72128D02*
X30216Y-71728D01*
X30368Y-71728D01*
X30406Y-71747D01*
X30425Y-71766D01*
X30444Y-71804D01*
X30444Y-71861D01*
X30425Y-71899D01*
X30406Y-71918D01*
X30368Y-71938D01*
X30216Y-71938D01*
X30578Y-71728D02*
X30825Y-71728D01*
X30692Y-71880D01*
X30749Y-71880D01*
X30787Y-71899D01*
X30806Y-71918D01*
X30825Y-71957D01*
X30825Y-72052D01*
X30806Y-72090D01*
X30787Y-72109D01*
X30749Y-72128D01*
X30635Y-72128D01*
X30597Y-72109D01*
X30578Y-72090D01*
X27033Y-90142D02*
X27033Y-89742D01*
X27185Y-89742D01*
X27223Y-89761D01*
X27242Y-89780D01*
X27261Y-89818D01*
X27261Y-89875D01*
X27242Y-89913D01*
X27223Y-89932D01*
X27185Y-89951D01*
X27033Y-89951D01*
X27414Y-89780D02*
X27433Y-89761D01*
X27471Y-89742D01*
X27566Y-89742D01*
X27604Y-89761D01*
X27623Y-89780D01*
X27642Y-89818D01*
X27642Y-89856D01*
X27623Y-89913D01*
X27395Y-90142D01*
X27642Y-90142D01*
X30202Y-108158D02*
X30202Y-107758D01*
X30355Y-107758D01*
X30393Y-107777D01*
X30412Y-107796D01*
X30431Y-107834D01*
X30431Y-107891D01*
X30412Y-107929D01*
X30393Y-107948D01*
X30355Y-107967D01*
X30202Y-107967D01*
X30812Y-108158D02*
X30583Y-108158D01*
X30698Y-108158D02*
X30698Y-107758D01*
X30660Y-107815D01*
X30621Y-107853D01*
X30583Y-107872D01*
X28314Y-30761D02*
X28314Y-30361D01*
X28466Y-30361D01*
X28504Y-30380D01*
X28523Y-30400D01*
X28542Y-30438D01*
X28542Y-30495D01*
X28523Y-30533D01*
X28504Y-30552D01*
X28466Y-30571D01*
X28314Y-30571D01*
X28695Y-30400D02*
X28714Y-30380D01*
X28752Y-30361D01*
X28847Y-30361D01*
X28885Y-30380D01*
X28904Y-30400D01*
X28923Y-30438D01*
X28923Y-30476D01*
X28904Y-30533D01*
X28676Y-30761D01*
X28923Y-30761D01*
X29266Y-30361D02*
X29190Y-30361D01*
X29152Y-30380D01*
X29133Y-30400D01*
X29095Y-30457D01*
X29076Y-30533D01*
X29076Y-30685D01*
X29095Y-30723D01*
X29114Y-30742D01*
X29152Y-30761D01*
X29228Y-30761D01*
X29266Y-30742D01*
X29285Y-30723D01*
X29304Y-30685D01*
X29304Y-30590D01*
X29285Y-30552D01*
X29266Y-30533D01*
X29228Y-30514D01*
X29152Y-30514D01*
X29114Y-30533D01*
X29095Y-30552D01*
X29076Y-30590D01*
G54D12*
X78214Y-32885D02*
X78185Y-32914D01*
X78100Y-32942D01*
X78042Y-32942D01*
X77957Y-32914D01*
X77900Y-32857D01*
X77871Y-32799D01*
X77842Y-32685D01*
X77842Y-32599D01*
X77871Y-32485D01*
X77900Y-32428D01*
X77957Y-32371D01*
X78042Y-32342D01*
X78100Y-32342D01*
X78185Y-32371D01*
X78214Y-32399D01*
X78785Y-32942D02*
X78442Y-32942D01*
X78614Y-32942D02*
X78614Y-32342D01*
X78557Y-32428D01*
X78500Y-32485D01*
X78442Y-32514D01*
X79128Y-32599D02*
X79071Y-32571D01*
X79042Y-32542D01*
X79014Y-32485D01*
X79014Y-32457D01*
X79042Y-32399D01*
X79071Y-32371D01*
X79128Y-32342D01*
X79242Y-32342D01*
X79300Y-32371D01*
X79328Y-32399D01*
X79357Y-32457D01*
X79357Y-32485D01*
X79328Y-32542D01*
X79300Y-32571D01*
X79242Y-32599D01*
X79128Y-32599D01*
X79071Y-32628D01*
X79042Y-32657D01*
X79014Y-32714D01*
X79014Y-32828D01*
X79042Y-32885D01*
X79071Y-32914D01*
X79128Y-32942D01*
X79242Y-32942D01*
X79300Y-32914D01*
X79328Y-32885D01*
X79357Y-32828D01*
X79357Y-32714D01*
X79328Y-32657D01*
X79300Y-32628D01*
X79242Y-32599D01*
X23114Y-102185D02*
X23085Y-102214D01*
X23000Y-102242D01*
X22942Y-102242D01*
X22857Y-102214D01*
X22800Y-102157D01*
X22771Y-102099D01*
X22742Y-101985D01*
X22742Y-101899D01*
X22771Y-101785D01*
X22800Y-101728D01*
X22857Y-101671D01*
X22942Y-101642D01*
X23000Y-101642D01*
X23085Y-101671D01*
X23114Y-101699D01*
X23685Y-102242D02*
X23342Y-102242D01*
X23514Y-102242D02*
X23514Y-101642D01*
X23457Y-101728D01*
X23400Y-101785D01*
X23342Y-101814D01*
X23885Y-101642D02*
X24257Y-101642D01*
X24057Y-101871D01*
X24142Y-101871D01*
X24200Y-101899D01*
X24228Y-101928D01*
X24257Y-101985D01*
X24257Y-102128D01*
X24228Y-102185D01*
X24200Y-102214D01*
X24142Y-102242D01*
X23971Y-102242D01*
X23914Y-102214D01*
X23885Y-102185D01*
X22814Y-81685D02*
X22785Y-81714D01*
X22700Y-81742D01*
X22642Y-81742D01*
X22557Y-81714D01*
X22500Y-81657D01*
X22471Y-81600D01*
X22442Y-81485D01*
X22442Y-81400D01*
X22471Y-81285D01*
X22500Y-81228D01*
X22557Y-81171D01*
X22642Y-81142D01*
X22700Y-81142D01*
X22785Y-81171D01*
X22814Y-81200D01*
X23385Y-81742D02*
X23042Y-81742D01*
X23214Y-81742D02*
X23214Y-81142D01*
X23157Y-81228D01*
X23100Y-81285D01*
X23042Y-81314D01*
X23900Y-81342D02*
X23900Y-81742D01*
X23757Y-81114D02*
X23614Y-81542D01*
X23985Y-81542D01*
X29514Y-62485D02*
X29485Y-62514D01*
X29399Y-62542D01*
X29342Y-62542D01*
X29257Y-62514D01*
X29199Y-62457D01*
X29171Y-62399D01*
X29142Y-62285D01*
X29142Y-62199D01*
X29171Y-62085D01*
X29199Y-62028D01*
X29257Y-61971D01*
X29342Y-61942D01*
X29399Y-61942D01*
X29485Y-61971D01*
X29514Y-61999D01*
X30085Y-62542D02*
X29742Y-62542D01*
X29914Y-62542D02*
X29914Y-61942D01*
X29857Y-62028D01*
X29799Y-62085D01*
X29742Y-62114D01*
X30628Y-61942D02*
X30342Y-61942D01*
X30314Y-62228D01*
X30342Y-62199D01*
X30399Y-62171D01*
X30542Y-62171D01*
X30599Y-62199D01*
X30628Y-62228D01*
X30657Y-62285D01*
X30657Y-62428D01*
X30628Y-62485D01*
X30599Y-62514D01*
X30542Y-62542D01*
X30399Y-62542D01*
X30342Y-62514D01*
X30314Y-62485D01*
X41514Y-46885D02*
X41485Y-46914D01*
X41399Y-46942D01*
X41342Y-46942D01*
X41257Y-46914D01*
X41199Y-46857D01*
X41171Y-46800D01*
X41142Y-46685D01*
X41142Y-46600D01*
X41171Y-46485D01*
X41199Y-46428D01*
X41257Y-46371D01*
X41342Y-46342D01*
X41399Y-46342D01*
X41485Y-46371D01*
X41514Y-46400D01*
X42085Y-46942D02*
X41742Y-46942D01*
X41914Y-46942D02*
X41914Y-46342D01*
X41857Y-46428D01*
X41799Y-46485D01*
X41742Y-46514D01*
X42599Y-46342D02*
X42485Y-46342D01*
X42428Y-46371D01*
X42399Y-46400D01*
X42342Y-46485D01*
X42314Y-46600D01*
X42314Y-46828D01*
X42342Y-46885D01*
X42371Y-46914D01*
X42428Y-46942D01*
X42542Y-46942D01*
X42599Y-46914D01*
X42628Y-46885D01*
X42657Y-46828D01*
X42657Y-46685D01*
X42628Y-46628D01*
X42599Y-46600D01*
X42542Y-46571D01*
X42428Y-46571D01*
X42371Y-46600D01*
X42342Y-46628D01*
X42314Y-46685D01*
X58614Y-36685D02*
X58585Y-36714D01*
X58499Y-36742D01*
X58442Y-36742D01*
X58357Y-36714D01*
X58299Y-36657D01*
X58271Y-36599D01*
X58242Y-36485D01*
X58242Y-36399D01*
X58271Y-36285D01*
X58299Y-36228D01*
X58357Y-36171D01*
X58442Y-36142D01*
X58499Y-36142D01*
X58585Y-36171D01*
X58614Y-36199D01*
X59185Y-36742D02*
X58842Y-36742D01*
X59014Y-36742D02*
X59014Y-36142D01*
X58957Y-36228D01*
X58899Y-36285D01*
X58842Y-36314D01*
X59385Y-36142D02*
X59785Y-36142D01*
X59528Y-36742D01*
G54D18*
X29112Y-69923D02*
X29093Y-69942D01*
X29036Y-69962D01*
X28998Y-69962D01*
X28941Y-69942D01*
X28903Y-69904D01*
X28884Y-69866D01*
X28865Y-69790D01*
X28865Y-69733D01*
X28884Y-69657D01*
X28903Y-69619D01*
X28941Y-69581D01*
X28998Y-69562D01*
X29036Y-69562D01*
X29093Y-69581D01*
X29112Y-69600D01*
X29246Y-69562D02*
X29493Y-69562D01*
X29360Y-69714D01*
X29417Y-69714D01*
X29455Y-69733D01*
X29474Y-69752D01*
X29493Y-69790D01*
X29493Y-69885D01*
X29474Y-69923D01*
X29455Y-69942D01*
X29417Y-69962D01*
X29303Y-69962D01*
X29265Y-69942D01*
X29246Y-69923D01*
X28018Y-107316D02*
X27999Y-107335D01*
X27942Y-107354D01*
X27904Y-107354D01*
X27847Y-107335D01*
X27808Y-107297D01*
X27789Y-107259D01*
X27770Y-107183D01*
X27770Y-107126D01*
X27789Y-107050D01*
X27808Y-107011D01*
X27847Y-106973D01*
X27904Y-106954D01*
X27942Y-106954D01*
X27999Y-106973D01*
X28018Y-106992D01*
X28399Y-107354D02*
X28170Y-107354D01*
X28285Y-107354D02*
X28285Y-106954D01*
X28247Y-107011D01*
X28208Y-107050D01*
X28170Y-107069D01*
X25269Y-88523D02*
X25249Y-88542D01*
X25192Y-88561D01*
X25154Y-88561D01*
X25097Y-88542D01*
X25059Y-88504D01*
X25040Y-88466D01*
X25021Y-88390D01*
X25021Y-88333D01*
X25040Y-88257D01*
X25059Y-88219D01*
X25097Y-88180D01*
X25154Y-88161D01*
X25192Y-88161D01*
X25249Y-88180D01*
X25269Y-88200D01*
X25421Y-88200D02*
X25440Y-88180D01*
X25478Y-88161D01*
X25573Y-88161D01*
X25611Y-88180D01*
X25630Y-88200D01*
X25649Y-88238D01*
X25649Y-88276D01*
X25630Y-88333D01*
X25402Y-88561D01*
X25649Y-88561D01*
X131657Y-72930D02*
X131638Y-72949D01*
X131581Y-72968D01*
X131543Y-72968D01*
X131486Y-72949D01*
X131448Y-72911D01*
X131429Y-72873D01*
X131410Y-72797D01*
X131410Y-72740D01*
X131429Y-72664D01*
X131448Y-72626D01*
X131486Y-72588D01*
X131543Y-72568D01*
X131581Y-72568D01*
X131638Y-72588D01*
X131657Y-72607D01*
X132038Y-72968D02*
X131810Y-72968D01*
X131924Y-72968D02*
X131924Y-72568D01*
X131886Y-72626D01*
X131848Y-72664D01*
X131810Y-72683D01*
X132286Y-72568D02*
X132324Y-72568D01*
X132362Y-72588D01*
X132381Y-72607D01*
X132400Y-72645D01*
X132419Y-72721D01*
X132419Y-72816D01*
X132400Y-72892D01*
X132381Y-72930D01*
X132362Y-72949D01*
X132324Y-72968D01*
X132286Y-72968D01*
X132248Y-72949D01*
X132229Y-72930D01*
X132210Y-72892D01*
X132191Y-72816D01*
X132191Y-72721D01*
X132210Y-72645D01*
X132229Y-72607D01*
X132248Y-72588D01*
X132286Y-72568D01*
X39086Y-53760D02*
X39067Y-53779D01*
X39010Y-53798D01*
X38972Y-53798D01*
X38915Y-53779D01*
X38876Y-53741D01*
X38857Y-53703D01*
X38838Y-53627D01*
X38838Y-53570D01*
X38857Y-53494D01*
X38876Y-53456D01*
X38915Y-53417D01*
X38972Y-53398D01*
X39010Y-53398D01*
X39067Y-53417D01*
X39086Y-53436D01*
X39429Y-53532D02*
X39429Y-53798D01*
X39334Y-53379D02*
X39238Y-53665D01*
X39486Y-53665D01*
X53986Y-41983D02*
X53967Y-42002D01*
X53910Y-42021D01*
X53872Y-42021D01*
X53815Y-42002D01*
X53777Y-41964D01*
X53758Y-41926D01*
X53739Y-41849D01*
X53739Y-41792D01*
X53758Y-41716D01*
X53777Y-41678D01*
X53815Y-41640D01*
X53872Y-41621D01*
X53910Y-41621D01*
X53967Y-41640D01*
X53986Y-41659D01*
X54348Y-41621D02*
X54158Y-41621D01*
X54139Y-41811D01*
X54158Y-41792D01*
X54196Y-41773D01*
X54291Y-41773D01*
X54329Y-41792D01*
X54348Y-41811D01*
X54367Y-41849D01*
X54367Y-41945D01*
X54348Y-41983D01*
X54329Y-42002D01*
X54291Y-42021D01*
X54196Y-42021D01*
X54158Y-42002D01*
X54139Y-41983D01*
X72016Y-36012D02*
X71997Y-36031D01*
X71940Y-36050D01*
X71902Y-36050D01*
X71845Y-36031D01*
X71807Y-35993D01*
X71788Y-35954D01*
X71769Y-35878D01*
X71769Y-35821D01*
X71788Y-35745D01*
X71807Y-35707D01*
X71845Y-35669D01*
X71902Y-35650D01*
X71940Y-35650D01*
X71997Y-35669D01*
X72016Y-35688D01*
X72359Y-35650D02*
X72283Y-35650D01*
X72245Y-35669D01*
X72226Y-35688D01*
X72188Y-35745D01*
X72169Y-35821D01*
X72169Y-35974D01*
X72188Y-36012D01*
X72207Y-36031D01*
X72245Y-36050D01*
X72321Y-36050D01*
X72359Y-36031D01*
X72378Y-36012D01*
X72397Y-35974D01*
X72397Y-35878D01*
X72378Y-35840D01*
X72359Y-35821D01*
X72321Y-35802D01*
X72245Y-35802D01*
X72207Y-35821D01*
X72188Y-35840D01*
X72169Y-35878D01*
X91001Y-36567D02*
X90982Y-36586D01*
X90925Y-36605D01*
X90887Y-36605D01*
X90829Y-36586D01*
X90791Y-36548D01*
X90772Y-36510D01*
X90753Y-36434D01*
X90753Y-36377D01*
X90772Y-36301D01*
X90791Y-36263D01*
X90829Y-36224D01*
X90887Y-36205D01*
X90925Y-36205D01*
X90982Y-36224D01*
X91001Y-36243D01*
X91134Y-36205D02*
X91401Y-36205D01*
X91229Y-36605D01*
X130563Y-110323D02*
X130544Y-110342D01*
X130486Y-110361D01*
X130448Y-110361D01*
X130391Y-110342D01*
X130353Y-110304D01*
X130334Y-110266D01*
X130315Y-110190D01*
X130315Y-110133D01*
X130334Y-110057D01*
X130353Y-110018D01*
X130391Y-109980D01*
X130448Y-109961D01*
X130486Y-109961D01*
X130544Y-109980D01*
X130563Y-109999D01*
X130944Y-110361D02*
X130715Y-110361D01*
X130829Y-110361D02*
X130829Y-109961D01*
X130791Y-110018D01*
X130753Y-110057D01*
X130715Y-110076D01*
X131096Y-109999D02*
X131115Y-109980D01*
X131153Y-109961D01*
X131248Y-109961D01*
X131286Y-109980D01*
X131306Y-109999D01*
X131325Y-110037D01*
X131325Y-110076D01*
X131306Y-110133D01*
X131077Y-110361D01*
X131325Y-110361D01*
X108651Y-43583D02*
X108632Y-43602D01*
X108574Y-43621D01*
X108536Y-43621D01*
X108479Y-43602D01*
X108441Y-43564D01*
X108422Y-43526D01*
X108403Y-43449D01*
X108403Y-43392D01*
X108422Y-43316D01*
X108441Y-43278D01*
X108479Y-43240D01*
X108536Y-43221D01*
X108574Y-43221D01*
X108632Y-43240D01*
X108651Y-43259D01*
X108879Y-43392D02*
X108841Y-43373D01*
X108822Y-43354D01*
X108803Y-43316D01*
X108803Y-43297D01*
X108822Y-43259D01*
X108841Y-43240D01*
X108879Y-43221D01*
X108955Y-43221D01*
X108994Y-43240D01*
X109013Y-43259D01*
X109032Y-43297D01*
X109032Y-43316D01*
X109013Y-43354D01*
X108994Y-43373D01*
X108955Y-43392D01*
X108879Y-43392D01*
X108841Y-43411D01*
X108822Y-43430D01*
X108803Y-43468D01*
X108803Y-43545D01*
X108822Y-43583D01*
X108841Y-43602D01*
X108879Y-43621D01*
X108955Y-43621D01*
X108994Y-43602D01*
X109013Y-43583D01*
X109032Y-43545D01*
X109032Y-43468D01*
X109013Y-43430D01*
X108994Y-43411D01*
X108955Y-43392D01*
X134407Y-91723D02*
X134387Y-91742D01*
X134330Y-91761D01*
X134292Y-91761D01*
X134235Y-91742D01*
X134197Y-91704D01*
X134178Y-91666D01*
X134159Y-91590D01*
X134159Y-91533D01*
X134178Y-91457D01*
X134197Y-91419D01*
X134235Y-91380D01*
X134292Y-91361D01*
X134330Y-91361D01*
X134387Y-91380D01*
X134407Y-91400D01*
X134787Y-91761D02*
X134559Y-91761D01*
X134673Y-91761D02*
X134673Y-91361D01*
X134635Y-91419D01*
X134597Y-91457D01*
X134559Y-91476D01*
X135168Y-91761D02*
X134940Y-91761D01*
X135054Y-91761D02*
X135054Y-91361D01*
X135016Y-91419D01*
X134978Y-91457D01*
X134940Y-91476D01*
X122836Y-56211D02*
X122817Y-56230D01*
X122760Y-56249D01*
X122722Y-56249D01*
X122665Y-56230D01*
X122627Y-56192D01*
X122608Y-56154D01*
X122589Y-56078D01*
X122589Y-56021D01*
X122608Y-55945D01*
X122627Y-55907D01*
X122665Y-55868D01*
X122722Y-55849D01*
X122760Y-55849D01*
X122817Y-55868D01*
X122836Y-55888D01*
X123027Y-56249D02*
X123103Y-56249D01*
X123141Y-56230D01*
X123160Y-56211D01*
X123198Y-56154D01*
X123217Y-56078D01*
X123217Y-55926D01*
X123198Y-55888D01*
X123179Y-55868D01*
X123141Y-55849D01*
X123065Y-55849D01*
X123027Y-55868D01*
X123008Y-55888D01*
X122989Y-55926D01*
X122989Y-56021D01*
X123008Y-56059D01*
X123027Y-56078D01*
X123065Y-56097D01*
X123141Y-56097D01*
X123179Y-56078D01*
X123198Y-56059D01*
X123217Y-56021D01*
X37814Y-28461D02*
X37814Y-28061D01*
X37966Y-28061D01*
X38004Y-28080D01*
X38023Y-28100D01*
X38042Y-28138D01*
X38042Y-28195D01*
X38023Y-28233D01*
X38004Y-28252D01*
X37966Y-28271D01*
X37814Y-28271D01*
X38195Y-28100D02*
X38214Y-28080D01*
X38252Y-28061D01*
X38347Y-28061D01*
X38385Y-28080D01*
X38404Y-28100D01*
X38423Y-28138D01*
X38423Y-28176D01*
X38404Y-28233D01*
X38176Y-28461D01*
X38423Y-28461D01*
X38557Y-28061D02*
X38823Y-28061D01*
X38652Y-28461D01*
G54D12*
X97814Y-35985D02*
X97785Y-36014D01*
X97700Y-36042D01*
X97642Y-36042D01*
X97557Y-36014D01*
X97500Y-35957D01*
X97471Y-35899D01*
X97442Y-35785D01*
X97442Y-35699D01*
X97471Y-35585D01*
X97500Y-35528D01*
X97557Y-35471D01*
X97642Y-35442D01*
X97700Y-35442D01*
X97785Y-35471D01*
X97814Y-35499D01*
X98385Y-36042D02*
X98042Y-36042D01*
X98214Y-36042D02*
X98214Y-35442D01*
X98157Y-35528D01*
X98100Y-35585D01*
X98042Y-35614D01*
X98671Y-36042D02*
X98785Y-36042D01*
X98842Y-36014D01*
X98871Y-35985D01*
X98928Y-35899D01*
X98957Y-35785D01*
X98957Y-35557D01*
X98928Y-35499D01*
X98900Y-35471D01*
X98842Y-35442D01*
X98728Y-35442D01*
X98671Y-35471D01*
X98642Y-35499D01*
X98614Y-35557D01*
X98614Y-35699D01*
X98642Y-35757D01*
X98671Y-35785D01*
X98728Y-35814D01*
X98842Y-35814D01*
X98900Y-35785D01*
X98928Y-35757D01*
X98957Y-35699D01*
X115214Y-45385D02*
X115185Y-45414D01*
X115100Y-45442D01*
X115042Y-45442D01*
X114957Y-45414D01*
X114900Y-45357D01*
X114871Y-45300D01*
X114842Y-45185D01*
X114842Y-45100D01*
X114871Y-44985D01*
X114900Y-44928D01*
X114957Y-44871D01*
X115042Y-44842D01*
X115100Y-44842D01*
X115185Y-44871D01*
X115214Y-44900D01*
X115442Y-44900D02*
X115471Y-44871D01*
X115528Y-44842D01*
X115671Y-44842D01*
X115728Y-44871D01*
X115757Y-44900D01*
X115785Y-44957D01*
X115785Y-45014D01*
X115757Y-45100D01*
X115414Y-45442D01*
X115785Y-45442D01*
X116157Y-44842D02*
X116214Y-44842D01*
X116271Y-44871D01*
X116300Y-44900D01*
X116328Y-44957D01*
X116357Y-45071D01*
X116357Y-45214D01*
X116328Y-45328D01*
X116300Y-45385D01*
X116271Y-45414D01*
X116214Y-45442D01*
X116157Y-45442D01*
X116100Y-45414D01*
X116071Y-45385D01*
X116042Y-45328D01*
X116014Y-45214D01*
X116014Y-45071D01*
X116042Y-44957D01*
X116071Y-44900D01*
X116100Y-44871D01*
X116157Y-44842D01*
X128514Y-60385D02*
X128485Y-60414D01*
X128400Y-60442D01*
X128342Y-60442D01*
X128257Y-60414D01*
X128200Y-60357D01*
X128171Y-60299D01*
X128142Y-60185D01*
X128142Y-60099D01*
X128171Y-59985D01*
X128200Y-59928D01*
X128257Y-59871D01*
X128342Y-59842D01*
X128400Y-59842D01*
X128485Y-59871D01*
X128514Y-59899D01*
X128742Y-59899D02*
X128771Y-59871D01*
X128828Y-59842D01*
X128971Y-59842D01*
X129028Y-59871D01*
X129057Y-59899D01*
X129085Y-59957D01*
X129085Y-60014D01*
X129057Y-60099D01*
X128714Y-60442D01*
X129085Y-60442D01*
X129657Y-60442D02*
X129314Y-60442D01*
X129485Y-60442D02*
X129485Y-59842D01*
X129428Y-59928D01*
X129371Y-59985D01*
X129314Y-60014D01*
X135514Y-79185D02*
X135485Y-79214D01*
X135400Y-79242D01*
X135343Y-79242D01*
X135257Y-79214D01*
X135200Y-79157D01*
X135171Y-79100D01*
X135143Y-78985D01*
X135143Y-78900D01*
X135171Y-78785D01*
X135200Y-78728D01*
X135257Y-78671D01*
X135343Y-78642D01*
X135400Y-78642D01*
X135485Y-78671D01*
X135514Y-78700D01*
X135743Y-78700D02*
X135771Y-78671D01*
X135828Y-78642D01*
X135971Y-78642D01*
X136028Y-78671D01*
X136057Y-78700D01*
X136085Y-78757D01*
X136085Y-78814D01*
X136057Y-78900D01*
X135714Y-79242D01*
X136085Y-79242D01*
X136314Y-78700D02*
X136343Y-78671D01*
X136400Y-78642D01*
X136543Y-78642D01*
X136600Y-78671D01*
X136628Y-78700D01*
X136657Y-78757D01*
X136657Y-78814D01*
X136628Y-78900D01*
X136285Y-79242D01*
X136657Y-79242D01*
X135814Y-99385D02*
X135785Y-99414D01*
X135700Y-99442D01*
X135643Y-99442D01*
X135557Y-99414D01*
X135500Y-99357D01*
X135471Y-99299D01*
X135443Y-99185D01*
X135443Y-99099D01*
X135471Y-98985D01*
X135500Y-98928D01*
X135557Y-98871D01*
X135643Y-98842D01*
X135700Y-98842D01*
X135785Y-98871D01*
X135814Y-98899D01*
X136043Y-98899D02*
X136071Y-98871D01*
X136128Y-98842D01*
X136271Y-98842D01*
X136328Y-98871D01*
X136357Y-98899D01*
X136385Y-98957D01*
X136385Y-99014D01*
X136357Y-99099D01*
X136014Y-99442D01*
X136385Y-99442D01*
X136585Y-98842D02*
X136957Y-98842D01*
X136757Y-99071D01*
X136843Y-99071D01*
X136900Y-99099D01*
X136928Y-99128D01*
X136957Y-99185D01*
X136957Y-99328D01*
X136928Y-99385D01*
X136900Y-99414D01*
X136843Y-99442D01*
X136671Y-99442D01*
X136614Y-99414D01*
X136585Y-99385D01*
M02*
