M48
;DRILL file {Pcbnew (2013-mar-13)-testing} date Wed 23 Jul 2014 10:13:09 AM PDT
;FORMAT={2:4/ absolute / inch / suppress trailing zeros}
FMAT,2
INCH,LZ
T1C0.020
T2C0.040
%
G90
G05
M72
T1
X021504Y-020798
X021549Y-027561
X022089Y-020814
X0223Y-022717
X022332Y-030053
X022426Y-029198
X022667Y-023084
X02281Y-022682
X02281Y-023973
X022868Y-020079
X02296Y-020539
X02325Y-023303
X023409Y-024448
X023545Y-023699
X02376Y-030183
X02382Y-020819
X02388Y-026551
X024144Y-032497
X02419Y-020334
X02456Y-025901
X024568Y-020359
X024587Y-030531
X024705Y-031654
X024744Y-032146
X025144Y-027174
X025172Y-029894
X025176Y-027668
X025269Y-032304
X025315Y-032712
X025364Y-024475
X025645Y-021655
X025664Y-029665
X025672Y-028347
X025731Y-024088
X025739Y-022492
X025739Y-02359
X025906Y-02937
X026121Y-022475
X026174Y-021734
X026218Y-027575
X027125Y-024571
X027278Y-020535
X027339Y-02926
X027801Y-02185
X027924Y-020871
X029486Y-022331
X029586Y-028618
X029657Y-029277
X029802Y-022603
X029876Y-022058
X029883Y-028155
X030217Y-025787
X030315Y-025098
X030616Y-027125
X030685Y-023704
X030737Y-033465
X030843Y-030011
X030917Y-03226
X030998Y-019916
X031046Y-020943
X031408Y-020777
X031646Y-02479
X03205Y-020985
X032271Y-02768
X032283Y-021376
X032504Y-023309
X032663Y-021512
X032764Y-026024
X032798Y-022669
X032798Y-023601
X032967Y-028347
X033036Y-022015
X033118Y-027779
X033784Y-021261
T2
X020669Y-020122
X020669Y-021122
X020669Y-022122
X020669Y-023122
X020669Y-024122
X020669Y-025122
X020669Y-026122
X020669Y-027122
X020669Y-027996
X020669Y-028996
X020669Y-029996
X020669Y-030996
X020669Y-031996
X020669Y-032996
X020669Y-033996
X020669Y-034996
X021744Y-0245
X021744Y-0255
X021744Y-030799
X021744Y-031799
X022744Y-0245
X022744Y-0255
X022744Y-030799
X022744Y-031799
X026575Y-020122
X026575Y-021122
X026575Y-022122
X026575Y-023122
X026575Y-024122
X026575Y-025122
X026575Y-026122
X026575Y-027122
X026575Y-027996
X026575Y-028996
X026575Y-029996
X026575Y-030996
X026575Y-031996
X026575Y-032996
X026575Y-033996
X026575Y-034996
X028543Y-020122
X028543Y-021122
X028543Y-022122
X028543Y-023122
X028543Y-024122
X028543Y-025122
X028543Y-026122
X028543Y-027122
X028543Y-027996
X028543Y-028996
X028543Y-029996
X028543Y-030996
X028543Y-031996
X028543Y-032996
X028543Y-033996
X028543Y-034996
X032374Y-0245
X032374Y-0255
X032374Y-030799
X032374Y-031799
X033374Y-0245
X033374Y-0255
X033374Y-030799
X033374Y-031799
X034449Y-020122
X034449Y-021122
X034449Y-022122
X034449Y-023122
X034449Y-024122
X034449Y-025122
X034449Y-026122
X034449Y-027122
X034449Y-027996
X034449Y-028996
X034449Y-029996
X034449Y-030996
X034449Y-031996
X034449Y-032996
X034449Y-033996
X034449Y-034996
T0
M30
