G04 (created by PCBNEW (2013-mar-13)-testing) date Wed 23 Jul 2014 10:13:11 AM PDT*
%MOIN*%
G04 Gerber Fmt 3.4, Leading zero omitted, Abs format*
%FSLAX34Y34*%
G01*
G70*
G90*
G04 APERTURE LIST*
%ADD10C,0.005906*%
%ADD11R,0.045000X0.025000*%
%ADD12C,0.065000*%
%ADD13R,0.051200X0.019700*%
%ADD14R,0.030000X0.010000*%
%ADD15R,0.010000X0.030000*%
%ADD16R,0.118100X0.118100*%
%ADD17R,0.025000X0.045000*%
%ADD18R,0.060000X0.060000*%
%ADD19C,0.060000*%
%ADD20C,0.030000*%
%ADD21C,0.007000*%
G04 APERTURE END LIST*
G54D10*
G54D11*
X24212Y-24896D03*
X24212Y-25496D03*
G54D12*
X20669Y-20122D03*
X20669Y-21122D03*
X20669Y-22122D03*
X20669Y-23122D03*
X20669Y-24122D03*
X20669Y-25122D03*
X20669Y-26122D03*
X20669Y-27122D03*
X26574Y-27122D03*
X26574Y-26122D03*
X26574Y-25122D03*
X26574Y-24122D03*
X26574Y-23122D03*
X26574Y-22122D03*
X26574Y-21122D03*
X26574Y-20122D03*
X20669Y-27996D03*
X20669Y-28996D03*
X20669Y-29996D03*
X20669Y-30996D03*
X20669Y-31996D03*
X20669Y-32996D03*
X20669Y-33996D03*
X20669Y-34996D03*
X26574Y-34996D03*
X26574Y-33996D03*
X26574Y-32996D03*
X26574Y-31996D03*
X26574Y-30996D03*
X26574Y-29996D03*
X26574Y-28996D03*
X26574Y-27996D03*
X28543Y-20122D03*
X28543Y-21122D03*
X28543Y-22122D03*
X28543Y-23122D03*
X28543Y-24122D03*
X28543Y-25122D03*
X28543Y-26122D03*
X28543Y-27122D03*
X34448Y-27122D03*
X34448Y-26122D03*
X34448Y-25122D03*
X34448Y-24122D03*
X34448Y-23122D03*
X34448Y-22122D03*
X34448Y-21122D03*
X34448Y-20122D03*
X28543Y-27996D03*
X28543Y-28996D03*
X28543Y-29996D03*
X28543Y-30996D03*
X28543Y-31996D03*
X28543Y-32996D03*
X28543Y-33996D03*
X28543Y-34996D03*
X34448Y-34996D03*
X34448Y-33996D03*
X34448Y-32996D03*
X34448Y-31996D03*
X34448Y-30996D03*
X34448Y-29996D03*
X34448Y-28996D03*
X34448Y-27996D03*
G54D13*
X25590Y-25295D03*
X25590Y-24823D03*
X25590Y-25767D03*
X25492Y-31496D03*
X25492Y-31024D03*
X25492Y-31968D03*
X31003Y-25295D03*
X31003Y-25767D03*
X31003Y-24823D03*
X31102Y-31397D03*
X31102Y-31869D03*
X31102Y-30925D03*
G54D11*
X24015Y-31294D03*
X24015Y-31894D03*
G54D14*
X23228Y-22834D03*
X23228Y-22637D03*
X23228Y-22440D03*
X23228Y-23031D03*
G54D15*
X23523Y-23326D03*
X23720Y-23326D03*
X23917Y-23326D03*
X24114Y-23326D03*
X24310Y-23326D03*
X24507Y-23326D03*
X24704Y-23326D03*
X24901Y-23326D03*
G54D14*
X25196Y-21653D03*
X25196Y-23031D03*
X25196Y-22834D03*
X25196Y-22637D03*
X25196Y-22440D03*
X25196Y-22244D03*
X25196Y-22047D03*
X25196Y-21850D03*
G54D15*
X24901Y-21358D03*
X24704Y-21358D03*
X24507Y-21358D03*
X24310Y-21358D03*
X24114Y-21358D03*
X23917Y-21358D03*
X23720Y-21358D03*
X23523Y-21358D03*
G54D14*
X23228Y-21653D03*
X23228Y-21850D03*
X23228Y-22047D03*
X23228Y-22244D03*
G54D16*
X24212Y-22342D03*
G54D14*
X23228Y-29133D03*
X23228Y-28936D03*
X23228Y-28739D03*
X23228Y-29330D03*
G54D15*
X23523Y-29625D03*
X23720Y-29625D03*
X23917Y-29625D03*
X24114Y-29625D03*
X24310Y-29625D03*
X24507Y-29625D03*
X24704Y-29625D03*
X24901Y-29625D03*
G54D14*
X25196Y-27952D03*
X25196Y-29330D03*
X25196Y-29133D03*
X25196Y-28936D03*
X25196Y-28739D03*
X25196Y-28543D03*
X25196Y-28346D03*
X25196Y-28149D03*
G54D15*
X24901Y-27657D03*
X24704Y-27657D03*
X24507Y-27657D03*
X24310Y-27657D03*
X24114Y-27657D03*
X23917Y-27657D03*
X23720Y-27657D03*
X23523Y-27657D03*
G54D14*
X23228Y-27952D03*
X23228Y-28149D03*
X23228Y-28346D03*
X23228Y-28543D03*
G54D16*
X24212Y-28641D03*
G54D14*
X30315Y-22834D03*
X30315Y-22637D03*
X30315Y-22440D03*
X30315Y-23031D03*
G54D15*
X30610Y-23326D03*
X30807Y-23326D03*
X31004Y-23326D03*
X31201Y-23326D03*
X31397Y-23326D03*
X31594Y-23326D03*
X31791Y-23326D03*
X31988Y-23326D03*
G54D14*
X32283Y-21653D03*
X32283Y-23031D03*
X32283Y-22834D03*
X32283Y-22637D03*
X32283Y-22440D03*
X32283Y-22244D03*
X32283Y-22047D03*
X32283Y-21850D03*
G54D15*
X31988Y-21358D03*
X31791Y-21358D03*
X31594Y-21358D03*
X31397Y-21358D03*
X31201Y-21358D03*
X31004Y-21358D03*
X30807Y-21358D03*
X30610Y-21358D03*
G54D14*
X30315Y-21653D03*
X30315Y-21850D03*
X30315Y-22047D03*
X30315Y-22244D03*
G54D16*
X31299Y-22342D03*
G54D14*
X30315Y-29133D03*
X30315Y-28936D03*
X30315Y-28739D03*
X30315Y-29330D03*
G54D15*
X30610Y-29625D03*
X30807Y-29625D03*
X31004Y-29625D03*
X31201Y-29625D03*
X31397Y-29625D03*
X31594Y-29625D03*
X31791Y-29625D03*
X31988Y-29625D03*
G54D14*
X32283Y-27952D03*
X32283Y-29330D03*
X32283Y-29133D03*
X32283Y-28936D03*
X32283Y-28739D03*
X32283Y-28543D03*
X32283Y-28346D03*
X32283Y-28149D03*
G54D15*
X31988Y-27657D03*
X31791Y-27657D03*
X31594Y-27657D03*
X31397Y-27657D03*
X31201Y-27657D03*
X31004Y-27657D03*
X30807Y-27657D03*
X30610Y-27657D03*
G54D14*
X30315Y-27952D03*
X30315Y-28149D03*
X30315Y-28346D03*
X30315Y-28543D03*
G54D16*
X31299Y-28641D03*
G54D11*
X29724Y-24798D03*
X29724Y-25398D03*
G54D17*
X30802Y-32972D03*
X31402Y-32972D03*
X33066Y-32972D03*
X33666Y-32972D03*
X33066Y-33858D03*
X33666Y-33858D03*
X33066Y-34744D03*
X33666Y-34744D03*
G54D11*
X33661Y-27259D03*
X33661Y-27859D03*
G54D17*
X29925Y-34940D03*
X29325Y-34940D03*
X29925Y-33956D03*
X29325Y-33956D03*
X29827Y-32972D03*
X29227Y-32972D03*
G54D11*
X29429Y-31491D03*
X29429Y-32091D03*
G54D17*
X33066Y-26476D03*
X33666Y-26476D03*
G54D11*
X33661Y-23233D03*
X33661Y-22633D03*
X33661Y-19975D03*
X33661Y-20575D03*
G54D17*
X29522Y-20078D03*
X30122Y-20078D03*
X27259Y-27559D03*
X27859Y-27559D03*
X27259Y-26476D03*
X27859Y-26476D03*
X27259Y-25295D03*
X27859Y-25295D03*
X27259Y-24114D03*
X27859Y-24114D03*
X25290Y-34940D03*
X25890Y-34940D03*
X25290Y-34055D03*
X25890Y-34055D03*
X25290Y-33169D03*
X25890Y-33169D03*
X27859Y-28740D03*
X27259Y-28740D03*
X23922Y-34842D03*
X23322Y-34842D03*
X23922Y-33858D03*
X23322Y-33858D03*
X22347Y-33858D03*
X21747Y-33858D03*
X22347Y-32874D03*
X21747Y-32874D03*
X27859Y-23228D03*
X27259Y-23228D03*
X27859Y-22342D03*
X27259Y-22342D03*
X27859Y-21358D03*
X27259Y-21358D03*
X27859Y-20078D03*
X27259Y-20078D03*
X22051Y-20078D03*
X21451Y-20078D03*
X22051Y-26476D03*
X21451Y-26476D03*
X23823Y-20078D03*
X23223Y-20078D03*
X25290Y-20078D03*
X25890Y-20078D03*
X31402Y-33956D03*
X30802Y-33956D03*
X32180Y-20078D03*
X32780Y-20078D03*
G54D11*
X21456Y-28548D03*
X21456Y-27948D03*
G54D17*
X22928Y-26476D03*
X23528Y-26476D03*
G54D18*
X21744Y-24500D03*
G54D19*
X21744Y-25500D03*
X22744Y-24500D03*
X22744Y-25500D03*
G54D18*
X21744Y-30799D03*
G54D19*
X21744Y-31799D03*
X22744Y-30799D03*
X22744Y-31799D03*
G54D18*
X32374Y-24500D03*
G54D19*
X32374Y-25500D03*
X33374Y-24500D03*
X33374Y-25500D03*
G54D18*
X32374Y-30799D03*
G54D19*
X32374Y-31799D03*
X33374Y-30799D03*
X33374Y-31799D03*
G54D20*
X30314Y-25098D03*
X30216Y-25787D03*
X23879Y-26550D03*
X24560Y-25900D03*
X21548Y-27560D03*
X30736Y-33464D03*
X21503Y-20798D03*
X22810Y-23972D03*
X22332Y-30052D03*
X29876Y-22057D03*
X29883Y-28154D03*
X23408Y-24447D03*
X22425Y-29198D03*
X29486Y-22330D03*
X29585Y-28618D03*
X25738Y-22491D03*
X25738Y-23589D03*
X24744Y-32145D03*
X25905Y-29370D03*
X26121Y-22474D03*
X27124Y-24571D03*
X26173Y-21733D03*
X25672Y-28346D03*
X33035Y-22014D03*
X32967Y-28346D03*
X32270Y-27679D03*
X25176Y-27667D03*
X25731Y-24088D03*
X25644Y-21654D03*
X32283Y-21376D03*
X26217Y-27575D03*
X33783Y-21260D03*
X27924Y-20870D03*
X32764Y-26024D03*
X31407Y-20776D03*
X29802Y-22602D03*
X22299Y-22716D03*
X29656Y-29276D03*
X24567Y-20358D03*
X22810Y-22682D03*
X24189Y-20334D03*
X22666Y-23083D03*
X22868Y-20078D03*
X23250Y-23302D03*
X27278Y-20534D03*
X23545Y-23699D03*
X27339Y-29260D03*
X23760Y-30182D03*
X31045Y-20942D03*
X30684Y-23704D03*
X33117Y-27779D03*
X30842Y-30011D03*
X27801Y-21850D03*
X25364Y-24475D03*
X25314Y-32712D03*
X25171Y-29894D03*
X32663Y-21512D03*
X32503Y-23308D03*
X25269Y-32304D03*
X25663Y-29664D03*
X32797Y-23601D03*
X32797Y-22668D03*
X25143Y-27173D03*
X23820Y-20818D03*
X31645Y-24789D03*
X32050Y-20984D03*
X24586Y-30531D03*
X24704Y-31653D03*
X24144Y-32496D03*
X30616Y-27125D03*
X30917Y-32260D03*
X30997Y-19916D03*
X22088Y-20813D03*
X22959Y-20538D03*
G54D21*
X31397Y-27657D02*
X31397Y-26968D01*
X30216Y-25000D02*
X30216Y-24798D01*
X30314Y-25098D02*
X30216Y-25000D01*
X31397Y-26968D02*
X30216Y-25787D01*
X31201Y-23326D02*
X31201Y-23818D01*
X30221Y-24798D02*
X30216Y-24798D01*
X30216Y-24798D02*
X29724Y-24798D01*
X31201Y-23818D02*
X30221Y-24798D01*
X24704Y-21358D02*
X24704Y-21578D01*
X24114Y-23326D02*
X24114Y-23581D01*
X23528Y-26476D02*
X23758Y-26476D01*
X23807Y-26525D02*
X23856Y-26574D01*
X23807Y-26525D02*
X23807Y-26525D01*
X23758Y-26476D02*
X23807Y-26525D01*
X31397Y-27657D02*
X31397Y-27402D01*
X24212Y-24896D02*
X24212Y-24666D01*
X23856Y-26574D02*
X23879Y-26550D01*
X31201Y-29625D02*
X31201Y-29880D01*
X24356Y-25126D02*
X24212Y-25126D01*
X24560Y-25330D02*
X24356Y-25126D01*
X24560Y-25900D02*
X24560Y-25330D01*
X24212Y-24896D02*
X24212Y-25126D01*
X24507Y-23326D02*
X24507Y-23581D01*
X24310Y-21546D02*
X24310Y-21358D01*
X24377Y-21613D02*
X24310Y-21546D01*
X24669Y-21613D02*
X24377Y-21613D01*
X24704Y-21578D02*
X24669Y-21613D01*
X24507Y-23326D02*
X24507Y-23071D01*
X24838Y-23071D02*
X24507Y-23071D01*
X24908Y-23002D02*
X24838Y-23071D01*
X24908Y-21702D02*
X24908Y-23002D01*
X24819Y-21613D02*
X24908Y-21702D01*
X24739Y-21613D02*
X24819Y-21613D01*
X24704Y-21578D02*
X24739Y-21613D01*
X24212Y-24666D02*
X24212Y-23679D01*
X24114Y-23581D02*
X24212Y-23679D01*
X24409Y-23679D02*
X24507Y-23581D01*
X24212Y-23679D02*
X24409Y-23679D01*
X24310Y-27028D02*
X24310Y-27657D01*
X23856Y-26574D02*
X24310Y-27028D01*
X24704Y-27657D02*
X24704Y-27877D01*
X31791Y-21358D02*
X31791Y-21578D01*
X32780Y-20078D02*
X32780Y-20408D01*
X31791Y-21358D02*
X31791Y-21103D01*
X31397Y-27402D02*
X31791Y-27402D01*
X31925Y-29370D02*
X31594Y-29370D01*
X31994Y-29301D02*
X31925Y-29370D01*
X31994Y-28002D02*
X31994Y-29301D01*
X31905Y-27912D02*
X31994Y-28002D01*
X31791Y-27912D02*
X31905Y-27912D01*
X31791Y-27657D02*
X31791Y-27912D01*
X31594Y-29625D02*
X31594Y-29370D01*
X31791Y-27657D02*
X31791Y-27402D01*
X24114Y-29625D02*
X24114Y-29880D01*
X24015Y-31294D02*
X24015Y-31064D01*
X21456Y-27653D02*
X21456Y-27948D01*
X21548Y-27560D02*
X21456Y-27653D01*
X30802Y-33530D02*
X30802Y-33956D01*
X30736Y-33464D02*
X30802Y-33530D01*
X24262Y-29880D02*
X24188Y-29954D01*
X24507Y-29880D02*
X24262Y-29880D01*
X24188Y-30891D02*
X24188Y-29954D01*
X24015Y-31064D02*
X24188Y-30891D01*
X24188Y-29954D02*
X24114Y-29880D01*
X24507Y-29625D02*
X24507Y-29880D01*
X24310Y-27845D02*
X24310Y-27657D01*
X24377Y-27912D02*
X24310Y-27845D01*
X24704Y-27912D02*
X24377Y-27912D01*
X24704Y-27877D02*
X24704Y-27912D01*
X24838Y-29370D02*
X24507Y-29370D01*
X24908Y-29301D02*
X24838Y-29370D01*
X24908Y-28001D02*
X24908Y-29301D01*
X24819Y-27912D02*
X24908Y-28001D01*
X24704Y-27912D02*
X24819Y-27912D01*
X24507Y-29625D02*
X24507Y-29370D01*
X30802Y-33399D02*
X30802Y-32972D01*
X30736Y-33464D02*
X30802Y-33399D01*
X30802Y-32972D02*
X30802Y-32642D01*
X31791Y-20882D02*
X31791Y-21103D01*
X32265Y-20408D02*
X31791Y-20882D01*
X32780Y-20408D02*
X32265Y-20408D01*
X31594Y-23326D02*
X31594Y-23581D01*
X31201Y-23581D02*
X31594Y-23581D01*
X31201Y-23326D02*
X31201Y-23581D01*
X31397Y-21538D02*
X31397Y-21358D01*
X31472Y-21613D02*
X31397Y-21538D01*
X31756Y-21613D02*
X31472Y-21613D01*
X31791Y-21578D02*
X31756Y-21613D01*
X31594Y-23326D02*
X31594Y-23071D01*
X31925Y-23071D02*
X31594Y-23071D01*
X31994Y-23002D02*
X31925Y-23071D01*
X31994Y-21702D02*
X31994Y-23002D01*
X31905Y-21613D02*
X31994Y-21702D01*
X31826Y-21613D02*
X31905Y-21613D01*
X31791Y-21578D02*
X31826Y-21613D01*
X31201Y-30013D02*
X31201Y-29880D01*
X30601Y-30613D02*
X31201Y-30013D01*
X30601Y-32441D02*
X30601Y-30613D01*
X30802Y-32642D02*
X30601Y-32441D01*
X31594Y-29625D02*
X31594Y-29880D01*
X31201Y-29880D02*
X31594Y-29880D01*
X21809Y-21103D02*
X21503Y-20798D01*
X23720Y-21103D02*
X21809Y-21103D01*
X23720Y-21358D02*
X23720Y-21103D01*
X21368Y-27296D02*
X20669Y-27996D01*
X23614Y-27296D02*
X21368Y-27296D01*
X23720Y-27402D02*
X23614Y-27296D01*
X23720Y-27657D02*
X23720Y-27402D01*
X29524Y-21103D02*
X28543Y-20122D01*
X30807Y-21103D02*
X29524Y-21103D01*
X30807Y-21358D02*
X30807Y-21103D01*
X20905Y-21358D02*
X20669Y-21122D01*
X23523Y-21358D02*
X20905Y-21358D01*
X20669Y-28825D02*
X20669Y-28996D01*
X21316Y-28178D02*
X20669Y-28825D01*
X22087Y-28178D02*
X21316Y-28178D01*
X22607Y-27657D02*
X22087Y-28178D01*
X23523Y-27657D02*
X22607Y-27657D01*
X28779Y-21358D02*
X28543Y-21122D01*
X30610Y-21358D02*
X28779Y-21358D01*
X30807Y-27657D02*
X30807Y-27402D01*
X28543Y-28737D02*
X28543Y-28996D01*
X29878Y-27402D02*
X28543Y-28737D01*
X30807Y-27402D02*
X29878Y-27402D01*
X23228Y-21653D02*
X22973Y-21653D01*
X21137Y-21653D02*
X20669Y-22122D01*
X22973Y-21653D02*
X21137Y-21653D01*
X23228Y-27952D02*
X22973Y-27952D01*
X22712Y-27952D02*
X20669Y-29996D01*
X22973Y-27952D02*
X22712Y-27952D01*
X30315Y-21653D02*
X30060Y-21653D01*
X29020Y-21644D02*
X28543Y-22122D01*
X30051Y-21644D02*
X29020Y-21644D01*
X30060Y-21653D02*
X30051Y-21644D01*
X29025Y-29514D02*
X28543Y-29996D01*
X29025Y-28453D02*
X29025Y-29514D01*
X29821Y-27657D02*
X29025Y-28453D01*
X30610Y-27657D02*
X29821Y-27657D01*
X23228Y-21850D02*
X22973Y-21850D01*
X21940Y-21850D02*
X20669Y-23122D01*
X22973Y-21850D02*
X21940Y-21850D01*
X23228Y-28149D02*
X22973Y-28149D01*
X21920Y-29745D02*
X20669Y-30996D01*
X21920Y-29103D02*
X21920Y-29745D01*
X22874Y-28149D02*
X21920Y-29103D01*
X22973Y-28149D02*
X22874Y-28149D01*
X30315Y-21850D02*
X30060Y-21850D01*
X28543Y-22912D02*
X28543Y-23122D01*
X29670Y-21784D02*
X28543Y-22912D01*
X29984Y-21784D02*
X29670Y-21784D01*
X30050Y-21850D02*
X29984Y-21784D01*
X30060Y-21850D02*
X30050Y-21850D01*
X30315Y-27952D02*
X30060Y-27952D01*
X29165Y-30373D02*
X28543Y-30996D01*
X29165Y-28511D02*
X29165Y-30373D01*
X29777Y-27899D02*
X29165Y-28511D01*
X30006Y-27899D02*
X29777Y-27899D01*
X30060Y-27952D02*
X30006Y-27899D01*
X21863Y-23026D02*
X22810Y-23972D01*
X21863Y-22560D02*
X21863Y-23026D01*
X22376Y-22047D02*
X21863Y-22560D01*
X23228Y-22047D02*
X22376Y-22047D01*
X22168Y-29889D02*
X22332Y-30052D01*
X22168Y-29087D02*
X22168Y-29889D01*
X22909Y-28346D02*
X22168Y-29087D01*
X23228Y-28346D02*
X22909Y-28346D01*
X30049Y-22057D02*
X30060Y-22047D01*
X29876Y-22057D02*
X30049Y-22057D01*
X30315Y-22047D02*
X30060Y-22047D01*
X29888Y-28149D02*
X29883Y-28154D01*
X30315Y-28149D02*
X29888Y-28149D01*
X23228Y-22244D02*
X22973Y-22244D01*
X23408Y-24186D02*
X23408Y-24447D01*
X22025Y-22802D02*
X23408Y-24186D01*
X22025Y-22614D02*
X22025Y-22802D01*
X22394Y-22244D02*
X22025Y-22614D01*
X22973Y-22244D02*
X22394Y-22244D01*
X22425Y-29079D02*
X22425Y-29198D01*
X22961Y-28543D02*
X22425Y-29079D01*
X23228Y-28543D02*
X22961Y-28543D01*
X29965Y-22330D02*
X29486Y-22330D01*
X30051Y-22244D02*
X29965Y-22330D01*
X30315Y-22244D02*
X30051Y-22244D01*
X29792Y-28411D02*
X29585Y-28618D01*
X29988Y-28411D02*
X29792Y-28411D01*
X30053Y-28346D02*
X29988Y-28411D01*
X30315Y-28346D02*
X30053Y-28346D01*
X25687Y-22440D02*
X25738Y-22491D01*
X25196Y-22440D02*
X25687Y-22440D01*
X26091Y-23942D02*
X25738Y-23589D01*
X26091Y-25247D02*
X26091Y-23942D01*
X26574Y-25730D02*
X26091Y-25247D01*
X26574Y-26122D02*
X26574Y-25730D01*
X25196Y-28739D02*
X25432Y-28739D01*
X26062Y-34508D02*
X26574Y-33996D01*
X25688Y-34508D02*
X26062Y-34508D01*
X25590Y-34606D02*
X25688Y-34508D01*
X25590Y-35295D02*
X25590Y-34606D01*
X25570Y-35314D02*
X25590Y-35295D01*
X25019Y-35314D02*
X25570Y-35314D01*
X24783Y-35078D02*
X25019Y-35314D01*
X24783Y-32185D02*
X24783Y-35078D01*
X24744Y-32145D02*
X24783Y-32185D01*
X25905Y-28917D02*
X25905Y-29370D01*
X25748Y-28759D02*
X25905Y-28917D01*
X25452Y-28759D02*
X25748Y-28759D01*
X25432Y-28739D02*
X25452Y-28759D01*
X34891Y-25678D02*
X34448Y-26122D01*
X34891Y-22955D02*
X34891Y-25678D01*
X34620Y-22683D02*
X34891Y-22955D01*
X34176Y-22683D02*
X34620Y-22683D01*
X33991Y-22868D02*
X34176Y-22683D01*
X33368Y-22868D02*
X33991Y-22868D01*
X32914Y-22413D02*
X33368Y-22868D01*
X32565Y-22413D02*
X32914Y-22413D01*
X32538Y-22440D02*
X32565Y-22413D01*
X32283Y-22440D02*
X32538Y-22440D01*
X34030Y-34413D02*
X34448Y-33996D01*
X33495Y-34413D02*
X34030Y-34413D01*
X33296Y-34612D02*
X33495Y-34413D01*
X33296Y-35025D02*
X33296Y-34612D01*
X33050Y-35271D02*
X33296Y-35025D01*
X29750Y-35271D02*
X33050Y-35271D01*
X29597Y-35118D02*
X29750Y-35271D01*
X29597Y-32423D02*
X29597Y-35118D01*
X29759Y-32261D02*
X29597Y-32423D01*
X29759Y-31909D02*
X29759Y-32261D01*
X29571Y-31721D02*
X29759Y-31909D01*
X29158Y-31721D02*
X29571Y-31721D01*
X29097Y-31660D02*
X29158Y-31721D01*
X29097Y-30640D02*
X29097Y-31660D01*
X29393Y-30344D02*
X29097Y-30640D01*
X29393Y-29157D02*
X29393Y-30344D01*
X29676Y-28873D02*
X29393Y-29157D01*
X29709Y-28873D02*
X29676Y-28873D01*
X30030Y-28551D02*
X29709Y-28873D01*
X30052Y-28551D02*
X30030Y-28551D01*
X30060Y-28543D02*
X30052Y-28551D01*
X30315Y-28543D02*
X30060Y-28543D01*
X27028Y-26667D02*
X26574Y-27122D01*
X27028Y-24667D02*
X27028Y-26667D01*
X27124Y-24571D02*
X27028Y-24667D01*
X25459Y-22236D02*
X25451Y-22244D01*
X25883Y-22236D02*
X25459Y-22236D01*
X26121Y-22474D02*
X25883Y-22236D01*
X25196Y-22244D02*
X25451Y-22244D01*
X25196Y-28543D02*
X25451Y-28543D01*
X25521Y-28613D02*
X25451Y-28543D01*
X25956Y-28613D02*
X25521Y-28613D01*
X26026Y-28543D02*
X25956Y-28613D01*
X26760Y-28543D02*
X26026Y-28543D01*
X27004Y-28787D02*
X26760Y-28543D01*
X27004Y-29415D02*
X27004Y-28787D01*
X27293Y-29704D02*
X27004Y-29415D01*
X27293Y-34277D02*
X27293Y-29704D01*
X26574Y-34996D02*
X27293Y-34277D01*
X35051Y-26519D02*
X34448Y-27122D01*
X35051Y-22100D02*
X35051Y-26519D01*
X34640Y-21689D02*
X35051Y-22100D01*
X33802Y-21689D02*
X34640Y-21689D01*
X33222Y-22269D02*
X33802Y-21689D01*
X32563Y-22269D02*
X33222Y-22269D01*
X32538Y-22244D02*
X32563Y-22269D01*
X32283Y-22244D02*
X32538Y-22244D01*
X35031Y-34413D02*
X34448Y-34996D01*
X35031Y-28969D02*
X35031Y-34413D01*
X34619Y-28556D02*
X35031Y-28969D01*
X33231Y-28556D02*
X34619Y-28556D01*
X33048Y-28739D02*
X33231Y-28556D01*
X32283Y-28739D02*
X33048Y-28739D01*
X25196Y-22047D02*
X25451Y-22047D01*
X25454Y-22049D02*
X25451Y-22047D01*
X25857Y-22049D02*
X25454Y-22049D01*
X26173Y-21733D02*
X25857Y-22049D01*
X25672Y-28346D02*
X25196Y-28346D01*
X32283Y-22047D02*
X32538Y-22047D01*
X32571Y-22014D02*
X32538Y-22047D01*
X33035Y-22014D02*
X32571Y-22014D01*
X32283Y-28346D02*
X32967Y-28346D01*
X32283Y-27692D02*
X32270Y-27679D01*
X32283Y-27952D02*
X32283Y-27692D01*
X25196Y-27688D02*
X25196Y-27952D01*
X25176Y-27667D02*
X25196Y-27688D01*
X25196Y-21653D02*
X25451Y-21653D01*
X25643Y-21653D02*
X25644Y-21654D01*
X25451Y-21653D02*
X25643Y-21653D01*
X25951Y-24308D02*
X25731Y-24088D01*
X25951Y-25338D02*
X25951Y-24308D01*
X26091Y-25478D02*
X25951Y-25338D01*
X26091Y-26752D02*
X26091Y-25478D01*
X25176Y-27667D02*
X26091Y-26752D01*
X32283Y-21376D02*
X32283Y-21653D01*
X25196Y-28149D02*
X25451Y-28149D01*
X26026Y-27575D02*
X26217Y-27575D01*
X25451Y-28149D02*
X26026Y-27575D01*
X32283Y-21850D02*
X32538Y-21850D01*
X25196Y-21850D02*
X25451Y-21850D01*
X27231Y-20870D02*
X27924Y-20870D01*
X27042Y-20681D02*
X27231Y-20870D01*
X26396Y-20681D02*
X27042Y-20681D01*
X25918Y-21159D02*
X26396Y-20681D01*
X25918Y-21750D02*
X25918Y-21159D01*
X25759Y-21909D02*
X25918Y-21750D01*
X25530Y-21909D02*
X25759Y-21909D01*
X25470Y-21850D02*
X25530Y-21909D01*
X25451Y-21850D02*
X25470Y-21850D01*
X32374Y-24500D02*
X32374Y-24905D01*
X32283Y-28149D02*
X32538Y-28149D01*
X32781Y-26007D02*
X32764Y-26024D01*
X32781Y-25312D02*
X32781Y-26007D01*
X32374Y-24905D02*
X32781Y-25312D01*
X32764Y-27923D02*
X32538Y-28149D01*
X32764Y-26024D02*
X32764Y-27923D01*
X32838Y-21850D02*
X32538Y-21850D01*
X33428Y-21260D02*
X32838Y-21850D01*
X33783Y-21260D02*
X33428Y-21260D01*
X32180Y-20078D02*
X31950Y-20078D01*
X30315Y-22440D02*
X30060Y-22440D01*
X30018Y-22482D02*
X30060Y-22440D01*
X29922Y-22482D02*
X30018Y-22482D01*
X29802Y-22602D02*
X29922Y-22482D01*
X22744Y-25962D02*
X22928Y-26146D01*
X22744Y-25500D02*
X22744Y-25962D01*
X22928Y-26476D02*
X22928Y-26146D01*
X23228Y-22440D02*
X22973Y-22440D01*
X31407Y-20621D02*
X31407Y-20776D01*
X31950Y-20078D02*
X31407Y-20621D01*
X22589Y-22427D02*
X22299Y-22716D01*
X22960Y-22427D02*
X22589Y-22427D01*
X22973Y-22440D02*
X22960Y-22427D01*
X23228Y-28739D02*
X22973Y-28739D01*
X20867Y-31496D02*
X21165Y-31793D01*
X20553Y-31496D02*
X20867Y-31496D01*
X20223Y-31165D02*
X20553Y-31496D01*
X20223Y-29810D02*
X20223Y-31165D01*
X20538Y-29496D02*
X20223Y-29810D01*
X20792Y-29496D02*
X20538Y-29496D01*
X21456Y-28831D02*
X20792Y-29496D01*
X21456Y-28548D02*
X21456Y-28831D01*
X22744Y-32995D02*
X22744Y-31799D01*
X22535Y-33204D02*
X22744Y-32995D01*
X22164Y-33204D02*
X22535Y-33204D01*
X22096Y-33136D02*
X22164Y-33204D01*
X22096Y-32724D02*
X22096Y-33136D01*
X21165Y-31793D02*
X22096Y-32724D01*
X22693Y-29020D02*
X22973Y-28739D01*
X22693Y-29778D02*
X22693Y-29020D01*
X22587Y-29884D02*
X22693Y-29778D01*
X22587Y-30158D02*
X22587Y-29884D01*
X22164Y-30581D02*
X22587Y-30158D01*
X22164Y-31152D02*
X22164Y-30581D01*
X21992Y-31323D02*
X22164Y-31152D01*
X21635Y-31323D02*
X21992Y-31323D01*
X21165Y-31793D02*
X21635Y-31323D01*
X31968Y-33620D02*
X31632Y-33956D01*
X31968Y-31609D02*
X31968Y-33620D01*
X32374Y-31204D02*
X31968Y-31609D01*
X32374Y-30799D02*
X32374Y-31204D01*
X31402Y-33956D02*
X31632Y-33956D01*
X30041Y-28739D02*
X30315Y-28739D01*
X29656Y-29124D02*
X30041Y-28739D01*
X29656Y-29276D02*
X29656Y-29124D01*
X23228Y-22637D02*
X22973Y-22637D01*
X24847Y-20078D02*
X24567Y-20358D01*
X25290Y-20078D02*
X24847Y-20078D01*
X22854Y-22637D02*
X22810Y-22682D01*
X22973Y-22637D02*
X22854Y-22637D01*
X22347Y-32874D02*
X22347Y-32543D01*
X23046Y-28936D02*
X23228Y-28936D01*
X22833Y-29150D02*
X23046Y-28936D01*
X22833Y-30111D02*
X22833Y-29150D01*
X22325Y-30618D02*
X22833Y-30111D01*
X22325Y-32522D02*
X22325Y-30618D01*
X22347Y-32543D02*
X22325Y-32522D01*
X27259Y-24114D02*
X27489Y-24114D01*
X30315Y-22637D02*
X30060Y-22637D01*
X30060Y-22705D02*
X30060Y-22637D01*
X29089Y-23676D02*
X30060Y-22705D01*
X28259Y-23676D02*
X29089Y-23676D01*
X28181Y-23754D02*
X28259Y-23676D01*
X27705Y-23754D02*
X28181Y-23754D01*
X27489Y-23970D02*
X27705Y-23754D01*
X27489Y-24114D02*
X27489Y-23970D01*
X29429Y-31491D02*
X29429Y-31261D01*
X30315Y-28936D02*
X30060Y-28936D01*
X29911Y-29084D02*
X30060Y-28936D01*
X29911Y-30090D02*
X29911Y-29084D01*
X29429Y-30573D02*
X29911Y-30090D01*
X29429Y-31261D02*
X29429Y-30573D01*
X24053Y-20197D02*
X24189Y-20334D01*
X24053Y-20078D02*
X24053Y-20197D01*
X23823Y-20078D02*
X24053Y-20078D01*
X23018Y-22834D02*
X23228Y-22834D01*
X22769Y-23083D02*
X23018Y-22834D01*
X22666Y-23083D02*
X22769Y-23083D01*
X23048Y-29133D02*
X23228Y-29133D01*
X22973Y-29208D02*
X23048Y-29133D01*
X22973Y-29448D02*
X22973Y-29208D01*
X23161Y-29636D02*
X22973Y-29448D01*
X23161Y-33273D02*
X23161Y-29636D01*
X22577Y-33858D02*
X23161Y-33273D01*
X22347Y-33858D02*
X22577Y-33858D01*
X27259Y-25295D02*
X27489Y-25295D01*
X30156Y-22834D02*
X30315Y-22834D01*
X28973Y-24017D02*
X30156Y-22834D01*
X28973Y-24300D02*
X28973Y-24017D01*
X28602Y-24671D02*
X28973Y-24300D01*
X27969Y-24671D02*
X28602Y-24671D01*
X27489Y-25151D02*
X27969Y-24671D01*
X27489Y-25295D02*
X27489Y-25151D01*
X29827Y-32972D02*
X29827Y-32642D01*
X30151Y-29133D02*
X30315Y-29133D01*
X30051Y-29233D02*
X30151Y-29133D01*
X30051Y-30148D02*
X30051Y-29233D01*
X29926Y-30273D02*
X30051Y-30148D01*
X29926Y-32543D02*
X29926Y-30273D01*
X29827Y-32642D02*
X29926Y-32543D01*
X22051Y-26476D02*
X22051Y-26146D01*
X22244Y-25954D02*
X22051Y-26146D01*
X22244Y-25426D02*
X22244Y-25954D01*
X22664Y-25006D02*
X22244Y-25426D01*
X23226Y-25006D02*
X22664Y-25006D01*
X23669Y-24563D02*
X23226Y-25006D01*
X23669Y-24238D02*
X23669Y-24563D01*
X22980Y-23549D02*
X23669Y-24238D01*
X22980Y-23176D02*
X22980Y-23549D01*
X23124Y-23031D02*
X22980Y-23176D01*
X23228Y-23031D02*
X23124Y-23031D01*
X23922Y-33858D02*
X23691Y-33858D01*
X23691Y-33628D02*
X23691Y-33858D01*
X23319Y-33256D02*
X23691Y-33628D01*
X23319Y-29422D02*
X23319Y-33256D01*
X23228Y-29330D02*
X23319Y-29422D01*
X29113Y-24233D02*
X30315Y-23031D01*
X29113Y-25166D02*
X29113Y-24233D01*
X28658Y-25622D02*
X29113Y-25166D01*
X28199Y-25622D02*
X28658Y-25622D01*
X27489Y-26332D02*
X28199Y-25622D01*
X27489Y-26476D02*
X27489Y-26332D01*
X27259Y-26476D02*
X27489Y-26476D01*
X29925Y-33956D02*
X29925Y-33626D01*
X30136Y-33415D02*
X29925Y-33626D01*
X30136Y-30261D02*
X30136Y-33415D01*
X30315Y-30083D02*
X30136Y-30261D01*
X30315Y-29330D02*
X30315Y-30083D01*
X23499Y-23302D02*
X23523Y-23326D01*
X23250Y-23302D02*
X23499Y-23302D01*
X22051Y-20078D02*
X22868Y-20078D01*
X23922Y-34842D02*
X24152Y-34842D01*
X23523Y-29625D02*
X23523Y-29880D01*
X24152Y-33182D02*
X24152Y-34842D01*
X23505Y-32535D02*
X24152Y-33182D01*
X23505Y-29899D02*
X23505Y-32535D01*
X23523Y-29880D02*
X23505Y-29899D01*
X30486Y-23326D02*
X30610Y-23326D01*
X29253Y-24558D02*
X30486Y-23326D01*
X29253Y-26021D02*
X29253Y-24558D01*
X28653Y-26622D02*
X29253Y-26021D01*
X28287Y-26622D02*
X28653Y-26622D01*
X27489Y-27420D02*
X28287Y-26622D01*
X27489Y-27559D02*
X27489Y-27420D01*
X27259Y-27559D02*
X27489Y-27559D01*
X29925Y-34940D02*
X30156Y-34940D01*
X30610Y-29625D02*
X30610Y-29880D01*
X30277Y-34820D02*
X30156Y-34940D01*
X30277Y-30319D02*
X30277Y-34820D01*
X30587Y-30009D02*
X30277Y-30319D01*
X30587Y-29903D02*
X30587Y-30009D01*
X30610Y-29880D02*
X30587Y-29903D01*
X23720Y-23326D02*
X23720Y-23581D01*
X23602Y-23699D02*
X23720Y-23581D01*
X23545Y-23699D02*
X23602Y-23699D01*
X27859Y-20078D02*
X27628Y-20078D01*
X27320Y-20534D02*
X27278Y-20534D01*
X27628Y-20226D02*
X27320Y-20534D01*
X27628Y-20078D02*
X27628Y-20226D01*
X27628Y-28970D02*
X27339Y-29260D01*
X27628Y-28740D02*
X27628Y-28970D01*
X27859Y-28740D02*
X27628Y-28740D01*
X23720Y-30142D02*
X23760Y-30182D01*
X23720Y-29625D02*
X23720Y-30142D01*
X30807Y-23326D02*
X30807Y-23581D01*
X30807Y-23581D02*
X30684Y-23704D01*
X29522Y-20078D02*
X29752Y-20078D01*
X29752Y-20222D02*
X29752Y-20078D01*
X30472Y-20942D02*
X29752Y-20222D01*
X31045Y-20942D02*
X30472Y-20942D01*
X33331Y-27565D02*
X33117Y-27779D01*
X33331Y-27259D02*
X33331Y-27565D01*
X30807Y-29975D02*
X30807Y-29625D01*
X30842Y-30011D02*
X30807Y-29975D01*
X33661Y-27259D02*
X33331Y-27259D01*
X27801Y-21746D02*
X27801Y-21850D01*
X27859Y-21688D02*
X27801Y-21746D01*
X25364Y-23199D02*
X25196Y-23031D01*
X25364Y-24475D02*
X25364Y-23199D01*
X27859Y-21358D02*
X27859Y-21688D01*
X25314Y-32814D02*
X25314Y-32712D01*
X25290Y-32839D02*
X25314Y-32814D01*
X25290Y-33169D02*
X25290Y-32839D01*
X25171Y-29355D02*
X25171Y-29894D01*
X25196Y-29330D02*
X25171Y-29355D01*
X33661Y-19975D02*
X33661Y-20205D01*
X32283Y-23088D02*
X32503Y-23308D01*
X32283Y-23031D02*
X32283Y-23088D01*
X32663Y-21060D02*
X32663Y-21512D01*
X33517Y-20205D02*
X32663Y-21060D01*
X33661Y-20205D02*
X33517Y-20205D01*
X32283Y-30095D02*
X32283Y-29330D01*
X31819Y-30558D02*
X32283Y-30095D01*
X31819Y-33076D02*
X31819Y-30558D01*
X31562Y-33333D02*
X31819Y-33076D01*
X31522Y-33333D02*
X31562Y-33333D01*
X31172Y-33683D02*
X31522Y-33333D01*
X31172Y-34242D02*
X31172Y-33683D01*
X31673Y-34744D02*
X31172Y-34242D01*
X33066Y-34744D02*
X31673Y-34744D01*
X25450Y-22834D02*
X25196Y-22834D01*
X26174Y-23558D02*
X25450Y-22834D01*
X28053Y-23558D02*
X26174Y-23558D01*
X28089Y-23522D02*
X28053Y-23558D01*
X28089Y-22342D02*
X28089Y-23522D01*
X27859Y-22342D02*
X28089Y-22342D01*
X25290Y-34055D02*
X25520Y-34055D01*
X25196Y-29133D02*
X25451Y-29133D01*
X25610Y-33965D02*
X25520Y-34055D01*
X25610Y-32466D02*
X25610Y-33965D01*
X25993Y-32084D02*
X25610Y-32466D01*
X25993Y-30430D02*
X25993Y-32084D01*
X25854Y-30291D02*
X25993Y-30430D01*
X25854Y-30216D02*
X25854Y-30291D01*
X25401Y-29763D02*
X25854Y-30216D01*
X25401Y-29559D02*
X25401Y-29763D01*
X25451Y-29508D02*
X25401Y-29559D01*
X25451Y-29133D02*
X25451Y-29508D01*
X32936Y-23233D02*
X32538Y-22834D01*
X33661Y-23233D02*
X32936Y-23233D01*
X32283Y-22834D02*
X32538Y-22834D01*
X32441Y-29133D02*
X32283Y-29133D01*
X32787Y-29479D02*
X32441Y-29133D01*
X32787Y-33809D02*
X32787Y-29479D01*
X32836Y-33858D02*
X32787Y-33809D01*
X33066Y-33858D02*
X32836Y-33858D01*
X27859Y-23228D02*
X27628Y-23228D01*
X25196Y-22637D02*
X25451Y-22637D01*
X25574Y-22760D02*
X25451Y-22637D01*
X26236Y-22760D02*
X25574Y-22760D01*
X26304Y-22691D02*
X26236Y-22760D01*
X27236Y-22691D02*
X26304Y-22691D01*
X27628Y-23084D02*
X27236Y-22691D01*
X27628Y-23228D02*
X27628Y-23084D01*
X25051Y-32521D02*
X25269Y-32304D01*
X25051Y-34932D02*
X25051Y-32521D01*
X25060Y-34940D02*
X25051Y-34932D01*
X25290Y-34940D02*
X25060Y-34940D01*
X25629Y-29630D02*
X25663Y-29664D01*
X25629Y-29091D02*
X25629Y-29630D01*
X25474Y-28936D02*
X25629Y-29091D01*
X25196Y-28936D02*
X25474Y-28936D01*
X32283Y-22637D02*
X32538Y-22637D01*
X33066Y-26476D02*
X33066Y-26146D01*
X32569Y-22668D02*
X32797Y-22668D01*
X32538Y-22637D02*
X32569Y-22668D01*
X32968Y-23772D02*
X32797Y-23601D01*
X32968Y-25867D02*
X32968Y-23772D01*
X33066Y-25965D02*
X32968Y-25867D01*
X33066Y-26146D02*
X33066Y-25965D01*
X33066Y-32972D02*
X33066Y-32642D01*
X32283Y-28936D02*
X32538Y-28936D01*
X32927Y-29326D02*
X32538Y-28936D01*
X32927Y-32504D02*
X32927Y-29326D01*
X33066Y-32642D02*
X32927Y-32504D01*
X24914Y-27402D02*
X25143Y-27173D01*
X24901Y-27402D02*
X24914Y-27402D01*
X24901Y-27657D02*
X24901Y-27402D01*
X24901Y-21358D02*
X24901Y-21103D01*
X24617Y-20818D02*
X23820Y-20818D01*
X24901Y-21103D02*
X24617Y-20818D01*
X31988Y-26080D02*
X31988Y-27657D01*
X31645Y-25738D02*
X31988Y-26080D01*
X31645Y-24789D02*
X31645Y-25738D01*
X31988Y-21046D02*
X31988Y-21358D01*
X32050Y-20984D02*
X31988Y-21046D01*
X24704Y-23326D02*
X24704Y-23581D01*
X25590Y-25767D02*
X25229Y-25767D01*
X24704Y-25242D02*
X25229Y-25767D01*
X24704Y-23581D02*
X24704Y-25242D01*
X25492Y-31968D02*
X25019Y-31968D01*
X24704Y-30413D02*
X24704Y-29625D01*
X24586Y-30531D02*
X24704Y-30413D01*
X25019Y-31968D02*
X24704Y-31653D01*
X31791Y-23832D02*
X31003Y-24619D01*
X31791Y-23326D02*
X31791Y-23832D01*
X31003Y-24823D02*
X31003Y-24619D01*
X31102Y-30925D02*
X31102Y-30722D01*
X31791Y-29975D02*
X31791Y-29625D01*
X31102Y-30664D02*
X31791Y-29975D01*
X31102Y-30722D02*
X31102Y-30664D01*
X25590Y-24823D02*
X25229Y-24823D01*
X24901Y-24495D02*
X25229Y-24823D01*
X24901Y-23326D02*
X24901Y-24495D01*
X24901Y-30229D02*
X25492Y-30820D01*
X24901Y-29880D02*
X24901Y-30229D01*
X24901Y-29625D02*
X24901Y-29880D01*
X25492Y-31024D02*
X25492Y-30820D01*
X31003Y-25767D02*
X31365Y-25767D01*
X31988Y-23326D02*
X31988Y-23581D01*
X31505Y-25627D02*
X31365Y-25767D01*
X31505Y-25009D02*
X31505Y-25627D01*
X31390Y-24895D02*
X31505Y-25009D01*
X31390Y-24683D02*
X31390Y-24895D01*
X31988Y-24086D02*
X31390Y-24683D01*
X31988Y-23581D02*
X31988Y-24086D01*
X31988Y-29625D02*
X31988Y-29880D01*
X31102Y-31869D02*
X31463Y-31869D01*
X31988Y-29976D02*
X31988Y-29880D01*
X31463Y-30501D02*
X31988Y-29976D01*
X31463Y-31869D02*
X31463Y-30501D01*
X25492Y-31496D02*
X25236Y-31496D01*
X24173Y-31673D02*
X24015Y-31673D01*
X24429Y-31417D02*
X24173Y-31673D01*
X24429Y-31240D02*
X24429Y-31417D01*
X24527Y-31141D02*
X24429Y-31240D01*
X24881Y-31141D02*
X24527Y-31141D01*
X25236Y-31496D02*
X24881Y-31141D01*
X29724Y-25398D02*
X30605Y-25398D01*
X30708Y-25295D02*
X31003Y-25295D01*
X30605Y-25398D02*
X30708Y-25295D01*
X29724Y-25398D02*
X29724Y-26771D01*
X30077Y-27125D02*
X30616Y-27125D01*
X29724Y-26771D02*
X30077Y-27125D01*
X24179Y-27912D02*
X24212Y-27946D01*
X24114Y-27912D02*
X24179Y-27912D01*
X24212Y-28641D02*
X24212Y-27946D01*
X24114Y-27785D02*
X24114Y-27912D01*
X24179Y-21613D02*
X24114Y-21613D01*
X24212Y-21646D02*
X24179Y-21613D01*
X24212Y-22342D02*
X24212Y-21646D01*
X24114Y-21358D02*
X24114Y-21613D01*
X24212Y-22342D02*
X24212Y-23038D01*
X24310Y-23326D02*
X24310Y-23071D01*
X24245Y-23071D02*
X24310Y-23071D01*
X24212Y-23038D02*
X24245Y-23071D01*
X31265Y-21613D02*
X31201Y-21613D01*
X31299Y-21646D02*
X31265Y-21613D01*
X31299Y-22342D02*
X31299Y-21646D01*
X31201Y-21358D02*
X31201Y-21613D01*
X31332Y-23071D02*
X31299Y-23038D01*
X31397Y-23071D02*
X31332Y-23071D01*
X31397Y-23326D02*
X31397Y-23071D01*
X31299Y-22342D02*
X31299Y-23038D01*
X24179Y-23071D02*
X24212Y-23038D01*
X23917Y-23071D02*
X24179Y-23071D01*
X23917Y-23326D02*
X23917Y-23071D01*
X23917Y-23326D02*
X23917Y-23581D01*
X24114Y-27785D02*
X24114Y-27657D01*
X24114Y-27657D02*
X24114Y-27402D01*
X24212Y-25496D02*
X23882Y-25496D01*
X23298Y-26081D02*
X23882Y-25496D01*
X23298Y-26770D02*
X23298Y-26081D01*
X23929Y-27402D02*
X23298Y-26770D01*
X24114Y-27402D02*
X23929Y-27402D01*
X25590Y-25295D02*
X25590Y-25498D01*
X24212Y-25496D02*
X24212Y-25726D01*
X25826Y-25498D02*
X25590Y-25498D01*
X25951Y-25624D02*
X25826Y-25498D01*
X25951Y-25932D02*
X25951Y-25624D01*
X25728Y-26155D02*
X25951Y-25932D01*
X24426Y-26155D02*
X25728Y-26155D01*
X24212Y-25941D02*
X24426Y-26155D01*
X24212Y-25726D02*
X24212Y-25941D01*
X23882Y-23616D02*
X23917Y-23581D01*
X23882Y-25496D02*
X23882Y-23616D01*
X24015Y-31894D02*
X24015Y-31673D01*
X24015Y-31673D02*
X24015Y-31664D01*
X24212Y-28641D02*
X24212Y-29337D01*
X23917Y-29625D02*
X23917Y-29370D01*
X24179Y-29370D02*
X24212Y-29337D01*
X23917Y-29370D02*
X24179Y-29370D01*
X24310Y-29625D02*
X24310Y-29370D01*
X24245Y-29370D02*
X24310Y-29370D01*
X24212Y-29337D02*
X24245Y-29370D01*
X24015Y-32368D02*
X24015Y-31894D01*
X24144Y-32496D02*
X24015Y-32368D01*
X29724Y-25398D02*
X29724Y-25168D01*
X31004Y-23770D02*
X31004Y-23326D01*
X30219Y-24554D02*
X31004Y-23770D01*
X29465Y-24554D02*
X30219Y-24554D01*
X29394Y-24626D02*
X29465Y-24554D01*
X29394Y-24981D02*
X29394Y-24626D01*
X29580Y-25168D02*
X29394Y-24981D01*
X29724Y-25168D02*
X29580Y-25168D01*
X31265Y-23071D02*
X31299Y-23038D01*
X31004Y-23071D02*
X31265Y-23071D01*
X31004Y-23326D02*
X31004Y-23071D01*
X23872Y-31664D02*
X24015Y-31664D01*
X23685Y-31477D02*
X23872Y-31664D01*
X23685Y-30952D02*
X23685Y-31477D01*
X24037Y-30600D02*
X23685Y-30952D01*
X24037Y-30082D02*
X24037Y-30600D01*
X23917Y-29962D02*
X24037Y-30082D01*
X23917Y-29625D02*
X23917Y-29962D01*
X31102Y-29272D02*
X31004Y-29370D01*
X31299Y-29272D02*
X31102Y-29272D01*
X31299Y-28641D02*
X31299Y-29272D01*
X31299Y-29272D02*
X31397Y-29370D01*
X31004Y-29625D02*
X31004Y-29370D01*
X31265Y-27912D02*
X31299Y-27946D01*
X31201Y-27657D02*
X31201Y-27402D01*
X31201Y-27402D02*
X30923Y-27125D01*
X30923Y-27125D02*
X30616Y-27125D01*
X31201Y-27785D02*
X31201Y-27657D01*
X31201Y-27785D02*
X31201Y-27912D01*
X31299Y-28641D02*
X31299Y-27946D01*
X31201Y-27912D02*
X31265Y-27912D01*
X31397Y-29498D02*
X31397Y-29370D01*
X31102Y-31397D02*
X30776Y-31397D01*
X31402Y-32972D02*
X31172Y-32972D01*
X31397Y-29498D02*
X31397Y-29625D01*
X30741Y-32084D02*
X30917Y-32260D01*
X30741Y-31432D02*
X30741Y-32084D01*
X30776Y-31397D02*
X30741Y-31432D01*
X31172Y-32515D02*
X31172Y-32972D01*
X30917Y-32260D02*
X31172Y-32515D01*
X25890Y-33169D02*
X25890Y-32839D01*
X26134Y-32595D02*
X25890Y-32839D01*
X26134Y-30373D02*
X26134Y-32595D01*
X25994Y-30233D02*
X26134Y-30373D01*
X25994Y-29657D02*
X25994Y-30233D01*
X26574Y-29077D02*
X25994Y-29657D01*
X26574Y-28996D02*
X26574Y-29077D01*
X27013Y-30434D02*
X26574Y-29996D01*
X27013Y-32168D02*
X27013Y-30434D01*
X26685Y-32496D02*
X27013Y-32168D01*
X26460Y-32496D02*
X26685Y-32496D01*
X26120Y-32835D02*
X26460Y-32496D01*
X26120Y-34055D02*
X26120Y-32835D01*
X25890Y-34055D02*
X26120Y-34055D01*
X26574Y-30615D02*
X26574Y-30996D01*
X26134Y-30175D02*
X26574Y-30615D01*
X26134Y-29782D02*
X26134Y-30175D01*
X26360Y-29556D02*
X26134Y-29782D01*
X26746Y-29556D02*
X26360Y-29556D01*
X27153Y-29963D02*
X26746Y-29556D01*
X27153Y-34031D02*
X27153Y-29963D01*
X26689Y-34496D02*
X27153Y-34031D01*
X26450Y-34496D02*
X26689Y-34496D01*
X26120Y-34825D02*
X26450Y-34496D01*
X26120Y-34940D02*
X26120Y-34825D01*
X25890Y-34940D02*
X26120Y-34940D01*
X21517Y-33843D02*
X20669Y-32996D01*
X21517Y-33858D02*
X21517Y-33843D01*
X21747Y-33858D02*
X21517Y-33858D01*
X20861Y-34188D02*
X20669Y-33996D01*
X22761Y-34188D02*
X20861Y-34188D01*
X23091Y-33858D02*
X22761Y-34188D01*
X23322Y-33858D02*
X23091Y-33858D01*
X21517Y-32843D02*
X20669Y-31996D01*
X21517Y-32874D02*
X21517Y-32843D01*
X21747Y-32874D02*
X21517Y-32874D01*
X20822Y-34842D02*
X20669Y-34996D01*
X23322Y-34842D02*
X20822Y-34842D01*
X28097Y-24122D02*
X28543Y-24122D01*
X28089Y-24114D02*
X28097Y-24122D01*
X27859Y-24114D02*
X28089Y-24114D01*
X26988Y-28410D02*
X26574Y-27996D01*
X27259Y-28410D02*
X26988Y-28410D01*
X27259Y-28740D02*
X27259Y-28410D01*
X28526Y-27122D02*
X28543Y-27122D01*
X28089Y-27559D02*
X28526Y-27122D01*
X27859Y-27559D02*
X28089Y-27559D01*
X28370Y-25295D02*
X28543Y-25122D01*
X27859Y-25295D02*
X28370Y-25295D01*
X28188Y-26476D02*
X28543Y-26122D01*
X27859Y-26476D02*
X28188Y-26476D01*
X30122Y-20078D02*
X30352Y-20078D01*
X30515Y-19916D02*
X30997Y-19916D01*
X30352Y-20078D02*
X30515Y-19916D01*
X33991Y-20664D02*
X34448Y-21122D01*
X33991Y-20575D02*
X33991Y-20664D01*
X33661Y-20575D02*
X33991Y-20575D01*
X33991Y-22579D02*
X34448Y-22122D01*
X33991Y-22633D02*
X33991Y-22579D01*
X33661Y-22633D02*
X33991Y-22633D01*
X33896Y-23674D02*
X34448Y-23122D01*
X33896Y-26476D02*
X33896Y-23674D01*
X33666Y-26476D02*
X33896Y-26476D01*
X33666Y-32972D02*
X33666Y-32642D01*
X33957Y-31487D02*
X34448Y-30996D01*
X33957Y-32350D02*
X33957Y-31487D01*
X33666Y-32642D02*
X33957Y-32350D01*
X33779Y-30665D02*
X34448Y-29996D01*
X33779Y-32219D02*
X33779Y-30665D01*
X33436Y-32562D02*
X33779Y-32219D01*
X33436Y-33858D02*
X33436Y-32562D01*
X33666Y-33858D02*
X33436Y-33858D01*
X33666Y-34744D02*
X33896Y-34744D01*
X34074Y-34565D02*
X33896Y-34744D01*
X34511Y-34565D02*
X34074Y-34565D01*
X34884Y-34193D02*
X34511Y-34565D01*
X34884Y-29431D02*
X34884Y-34193D01*
X34448Y-28996D02*
X34884Y-29431D01*
X34128Y-27996D02*
X34448Y-27996D01*
X33991Y-27859D02*
X34128Y-27996D01*
X33661Y-27859D02*
X33991Y-27859D01*
X20226Y-26679D02*
X20669Y-27122D01*
X20226Y-20927D02*
X20226Y-26679D01*
X20532Y-20622D02*
X20226Y-20927D01*
X20793Y-20622D02*
X20532Y-20622D01*
X21221Y-20193D02*
X20793Y-20622D01*
X21221Y-20078D02*
X21221Y-20193D01*
X21451Y-20078D02*
X21221Y-20078D01*
X26985Y-20122D02*
X26574Y-20122D01*
X27028Y-20078D02*
X26985Y-20122D01*
X27259Y-20078D02*
X27028Y-20078D01*
X26811Y-21358D02*
X26574Y-21122D01*
X27259Y-21358D02*
X26811Y-21358D01*
X26795Y-22342D02*
X26574Y-22122D01*
X27259Y-22342D02*
X26795Y-22342D01*
X26681Y-23228D02*
X26574Y-23122D01*
X27259Y-23228D02*
X26681Y-23228D01*
X28566Y-32972D02*
X28543Y-32996D01*
X29227Y-32972D02*
X28566Y-32972D01*
X29056Y-33996D02*
X28543Y-33996D01*
X29095Y-33956D02*
X29056Y-33996D01*
X29325Y-33956D02*
X29095Y-33956D01*
X29003Y-31996D02*
X28543Y-31996D01*
X29099Y-32091D02*
X29003Y-31996D01*
X29429Y-32091D02*
X29099Y-32091D01*
X29040Y-34996D02*
X28543Y-34996D01*
X29095Y-34940D02*
X29040Y-34996D01*
X29325Y-34940D02*
X29095Y-34940D01*
X25890Y-20078D02*
X25660Y-20078D01*
X23168Y-20813D02*
X22088Y-20813D01*
X23418Y-20563D02*
X23168Y-20813D01*
X23958Y-20563D02*
X23418Y-20563D01*
X24016Y-20621D02*
X23958Y-20563D01*
X25261Y-20621D02*
X24016Y-20621D01*
X25660Y-20222D02*
X25261Y-20621D01*
X25660Y-20078D02*
X25660Y-20222D01*
X23089Y-20408D02*
X22959Y-20538D01*
X23223Y-20408D02*
X23089Y-20408D01*
X23223Y-20078D02*
X23223Y-20408D01*
X20867Y-26122D02*
X20669Y-26122D01*
X21221Y-26476D02*
X20867Y-26122D01*
X21451Y-26476D02*
X21221Y-26476D01*
M02*
