G04 (created by PCBNEW (2013-mar-13)-testing) date Wed 23 Jul 2014 10:13:11 AM PDT*
%MOIN*%
G04 Gerber Fmt 3.4, Leading zero omitted, Abs format*
%FSLAX34Y34*%
G01*
G70*
G90*
G04 APERTURE LIST*
%ADD10C,0.005906*%
%ADD11R,0.045000X0.025000*%
%ADD12C,0.065000*%
%ADD13R,0.051200X0.019700*%
%ADD14R,0.030000X0.010000*%
%ADD15R,0.010000X0.030000*%
%ADD16R,0.118100X0.118100*%
%ADD17R,0.025000X0.045000*%
%ADD18R,0.060000X0.060000*%
%ADD19C,0.060000*%
G04 APERTURE END LIST*
G54D10*
G54D11*
X24212Y-24896D03*
X24212Y-25496D03*
G54D12*
X20669Y-20122D03*
X20669Y-21122D03*
X20669Y-22122D03*
X20669Y-23122D03*
X20669Y-24122D03*
X20669Y-25122D03*
X20669Y-26122D03*
X20669Y-27122D03*
X26574Y-27122D03*
X26574Y-26122D03*
X26574Y-25122D03*
X26574Y-24122D03*
X26574Y-23122D03*
X26574Y-22122D03*
X26574Y-21122D03*
X26574Y-20122D03*
X20669Y-27996D03*
X20669Y-28996D03*
X20669Y-29996D03*
X20669Y-30996D03*
X20669Y-31996D03*
X20669Y-32996D03*
X20669Y-33996D03*
X20669Y-34996D03*
X26574Y-34996D03*
X26574Y-33996D03*
X26574Y-32996D03*
X26574Y-31996D03*
X26574Y-30996D03*
X26574Y-29996D03*
X26574Y-28996D03*
X26574Y-27996D03*
X28543Y-20122D03*
X28543Y-21122D03*
X28543Y-22122D03*
X28543Y-23122D03*
X28543Y-24122D03*
X28543Y-25122D03*
X28543Y-26122D03*
X28543Y-27122D03*
X34448Y-27122D03*
X34448Y-26122D03*
X34448Y-25122D03*
X34448Y-24122D03*
X34448Y-23122D03*
X34448Y-22122D03*
X34448Y-21122D03*
X34448Y-20122D03*
X28543Y-27996D03*
X28543Y-28996D03*
X28543Y-29996D03*
X28543Y-30996D03*
X28543Y-31996D03*
X28543Y-32996D03*
X28543Y-33996D03*
X28543Y-34996D03*
X34448Y-34996D03*
X34448Y-33996D03*
X34448Y-32996D03*
X34448Y-31996D03*
X34448Y-30996D03*
X34448Y-29996D03*
X34448Y-28996D03*
X34448Y-27996D03*
G54D13*
X25590Y-25295D03*
X25590Y-24823D03*
X25590Y-25767D03*
X25492Y-31496D03*
X25492Y-31024D03*
X25492Y-31968D03*
X31003Y-25295D03*
X31003Y-25767D03*
X31003Y-24823D03*
X31102Y-31397D03*
X31102Y-31869D03*
X31102Y-30925D03*
G54D11*
X24015Y-31294D03*
X24015Y-31894D03*
G54D14*
X23228Y-22834D03*
X23228Y-22637D03*
X23228Y-22440D03*
X23228Y-23031D03*
G54D15*
X23523Y-23326D03*
X23720Y-23326D03*
X23917Y-23326D03*
X24114Y-23326D03*
X24310Y-23326D03*
X24507Y-23326D03*
X24704Y-23326D03*
X24901Y-23326D03*
G54D14*
X25196Y-21653D03*
X25196Y-23031D03*
X25196Y-22834D03*
X25196Y-22637D03*
X25196Y-22440D03*
X25196Y-22244D03*
X25196Y-22047D03*
X25196Y-21850D03*
G54D15*
X24901Y-21358D03*
X24704Y-21358D03*
X24507Y-21358D03*
X24310Y-21358D03*
X24114Y-21358D03*
X23917Y-21358D03*
X23720Y-21358D03*
X23523Y-21358D03*
G54D14*
X23228Y-21653D03*
X23228Y-21850D03*
X23228Y-22047D03*
X23228Y-22244D03*
G54D16*
X24212Y-22342D03*
G54D14*
X23228Y-29133D03*
X23228Y-28936D03*
X23228Y-28739D03*
X23228Y-29330D03*
G54D15*
X23523Y-29625D03*
X23720Y-29625D03*
X23917Y-29625D03*
X24114Y-29625D03*
X24310Y-29625D03*
X24507Y-29625D03*
X24704Y-29625D03*
X24901Y-29625D03*
G54D14*
X25196Y-27952D03*
X25196Y-29330D03*
X25196Y-29133D03*
X25196Y-28936D03*
X25196Y-28739D03*
X25196Y-28543D03*
X25196Y-28346D03*
X25196Y-28149D03*
G54D15*
X24901Y-27657D03*
X24704Y-27657D03*
X24507Y-27657D03*
X24310Y-27657D03*
X24114Y-27657D03*
X23917Y-27657D03*
X23720Y-27657D03*
X23523Y-27657D03*
G54D14*
X23228Y-27952D03*
X23228Y-28149D03*
X23228Y-28346D03*
X23228Y-28543D03*
G54D16*
X24212Y-28641D03*
G54D14*
X30315Y-22834D03*
X30315Y-22637D03*
X30315Y-22440D03*
X30315Y-23031D03*
G54D15*
X30610Y-23326D03*
X30807Y-23326D03*
X31004Y-23326D03*
X31201Y-23326D03*
X31397Y-23326D03*
X31594Y-23326D03*
X31791Y-23326D03*
X31988Y-23326D03*
G54D14*
X32283Y-21653D03*
X32283Y-23031D03*
X32283Y-22834D03*
X32283Y-22637D03*
X32283Y-22440D03*
X32283Y-22244D03*
X32283Y-22047D03*
X32283Y-21850D03*
G54D15*
X31988Y-21358D03*
X31791Y-21358D03*
X31594Y-21358D03*
X31397Y-21358D03*
X31201Y-21358D03*
X31004Y-21358D03*
X30807Y-21358D03*
X30610Y-21358D03*
G54D14*
X30315Y-21653D03*
X30315Y-21850D03*
X30315Y-22047D03*
X30315Y-22244D03*
G54D16*
X31299Y-22342D03*
G54D14*
X30315Y-29133D03*
X30315Y-28936D03*
X30315Y-28739D03*
X30315Y-29330D03*
G54D15*
X30610Y-29625D03*
X30807Y-29625D03*
X31004Y-29625D03*
X31201Y-29625D03*
X31397Y-29625D03*
X31594Y-29625D03*
X31791Y-29625D03*
X31988Y-29625D03*
G54D14*
X32283Y-27952D03*
X32283Y-29330D03*
X32283Y-29133D03*
X32283Y-28936D03*
X32283Y-28739D03*
X32283Y-28543D03*
X32283Y-28346D03*
X32283Y-28149D03*
G54D15*
X31988Y-27657D03*
X31791Y-27657D03*
X31594Y-27657D03*
X31397Y-27657D03*
X31201Y-27657D03*
X31004Y-27657D03*
X30807Y-27657D03*
X30610Y-27657D03*
G54D14*
X30315Y-27952D03*
X30315Y-28149D03*
X30315Y-28346D03*
X30315Y-28543D03*
G54D16*
X31299Y-28641D03*
G54D11*
X29724Y-24798D03*
X29724Y-25398D03*
G54D17*
X30802Y-32972D03*
X31402Y-32972D03*
X33066Y-32972D03*
X33666Y-32972D03*
X33066Y-33858D03*
X33666Y-33858D03*
X33066Y-34744D03*
X33666Y-34744D03*
G54D11*
X33661Y-27259D03*
X33661Y-27859D03*
G54D17*
X29925Y-34940D03*
X29325Y-34940D03*
X29925Y-33956D03*
X29325Y-33956D03*
X29827Y-32972D03*
X29227Y-32972D03*
G54D11*
X29429Y-31491D03*
X29429Y-32091D03*
G54D17*
X33066Y-26476D03*
X33666Y-26476D03*
G54D11*
X33661Y-23233D03*
X33661Y-22633D03*
X33661Y-19975D03*
X33661Y-20575D03*
G54D17*
X29522Y-20078D03*
X30122Y-20078D03*
X27259Y-27559D03*
X27859Y-27559D03*
X27259Y-26476D03*
X27859Y-26476D03*
X27259Y-25295D03*
X27859Y-25295D03*
X27259Y-24114D03*
X27859Y-24114D03*
X25290Y-34940D03*
X25890Y-34940D03*
X25290Y-34055D03*
X25890Y-34055D03*
X25290Y-33169D03*
X25890Y-33169D03*
X27859Y-28740D03*
X27259Y-28740D03*
X23922Y-34842D03*
X23322Y-34842D03*
X23922Y-33858D03*
X23322Y-33858D03*
X22347Y-33858D03*
X21747Y-33858D03*
X22347Y-32874D03*
X21747Y-32874D03*
X27859Y-23228D03*
X27259Y-23228D03*
X27859Y-22342D03*
X27259Y-22342D03*
X27859Y-21358D03*
X27259Y-21358D03*
X27859Y-20078D03*
X27259Y-20078D03*
X22051Y-20078D03*
X21451Y-20078D03*
X22051Y-26476D03*
X21451Y-26476D03*
X23823Y-20078D03*
X23223Y-20078D03*
X25290Y-20078D03*
X25890Y-20078D03*
X31402Y-33956D03*
X30802Y-33956D03*
X32180Y-20078D03*
X32780Y-20078D03*
G54D11*
X21456Y-28548D03*
X21456Y-27948D03*
G54D17*
X22928Y-26476D03*
X23528Y-26476D03*
G54D18*
X21744Y-24500D03*
G54D19*
X21744Y-25500D03*
X22744Y-24500D03*
X22744Y-25500D03*
G54D18*
X21744Y-30799D03*
G54D19*
X21744Y-31799D03*
X22744Y-30799D03*
X22744Y-31799D03*
G54D18*
X32374Y-24500D03*
G54D19*
X32374Y-25500D03*
X33374Y-24500D03*
X33374Y-25500D03*
G54D18*
X32374Y-30799D03*
G54D19*
X32374Y-31799D03*
X33374Y-30799D03*
X33374Y-31799D03*
M02*
