G04 (created by PCBNEW (2013-mar-13)-testing) date Wed 23 Jul 2014 10:13:11 AM PDT*
%MOIN*%
G04 Gerber Fmt 3.4, Leading zero omitted, Abs format*
%FSLAX34Y34*%
G01*
G70*
G90*
G04 APERTURE LIST*
%ADD10C,0.005906*%
%ADD11C,0.065000*%
%ADD12R,0.060000X0.060000*%
%ADD13C,0.060000*%
%ADD14C,0.030000*%
%ADD15C,0.007000*%
G04 APERTURE END LIST*
G54D10*
G54D11*
X20669Y-20122D03*
X20669Y-21122D03*
X20669Y-22122D03*
X20669Y-23122D03*
X20669Y-24122D03*
X20669Y-25122D03*
X20669Y-26122D03*
X20669Y-27122D03*
X26574Y-27122D03*
X26574Y-26122D03*
X26574Y-25122D03*
X26574Y-24122D03*
X26574Y-23122D03*
X26574Y-22122D03*
X26574Y-21122D03*
X26574Y-20122D03*
X20669Y-27996D03*
X20669Y-28996D03*
X20669Y-29996D03*
X20669Y-30996D03*
X20669Y-31996D03*
X20669Y-32996D03*
X20669Y-33996D03*
X20669Y-34996D03*
X26574Y-34996D03*
X26574Y-33996D03*
X26574Y-32996D03*
X26574Y-31996D03*
X26574Y-30996D03*
X26574Y-29996D03*
X26574Y-28996D03*
X26574Y-27996D03*
X28543Y-20122D03*
X28543Y-21122D03*
X28543Y-22122D03*
X28543Y-23122D03*
X28543Y-24122D03*
X28543Y-25122D03*
X28543Y-26122D03*
X28543Y-27122D03*
X34448Y-27122D03*
X34448Y-26122D03*
X34448Y-25122D03*
X34448Y-24122D03*
X34448Y-23122D03*
X34448Y-22122D03*
X34448Y-21122D03*
X34448Y-20122D03*
X28543Y-27996D03*
X28543Y-28996D03*
X28543Y-29996D03*
X28543Y-30996D03*
X28543Y-31996D03*
X28543Y-32996D03*
X28543Y-33996D03*
X28543Y-34996D03*
X34448Y-34996D03*
X34448Y-33996D03*
X34448Y-32996D03*
X34448Y-31996D03*
X34448Y-30996D03*
X34448Y-29996D03*
X34448Y-28996D03*
X34448Y-27996D03*
G54D12*
X21744Y-24500D03*
G54D13*
X21744Y-25500D03*
X22744Y-24500D03*
X22744Y-25500D03*
G54D12*
X21744Y-30799D03*
G54D13*
X21744Y-31799D03*
X22744Y-30799D03*
X22744Y-31799D03*
G54D12*
X32374Y-24500D03*
G54D13*
X32374Y-25500D03*
X33374Y-24500D03*
X33374Y-25500D03*
G54D12*
X32374Y-30799D03*
G54D13*
X32374Y-31799D03*
X33374Y-30799D03*
X33374Y-31799D03*
G54D14*
X30314Y-25098D03*
X30216Y-25787D03*
X23879Y-26550D03*
X24560Y-25900D03*
X21548Y-27560D03*
X30736Y-33464D03*
X21503Y-20798D03*
X22810Y-23972D03*
X22332Y-30052D03*
X29876Y-22057D03*
X29883Y-28154D03*
X23408Y-24447D03*
X22425Y-29198D03*
X29486Y-22330D03*
X29585Y-28618D03*
X25738Y-22491D03*
X25738Y-23589D03*
X24744Y-32145D03*
X25905Y-29370D03*
X26121Y-22474D03*
X27124Y-24571D03*
X26173Y-21733D03*
X25672Y-28346D03*
X33035Y-22014D03*
X32967Y-28346D03*
X32270Y-27679D03*
X25176Y-27667D03*
X25731Y-24088D03*
X25644Y-21654D03*
X32283Y-21376D03*
X26217Y-27575D03*
X33783Y-21260D03*
X27924Y-20870D03*
X32764Y-26024D03*
X31407Y-20776D03*
X29802Y-22602D03*
X22299Y-22716D03*
X29656Y-29276D03*
X24567Y-20358D03*
X22810Y-22682D03*
X24189Y-20334D03*
X22666Y-23083D03*
X22868Y-20078D03*
X23250Y-23302D03*
X27278Y-20534D03*
X23545Y-23699D03*
X27339Y-29260D03*
X23760Y-30182D03*
X31045Y-20942D03*
X30684Y-23704D03*
X33117Y-27779D03*
X30842Y-30011D03*
X27801Y-21850D03*
X25364Y-24475D03*
X25314Y-32712D03*
X25171Y-29894D03*
X32663Y-21512D03*
X32503Y-23308D03*
X25269Y-32304D03*
X25663Y-29664D03*
X32797Y-23601D03*
X32797Y-22668D03*
X25143Y-27173D03*
X23820Y-20818D03*
X31645Y-24789D03*
X32050Y-20984D03*
X24586Y-30531D03*
X24704Y-31653D03*
X24144Y-32496D03*
X30616Y-27125D03*
X30917Y-32260D03*
X30997Y-19916D03*
X22088Y-20813D03*
X22959Y-20538D03*
G54D15*
X30314Y-25688D02*
X30314Y-25098D01*
X30216Y-25787D02*
X30314Y-25688D01*
X21744Y-24500D02*
X21744Y-24905D01*
X23910Y-26550D02*
X24560Y-25900D01*
X23879Y-26550D02*
X23910Y-26550D01*
X22046Y-26550D02*
X23879Y-26550D01*
X21320Y-25825D02*
X22046Y-26550D01*
X21320Y-25328D02*
X21320Y-25825D01*
X21744Y-24905D02*
X21320Y-25328D01*
X21548Y-27048D02*
X21548Y-27560D01*
X22046Y-26550D02*
X21548Y-27048D01*
X29774Y-34426D02*
X30736Y-33464D01*
X24790Y-34426D02*
X29774Y-34426D01*
X22244Y-31880D02*
X24790Y-34426D01*
X22244Y-31725D02*
X22244Y-31880D01*
X21895Y-31376D02*
X22244Y-31725D01*
X21568Y-31376D02*
X21895Y-31376D01*
X21323Y-31131D02*
X21568Y-31376D01*
X21323Y-27786D02*
X21323Y-31131D01*
X21548Y-27560D02*
X21323Y-27786D01*
X20827Y-20122D02*
X20669Y-20122D01*
X21503Y-20798D02*
X20827Y-20122D01*
X23013Y-24176D02*
X22810Y-23972D01*
X25426Y-24176D02*
X23013Y-24176D01*
X25593Y-24343D02*
X25426Y-24176D01*
X26353Y-24343D02*
X25593Y-24343D01*
X26574Y-24122D02*
X26353Y-24343D01*
X22332Y-30963D02*
X22332Y-30052D01*
X22577Y-31208D02*
X22332Y-30963D01*
X23415Y-31208D02*
X22577Y-31208D01*
X25176Y-32969D02*
X23415Y-31208D01*
X25429Y-32969D02*
X25176Y-32969D01*
X26403Y-31996D02*
X25429Y-32969D01*
X26574Y-31996D02*
X26403Y-31996D01*
X29876Y-21553D02*
X29876Y-22057D01*
X30908Y-20521D02*
X29876Y-21553D01*
X32285Y-20521D02*
X30908Y-20521D01*
X33738Y-21973D02*
X32285Y-20521D01*
X33738Y-23411D02*
X33738Y-21973D01*
X34448Y-24122D02*
X33738Y-23411D01*
X29911Y-28183D02*
X29883Y-28154D01*
X29911Y-29445D02*
X29911Y-28183D01*
X30784Y-30318D02*
X29911Y-29445D01*
X32677Y-30318D02*
X30784Y-30318D01*
X32779Y-30420D02*
X32677Y-30318D01*
X32779Y-30788D02*
X32779Y-30420D01*
X33269Y-31279D02*
X32779Y-30788D01*
X33732Y-31279D02*
X33269Y-31279D01*
X34448Y-31996D02*
X33732Y-31279D01*
X24083Y-25122D02*
X23408Y-24447D01*
X26574Y-25122D02*
X24083Y-25122D01*
X22077Y-29546D02*
X22425Y-29198D01*
X22077Y-30158D02*
X22077Y-29546D01*
X22182Y-30264D02*
X22077Y-30158D01*
X22182Y-31012D02*
X22182Y-30264D01*
X22519Y-31348D02*
X22182Y-31012D01*
X23357Y-31348D02*
X22519Y-31348D01*
X25144Y-33136D02*
X23357Y-31348D01*
X26434Y-33136D02*
X25144Y-33136D01*
X26574Y-32996D02*
X26434Y-33136D01*
X29486Y-21742D02*
X29486Y-22330D01*
X30847Y-20381D02*
X29486Y-21742D01*
X32347Y-20381D02*
X30847Y-20381D01*
X33878Y-21912D02*
X32347Y-20381D01*
X33878Y-23173D02*
X33878Y-21912D01*
X34377Y-23671D02*
X33878Y-23173D01*
X34633Y-23671D02*
X34377Y-23671D01*
X34894Y-23932D02*
X34633Y-23671D01*
X34894Y-24676D02*
X34894Y-23932D01*
X34448Y-25122D02*
X34894Y-24676D01*
X33978Y-32996D02*
X34448Y-32996D01*
X32874Y-31891D02*
X33978Y-32996D01*
X32874Y-31725D02*
X32874Y-31891D01*
X32397Y-31249D02*
X32874Y-31725D01*
X31233Y-31249D02*
X32397Y-31249D01*
X29401Y-29417D02*
X31233Y-31249D01*
X29401Y-28802D02*
X29401Y-29417D01*
X29585Y-28618D02*
X29401Y-28802D01*
X25738Y-22491D02*
X25738Y-23589D01*
X23562Y-30964D02*
X24744Y-32145D01*
X23562Y-30748D02*
X23562Y-30964D01*
X24960Y-29350D02*
X23562Y-30748D01*
X25885Y-29350D02*
X24960Y-29350D01*
X25905Y-29370D02*
X25885Y-29350D01*
X27124Y-24045D02*
X27124Y-24571D01*
X26651Y-23572D02*
X27124Y-24045D01*
X26400Y-23572D02*
X26651Y-23572D01*
X26121Y-23293D02*
X26400Y-23572D01*
X26121Y-22474D02*
X26121Y-23293D01*
X22547Y-24303D02*
X22744Y-24500D01*
X22547Y-23872D02*
X22547Y-24303D01*
X22712Y-23707D02*
X22547Y-23872D01*
X23185Y-23707D02*
X22712Y-23707D01*
X23432Y-23954D02*
X23185Y-23707D01*
X23657Y-23954D02*
X23432Y-23954D01*
X23814Y-23798D02*
X23657Y-23954D01*
X23814Y-23124D02*
X23814Y-23798D01*
X25540Y-21398D02*
X23814Y-23124D01*
X25838Y-21398D02*
X25540Y-21398D01*
X26173Y-21733D02*
X25838Y-21398D01*
X25672Y-28346D02*
X25672Y-28346D01*
X25196Y-28346D02*
X25672Y-28346D01*
X22744Y-30799D02*
X25196Y-28346D01*
X33055Y-22034D02*
X33035Y-22014D01*
X33055Y-24091D02*
X33055Y-22034D01*
X32924Y-24223D02*
X33055Y-24091D01*
X32924Y-24949D02*
X32924Y-24223D01*
X32374Y-25500D02*
X32924Y-24949D01*
X33374Y-28753D02*
X32967Y-28346D01*
X33374Y-30799D02*
X33374Y-28753D01*
X25470Y-21828D02*
X25644Y-21654D01*
X25470Y-23827D02*
X25470Y-21828D01*
X25731Y-24088D02*
X25470Y-23827D01*
X21744Y-29519D02*
X21744Y-30799D01*
X23595Y-27667D02*
X21744Y-29519D01*
X25176Y-27667D02*
X23595Y-27667D01*
X32239Y-21420D02*
X32283Y-21376D01*
X32239Y-23548D02*
X32239Y-21420D01*
X32781Y-24090D02*
X32239Y-23548D01*
X32781Y-24841D02*
X32781Y-24090D01*
X32717Y-24905D02*
X32781Y-24841D01*
X32368Y-24905D02*
X32717Y-24905D01*
X31643Y-25630D02*
X32368Y-24905D01*
X31643Y-26849D02*
X31643Y-25630D01*
X30297Y-26849D02*
X31643Y-26849D01*
X28708Y-28439D02*
X30297Y-26849D01*
X26384Y-28439D02*
X28708Y-28439D01*
X25613Y-27667D02*
X26384Y-28439D01*
X25176Y-27667D02*
X25613Y-27667D01*
X31643Y-27051D02*
X32270Y-27679D01*
X31643Y-26849D02*
X31643Y-27051D01*
X32374Y-24500D02*
X31968Y-24500D01*
X34018Y-21495D02*
X33783Y-21260D01*
X34018Y-22315D02*
X34018Y-21495D01*
X34324Y-22622D02*
X34018Y-22315D01*
X34561Y-22622D02*
X34324Y-22622D01*
X35034Y-23095D02*
X34561Y-22622D01*
X35034Y-25149D02*
X35034Y-23095D01*
X34562Y-25622D02*
X35034Y-25149D01*
X34058Y-25622D02*
X34562Y-25622D01*
X33656Y-26024D02*
X34058Y-25622D01*
X32764Y-26024D02*
X33656Y-26024D01*
X31968Y-24827D02*
X31968Y-24500D01*
X29235Y-27560D02*
X31968Y-24827D01*
X26232Y-27560D02*
X29235Y-27560D01*
X26217Y-27575D02*
X26232Y-27560D01*
X28107Y-20686D02*
X27924Y-20870D01*
X30148Y-20686D02*
X28107Y-20686D01*
X30593Y-20241D02*
X30148Y-20686D01*
X32763Y-20241D02*
X30593Y-20241D01*
X33783Y-21260D02*
X32763Y-20241D01*
X28832Y-23572D02*
X29802Y-22602D01*
X28484Y-23572D02*
X28832Y-23572D01*
X27839Y-24217D02*
X28484Y-23572D01*
X27839Y-24470D02*
X27839Y-24217D01*
X26743Y-25566D02*
X27839Y-24470D01*
X26249Y-25566D02*
X26743Y-25566D01*
X26182Y-25500D02*
X26249Y-25566D01*
X22744Y-25500D02*
X26182Y-25500D01*
X31318Y-20687D02*
X31407Y-20776D01*
X30940Y-20687D02*
X31318Y-20687D01*
X30699Y-20928D02*
X30940Y-20687D01*
X30699Y-21705D02*
X30699Y-20928D01*
X29802Y-22602D02*
X30699Y-21705D01*
X22299Y-25055D02*
X22299Y-22716D01*
X22744Y-25500D02*
X22299Y-25055D01*
X33792Y-25081D02*
X33374Y-25500D01*
X33792Y-23889D02*
X33792Y-25081D01*
X33430Y-23527D02*
X33792Y-23889D01*
X33430Y-21873D02*
X33430Y-23527D01*
X32270Y-20713D02*
X33430Y-21873D01*
X31471Y-20713D02*
X32270Y-20713D01*
X31407Y-20776D02*
X31471Y-20713D01*
X31067Y-30799D02*
X32374Y-30799D01*
X29656Y-29388D02*
X31067Y-30799D01*
X29656Y-29276D02*
X29656Y-29388D01*
X24567Y-20924D02*
X22810Y-22682D01*
X24567Y-20358D02*
X24567Y-20924D01*
X22555Y-22972D02*
X22666Y-23083D01*
X22555Y-22477D02*
X22555Y-22972D01*
X24189Y-20842D02*
X22555Y-22477D01*
X24189Y-20334D02*
X24189Y-20842D01*
X24648Y-20078D02*
X22868Y-20078D01*
X24822Y-20252D02*
X24648Y-20078D01*
X24822Y-21694D02*
X24822Y-20252D01*
X23250Y-23266D02*
X24822Y-21694D01*
X23250Y-23302D02*
X23250Y-23266D01*
X27192Y-20620D02*
X27278Y-20534D01*
X26116Y-20620D02*
X27192Y-20620D01*
X23545Y-23191D02*
X26116Y-20620D01*
X23545Y-23699D02*
X23545Y-23191D01*
X24858Y-29084D02*
X23760Y-30182D01*
X25989Y-29084D02*
X24858Y-29084D01*
X26349Y-29443D02*
X25989Y-29084D01*
X27155Y-29443D02*
X26349Y-29443D01*
X27339Y-29260D02*
X27155Y-29443D01*
X31045Y-23342D02*
X30684Y-23704D01*
X31045Y-20942D02*
X31045Y-23342D01*
X30885Y-30011D02*
X30842Y-30011D01*
X33117Y-27779D02*
X30885Y-30011D01*
X25581Y-24691D02*
X25364Y-24475D01*
X26846Y-24691D02*
X25581Y-24691D01*
X26993Y-24839D02*
X26846Y-24691D01*
X27239Y-24839D02*
X26993Y-24839D01*
X27386Y-24692D02*
X27239Y-24839D01*
X27386Y-22264D02*
X27386Y-24692D01*
X27801Y-21850D02*
X27386Y-22264D01*
X25008Y-30058D02*
X25171Y-29894D01*
X25008Y-32405D02*
X25008Y-30058D01*
X25314Y-32712D02*
X25008Y-32405D01*
X32503Y-21671D02*
X32503Y-23308D01*
X32663Y-21512D02*
X32503Y-21671D01*
X25663Y-31909D02*
X25663Y-29664D01*
X25269Y-32304D02*
X25663Y-31909D01*
X32797Y-22668D02*
X32797Y-23601D01*
X22149Y-25094D02*
X21744Y-25500D01*
X22149Y-24032D02*
X22149Y-25094D01*
X22025Y-23908D02*
X22149Y-24032D01*
X22025Y-22614D02*
X22025Y-23908D01*
X23820Y-20818D02*
X22025Y-22614D01*
X25143Y-27173D02*
X25143Y-26559D01*
X22167Y-25923D02*
X21744Y-25500D01*
X23299Y-25923D02*
X22167Y-25923D01*
X23580Y-25642D02*
X23299Y-25923D01*
X24662Y-25642D02*
X23580Y-25642D01*
X25143Y-26123D02*
X24662Y-25642D01*
X25143Y-26559D02*
X25143Y-26123D01*
X29875Y-26559D02*
X31645Y-24789D01*
X25143Y-26559D02*
X29875Y-26559D01*
X31645Y-21389D02*
X32050Y-20984D01*
X31645Y-24789D02*
X31645Y-21389D01*
X24586Y-31535D02*
X24586Y-30531D01*
X24704Y-31653D02*
X24586Y-31535D01*
X30616Y-27125D02*
X30551Y-27125D01*
X30551Y-27125D02*
X29252Y-28424D01*
X29252Y-28424D02*
X29252Y-30240D01*
X29252Y-30240D02*
X29583Y-30571D01*
X25089Y-33442D02*
X24144Y-32496D01*
X26745Y-33442D02*
X25089Y-33442D01*
X27304Y-32882D02*
X26745Y-33442D01*
X27304Y-32626D02*
X27304Y-32882D01*
X28434Y-31496D02*
X27304Y-32626D01*
X28658Y-31496D02*
X28434Y-31496D01*
X29583Y-30571D02*
X28658Y-31496D01*
X30917Y-31799D02*
X30917Y-32260D01*
X32374Y-31799D02*
X30917Y-31799D01*
X30811Y-31799D02*
X29583Y-30571D01*
X30917Y-31799D02*
X30811Y-31799D01*
X34242Y-19916D02*
X30997Y-19916D01*
X34448Y-20122D02*
X34242Y-19916D01*
X21198Y-21703D02*
X22088Y-20813D01*
X21198Y-23592D02*
X21198Y-21703D01*
X20669Y-24122D02*
X21198Y-23592D01*
X21338Y-24452D02*
X20669Y-25122D01*
X21338Y-22159D02*
X21338Y-24452D01*
X22959Y-20538D02*
X21338Y-22159D01*
M02*
