M48
INCH,TZ
T1C0.025
T2C0.040
%
G90
G05
T1
X42638Y-30875
X42915Y-36107
X43388Y-33914
X44234Y-35824
X44307Y-35122
X44910Y-34525
X45278Y-36384
X46716Y-32939
X47412Y-32094
X48534Y-32499
T2
X40945Y-29569
X40945Y-30569
X40945Y-31569
X40945Y-32569
X40945Y-33569
X40945Y-34569
X40945Y-35569
X40945Y-36569
X42169Y-30118
X42169Y-37205
X43169Y-30118
X43169Y-37205
X44169Y-30118
X44169Y-37205
X45169Y-30118
X45169Y-37205
X46169Y-30118
X46169Y-37205
X47169Y-30118
X47169Y-37205
X48169Y-30118
X48169Y-37205
X49169Y-30118
X49169Y-37205
X50394Y-29569
X50394Y-30569
X50394Y-31569
X50394Y-32569
X50394Y-33569
X50394Y-34569
X50394Y-35569
X50394Y-36569
T0
M30
